<svg width="56" height="64" viewBox="0 0 56 64" fill="none" xmlns="http://www.w3.org/2000/svg">
<path d="M53.71 32.2L40 18.46L34.14 25.89L40.46 32.2C40.7385 32.4825 40.8946 32.8633 40.8946 33.26C40.8946 33.6567 40.7385 34.0374 40.46 34.32L38.63 36.15C38.63 36.15 39.86 37.99 39.92 38.15C40.1086 38.5662 40.1665 39.0299 40.0862 39.4798C40.0058 39.9297 39.791 40.3447 39.47 40.67L25 51.64C25 55.34 25 62.94 25 62.94L53.71 34.32C53.8503 34.1814 53.9617 34.0163 54.0377 33.8344C54.1137 33.6524 54.1529 33.4572 54.1529 33.26C54.1529 33.0628 54.1137 32.8675 54.0377 32.6856C53.9617 32.5036 53.8503 32.3386 53.71 32.2V32.2Z" stroke="#007AFF" stroke-width="2" stroke-linejoin="round"/>
<path d="M15.2605 31.69C14.9826 31.4092 14.8268 31.0301 14.8268 30.635C14.8268 30.2399 14.9826 29.8608 15.2605 29.58L17.0905 27.75L15.8405 26C15.5598 25.5834 15.4461 25.0765 15.5221 24.5799C15.598 24.0834 15.8581 23.6336 16.2505 23.32L30.6305 12.32V1L2.00048 29.58C1.86019 29.7186 1.7488 29.8836 1.67278 30.0656C1.59676 30.2476 1.55762 30.4428 1.55762 30.64C1.55762 30.8372 1.59676 31.0324 1.67278 31.2144C1.7488 31.3964 1.86019 31.5614 2.00048 31.7L15.7205 45.44L21.5805 38L15.2605 31.69Z" stroke="#007AFF" stroke-width="2" stroke-linejoin="round"/>
<path d="M40.79 10C40.98 9.76001 41.03 9.64001 40.96 9.64001C40.8368 9.67692 40.7238 9.74196 40.63 9.83001L20.37 25.37C20.1746 25.5275 20.0456 25.7527 20.0085 26.001C19.9715 26.2492 20.0291 26.5023 20.17 26.71V26.71L27.17 36.81C27.3209 37.031 27.4017 37.2924 27.4017 37.56C27.4017 37.8276 27.3209 38.089 27.17 38.31L14.58 54.31C14.39 54.55 14.34 54.68 14.41 54.67C14.48 54.66 14.57 54.61 14.74 54.48L35 38.91C35.41 38.6 35.26 37.67 35.1 37.42L28.17 27.48C28.0291 27.2577 27.9568 26.9987 27.9621 26.7355C27.9674 26.4723 28.0502 26.2165 28.2 26L40.79 10Z" stroke="#00BFA5" stroke-width="2" stroke-linecap="round" stroke-linejoin="round"/>
</svg>
