<svg width="70" height="70" viewBox="0 0 70 70" fill="none" xmlns="http://www.w3.org/2000/svg">
<g clip-path="url(#clip0)">
<path d="M39.1104 48.25V60.54" stroke="#00BFA5" stroke-width="2" stroke-linecap="round" stroke-linejoin="round"/>
<path d="M30.8896 60.6899V48.1699" stroke="#00BFA5" stroke-width="2" stroke-linecap="round" stroke-linejoin="round"/>
<path d="M46.3996 45.4299V66.1699L35.0296 57.6099L23.5996 66.1699V45.4599" stroke="#007AFF" stroke-width="2" stroke-linejoin="round"/>
<path d="M34.9996 48.5501C47.3487 48.5501 57.3596 38.5392 57.3596 26.1901C57.3596 13.841 47.3487 3.83008 34.9996 3.83008C22.6506 3.83008 12.6396 13.841 12.6396 26.1901C12.6396 38.5392 22.6506 48.5501 34.9996 48.5501Z" stroke="#007AFF" stroke-width="2" stroke-linejoin="round"/>
<path d="M35.0004 43.0401C44.3064 43.0401 51.8504 35.4961 51.8504 26.1901C51.8504 16.8841 44.3064 9.34009 35.0004 9.34009C25.6944 9.34009 18.1504 16.8841 18.1504 26.1901C18.1504 35.4961 25.6944 43.0401 35.0004 43.0401Z" stroke="#00BFA5" stroke-width="2" stroke-linecap="round" stroke-linejoin="round"/>
<path d="M35.9997 17.0001L38.2797 21.6201C38.3598 21.7852 38.4792 21.928 38.6274 22.0361C38.7756 22.1442 38.9481 22.2143 39.1297 22.2401L44.2297 22.9801C44.4583 22.9946 44.6772 23.0775 44.8579 23.2182C45.0387 23.3588 45.1728 23.5506 45.243 23.7686C45.3131 23.9866 45.316 24.2207 45.2512 24.4404C45.1864 24.66 45.057 24.8551 44.8797 25.0001L41.1897 28.5901C41.0591 28.7185 40.9609 28.8762 40.9035 29.0501C40.8461 29.2241 40.8311 29.4092 40.8597 29.5901L41.7397 34.6701C41.7726 34.8783 41.747 35.0916 41.6659 35.2861C41.5849 35.4807 41.4514 35.649 41.2805 35.7722C41.1095 35.8955 40.9077 35.969 40.6975 35.9845C40.4873 36.0001 40.2769 35.957 40.0897 35.8601L35.5297 33.4701C35.3671 33.3817 35.1849 33.3354 34.9997 33.3354C34.8146 33.3354 34.6324 33.3817 34.4697 33.4701L29.9097 35.8601C29.7225 35.957 29.5121 36.0001 29.3019 35.9845C29.0917 35.969 28.8899 35.8955 28.719 35.7722C28.548 35.649 28.4146 35.4807 28.3335 35.2861C28.2525 35.0916 28.2269 34.8783 28.2597 34.6701L29.1397 29.5901C29.1683 29.4092 29.1533 29.2241 29.0959 29.0501C29.0385 28.8762 28.9404 28.7185 28.8097 28.5901L25.1197 25.0001C24.9501 24.8547 24.827 24.6627 24.7656 24.448C24.7042 24.2332 24.7072 24.0051 24.7743 23.7921C24.8415 23.579 24.9697 23.3904 25.1431 23.2496C25.3165 23.1088 25.5274 23.022 25.7497 23.0001L30.8497 22.2601C31.0314 22.2343 31.2038 22.1642 31.3521 22.0561C31.5003 21.948 31.6197 21.8052 31.6997 21.6401L33.9997 17.0001C34.0979 16.8207 34.2426 16.671 34.4185 16.5668C34.5945 16.4625 34.7952 16.4075 34.9997 16.4075C35.2042 16.4075 35.405 16.4625 35.5809 16.5668C35.7569 16.671 35.9015 16.8207 35.9997 17.0001Z" stroke="#007AFF" stroke-width="2" stroke-linejoin="round"/>
</g>
<defs>
<clipPath id="clip0">
<rect width="64" height="64" fill="white" transform="translate(3 3)"/>
</clipPath>
</defs>
</svg>
