<svg width="64" height="64" viewBox="0 0 64 64" fill="none" xmlns="http://www.w3.org/2000/svg">
<path d="M58.88 40.73H5.12C2.84459 40.73 1 42.5746 1 44.85V58.88C1 61.1554 2.84459 63 5.12 63H58.88C61.1554 63 63 61.1554 63 58.88V44.85C63 42.5746 61.1554 40.73 58.88 40.73Z" stroke="#007AFF" stroke-width="2" stroke-linejoin="round"/>
<path d="M11 51.8601H40" stroke="#00BFA5" stroke-width="2" stroke-linecap="round" stroke-linejoin="round"/>
<path d="M51.4996 54.6301C52.9411 54.6301 54.1096 53.3899 54.1096 51.8601C54.1096 50.3303 52.9411 49.0901 51.4996 49.0901C50.0582 49.0901 48.8896 50.3303 48.8896 51.8601C48.8896 53.3899 50.0582 54.6301 51.4996 54.6301Z" fill="white" stroke="#00BFA5" stroke-width="2" stroke-linecap="round" stroke-linejoin="round"/>
<path d="M40 28H45.56C46.5521 28.0043 47.5327 28.2125 48.441 28.6116C49.3493 29.0107 50.1658 29.5922 50.84 30.32L61.86 42" stroke="#007AFF" stroke-width="2" stroke-linecap="round" stroke-linejoin="round"/>
<path d="M2.15039 42L13.1504 30.32C13.8257 29.5909 14.6439 29.0087 15.554 28.6096C16.4641 28.2104 17.4466 28.0029 18.4404 28H23.4404" stroke="#007AFF" stroke-width="2" stroke-linecap="round" stroke-linejoin="round"/>
<path d="M32.0102 13.1999C33.5401 13.1999 34.7802 11.9597 34.7802 10.4299C34.7802 8.90008 33.5401 7.65991 32.0102 7.65991C30.4804 7.65991 29.2402 8.90008 29.2402 10.4299C29.2402 11.9597 30.4804 13.1999 32.0102 13.1999Z" stroke="#00BFA5" stroke-width="2" stroke-linecap="round" stroke-linejoin="round"/>
<path d="M38.2699 7.28L39.9999 5.1L39.5299 4.61L37.9999 3.1L37.5299 2.62L35.3299 4.26C34.9695 4.07126 34.5951 3.91078 34.2099 3.78L33.8699 1H33.1999H31.0899H30.4099L29.9999 3.73C29.6102 3.84085 29.2319 3.98817 28.8699 4.17L26.6899 2.48L26.1999 3L24.6899 4.42L24.2099 4.89L25.8499 7.11C25.6537 7.47502 25.4897 7.85646 25.3599 8.25L22.6299 8.59V9.27V11.38V12.05L25.3699 12.46C25.4852 12.8449 25.6324 13.2195 25.8099 13.58L24.1099 15.77L24.5799 16.25L25.9999 17.76L26.4699 18.24L28.6999 16.6C29.0683 16.7963 29.4531 16.9602 29.8499 17.09L30.1899 19.81H30.8599H32.9699H33.6499L34.0599 17.07C34.4396 16.9625 34.8079 16.8185 35.1599 16.64L37.3399 18.33L37.8199 17.86L39.3299 16.39L39.8199 15.92L38.1699 13.69C38.3821 13.301 38.5562 12.8925 38.6899 12.47L41.3599 12.13V11.5V9.39V8.72L38.6799 8.3C38.5684 7.95042 38.4314 7.6095 38.2699 7.28V7.28Z" stroke="#00BFA5" stroke-width="2" stroke-linecap="round" stroke-linejoin="round"/>
<path d="M31.7197 35.59V24.25" stroke="#00BFA5" stroke-width="2" stroke-linecap="round" stroke-linejoin="round"/>
<path d="M28.6104 27.37L31.7204 24.25L35.0404 27.57" stroke="#00BFA5" stroke-width="2" stroke-linecap="round" stroke-linejoin="round"/>
</svg>
