<svg width="64" height="64" viewBox="0 0 64 64" fill="none" xmlns="http://www.w3.org/2000/svg">
<path d="M58.9603 25.4299H5.03027C2.82113 25.4299 1.03027 27.2208 1.03027 29.4299V42.4099C1.03027 44.6191 2.82113 46.4099 5.03027 46.4099H58.9603C61.1694 46.4099 62.9603 44.6191 62.9603 42.4099V29.4299C62.9603 27.2208 61.1694 25.4299 58.9603 25.4299Z" stroke="#007AFF" stroke-width="2" stroke-linejoin="round"/>
<path d="M11.0205 35.9199H39.9905" stroke="#00BFA5" stroke-width="2" stroke-linecap="round" stroke-linejoin="round"/>
<path d="M51.4799 38.5199C52.9158 38.5199 54.0799 37.3559 54.0799 35.9199C54.0799 34.484 52.9158 33.3199 51.4799 33.3199C50.0439 33.3199 48.8799 34.484 48.8799 35.9199C48.8799 37.3559 50.0439 38.5199 51.4799 38.5199Z" stroke="#00BFA5" stroke-width="2" stroke-linecap="round" stroke-linejoin="round"/>
<path d="M46.0498 13.46C47.8499 13.5827 49.5445 14.3536 50.8198 15.63L61.8198 26.63" stroke="#007AFF" stroke-width="2" stroke-linecap="round" stroke-linejoin="round"/>
<path d="M2.18066 26.63L13.1807 15.63C14.499 14.3144 16.2602 13.5371 18.1207 13.45" stroke="#007AFF" stroke-width="2" stroke-linecap="round" stroke-linejoin="round"/>
<path d="M32 46.4099V52.8999" stroke="#007AFF" stroke-width="2" stroke-linejoin="round"/>
<path d="M48.3298 59.3899H38.2998" stroke="#007AFF" stroke-width="2" stroke-linecap="round" stroke-linejoin="round"/>
<path d="M25.4507 59.3899H15.4307" stroke="#007AFF" stroke-width="2" stroke-linecap="round" stroke-linejoin="round"/>
<path d="M35.5402 56.4099H35.3002V55.4099C35.2975 54.7539 35.0351 54.1257 34.5703 53.6628C34.1055 53.1999 33.4762 52.9399 32.8202 52.9399H31.1802C30.5242 52.9399 29.8949 53.1999 29.4301 53.6628C28.9653 54.1257 28.7028 54.7539 28.7002 55.4099V56.4099H28.4602C27.729 56.4126 27.0285 56.7042 26.5115 57.2212C25.9945 57.7383 25.7028 58.4388 25.7002 59.1699V60.2299C25.7002 60.9629 25.9907 61.6659 26.508 62.1851C27.0253 62.7043 27.7273 62.9973 28.4602 62.9999H35.5402C36.2731 62.9973 36.9751 62.7043 37.4924 62.1851C38.0097 61.6659 38.3002 60.9629 38.3002 60.2299V59.1699C38.2976 58.4388 38.0059 57.7383 37.4889 57.2212C36.9719 56.7042 36.2714 56.4126 35.5402 56.4099V56.4099Z" stroke="#00BFA5" stroke-width="2" stroke-linecap="round" stroke-linejoin="round"/>
<path d="M31.9995 12.4999C33.3692 12.4999 34.4795 11.3672 34.4795 9.96994C34.4795 8.57266 33.3692 7.43994 31.9995 7.43994C30.6299 7.43994 29.5195 8.57266 29.5195 9.96994C29.5195 11.3672 30.6299 12.4999 31.9995 12.4999Z" stroke="#007AFF" stroke-width="2" stroke-linejoin="round"/>
<path d="M25.8198 19.78C25.7792 19.4817 25.7592 19.181 25.7598 18.88C25.7598 17.2251 26.4172 15.6379 27.5874 14.4677C28.7577 13.2974 30.3448 12.64 31.9998 12.64C33.6547 12.64 35.2419 13.2974 36.4121 14.4677C37.5824 15.6379 38.2398 17.2251 38.2398 18.88C38.2404 19.181 38.2203 19.4817 38.1798 19.78" stroke="#007AFF" stroke-width="2" stroke-linejoin="round"/>
<path d="M32 21.96C37.6609 21.96 42.25 17.2679 42.25 11.48C42.25 5.69206 37.6609 1 32 1C26.3391 1 21.75 5.69206 21.75 11.48C21.75 17.2679 26.3391 21.96 32 21.96Z" stroke="#007AFF" stroke-width="2" stroke-linejoin="round"/>
</svg>
