<svg width="64" height="64" viewBox="0 0 64 64" fill="none" xmlns="http://www.w3.org/2000/svg">
<path d="M32.8779 25.4811L42.5968 28.7177L40.3476 24.768L41.9568 21.0286L32.8779 25.4811Z" fill="#007D3F"/>
<path d="M38.7847 21.6685L34.4236 20.3977L32.9699 16.6034L29.5596 26.112L38.7847 21.6685Z" fill="#007D3F"/>
<path d="M30.7389 19.9406L26.7801 22.1714L23.0498 20.5623L27.4749 29.6411L30.7389 19.9406Z" fill="#007D3F"/>
<path d="M23.5981 23.4971L22.3089 27.8491L18.5146 29.2936L28.0141 32.7314L23.5981 23.4971Z" fill="#007D3F"/>
<path d="M31.3974 34.8891L21.7334 31.5062L23.9185 35.4925L22.2637 39.2045L31.3974 34.8891Z" fill="#007D3F"/>
<path d="M25.5732 38.6834L29.9527 39.8994L31.4612 43.6754L34.7435 34.1119L25.5732 38.6834Z" fill="#007D3F"/>
<path d="M33.2891 40.3382L37.2845 38.1622L40.9965 39.8262L36.6993 30.6742L33.2891 40.3382Z" fill="#007D3F"/>
<path d="M35.9316 27.3462L40.5031 36.5073L41.7099 32.1279L45.4859 30.6193L35.9316 27.3462Z" fill="#007D3F"/>
<path d="M32.0001 3.6571L7.97266 9.82853V26.1942C7.97266 51.6937 32.0001 60.3428 32.0001 60.3428C32.0001 60.3428 56.0275 50.9805 56.0275 26.1942V9.82853L32.0001 3.6571Z" stroke="#007AFF" stroke-width="2" stroke-linejoin="round"/>
<path d="M32.0002 9.07886L12.5625 14.0617V27.3006C12.5625 47.936 32.0002 54.9303 32.0002 54.9303C32.0002 54.9303 51.4379 47.36 51.4379 27.3006V14.0617L32.0002 9.07886Z" stroke="#00BFA5" stroke-width="2" stroke-linecap="round" stroke-linejoin="round"/>
</svg>
