<svg width="64" height="64" viewBox="0 0 64 64" fill="none" xmlns="http://www.w3.org/2000/svg">
<path d="M58.9603 19.21H5.03027C2.82113 19.21 1.03027 21.0008 1.03027 23.21V36.19C1.03027 38.3991 2.82113 40.19 5.03027 40.19H58.9603C61.1694 40.19 62.9603 38.3991 62.9603 36.19V23.21C62.9603 21.0008 61.1694 19.21 58.9603 19.21Z" stroke="#007AFF" stroke-width="2" stroke-linejoin="round"/>
<path d="M11.0195 29.7H39.9895" stroke="#00BFA5" stroke-width="2" stroke-linecap="round" stroke-linejoin="round"/>
<path d="M51.4799 32.3001C52.9158 32.3001 54.0799 31.136 54.0799 29.7001C54.0799 28.2642 52.9158 27.1001 51.4799 27.1001C50.0439 27.1001 48.8799 28.2642 48.8799 29.7001C48.8799 31.136 50.0439 32.3001 51.4799 32.3001Z" stroke="#00BFA5" stroke-width="2" stroke-linecap="round" stroke-linejoin="round"/>
<path d="M38.7002 7.21997H45.5402C47.5209 7.22108 49.4202 8.00882 50.8202 9.40997L61.8202 20.41" stroke="#007AFF" stroke-width="2" stroke-linecap="round" stroke-linejoin="round"/>
<path d="M2.17969 20.41L13.1797 9.40997C14.5797 8.00882 16.4789 7.22108 18.4597 7.21997H38.6997" stroke="#007AFF" stroke-width="2" stroke-linecap="round" stroke-linejoin="round"/>
<path d="M32 40.1899V46.6699" stroke="#007AFF" stroke-width="2" stroke-linejoin="round"/>
<path d="M48.3298 53.1599H38.2998" stroke="#007AFF" stroke-width="2" stroke-linecap="round" stroke-linejoin="round"/>
<path d="M25.4497 53.1599H15.4297" stroke="#007AFF" stroke-width="2" stroke-linecap="round" stroke-linejoin="round"/>
<path d="M35.5397 50.18H35.2997V49.18C35.297 48.523 35.0349 47.8938 34.5704 47.4292C34.1059 46.9647 33.4766 46.7026 32.8197 46.7H31.1797C30.5227 46.7026 29.8935 46.9647 29.429 47.4292C28.9644 47.8938 28.7023 48.523 28.6997 49.18V50.18H28.4597C28.0925 50.1812 27.7293 50.2555 27.391 50.3984C27.0528 50.5413 26.7464 50.75 26.4896 51.0124C26.2328 51.2748 26.0307 51.5857 25.8951 51.9269C25.7595 52.2681 25.693 52.6328 25.6997 53V54C25.6997 54.7329 25.9901 55.4359 26.5074 55.9551C27.0248 56.4743 27.7268 56.7673 28.4597 56.77H35.5397C36.2726 56.7673 36.9746 56.4743 37.4919 55.9551C38.0092 55.4359 38.2997 54.7329 38.2997 54V53C38.3063 52.6328 38.2399 52.2681 38.1043 51.9269C37.9687 51.5857 37.7666 51.2748 37.5098 51.0124C37.2529 50.75 36.9465 50.5413 36.6083 50.3984C36.2701 50.2555 35.9068 50.1812 35.5397 50.18V50.18Z" stroke="#00BFA5" stroke-width="2" stroke-linecap="round" stroke-linejoin="round"/>
</svg>
