<svg width="64" height="64" viewBox="0 0 64 64" fill="none" xmlns="http://www.w3.org/2000/svg">
<path d="M62.9998 25.6899V12.5699C62.9122 11.909 62.5712 11.3079 62.0488 10.8937C61.5263 10.4795 60.8633 10.2845 60.1998 10.3499H22.0498" stroke="#00BFA5" stroke-width="2" stroke-linecap="round" stroke-linejoin="round"/>
<path d="M60.15 16.82H35.66C34.3074 16.8102 33.0053 16.305 32 15.4L28 11.77C26.9921 10.8563 25.6804 10.3501 24.32 10.35H3.39C3.07745 10.3487 2.76771 10.4089 2.47845 10.5273C2.18919 10.6457 1.92608 10.8199 1.70415 11.04C1.48222 11.2601 1.30581 11.5217 1.18499 11.81C1.06417 12.0982 1.00131 12.4074 1 12.72V50.85C1.00264 51.5918 1.29848 52.3025 1.82301 52.827C2.34754 53.3515 3.0582 53.6474 3.8 53.65H60.15C60.8918 53.6474 61.6025 53.3515 62.127 52.827C62.6515 52.3025 62.9474 51.5918 62.95 50.85V19.62C62.9474 18.8782 62.6515 18.1675 62.127 17.643C61.6025 17.1185 60.8918 16.8226 60.15 16.82Z" stroke="#007AFF" stroke-width="2" stroke-linejoin="round"/>
<path d="M26.8797 34.77C26.6358 34.1886 26.3413 33.6298 25.9997 33.1C25.6438 32.582 25.2386 32.0998 24.7897 31.66C24.3519 31.2119 23.8694 30.8098 23.3497 30.46C22.8241 30.1056 22.2647 29.8041 21.6797 29.56C20.4737 29.0518 19.1783 28.7899 17.8697 28.7899C16.561 28.7899 15.2656 29.0518 14.0597 29.56C13.4778 29.8042 12.9218 30.1057 12.3997 30.46C11.8755 30.8121 11.3866 31.214 10.9397 31.66C10.493 32.1018 10.0879 32.5839 9.72966 33.1C9.37741 33.6269 9.07606 34.1861 8.82966 34.77C8.32141 35.9759 8.05957 37.2714 8.05957 38.58C8.05957 39.8887 8.32141 41.1841 8.82966 42.39C9.31529 43.5539 10.0255 44.6107 10.9197 45.5C11.3666 45.9461 11.8555 46.3479 12.3797 46.7C12.9015 47.0575 13.4576 47.3623 14.0397 47.61C15.5407 48.2473 17.1777 48.498 18.8006 48.339C20.4236 48.18 21.9808 47.6165 23.3297 46.7C24.3695 45.9857 25.2737 45.0917 25.9997 44.06C26.3503 43.5322 26.6516 42.9731 26.8997 42.39C27.4079 41.1841 27.6697 39.8887 27.6697 38.58C27.6697 37.2714 27.4079 35.9759 26.8997 34.77H26.8797ZM9.16966 38.58C9.16526 37.3472 9.42082 36.1274 9.91966 35L14.0597 46.35C12.599 45.6424 11.3663 44.539 10.5018 43.1654C9.63732 41.7917 9.17577 40.203 9.16966 38.58ZM17.8497 47.27C17.0199 47.269 16.1947 47.1477 15.3997 46.91L17.9997 39.34L20.6597 46.65C20.6747 46.6943 20.6985 46.7351 20.7297 46.77C19.8048 47.0981 18.831 47.2672 17.8497 47.27ZM19.0497 34.51C19.5697 34.51 20.0497 34.43 20.0497 34.43C20.1451 34.4207 20.233 34.3739 20.294 34.2998C20.3549 34.2257 20.3839 34.1305 20.3747 34.035C20.3654 33.9395 20.3185 33.8516 20.2445 33.7907C20.1704 33.7297 20.0751 33.7007 19.9797 33.71C19.9797 33.71 18.5797 33.82 17.6697 33.82C16.7597 33.82 15.3797 33.71 15.3797 33.71C15.2842 33.7034 15.19 33.7349 15.1178 33.7978C15.0456 33.8606 15.0013 33.9495 14.9947 34.045C14.988 34.1405 15.0196 34.2347 15.0824 34.3069C15.1452 34.3791 15.2342 34.4234 15.3297 34.43C15.3297 34.43 15.7797 34.49 16.2397 34.51L17.5897 38.22L15.6997 43.91L12.5297 34.51C13.0497 34.51 13.5297 34.43 13.5297 34.43C13.6251 34.43 13.7167 34.3921 13.7842 34.3246C13.8517 34.2571 13.8897 34.1655 13.8897 34.07C13.8897 33.9745 13.8517 33.883 13.7842 33.8154C13.7167 33.7479 13.6251 33.71 13.5297 33.71C13.5297 33.71 12.1297 33.82 11.2197 33.82H10.5997C11.2892 32.7695 12.1989 31.8815 13.2657 31.2174C14.3325 30.5534 15.5308 30.1291 16.7778 29.9741C18.0248 29.8191 19.2906 29.9369 20.4875 30.3195C21.6844 30.7022 22.7838 31.3404 23.7097 32.19H23.5997C23.4027 32.1952 23.2086 32.2391 23.0286 32.3194C22.8486 32.3996 22.6861 32.5145 22.5506 32.6575C22.415 32.8005 22.3089 32.9688 22.2384 33.1529C22.1679 33.3369 22.1343 33.533 22.1397 33.73C22.2365 34.4614 22.5303 35.1527 22.9897 35.73C23.4512 36.4424 23.7009 37.2712 23.7097 38.12C23.645 39.1061 23.4327 40.077 23.0797 41L22.1797 43.84L19.0497 34.51ZM22.2197 46.09L24.8697 38.42C25.2924 37.437 25.5167 36.38 25.5297 35.31C25.531 35.009 25.5109 34.7082 25.4697 34.41C26.5513 36.3976 26.817 38.7282 26.2104 40.9083C25.6037 43.0883 24.1725 44.9467 22.2197 46.09Z" fill="#00C3A4"/>
</svg>
