<svg id="Layer_1" data-name="Layer 1" xmlns="http://www.w3.org/2000/svg" xmlns:xlink="http://www.w3.org/1999/xlink" viewBox="0 0 64 64"><defs><linearGradient id="New_Gradient_Swatch_4" x1="-6.21" y1="51.98" x2="17.44" y2="51.98" gradientTransform="matrix(1.08, -0.08, -0.08, 1.08, 6.58, -6.58)" gradientUnits="userSpaceOnUse"><stop offset="0" stop-color="#007aff"/><stop offset="1" stop-color="#0095ff"/></linearGradient><linearGradient id="New_Gradient_Swatch_4-2" x1="22.72" y1="39.67" x2="26.99" y2="39.67" gradientTransform="matrix(1, 0, 0, 1, 0, 0)" xlink:href="#New_Gradient_Swatch_4"/></defs><title>ic_</title><polygon points="62 62 16 62 16 2 56 2 62 8 62 62" fill="#cfdefe"/><path d="M55.44,39.25h-34v-6h34Zm-33-1h32v-4h-32Z" fill="#fff"/><path d="M55.38,24.62h-6v-6h6Zm-5-1h4v-4h-4Z" fill="#fff"/><path d="M55.44,24.62h-34v-6h34Zm-33-1h32v-4h-32Z" fill="#fff"/><path d="M55.38,29.5h-6v-6h6Zm-5-1h4v-4h-4Z" fill="#fff"/><path d="M55.44,29.5h-34v-6h34Zm-33-1h32v-4h-32Z" fill="#fff"/><path d="M55.38,34.38h-6v-6h6Zm-5-1h4v-4h-4Z" fill="#fff"/><path d="M55.44,34.38h-34v-6h34Zm-33-1h32v-4h-32Z" fill="#fff"/><path d="M55.38,39.25h-6v-6h6Zm-5-1h4v-4h-4Z" fill="#fff"/><path d="M55.38,44.12h-6v-6h6Zm-5-1h4v-4h-4Z" fill="#fff"/><path d="M55.44,44.12h-34v-6h34Zm-33-1h32v-4h-32Z" fill="#fff"/><path d="M55.38,49h-6V43h6Zm-5-1h4V44h-4Z" fill="#fff"/><path d="M55.44,49h-34V43h34Zm-33-1h32V44h-32Z" fill="#fff"/><path d="M13.15,61.5,4,52.33a2.08,2.08,0,0,1,.22-2.91L16.63,37a2.31,2.31,0,0,1,1.83-.71l8.41.77a1.69,1.69,0,0,1,1.56,1.56L29.2,47a2.37,2.37,0,0,1-.71,1.84L16.05,61.28A2.07,2.07,0,0,1,13.15,61.5Z" fill="#0366d6"/><path d="M12.67,61,3.5,51.85A2.07,2.07,0,0,1,3.72,49L16.15,36.51A2.37,2.37,0,0,1,18,35.8l8.4.77A1.69,1.69,0,0,1,28,38.13l.77,8.41A2.31,2.31,0,0,1,28,48.37L15.58,60.81A2.08,2.08,0,0,1,12.67,61Z" fill="url(#New_Gradient_Swatch_4)"/><circle cx="24.86" cy="40.14" r="2.13" fill="#001b44" opacity="0.38"/><circle cx="24.86" cy="39.67" r="2.13" fill="url(#New_Gradient_Swatch_4-2)"/><circle cx="24.86" cy="39.67" r="1.42" fill="#fff"/><rect x="6.95" y="45.64" width="12.81" height="11.07" rx="0.95" ry="0.95" transform="translate(40.1 5.55) rotate(45)" fill="#fff"/><rect x="9.28" y="43.3" width="1.42" height="8.54" transform="translate(36.57 6.87) rotate(45)" fill="#6ccb93"/><rect x="9.68" y="48.05" width="1.42" height="4.94" transform="translate(38.77 7.45) rotate(45)" fill="#6ccb93"/><rect x="11.01" y="50.59" width="1.42" height="3.93" transform="translate(40.59 7.11) rotate(45)" fill="#6ccb93"/><rect x="14.31" y="48.34" width="1.42" height="8.54" transform="translate(41.6 4.79) rotate(45)" fill="#6ccb93"/><rect x="15.99" y="50.01" width="1.42" height="8.54" transform="translate(43.27 4.09) rotate(45)" fill="#6ccb93"/><polygon points="62 8 56 8 56 2 62 8" fill="#4580f4"/><polygon points="56 8 62 8 62 14 56 8" fill="#001b44" opacity="0.1"/><line x1="62" y1="8" x2="56" y2="2" fill="#cfdefe"/><rect x="45" y="10" width="5" height="2" fill="#fff"/><rect x="50" y="10" width="5" height="1" fill="#fff"/><polygon points="24.01 8.24 24.62 9.49 26 9.69 25 10.66 25.24 12.04 24.01 11.39 22.78 12.04 23.01 10.66 22.02 9.69 23.39 9.49 24.01 8.24" fill="#001b44"/><polygon points="29.01 8.24 29.62 9.49 31 9.69 30 10.66 30.24 12.04 29.01 11.39 27.78 12.04 28.01 10.66 27.02 9.69 28.39 9.49 29.01 8.24" fill="#001b44"/><polygon points="34.01 8.24 34.62 9.49 36 9.69 35 10.66 35.24 12.04 34.01 11.39 32.78 12.04 33.01 10.66 32.02 9.69 33.39 9.49 34.01 8.24" fill="#001b44"/></svg>