<svg id="Layer_1" data-name="Layer 1" xmlns="http://www.w3.org/2000/svg" xmlns:xlink="http://www.w3.org/1999/xlink" viewBox="0 0 64 64"><defs><linearGradient id="linear-gradient" x1="29.95" y1="43.31" x2="35.37" y2="23.97" gradientUnits="userSpaceOnUse"><stop offset="0" stop-color="#007aff"/><stop offset="1" stop-color="#0095ff"/></linearGradient><linearGradient id="linear-gradient-2" x1="29" y1="11" x2="35" y2="11" gradientUnits="userSpaceOnUse"><stop offset="0" stop-color="#007aff"/><stop offset="0.63" stop-color="#008bff"/><stop offset="1" stop-color="#0095ff"/></linearGradient></defs><title>ic_</title><path d="M58,36a26,26,0,1,1-6.39-17A26,26,0,0,1,58,36Z" fill="url(#linear-gradient)"/><path d="M32,10a25.86,25.86,0,0,0-11.38,2.63C23,18.19,31.87,26.84,31.87,26.84S37.6,17,38.78,10.9A26.1,26.1,0,0,0,32,10Z" fill="#001b44" opacity="0.38"/><path d="M8.39,55.39c-3.06,0-5.13-.83-6.09-2.49-1.41-2.44,0-6.13,4-10.66a1,1,0,0,1,1.5,1.32C4.52,47.22,3.13,50.34,4,51.9c1,1.76,5,2,10.76.57,6.27-1.54,13.92-4.81,21.54-9.22C52.81,33.74,62,23.15,60,19.6c-.95-1.64-4.6-1.94-9.76-.8a1,1,0,1,1-.42-2c6.32-1.39,10.44-.78,11.91,1.76,3.46,6-10,18.07-24.37,26.39-7.78,4.49-15.61,7.84-22.06,9.42A29.26,29.26,0,0,1,8.39,55.39Z" fill="#001b44"/><path d="M25,32c-9-5-5.6-12.5-12.5-12.5l-.61,0c-.29.36-.58.73-.86,1.11A26,26,0,0,0,9.52,49.05,13.27,13.27,0,0,0,14,49C32.85,45.86,31,35.35,25,32Z" fill="#6ccb93"/><path d="M55.66,25.25a26.18,26.18,0,0,0-4-6.3A25.89,25.89,0,0,0,36.5,10.39,11.48,11.48,0,0,0,32,19.5c0,6.35,7.32,6.66,13,9.5C48,30.49,53.21,28.83,55.66,25.25Z" fill="#6ccb93"/><path d="M40.14,11.14c0,4.5-8.14,14.93-8.14,14.93s-8.14-10.43-8.14-14.93a8.14,8.14,0,0,1,16.28,0Z" fill="#fff"/><path d="M32,27.07a1,1,0,0,1-.79-.38c-.85-1.1-8.35-10.84-8.35-15.55a9.14,9.14,0,0,1,18.28,0c0,4.71-7.5,14.45-8.35,15.55A1,1,0,0,1,32,27.07ZM32,4a7.14,7.14,0,0,0-7.14,7.14c0,3.06,4.6,9.87,7.14,13.28,2.54-3.41,7.14-10.23,7.14-13.28A7.14,7.14,0,0,0,32,4Z" fill="#001b44"/><circle cx="32" cy="11" r="3" fill="url(#linear-gradient-2)"/><path d="M32,62A26,26,0,0,0,52.67,51.76c-1.31-1-3.13-1.17-5.67.24-9,5-8,9-17,2-4.07-3.16-10.31.46-11.73,4.08A25.92,25.92,0,0,0,32,62Z" fill="#6ccb93"/></svg>