<svg id="Layer_1" data-name="Layer 1" xmlns="http://www.w3.org/2000/svg" viewBox="0 0 64 64"><title>ic_</title><path d="M56,28a1,1,0,0,1-1-1V21H52a1,1,0,0,1-1-1V16H46a1,1,0,0,1,0-2h6a1,1,0,0,1,1,1v4h3a1,1,0,0,1,1,1v7A1,1,0,0,1,56,28Z" fill="#001b44"/><path d="M9,28a1,1,0,0,1-1-1V17a1,1,0,0,1,.29-.71l9-9a1,1,0,1,1,1.42,1.42L10,17.41V27A1,1,0,0,1,9,28Z" fill="#001b44"/><rect x="4" y="29" width="56" height="30" fill="#007aff"/><rect x="6" y="34" width="52" height="2" fill="#cfdefe"/><rect x="6" y="39" width="52" height="2" fill="#cfdefe"/><rect x="48" y="43" width="4" height="2" fill="#cfdefe"/><rect x="12" y="43" width="4" height="2" fill="#cfdefe"/><rect x="14" y="29" width="36" height="26" fill="#001b44" opacity="0.3"/><rect x="2" y="60" width="60" height="2" fill="#0366d6"/><rect x="3" y="58" width="58" height="2" fill="#0366d6"/><rect x="3" y="59" width="58" height="1" fill="#001b44" opacity="0.3"/><polygon points="38 2 38 4 26 4 26 2 16 2 16 4 16 58 48 58 48 4 48 2 38 2" fill="#007aff"/><rect x="23.5" y="47" width="8" height="10" fill="#cfdefe"/><rect x="32.5" y="47" width="8" height="10" fill="#cfdefe"/><rect x="12" y="24" width="2" height="3" fill="#6ccb93"/><rect x="12" y="18" width="2" height="3" fill="#6ccb93"/><rect x="20.25" y="9" width="6" height="2" fill="#cfdefe"/><rect x="20.25" y="14" width="6" height="2" fill="#cfdefe"/><rect x="20.25" y="19" width="6" height="2" fill="#cfdefe"/><rect x="20.25" y="24" width="6" height="2" fill="#cfdefe"/><rect x="20.25" y="29" width="6" height="2" fill="#cfdefe"/><rect x="20.25" y="34" width="6" height="2" fill="#cfdefe"/><rect x="27.75" y="9" width="16" height="2" fill="#cfdefe"/><rect x="27.75" y="14" width="16" height="2" fill="#cfdefe"/><rect x="27.75" y="19" width="16" height="2" fill="#cfdefe"/><rect x="27.75" y="24" width="16" height="2" fill="#cfdefe"/><rect x="27.75" y="29" width="16" height="2" fill="#cfdefe"/><rect x="27.75" y="34" width="16" height="2" fill="#cfdefe"/></svg>