<svg id="Layer_1" data-name="Layer 1" xmlns="http://www.w3.org/2000/svg" xmlns:xlink="http://www.w3.org/1999/xlink" viewBox="0 0 64 64"><defs><linearGradient id="New_Gradient_Swatch_4" x1="10.57" y1="47.55" x2="39.07" y2="14.05" gradientUnits="userSpaceOnUse"><stop offset="0" stop-color="#007aff"/><stop offset="1" stop-color="#0095ff"/></linearGradient><linearGradient id="New_Gradient_Swatch_4-2" x1="-0.1" y1="83.61" x2="32.65" y2="55.11" xlink:href="#New_Gradient_Swatch_4"/></defs><title>ic_</title><path d="M32,40H25.54A9.53,9.53,0,0,1,16,30.46V25h2v5.46A7.55,7.55,0,0,0,25.54,38H32Z" fill="#001b44"/><path d="M44,19.83c0,6.63-1.33,17.34-12,17.34-9.33,0-12-10.71-12-17.34a12,12,0,0,1,24,0Z" fill="url(#New_Gradient_Swatch_4)"/><path d="M47.25,22h-2V17.25a13.25,13.25,0,0,0-26.5,0V22h-2V17.25a15.25,15.25,0,0,1,30.5,0Z" fill="#001b44"/><rect x="45.27" y="18" width="6.73" height="12" rx="2" ry="2" fill="#6ccb93"/><rect x="13" y="18" width="6" height="12" rx="2" ry="2" transform="translate(32 48) rotate(180)" fill="#6ccb93"/><path d="M60,49c-2-6-12-8-15-9a5.21,5.21,0,0,1-1-.5L32.5,50,20.07,39.48A5,5,0,0,1,19,40c-3,1-13,3-15,9A50.16,50.16,0,0,0,2,62H62A50.16,50.16,0,0,0,60,49Z" fill="url(#New_Gradient_Swatch_4-2)"/><path d="M30,36h3a2,2,0,0,1,2,2v0a2,2,0,0,1-2,2H28a0,0,0,0,1,0,0V38A2,2,0,0,1,30,36Z" fill="#6ccb93"/><rect x="39" y="54" width="13" height="3" fill="#cfdefe"/><rect x="39" y="57" width="13" height="1" fill="#001b44" opacity="0.38"/></svg>