<svg width="479" height="312" viewBox="0 0 479 312" fill="none" xmlns="http://www.w3.org/2000/svg">
<g filter="url(#filter0_d)">
<rect x="76.7324" y="18.531" width="364" height="236" rx="20" fill="white"/>
</g>
<path d="M440.732 73.7225H76.7324V37.3746C76.7324 26.5211 85.6867 17.7225 96.7324 17.7225H420.732C431.778 17.7225 440.732 26.5211 440.732 37.3746V73.7225Z" fill="#007AFF"/>
<circle cx="357.232" cy="46.2225" r="6.5" fill="white"/>
<circle cx="381.232" cy="46.2225" r="6.5" fill="white"/>
<circle cx="405.232" cy="46.2225" r="6.5" fill="white"/>
<g filter="url(#filter1_d)">
<rect x="20.6028" y="108.645" width="259" height="60" rx="20" fill="white"/>
</g>
<path d="M63.0578 133.07L59.2928 143.645H57.4178L54.9728 136.64L52.4978 143.645H50.6228L46.8728 133.07H49.2428L51.6578 140.375L54.2228 133.07H55.8578L58.3328 140.45L60.8378 133.07H63.0578ZM79.7864 133.07L76.0214 143.645H74.1464L71.7014 136.64L69.2264 143.645H67.3514L63.6014 133.07H65.9714L68.3864 140.375L70.9514 133.07H72.5864L75.0614 140.45L77.5664 133.07H79.7864ZM96.5149 133.07L92.7499 143.645H90.8749L88.4299 136.64L85.9549 143.645H84.0799L80.3299 133.07H82.6999L85.1149 140.375L87.6799 133.07H89.3149L91.7899 140.45L94.2949 133.07H96.5149ZM99.2063 141.245V143.645H96.7763V141.245H99.2063ZM100.988 133.07H105.098C106.248 133.07 107.238 133.28 108.068 133.7C108.898 134.12 109.533 134.725 109.973 135.515C110.413 136.305 110.633 137.25 110.633 138.35C110.633 139.45 110.413 140.4 109.973 141.2C109.543 141.99 108.913 142.595 108.083 143.015C107.253 143.435 106.258 143.645 105.098 143.645H100.988V133.07ZM104.933 141.755C107.183 141.755 108.308 140.62 108.308 138.35C108.308 136.09 107.183 134.96 104.933 134.96H103.328V141.755H104.933ZM117.288 143.78C116.238 143.78 115.323 143.56 114.543 143.12C113.773 142.67 113.178 142.04 112.758 141.23C112.338 140.41 112.128 139.45 112.128 138.35C112.128 137.25 112.338 136.295 112.758 135.485C113.178 134.665 113.773 134.035 114.543 133.595C115.323 133.155 116.238 132.935 117.288 132.935C118.338 132.935 119.248 133.155 120.018 133.595C120.798 134.035 121.398 134.665 121.818 135.485C122.238 136.295 122.448 137.25 122.448 138.35C122.448 139.45 122.238 140.41 121.818 141.23C121.398 142.04 120.798 142.67 120.018 143.12C119.248 143.56 118.338 143.78 117.288 143.78ZM117.288 141.965C118.168 141.965 118.858 141.655 119.358 141.035C119.868 140.415 120.123 139.52 120.123 138.35C120.123 137.18 119.873 136.29 119.373 135.68C118.873 135.06 118.178 134.75 117.288 134.75C116.398 134.75 115.703 135.06 115.203 135.68C114.713 136.29 114.468 137.18 114.468 138.35C114.468 139.52 114.718 140.415 115.218 141.035C115.718 141.655 116.408 141.965 117.288 141.965ZM134.735 133.07V143.645H132.68V137.375L130.25 141.905H128.75L126.32 137.435V143.645H124.265V133.07H126.11L129.515 139.535L132.92 133.07H134.735ZM143.927 141.305H139.007L138.002 143.645H135.647L140.507 133.07H142.382L147.242 143.645H144.932L143.927 141.305ZM143.162 139.535L141.467 135.575L139.772 139.535H143.162ZM148.126 133.07H150.466V143.645H148.126V133.07ZM161.745 133.07V143.645H160.005L154.74 136.91V143.645H152.565V133.07H154.29L159.555 139.775V133.07H161.745ZM170.909 141.305H165.989L164.984 143.645H162.629L167.489 133.07H169.364L174.224 143.645H171.914L170.909 141.305ZM170.144 139.535L168.449 135.575L166.754 139.535H170.144ZM184.289 133.07V143.645H182.549L177.284 136.91V143.645H175.109V133.07H176.834L182.099 139.775V133.07H184.289ZM186.388 133.07H190.498C191.648 133.07 192.638 133.28 193.468 133.7C194.298 134.12 194.933 134.725 195.373 135.515C195.813 136.305 196.033 137.25 196.033 138.35C196.033 139.45 195.813 140.4 195.373 141.2C194.943 141.99 194.313 142.595 193.483 143.015C192.653 143.435 191.658 143.645 190.498 143.645H186.388V133.07ZM190.333 141.755C192.583 141.755 193.708 140.62 193.708 138.35C193.708 136.09 192.583 134.96 190.333 134.96H188.728V141.755H190.333ZM204.601 141.305H199.681L198.676 143.645H196.321L201.181 133.07H203.056L207.916 143.645H205.606L204.601 141.305ZM203.836 139.535L202.141 135.575L200.446 139.535H203.836ZM211.208 141.245V143.645H208.778V141.245H211.208ZM217.427 143.78C216.357 143.78 215.422 143.555 214.622 143.105C213.832 142.655 213.222 142.02 212.792 141.2C212.372 140.38 212.162 139.43 212.162 138.35C212.162 137.27 212.372 136.32 212.792 135.5C213.222 134.68 213.832 134.05 214.622 133.61C215.422 133.16 216.357 132.935 217.427 132.935C218.127 132.935 218.797 133.045 219.437 133.265C220.077 133.475 220.602 133.77 221.012 134.15L220.262 135.815C219.802 135.465 219.342 135.21 218.882 135.05C218.432 134.89 217.962 134.81 217.472 134.81C216.532 134.81 215.807 135.11 215.297 135.71C214.797 136.31 214.547 137.19 214.547 138.35C214.547 139.51 214.797 140.395 215.297 141.005C215.807 141.605 216.532 141.905 217.472 141.905C217.962 141.905 218.432 141.825 218.882 141.665C219.342 141.505 219.802 141.25 220.262 140.9L221.012 142.565C220.602 142.945 220.077 143.245 219.437 143.465C218.797 143.675 218.127 143.78 217.427 143.78ZM227.269 143.78C226.219 143.78 225.304 143.56 224.524 143.12C223.754 142.67 223.159 142.04 222.739 141.23C222.319 140.41 222.109 139.45 222.109 138.35C222.109 137.25 222.319 136.295 222.739 135.485C223.159 134.665 223.754 134.035 224.524 133.595C225.304 133.155 226.219 132.935 227.269 132.935C228.319 132.935 229.229 133.155 229.999 133.595C230.779 134.035 231.379 134.665 231.799 135.485C232.219 136.295 232.429 137.25 232.429 138.35C232.429 139.45 232.219 140.41 231.799 141.23C231.379 142.04 230.779 142.67 229.999 143.12C229.229 143.56 228.319 143.78 227.269 143.78ZM227.269 141.965C228.149 141.965 228.839 141.655 229.339 141.035C229.849 140.415 230.104 139.52 230.104 138.35C230.104 137.18 229.854 136.29 229.354 135.68C228.854 135.06 228.159 134.75 227.269 134.75C226.379 134.75 225.684 135.06 225.184 135.68C224.694 136.29 224.449 137.18 224.449 138.35C224.449 139.52 224.699 140.415 225.199 141.035C225.699 141.655 226.389 141.965 227.269 141.965ZM244.715 133.07V143.645H242.66V137.375L240.23 141.905H238.73L236.3 137.435V143.645H234.245V133.07H236.09L239.495 139.535L242.9 133.07H244.715Z" fill="#3A4166"/>
<g filter="url(#filter2_d)">
<rect x="118.207" y="197.609" width="214.05" height="84" rx="20" fill="white"/>
</g>
<path d="M144.061 219.516H147.616C149.306 219.516 150.611 219.976 151.531 220.896C152.461 221.806 152.926 223.106 152.926 224.796C152.926 226.486 152.461 227.791 151.531 228.711C150.611 229.631 149.306 230.091 147.616 230.091H144.061V219.516ZM147.541 229.041C150.281 229.041 151.651 227.626 151.651 224.796C151.651 221.976 150.281 220.566 147.541 220.566H145.291V229.041H147.541ZM157.94 222.606C158.87 222.606 159.56 222.846 160.01 223.326C160.47 223.796 160.7 224.516 160.7 225.486V230.091H159.515V228.846C159.325 229.276 159.035 229.611 158.645 229.851C158.255 230.081 157.805 230.196 157.295 230.196C156.825 230.196 156.39 230.101 155.99 229.911C155.6 229.721 155.29 229.456 155.06 229.116C154.83 228.776 154.715 228.401 154.715 227.991C154.715 227.441 154.855 227.016 155.135 226.716C155.415 226.406 155.875 226.186 156.515 226.056C157.155 225.916 158.045 225.846 159.185 225.846H159.515V225.351C159.515 224.741 159.39 224.301 159.14 224.031C158.89 223.751 158.485 223.611 157.925 223.611C157.085 223.611 156.25 223.871 155.42 224.391L155.015 223.506C155.395 223.236 155.85 223.021 156.38 222.861C156.92 222.691 157.44 222.606 157.94 222.606ZM157.46 229.236C158.06 229.236 158.55 229.036 158.93 228.636C159.32 228.226 159.515 227.701 159.515 227.061V226.626H159.245C158.365 226.626 157.695 226.666 157.235 226.746C156.775 226.816 156.445 226.941 156.245 227.121C156.055 227.291 155.96 227.546 155.96 227.886C155.96 228.276 156.1 228.601 156.38 228.861C156.67 229.111 157.03 229.236 157.46 229.236ZM166.134 229.221C166.354 229.221 166.574 229.206 166.794 229.176L166.734 230.136C166.504 230.176 166.254 230.196 165.984 230.196C165.104 230.196 164.439 229.966 163.989 229.506C163.549 229.046 163.329 228.406 163.329 227.586V223.746H161.904V222.786H163.329V220.566H164.544V222.786H166.614V223.746H164.544V227.496C164.544 228.646 165.074 229.221 166.134 229.221ZM170.992 222.606C171.922 222.606 172.612 222.846 173.062 223.326C173.522 223.796 173.752 224.516 173.752 225.486V230.091H172.567V228.846C172.377 229.276 172.087 229.611 171.697 229.851C171.307 230.081 170.857 230.196 170.347 230.196C169.877 230.196 169.442 230.101 169.042 229.911C168.652 229.721 168.342 229.456 168.112 229.116C167.882 228.776 167.767 228.401 167.767 227.991C167.767 227.441 167.907 227.016 168.187 226.716C168.467 226.406 168.927 226.186 169.567 226.056C170.207 225.916 171.097 225.846 172.237 225.846H172.567V225.351C172.567 224.741 172.442 224.301 172.192 224.031C171.942 223.751 171.537 223.611 170.977 223.611C170.137 223.611 169.302 223.871 168.472 224.391L168.067 223.506C168.447 223.236 168.902 223.021 169.432 222.861C169.972 222.691 170.492 222.606 170.992 222.606ZM170.512 229.236C171.112 229.236 171.602 229.036 171.982 228.636C172.372 228.226 172.567 227.701 172.567 227.061V226.626H172.297C171.417 226.626 170.747 226.666 170.287 226.746C169.827 226.816 169.497 226.941 169.297 227.121C169.107 227.291 169.012 227.546 169.012 227.886C169.012 228.276 169.152 228.601 169.432 228.861C169.722 229.111 170.082 229.236 170.512 229.236ZM180.023 219.516H183.578C185.268 219.516 186.573 219.976 187.493 220.896C188.423 221.806 188.888 223.106 188.888 224.796C188.888 226.486 188.423 227.791 187.493 228.711C186.573 229.631 185.268 230.091 183.578 230.091H180.023V219.516ZM183.503 229.041C186.243 229.041 187.613 227.626 187.613 224.796C187.613 221.976 186.243 220.566 183.503 220.566H181.253V229.041H183.503ZM190.932 222.786H192.147V230.091H190.932V222.786ZM192.282 219.621V220.986H190.812V219.621H192.282ZM198.558 223.656L197.763 223.731C197.013 223.801 196.468 224.036 196.128 224.436C195.798 224.836 195.633 225.331 195.633 225.921V230.091H194.418V222.786H195.603V224.061C196.013 223.211 196.818 222.736 198.018 222.636L198.453 222.606L198.558 223.656ZM199.706 222.786H200.921V230.091H199.706V222.786ZM201.056 219.621V220.986H199.586V219.621H201.056ZM214.155 227.376H208.635L207.465 230.091H206.205L210.855 219.516H211.92L216.57 230.091H215.325L214.155 227.376ZM213.72 226.356L211.395 220.941L209.07 226.356H213.72ZM221.633 222.606C223.383 222.606 224.258 223.571 224.258 225.501V230.091H223.043V225.576C223.043 224.896 222.908 224.401 222.638 224.091C222.378 223.781 221.958 223.626 221.378 223.626C220.708 223.626 220.173 223.831 219.773 224.241C219.373 224.651 219.173 225.206 219.173 225.906V230.091H217.958V222.786H219.158V223.986C219.398 223.536 219.733 223.196 220.163 222.966C220.593 222.726 221.083 222.606 221.633 222.606ZM232.964 219.516V230.091H231.749V228.756C231.529 229.216 231.204 229.571 230.774 229.821C230.354 230.071 229.859 230.196 229.289 230.196C228.649 230.196 228.084 230.036 227.594 229.716C227.104 229.396 226.724 228.951 226.454 228.381C226.184 227.801 226.049 227.131 226.049 226.371C226.049 225.621 226.184 224.961 226.454 224.391C226.724 223.821 227.104 223.381 227.594 223.071C228.084 222.761 228.649 222.606 229.289 222.606C229.859 222.606 230.354 222.731 230.774 222.981C231.204 223.231 231.529 223.586 231.749 224.046V219.516H232.964ZM229.529 229.191C230.239 229.191 230.784 228.951 231.164 228.471C231.554 227.981 231.749 227.291 231.749 226.401C231.749 225.511 231.554 224.826 231.164 224.346C230.784 223.866 230.239 223.626 229.529 223.626C228.819 223.626 228.264 223.866 227.864 224.346C227.474 224.826 227.279 225.501 227.279 226.371C227.279 227.261 227.474 227.956 227.864 228.456C228.264 228.946 228.819 229.191 229.529 229.191ZM238.184 222.606C239.114 222.606 239.804 222.846 240.254 223.326C240.714 223.796 240.944 224.516 240.944 225.486V230.091H239.759V228.846C239.569 229.276 239.279 229.611 238.889 229.851C238.499 230.081 238.049 230.196 237.539 230.196C237.069 230.196 236.634 230.101 236.234 229.911C235.844 229.721 235.534 229.456 235.304 229.116C235.074 228.776 234.959 228.401 234.959 227.991C234.959 227.441 235.099 227.016 235.379 226.716C235.659 226.406 236.119 226.186 236.759 226.056C237.399 225.916 238.289 225.846 239.429 225.846H239.759V225.351C239.759 224.741 239.634 224.301 239.384 224.031C239.134 223.751 238.729 223.611 238.169 223.611C237.329 223.611 236.494 223.871 235.664 224.391L235.259 223.506C235.639 223.236 236.094 223.021 236.624 222.861C237.164 222.691 237.684 222.606 238.184 222.606ZM237.704 229.236C238.304 229.236 238.794 229.036 239.174 228.636C239.564 228.226 239.759 227.701 239.759 227.061V226.626H239.489C238.609 226.626 237.939 226.666 237.479 226.746C237.019 226.816 236.689 226.941 236.489 227.121C236.299 227.291 236.204 227.546 236.204 227.886C236.204 228.276 236.344 228.601 236.624 228.861C236.914 229.111 237.274 229.236 237.704 229.236Z" fill="#3A4166"/>
<path d="M152.536 249.987V260.562H151.591L145.216 252.057V260.562H144.061V249.987H145.006L151.381 258.492V249.987H152.536ZM157.94 253.077C158.87 253.077 159.56 253.317 160.01 253.797C160.47 254.267 160.7 254.987 160.7 255.957V260.562H159.515V259.317C159.325 259.747 159.035 260.082 158.645 260.322C158.255 260.552 157.805 260.667 157.295 260.667C156.825 260.667 156.39 260.572 155.99 260.382C155.6 260.192 155.29 259.927 155.06 259.587C154.83 259.247 154.715 258.872 154.715 258.462C154.715 257.912 154.855 257.487 155.135 257.187C155.415 256.877 155.875 256.657 156.515 256.527C157.155 256.387 158.045 256.317 159.185 256.317H159.515V255.822C159.515 255.212 159.39 254.772 159.14 254.502C158.89 254.222 158.485 254.082 157.925 254.082C157.085 254.082 156.25 254.342 155.42 254.862L155.015 253.977C155.395 253.707 155.85 253.492 156.38 253.332C156.92 253.162 157.44 253.077 157.94 253.077ZM157.46 259.707C158.06 259.707 158.55 259.507 158.93 259.107C159.32 258.697 159.515 258.172 159.515 257.532V257.097H159.245C158.365 257.097 157.695 257.137 157.235 257.217C156.775 257.287 156.445 257.412 156.245 257.592C156.055 257.762 155.96 258.017 155.96 258.357C155.96 258.747 156.1 259.072 156.38 259.332C156.67 259.582 157.03 259.707 157.46 259.707ZM171.054 253.077C172.674 253.077 173.484 254.042 173.484 255.972V260.562H172.269V256.032C172.269 255.362 172.149 254.872 171.909 254.562C171.679 254.252 171.304 254.097 170.784 254.097C170.174 254.097 169.694 254.302 169.344 254.712C168.994 255.122 168.819 255.682 168.819 256.392V260.562H167.604V256.032C167.604 255.352 167.484 254.862 167.244 254.562C167.004 254.252 166.624 254.097 166.104 254.097C165.494 254.097 165.014 254.302 164.664 254.712C164.314 255.122 164.139 255.682 164.139 256.392V260.562H162.924V253.257H164.124V254.412C164.344 253.982 164.649 253.652 165.039 253.422C165.429 253.192 165.879 253.077 166.389 253.077C167.519 253.077 168.264 253.557 168.624 254.517C168.834 254.067 169.154 253.717 169.584 253.467C170.014 253.207 170.504 253.077 171.054 253.077ZM178.667 253.077C179.597 253.077 180.287 253.317 180.737 253.797C181.197 254.267 181.427 254.987 181.427 255.957V260.562H180.242V259.317C180.052 259.747 179.762 260.082 179.372 260.322C178.982 260.552 178.532 260.667 178.022 260.667C177.552 260.667 177.117 260.572 176.717 260.382C176.327 260.192 176.017 259.927 175.787 259.587C175.557 259.247 175.442 258.872 175.442 258.462C175.442 257.912 175.582 257.487 175.862 257.187C176.142 256.877 176.602 256.657 177.242 256.527C177.882 256.387 178.772 256.317 179.912 256.317H180.242V255.822C180.242 255.212 180.117 254.772 179.867 254.502C179.617 254.222 179.212 254.082 178.652 254.082C177.812 254.082 176.977 254.342 176.147 254.862L175.742 253.977C176.122 253.707 176.577 253.492 177.107 253.332C177.647 253.162 178.167 253.077 178.667 253.077ZM178.187 259.707C178.787 259.707 179.277 259.507 179.657 259.107C180.047 258.697 180.242 258.172 180.242 257.532V257.097H179.972C179.092 257.097 178.422 257.137 177.962 257.217C177.502 257.287 177.172 257.412 176.972 257.592C176.782 257.762 176.687 258.017 176.687 258.357C176.687 258.747 176.827 259.072 177.107 259.332C177.397 259.582 177.757 259.707 178.187 259.707ZM187.519 249.987H188.734V260.562H187.519V249.987ZM197.125 257.097H191.785C191.825 257.947 192.055 258.592 192.475 259.032C192.895 259.462 193.49 259.677 194.26 259.677C195.11 259.677 195.89 259.387 196.6 258.807L197.005 259.692C196.685 259.992 196.275 260.232 195.775 260.412C195.275 260.582 194.765 260.667 194.245 260.667C193.105 260.667 192.205 260.332 191.545 259.662C190.895 258.992 190.57 258.067 190.57 256.887C190.57 256.137 190.715 255.477 191.005 254.907C191.295 254.327 191.7 253.877 192.22 253.557C192.75 253.237 193.35 253.077 194.02 253.077C194.99 253.077 195.75 253.397 196.3 254.037C196.85 254.667 197.125 255.537 197.125 256.647V257.097ZM194.035 254.022C193.395 254.022 192.88 254.222 192.49 254.622C192.11 255.022 191.885 255.587 191.815 256.317H196.06C196.04 255.577 195.855 255.012 195.505 254.622C195.155 254.222 194.665 254.022 194.035 254.022ZM202.59 253.077C204.34 253.077 205.215 254.042 205.215 255.972V260.562H204V256.047C204 255.367 203.865 254.872 203.595 254.562C203.335 254.252 202.915 254.097 202.335 254.097C201.665 254.097 201.13 254.302 200.73 254.712C200.33 255.122 200.13 255.677 200.13 256.377V260.562H198.915V253.257H200.115V254.457C200.355 254.007 200.69 253.667 201.12 253.437C201.55 253.197 202.04 253.077 202.59 253.077ZM213.981 253.257V260.067C213.981 261.157 213.701 261.977 213.141 262.527C212.581 263.087 211.751 263.367 210.651 263.367C209.371 263.367 208.296 263.037 207.426 262.377L207.831 261.477C208.321 261.797 208.781 262.027 209.211 262.167C209.641 262.307 210.121 262.377 210.651 262.377C211.351 262.377 211.881 262.187 212.241 261.807C212.601 261.437 212.781 260.892 212.781 260.172V258.882C212.571 259.352 212.246 259.712 211.806 259.962C211.376 260.212 210.866 260.337 210.276 260.337C209.636 260.337 209.066 260.187 208.566 259.887C208.076 259.587 207.691 259.162 207.411 258.612C207.141 258.062 207.006 257.427 207.006 256.707C207.006 255.987 207.141 255.352 207.411 254.802C207.691 254.252 208.076 253.827 208.566 253.527C209.066 253.227 209.636 253.077 210.276 253.077C210.856 253.077 211.361 253.202 211.791 253.452C212.221 253.702 212.546 254.057 212.766 254.517V253.257H213.981ZM210.516 259.332C211.216 259.332 211.766 259.102 212.166 258.642C212.566 258.172 212.766 257.527 212.766 256.707C212.766 255.897 212.566 255.262 212.166 254.802C211.776 254.332 211.226 254.097 210.516 254.097C209.806 254.097 209.246 254.332 208.836 254.802C208.436 255.262 208.236 255.897 208.236 256.707C208.236 257.527 208.436 258.172 208.836 258.642C209.246 259.102 209.806 259.332 210.516 259.332ZM221.165 260.562L217.445 257.067V260.562H216.23V249.987H217.445V256.572L220.85 253.272H222.395L218.765 256.767L222.74 260.562H221.165ZM226.641 253.077C227.571 253.077 228.261 253.317 228.711 253.797C229.171 254.267 229.401 254.987 229.401 255.957V260.562H228.216V259.317C228.026 259.747 227.736 260.082 227.346 260.322C226.956 260.552 226.506 260.667 225.996 260.667C225.526 260.667 225.091 260.572 224.691 260.382C224.301 260.192 223.991 259.927 223.761 259.587C223.531 259.247 223.416 258.872 223.416 258.462C223.416 257.912 223.556 257.487 223.836 257.187C224.116 256.877 224.576 256.657 225.216 256.527C225.856 256.387 226.746 256.317 227.886 256.317H228.216V255.822C228.216 255.212 228.091 254.772 227.841 254.502C227.591 254.222 227.186 254.082 226.626 254.082C225.786 254.082 224.951 254.342 224.121 254.862L223.716 253.977C224.096 253.707 224.551 253.492 225.081 253.332C225.621 253.162 226.141 253.077 226.641 253.077ZM226.161 259.707C226.761 259.707 227.251 259.507 227.631 259.107C228.021 258.697 228.216 258.172 228.216 257.532V257.097H227.946C227.066 257.097 226.396 257.137 225.936 257.217C225.476 257.287 225.146 257.412 224.946 257.592C224.756 257.762 224.661 258.017 224.661 258.357C224.661 258.747 224.801 259.072 225.081 259.332C225.371 259.582 225.731 259.707 226.161 259.707ZM235.3 253.077C235.94 253.077 236.505 253.237 236.995 253.557C237.485 253.877 237.865 254.327 238.135 254.907C238.405 255.477 238.54 256.142 238.54 256.902C238.54 257.662 238.405 258.327 238.135 258.897C237.865 259.457 237.485 259.892 236.995 260.202C236.515 260.512 235.95 260.667 235.3 260.667C234.73 260.667 234.23 260.542 233.8 260.292C233.38 260.042 233.06 259.687 232.84 259.227V263.262H231.625V253.257H232.84V254.517C233.06 254.057 233.38 253.702 233.8 253.452C234.23 253.202 234.73 253.077 235.3 253.077ZM235.06 259.662C235.77 259.662 236.32 259.422 236.71 258.942C237.1 258.462 237.295 257.782 237.295 256.902C237.295 256.022 237.1 255.337 236.71 254.847C236.32 254.347 235.77 254.097 235.06 254.097C234.35 254.097 233.8 254.337 233.41 254.817C233.03 255.297 232.84 255.982 232.84 256.872C232.84 257.762 233.03 258.452 233.41 258.942C233.8 259.422 234.35 259.662 235.06 259.662ZM245.573 253.257V254.802H244.043V253.257H245.573ZM245.573 259.032V260.562H244.043V259.032H245.573ZM258.028 260.562H256.558L254.278 257.712L252.013 260.562H250.528L253.558 256.797L250.708 253.257H252.178L254.278 255.912L256.378 253.257H257.863L254.998 256.797L258.028 260.562ZM265.791 260.562H264.321L262.041 257.712L259.776 260.562H258.291L261.321 256.797L258.471 253.257H259.941L262.041 255.912L264.141 253.257H265.626L262.761 256.797L265.791 260.562ZM273.555 260.562H272.085L269.805 257.712L267.54 260.562H266.055L269.085 256.797L266.235 253.257H267.705L269.805 255.912L271.905 253.257H273.39L270.525 256.797L273.555 260.562ZM281.319 260.562H279.849L277.569 257.712L275.304 260.562H273.819L276.849 256.797L273.999 253.257H275.469L277.569 255.912L279.669 253.257H281.154L278.289 256.797L281.319 260.562ZM289.082 260.562H287.612L285.332 257.712L283.067 260.562H281.582L284.612 256.797L281.762 253.257H283.232L285.332 255.912L287.432 253.257H288.917L286.052 256.797L289.082 260.562Z" fill="#3A4166"/>
<g filter="url(#filter3_d)">
<path d="M458.314 144.426H397.815C392.247 144.426 387.732 148.941 387.732 154.51V215.008C387.732 220.577 392.247 225.091 397.815 225.091H458.314C463.883 225.091 468.397 220.577 468.397 215.008V154.51C468.397 148.941 463.883 144.426 458.314 144.426Z" fill="#007AFF"/>
</g>
<path d="M409.572 179.998C409.572 198.748 421.9 206.487 428.065 208.013C434.229 206.487 446.558 198.748 446.558 179.998V169.012L428.065 161.505L409.572 169.012V179.998Z" stroke="white" stroke-width="1.26039" stroke-linecap="round" stroke-linejoin="round"/>
<path d="M415.25 181.46C415.25 194.453 423.793 199.815 428.065 200.873C432.336 199.815 440.88 194.453 440.88 181.46V173.847L428.065 168.645L415.25 173.847V181.46Z" stroke="white" stroke-width="1.26039" stroke-linecap="round" stroke-linejoin="round"/>
<g filter="url(#filter4_d)">
<path d="M263.338 5.39014H202.839C197.27 5.39014 192.756 9.90449 192.756 15.4732V75.9718C192.756 81.5406 197.27 86.0549 202.839 86.0549H263.338C268.906 86.0549 273.421 81.5406 273.421 75.9718V15.4732C273.421 9.90449 268.906 5.39014 263.338 5.39014Z" fill="white"/>
</g>
<circle cx="241.718" cy="37.0932" r="10.0149" transform="rotate(45 241.718 37.0932)" stroke="#007AFF" stroke-width="1.26"/>
<path d="M234.191 44.6203L231.607 47.2044" stroke="#007AFF" stroke-width="1.26"/>
<rect x="229.668" y="46.1573" width="4.2219" height="19.4928" rx="2.11095" transform="rotate(45 229.668 46.1573)" stroke="#007AFF" stroke-width="1.26"/>
<g filter="url(#filter5_d)">
<rect x="311.814" y="88.6452" width="62.9187" height="60" rx="20" fill="#FB8C00"/>
</g>
<circle cx="343.273" cy="109.176" r="4.35642" stroke="white" stroke-width="1.26" stroke-linecap="round"/>
<path d="M358.232 129.122C358.232 120.86 351.535 114.163 343.273 114.163C335.011 114.163 328.314 120.86 328.314 129.122" stroke="white" stroke-width="1.26" stroke-linecap="round"/>
<defs>
<filter id="filter0_d" x="56.7324" y="8.53101" width="404" height="276" filterUnits="userSpaceOnUse" color-interpolation-filters="sRGB">
<feFlood flood-opacity="0" result="BackgroundImageFix"/>
<feColorMatrix in="SourceAlpha" type="matrix" values="0 0 0 0 0 0 0 0 0 0 0 0 0 0 0 0 0 0 127 0"/>
<feOffset dy="10"/>
<feGaussianBlur stdDeviation="10"/>
<feColorMatrix type="matrix" values="0 0 0 0 0.226667 0 0 0 0 0.2544 0 0 0 0 0.4 0 0 0 0.15 0"/>
<feBlend mode="normal" in2="BackgroundImageFix" result="effect1_dropShadow"/>
<feBlend mode="normal" in="SourceGraphic" in2="effect1_dropShadow" result="shape"/>
</filter>
<filter id="filter1_d" x="0.602844" y="98.6449" width="299" height="100" filterUnits="userSpaceOnUse" color-interpolation-filters="sRGB">
<feFlood flood-opacity="0" result="BackgroundImageFix"/>
<feColorMatrix in="SourceAlpha" type="matrix" values="0 0 0 0 0 0 0 0 0 0 0 0 0 0 0 0 0 0 127 0"/>
<feOffset dy="10"/>
<feGaussianBlur stdDeviation="10"/>
<feColorMatrix type="matrix" values="0 0 0 0 0.226667 0 0 0 0 0.2544 0 0 0 0 0.4 0 0 0 0.15 0"/>
<feBlend mode="normal" in2="BackgroundImageFix" result="effect1_dropShadow"/>
<feBlend mode="normal" in="SourceGraphic" in2="effect1_dropShadow" result="shape"/>
</filter>
<filter id="filter2_d" x="98.2068" y="187.609" width="254.05" height="124" filterUnits="userSpaceOnUse" color-interpolation-filters="sRGB">
<feFlood flood-opacity="0" result="BackgroundImageFix"/>
<feColorMatrix in="SourceAlpha" type="matrix" values="0 0 0 0 0 0 0 0 0 0 0 0 0 0 0 0 0 0 127 0"/>
<feOffset dy="10"/>
<feGaussianBlur stdDeviation="10"/>
<feColorMatrix type="matrix" values="0 0 0 0 0.226667 0 0 0 0 0.2544 0 0 0 0 0.4 0 0 0 0.15 0"/>
<feBlend mode="normal" in2="BackgroundImageFix" result="effect1_dropShadow"/>
<feBlend mode="normal" in="SourceGraphic" in2="effect1_dropShadow" result="shape"/>
</filter>
<filter id="filter3_d" x="377.649" y="139.385" width="100.831" height="100.831" filterUnits="userSpaceOnUse" color-interpolation-filters="sRGB">
<feFlood flood-opacity="0" result="BackgroundImageFix"/>
<feColorMatrix in="SourceAlpha" type="matrix" values="0 0 0 0 0 0 0 0 0 0 0 0 0 0 0 0 0 0 127 0"/>
<feOffset dy="5.04155"/>
<feGaussianBlur stdDeviation="5.04155"/>
<feColorMatrix type="matrix" values="0 0 0 0 0.0666667 0 0 0 0 0.101961 0 0 0 0 0.407843 0 0 0 0.1 0"/>
<feBlend mode="normal" in2="BackgroundImageFix" result="effect1_dropShadow"/>
<feBlend mode="normal" in="SourceGraphic" in2="effect1_dropShadow" result="shape"/>
</filter>
<filter id="filter4_d" x="182.673" y="0.348587" width="100.831" height="100.831" filterUnits="userSpaceOnUse" color-interpolation-filters="sRGB">
<feFlood flood-opacity="0" result="BackgroundImageFix"/>
<feColorMatrix in="SourceAlpha" type="matrix" values="0 0 0 0 0 0 0 0 0 0 0 0 0 0 0 0 0 0 127 0"/>
<feOffset dy="5.04155"/>
<feGaussianBlur stdDeviation="5.04155"/>
<feColorMatrix type="matrix" values="0 0 0 0 0.0666667 0 0 0 0 0.101961 0 0 0 0 0.407843 0 0 0 0.1 0"/>
<feBlend mode="normal" in2="BackgroundImageFix" result="effect1_dropShadow"/>
<feBlend mode="normal" in="SourceGraphic" in2="effect1_dropShadow" result="shape"/>
</filter>
<filter id="filter5_d" x="291.814" y="78.6452" width="102.919" height="100" filterUnits="userSpaceOnUse" color-interpolation-filters="sRGB">
<feFlood flood-opacity="0" result="BackgroundImageFix"/>
<feColorMatrix in="SourceAlpha" type="matrix" values="0 0 0 0 0 0 0 0 0 0 0 0 0 0 0 0 0 0 127 0"/>
<feOffset dy="10"/>
<feGaussianBlur stdDeviation="10"/>
<feColorMatrix type="matrix" values="0 0 0 0 0.226667 0 0 0 0 0.2544 0 0 0 0 0.4 0 0 0 0.15 0"/>
<feBlend mode="normal" in2="BackgroundImageFix" result="effect1_dropShadow"/>
<feBlend mode="normal" in="SourceGraphic" in2="effect1_dropShadow" result="shape"/>
</filter>
</defs>
</svg>
