<svg width="504" height="300" viewBox="0 0 504 300" fill="none" xmlns="http://www.w3.org/2000/svg">
<g filter="url(#filter0_d)">
<rect x="87.9308" y="10.8392" width="364" height="236" rx="20" fill="white"/>
</g>
<path d="M451.931 66.0308H87.9308V29.6828C87.9308 18.8293 96.8851 10.0308 107.931 10.0308H431.931C442.976 10.0308 451.931 18.8293 451.931 29.6828V66.0308Z" fill="#007AFF"/>
<circle cx="368.431" cy="38.5308" r="6.5" fill="white"/>
<circle cx="392.431" cy="38.5308" r="6.5" fill="white"/>
<circle cx="416.431" cy="38.5308" r="6.5" fill="white"/>
<g filter="url(#filter1_d)">
<rect x="20.8279" y="92.6463" width="314.229" height="70" rx="20" fill="white"/>
<rect x="21.3279" y="93.1463" width="313.229" height="69" rx="19.5" stroke="#007AFF"/>
</g>
<path d="M63.2829 123.469L59.5179 134.044H57.6429L55.1979 127.039L52.7229 134.044H50.8479L47.0979 123.469H49.4679L51.8829 130.774L54.4479 123.469H56.0829L58.5579 130.849L61.0629 123.469H63.2829ZM80.0114 123.469L76.2464 134.044H74.3714L71.9264 127.039L69.4514 134.044H67.5764L63.8264 123.469H66.1964L68.6114 130.774L71.1764 123.469H72.8114L75.2864 130.849L77.7914 123.469H80.0114ZM96.7399 123.469L92.9749 134.044H91.0999L88.6549 127.039L86.1799 134.044H84.3049L80.5549 123.469H82.9249L85.3399 130.774L87.9049 123.469H89.5399L92.0149 130.849L94.5199 123.469H96.7399ZM99.4314 131.644V134.044H97.0014V131.644H99.4314ZM101.213 123.469H105.323C106.473 123.469 107.463 123.679 108.293 124.099C109.123 124.519 109.758 125.124 110.198 125.914C110.638 126.704 110.858 127.649 110.858 128.749C110.858 129.849 110.638 130.799 110.198 131.599C109.768 132.389 109.138 132.994 108.308 133.414C107.478 133.834 106.483 134.044 105.323 134.044H101.213V123.469ZM105.158 132.154C107.408 132.154 108.533 131.019 108.533 128.749C108.533 126.489 107.408 125.359 105.158 125.359H103.553V132.154H105.158ZM117.513 134.179C116.463 134.179 115.548 133.959 114.768 133.519C113.998 133.069 113.403 132.439 112.983 131.629C112.563 130.809 112.353 129.849 112.353 128.749C112.353 127.649 112.563 126.694 112.983 125.884C113.403 125.064 113.998 124.434 114.768 123.994C115.548 123.554 116.463 123.334 117.513 123.334C118.563 123.334 119.473 123.554 120.243 123.994C121.023 124.434 121.623 125.064 122.043 125.884C122.463 126.694 122.673 127.649 122.673 128.749C122.673 129.849 122.463 130.809 122.043 131.629C121.623 132.439 121.023 133.069 120.243 133.519C119.473 133.959 118.563 134.179 117.513 134.179ZM117.513 132.364C118.393 132.364 119.083 132.054 119.583 131.434C120.093 130.814 120.348 129.919 120.348 128.749C120.348 127.579 120.098 126.689 119.598 126.079C119.098 125.459 118.403 125.149 117.513 125.149C116.623 125.149 115.928 125.459 115.428 126.079C114.938 126.689 114.693 127.579 114.693 128.749C114.693 129.919 114.943 130.814 115.443 131.434C115.943 132.054 116.633 132.364 117.513 132.364ZM134.96 123.469V134.044H132.905V127.774L130.475 132.304H128.975L126.545 127.834V134.044H124.49V123.469H126.335L129.74 129.934L133.145 123.469H134.96ZM144.152 131.704H139.232L138.227 134.044H135.872L140.732 123.469H142.607L147.467 134.044H145.157L144.152 131.704ZM143.387 129.934L141.692 125.974L139.997 129.934H143.387ZM148.352 123.469H150.692V134.044H148.352V123.469ZM161.97 123.469V134.044H160.23L154.965 127.309V134.044H152.79V123.469H154.515L159.78 130.174V123.469H161.97ZM171.134 131.704H166.214L165.209 134.044H162.854L167.714 123.469H169.589L174.449 134.044H172.139L171.134 131.704ZM170.369 129.934L168.674 125.974L166.979 129.934H170.369ZM184.514 123.469V134.044H182.774L177.509 127.309V134.044H175.334V123.469H177.059L182.324 130.174V123.469H184.514ZM186.613 123.469H190.723C191.873 123.469 192.863 123.679 193.693 124.099C194.523 124.519 195.158 125.124 195.598 125.914C196.038 126.704 196.258 127.649 196.258 128.749C196.258 129.849 196.038 130.799 195.598 131.599C195.168 132.389 194.538 132.994 193.708 133.414C192.878 133.834 191.883 134.044 190.723 134.044H186.613V123.469ZM190.558 132.154C192.808 132.154 193.933 131.019 193.933 128.749C193.933 126.489 192.808 125.359 190.558 125.359H188.953V132.154H190.558ZM204.826 131.704H199.906L198.901 134.044H196.546L201.406 123.469H203.281L208.141 134.044H205.831L204.826 131.704ZM204.061 129.934L202.366 125.974L200.671 129.934H204.061ZM211.433 131.644V134.044H209.003V131.644H211.433ZM217.652 134.179C216.582 134.179 215.647 133.954 214.847 133.504C214.057 133.054 213.447 132.419 213.017 131.599C212.597 130.779 212.387 129.829 212.387 128.749C212.387 127.669 212.597 126.719 213.017 125.899C213.447 125.079 214.057 124.449 214.847 124.009C215.647 123.559 216.582 123.334 217.652 123.334C218.352 123.334 219.022 123.444 219.662 123.664C220.302 123.874 220.827 124.169 221.237 124.549L220.487 126.214C220.027 125.864 219.567 125.609 219.107 125.449C218.657 125.289 218.187 125.209 217.697 125.209C216.757 125.209 216.032 125.509 215.522 126.109C215.022 126.709 214.772 127.589 214.772 128.749C214.772 129.909 215.022 130.794 215.522 131.404C216.032 132.004 216.757 132.304 217.697 132.304C218.187 132.304 218.657 132.224 219.107 132.064C219.567 131.904 220.027 131.649 220.487 131.299L221.237 132.964C220.827 133.344 220.302 133.644 219.662 133.864C219.022 134.074 218.352 134.179 217.652 134.179ZM227.494 134.179C226.444 134.179 225.529 133.959 224.749 133.519C223.979 133.069 223.384 132.439 222.964 131.629C222.544 130.809 222.334 129.849 222.334 128.749C222.334 127.649 222.544 126.694 222.964 125.884C223.384 125.064 223.979 124.434 224.749 123.994C225.529 123.554 226.444 123.334 227.494 123.334C228.544 123.334 229.454 123.554 230.224 123.994C231.004 124.434 231.604 125.064 232.024 125.884C232.444 126.694 232.654 127.649 232.654 128.749C232.654 129.849 232.444 130.809 232.024 131.629C231.604 132.439 231.004 133.069 230.224 133.519C229.454 133.959 228.544 134.179 227.494 134.179ZM227.494 132.364C228.374 132.364 229.064 132.054 229.564 131.434C230.074 130.814 230.329 129.919 230.329 128.749C230.329 127.579 230.079 126.689 229.579 126.079C229.079 125.459 228.384 125.149 227.494 125.149C226.604 125.149 225.909 125.459 225.409 126.079C224.919 126.689 224.674 127.579 224.674 128.749C224.674 129.919 224.924 130.814 225.424 131.434C225.924 132.054 226.614 132.364 227.494 132.364ZM244.94 123.469V134.044H242.885V127.774L240.455 132.304H238.955L236.525 127.834V134.044H234.47V123.469H236.315L239.72 129.934L243.125 123.469H244.94Z" fill="#3A4166"/>
<g filter="url(#filter2_d)">
<rect x="252.931" y="209.969" width="231" height="60" rx="20" fill="#007AFF"/>
</g>
<path d="M337.837 236.299H334.522V234.394H343.492V236.299H340.177V244.969H337.837V236.299ZM348.607 239.284L347.332 239.419C346.702 239.479 346.257 239.659 345.997 239.959C345.737 240.249 345.607 240.639 345.607 241.129V244.969H343.342V237.604H345.517V238.849C345.887 237.999 346.652 237.534 347.812 237.454L348.472 237.409L348.607 239.284ZM352.632 237.424C353.732 237.424 354.542 237.684 355.062 238.204C355.592 238.724 355.857 239.529 355.857 240.619V244.969H353.712V243.874C353.562 244.254 353.312 244.554 352.962 244.774C352.612 244.984 352.202 245.089 351.732 245.089C351.232 245.089 350.777 244.989 350.367 244.789C349.967 244.589 349.647 244.309 349.407 243.949C349.177 243.589 349.062 243.189 349.062 242.749C349.062 242.209 349.197 241.784 349.467 241.474C349.747 241.164 350.192 240.939 350.802 240.799C351.412 240.659 352.247 240.589 353.307 240.589H353.697V240.319C353.697 239.879 353.602 239.569 353.412 239.389C353.222 239.209 352.892 239.119 352.422 239.119C352.062 239.119 351.662 239.184 351.222 239.314C350.782 239.444 350.362 239.624 349.962 239.854L349.362 238.339C349.782 238.079 350.297 237.864 350.907 237.694C351.527 237.514 352.102 237.424 352.632 237.424ZM352.227 243.529C352.667 243.529 353.022 243.384 353.292 243.094C353.562 242.794 353.697 242.409 353.697 241.939V241.684H353.442C352.632 241.684 352.062 241.749 351.732 241.879C351.412 242.009 351.252 242.244 351.252 242.584C351.252 242.854 351.342 243.079 351.522 243.259C351.712 243.439 351.947 243.529 352.227 243.529ZM362.171 237.424C363.051 237.424 363.706 237.684 364.136 238.204C364.566 238.714 364.781 239.489 364.781 240.529V244.969H362.516V240.634C362.516 240.134 362.421 239.769 362.231 239.539C362.051 239.309 361.766 239.194 361.376 239.194C360.906 239.194 360.526 239.344 360.236 239.644C359.956 239.944 359.816 240.344 359.816 240.844V244.969H357.551V237.604H359.756V238.654C360.016 238.254 360.351 237.949 360.761 237.739C361.181 237.529 361.651 237.424 362.171 237.424ZM369.306 245.089C368.626 245.089 368.001 245.014 367.431 244.864C366.871 244.704 366.386 244.479 365.976 244.189L366.576 242.629C366.976 242.899 367.416 243.109 367.896 243.259C368.376 243.409 368.861 243.484 369.351 243.484C369.701 243.484 369.971 243.429 370.161 243.319C370.361 243.199 370.461 243.039 370.461 242.839C370.461 242.659 370.391 242.519 370.251 242.419C370.121 242.319 369.871 242.229 369.501 242.149L368.301 241.879C367.591 241.719 367.066 241.474 366.726 241.144C366.396 240.804 366.231 240.344 366.231 239.764C366.231 239.304 366.361 238.899 366.621 238.549C366.891 238.199 367.266 237.924 367.746 237.724C368.236 237.524 368.791 237.424 369.411 237.424C369.941 237.424 370.456 237.504 370.956 237.664C371.456 237.824 371.906 238.049 372.306 238.339L371.706 239.839C370.926 239.299 370.156 239.029 369.396 239.029C369.046 239.029 368.771 239.089 368.571 239.209C368.371 239.329 368.271 239.499 368.271 239.719C368.271 239.879 368.331 240.004 368.451 240.094C368.571 240.184 368.781 240.269 369.081 240.349L370.326 240.634C371.076 240.804 371.621 241.064 371.961 241.414C372.311 241.754 372.486 242.219 372.486 242.809C372.486 243.519 372.201 244.079 371.631 244.489C371.071 244.889 370.296 245.089 369.306 245.089ZM376.631 237.604H378.476V239.299H376.631V244.969H374.366V239.299H372.971V237.604H374.366C374.386 236.564 374.686 235.784 375.266 235.264C375.856 234.734 376.751 234.434 377.951 234.364L378.776 234.319L378.911 235.984L378.206 236.014C377.626 236.034 377.216 236.144 376.976 236.344C376.746 236.534 376.631 236.854 376.631 237.304V237.604ZM385.977 241.714H381.177C381.247 242.304 381.437 242.734 381.747 243.004C382.067 243.264 382.517 243.394 383.097 243.394C383.477 243.394 383.852 243.334 384.222 243.214C384.602 243.084 384.947 242.904 385.257 242.674L385.857 244.189C385.497 244.469 385.057 244.689 384.537 244.849C384.027 245.009 383.512 245.089 382.992 245.089C381.752 245.089 380.772 244.749 380.052 244.069C379.342 243.379 378.987 242.444 378.987 241.264C378.987 240.514 379.142 239.849 379.452 239.269C379.762 238.689 380.192 238.239 380.742 237.919C381.292 237.589 381.917 237.424 382.617 237.424C383.647 237.424 384.462 237.759 385.062 238.429C385.672 239.099 385.977 240.009 385.977 241.159V241.714ZM382.677 238.984C382.247 238.984 381.902 239.124 381.642 239.404C381.392 239.674 381.237 240.069 381.177 240.589H384.072C384.042 240.059 383.907 239.659 383.667 239.389C383.437 239.119 383.107 238.984 382.677 238.984ZM392.61 239.284L391.335 239.419C390.705 239.479 390.26 239.659 390 239.959C389.74 240.249 389.61 240.639 389.61 241.129V244.969H387.345V237.604H389.52V238.849C389.89 237.999 390.655 237.534 391.815 237.454L392.475 237.409L392.61 239.284ZM401.44 245.104C400.64 245.104 399.87 244.999 399.13 244.789C398.39 244.569 397.775 244.269 397.285 243.889L398.035 242.224C399.055 242.934 400.2 243.289 401.47 243.289C402.13 243.289 402.635 243.184 402.985 242.974C403.345 242.754 403.525 242.454 403.525 242.074C403.525 241.734 403.36 241.469 403.03 241.279C402.71 241.089 402.135 240.904 401.305 240.724C400.375 240.534 399.63 240.304 399.07 240.034C398.52 239.764 398.115 239.434 397.855 239.044C397.605 238.644 397.48 238.154 397.48 237.574C397.48 236.934 397.655 236.364 398.005 235.864C398.365 235.364 398.865 234.974 399.505 234.694C400.145 234.404 400.885 234.259 401.725 234.259C402.475 234.259 403.195 234.369 403.885 234.589C404.585 234.809 405.14 235.104 405.55 235.474L404.8 237.139C403.83 236.429 402.81 236.074 401.74 236.074C401.13 236.074 400.65 236.194 400.3 236.434C399.95 236.664 399.775 236.984 399.775 237.394C399.775 237.634 399.84 237.834 399.97 237.994C400.11 238.144 400.335 238.279 400.645 238.399C400.965 238.519 401.415 238.644 401.995 238.774C403.355 239.074 404.33 239.459 404.92 239.929C405.52 240.399 405.82 241.049 405.82 241.879C405.82 242.879 405.435 243.669 404.665 244.249C403.895 244.819 402.82 245.104 401.44 245.104ZM414.421 237.604V244.969H412.216V243.919C411.986 244.299 411.681 244.589 411.301 244.789C410.931 244.989 410.511 245.089 410.041 245.089C409.111 245.089 408.416 244.834 407.956 244.324C407.506 243.804 407.281 243.024 407.281 241.984V237.604H409.546V242.029C409.546 242.469 409.636 242.794 409.816 243.004C410.006 243.214 410.291 243.319 410.671 243.319C411.111 243.319 411.466 243.169 411.736 242.869C412.016 242.569 412.156 242.174 412.156 241.684V237.604H414.421ZM419.669 245.089C418.469 245.089 417.524 244.749 416.834 244.069C416.144 243.389 415.799 242.464 415.799 241.294C415.799 240.524 415.964 239.849 416.294 239.269C416.624 238.679 417.089 238.224 417.689 237.904C418.289 237.584 418.984 237.424 419.774 237.424C420.314 237.424 420.834 237.509 421.334 237.679C421.834 237.839 422.239 238.059 422.549 238.339L421.949 239.884C421.659 239.654 421.339 239.479 420.989 239.359C420.649 239.229 420.314 239.164 419.984 239.164C419.394 239.164 418.934 239.339 418.604 239.689C418.284 240.039 418.124 240.559 418.124 241.249C418.124 241.939 418.284 242.464 418.604 242.824C418.934 243.174 419.394 243.349 419.984 243.349C420.314 243.349 420.649 243.289 420.989 243.169C421.339 243.039 421.659 242.859 421.949 242.629L422.549 244.189C422.219 244.469 421.799 244.689 421.289 244.849C420.779 245.009 420.239 245.089 419.669 245.089ZM427.081 245.089C425.881 245.089 424.936 244.749 424.246 244.069C423.556 243.389 423.211 242.464 423.211 241.294C423.211 240.524 423.376 239.849 423.706 239.269C424.036 238.679 424.501 238.224 425.101 237.904C425.701 237.584 426.396 237.424 427.186 237.424C427.726 237.424 428.246 237.509 428.746 237.679C429.246 237.839 429.651 238.059 429.961 238.339L429.361 239.884C429.071 239.654 428.751 239.479 428.401 239.359C428.061 239.229 427.726 239.164 427.396 239.164C426.806 239.164 426.346 239.339 426.016 239.689C425.696 240.039 425.536 240.559 425.536 241.249C425.536 241.939 425.696 242.464 426.016 242.824C426.346 243.174 426.806 243.349 427.396 243.349C427.726 243.349 428.061 243.289 428.401 243.169C428.751 243.039 429.071 242.859 429.361 242.629L429.961 244.189C429.631 244.469 429.211 244.689 428.701 244.849C428.191 245.009 427.651 245.089 427.081 245.089ZM437.613 241.714H432.813C432.883 242.304 433.073 242.734 433.383 243.004C433.703 243.264 434.153 243.394 434.733 243.394C435.113 243.394 435.488 243.334 435.858 243.214C436.238 243.084 436.583 242.904 436.893 242.674L437.493 244.189C437.133 244.469 436.693 244.689 436.173 244.849C435.663 245.009 435.148 245.089 434.628 245.089C433.388 245.089 432.408 244.749 431.688 244.069C430.978 243.379 430.623 242.444 430.623 241.264C430.623 240.514 430.778 239.849 431.088 239.269C431.398 238.689 431.828 238.239 432.378 237.919C432.928 237.589 433.553 237.424 434.253 237.424C435.283 237.424 436.098 237.759 436.698 238.429C437.308 239.099 437.613 240.009 437.613 241.159V241.714ZM434.313 238.984C433.883 238.984 433.538 239.124 433.278 239.404C433.028 239.674 432.873 240.069 432.813 240.589H435.708C435.678 240.059 435.543 239.659 435.303 239.389C435.073 239.119 434.743 238.984 434.313 238.984ZM441.816 245.089C441.136 245.089 440.511 245.014 439.941 244.864C439.381 244.704 438.896 244.479 438.486 244.189L439.086 242.629C439.486 242.899 439.926 243.109 440.406 243.259C440.886 243.409 441.371 243.484 441.861 243.484C442.211 243.484 442.481 243.429 442.671 243.319C442.871 243.199 442.971 243.039 442.971 242.839C442.971 242.659 442.901 242.519 442.761 242.419C442.631 242.319 442.381 242.229 442.011 242.149L440.811 241.879C440.101 241.719 439.576 241.474 439.236 241.144C438.906 240.804 438.741 240.344 438.741 239.764C438.741 239.304 438.871 238.899 439.131 238.549C439.401 238.199 439.776 237.924 440.256 237.724C440.746 237.524 441.301 237.424 441.921 237.424C442.451 237.424 442.966 237.504 443.466 237.664C443.966 237.824 444.416 238.049 444.816 238.339L444.216 239.839C443.436 239.299 442.666 239.029 441.906 239.029C441.556 239.029 441.281 239.089 441.081 239.209C440.881 239.329 440.781 239.499 440.781 239.719C440.781 239.879 440.841 240.004 440.961 240.094C441.081 240.184 441.291 240.269 441.591 240.349L442.836 240.634C443.586 240.804 444.131 241.064 444.471 241.414C444.821 241.754 444.996 242.219 444.996 242.809C444.996 243.519 444.711 244.079 444.141 244.489C443.581 244.889 442.806 245.089 441.816 245.089ZM449.126 245.089C448.446 245.089 447.821 245.014 447.251 244.864C446.691 244.704 446.206 244.479 445.796 244.189L446.396 242.629C446.796 242.899 447.236 243.109 447.716 243.259C448.196 243.409 448.681 243.484 449.171 243.484C449.521 243.484 449.791 243.429 449.981 243.319C450.181 243.199 450.281 243.039 450.281 242.839C450.281 242.659 450.211 242.519 450.071 242.419C449.941 242.319 449.691 242.229 449.321 242.149L448.121 241.879C447.411 241.719 446.886 241.474 446.546 241.144C446.216 240.804 446.051 240.344 446.051 239.764C446.051 239.304 446.181 238.899 446.441 238.549C446.711 238.199 447.086 237.924 447.566 237.724C448.056 237.524 448.611 237.424 449.231 237.424C449.761 237.424 450.276 237.504 450.776 237.664C451.276 237.824 451.726 238.049 452.126 238.339L451.526 239.839C450.746 239.299 449.976 239.029 449.216 239.029C448.866 239.029 448.591 239.089 448.391 239.209C448.191 239.329 448.091 239.499 448.091 239.719C448.091 239.879 448.151 240.004 448.271 240.094C448.391 240.184 448.601 240.269 448.901 240.349L450.146 240.634C450.896 240.804 451.441 241.064 451.781 241.414C452.131 241.754 452.306 242.219 452.306 242.809C452.306 243.519 452.021 244.079 451.451 244.489C450.891 244.889 450.116 245.089 449.126 245.089Z" fill="#FBFBFF"/>
<path d="M284.453 239.949L290.978 246.474L305.116 232.336" stroke="white" stroke-width="3" stroke-linecap="round" stroke-linejoin="round"/>
<g filter="url(#filter3_d)">
<path d="M473.59 88.1026H413.091C407.522 88.1026 403.008 92.617 403.008 98.1857V158.684C403.008 164.253 407.522 168.767 413.091 168.767H473.59C479.158 168.767 483.673 164.253 483.673 158.684V98.1857C483.673 92.617 479.158 88.1026 473.59 88.1026Z" fill="#007AFF"/>
<path d="M458.466 119.658H428.217C426.129 119.658 424.436 121.351 424.436 123.44V128.686C424.436 130.774 426.129 132.467 428.217 132.467H458.466C460.555 132.467 462.247 130.774 462.247 128.686V123.44C462.247 121.351 460.555 119.658 458.466 119.658Z" stroke="white" stroke-width="1.26039" stroke-linejoin="round"/>
<path d="M430.533 126.058H448.22" stroke="white" stroke-width="1.26039" stroke-linecap="round" stroke-linejoin="round"/>
<path d="M455.235 127.646C456.112 127.646 456.823 126.935 456.823 126.058C456.823 125.181 456.112 124.47 455.235 124.47C454.358 124.47 453.647 125.181 453.647 126.058C453.647 126.935 454.358 127.646 455.235 127.646Z" stroke="white" stroke-width="1.26039" stroke-linecap="round" stroke-linejoin="round"/>
<path d="M447.323 113.174H451.501C452.749 113.197 453.948 113.671 454.875 114.506L461.124 120.755" stroke="white" stroke-width="1.26039" stroke-linecap="round" stroke-linejoin="round"/>
<path d="M425.533 120.783L431.744 114.507C432.188 114.068 432.715 113.724 433.295 113.495C433.875 113.266 434.495 113.157 435.119 113.174H447.483" stroke="white" stroke-width="1.26039" stroke-linecap="round" stroke-linejoin="round"/>
<path d="M443.342 132.467V136.428" stroke="white" stroke-width="1.26039" stroke-linejoin="round"/>
<path d="M453.315 140.388H447.19" stroke="white" stroke-width="1.26039" stroke-linecap="round" stroke-linejoin="round"/>
<path d="M439.343 140.388H433.227" stroke="white" stroke-width="1.26039" stroke-linecap="round" stroke-linejoin="round"/>
<path d="M445.506 138.564H445.355V137.94C445.355 137.539 445.196 137.154 444.912 136.871C444.629 136.587 444.244 136.428 443.843 136.428H442.841C442.44 136.428 442.055 136.587 441.771 136.871C441.488 137.154 441.328 137.539 441.328 137.94V138.564H441.177C440.73 138.566 440.302 138.746 439.987 139.063C439.671 139.38 439.494 139.809 439.494 140.256V140.908C439.494 141.355 439.672 141.783 439.987 142.098C440.303 142.414 440.731 142.591 441.177 142.591H445.506C445.953 142.591 446.381 142.414 446.696 142.098C447.012 141.783 447.189 141.355 447.189 140.908V140.256C447.189 139.809 447.012 139.38 446.697 139.063C446.382 138.746 445.954 138.566 445.506 138.564Z" stroke="white" stroke-width="1.26039" stroke-linecap="round" stroke-linejoin="round"/>
</g>
<path fill-rule="evenodd" clip-rule="evenodd" d="M267.752 162.646V92.6463H315.057C326.103 92.6463 335.057 101.601 335.057 112.646V142.646C335.057 153.692 326.103 162.646 315.057 162.646H267.752Z" fill="#FB8C00"/>
<path d="M285.878 124.044H316.931L309.134 116.248" stroke="white" stroke-width="3" stroke-linecap="round" stroke-linejoin="round"/>
<path d="M316.931 131.248L285.878 131.248L293.674 139.044" stroke="white" stroke-width="3" stroke-linecap="round" stroke-linejoin="round"/>
<defs>
<filter id="filter0_d" x="67.9308" y="0.839233" width="404" height="276" filterUnits="userSpaceOnUse" color-interpolation-filters="sRGB">
<feFlood flood-opacity="0" result="BackgroundImageFix"/>
<feColorMatrix in="SourceAlpha" type="matrix" values="0 0 0 0 0 0 0 0 0 0 0 0 0 0 0 0 0 0 127 0"/>
<feOffset dy="10"/>
<feGaussianBlur stdDeviation="10"/>
<feColorMatrix type="matrix" values="0 0 0 0 0.226667 0 0 0 0 0.2544 0 0 0 0 0.4 0 0 0 0.15 0"/>
<feBlend mode="normal" in2="BackgroundImageFix" result="effect1_dropShadow"/>
<feBlend mode="normal" in="SourceGraphic" in2="effect1_dropShadow" result="shape"/>
</filter>
<filter id="filter1_d" x="0.827881" y="82.6463" width="354.229" height="110" filterUnits="userSpaceOnUse" color-interpolation-filters="sRGB">
<feFlood flood-opacity="0" result="BackgroundImageFix"/>
<feColorMatrix in="SourceAlpha" type="matrix" values="0 0 0 0 0 0 0 0 0 0 0 0 0 0 0 0 0 0 127 0"/>
<feOffset dy="10"/>
<feGaussianBlur stdDeviation="10"/>
<feColorMatrix type="matrix" values="0 0 0 0 0.226667 0 0 0 0 0.2544 0 0 0 0 0.4 0 0 0 0.15 0"/>
<feBlend mode="normal" in2="BackgroundImageFix" result="effect1_dropShadow"/>
<feBlend mode="normal" in="SourceGraphic" in2="effect1_dropShadow" result="shape"/>
</filter>
<filter id="filter2_d" x="232.931" y="199.969" width="271" height="100" filterUnits="userSpaceOnUse" color-interpolation-filters="sRGB">
<feFlood flood-opacity="0" result="BackgroundImageFix"/>
<feColorMatrix in="SourceAlpha" type="matrix" values="0 0 0 0 0 0 0 0 0 0 0 0 0 0 0 0 0 0 127 0"/>
<feOffset dy="10"/>
<feGaussianBlur stdDeviation="10"/>
<feColorMatrix type="matrix" values="0 0 0 0 0.226667 0 0 0 0 0.2544 0 0 0 0 0.4 0 0 0 0.15 0"/>
<feBlend mode="normal" in2="BackgroundImageFix" result="effect1_dropShadow"/>
<feBlend mode="normal" in="SourceGraphic" in2="effect1_dropShadow" result="shape"/>
</filter>
<filter id="filter3_d" x="392.925" y="83.061" width="100.831" height="100.831" filterUnits="userSpaceOnUse" color-interpolation-filters="sRGB">
<feFlood flood-opacity="0" result="BackgroundImageFix"/>
<feColorMatrix in="SourceAlpha" type="matrix" values="0 0 0 0 0 0 0 0 0 0 0 0 0 0 0 0 0 0 127 0"/>
<feOffset dy="5.04155"/>
<feGaussianBlur stdDeviation="5.04155"/>
<feColorMatrix type="matrix" values="0 0 0 0 0.0666667 0 0 0 0 0.101961 0 0 0 0 0.407843 0 0 0 0.1 0"/>
<feBlend mode="normal" in2="BackgroundImageFix" result="effect1_dropShadow"/>
<feBlend mode="normal" in="SourceGraphic" in2="effect1_dropShadow" result="shape"/>
</filter>
</defs>
</svg>
