<svg xmlns="http://www.w3.org/2000/svg" width="132" height="34" viewBox="0 0 132 34">
    <g fill="none" fill-rule="evenodd">
        <path fill="#002D73" fill-rule="nonzero" d="M34.64 8.12v15.045c0 .14.107.26.245.273.78.066 1.646.066 2.556 0a42.204 42.204 0 0 0 2.767-.331c-.04.23-.06.478-.06.746 0 .228.022.506.066.806h-8.806V8.124c.168.015.384.042.652.079.39.068.792.07 1.03.005l.793-.004c.301-.042.55-.07.757-.083zm10.555.824c-.47.066-.783.068-1.008.003h-.792c-.28-.039-.494-.064-.655-.08V24.66h3.066V8.864c-.177.014-.378.04-.611.08zm3.036-.092c.03.225.045.449.045.668 0 .288-.014.542-.04.76h.512c1.45-.187 2.668-.282 3.602-.282.15 0 .27.122.27.273v14.388h2.974V10.271c0-.15.12-.273.27-.273.679 0 1.651.064 2.892.188.313.046.646.075.993.089a2.61 2.61 0 0 1 .002-.749 1.868 1.868 0 0 1 .007-.674H48.23zm13.966 0V24.66h8.399a5.508 5.508 0 0 1-.063-.76c0-.246.019-.476.052-.687-.571.088-1.208.159-1.891.206-.795.065-1.889.097-3.254.097a.272.272 0 0 1-.269-.275v-6.109c0-.15.12-.273.269-.273h2.247c.749.045 1.35.09 1.953.134l.445.03c-.013-.06-.027-.128-.044-.2l-.008-1.1c0-.03.005-.06.015-.087l.019-.063c-.792.1-1.515.141-2.38.141H65.44a.271.271 0 0 1-.269-.273v-5.17c0-.15.12-.272.269-.272 1.657 0 3.398.11 5.177.327a3.264 3.264 0 0 1 0-1.473h-8.42zm21.042 10.95c-.064-1.953-1.54-3.686-4.396-5.138-2.116-1.11-3.143-2.186-3.143-3.29 0-1.78 1.025-2.758 2.966-2.829 1.32 0 2.336.72 3.024 2.141.072-.25.173-.57.303-.972.16-.426.294-.783.407-1.078-1.015-.615-2.239-.958-3.639-1.018-3.523.19-5.3 1.84-5.422 5.044 0 2.158 1.345 3.892 4 5.146 2.219 1.025 3.342 2.2 3.342 3.488-.14 1.81-1.202 2.76-3.156 2.83-1.934-.068-3.144-.994-3.603-2.751h-.035c-.123.955-.32 1.898-.585 2.805 1.176.453 2.398.714 3.633.775 3.901 0 6.055-1.88 6.304-5.152zm5.136-2.274a.258.258 0 0 0-.17.072.27.27 0 0 0-.078.187v6.872H85.04V8.85h5.56c3.183 0 4.76 1.238 4.819 3.78.023 1.384-.351 2.485-1.111 3.271-1.046 1.084-2.876 1.633-5.44 1.633-.159 0-.316-.002-.494-.005zm-.027-.797c.118.017.246.027.376.027.38 0 .817-.075 1.299-.22 1.4-.408 2.178-1.566 2.31-3.46-.132-2.135-.958-3.323-2.473-3.53h-1.475a.26.26 0 0 0-.258.262v6.663c0 .13.094.24.22.258zm19.417-7.881v15.81h8.412a5.773 5.773 0 0 1-.061-.773c0-.25.017-.486.054-.7-.578.09-1.22.163-1.904.21-.801.064-1.863.095-3.248.095a.26.26 0 0 1-.258-.26V17.13a.26.26 0 0 1 .258-.262h2.492c.936.058 1.788.112 2.568.166-.014-.064-.028-.137-.048-.217l-.008-1.094a.22.22 0 0 1 .014-.084c.008-.028.017-.055.026-.08-.779.094-1.636.142-2.552.142h-2.492a.26.26 0 0 1-.258-.26v-5.163a.26.26 0 0 1 .258-.26c1.661 0 3.405.11 5.185.329a3.225 3.225 0 0 1 .002-1.497h-8.44zm15.696 15.81h-5.122V8.85l6.588-.001c4.442.307 6.72 2.74 6.961 7.422-.299 5.261-3.135 8.084-8.427 8.388zm4.972-8.375c0-4.345-1.92-6.55-5.703-6.55h-1.142a.261.261 0 0 0-.257.262v13.516a.26.26 0 0 0 .257.261h1.01c1.933 0 3.408-.642 4.385-1.905.96-1.247 1.45-3.125 1.45-5.584zM97.143 8.85v15.81h8.41a5.792 5.792 0 0 1-.063-.773c0-.25.019-.486.055-.7-.58.09-1.22.163-1.903.21-.8.064-1.864.095-3.25.095a.26.26 0 0 1-.257-.26V17.13a.26.26 0 0 1 .257-.262h2.493c.938.058 1.788.112 2.569.166a9.583 9.583 0 0 0-.048-.217l-.009-1.094c0-.03.005-.059.015-.084l.023-.08c-.776.094-1.632.142-2.55.142h-2.493a.26.26 0 0 1-.257-.26v-5.163a.26.26 0 0 1 .257-.26c1.661 0 3.405.11 5.185.329a3.322 3.322 0 0 1-.086-.725c0-.271.03-.529.087-.772h-8.436z"/>
        <path fill="#3E8EDE" d="M25.554 16.51l-7.666-7.794-3.265 4.215 3.52 3.58c.325.33.325.87 0 1.2l-1.018 1.035s.686 1.045.718 1.108c.158.323.197 1.082-.253 1.428l-8.007 6.25c-.002 2.098-.005 6.411-.002 6.413.002 0 15.974-16.234 15.974-16.234a.862.862 0 0 0 0-1.2z"/>
        <path fill="#002D73" d="M7.748 17.491a.862.862 0 0 1 0-1.199l1.02-1.037-.698-1.018a1.129 1.129 0 0 1 .23-1.516l8.01-6.25.005-6.41-.004-.002-.004-.006-15.97 16.24a.86.86 0 0 0 .001 1.2l7.665 7.794 3.266-4.215-3.521-3.58z"/>
        <path fill="#3E8EDE" fill-rule="nonzero" d="M20.346 3.85c.15 0 .298.093.365.232.122.256-.054.484-.15.609l-7.018 9.057c-.071.091-.077.288-.012.382.038.056 3.789 5.588 3.918 5.776.184.27.167.965-.2 1.249L5.964 29.962c-.158.124-.276.19-.44.192a.433.433 0 0 1-.345-.23c-.124-.255.062-.498.15-.614l7.016-9.053a.387.387 0 0 0 .014-.384l-3.916-5.727a.968.968 0 0 1 .197-1.298L19.926 4.04c.17-.135.291-.19.42-.19zm0-.03c-.135 0-.263.057-.438.196L8.623 12.825a.997.997 0 0 0-.203 1.338l3.916 5.726c.058.09.05.263-.013.35l-7.016 9.052c-.092.122-.285.375-.153.646a.462.462 0 0 0 .37.247c.175-.002.3-.075.459-.198l11.283-8.808c.39-.3.392-1.018.207-1.289l-3.918-5.776c-.058-.084-.052-.266.011-.347l7.017-9.057c.092-.119.286-.365.155-.64a.445.445 0 0 0-.392-.249z"/>
        <path fill="#FFCE00" d="M17.068 19.995c.09.14.173.67-.056.845L5.727 29.65c-.095.074-.155.11-.183.107-.038.003-.01-.068.093-.203l7.015-9.05a.78.78 0 0 0 .026-.855l-3.915-5.73s8.214 5.936 8.305 6.077z"/>
        <path fill="#FFDE6E" d="M17.068 19.995l-3.856-5.64a.775.775 0 0 1 .024-.85l7.016-9.056c.105-.135.132-.203.094-.203-.028 0-.09.033-.183.109L8.878 13.162a.566.566 0 0 0-.115.756l8.305 6.077z"/>
    </g>
</svg>
