<?xml version="1.0" encoding="UTF-8"?>
<svg width="304px" height="64px" viewBox="0 0 304 64" version="1.1" xmlns="http://www.w3.org/2000/svg" xmlns:xlink="http://www.w3.org/1999/xlink">
    <!-- Generator: Sketch 52.4 (67378) - http://www.bohemiancoding.com/sketch -->
    <title>badge</title>
    <desc>Created with Sketch.</desc>
    <g id="Page-1" stroke="none" stroke-width="1" fill="none" fill-rule="evenodd">
        <g id="01---iterasi-fitur-kecepatan" transform="translate(-784.000000, -2205.000000)">
            <g id="Section-5---Server-Section" transform="translate(343.000000, 2156.000000)">
                <g id="Group-9" transform="translate(441.000000, 49.000000)">
                    <g id="badge">
                        <rect id="Rectangle-Copy-9" stroke="#2760FF" fill-rule="nonzero" x="0.5" y="0.5" width="303" height="63" rx="4"></rect>
                        <path d="M167.552,21.56 L171.872,21.56 L170.528,38.48 L166.208,38.48 L166.76,31.64 L159.872,31.64 L159.32,38.48 L155,38.48 L156.344,21.56 L160.664,21.56 L160.136,28.136 L167.024,28.136 L167.552,21.56 Z M177.44,38.48 L178.496,25.136 L173.408,25.136 L173.696,21.56 L188.288,21.56 L188,25.136 L182.936,25.136 L181.904,38.48 L177.44,38.48 Z M192.608,38.48 L193.664,25.136 L188.576,25.136 L188.864,21.56 L203.456,21.56 L203.168,25.136 L198.104,25.136 L197.072,38.48 L192.608,38.48 Z M213.2,21.56 C215.008009,21.56 216.419995,22.0119955 217.436,22.916 C218.452005,23.8200045 218.96,25.0559922 218.96,26.624 C218.96,28.4640092 218.424005,29.879995 217.352,30.872 C216.279995,31.864005 214.73601,32.36 212.72,32.36 L208.856,32.36 L208.376,38.48 L203.96,38.48 L205.304,21.56 L213.2,21.56 Z M212.288,29.048 C214.000009,29.048 214.856,28.3200073 214.856,26.864 C214.856,26.1919966 214.668002,25.6960016 214.292,25.376 C213.915998,25.0559984 213.344004,24.896 212.576,24.896 L209.456,24.896 L209.12,29.048 L212.288,29.048 Z M219.848,40.448 L216.824,39.368 L224.552,20 L227.576,21.08 L219.848,40.448 Z M232.976,34.976 L239.36,34.976 L239.096,38.48 L227.168,38.48 L227.408,35.216 L233.408,29.504 C234.640006,28.303994 235.256,27.2400046 235.256,26.312 C235.256,25.2719948 234.584007,24.752 233.24,24.752 C231.927993,24.752 230.488008,25.255995 228.92,26.264 L227.792,23.144 C229.344008,21.943994 231.359988,21.344 233.84,21.344 C235.632009,21.344 237.039995,21.7799956 238.064,22.652 C239.088005,23.5240044 239.6,24.7359922 239.6,26.288 C239.6,27.1680044 239.376002,27.9999961 238.928,28.784 C238.479998,29.5680039 237.688006,30.5039946 236.552,31.592 L232.976,34.976 Z" id="HTTP/2" fill="#00AB72"></path>
                        <g id="xeon-intel" transform="translate(257.000000, 5.000000)">
                            <path d="M16.4695455,4.47230769 L37.7754545,4.47230769 L37.7754545,1.74358974 C37.7750577,1.55069668 37.7429551,1.359207 37.6804545,1.17692308 C37.4429809,0.47923505 36.79623,0.00791856207 36.0654545,-1.63450254e-16 L1.72727273,-1.63450254e-16 C1.02630381,-0.00250623986 0.393345168,0.422878366 0.125227273,1.07666667 C0.0392654576,1.28814731 -0.00333482522,1.5150237 1.12662158e-15,1.74358974 L-0.00018170105,9.27589744 L8.23045455,9.27589744 L9.09409091,8.76589744 L10.7393182,7.80692308 L12.8120455,6.59948718 L13.0365909,6.46871795 L13.2179545,6.36410256 L13.3086364,6.31179487 L13.5936364,6.14179487 L13.8743182,5.98051282 L14.4615909,5.64051282 L14.9884091,5.33102564 L15.4720455,5.05205128 L15.9945455,4.7425641 L16.4695455,4.47230769 Z" id="Path" fill="#F6EC31"></path>
                            <rect id="Rectangle" fill="#80CCEB" x="32.1834091" y="2.10102564" width="2.23681818" height="2.12717949"></rect>
                            <polygon id="Path" fill="#F3B526" points="35.7243182 4.47230769 35.7243182 4.22820513 33.345 4.22820513 33.345 2.10102564 33.1377273 2.10102564 33.1377273 4.22820513 32.1834091 4.22820513 32.1834091 4.47230769"></polygon>
                            <rect id="Rectangle" fill="#F5D42B" x="13.8872727" y="0" width="2.93636364" height="3.4"></rect>
                            <polygon id="Path" fill="#F5D42B" points="5.40204545 8.4825641 5.40204545 9.27589744 8.23045455 9.27589744 9.10272727 8.76589744 9.10272727 8.4825641"></polygon>
                            <polygon id="Path" fill="#F5D42B" points="6.74068182 5.10435897 6.74068182 6.39025641 5.33727273 6.39025641 5.33727273 6.94820513 9.10272727 6.94820513 9.10272727 5.10435897"></polygon>
                            <polygon id="Path" fill="#F5D42B" points="13.3172727 6.31179487 13.6022727 6.14179487 13.6022727 2.21435897 13.3172727 2.21435897"></polygon>
                            <rect id="Rectangle" fill="#F5D42B" x="0" y="7.41897436" width="4.14545455" height="1.85692308"></rect>
                            <polygon id="Path" fill="#F3B526" points="10.7479545 7.80692308 12.8206818 6.59948718 10.7479545 6.59948718"></polygon>
                            <path d="M5.13,4.35897436 L0,4.35897436 L0,6.39897436 L5.13,6.39897436 L5.13,4.35897436 Z M4.51681818,7.10948718 L0,7.10948718 L0,7.41025641 L4.51681818,7.41025641 L4.51681818,7.10948718 Z M1.72727273,0.893589744 L4.75,0.893589744 L4.75,-1.63443478e-16 L3.34659091,-1.63443478e-16 L3.34659091,0.701794872 L2.83704545,0.701794872 L2.83704545,-1.63443478e-16 L1.72727273,-1.63443478e-16 C1.02630381,-0.00250623986 0.393345168,0.422878366 0.125227273,1.07666667 L1.72727273,1.07666667 L1.72727273,0.893589744 Z" id="Shape" fill="#F3B526" fill-rule="nonzero"></path>
                            <rect id="Rectangle" fill="#F3B526" x="10.5406818" y="1.70871795" width="3.06590909" height="1"></rect>
                            <rect id="Rectangle" fill="#F3B526" x="0.626136364" y="7.76769231" width="1.64954545" height="1.50820513"></rect>
                            <path d="M23.1540909,2.96410256 L23.1540909,4.47230769 L18.6675,4.47230769 L18.6675,2.53692308 L22.3077273,2.53692308 L22.3077273,2.97282051 L23.1540909,2.96410256 Z M21.3231818,1.82205128 L22.3077273,1.82205128 L22.3077273,2.08794872 L23.0590909,2.08794872 L23.0590909,0 L18.6675,0 L18.6675,2.08794872 L21.3231818,2.08794872 L21.3231818,1.82205128 Z" id="Shape" fill="#F5D42B" fill-rule="nonzero"></path>
                            <rect id="Rectangle" fill="#A2C641" x="2.83704545" y="0" width="1" height="1"></rect>
                            <rect id="Rectangle" fill="#A2C641" x="0" y="6.39025641" width="5.13" height="1"></rect>
                            <rect id="Rectangle" fill="#A2C641" x="0" y="4.04948718" width="7.75113636" height="1"></rect>
                            <polygon id="Path" fill="#A2C641" points="9.90159091 3.10794872 9.10272727 3.10794872 9.10272727 8.76589744 10.7479545 7.80692308 10.7479545 6.59948718 9.90159091 6.59948718"></polygon>
                            <polygon id="Path" fill="#A2C641" points="13.8872727 5.64051282 14.4702273 5.64051282 14.9970455 5.33102564 13.8872727 5.33102564"></polygon>
                            <polygon id="Path" fill="#A2C641" points="13.8872727 4.7425641 13.8872727 5.05205128 15.4806818 5.05205128 16.0031818 4.7425641"></polygon>
                            <rect id="Rectangle" fill="#A2C641" x="0" y="7.76769231" width="1" height="1.50820513"></rect>
                            <path d="M34.4202273,2.85948718 L37.7754545,2.85948718 L37.7754545,1.74358974 C37.7750577,1.55069668 37.7429551,1.359207 37.6804545,1.17692308 L34.4202273,1.17692308 L34.4202273,2.85948718 Z" id="Path" fill="#F3B526"></path>
                            <rect id="Rectangle" fill="#F5D42B" x="34.4202273" y="2.10102564" width="1.30409091" height="2.12717949"></rect>
                            <path d="M6.74068182,7.25769231 L9.10272727,7.25769231 L9.10272727,7.76769231 L6.74068182,7.76769231 L6.74068182,7.25769231 Z M13.6022727,1.70871795 L13.6022727,6.14179487 L13.8872727,5.98051282 L13.8872727,1.70871795 L13.6022727,1.70871795 Z" id="Shape" fill="#80CCEB" fill-rule="nonzero"></path>
                            <path d="M0.626136364,5.84974359 L5.13,5.84974359 L5.13,6.39025641 L0.626136364,6.39025641 L0.626136364,5.84974359 Z M0.626136364,1.80461538 L0,1.80461538 L0,4.04948718 L0.6175,4.04948718 L0.626136364,1.80461538 Z M6.80113636,0 L5.225,0 L5.225,0.893589744 L6.80113636,0.893589744 L6.80113636,0 Z M3.62295455,2.34948718 L2.84136364,2.34948718 L2.84136364,0.893589744 L2.37931818,0.893589744 L2.37931818,4.35897436 L3.62295455,4.35897436 L3.62295455,2.34948718 Z" id="Shape" fill="#80CCEB" fill-rule="nonzero"></path>
                            <rect id="Rectangle" fill="#80CCEB" x="5.87704545" y="6.4774359" width="1" height="2.79846154"></rect>
                            <path d="M19.9975,0.871794872 L18.6675,0.871794872 L18.6675,0 L19.9975,0 L19.9975,0.871794872 Z M23.3181818,1.82205128 L25.2743182,1.82205128 L25.2743182,0.95025641 L23.3181818,0.95025641 L23.3181818,1.82205128 Z M18.6675,4.47230769 L18.9352273,4.47230769 L18.9352273,2.53692308 L23.0590909,2.53692308 L23.0590909,2.40615385 L18.6675,2.40615385 L18.6675,4.47230769 Z" id="Shape" fill="#1578B8" fill-rule="nonzero"></path>
                            <rect id="Rectangle" fill="#2AA5DE" x="9.90159091" y="0.893589744" width="1" height="1.32076923"></rect>
                            <path d="M6.80113636,0.893589744 L6.17068182,0.893589744 L6.17068182,2.34948718 L5.13,2.34948718 L5.13,4.04948718 L6.80113636,4.04948718 L6.80113636,0.893589744 Z M1.72727273,4.35897436 L2.375,4.35897436 L2.375,0.893589744 L1.72727273,0.893589744 L1.72727273,4.35897436 Z" id="Shape" fill="#2AA5DE" fill-rule="nonzero"></path>
                            <path d="M7.77272727,4.04948718 L6.17068182,4.04948718 L6.17068182,2.34948718 L7.77272727,2.34948718 L7.77272727,4.04948718 Z M4.53840909,6.59948718 L0,6.59948718 L0,7.10076923 L4.51681818,7.10076923 L4.53840909,6.59948718 Z M0.626136364,4.35897436 L0,4.35897436 L0,5.85410256 L0.626136364,5.85410256 L0.626136364,4.35897436 Z M13.6195455,0 L7.37113636,0 L7.37113636,0.893589744 L13.6195455,0.893589744 L13.6195455,0 Z" id="Shape" fill="#1578B8" fill-rule="nonzero"></path>
                            <polygon id="Path" fill="#2AA5DE" points="10.5406818 2.55435897 9.90159091 2.55435897 9.90159091 6.19410256 12.6565909 6.19410256 12.6565909 5.24820513 10.5406818 5.24820513"></polygon>
                            <polygon id="Path" fill="#2AA5DE" points="9.10272727 5.10435897 9.10272727 4.54205128 6.45136364 4.54205128 6.45136364 9.27589744 6.74068182 9.27589744 6.74068182 8.4825641 9.10272727 8.4825641 9.10272727 7.76769231 6.74068182 7.76769231 6.74068182 5.10435897"></polygon>
                            <rect id="Rectangle" fill="#1578B8" x="5.13" y="4.35461538" width="1" height="4.12794872"></rect>
                            <polygon id="Path" fill="#E02B29" points="4.52977273 7.76769231 4.52977273 7.58025641 4.27931818 7.58025641 4.27931818 6.59948718 4.14545455 6.59948718 4.14545455 7.58025641 3.6575 7.58025641 3.6575 7.10076923 3.52363636 7.10076923 3.52363636 7.58025641 3.03136364 7.58025641 3.03136364 7.10076923 2.8975 7.10076923 2.8975 7.58025641 2.40522727 7.58025641 2.40522727 7.10076923 2.27568182 7.10076923 2.27568182 7.58025641 0 7.58025641 0 7.76769231 2.27568182 7.76769231 2.27568182 9.27589744 2.40522727 9.27589744 2.40522727 7.76769231 2.8975 7.76769231 2.8975 9.27589744 3.03136364 9.27589744 3.03136364 7.76769231 3.52363636 7.76769231 3.52363636 9.27589744 3.6575 9.27589744 3.6575 7.76769231 4.14545455 7.76769231 4.14545455 9.27589744 4.27931818 9.27589744 4.27931818 7.76769231"></polygon>
                            <polygon id="Path" fill="#E02B29" points="9.90159091 6.46871795 13.0452273 6.46871795 13.2265909 6.36410256 9.90159091 6.36410256"></polygon>
                            <rect id="Rectangle" fill="#A2C641" x="11.0631818" y="0" width="1" height="1.55179487"></rect>
                            <path d="M13.8872727,2.21871795 L15.0229545,2.21871795 L15.0229545,2.34948718 L13.8872727,2.34948718 L13.8872727,2.21871795 Z M9.5,0 L8.91272727,0 L8.91272727,0.893589744 L9.5,0.893589744 L9.5,0 Z M5.22068182,0 L4.75,0 L4.75,0.893589744 L5.23363636,0.893589744 L5.22068182,0 Z M6.94795455,2.34948718 L6.94795455,0.893589744 L7.37977273,0.893589744 L7.37977273,0 L6.80113636,0 L6.80113636,2.34948718 L6.94795455,2.34948718 Z M7.77272727,2.55435897 L13.6022727,2.55435897 L13.6022727,2.34948718 L7.77272727,2.34948718 L7.77272727,2.55435897 Z" id="Shape" fill="#EE922A" fill-rule="nonzero"></path>
                            <rect id="Rectangle" fill="#2AA5DE" x="34.7440909" y="0.396666667" width="1" height="1.02435897"></rect>
                            <rect id="Rectangle" fill="#1578B8" x="35.7243182" y="3.62666667" width="2.05113636" height="1"></rect>
                            <rect id="Rectangle" fill="#F3B526" x="23.1540909" y="4.15410256" width="1.86545455" height="1"></rect>
                            <rect id="Rectangle" fill="#E02B29" x="25.6802273" y="0" width="1" height="1"></rect>
                            <rect id="Rectangle" fill="#E02B29" x="32.8354545" y="0.706153846" width="1" height="1.39051282"></rect>
                            <polygon id="Path" fill="#1578B8" points="27.6018182 0 27.6018182 0.710512821 33.345 0.710512821 33.345 4.47230769 33.6472727 4.47230769 33.6472727 0"></polygon>
                            <path d="M29.1088636,0 L29.5795455,0 L29.5795455,2.96410256 L29.1088636,2.96410256 L29.1088636,0 Z M27.6018182,1.02435897 L28.0681818,1.02435897 L28.0681818,0 L27.5931818,0 L27.6018182,1.02435897 Z M30.6245455,1.02435897 L31.0909091,1.02435897 L31.0909091,0 L30.6159091,0 L30.6245455,1.02435897 Z M36.0654545,-1.04083409e-17 L34.4202273,-1.04083409e-17 L34.4202273,0.396666667 L37.1363636,0.396666667 C36.8354294,0.143669275 36.4570724,0.00352515094 36.0654545,-1.04083409e-17 Z" id="Shape" fill="#A2C641" fill-rule="nonzero"></path>
                            <rect id="Rectangle" fill="#80CCEB" x="27.6018182" y="1.02435897" width="4.23613636" height="1"></rect>
                            <path d="M25.5636364,0.958974359 L26.2977273,0.958974359 L26.2977273,2.53692308 L25.5636364,2.53692308 L25.5636364,0.958974359 Z M26.9238636,2.53692308 L27.3945455,2.53692308 L27.3945455,0 L26.9238636,0 L26.9238636,2.53692308 Z M28.3531818,1.02435897 L28.8281818,1.02435897 L28.8281818,0 L28.3531818,0 L28.3531818,1.02435897 Z M31.3759091,1.02435897 L31.8509091,1.02435897 L31.8509091,0 L31.3759091,0 L31.3759091,1.02435897 Z M29.8731818,1.02435897 L30.3438636,1.02435897 L30.3438636,0 L29.8602273,0 L29.8731818,1.02435897 Z" id="Shape" fill="#F3B526" fill-rule="nonzero"></path>
                            <path d="M23.9313636,0 L24.2940909,0 L24.2940909,1.82205128 L23.9313636,1.82205128 L23.9313636,0 Z M23.0677273,1.82205128 L23.3181818,1.82205128 L23.3181818,0.95025641 L23.0590909,0.95025641 L23.0677273,1.82205128 Z M25.1663636,4.00153846 L33.1377273,4.00153846 L33.1377273,3.69641026 L25.1577273,3.69641026 L25.1663636,4.00153846 Z M27.6018182,2.96410256 L27.6018182,0 L27.3945455,0 L27.3945455,2.96410256 L25.1577273,2.96410256 L25.1577273,3.26923077 L33.1377273,3.26923077 L33.1377273,2.96410256 L27.6018182,2.96410256 Z M25.5636364,0 L25.2743182,0 L25.2743182,2.53692308 L25.5636364,2.53692308 L25.5636364,0 Z M19.9975,1.82205128 L21.8456818,1.82205128 L21.8456818,3.34769231 L22.3077273,3.34769231 L22.3077273,0.871794872 L19.9975,0.871794872 L19.9975,1.82205128 Z" id="Shape" fill="#2AA5DE" fill-rule="nonzero"></path>
                            <rect id="Rectangle" fill="#E02B29" x="16.8236364" y="2.59794872" width="1" height="1.59102564"></rect>
                            <rect id="Rectangle" fill="#F6EC31" x="15.0229545" y="2.21871795" width="1.25227273" height="1"></rect>
                            <rect id="Rectangle" fill="#F6EC31" x="15.0229545" y="0" width="1.25227273" height="1"></rect>
                            <polygon id="Path" fill="#F3B526" points="16.8236364 0.27025641 16.8236364 1.8525641 15.0229545 1.8525641 15.0229545 1.76102564 13.8829545 1.76102564 13.8829545 1.62589744 15.0229545 1.62589744 15.0229545 1.16820513 13.8829545 1.16820513 13.8829545 1.03307692 15.0229545 1.03307692 15.0229545 0.575384615 13.8829545 0.575384615 13.8829545 0.444615385 15.0229545 0.444615385 15.0229545 0.27025641"></polygon>
                            <polygon id="Path" fill="#F3B526" points="15.0229545 2.59794872 15.0229545 2.81153846 13.8872727 2.81153846 13.8872727 2.94230769 15.0229545 2.94230769 15.0229545 3.4 13.8872727 3.4 13.8872727 3.53512821 15.0229545 3.53512821 15.0229545 3.99282051 13.8872727 3.99282051 13.8872727 4.12358974 15.0229545 4.12358974 15.0229545 4.18897436 16.8236364 4.18897436 16.8236364 2.59794872"></polygon>
                            <path d="M13.8872727,1.70871795 L10.5406818,1.70871795 L10.5406818,1.55179487 L13.8872727,1.55179487 L13.8872727,1.70871795 Z M16.8236364,1.8525641 L17.0740909,1.8525641 L17.0740909,0.27025641 L16.8409091,0.27025641 L16.8236364,1.8525641 Z" id="Shape" fill="#E02B29" fill-rule="nonzero"></path>
                            <polygon id="Path" fill="#A2C641" points="7.83318182 8.4825641 7.83318182 7.76769231 7.67340909 7.76769231 7.67340909 9.27589744 8.13545455 9.27589744 8.13545455 8.4825641"></polygon>
                            <path d="M18.2356818,0 L18.6675,0 L18.6675,4.47230769 L18.2356818,4.47230769 L18.2356818,0 Z M23.1540909,4.15410256 L25.0195455,4.15410256 L25.0195455,2.96410256 L23.1540909,2.96410256 L23.1540909,4.15410256 Z" id="Shape" fill="#A2C641" fill-rule="nonzero"></path>
                            <rect id="Rectangle" fill="#80CCEB" x="17.8254545" y="0" width="1" height="4.47230769"></rect>
                            <rect id="Rectangle" fill="#80CCEB" x="23.1540909" y="3.70076923" width="1" height="1"></rect>
                            <path d="M0,9.27589744 L8.23045455,9.27589744 L9.09409091,8.76589744 L10.7393182,7.80692308 L12.8120455,6.59948718 L13.0365909,6.46871795 L13.2179545,6.36410256 L13.3086364,6.31179487 L13.5936364,6.14179487 L13.8786364,5.98051282 L14.4615909,5.64051282 L14.9884091,5.33102564 L15.4677273,5.05205128 L15.9988636,4.7425641 L16.4609091,4.47230769 L37.7754545,4.47230769 L37.7754545,48.0184615 C37.7754545,49.5784535 36.5226659,50.8430769 34.9772727,50.8430769 L2.79818182,50.8430769 C1.25278867,50.8430769 1.89256077e-16,49.5784535 0,48.0184615 L0,9.27589744 Z" id="Path" fill="#1578B8"></path>
                            <path d="M10.5493182,29.4317949 L11.1581818,29.4317949 L11.1581818,30.0769231 L10.5493182,30.0769231 L10.5493182,29.4317949 Z M11.1452273,34.0741026 L10.5622727,34.0741026 L10.5622727,30.7569231 L11.1452273,30.7569231 L11.1452273,34.0741026 Z M12.6090909,31.2538462 C12.708667,31.0697711 12.8585567,30.9184654 13.0409091,30.8179487 C13.2530429,30.7081468 13.4892008,30.654172 13.7275,30.6610256 C14.0487317,30.6383575 14.3638781,30.7576538 14.5911364,30.9879487 C14.8101825,31.2548403 14.9184942,31.5969025 14.8934091,31.9425641 L14.8934091,34.0653846 L14.3104545,34.0653846 L14.3104545,32.0123077 C14.3290896,31.7889587 14.2678089,31.566264 14.1377273,31.3846154 C13.9943096,31.2372298 13.7932334,31.1621128 13.5893182,31.1797436 C13.3253158,31.1706537 13.0702919,31.2771229 12.8897727,31.4717949 C12.6996478,31.7035647 12.6039383,31.9996389 12.6220455,32.3 L12.6220455,34.0741026 L12.0390909,34.0741026 L12.0390909,30.7569231 L12.3413636,30.7569231 C12.5184091,30.7569231 12.6090909,30.8353846 12.6090909,30.9966667 L12.6090909,31.2538462 Z M16.8409091,31.1623077 C16.6905846,31.1603296 16.5421518,31.19629 16.4090909,31.2669231 C16.2850112,31.3387065 16.2127908,31.4760347 16.2234091,31.62 C16.2260744,31.7017404 16.2531699,31.7807556 16.3011364,31.8466667 C16.3883061,31.9484944 16.5069935,32.0176148 16.6379545,32.0428205 L17.2425,32.2302564 C17.4784967,32.2883893 17.6956453,32.4069975 17.8729545,32.5746154 C17.995034,32.7315592 18.053667,32.9293682 18.0370455,33.1282051 C18.0460735,33.4129583 17.9250918,33.6861317 17.7088636,33.8692308 C17.4434903,34.0774734 17.1114916,34.1798757 16.7761364,34.1569231 C16.5336177,34.1604342 16.2923973,34.1205889 16.0636364,34.0392308 C15.8580144,33.9664194 15.6676411,33.8555511 15.5022727,33.7123077 L15.77,33.2982051 C15.9082482,33.4111435 16.0644816,33.4995786 16.2320455,33.5597436 C16.4074691,33.6254128 16.5933704,33.6579204 16.7804545,33.655641 C16.9525047,33.6668909 17.1239526,33.6259013 17.2727273,33.5379487 C17.3994222,33.4498966 17.4701514,33.3004602 17.4584091,33.145641 C17.4642797,33.0475971 17.4299229,32.951435 17.3634091,32.8797436 C17.2692657,32.7961676 17.1567741,32.7364022 17.0352273,32.7053846 L16.4090909,32.5223077 C16.1807609,32.4664105 15.9717888,32.3488833 15.8045455,32.1823077 C15.6701672,32.0287616 15.5990944,31.8291256 15.6059091,31.624359 C15.6018182,31.473407 15.6344362,31.3237429 15.7009091,31.1884615 C15.7614982,31.0707658 15.8487973,30.9691994 15.9556818,30.8920513 C16.0719169,30.8093148 16.2021676,30.7487448 16.34,30.7133333 C16.4950605,30.6723822 16.6547211,30.6518698 16.815,30.6523077 C17.0234299,30.6540925 17.2308398,30.6819107 17.4325,30.7351282 C17.6221532,30.7841687 17.7999301,30.8716722 17.955,30.9923077 L17.7347727,31.4020513 C17.6050547,31.3249617 17.4675273,31.2621244 17.3245455,31.2146154 C17.1667233,31.1734631 17.0037856,31.1558405 16.8409091,31.1623077 Z M18.7063636,29.4187179 L19.3195455,29.4187179 L19.3195455,30.0769231 L18.6934091,30.0769231 L18.7063636,29.4187179 Z M19.3022727,34.0610256 L18.7063636,34.0610256 L18.7063636,30.7569231 L19.2893182,30.7569231 L19.3022727,34.0610256 Z M23.1411364,34.0610256 L22.8431818,34.0610256 C22.6661364,34.0610256 22.5754545,33.9782051 22.5754545,33.8212821 L22.5754545,33.5641026 C22.4760759,33.7483267 22.3261365,33.8996826 22.1436364,34 C21.9375727,34.1098742 21.7073276,34.1653551 21.4743182,34.1612821 C21.2585151,34.1658293 21.0444804,34.121128 20.8481818,34.0305128 C20.6682378,33.9500883 20.5098538,33.8275633 20.3861364,33.6730769 C20.2485074,33.5149557 20.1455033,33.3292823 20.0838636,33.1282051 C19.9542162,32.6665314 19.9542162,32.1775712 20.0838636,31.7158974 C20.1456887,31.5153972 20.2454042,31.3288848 20.3775,31.1666667 C20.5046489,31.0110351 20.6657433,30.8872082 20.8481818,30.8048718 C21.0493736,30.7152573 21.2673919,30.6706469 21.4872727,30.6741026 C21.7039487,30.6702335 21.9184721,30.7180238 22.1134091,30.8135897 C22.2887085,30.9002201 22.4378163,31.0326745 22.5452273,31.1971795 L22.5452273,29.3228205 L23.1325,29.3228205 L23.1411364,34.0610256 Z M22.5754545,32.4002564 C22.5984314,32.075164 22.510006,31.7519786 22.325,31.4848718 C22.1438574,31.268932 21.8701604,31.1551686 21.5909091,31.1797436 C21.3108845,31.1651517 21.0404356,31.2846918 20.8611364,31.5023077 C20.5164416,32.0645369 20.5164416,32.7752066 20.8611364,33.3374359 C21.0489414,33.5401867 21.3116131,33.6552663 21.5865909,33.6552663 C21.8615687,33.6552663 22.1242404,33.5401867 22.3120455,33.3374359 C22.4988332,33.0741383 22.5903055,32.7540387 22.5711364,32.4307692 L22.5754545,32.4002564 Z M24.4193182,32.5702564 C24.4175909,32.8725994 24.5303537,33.1641865 24.7345455,33.3853846 C24.9608125,33.5840818 25.2557527,33.6843686 25.555,33.664359 C25.8544084,33.6771097 26.1489356,33.5846818 26.3884091,33.4028205 L26.6388636,33.7907692 C26.4914171,33.923442 26.3177366,34.0229888 26.1293182,34.0828205 C25.92672,34.1470414 25.7155331,34.1793863 25.5031818,34.1787179 C25.267724,34.1819747 25.033633,34.1420986 24.8122727,34.0610256 C24.6142737,33.9876906 24.4344932,33.8716632 24.2854545,33.7210256 C24.1293811,33.5515634 24.0128248,33.349014 23.9443182,33.1282051 C23.8593384,32.883228 23.8183923,32.6248973 23.8234091,32.3653846 C23.818774,32.1186959 23.8597788,31.8733 23.9443182,31.6417949 C24.0134922,31.4409712 24.1255267,31.2579395 24.2725,31.105641 C24.4144232,30.959684 24.5850556,30.8453493 24.7734091,30.77 C24.9710633,30.6901 25.1823246,30.6501143 25.3952273,30.6523077 C25.5963425,30.6472649 25.7963089,30.6843707 25.9825,30.7612821 C26.1479026,30.8299152 26.2955959,30.935768 26.4143182,31.0707692 C26.5325112,31.208523 26.6194628,31.37068 26.6690909,31.5458974 C26.7298096,31.7404007 26.7589738,31.9435348 26.7554545,32.1474359 C26.7566321,32.2773954 26.7465176,32.4072089 26.7252273,32.5353846 L24.4193182,32.5702564 Z M25.4168182,31.1797436 C25.1690737,31.1695025 24.927727,31.260666 24.7475,31.4325641 C24.5631232,31.6159241 24.4510866,31.8607052 24.4322727,32.1212821 L26.2070455,32.1212821 L26.2070455,32.0689744 C26.2270074,31.8210723 26.1494397,31.5752088 25.9911364,31.3846154 C25.8403943,31.2241187 25.6268304,31.139483 25.4081818,31.1535897 L25.4168182,31.1797436 Z" id="Shape" fill="#FFFFFF" fill-rule="nonzero"></path>
                            <path d="M27.0793182,30.6461498 L27.0793182,29.8470761 L26.7727273,29.8470761 L26.7727273,29.676205 L27.55,29.676205 L27.55,29.8470761 L27.2563636,29.8470761 L27.2563636,30.6461498 L27.0793182,30.6461498 Z M27.7140909,30.6461498 L27.7140909,29.6410256 L27.9084091,29.6410256 L28.1631818,30.1938439 L28.4093182,29.6410256 L28.6036364,29.6410256 L28.6036364,30.6461498 L28.4352273,30.6461498 L28.4352273,29.967691 L28.2409091,30.4250225 L28.0681818,30.4250225 L27.8652273,29.9877935 L27.8652273,30.6461498 L27.7140909,30.6461498 Z" id="Shape" fill="#FFFFFF" fill-rule="nonzero"></path>
                            <path d="M18.2615909,25.0335897 C12.8379545,25.5392308 7.18977273,24.7458974 6.39954545,20.4871795 C6.01090909,18.3817949 6.96522727,16.1282051 8.22613636,14.7551282 L8.22613636,14.0141026 C5.95477273,16.0235897 4.72409091,18.5735897 5.43227273,21.5769231 C6.33477273,25.4215385 11.1840909,27.6053846 18.5681818,26.8774359 C21.4959091,26.5941026 25.3304545,25.6438462 27.9947727,24.1661538 L27.9947727,22.0651282 C25.5938636,23.5384615 21.5909091,24.7241026 18.2615909,25.0335897 Z M32.5418182,13.9487179 C31.2463636,7.60641026 19.0690909,7.20538462 11.21,12.0351282 L11.21,12.5669231 C19.0561364,8.49564103 30.1884091,8.52179487 31.1988636,14.3584615 C31.54,16.2894872 30.4647727,18.2815385 28.5388636,19.4584615 L28.5388636,20.9710256 C30.8577273,20.0992308 33.2327273,17.344359 32.5418182,13.9487179 Z M27.5759091,20.9230769 C26.5136364,20.8184615 26.1552273,20.1733333 26.1552273,19.4235897 L26.1552273,13.0246154 L27.5759091,13.0246154 L27.5759091,20.9230769 Z M10.6529545,21.0407692 C9.59068182,20.9405128 9.22795455,20.2910256 9.22795455,19.5369231 L9.22795455,15.3566667 L10.6529545,15.3566667 L10.6529545,21.0407692 Z M10.6529545,14.5894872 L9.22795455,14.5894872 L9.22795455,13.2164103 L10.6486364,13.2164103 L10.6529545,14.5894872 Z M19.1640909,20.9666667 C18.7289441,21.0037913 18.2991593,20.8491036 17.9854405,20.542448 C17.6717216,20.2357925 17.5047376,19.8071474 17.5275,19.3669231 L17.5275,13.8223077 L18.9352273,13.8223077 L18.9352273,15.3566667 L19.9931818,15.3566667 L19.9931818,16.5030769 L18.9352273,16.5030769 L18.9352273,19.2797436 C18.9124574,19.4184777 18.9573902,19.5597791 19.0558968,19.6592162 C19.1544033,19.7586533 19.2943823,19.8040106 19.4318182,19.7810256 L19.9931818,19.7810256 L19.9931818,20.9666667 L19.1640909,20.9666667 Z M21.755,18.6041026 C21.7302488,18.9452554 21.8537586,19.2803994 22.0933726,19.522277 C22.3329866,19.7641546 22.6649943,19.8888312 23.0029545,19.8638462 C23.4920681,19.8979869 23.9696308,19.7035504 24.2984091,19.3364103 L25.1620455,20.1733333 C24.6060415,20.7754825 23.8177937,21.1033085 23.0029545,21.0712821 C21.6556818,21.0712821 20.3645455,20.3215385 20.3645455,18.1551282 C20.3645455,16.3069231 21.4915909,15.2607692 22.9554545,15.2607692 C24.4193182,15.2607692 25.3261364,16.4812821 25.3261364,18.0941026 L25.3261364,18.6041026 L21.755,18.6041026 Z M22.9036364,16.4246154 C22.4820512,16.4054693 22.0877886,16.6350772 21.8931818,17.0130769 C21.8039613,17.2040208 21.7568176,17.412223 21.755,17.6233333 L23.9140909,17.6233333 C23.8838636,17.0130769 23.6118182,16.4246154 22.8906818,16.4246154 L22.9036364,16.4246154 Z M13.3,16.49 L13.3,20.9753846 L11.9009091,20.9753846 L11.9009091,15.3566667 L14.8156818,15.3566667 C15.2662234,15.3206428 15.7097309,15.4860096 16.0288938,15.8090266 C16.3480568,16.1320436 16.510722,16.5801694 16.4738636,17.0348718 L16.4738636,20.9579487 L15.0661364,20.9579487 L15.0661364,17.0348718 C15.0661364,16.7035897 14.8934091,16.494359 14.4788636,16.494359 L13.3,16.49 Z" id="Shape" fill="#FFFFFF" fill-rule="nonzero"></path>
                            <path d="M29.1779545,14.5633333 C28.7564036,14.5609292 28.4163744,14.2144423 28.41796,13.7889053 C28.4195455,13.3633683 28.7621471,13.0194732 29.183704,13.0202701 C29.6052609,13.0210669 29.9465842,13.3662549 29.9465909,13.7917949 C29.9442155,14.2186079 29.60078,14.5633401 29.1779545,14.5633333 Z M29.1779545,13.1510256 C28.829068,13.1558093 28.5494124,13.4439473 28.5518182,13.7961538 C28.5506678,13.9645382 28.6161273,14.1264251 28.7336755,14.2459021 C28.8512238,14.3653792 29.011142,14.4325681 29.1779545,14.4325641 C29.3463079,14.4337241 29.508222,14.3673247 29.6280757,14.2479738 C29.7479293,14.1286229 29.8159041,13.9660976 29.8170455,13.7961538 C29.814691,13.4408485 29.5299348,13.1534023 29.1779545,13.1510256 Z M29.5190909,14.2538462 L29.3636364,14.2538462 C29.3554378,14.2577718 29.3459258,14.2577718 29.3377273,14.2538462 L29.1477273,13.9225641 L29.1175,13.9225641 L29.0354545,13.9225641 L29.0354545,14.2494872 C29.0354545,14.2687463 29.019988,14.284359 29.0009091,14.284359 L28.8756818,14.284359 C28.8583062,14.2821497 28.8453173,14.267165 28.8454545,14.2494872 L28.8454545,13.3864103 C28.8454545,13.3384615 28.8454545,13.3166667 28.9015909,13.3123077 L29.1390909,13.3123077 C29.3679545,13.3123077 29.5147727,13.3820513 29.5147727,13.604359 C29.5244317,13.719892 29.4493081,13.8253188 29.3377273,13.8528205 L29.5406818,14.1971795 C29.5406818,14.1971795 29.5406818,14.1971795 29.5406818,14.2233333 C29.5406818,14.2494872 29.5406818,14.2494872 29.5104545,14.2494872 L29.5190909,14.2538462 Z M29.3247727,13.5912821 C29.3247727,13.4997436 29.2729545,13.4692308 29.1477273,13.4692308 L29.0225,13.4692308 L29.0225,13.7307692 L29.1477273,13.7307692 C29.2729545,13.7307692 29.3247727,13.6915385 29.3247727,13.6 L29.3247727,13.5912821 Z" id="Shape" fill="#FFFFFF" fill-rule="nonzero"></path>
                            <path d="M8.27363636,44.9323077 L10.0743182,42.155641 L8.42477273,39.5969231 L9.72022727,39.5969231 L10.7306818,41.3405128 L11.8145455,39.5969231 L13.0452273,39.5969231 L11.3179545,42.1338462 L13.1877273,44.9323077 L11.8922727,44.9323077 L10.6659091,42.9446154 L9.5,44.9323077 L8.27363636,44.9323077 Z M14.9668182,42.665641 L14.9668182,44.0517949 L17.5015909,44.0517949 L17.5015909,44.9235897 L13.8484091,44.9235897 L13.8484091,39.5969231 L17.4584091,39.5969231 L17.4584091,40.4687179 L14.9668182,40.4687179 L14.9668182,41.7764103 L17.0740909,41.7764103 L17.0740909,42.6482051 L14.9668182,42.665641 Z M20.6063636,45.05 C20.237804,45.0547251 19.8716327,44.9896701 19.5268182,44.8582051 C19.2166332,44.7407576 18.9373823,44.5528317 18.7106818,44.3089744 C18.4798587,44.058622 18.3046635,43.7613949 18.1968182,43.4371795 C17.9550407,42.6789858 17.9550407,41.8633219 18.1968182,41.1051282 C18.3060876,40.7815747 18.4811143,40.4846333 18.7106818,40.2333333 C18.936867,39.9846804 19.2158874,39.7909486 19.5268182,39.6666667 C20.2242071,39.4108557 20.9885202,39.4108557 21.6859091,39.6666667 C21.9945389,39.7892044 22.2730354,39.9781101 22.5020455,40.2202564 C22.7301167,40.4726797 22.9049479,40.7692893 23.0159091,41.0920513 C23.2520077,41.8511343 23.2520077,42.6650195 23.0159091,43.4241026 C22.9064086,43.7475483 22.7314089,44.0444439 22.5020455,44.2958974 C22.273886,44.5380093 21.9950591,44.7256499 21.6859091,44.8451282 C21.3409869,44.9761964 20.9748903,45.0412381 20.6063636,45.0369231 L20.6063636,45.05 Z M20.6063636,44.1084615 C21.0126966,44.1331978 21.406137,43.9597455 21.6643182,43.6420513 C22.1539057,42.7824685 22.1539057,41.7249674 21.6643182,40.8653846 C21.3919503,40.565375 21.0073339,40.3945548 20.6042045,40.3945548 C20.2010752,40.3945548 19.8164588,40.565375 19.5440909,40.8653846 C19.0606069,41.726602 19.0606069,42.7808339 19.5440909,43.6420513 C19.8057634,43.9575745 20.1992985,44.1303633 20.6063636,44.1084615 Z M25.4081818,39.5969231 L27.4593182,43.4241026 L27.4593182,39.5969231 L28.5,39.5969231 L28.5,44.9323077 L27.2822727,44.9323077 L25.2311364,41.1748718 L25.2311364,44.9323077 L24.1818182,44.9323077 L24.1818182,39.5969231 L25.4081818,39.5969231 Z" id="Shape" fill="#FFFFFF" fill-rule="nonzero"></path>
                            <path d="M29.8818182,41.135641 C29.4830964,41.1053239 29.1749091,40.7699106 29.1749091,40.3662821 C29.1749091,39.9626535 29.4830964,39.6272402 29.8818182,39.5969231 C30.1678059,39.5751778 30.4417845,39.7168763 30.5913622,39.9638908 C30.7409399,40.2109053 30.7409399,40.5216588 30.5913622,40.7686733 C30.4417845,41.0156878 30.1678059,41.1573863 29.8818182,41.135641 Z M29.8818182,39.7233333 C29.7146062,39.7256297 29.5551484,39.7948924 29.4385315,39.9158809 C29.3219146,40.0368693 29.2576937,40.1996704 29.26,40.3684615 C29.2576951,40.5368443 29.3220514,40.6991937 29.4387907,40.8194908 C29.55553,40.939788 29.7149991,41.0080855 29.8818182,41.0092308 C30.0513168,41.0103908 30.2143293,40.9435321 30.3349927,40.8233637 C30.4556562,40.7031953 30.5240859,40.5395614 30.5252273,40.3684615 C30.5228537,40.0114631 30.2354837,39.7233253 29.8818182,39.7233333 Z M30.2272727,40.8261538 L30.0804545,40.8261538 C30.0804545,40.8261538 30.0545455,40.8261538 30.0545455,40.8261538 L29.8602273,40.4992308 C29.8602273,40.4992308 29.8602273,40.4992308 29.8343182,40.4992308 L29.7479545,40.4992308 L29.7479545,40.8261538 C29.7442553,40.8428363 29.7302802,40.85518 29.7134091,40.8566667 L29.5838636,40.8566667 C29.5680151,40.8547654 29.5555198,40.8421521 29.5536364,40.8261538 L29.5536364,39.9630769 C29.5536364,39.9151282 29.5536364,39.8933333 29.6097727,39.8889744 C29.6888633,39.8840199 29.7681821,39.8840199 29.8472727,39.8889744 C30.0804545,39.8889744 30.2229545,39.9587179 30.2229545,40.1810256 C30.2326564,40.2941928 30.159422,40.3976894 30.0502273,40.4251282 L30.2488636,40.7738462 C30.2488636,40.7738462 30.2488636,40.7738462 30.2488636,40.7738462 C30.2488636,40.7738462 30.2488636,40.8 30.2186364,40.8 L30.2272727,40.8261538 Z M30.0329545,40.1417949 C30.0329545,40.0502564 29.9768182,40.0197436 29.8515909,40.0197436 L29.7263636,40.0197436 L29.7263636,40.285641 L29.8515909,40.285641 C29.9768182,40.285641 30.0329545,40.2420513 30.0329545,40.1548718 L30.0329545,40.1417949 Z" id="Shape" fill="#FFFFFF" fill-rule="nonzero"></path>
                        </g>
                        <path d="M43.044,53 L43.044,44.54 L48.396,44.54 L48.396,45.356 L44.016,45.356 L44.016,48.296 L48.156,48.296 L48.156,49.112 L44.016,49.112 L44.016,52.184 L48.396,52.184 L48.396,53 L43.044,53 Z M52.824,47.012 C54.224007,47.012 54.924,47.7839923 54.924,49.328 L54.924,53 L53.952,53 L53.952,49.388 C53.952,48.8439973 53.8460011,48.4480012 53.634,48.2 C53.4219989,47.9519988 53.0840023,47.828 52.62,47.828 C52.0839973,47.828 51.6560016,47.9919984 51.336,48.32 C51.0159984,48.6480016 50.856,49.0919972 50.856,49.652 L50.856,53 L49.884,53 L49.884,47.156 L50.844,47.156 L50.844,48.116 C51.036001,47.7559982 51.3039983,47.4820009 51.648,47.294 C51.9920017,47.1059991 52.3839978,47.012 52.824,47.012 Z M59.268,52.304 C59.4440009,52.304 59.6199991,52.2920001 59.796,52.268 L59.748,53.036 C59.5639991,53.0680002 59.3640011,53.084 59.148,53.084 C58.4439965,53.084 57.9140018,52.9000018 57.558,52.532 C57.2019982,52.1639982 57.024,51.6520033 57.024,50.996 L57.024,47.924 L55.884,47.924 L55.884,47.156 L57.024,47.156 L57.024,45.38 L57.996,45.38 L57.996,47.156 L59.652,47.156 L59.652,47.924 L57.996,47.924 L57.996,50.924 C57.996,51.8440046 58.4199958,52.304 59.268,52.304 Z M65.676,50.228 L61.404,50.228 C61.4360002,50.9080034 61.6199983,51.4219983 61.956,51.77 C62.2920017,52.1180017 62.7679969,52.292 63.384,52.292 C64.0640034,52.292 64.6879972,52.0600023 65.256,51.596 L65.58,52.304 C65.3239987,52.5440012 64.996002,52.7339993 64.596,52.874 C64.195998,53.0140007 63.7880021,53.084 63.372,53.084 C62.4599954,53.084 61.7420026,52.8160027 61.218,52.28 C60.6939974,51.7439973 60.432,51.0040047 60.432,50.06 C60.432,49.459997 60.5479988,48.9300023 60.78,48.47 C61.0120012,48.0099977 61.3379979,47.6520013 61.758,47.396 C62.1780021,47.1399987 62.6559973,47.012 63.192,47.012 C63.9680039,47.012 64.5759978,47.2659975 65.016,47.774 C65.4560022,48.2820025 65.676,48.9799956 65.676,49.868 L65.676,50.228 Z M63.204,47.768 C62.6919974,47.768 62.2820015,47.9279984 61.974,48.248 C61.6659985,48.5680016 61.4840003,49.0199971 61.428,49.604 L64.824,49.604 C64.8079999,49.011997 64.6600014,48.5580016 64.38,48.242 C64.0999986,47.9259984 63.7080025,47.768 63.204,47.768 Z M70.416,47.852 L69.78,47.912 C69.179997,47.9680003 68.7460013,48.1559984 68.478,48.476 C68.2099987,48.7960016 68.076,49.1919976 68.076,49.664 L68.076,53 L67.104,53 L67.104,47.156 L68.052,47.156 L68.052,48.176 C68.3800016,47.4959966 69.0239952,47.1160004 69.984,47.036 L70.332,47.012 L70.416,47.852 Z M74.28,47.012 C74.7920026,47.012 75.243998,47.1399987 75.636,47.396 C76.028002,47.6520013 76.3319989,48.0099977 76.548,48.47 C76.7640011,48.9300023 76.872,49.463997 76.872,50.072 C76.872,50.680003 76.7640011,51.2099977 76.548,51.662 C76.3319989,52.1140023 76.0300019,52.4639988 75.642,52.712 C75.2539981,52.9600012 74.8000026,53.084 74.28,53.084 C73.8239977,53.084 73.4260017,52.984001 73.086,52.784 C72.7459983,52.583999 72.4880009,52.3000018 72.312,51.932 L72.312,55.16 L71.34,55.16 L71.34,47.156 L72.312,47.156 L72.312,48.164 C72.4880009,47.7959982 72.7459983,47.512001 73.086,47.312 C73.4260017,47.111999 73.8239977,47.012 74.28,47.012 Z M74.088,52.28 C74.6560028,52.28 75.0959984,52.0880019 75.408,51.704 C75.7200016,51.3199981 75.876,50.7760035 75.876,50.072 C75.876,49.3679965 75.7200016,48.818002 75.408,48.422 C75.0959984,48.025998 74.6560028,47.828 74.088,47.828 C73.5199972,47.828 73.0820015,48.0199981 72.774,48.404 C72.4659985,48.7880019 72.312,49.3359964 72.312,50.048 C72.312,50.7600036 72.4659985,51.3099981 72.774,51.698 C73.0820015,52.0860019 73.5199972,52.28 74.088,52.28 Z M81.636,47.852 L81,47.912 C80.399997,47.9680003 79.9660013,48.1559984 79.698,48.476 C79.4299987,48.7960016 79.296,49.1919976 79.296,49.664 L79.296,53 L78.324,53 L78.324,47.156 L79.272,47.156 L79.272,48.176 C79.6000016,47.4959966 80.2439952,47.1160004 81.204,47.036 L81.552,47.012 L81.636,47.852 Z M82.56,53 L82.56,47.156 L83.532,47.156 L83.532,53 L82.56,53 Z M82.464,44.624 L83.64,44.624 L83.64,45.716 L82.464,45.716 L82.464,44.624 Z M87.324,53.084 C86.3399951,53.084 85.5600029,52.8320025 84.984,52.328 L85.308,51.608 C85.6200016,51.8560012 85.9379984,52.0339995 86.262,52.142 C86.5860016,52.2500005 86.951998,52.304 87.36,52.304 C87.7920022,52.304 88.1219989,52.2300007 88.35,52.082 C88.5780011,51.9339993 88.692,51.7200014 88.692,51.44 C88.692,51.2079988 88.6160008,51.0240007 88.464,50.888 C88.3119992,50.7519993 88.0600018,50.6440004 87.708,50.564 L86.724,50.336 C86.2279975,50.2239994 85.8480013,50.0320014 85.584,49.76 C85.3199987,49.4879986 85.188,49.152002 85.188,48.752 C85.188,48.2319974 85.391998,47.8120016 85.8,47.492 C86.208002,47.1719984 86.7519966,47.012 87.432,47.012 C87.840002,47.012 88.2279982,47.0779993 88.596,47.21 C88.9640018,47.3420007 89.2719988,47.5319988 89.52,47.78 L89.196,48.488 C88.6599973,48.0319977 88.0720032,47.804 87.432,47.804 C87.023998,47.804 86.7060011,47.8819992 86.478,48.038 C86.2499989,48.1940008 86.136,48.4119986 86.136,48.692 C86.136,48.9240012 86.2059993,49.1099993 86.346,49.25 C86.4860007,49.3900007 86.7119984,49.4959996 87.024,49.568 L88.02,49.808 C88.5640027,49.9360006 88.9679987,50.1299987 89.232,50.39 C89.4960013,50.6500013 89.628,50.9879979 89.628,51.404 C89.628,51.9160026 89.4220021,52.3239985 89.01,52.628 C88.5979979,52.9320015 88.0360036,53.084 87.324,53.084 Z M96,50.228 L91.728,50.228 C91.7600002,50.9080034 91.9439983,51.4219983 92.28,51.77 C92.6160017,52.1180017 93.0919969,52.292 93.708,52.292 C94.3880034,52.292 95.0119972,52.0600023 95.58,51.596 L95.904,52.304 C95.6479987,52.5440012 95.320002,52.7339993 94.92,52.874 C94.519998,53.0140007 94.1120021,53.084 93.696,53.084 C92.7839954,53.084 92.0660026,52.8160027 91.542,52.28 C91.0179974,51.7439973 90.756,51.0040047 90.756,50.06 C90.756,49.459997 90.8719988,48.9300023 91.104,48.47 C91.3360012,48.0099977 91.6619979,47.6520013 92.082,47.396 C92.5020021,47.1399987 92.9799973,47.012 93.516,47.012 C94.2920039,47.012 94.8999978,47.2659975 95.34,47.774 C95.7800022,48.2820025 96,48.9799956 96,49.868 L96,50.228 Z M93.528,47.768 C93.0159974,47.768 92.6060015,47.9279984 92.298,48.248 C91.9899985,48.5680016 91.8080003,49.0199971 91.752,49.604 L95.148,49.604 C95.1319999,49.011997 94.9840014,48.5580016 94.704,48.242 C94.4239986,47.9259984 94.0320025,47.768 93.528,47.768 Z" id="Enterprise" fill="#4D5872"></path>
                        <g id="litespeed-logo" transform="translate(14.000000, 14.000000)">
                            <path d="M32.5403897,7.64318881 L32.5403897,21.8020699 C32.5403897,21.9347692 32.6415447,22.0474406 32.770597,22.0590769 C33.5029548,22.120951 34.3165881,22.120951 35.1714083,22.0590769 C35.8690593,22.004028 36.7202551,21.9024336 37.7713446,21.7474685 C37.7330133,21.9638601 37.7141222,22.1975944 37.7141222,22.450014 C37.7141222,22.6648392 37.7357591,22.925986 37.7766165,23.2087273 L29.5047511,23.2087273 L29.5047511,7.64598601 C29.6623596,7.66008392 29.8656581,7.68548252 30.1170629,7.72039161 C30.4841205,7.7845035 30.8608432,7.78606993 31.0853392,7.72497902 L31.8294491,7.72162238 C32.1125952,7.68223776 32.3468663,7.65482517 32.5403897,7.64318881 Z M42.4558866,8.41745455 C42.0145828,8.48022378 41.7206732,8.48145455 41.508698,8.42081119 L40.7645881,8.42081119 C40.501651,8.38422378 40.3008787,8.36083916 40.1497502,8.34595804 L40.1497502,23.2086154 L43.0294278,23.2086154 L43.0294278,8.3426014 C42.8636918,8.35558042 42.6751107,8.37997203 42.4558866,8.41745455 Z M45.3081063,8.33174825 C45.3358937,8.54265734 45.3498423,8.75356643 45.3498423,8.95977622 C45.3498423,9.23099301 45.3366625,9.47043357 45.3121701,9.67507692 L45.7931231,9.67507692 C47.1558051,9.49952448 48.3000319,9.40979021 49.1773676,9.40979021 C49.3178423,9.40979021 49.4308592,9.52503497 49.4308592,9.66668531 L49.4308592,23.2087273 L52.2244287,23.2087273 L52.2244287,9.66668531 C52.2244287,9.52492308 52.3378849,9.40979021 52.477481,9.40979021 C53.1159327,9.40979021 54.0295128,9.46965035 55.1946076,9.58690909 C55.4893959,9.63020979 55.8020868,9.65762238 56.1281771,9.67015385 C56.0951178,9.46472727 56.0951178,9.22931469 56.1293853,8.96604196 C56.0934703,8.75602797 56.0951178,8.54276923 56.1359752,8.33174825 L45.3081063,8.33174825 Z M58.4277236,8.33174825 L58.4277236,23.2087273 L66.3170452,23.2087273 C66.2786041,22.9407552 66.2581754,22.6958322 66.2581754,22.4934266 C66.2581754,22.2618182 66.2757484,22.044979 66.3074898,21.8463776 C65.7705226,21.9296224 65.1723791,21.9960839 64.5306324,22.0408392 C63.784326,22.102042 62.756411,22.1316923 61.4735766,22.1316923 C61.3342002,22.1316923 61.2212932,22.016 61.2212932,21.8732308 L61.2212932,16.1235245 C61.2212932,15.9820979 61.3342002,15.8665175 61.4735766,15.8665175 L63.5847617,15.8665175 C64.2882338,15.9083636 64.8535376,15.9505455 65.4198299,15.9920559 L65.8377396,16.0215944 C65.8255483,15.9647552 65.8118193,15.9005315 65.7965527,15.8325035 L65.7888645,14.7977622 C65.7888645,14.7686713 65.7929283,14.7403636 65.8028131,14.7154126 C65.8081949,14.6954965 65.8142356,14.6746853 65.8203862,14.6555524 C65.0768255,14.7495385 64.3971869,14.789035 63.5848716,14.789035 L61.4736864,14.789035 C61.33431,14.789035 61.221403,14.6733427 61.221403,14.5315804 L61.221403,9.66668531 C61.221403,9.52492308 61.33431,9.40979021 61.4736864,9.40979021 C63.0308804,9.40979021 64.6661647,9.51295105 66.3371444,9.71748252 C66.284535,9.48285315 66.2581754,9.25751049 66.2581754,9.04794406 C66.2581754,8.79854545 66.2844252,8.5580979 66.338023,8.33174825 L58.4277236,8.33174825 Z M78.1943561,18.6378741 C78.1338388,16.7993287 76.7472135,15.1678881 74.0646838,13.800951 C72.07662,12.7575944 71.1118583,11.7436643 71.1118583,10.7047832 C71.1118583,9.02925874 72.0750824,8.10931469 73.8981789,8.04240559 C75.1387281,8.04240559 76.0930558,8.71944056 76.7394154,10.0577343 C76.8069619,9.82232168 76.9014172,9.52134266 77.0238795,9.14282517 C77.1732507,8.74193007 77.2997768,8.40559441 77.4057644,8.12777622 C76.4524252,7.54931469 75.3029265,7.22651748 73.9875819,7.17001399 C70.6781329,7.34836364 69.0088007,8.90137063 68.8942462,11.9167552 C68.8942462,13.9483077 70.1579699,15.5798601 72.6513694,16.7605035 C74.7358654,17.7253147 75.7915678,18.8312168 75.7915678,20.0436364 C75.6593304,21.7475804 74.6624978,22.6401119 72.8262214,22.7072448 C71.009605,22.6429091 69.8730664,21.7717483 69.4416475,20.1172587 L69.409357,20.1172587 C69.2930452,21.0162797 69.1079787,21.9041119 68.8593198,22.758042 C69.9645562,23.1842238 71.1119681,23.4295944 72.2722303,23.4866573 C75.9372046,23.4862098 77.9605244,21.7174825 78.1943561,18.6378741 Z M83.0192631,16.4966713 C82.97555,16.4996923 82.9118477,16.5111049 82.8587989,16.5643636 C82.8126696,16.6113566 82.7857609,16.6752448 82.7857609,16.7409231 L82.7857609,23.2086154 L79.8865332,23.2086154 L79.8865332,8.32928671 L85.1093605,8.32928671 C88.0997484,8.32928671 89.5815979,9.49370629 89.6367334,11.8862098 C89.6583702,13.1882517 89.3067989,14.2245594 88.5932223,14.9649231 C87.6106678,15.9846713 85.8911426,16.5015944 83.4822037,16.5015944 C83.3340407,16.5015944 83.1863171,16.4993566 83.0192631,16.4966713 Z M82.9931231,15.7466853 C83.1047121,15.7632448 83.2249779,15.7720839 83.3466714,15.7720839 C83.7029655,15.7720839 84.1140655,15.7019301 84.5669017,15.5643077 C85.8825757,15.1808671 86.6132861,14.0908531 86.7361878,12.3083636 C86.6132861,10.2988531 85.8375447,9.18097902 84.4142356,8.98595804 L83.0281594,8.98595804 C82.8948237,8.98595804 82.7857609,9.09695105 82.7857609,9.23255944 L82.7857609,15.5043357 C82.7857609,15.6260699 82.8738459,15.7301259 82.9931231,15.7466853 Z M101.233754,8.32928671 L101.233754,23.2086154 L109.136255,23.2086154 C109.098693,22.9382937 109.078374,22.6891189 109.078374,22.4817902 C109.078374,22.246042 109.094629,22.0246154 109.129665,21.8233287 C108.586108,21.9081399 107.98412,21.9760559 107.340836,22.0209231 C106.58805,22.0812308 105.591107,22.1100979 104.289821,22.1100979 C104.155936,22.1100979 104.047313,21.998993 104.047313,21.864951 L104.047313,16.121958 C104.047313,15.9871329 104.155936,15.8761399 104.289821,15.8761399 L106.630664,15.8761399 C107.509977,15.9301818 108.310101,15.9814266 109.043337,16.0324476 C109.030267,15.9713566 109.016319,15.9027692 108.997647,15.8278042 L108.990399,14.7977622 C108.990399,14.7695664 108.993584,14.7428252 109.003249,14.7192168 C109.011376,14.693035 109.019504,14.6671888 109.027741,14.6439161 C108.296262,14.7320839 107.491196,14.7778462 106.630774,14.7778462 L104.289931,14.7778462 C104.156046,14.7778462 104.047422,14.6671888 104.047422,14.5324755 L104.047422,9.67384615 C104.047422,9.53823776 104.156046,9.42802797 104.289931,9.42802797 C105.8502,9.42802797 107.48812,9.53286713 109.160089,9.73795804 C109.104733,9.49795804 109.078593,9.26925874 109.078593,9.05633566 C109.078593,8.80055944 109.104733,8.5580979 109.162505,8.32928671 L101.233754,8.32928671 Z M115.978221,23.2087273 L111.166604,23.2087273 L111.166604,8.32928671 L117.355401,8.32805594 C121.528128,8.61751049 123.668198,10.9068531 123.895111,15.3134545 C123.614271,20.2657343 120.950193,22.9221818 115.978221,23.2087273 Z M120.649035,15.3271049 C120.649035,11.2374825 118.845378,9.16184615 115.292213,9.16184615 L114.218608,9.16184615 C114.087359,9.16184615 113.977966,9.27328671 113.977966,9.4088951 L113.977966,22.130014 C113.977966,22.2642797 114.087359,22.3758322 114.218608,22.3758322 L115.167444,22.3758322 C116.98395,22.3758322 118.369477,21.7714126 119.287231,20.5824895 C120.189389,19.4088951 120.649035,17.6411748 120.649035,15.3271049 Z M91.2547741,8.32928671 L91.2547741,23.2086154 L99.1560673,23.2086154 C99.1185049,22.9382937 99.0970877,22.6891189 99.0970877,22.4817902 C99.0970877,22.246042 99.1144411,22.0246154 99.1485988,21.8233287 C98.6032843,21.9081399 98.0027245,21.9760559 97.3606484,22.0209231 C96.6083012,22.0812308 95.6093818,22.1100979 94.307876,22.1100979 C94.1757484,22.1100979 94.0663561,21.998993 94.0663561,21.864951 L94.0663561,16.121958 C94.0663561,15.9871329 94.1757484,15.8761399 94.307876,15.8761399 L96.6499274,15.8761399 C97.530558,15.9301818 98.329364,15.9814266 99.0626005,16.0324476 C99.0499699,15.9713566 99.0347033,15.9027692 99.0173499,15.8278042 L99.0095518,14.7977622 C99.0095518,14.7695664 99.0143844,14.7428252 99.0229513,14.7192168 C99.0306395,14.693035 99.0384376,14.6671888 99.0445881,14.6439161 C98.3161842,14.7320839 97.511667,14.7778462 96.6499274,14.7778462 L94.307876,14.7778462 C94.1757484,14.7778462 94.0663561,14.6671888 94.0663561,14.5324755 L94.0663561,9.67384615 C94.0663561,9.53823776 94.1757484,9.42802797 94.307876,9.42802797 C95.8681453,9.42802797 97.5065049,9.53286713 99.178473,9.73795804 C99.1246554,9.49795804 99.0971975,9.26925874 99.0971975,9.05633566 C99.0971975,8.80055944 99.1259734,8.5580979 99.179791,8.32928671 L91.2547741,8.32928671 Z" id="Shape" fill="#002D73" fill-rule="nonzero"></path>
                            <g id="Group">
                                <g id="Path">
                                    <path d="M24.0055872,15.5391329 L16.8035926,8.20352448 L13.7363224,12.1700699 L17.043465,15.539021 C17.3485775,15.8501818 17.3485775,16.3583776 17.043465,16.6693147 L16.0869407,17.6434126 C16.0869407,17.6434126 16.7319823,18.627021 16.7616368,18.6862098 C16.910349,18.9903217 16.9463738,19.7043916 16.523961,20.0300979 L9.00191674,25.9131748 C9.00015943,27.8874406 8.99752347,31.9466294 9.00059876,31.9484196 C9.00191674,31.9488671 24.0058069,16.6692028 24.0058069,16.6692028 C24.3106997,16.358042 24.3106997,15.8502937 24.0055872,15.5391329 Z" fill="#3E8EDE"></path>
                                    <path d="M7.27821789,16.4622098 C6.97420372,16.1527273 6.97420372,15.644979 7.27821789,15.3337063 L8.23606023,14.3579301 L7.58124358,13.3993846 C7.26899203,12.9489231 7.36729141,12.3084755 7.79783171,11.9731469 L15.3213038,6.08962238 L15.3264659,0.0581818182 L15.3221825,0.0557202797 L15.3183384,0.0503496503 L0.316864482,15.3337063 C0.0115323295,15.644979 0.0115323295,16.1527273 0.317523472,16.4636643 L7.51798051,23.7993846 L10.5861293,19.8328392 L7.27821789,16.4622098 Z" fill="#002D73"></path>
                                </g>
                                <path d="M19.1129141,3.62327273 C19.2547068,3.62327273 19.3926554,3.71132867 19.4561382,3.84212587 C19.5705828,4.08257343 19.4053959,4.29695105 19.3144553,4.41499301 L12.7222462,12.938965 C12.6553587,13.0248951 12.6497573,13.209958 12.7112631,13.2987972 C12.7468485,13.3513846 16.2702498,18.5584336 16.3913942,18.7353287 C16.5645988,18.9894266 16.5482338,19.6437483 16.2030328,19.9102657 L5.60383348,28.1996084 C5.45501151,28.3158601 5.34463065,28.3790769 5.19020726,28.3805315 C5.05720106,28.3714685 4.92386537,28.2821818 4.86598406,28.1635804 C4.74989194,27.9233566 4.92386537,27.6951049 5.00733747,27.5856783 L11.5977892,19.0653986 C11.6653357,18.9732028 11.6720354,18.7974266 11.6111887,18.7035524 L7.93237555,13.3141259 C7.66570416,12.9277762 7.74851727,12.3797483 8.11700266,12.0926434 L18.7181789,3.80218182 C18.8775447,3.67507692 18.9919894,3.62327273 19.1129141,3.62327273 Z M19.1129141,3.5953007 C18.985729,3.5953007 18.8662321,3.64867133 18.7012648,3.77991608 L8.10019841,12.0702657 C7.71941187,12.366993 7.63429229,12.9309091 7.90986005,13.3301259 L11.5885633,18.7194406 C11.6427104,18.8031329 11.6359008,18.9664895 11.575713,19.0486154 L4.98570062,27.5684476 C4.89871391,27.6825734 4.71793091,27.9206713 4.84138175,28.176 C4.90343667,28.3034406 5.04566873,28.3987692 5.18834012,28.4085035 C5.35352702,28.407049 5.47170593,28.338014 5.62041807,28.2218741 L16.2197272,19.9325315 C16.5862356,19.6496783 16.5875536,18.9743217 16.4140195,18.7194406 C16.2915571,18.5404196 12.7338884,13.2829091 12.7338884,13.2829091 C12.679302,13.204028 12.6844641,13.0325035 12.7437733,12.9563077 L19.3359823,4.43222378 C19.42231,4.32011189 19.603752,4.08816783 19.4808503,3.82981818 C19.4127547,3.68984615 19.2659097,3.5953007 19.1129141,3.5953007 Z" id="Shape" fill="#3E8EDE" fill-rule="nonzero"></path>
                                <path d="M16.0335624,18.8186853 C16.1190115,18.9504895 16.1960035,19.4495105 15.9810629,19.6144336 L5.38032595,27.9048951 C5.29103277,27.9744895 5.23392028,28.0081678 5.20843933,28.006042 C5.17186537,28.0081678 5.19833481,27.942042 5.2956457,27.8141538 L11.8851089,19.2962238 C12.0518335,19.0764755 12.0630363,18.7163077 11.9100407,18.4920839 L8.23166696,13.0993007 C8.23166696,13.0994126 15.9484429,18.6863217 16.0335624,18.8186853 Z" id="Path" fill="#FFCE00"></path>
                                <path d="M16.0335624,18.8186853 L12.411093,13.5104895 C12.2573286,13.2854825 12.2696298,12.9244196 12.4342675,12.7102657 L19.0248291,4.18707692 C19.1227989,4.06008392 19.1481701,3.99664336 19.1129141,3.99664336 C19.0867741,3.99664336 19.0286732,4.02774825 18.9410275,4.09868531 L8.33996103,12.3881399 C8.12721701,12.5548531 8.07691408,12.8757483 8.23166696,13.0994126 L16.0335624,18.8186853 Z" id="Path" fill="#FFDE6E"></path>
                            </g>
                        </g>
                    </g>
                </g>
            </g>
        </g>
    </g>
</svg>