<svg width="64" height="64" viewBox="0 0 64 64" fill="none" xmlns="http://www.w3.org/2000/svg">
<path d="M50.5967 43.3829H60.3429C60.3429 35.8659 57.3568 28.6568 52.0415 23.3415C46.7262 18.0262 39.5171 15.04 32.0001 15.04C24.4831 15.04 17.274 18.0262 11.9587 23.3415C6.64334 28.6568 3.65723 35.8659 3.65723 43.3829H13.4035" stroke="#007AFF" stroke-width="2" stroke-linecap="round" stroke-linejoin="round"/>
<path d="M3.68457 48.9326H13.4034" stroke="#00BFA5" stroke-width="2" stroke-linecap="round" stroke-linejoin="round"/>
<path d="M50.5967 48.9326H60.3155" stroke="#00BFA5" stroke-width="2" stroke-linecap="round" stroke-linejoin="round"/>
<path d="M33.9475 44.6446L42.1761 32.9783L29.9795 40.384C29.8551 40.468 29.736 40.5596 29.6229 40.6583C29.0495 41.1929 28.7119 41.9335 28.6844 42.7171C28.657 43.5007 28.942 44.2631 29.4766 44.8366C30.0113 45.41 30.7519 45.7476 31.5355 45.7751C32.3191 45.8025 33.0815 45.5175 33.6549 44.9828C33.7649 44.8815 33.863 44.768 33.9475 44.6446V44.6446Z" stroke="#007AFF" stroke-width="2" stroke-linecap="round" stroke-linejoin="round"/>
<path d="M32 24.32V18.4229" stroke="#00BFA5" stroke-width="2" stroke-linecap="round" stroke-linejoin="round"/>
<path d="M45.2297 29.7601L49.3714 25.6184" stroke="#00BFA5" stroke-width="2" stroke-linecap="round" stroke-linejoin="round"/>
<path d="M18.7704 29.7601L14.6287 25.6184" stroke="#00BFA5" stroke-width="2" stroke-linecap="round" stroke-linejoin="round"/>
<path d="M14.336 36.672L10.7886 35.4011" stroke="#00BFA5" stroke-width="2" stroke-linecap="round" stroke-linejoin="round"/>
<path d="M15.9635 33.3075L12.7178 31.3418" stroke="#00BFA5" stroke-width="2" stroke-linecap="round" stroke-linejoin="round"/>
<path d="M13.4127 40.2743L9.70068 39.7349" stroke="#00BFA5" stroke-width="2" stroke-linecap="round" stroke-linejoin="round"/>
<path d="M21.5133 27.511L19.3647 24.3384" stroke="#00BFA5" stroke-width="2" stroke-linecap="round" stroke-linejoin="round"/>
<path d="M24.9144 25.7006L23.4607 22.144" stroke="#00BFA5" stroke-width="2" stroke-linecap="round" stroke-linejoin="round"/>
<path d="M28.5532 24.7406L27.8218 20.8457" stroke="#00BFA5" stroke-width="2" stroke-linecap="round" stroke-linejoin="round"/>
<path d="M49.6824 36.7361L53.2389 35.4744" stroke="#00BFA5" stroke-width="2" stroke-linecap="round" stroke-linejoin="round"/>
<path d="M48.0366 33.3075L51.2823 31.3418" stroke="#00BFA5" stroke-width="2" stroke-linecap="round" stroke-linejoin="round"/>
<path d="M50.5874 40.2743L54.2994 39.7349" stroke="#00BFA5" stroke-width="2" stroke-linecap="round" stroke-linejoin="round"/>
<path d="M42.4871 27.511L44.6356 24.3384" stroke="#00BFA5" stroke-width="2" stroke-linecap="round" stroke-linejoin="round"/>
<path d="M39.1223 25.7189L40.5943 22.1624" stroke="#00BFA5" stroke-width="2" stroke-linecap="round" stroke-linejoin="round"/>
<path d="M35.4653 24.64L36.1785 20.8457" stroke="#00BFA5" stroke-width="2" stroke-linecap="round" stroke-linejoin="round"/>
</svg>
