<svg width="64" height="64" viewBox="0 0 64 64" fill="none" xmlns="http://www.w3.org/2000/svg">
<path d="M58.96 25.4299H5.03C2.82086 25.4299 1.03 27.2208 1.03 29.4299V42.4099C1.03 44.6191 2.82086 46.4099 5.03 46.4099H58.96C61.1691 46.4099 62.96 44.6191 62.96 42.4099V29.4299C62.96 27.2208 61.1691 25.4299 58.96 25.4299Z" stroke="#007AFF" stroke-width="2" stroke-linejoin="round"/>
<path d="M11.02 35.9199H39.99" stroke="#00BFA5" stroke-width="2" stroke-linecap="round" stroke-linejoin="round"/>
<path d="M51.48 38.5199C52.9159 38.5199 54.08 37.3559 54.08 35.9199C54.08 34.484 52.9159 33.3199 51.48 33.3199C50.0441 33.3199 48.88 34.484 48.88 35.9199C48.88 37.3559 50.0441 38.5199 51.48 38.5199Z" stroke="#00BFA5" stroke-width="2" stroke-linecap="round" stroke-linejoin="round"/>
<path d="M46.05 13.46C47.8501 13.5827 49.5447 14.3536 50.82 15.63L61.82 26.63" stroke="#007AFF" stroke-width="2" stroke-linecap="round" stroke-linejoin="round"/>
<path d="M2.17999 26.63L13.18 15.63C14.4983 14.3144 16.2596 13.5371 18.12 13.45" stroke="#007AFF" stroke-width="2" stroke-linecap="round" stroke-linejoin="round"/>
<path d="M32 46.4099V52.8999" stroke="#007AFF" stroke-width="2" stroke-linejoin="round"/>
<path d="M48.33 59.3899H38.3" stroke="#007AFF" stroke-width="2" stroke-linecap="round" stroke-linejoin="round"/>
<path d="M25.45 59.3899H15.43" stroke="#007AFF" stroke-width="2" stroke-linecap="round" stroke-linejoin="round"/>
<path d="M35.54 56.4099H35.3V55.4099C35.2974 54.7539 35.0349 54.1257 34.5701 53.6628C34.1053 53.1999 33.476 52.9399 32.82 52.9399H31.18C30.524 52.9399 29.8947 53.1999 29.4299 53.6628C28.9651 54.1257 28.7026 54.7539 28.7 55.4099V56.4099H28.46C27.7288 56.4126 27.0283 56.7042 26.5113 57.2212C25.9943 57.7383 25.7026 58.4388 25.7 59.1699V60.2299C25.7 60.9629 25.9905 61.6659 26.5078 62.1851C27.0251 62.7043 27.7271 62.9973 28.46 62.9999H35.54C36.2729 62.9973 36.9749 62.7043 37.4922 62.1851C38.0095 61.6659 38.3 60.9629 38.3 60.2299V59.1699C38.2974 58.4388 38.0057 57.7383 37.4887 57.2212C36.9717 56.7042 36.2712 56.4126 35.54 56.4099V56.4099Z" stroke="#00BFA5" stroke-width="2" stroke-linecap="round" stroke-linejoin="round"/>
<path d="M32 12.4999C33.3697 12.4999 34.48 11.3672 34.48 9.96994C34.48 8.57266 33.3697 7.43994 32 7.43994C30.6303 7.43994 29.52 8.57266 29.52 9.96994C29.52 11.3672 30.6303 12.4999 32 12.4999Z" stroke="#007AFF" stroke-width="2" stroke-linejoin="round"/>
<path d="M25.82 19.78C25.7794 19.4817 25.7594 19.181 25.76 18.88C25.76 17.2251 26.4174 15.6379 27.5876 14.4677C28.7579 13.2974 30.345 12.64 32 12.64C33.6549 12.64 35.2421 13.2974 36.4123 14.4677C37.5826 15.6379 38.24 17.2251 38.24 18.88C38.2406 19.181 38.2206 19.4817 38.18 19.78" stroke="#007AFF" stroke-width="2" stroke-linejoin="round"/>
<path d="M32 21.96C37.6609 21.96 42.25 17.2679 42.25 11.48C42.25 5.69206 37.6609 1 32 1C26.3391 1 21.75 5.69206 21.75 11.48C21.75 17.2679 26.3391 21.96 32 21.96Z" stroke="#007AFF" stroke-width="2" stroke-linejoin="round"/>
</svg>
