<svg width="65" height="64" viewBox="0 0 65 64" fill="none" xmlns="http://www.w3.org/2000/svg">
<g clip-path="url(#clip0)">
<path d="M8.4626 50.32C9.59478 50.32 10.5126 49.4022 10.5126 48.27C10.5126 47.1378 9.59478 46.22 8.4626 46.22C7.33041 46.22 6.4126 47.1378 6.4126 48.27C6.4126 49.4022 7.33041 50.32 8.4626 50.32Z" stroke="#007AFF" stroke-width="2" stroke-linejoin="round"/>
<path d="M63.3926 31.38C63.3899 30.2766 62.9511 29.2189 62.1718 28.4378C61.3925 27.6566 60.336 27.2152 59.2326 27.21L36.3926 27.27H30.3926L33.0426 18.59L34.3926 7.83997C34.3942 6.71914 33.9601 5.64154 33.1821 4.83477C32.404 4.028 31.3428 3.55522 30.2227 3.51628C29.1025 3.47734 28.011 3.87529 27.1788 4.62608C26.3466 5.37687 25.8388 6.42173 25.7626 7.53997L24.0926 15.91L19.8426 23.35L16.0326 28.05C16.0474 28.1695 16.0474 28.2904 16.0326 28.41V48.1H16.1326V53.48C16.1399 53.8693 16.0527 54.2547 15.8786 54.603C15.7044 54.9513 15.4484 55.2522 15.1326 55.48L26.7126 60.48H43.4526H52.0226C53.0827 60.5066 54.1153 60.1404 54.922 59.4519C55.7286 58.7634 56.2523 57.8012 56.3926 56.75C56.4509 56.1748 56.3889 55.5938 56.2107 55.0438C56.0324 54.4939 55.7417 53.987 55.3571 53.5554C54.9725 53.1237 54.5024 52.7768 53.9765 52.5366C53.4507 52.2964 52.8806 52.1681 52.3026 52.16H54.3026C55.4059 52.1719 56.4687 51.7451 57.2573 50.9734C58.0459 50.2016 58.4956 49.1483 58.5076 48.045C58.5195 46.9417 58.0927 45.8788 57.321 45.0902C56.5492 44.3016 55.4959 43.8519 54.3926 43.84H57.0926C58.1384 43.852 59.1525 43.4816 59.9444 42.7984C60.7362 42.1152 61.2512 41.1662 61.3926 40.13C61.4534 39.5611 61.3962 38.9858 61.2246 38.44C61.053 37.8943 60.7707 37.3897 60.3953 36.958C60.0199 36.5263 59.5595 36.1767 59.0428 35.931C58.5262 35.6852 57.9644 35.5487 57.3926 35.53H59.2426C60.3416 35.5247 61.3941 35.0858 62.1712 34.3087C62.9484 33.5315 63.3873 32.479 63.3926 31.38V31.38Z" stroke="#007AFF" stroke-width="2" stroke-linejoin="round"/>
<path d="M16.1126 28.13C16.0152 27.5659 15.7203 27.0549 15.2805 26.6885C14.8408 26.322 14.285 26.124 13.7126 26.13H3.81258C3.17579 26.1351 2.56624 26.389 2.11408 26.8375C1.66193 27.2859 1.403 27.8933 1.39258 28.53V53.48C1.39783 54.1246 1.65691 54.7411 2.11365 55.196C2.57038 55.6509 3.18798 55.9074 3.83258 55.91H13.7326C14.2543 55.9059 14.7615 55.738 15.1826 55.43C15.4984 55.2022 15.7544 54.9013 15.9286 54.553C16.1027 54.2047 16.1899 53.8194 16.1826 53.43V28.53C16.1743 28.3945 16.1508 28.2603 16.1126 28.13V28.13Z" stroke="#00BFA5" stroke-width="2" stroke-linecap="round" stroke-linejoin="round"/>
</g>
<defs>
<clipPath id="clip0">
<rect width="64" height="64" fill="white" transform="translate(0.392578)"/>
</clipPath>
</defs>
</svg>
