<svg width="64" height="64" viewBox="0 0 64 64" fill="none" xmlns="http://www.w3.org/2000/svg">
<path d="M32.4287 34.1855L27.743 47.857H27.7287L24.1001 58.2998C24.3572 58.3713 24.6001 58.4284 24.8572 58.4998H24.9001C27.2069 59.115 29.5841 59.4271 31.9715 59.4284C33.1622 59.4373 34.3517 59.3513 35.5287 59.1713C37.1037 58.9738 38.6577 58.6343 40.1715 58.157C40.543 58.0427 40.9144 57.9141 41.2858 57.7855C40.8858 56.9284 40.0287 55.0284 39.9858 54.9427L32.4287 34.1855Z" fill="#0079FF"/>
<path d="M6.97153 21.2144C5.54296 24.4429 4.57153 28.4144 4.57153 32.0001C4.57153 32.9001 4.61439 33.8001 4.7001 34.6858C5.68582 44.8572 12.2572 53.4001 21.2858 57.2429C21.6572 57.4001 22.043 57.5572 22.4287 57.7001L9.14296 21.2286C8.0001 21.1858 7.78582 21.2572 6.97153 21.2144Z" fill="#0079FF"/>
<path d="M56.8857 20.4858C56.271 19.1627 55.5496 17.8918 54.7285 16.6858C54.5 16.343 54.2428 16.0001 54 15.6573C50.9045 11.5026 46.701 8.30424 41.8714 6.42871C38.7214 5.19655 35.3681 4.5666 31.9857 4.57156C27.8882 4.57165 23.8431 5.49212 20.149 7.26498C16.4549 9.03784 13.2062 11.6178 10.6428 14.8144C9.71421 15.9655 8.87826 17.1884 8.14282 18.4716C10.1714 18.4858 12.6857 18.4858 12.9714 18.4858C15.5571 18.4858 19.5428 18.1716 19.5428 18.1716C20.8857 18.0858 21.0285 20.043 19.7 20.2001C19.7 20.2001 18.3571 20.3573 16.8714 20.4287L25.8571 47.143L31.2571 30.9573L27.4285 20.443C26.0857 20.3716 24.8428 20.2144 24.8428 20.2144C23.5 20.143 23.6714 18.1001 24.9857 18.1858C24.9857 18.1858 29.0571 18.5001 31.4857 18.5001C34.0714 18.5001 38.0571 18.1858 38.0571 18.1858C39.3857 18.1001 39.5571 20.0573 38.2143 20.2144C38.2143 20.2144 36.8857 20.3716 35.4 20.443L44.3 46.9573L46.7714 38.7287C48.0143 35.5287 48.6428 32.8858 48.6428 30.7716C48.6428 27.7287 47.5428 25.6144 46.6 23.9716C45.3571 21.9287 44.1857 20.2144 44.1857 18.2001C44.1857 15.9287 45.9 13.8144 48.3285 13.8144H48.6428C52.3857 13.7144 53.6143 17.4287 53.7714 19.9573V20.043C53.8285 21.0716 53.7857 21.8287 53.7857 22.7287C53.7857 25.2144 53.3143 28.0287 51.9143 31.5573L46.3428 47.6716L43.1571 57.0573C43.4143 56.943 43.6571 56.8287 43.9143 56.7001C52.0143 52.7859 57.9143 44.9859 59.1571 35.743C59.3414 34.5135 59.4321 33.2719 59.4285 32.0287C59.434 28.0416 58.566 24.1016 56.8857 20.4858Z" fill="#0079FF"/>
<path d="M32 2.28571C38.8555 2.28925 45.499 4.66246 50.805 9.0033C56.1111 13.3442 59.7535 19.3857 61.1153 26.1046C62.477 32.8235 61.4743 39.8065 58.277 45.8707C55.0798 51.935 49.8846 56.7076 43.5714 59.38C36.3098 62.4489 28.1265 62.5075 20.8217 59.5428C13.5168 56.5781 7.68893 50.8331 4.62 43.5714C1.55107 36.3098 1.4925 28.1265 4.45718 20.8217C7.42186 13.5168 13.1669 7.68893 20.4286 4.62C24.0893 3.071 28.0251 2.27704 32 2.28571ZM32 0C14.3271 0 0 14.3271 0 32C0 49.6729 14.3271 64 32 64C49.6729 64 64 49.6729 64 32C64 14.3271 49.6729 0 32 0Z" fill="#00BFA5"/>
</svg>
