<svg id="e446fb92-f0b6-42fc-849a-93d55bfdb745" data-name="Layer 1" xmlns="http://www.w3.org/2000/svg" xmlns:xlink="http://www.w3.org/1999/xlink" width="1089" height="66" viewBox="0 0 1089 66">
  <defs>
    <style>
      .a96b7ea9-dcdf-4b82-93a3-0104f744b097 {
        fill: #f15a23;
      }

      .a96b7ea9-dcdf-4b82-93a3-0104f744b097, .b1252ed9-f279-4ae6-a266-92333e1e7c32 {
        fill-rule: evenodd;
      }

      .b1252ed9-f279-4ae6-a266-92333e1e7c32 {
        fill: #005e6a;
      }

      .a9e33b28-f040-4667-b7d2-2168154648f9 {
        fill: #003d79;
      }

      .a7babcf6-b5d8-4d74-9531-f5b366b45cfc {
        fill: url(#abc6acf4-6980-433a-a1d7-9d8e0aeae545);
      }

      .a246fa2a-dc6d-4622-ad18-72a26e0326de {
        fill: #00529c;
      }

      .ebd686ac-0718-4c73-843e-42601f0ad9f1 {
        fill: #245ca5;
      }
    </style>
    <linearGradient id="abc6acf4-6980-433a-a1d7-9d8e0aeae545" x1="1824.93" y1="-194.42" x2="1825.96" y2="-194.42" gradientTransform="matrix(144.92, -66.34, -66.34, -144.92, -277011.28, 92936.42)" gradientUnits="userSpaceOnUse">
      <stop offset="0" stop-color="#fdb913"/>
      <stop offset="0.22" stop-color="#ffcb05"/>
      <stop offset="0.39" stop-color="#faa61a"/>
      <stop offset="0.53" stop-color="#ffcb05"/>
      <stop offset="0.65" stop-color="#faa61a"/>
      <stop offset="0.76" stop-color="#ffcb05"/>
      <stop offset="1" stop-color="#ffcb05"/>
    </linearGradient>
  </defs>
  <title>trnaksfer bank</title>
  <g id="eaacc847-e9d2-4d53-8feb-193bbe512f5e" data-name="layer3">
    <path id="b90ff77b-e79d-4c7a-ac54-44bbe1258889" data-name="path3242" class="a96b7ea9-dcdf-4b82-93a3-0104f744b097" d="M863.14,23,882.2,47,863.14,62.77V23Z"/>
    <path id="ffcb6b10-3b5e-48c0-aa68-58c09f03b951" data-name="path3244" class="a96b7ea9-dcdf-4b82-93a3-0104f744b097" d="M870.81,62.77l14.34-12,9.91,12Z"/>
    <path id="b068bb1c-bce2-4685-ac0d-d1f20dc301e6" data-name="path3248" class="a96b7ea9-dcdf-4b82-93a3-0104f744b097" d="M863.14,10.1l5,6.29,20.45,25.54,6.62-5.28A81.94,81.94,0,0,1,886,23C878.77,8.84,883.88.05,883.88.05H863.14Z"/>
    <path id="e847bf58-ad50-4106-a105-f51f6e2bd23b" data-name="path3250" class="a96b7ea9-dcdf-4b82-93a3-0104f744b097" d="M891.47,45.87l6.75-5.57s6.44,8.48,13.92,10.48C921.93,53.4,926.26,47,926.26,47V62.77h-21.5l4.85-4.19s-2.53,1.68-8.72-2.6C897.23,53.45,891.47,45.87,891.47,45.87Z"/>
    <path id="bccd0000-de7d-4f6a-8852-99c31b19abcc" data-name="path3262" class="a96b7ea9-dcdf-4b82-93a3-0104f744b097" d="M892.09,0s-2.15,2.93-.62,10.1c1.64,7.67,8.15,15.78,8.14,15.6,0,0,.42-8.06,5.15-12.78a18.68,18.68,0,0,1,21.5-4.08V.05Z"/>
    <path id="a35d8442-e124-492f-9a9d-c34b933b26ca" data-name="path3298" class="a96b7ea9-dcdf-4b82-93a3-0104f744b097" d="M926.26,19.46S919.89,14,914.34,14a11,11,0,0,0-11,10.56c0,6.46,3.1,10.06,6.22,13.17,4.47,4.48,9.92,9.3,16.65,5.42Z"/>
    <path id="ebb68ed4-c394-46a0-8480-0355b0f29106" data-name="path3249" class="b1252ed9-f279-4ae6-a266-92333e1e7c32" d="M998.86.66h15s13.33,20.17,19.88,28.5S1047.38,47,1047.38,47V5.17c0-1.8-4.74-4.51-4.74-4.51H1060s-5.69,2.34-5.69,4.51V66s-5.46-3-11.65-10.22c-7-8.08-31.72-40.72-31.72-40.72V57.33c0,2.16,4.75,5.44,4.75,5.44H998.86s4.61-3.3,4.61-5.44V5.17C1003.47,3.26,998.86.66,998.86.66Z"/>
    <path id="bbb0fe63-203f-471b-a8ab-4dcaf89f76c6" data-name="path3267" class="b1252ed9-f279-4ae6-a266-92333e1e7c32" d="M1069.7.66H1089s-5.18,2.45-5.18,4.51V57.33c0,2.25,5.18,5.44,5.18,5.44h-19.3s4.82-3.26,4.82-5.44V5.17C1074.52,3.19,1069.7.66,1069.7.66Z"/>
    <path id="aa2fe5f5-4ed7-4b50-a5f8-7fa7640f53fc" data-name="path3283" class="b1252ed9-f279-4ae6-a266-92333e1e7c32" d="M942.06.66s5,2.49,5,4.51V57.33c0,2.22-5,5.44-5,5.44h28.6c1.79,0,21.81-3.27,21.81-18.7s-15.55-16.88-15.55-16.88A13.57,13.57,0,0,0,986.39,14C986.39,2.62,972.45.66,970.66.66Zm15.19,25.51V6.75h11.62c1.79,0,8,2.09,8,9.83,0,6.38-6.26,9.59-8,9.59Zm0,5.09h13.41C972.45,31.26,983,34,983,43.15c0,9.32-10.55,12.63-12.34,12.63H957.25Z"/>
  </g>
  <g id="fb4577dd-67a0-46eb-8981-884f7281e648" data-name="layer1">
    <g id="a51ab98e-5d92-410e-9635-87aff91756aa" data-name="g20360">
      <g id="f8152b31-2aca-4c87-aa7f-0a44c0dd7303" data-name="g19736">
        <path id="aa7a5844-cf35-4e1c-b749-5dc1bcbe1abf" data-name="path19738" class="a9e33b28-f040-4667-b7d2-2168154648f9" d="M262.75,45c0-3.27,0-6-.2-8.48l6.2,0,.28,4.21h.17A9.86,9.86,0,0,1,278,35.88a8.23,8.23,0,0,1,7.88,5.3H286a10.66,10.66,0,0,1,3.52-3.55,9.54,9.54,0,0,1,5.74-1.69c4.74,0,9.52,3.26,9.49,12.39l-.06,16.78-7,0,.06-15.73c0-4.73-1.61-7.55-5.07-7.56a5.48,5.48,0,0,0-5,3.78,10,10,0,0,0-.36,2.39L287.19,65l-7,0,.06-16.5c0-4-1.56-6.78-4.89-6.8a5.65,5.65,0,0,0-5.17,4.08,6.2,6.2,0,0,0-.41,2.34L269.7,65l-7,0Z"/>
      </g>
      <g id="f7ea4f06-dcc7-4950-900a-54c9067e81d4" data-name="g19740">
        <path id="a191f179-e607-48ea-b01d-c495aa82a962" data-name="path19742" class="a9e33b28-f040-4667-b7d2-2168154648f9" d="M332.05,58.36a46.39,46.39,0,0,0,.38,6.84l-6.49,0L325.48,62h-.17a10.6,10.6,0,0,1-8.44,3.77c-5.73,0-8.93-4.18-8.92-8.51,0-7.2,6.41-10.79,16.95-10.7v-.47c0-1.87-.75-5-5.78-5a15.08,15.08,0,0,0-7.67,2.08l-1.39-4.69A20.57,20.57,0,0,1,320.37,36c9.12,0,11.74,5.84,11.72,12Zm-7-7.1c-5.09-.13-9.94,1-10,5.29a3.78,3.78,0,0,0,4.08,4.11,5.84,5.84,0,0,0,5.63-3.91,5.26,5.26,0,0,0,.24-1.57Z"/>
      </g>
      <g id="fed37f1f-95c4-4f90-9e4f-dcb68ab79a6e" data-name="g19744">
        <path id="b793aea1-98ce-4229-be50-30646bf33ae0" data-name="path19746" class="a9e33b28-f040-4667-b7d2-2168154648f9" d="M337.07,45.22c0-3.28,0-6-.2-8.48l6.31,0,.33,4.28h.18a10.27,10.27,0,0,1,9.08-4.89c5,0,10.11,3.25,10.08,12.26l-.06,16.9-7.19,0,0-16.08c0-4.1-1.49-7.21-5.41-7.22a6,6,0,0,0-5.63,4.19,7.14,7.14,0,0,0-.3,2.34l-.06,16.73-7.25,0Z"/>
      </g>
      <g id="fdcb140c-f191-4b88-b3c4-a99badbf1d1d" data-name="g19748">
        <path id="e4154f49-15b5-457c-9736-3f2ef501ccc0" data-name="path19750" class="a9e33b28-f040-4667-b7d2-2168154648f9" d="M394.12,25.5,394,57.41c0,2.92.1,6.08.21,8l-6.43,0-.28-4.5h-.12A10.27,10.27,0,0,1,378.07,66c-6.78,0-12.14-5.83-12.11-14.6,0-9.54,6-15.19,12.8-15.17,3.92,0,6.72,1.66,8,3.78h.12l.05-14.55Zm-7.27,23.29a10,10,0,0,0-.17-1.88,6.29,6.29,0,0,0-6.18-5.1c-4.62,0-7.21,4.07-7.23,9.39s2.54,9,7.11,9a6.34,6.34,0,0,0,6.21-5.07,7.81,7.81,0,0,0,.24-2.1Z"/>
      </g>
      <path id="b9efa07f-ba06-4c26-9db6-a630b33e2faf" data-name="path19752" class="a9e33b28-f040-4667-b7d2-2168154648f9" d="M399.17,37l7.26,0-.1,28.48-7.26,0Z"/>
      <g id="e46fd7a7-5ff3-4059-bf07-bc5287582709" data-name="g19754">
        <path id="e0f81262-bf81-4b59-8392-cebb66611587" data-name="path19756" class="a9e33b28-f040-4667-b7d2-2168154648f9" d="M411.48,46.19c0-3.86,0-6.62-.2-9.19l6.26,0,.21,5.44H418a7.84,7.84,0,0,1,7.8-5.41,8.6,8.6,0,0,1,1.69,0l0,6.32a9.65,9.65,0,0,0-2.1-.24,6.35,6.35,0,0,0-6.46,5.41,14,14,0,0,0-.24,2.22l-.05,14.74-7.2,0Z"/>
      </g>
      <path id="fffe6540-e75f-49d5-92c5-1787a9f273b5" data-name="path19758" class="a9e33b28-f040-4667-b7d2-2168154648f9" d="M430.82,37.07l7.25,0L438,65.58l-7.25,0Z"/>
      <g id="b04ad9ee-0e3f-490c-b513-907c79546db0" data-name="g19760">
        <g id="aaea2a82-5a36-440b-8b4b-a70235d6c203" data-name="g19762">
          <g id="f2d81720-bc68-4d61-98b5-e89e5430f1f6" data-name="g19768">
            <g id="bee8b575-73ff-4199-a0b3-4857dca7cbbb" data-name="g19770">
              <path id="f046001e-0436-4500-89b3-e5dcfb122af1" data-name="path19788" class="a7babcf6-b5d8-4d74-9531-f5b366b45cfc" d="M429.46,2.59c-4.37,2.51-18.63,10.59-18.63,10.59h0c-5.35,2.18-9.43-.51-10.75-2.48h0a2.5,2.5,0,0,1-.16-.24h0l-.17-.3-.9-1.48c-.38-.61-.81-1.23-1.3-1.88h0a18.32,18.32,0,0,0-1.45-1.66h0c-3.42-3.48-8.9-5.93-18.05-1.62h0L359.62,14h0l-9.44,5.34h0l4.85,6c2,2,5.89,5.17,11.85,2.5h0l16.55-9.5h0c14.09-7.66,21-.26,24.05,4.66h0c.11.15.2.32.29.47h0l.09.17h0l.35.57a7.68,7.68,0,0,0,6.64,3.68h0A8.12,8.12,0,0,0,419,26.5h0L435,17.33h0c14.27-7.76,21.29.12,24.29,5h0a11.33,11.33,0,0,0,.77,1.21h0a7.31,7.31,0,0,0,6.15,3.31h0a9.26,9.26,0,0,0,3.95-1.25h0l19.13-10.94a81.81,81.81,0,0,0-5.94-7.55h0c-3.58-4.11-7.4-2.27-10.44-.77h0c-1.28.62-10.51,5.81-10.51,5.81h0c-5.05,2.06-9-.22-10.51-2.14h0a3.79,3.79,0,0,1-.4-.58h0l-.35-.62a28.42,28.42,0,0,0-2-3h0a15.89,15.89,0,0,0-1.45-1.67h0A12.36,12.36,0,0,0,438.58.22h0a21.16,21.16,0,0,0-9.12,2.37"/>
            </g>
          </g>
        </g>
      </g>
    </g>
  </g>
  <g>
    <path class="a246fa2a-dc6d-4622-ad18-72a26e0326de" d="M634.59,32.66v-.09c3.67-1.23,5.79-3.53,5.79-7.68,0-5.64-4.56-8.33-10.68-8.33H614.59V49.41h13.84c5.88,0,12.8-1.64,12.8-9.5C641.23,35.91,639,33.56,634.59,32.66Zm-11.25-9.88h2.54c2.92,0,5.75.28,5.75,3.29,0,2.78-3,3.49-5.84,3.49h-2.45Zm2.59,20.42h-2.59V35.49H626c3,0,6.45.32,6.45,3.9C632.48,42.73,629.13,43.2,625.93,43.2Z"/>
    <path class="a246fa2a-dc6d-4622-ad18-72a26e0326de" d="M652.72,16.56,640.25,49.41h8.89l2.59-7h12.33l2.45,7h9.6L663.45,16.56Zm1,19.63L658,23.34h.09L662,36.19Z"/>
    <polygon class="a246fa2a-dc6d-4622-ad18-72a26e0326de" points="699.68 38.87 699.59 38.87 688.48 16.57 677.32 16.57 677.32 49.41 685.37 49.41 685.09 26.96 685.18 26.96 696.66 49.41 707.54 49.41 707.54 16.57 699.54 16.57 699.68 38.87"/>
    <polygon class="a246fa2a-dc6d-4622-ad18-72a26e0326de" points="739.78 16.57 729.24 16.57 719.36 29.98 719.26 29.98 719.26 16.57 710.51 16.57 710.51 49.41 719.26 49.41 719.26 34.49 719.36 34.49 729.57 49.41 740.72 49.41 727.64 31.86 739.78 16.57"/>
    <path class="a246fa2a-dc6d-4622-ad18-72a26e0326de" d="M771.58,32.66v-.09c3.67-1.23,5.79-3.53,5.79-7.68,0-5.64-4.57-8.33-10.69-8.33h-15.1V49.41h13.83c5.88,0,12.8-1.64,12.8-9.5C778.21,35.91,776,33.56,771.58,32.66Zm-11.25-9.88h2.54c2.92,0,5.74.28,5.74,3.29,0,2.78-3,3.49-5.83,3.49h-2.45Zm2.59,20.42h-2.59V35.49H763c3,0,6.45.32,6.45,3.9C769.46,42.73,766.12,43.2,762.92,43.2Z"/>
    <path class="a246fa2a-dc6d-4622-ad18-72a26e0326de" d="M800.06,33.22v-.09c4.24-1,6.3-3.91,6.3-8.28,0-5.65-4.75-8.29-10.58-8.29H780.15V49.41h8.75v-13h1.84c3.25,0,4.38,1.42,6.17,7.07l1.88,5.92h9.13l-3.2-8.94C803.07,36.47,802.88,34,800.06,33.22Zm-8.85-3H788.9V22.78h2.31c3.34,0,6.4.56,6.4,3.62C797.61,30.12,794,30.21,791.21,30.21Z"/>
    <rect class="a246fa2a-dc6d-4622-ad18-72a26e0326de" x="810.33" y="16.56" width="8.75" height="32.85"/>
    <path class="a246fa2a-dc6d-4622-ad18-72a26e0326de" d="M594.62,0H548.81a10.2,10.2,0,0,0-10.07,10.32V55.68A10.19,10.19,0,0,0,548.65,66h45.94a10.2,10.2,0,0,0,10.08-10.32l0-45.36A10.2,10.2,0,0,0,594.62,0ZM554.25,60.71l-2.5,0a5.51,5.51,0,0,1-5.47-5.55l0-.44V12.85l0-2.25a5.4,5.4,0,0,1,5.32-5.36h5.08A8.6,8.6,0,0,1,565,14a8.63,8.63,0,0,1-2.4,6l-13,13.16,12.15,12.37a8.71,8.71,0,0,1,2.51,6.06C564.32,56.61,559.81,60.71,554.25,60.71Zm37.36,0H569s2.62-5.66,2.62-9.16a16.15,16.15,0,0,0-3.66-10.62L560.16,33l7.91-8.17C570.42,22.6,572,18.68,572,14.2a15.81,15.81,0,0,0-2.55-9h5.49A8.61,8.61,0,0,1,583.26,14a8.63,8.63,0,0,1-2.4,6L568.14,33l26.41,26.93A5.51,5.51,0,0,1,591.61,60.67Zm5.53-8.41L578.21,33l9-9.16a15.59,15.59,0,0,0,3-9.61,16,16,0,0,0-2.58-9.06l4,.12a5.52,5.52,0,0,1,5.48,5.56Z"/>
  </g>
  <g>
    <g>
      <path class="ebd686ac-0718-4c73-843e-42601f0ad9f1" d="M120.22,21.17a11.39,11.39,0,0,0,0-4c-.73-4.08-3.87-7.4-9.79-7.5l-8.13-.16-14.09-.3L81.63,22.07l3-.23-7.94,35H99.35a14.69,14.69,0,0,0,3-.3c10.68-2.13,21.16-15,10.64-25.27A14.14,14.14,0,0,0,120.22,21.17ZM102.3,45a3.16,3.16,0,0,1-1.82.63H92.31L95,35.09h6.12a6.67,6.67,0,0,1,1.16.09C107.16,36.11,105.44,42.89,102.3,45Zm2-17h-7.7l2.28-9.36h6.78C109.27,18.65,108.81,28,104.31,28Z"/>
      <path class="ebd686ac-0718-4c73-843e-42601f0ad9f1" d="M201,57.3,196.92,10H175.14l-6.35,11.89h2.28L159.93,46l-5,10.83h15l3.18-8.7h11.83v9.2Zm-20.2-18.56h-4.1l4.1-8.24,4.1-8.23V38.74Z"/>
      <path class="ebd686ac-0718-4c73-843e-42601f0ad9f1" d="M134,34.16c.82-7.47,15.37-13.91,25.23-6.84l.66-1.6,5-11.88-5-2.79L154.7,8.13l-.89,2.72c-6.05.46-22-5-31.81,19.45a29,29,0,0,0-1.78,7,23,23,0,0,0,0,5.24c1.15,9.26,8.89,17.2,28.83,15l5.19-13.94C139.13,48.27,133.21,42,134,34.16Z"/>
    </g>
    <g>
      <path class="ebd686ac-0718-4c73-843e-42601f0ad9f1" d="M58.56,6,58.5,6l-.09,0A65.78,65.78,0,0,0,32.11,0a63.33,63.33,0,0,0-26,5.91L6,6,6,6.09C5.89,6.19,0,16.94,0,32.89a61.77,61.77,0,0,0,5.94,27L6,60l.12.06A65.84,65.84,0,0,0,32.43,66a63.27,63.27,0,0,0,26-5.91l.07,0,.05-.05c.27-.29,6.74-7.23,6.74-28.18C65.27,14.77,58.84,6.38,58.56,6Zm-.62,53.31a62.38,62.38,0,0,1-25.51,5.78A65.11,65.11,0,0,1,6.65,59.37,61.33,61.33,0,0,1,.88,32.89,59.56,59.56,0,0,1,6.66,6.63,62.49,62.49,0,0,1,32.11.88,65.08,65.08,0,0,1,57.93,6.65a28.2,28.2,0,0,1,3.18,6.16,52.41,52.41,0,0,1,3.28,19C64.39,51.45,58.52,58.68,57.94,59.34Z"/>
      <path class="ebd686ac-0718-4c73-843e-42601f0ad9f1" d="M32.64,5.94s-10.57-.19-10.57,9.62,9.74,9.13,9.74,21V50h1.65V36.6c0-11.91,9.74-11.23,9.74-21S32.64,5.94,32.64,5.94Z"/>
      <path class="ebd686ac-0718-4c73-843e-42601f0ad9f1" d="M17.85,38.2c5.26,1.38,12,4.5,12,11.79h.78V38.07c0-5.34-4.82-15.82-11.72-15.82s-8.69,6.12-8.69,8.69C10.27,34.41,12.44,36.77,17.85,38.2Z"/>
      <path class="ebd686ac-0718-4c73-843e-42601f0ad9f1" d="M20.88,46.53c4.55-1,6.67,1.37,7.07,3.46h.71c.39-4.16-3.51-9.25-10.41-10.36S11,36.2,11,36.2C7.63,42.36,10.43,48.84,20.88,46.53Z"/>
      <path class="ebd686ac-0718-4c73-843e-42601f0ad9f1" d="M47.07,38.2c5.41-1.43,7.58-3.79,7.58-7.26,0-2.57-1.79-8.69-8.69-8.69S34.24,32.73,34.24,38.07V50H35C35,42.7,41.81,39.58,47.07,38.2Z"/>
      <path class="ebd686ac-0718-4c73-843e-42601f0ad9f1" d="M46.68,39.63c-6.9,1.11-10.81,6.2-10.42,10.36H37c.39-2.09,2.51-4.47,7.06-3.46C54.49,48.84,57.29,42.36,54,36.2,54,36.2,53.58,38.52,46.68,39.63Z"/>
      <path class="ebd686ac-0718-4c73-843e-42601f0ad9f1" d="M17.37,57.18l.95.34-.34.95a.89.89,0,0,1-.39.06,1.92,1.92,0,0,1-.58-.12,1,1,0,0,1-.63-.63,1.48,1.48,0,0,1,0-1l.37-1a1.5,1.5,0,0,1,.6-.81,1,1,0,0,1,.86-.08,1,1,0,0,1,.58.45.86.86,0,0,1,0,.69l.93.34v0A1.53,1.53,0,0,0,19.73,55a2.13,2.13,0,0,0-1.23-.92,2,2,0,0,0-1.62.05,2.09,2.09,0,0,0-1.07,1.26l-.37,1a2.08,2.08,0,0,0,0,1.66,2.13,2.13,0,0,0,1.26,1.08,2.75,2.75,0,0,0,1.26.2,1.9,1.9,0,0,0,.87-.27l.68-1.9-1.93-.7Z"/>
      <path class="ebd686ac-0718-4c73-843e-42601f0ad9f1" d="M22.48,55.19l-1.78-.33L19.75,60l1,.19.38-2.06.82.15a.84.84,0,0,1,.56.33.86.86,0,0,1,.1.63l-.07.37a2.76,2.76,0,0,0-.05.51.56.56,0,0,0,.11.41l1.06.2,0-.08a.62.62,0,0,1-.14-.38,1.7,1.7,0,0,1,0-.46l.07-.38a1.58,1.58,0,0,0-.06-.82,1.16,1.16,0,0,0-.57-.57,1.49,1.49,0,0,0,.7-.35,1.16,1.16,0,0,0,.33-.64,1.38,1.38,0,0,0-.29-1.21A2.15,2.15,0,0,0,22.48,55.19ZM23,56.91a.71.71,0,0,1-.31.51,1,1,0,0,1-.68.06l-.73-.13.28-1.5.74.14a.87.87,0,0,1,.59.32A.73.73,0,0,1,23,56.91Z"/>
      <path class="ebd686ac-0718-4c73-843e-42601f0ad9f1" d="M27.66,59.27a1.06,1.06,0,0,1-.35.77,1,1,0,0,1-.79.21,1,1,0,0,1-.73-.33,1.1,1.1,0,0,1-.21-.83l.28-3.41-1.05-.08L24.53,59A1.69,1.69,0,0,0,25,60.43a2.22,2.22,0,0,0,1.47.63A2.24,2.24,0,0,0,28,60.68a1.71,1.71,0,0,0,.7-1.33L29,55.94l-1-.09Z"/>
      <path class="ebd686ac-0718-4c73-843e-42601f0ad9f1" d="M31.49,56h-2l0,5.23h1l0-1.89h.95a2.1,2.1,0,0,0,1.42-.45,1.54,1.54,0,0,0,.53-1.2,1.58,1.58,0,0,0-.51-1.22A2.07,2.07,0,0,0,31.49,56Zm.64,2.29a.86.86,0,0,1-.66.24h-1l0-1.72h.95a.85.85,0,0,1,.66.25.87.87,0,0,1,.22.63A.83.83,0,0,1,32.13,58.25Z"/>
      <path class="ebd686ac-0718-4c73-843e-42601f0ad9f1" d="M40.79,58.35A1.13,1.13,0,0,0,40,58a1.11,1.11,0,0,0,.5-.48,1.09,1.09,0,0,0,.12-.66,1.25,1.25,0,0,0-.63-1,2.45,2.45,0,0,0-1.47-.2l-1.7.17L37.38,61l2-.21a2.27,2.27,0,0,0,1.35-.54,1.33,1.33,0,0,0,.38-1.18A1.29,1.29,0,0,0,40.79,58.35ZM38,56.52l.66-.07a1.1,1.1,0,0,1,.69.1.63.63,0,0,1,.29.51.59.59,0,0,1-.18.52,1,1,0,0,1-.62.24l-.7.07Zm2,3.25a1,1,0,0,1-.62.25l-1,.1-.16-1.5,1-.1a.9.9,0,0,1,.66.13.78.78,0,0,1,.28.56A.69.69,0,0,1,39.92,59.77Z"/>
      <path class="ebd686ac-0718-4c73-843e-42601f0ad9f1" d="M45.58,58l-1,.19a1.05,1.05,0,0,1-.08.79,1,1,0,0,1-1.47.16,1.62,1.62,0,0,1-.47-.92l-.2-1a1.61,1.61,0,0,1,.07-1,.83.83,0,0,1,.64-.52.87.87,0,0,1,1.17.79l1-.2v0a1.6,1.6,0,0,0-.77-1.18,2.19,2.19,0,0,0-1.55-.17,1.92,1.92,0,0,0-1.34.89,2.22,2.22,0,0,0-.25,1.64l.21,1a2.13,2.13,0,0,0,.87,1.42,2,2,0,0,0,1.61.3,2.06,2.06,0,0,0,1.32-.75,1.6,1.6,0,0,0,.25-1.38Z"/>
      <path class="ebd686ac-0718-4c73-843e-42601f0ad9f1" d="M46.38,54.12l.06,5.52,1-.36,0-1.18L49,57.54l.7,1,1-.36L47.4,53.76Zm1,3.11-.06-1.93h0l1.15,1.55Z"/>
    </g>
  </g>
</svg>
