<svg xmlns="http://www.w3.org/2000/svg" viewBox="0 0 100 48"><defs><style>.cls-1{fill:#d7d7d7;}.cls-2{fill:#201a17;}.cls-3{fill:#fff;}.cls-4{fill:none;stroke:#201a17;stroke-miterlimit:10;stroke-width:0.72px;}.cls-5{fill:#0095e3;}.cls-6{fill:#ee0001;}</style></defs><title>logo bank colorful</title><g id="Alto"><path class="cls-1" d="M96,1a3,3,0,0,1,3,3V44a3,3,0,0,1-3,3H4a3,3,0,0,1-3-3V4A3,3,0,0,1,4,1H96m0-1H4A4,4,0,0,0,0,4V44a4,4,0,0,0,4,4H96a4,4,0,0,0,4-4V4a4,4,0,0,0-4-4Z"/><path class="cls-2" d="M72.13,16.5H27.87A11.89,11.89,0,0,0,25,24,11.94,11.94,0,0,0,28,31.62H72A11.94,11.94,0,0,0,75,24,11.89,11.89,0,0,0,72.13,16.5Z"/><polygon class="cls-3" points="44.24 26.64 44.24 19.56 41.24 19.56 41.24 28.56 43.16 28.56 44.24 28.56 49.88 28.56 49.88 26.64 44.24 26.64"/><polygon class="cls-3" points="47.72 19.56 47.72 21.48 51.8 21.48 51.8 28.56 54.92 28.56 54.92 21.48 58.88 21.48 58.88 19.56 47.72 19.56"/><path class="cls-3" d="M37.83,28.56h2.81l-4.32-9H32.48l-4.2,9h2.8l.79-1.62H37Zm-5-3.66,1.52-3.12L36,24.9Z"/><path class="cls-3" d="M64.94,19.74c-4.08,0-5.52,1.71-5.52,4.26s1.08,4.62,5.88,4.62,5.88-2.07,5.88-4.62S69.74,19.74,64.94,19.74Zm.48,7a2.43,2.43,0,0,1-2.76-2.64,2.7,2.7,0,0,1,5.4,0A2.45,2.45,0,0,1,65.42,26.7Z"/><ellipse class="cls-4" cx="50" cy="24" rx="26.64" ry="17.29"/><path class="cls-5" d="M50,40.2c9.54,0,17.83-3.47,22-8.58H28C32.17,36.73,40.46,40.2,50,40.2Z"/><path class="cls-6" d="M50,7.8c-9.62,0-18,3.53-22.13,8.7H72.13C68,11.33,59.62,7.8,50,7.8Z"/></g></svg>