<svg xmlns="http://www.w3.org/2000/svg" viewBox="0 0 100 48"><defs><style>.cls-1{fill:#d7d7d7;}.cls-2{fill:#f90;}.cls-3{fill:#c00;}.cls-4{fill:#006;}.cls-5{fill:#fff;}</style></defs><title>logo bank colorful</title><g id="Mastercard"><path class="cls-1" d="M96,1a3,3,0,0,1,3,3V44a3,3,0,0,1-3,3H4a3,3,0,0,1-3-3V4A3,3,0,0,1,4,1H96m0-1H4A4,4,0,0,0,0,4V44a4,4,0,0,0,4,4H96a4,4,0,0,0,4-4V4a4,4,0,0,0-4-4Z"/><g id="layer1"><g id="g10305"><path id="path2268" class="cls-2" d="M79.61,23.5a17.72,17.72,0,0,1-35.44,0h0a17.72,17.72,0,1,1,35.44,0Z"/><path id="path1350" class="cls-3" d="M38,5.78A17.72,17.72,0,1,0,50,36.6h0a17.89,17.89,0,0,0,1.8-1.9H48.21a17.31,17.31,0,0,1-1.32-1.83h6.26a17.75,17.75,0,0,0,1-1.9H45.85a17.48,17.48,0,0,1-.74-1.86h9.81a17.8,17.8,0,0,0,.5-9.42H44.59a17.67,17.67,0,0,1,.51-1.86h9.81a17.72,17.72,0,0,0-.76-1.9H45.85a17,17,0,0,1,1-1.86h6.26a17.76,17.76,0,0,0-1.38-1.9H48.26A16.45,16.45,0,0,1,50,10.4,17.66,17.66,0,0,0,38.11,5.78Z"/></g><g id="g16480"><g id="g13802"><path id="path13804" class="cls-4" d="M44,28.58l.24-1.6c-.13,0-.32.06-.49.06-.66,0-.74-.35-.69-.61l.65-3.23h1l.21-1.82H44l.19-1.1h-2s-1.11,6.2-1.11,7a1.4,1.4,0,0,0,1.5,1.6A5,5,0,0,0,44,28.58Z"/><path id="path13806" class="cls-4" d="M44.59,25.53a3,3,0,0,0,3.26,3.3A5.67,5.67,0,0,0,50,28.5l.33-1.82a6.84,6.84,0,0,1-2.12.48c-2,0-1.67-1.51-1.67-1.51H50.4a13.55,13.55,0,0,0,.25-1.72,2.59,2.59,0,0,0-2.75-2.77C46,21.17,44.59,23.22,44.59,25.53Zm3.31-2.66c1.06,0,.87,1.2.87,1.29H46.67C46.67,24,46.87,22.86,47.9,22.86Z"/><path id="path13808" class="cls-4" d="M59.85,28.58l.34-2.06a4.54,4.54,0,0,1-1.56.46,1.87,1.87,0,0,1-1.88-2.12c0-2.23,1.15-3.45,2.43-3.45a3.36,3.36,0,0,1,1.73.54l.31-2a3.75,3.75,0,0,0-1.89-.66c-2.95,0-4.64,2-4.64,5.59,0,2.35,1.25,4,3.5,4A8.72,8.72,0,0,0,59.85,28.58Z"/><path id="path13810" class="cls-4" d="M33.62,21.2a6.52,6.52,0,0,0-2.29.42l-.27,1.63a6,6,0,0,1,2.06-.33c.7,0,1.22.08,1.22.65a1.21,1.21,0,0,1-.06.47s-.55,0-.81,0c-1.84,0-3.35.7-3.35,2.8a1.79,1.79,0,0,0,1.82,2A2.33,2.33,0,0,0,33.82,28l0,.7h1.66l.74-5.2A2.23,2.23,0,0,0,33.62,21.2Zm.29,4.22c0,.32-.08,1.82-1.22,1.82a.69.69,0,0,1-.74-.71c0-.52.28-1.14,1.66-1.14C33.93,25.39,33.85,25.41,33.9,25.42Z"/><path id="path13812" class="cls-4" d="M38,28.78c.43,0,2.85.11,2.85-2.4,0-2.34-2.25-1.88-2.25-2.82,0-.47.37-.62,1-.62.27,0,1.29.08,1.29.08l.24-1.67a8.8,8.8,0,0,0-1.74-.15c-1.4,0-2.81.56-2.81,2.46,0,2.16,2.36,1.94,2.36,2.85,0,.61-.66.66-1.17.66a6.17,6.17,0,0,1-1.68-.29l-.25,1.65A6,6,0,0,0,38,28.78Z"/><path id="path13814" class="cls-4" d="M75.41,19.69l-.34,2.54a2.49,2.49,0,0,0-1.82-1c-2.09,0-3.17,2.08-3.17,4.48,0,1.55.77,3.06,2.34,3.06A2.36,2.36,0,0,0,74.18,28l-.08.67h1.84l1.44-9Zm-.81,4.94c0,1-.49,2.33-1.52,2.33-.68,0-1-.57-1-1.46,0-1.46.66-2.43,1.49-2.43C74.25,23.06,74.6,23.53,74.6,24.63Z"/><path id="path13816" class="cls-4" d="M23.4,28.68l1.15-6.77.17,6.77H26l2.43-6.77-1.07,6.77H29.3l1.49-9-3.07,0-1.83,5.5-.05-5.48H23l-1.51,9H23.4Z"/><path id="path13818" class="cls-4" d="M52.47,28.7c.55-3.12.74-5.59,2.35-5.08a10.88,10.88,0,0,1,1-2.77s-.08-.12-.57-.12c-.85,0-2,1.71-2,1.71l.17-1.06H51.71L50.53,28.7h1.94Z"/><g id="use14699"><path id="path13810-2" data-name="path13810" class="cls-4" d="M63.8,21.2a6.52,6.52,0,0,0-2.29.42l-.27,1.63a6,6,0,0,1,2.06-.33c.7,0,1.22.08,1.22.65a1.21,1.21,0,0,1-.06.47s-.55,0-.81,0c-1.84,0-3.35.7-3.35,2.8a1.79,1.79,0,0,0,1.82,2A2.32,2.32,0,0,0,64,28l0,.7h1.66l.74-5.2A2.23,2.23,0,0,0,63.8,21.2Zm.29,4.22c0,.32-.08,1.82-1.22,1.82a.69.69,0,0,1-.74-.71c0-.52.28-1.14,1.66-1.14C64.12,25.39,64,25.41,64.09,25.42Z"/></g><path id="use14701" class="cls-4" d="M68.3,28.7c.3-2.3.86-5.52,2.35-5.08.23-1.21,0-1.21-.49-1.21a8.81,8.81,0,0,0-1,0l.17-1.06H67.54L66.37,28.7H68.3Z"/></g><g id="g10289"><path id="path4157" class="cls-5" d="M44.49,28l.24-1.6c-.13,0-.32.06-.49.06-.66,0-.73-.35-.69-.61l.53-3.27h1l.24-1.77h-.94l.19-1.1H42.68s-1.11,6.2-1.11,7a1.4,1.4,0,0,0,1.5,1.6A5,5,0,0,0,44.49,28Z"/><path id="path4155" class="cls-5" d="M45.08,25a3,3,0,0,0,3.26,3.3,4.8,4.8,0,0,0,2-.31l.33-1.82a5.88,5.88,0,0,1-2,.46c-2,0-1.67-1.51-1.67-1.51h3.83a13.57,13.57,0,0,0,.25-1.72,2.53,2.53,0,0,0-2.69-2.76C46.49,20.6,45.08,22.64,45.08,25Zm3.31-2.66c1.06,0,.87,1.2.87,1.29H47.17C47.17,23.46,47.36,22.29,48.39,22.29Z"/><path id="path4151" class="cls-5" d="M60.34,28,60.68,26a4.54,4.54,0,0,1-1.56.46,1.87,1.87,0,0,1-1.88-2.12c0-2.23,1.15-3.45,2.43-3.45a3.36,3.36,0,0,1,1.73.54l.31-2a6.78,6.78,0,0,0-2.12-.46c-2.18,0-4.3,1.89-4.3,5.44,0,2.35,1.14,3.91,3.4,3.91A8.7,8.7,0,0,0,60.34,28Z"/><path id="path4149" class="cls-5" d="M34.11,20.63a6.52,6.52,0,0,0-2.29.42l-.27,1.63a6,6,0,0,1,2.06-.33c.7,0,1.22.08,1.22.65a1.21,1.21,0,0,1-.06.47s-.55,0-.81,0c-1.63,0-3.35.7-3.35,2.8a1.79,1.79,0,0,0,1.82,2,2.46,2.46,0,0,0,1.94-.87l-.06.72H36l.74-5.2A2.23,2.23,0,0,0,34.11,20.63Zm.4,4.23c0,.32-.2,1.81-1.34,1.81a.69.69,0,0,1-.74-.71c0-.52.28-1.14,1.66-1.14A1.2,1.2,0,0,1,34.51,24.86Z"/><path id="path4145" class="cls-5" d="M38.47,28.21c.43,0,2.85.11,2.85-2.4,0-2.34-2.25-1.88-2.25-2.82,0-.47.37-.62,1-.62.27,0,1.29.08,1.29.08l.24-1.67a8.8,8.8,0,0,0-1.74-.15c-1.4,0-2.81.56-2.81,2.46,0,2.16,2.36,1.94,2.36,2.85,0,.61-.66.66-1.17.66a6.16,6.16,0,0,1-1.68-.29L36.35,28A6,6,0,0,0,38.47,28.21Z"/><path id="path4139" class="cls-5" d="M76,19.13l-.41,2.53a2.49,2.49,0,0,0-1.82-1c-1.73,0-3.17,2.08-3.17,4.48,0,1.55.77,3.06,2.34,3.06a2.36,2.36,0,0,0,1.76-.79l-.08.67h1.84l1.44-9Zm-.88,4.92c0,1-.49,2.33-1.52,2.33-.68,0-1-.57-1-1.46,0-1.46.66-2.43,1.49-2.43S75.09,23,75.09,24.06Z"/><path id="path4133" class="cls-5" d="M23.89,28.11,25,21.34l.17,6.77h1.3l2.43-6.77-1.07,6.77h1.93l1.49-9h-3l-1.86,5.51-.1-5.51H23.58l-1.51,9Z"/><path id="path4131" class="cls-5" d="M53,28.12c.55-3.12.65-5.66,2-5.19a7.26,7.26,0,0,1,.7-2.19,2,2,0,0,0-.36,0c-.85,0-1.47,1.15-1.47,1.15L54,20.81H52.2L51,28.12Z"/><g id="use8523"><path id="path4149-2" data-name="path4149" class="cls-5" d="M64.69,20.63a6.52,6.52,0,0,0-2.29.42l-.27,1.63a6,6,0,0,1,2.06-.33c.7,0,1.22.08,1.22.65a1.21,1.21,0,0,1-.06.47s-.55,0-.81,0c-1.63,0-3.35.7-3.35,2.8a1.79,1.79,0,0,0,1.82,2,2.45,2.45,0,0,0,1.94-.87l-.06.72h1.66l.74-5.2A2.23,2.23,0,0,0,64.69,20.63Zm.4,4.23c0,.32-.2,1.81-1.34,1.81A.69.69,0,0,1,63,26c0-.52.28-1.14,1.66-1.14A1.21,1.21,0,0,1,65.1,24.86Z"/></g><g id="use8525"><path id="path4131-2" data-name="path4131" class="cls-5" d="M68.8,28.12c.55-3.12.65-5.66,2-5.19a7.27,7.27,0,0,1,.7-2.19,2,2,0,0,0-.36,0c-.85,0-1.47,1.15-1.47,1.15l.17-1.06H68l-1.18,7.31Z"/></g><path id="text9407" class="cls-5" d="M77.82,27a.58.58,0,0,1,.28.07.52.52,0,0,1,.21.21.57.57,0,0,1,0,.57.53.53,0,0,1-.21.21.58.58,0,0,1-.57,0,.54.54,0,0,1-.21-.21.57.57,0,0,1,0-.57.53.53,0,0,1,.21-.21.59.59,0,0,1,.28-.07m0,.09a.49.49,0,0,0-.24.06.44.44,0,0,0-.18.18.48.48,0,0,0,0,.48.46.46,0,0,0,.18.18.48.48,0,0,0,.48,0,.45.45,0,0,0,.18-.18.48.48,0,0,0,0-.48.43.43,0,0,0-.18-.18.48.48,0,0,0-.23-.06m-.25.8v-.62h.21l.16,0a.15.15,0,0,1,.08.06.16.16,0,0,1,0,.09.16.16,0,0,1,0,.12.19.19,0,0,1-.13.06l.05,0,.09.12.08.12H78l-.05-.1a.5.5,0,0,0-.1-.14l-.08,0h-.06v.26h-.1m.1-.35h.12a.19.19,0,0,0,.12,0,.08.08,0,0,0,0-.07.08.08,0,0,0,0,0l0,0h-.21v.19"/></g></g></g></g></svg>