<svg xmlns="http://www.w3.org/2000/svg" viewBox="0 0 100 48"><defs><style>.cls-1{fill:#d7d7d7;}.cls-2{fill:#253b80;}.cls-3{fill:#179bd7;}.cls-4{fill:#222d65;}</style></defs><title>logo bank colorful</title><g id="Indomaret"><path class="cls-1" d="M96,1a3,3,0,0,1,3,3V44a3,3,0,0,1-3,3H4a3,3,0,0,1-3-3V4A3,3,0,0,1,4,1H96m0-1H4A4,4,0,0,0,0,4V44a4,4,0,0,0,4,4H96a4,4,0,0,0,4-4V4a4,4,0,0,0-4-4Z"/></g><g id="Paypal"><path class="cls-2" d="M40.67,19h-4.1a.57.57,0,0,0-.56.48L34.36,30a.34.34,0,0,0,.34.39h2a.57.57,0,0,0,.56-.48l.45-2.83a.57.57,0,0,1,.56-.48h1.3c2.7,0,4.25-1.31,4.66-3.89a3.15,3.15,0,0,0-.52-2.64A3.8,3.8,0,0,0,40.67,19Zm.47,3.84c-.22,1.47-1.35,1.47-2.43,1.47h-.62l.43-2.74a.34.34,0,0,1,.34-.29h.28c.74,0,1.44,0,1.8.42A1.36,1.36,0,0,1,41.14,22.84Z"/><path class="cls-2" d="M52.91,22.79h-2a.34.34,0,0,0-.34.29l-.09.55-.14-.2a2.79,2.79,0,0,0-2.32-.82,4.51,4.51,0,0,0-4.38,3.94,3.7,3.7,0,0,0,.73,3,3.07,3.07,0,0,0,2.47,1,3.75,3.75,0,0,0,2.71-1.12l-.09.54a.34.34,0,0,0,.34.4h1.77a.57.57,0,0,0,.56-.48l1.06-6.71A.34.34,0,0,0,52.91,22.79Zm-2.73,3.82A2.19,2.19,0,0,1,48,28.48a1.52,1.52,0,0,1-1.62-1.91,2.2,2.2,0,0,1,2.2-1.89,1.65,1.65,0,0,1,1.31.53A1.7,1.7,0,0,1,50.18,26.61Z"/><path class="cls-2" d="M63.35,22.79h-2a.57.57,0,0,0-.47.25l-2.72,4L57,23.2a.57.57,0,0,0-.55-.41H54.56a.34.34,0,0,0-.32.45l2.17,6.37-2,2.88a.34.34,0,0,0,.28.54h2a.57.57,0,0,0,.47-.24l6.55-9.46A.34.34,0,0,0,63.35,22.79Z"/><path class="cls-3" d="M69.88,19h-4.1a.57.57,0,0,0-.56.48L63.57,30a.34.34,0,0,0,.34.39H66A.4.4,0,0,0,66.4,30l.47-3a.57.57,0,0,1,.56-.48h1.3c2.7,0,4.25-1.31,4.66-3.89a3.15,3.15,0,0,0-.52-2.64A3.8,3.8,0,0,0,69.88,19Zm.47,3.84c-.22,1.47-1.35,1.47-2.43,1.47H67.3l.43-2.74a.34.34,0,0,1,.34-.29h.28c.74,0,1.44,0,1.8.42A1.36,1.36,0,0,1,70.35,22.84Z"/><path class="cls-3" d="M82.12,22.79h-2a.34.34,0,0,0-.34.29l-.09.55-.14-.2a2.79,2.79,0,0,0-2.32-.82,4.51,4.51,0,0,0-4.38,3.94,3.7,3.7,0,0,0,.73,3,3.07,3.07,0,0,0,2.47,1,3.75,3.75,0,0,0,2.71-1.12l-.09.54a.34.34,0,0,0,.34.4h1.77a.57.57,0,0,0,.56-.48l1.06-6.71A.34.34,0,0,0,82.12,22.79Zm-2.73,3.82a2.18,2.18,0,0,1-2.21,1.87,1.52,1.52,0,0,1-1.62-1.91,2.2,2.2,0,0,1,2.2-1.89,1.65,1.65,0,0,1,1.31.53A1.69,1.69,0,0,1,79.39,26.61Z"/><path class="cls-3" d="M84.43,19.29,82.75,30a.34.34,0,0,0,.34.39h1.69a.57.57,0,0,0,.56-.48L87,19.4a.34.34,0,0,0-.34-.39H84.77A.34.34,0,0,0,84.43,19.29Z"/><path class="cls-2" d="M17.35,32.42l.31-2-.7,0H13.64L16,15.74a.19.19,0,0,1,.06-.11.19.19,0,0,1,.12,0h5.62c1.86,0,3.15.39,3.82,1.15a2.63,2.63,0,0,1,.61,1.15,4.14,4.14,0,0,1,0,1.58v.45l.31.18a2.21,2.21,0,0,1,.64.49,2.26,2.26,0,0,1,.52,1.16,4.91,4.91,0,0,1-.07,1.68,5.93,5.93,0,0,1-.69,1.91,3.92,3.92,0,0,1-1.09,1.2,4.43,4.43,0,0,1-1.47.66,7.34,7.34,0,0,1-1.84.21h-.44a1.31,1.31,0,0,0-1.3,1.11l0,.18-.55,3.51,0,.13a.11.11,0,0,1,0,.07l-.06,0Z"/><path class="cls-3" d="M26.8,19.56h0q0,.16-.06.33C26,23.69,23.47,25,20.23,25H18.58a.8.8,0,0,0-.79.68h0L16.95,31l-.24,1.52a.42.42,0,0,0,.42.49H20a.7.7,0,0,0,.69-.59l0-.15.55-3.49,0-.19a.7.7,0,0,1,.69-.59h.44c2.83,0,5-1.15,5.7-4.48a3.81,3.81,0,0,0-.59-3.37A2.79,2.79,0,0,0,26.8,19.56Z"/><path class="cls-4" d="M26,19.25l-.35-.09-.37-.07A9.15,9.15,0,0,0,23.85,19h-4.4a.7.7,0,0,0-.69.59l-.94,5.93,0,.17a.8.8,0,0,1,.79-.68h1.65c3.24,0,5.77-1.31,6.51-5.12,0-.11,0-.22.06-.33a4,4,0,0,0-.61-.26Z"/><path class="cls-2" d="M18.76,19.58a.7.7,0,0,1,.69-.59h4.4a9.15,9.15,0,0,1,1.45.11l.37.07.35.09.17.05a4,4,0,0,1,.61.26A3.59,3.59,0,0,0,26,16.33c-.84-1-2.35-1.36-4.28-1.36H16.14a.8.8,0,0,0-.79.68L13,30.47a.48.48,0,0,0,.48.56h3.47l.87-5.52Z"/></g></svg>