<svg xmlns="http://www.w3.org/2000/svg" viewBox="0 0 100 48"><defs><style>.cls-1{fill:#d7d7d7;}.cls-2{fill:#00579f;}.cls-3{fill:#faa61a;}</style></defs><title>logo bank colorful</title><g id="Visa"><path class="cls-1" d="M96,1a3,3,0,0,1,3,3V44a3,3,0,0,1-3,3H4a3,3,0,0,1-3-3V4A3,3,0,0,1,4,1H96m0-1H4A4,4,0,0,0,0,4V44a4,4,0,0,0,4,4H96a4,4,0,0,0,4-4V4a4,4,0,0,0-4-4Z"/><g id="g4158"><polygon id="polygon9" class="cls-2" points="45.33 35 39.66 35 43.21 13.07 48.88 13.07 45.33 35"/><path id="path11" class="cls-2" d="M65.89,13.61a14,14,0,0,0-5.09-.93c-5.6,0-9.54,3-9.57,7.26,0,3.15,2.82,4.9,5,5.95s2.94,1.77,2.94,2.73c0,1.47-1.77,2.15-3.41,2.15a11.29,11.29,0,0,1-5.32-1.17l-.75-.35-.79,4.92a17.26,17.26,0,0,0,6.32,1.17c6,0,9.82-2.94,9.87-7.49,0-2.5-1.49-4.41-4.76-6-2-1-3.2-1.68-3.2-2.71s1-1.89,3.27-1.89a9.63,9.63,0,0,1,4.22.84l.51.23.77-4.74Z"/><path id="path13" class="cls-2" d="M73.43,27.23l2.26-6.14s.47-1.28.75-2.1l.4,1.89s1.07,5.25,1.31,6.35Zm7-14.16H76a2.8,2.8,0,0,0-3,1.82L64.65,35h6l1.19-3.29h7.28c.16.77.68,3.29.68,3.29H85L80.43,13.07h0Z"/><path id="path15" class="cls-2" d="M34.93,13.07,29.37,28l-.61-3a16.79,16.79,0,0,0-7.84-9.19L26,35h6l8.91-21.91h-6Z"/><path id="path17" class="cls-3" d="M24.22,13.07H15.09l-.09.44C22.12,15.33,26.83,19.72,28.77,25l-2-10.08a2.35,2.35,0,0,0-2.57-1.84Z"/></g></g></svg>