<?xml version="1.0" encoding="utf-8"?>
<!-- Generator: Adobe Illustrator 20.1.0, SVG Export Plug-In . SVG Version: 6.00 Build 0)  -->
<svg version="1.1" xmlns="http://www.w3.org/2000/svg" xmlns:xlink="http://www.w3.org/1999/xlink" x="0px" y="0px"
	 viewBox="0 0 570 348" enable-background="new 0 0 570 348" xml:space="preserve">
<g id="Layer_1">
	<g>
		<path fill="#288EEA" d="M259.262,236.585h-30.44c-0.881,0-1.594-0.714-1.594-1.594c0-0.881,0.714-1.594,1.594-1.594h30.44
			c0.881,0,1.594,0.714,1.594,1.594C260.856,235.872,260.143,236.585,259.262,236.585z"/>
	</g>
	<g>
		<path fill="#288EEA" d="M259.262,242.46h-30.44c-0.881,0-1.594-0.714-1.594-1.594c0-0.881,0.714-1.594,1.594-1.594h30.44
			c0.881,0,1.594,0.714,1.594,1.594C260.856,241.746,260.143,242.46,259.262,242.46z"/>
	</g>
	<g>
		<path fill="#288EEA" d="M228.822,222.556c-0.881,0-1.594-0.714-1.594-1.594c0-0.881,0.714-1.594,1.594-1.594
			c9.283,0,16.836-7.553,16.836-16.836V180.93c0-8.408,6.841-15.249,15.249-15.249h4.986c0.881,0,1.594,0.714,1.594,1.594
			c0,0.881-0.714,1.594-1.594,1.594h-4.986c-6.65,0-12.06,5.41-12.06,12.06v21.601C248.846,213.573,239.863,222.556,228.822,222.556
			z"/>
	</g>
	<g>
		<path fill="#F0FBFF" d="M532.777,210.057H471.64v-84.913c0-2.094,1.704-3.798,3.798-3.798h46.769c1.24,0,2.403,0.607,3.114,1.623
			l6.772,9.697c0.447,0.641,0.684,1.393,0.684,2.174V210.057z M474.297,207.4h55.823v-72.559c0-0.235-0.071-0.46-0.206-0.653
			l-6.772-9.697c-0.213-0.306-0.563-0.488-0.935-0.488h-46.769c-0.629,0-1.141,0.512-1.141,1.141V207.4z"/>
	</g>
	<g>
		<g>
			<path fill="#EDEDED" d="M447.656,277.993c-2.03-0.047-4.034-0.219-5.956-0.511l-0.541-0.081l-0.602-7.312
				c-1.411-0.295-2.825-0.674-4.216-1.13l-4.178,6.033l-0.509-0.198c-1.843-0.719-3.666-1.569-5.418-2.528l-0.479-0.262l1.936-7.078
				c-1.243-0.775-2.442-1.614-3.573-2.504l-5.986,4.237l-0.41-0.362c-0.859-0.757-1.553-1.405-2.187-2.038
				c-0.711-0.713-1.385-1.446-2.04-2.187l-0.363-0.411l4.236-5.987c-0.89-1.131-1.729-2.328-2.502-3.571l-7.08,1.936l-0.262-0.479
				c-0.96-1.756-1.81-3.578-2.528-5.418l-0.199-0.51l6.034-4.179c-0.455-1.394-0.833-2.807-1.129-4.214l-7.312-0.601l-0.082-0.542
				c-0.292-1.937-0.464-3.941-0.511-5.956l-0.013-0.547l7.098-1.863c0.047-1.461,0.173-2.916,0.375-4.34l-6.673-3.071l0.108-0.536
				c0.384-1.924,0.904-3.866,1.545-5.772l0.175-0.519l7.311,0.677c0.542-1.347,1.16-2.673,1.844-3.953l-5.218-5.165l0.285-0.468
				c1.042-1.706,2.196-3.353,3.433-4.895l0.342-0.426l6.641,3.136c0.48-0.538,0.975-1.07,1.492-1.587
				c0.517-0.517,1.048-1.011,1.587-1.492l-3.137-6.64l0.426-0.342c1.541-1.236,3.187-2.39,4.894-3.431l0.467-0.285l5.166,5.217
				c1.288-0.689,2.612-1.306,3.951-1.843l-0.677-7.311l0.519-0.175c1.904-0.64,3.847-1.16,5.773-1.545l0.536-0.107l3.07,6.674
				c1.428-0.202,2.883-0.327,4.341-0.374l1.863-7.1l0.546,0.013c2.014,0.047,4.018,0.22,5.957,0.512l0.541,0.082l0.602,7.309
				c1.409,0.296,2.823,0.675,4.215,1.13l2.054-2.966l6.681,6.681l-0.088,0.321c0.382,0.24,0.776,0.502,1.221,0.812l10.878,10.896
				c0.246,0.369,0.49,0.741,0.724,1.115l0.321-0.087l6.681,6.681l-2.967,2.055c0.455,1.393,0.834,2.807,1.13,4.215l7.31,0.603
				l0.082,0.541c0.293,1.943,0.465,3.947,0.511,5.957l0.012,0.545l-7.097,1.865c-0.047,1.454-0.173,2.909-0.375,4.338l6.675,3.071
				l-0.107,0.536c-0.385,1.929-0.906,3.872-1.547,5.774l-0.174,0.518l-7.31-0.678c-0.537,1.34-1.155,2.666-1.843,3.953l5.217,5.167
				l-0.285,0.467c-1.04,1.703-2.194,3.35-3.43,4.892l-0.341,0.427l-6.643-3.137c-0.48,0.539-0.974,1.069-1.491,1.586
				c-0.48,0.481-0.992,0.962-1.588,1.493l3.137,6.642l-0.426,0.34c-1.535,1.232-3.183,2.387-4.895,3.433l-0.467,0.285l-5.165-5.22
				c-1.28,0.686-2.606,1.303-3.952,1.845l0.677,7.312l-0.519,0.174c-1.909,0.64-3.851,1.16-5.772,1.544l-0.536,0.106l-3.071-6.673
				c-1.421,0.202-2.877,0.328-4.341,0.377l-1.863,7.096L447.656,277.993z M458.276,275.632c1.516-0.322,3.041-0.731,4.549-1.217
				l-0.672-7.257l0.488-0.189c1.619-0.624,3.21-1.367,4.73-2.206l0.458-0.252l5.126,5.179c1.339-0.84,2.633-1.746,3.859-2.705
				l-3.116-6.594l0.394-0.345c0.651-0.568,1.292-1.153,1.913-1.774c0.621-0.62,1.205-1.261,1.775-1.91l0.344-0.394l6.593,3.114
				c0.961-1.23,1.868-2.524,2.704-3.856l-5.178-5.129l0.253-0.456c0.844-1.53,1.586-3.12,2.205-4.729l0.189-0.489l7.256,0.674
				c0.487-1.505,0.896-3.032,1.22-4.552l-6.624-3.047l0.08-0.516c0.264-1.705,0.415-3.454,0.449-5.196l0.01-0.523l7.046-1.851
				c-0.054-1.582-0.189-3.157-0.402-4.695l-7.255-0.599l-0.101-0.513c-0.33-1.685-0.784-3.382-1.351-5.045l-0.169-0.495l2.461-1.703
				l-4.942-4.942l-0.551,0.151l-0.27-0.449c-0.306-0.508-0.633-1.01-0.879-1.402l-10.688-10.706
				c-0.497-0.333-0.998-0.658-1.508-0.965l-0.447-0.27l0.15-0.551l-4.942-4.941l-1.704,2.46l-0.494-0.169
				c-1.661-0.566-3.359-1.021-5.044-1.35l-0.513-0.101l-0.598-7.254c-1.536-0.213-3.111-0.348-4.696-0.403l-1.85,7.048l-0.523,0.01
				c-1.747,0.033-3.496,0.184-5.197,0.449l-0.516,0.08l-3.048-6.624c-1.519,0.323-3.045,0.732-4.55,1.219l0.672,7.256l-0.488,0.188
				c-1.606,0.62-3.197,1.361-4.729,2.206l-0.457,0.252l-5.127-5.178c-1.335,0.838-2.629,1.744-3.858,2.704l3.114,6.592l-0.392,0.344
				c-0.651,0.57-1.292,1.154-1.912,1.775c-0.621,0.621-1.207,1.263-1.775,1.913l-0.344,0.393l-6.593-3.115
				c-0.961,1.23-1.868,2.524-2.705,3.859l5.178,5.126l-0.252,0.457c-0.839,1.521-1.581,3.113-2.207,4.732l-0.188,0.487l-7.255-0.672
				c-0.487,1.506-0.896,3.032-1.219,4.549l6.624,3.048l-0.08,0.517c-0.264,1.695-0.415,3.443-0.449,5.195l-0.01,0.523l-7.046,1.849
				c0.055,1.586,0.19,3.162,0.402,4.697l7.256,0.596l0.101,0.515c0.33,1.681,0.784,3.379,1.35,5.044l0.168,0.495l-5.987,4.147
				c0.585,1.446,1.253,2.879,1.992,4.27l7.027-1.922l0.27,0.448c0.908,1.502,1.916,2.94,2.996,4.273l0.33,0.406l-4.206,5.946
				c0.522,0.581,1.058,1.156,1.617,1.716c0.51,0.51,1.063,1.031,1.715,1.616l5.942-4.206l0.407,0.33
				c1.335,1.08,2.773,2.088,4.275,2.996l0.447,0.27l-1.922,7.027c1.389,0.74,2.821,1.407,4.269,1.992l4.148-5.988l0.494,0.169
				c1.66,0.568,3.357,1.021,5.044,1.352l0.514,0.1l0.598,7.257c1.525,0.211,3.1,0.345,4.695,0.4l1.849-7.043l0.523-0.011
				c1.757-0.035,3.505-0.186,5.196-0.451l0.517-0.081L458.276,275.632z M448.762,264.327c-8.894-0.001-17.255-3.464-23.544-9.753
				c-2.002-2.002-3.741-4.246-5.166-6.667l-0.393-0.67l0.711-0.315c0.596-0.262,14.673-6.487,21.907-11.037l0.586-0.216l0.389,0.445
				c0.067,0.076,0.132,0.151,0.204,0.223c1.417,1.417,3.302,2.198,5.306,2.198c2.004,0,3.889-0.78,5.306-2.198
				c2.925-2.925,2.924-7.685-0.001-10.611c-1.979-1.977-4.99-2.684-7.643-1.817l-0.779,0.255l-0.12-0.812
				c-1.241-8.4-3.628-19.565-4.597-23.976l-0.148-0.673l0.672-0.151c2.397-0.537,4.86-0.809,7.32-0.809
				c8.892,0,17.249,3.461,23.532,9.745c6.289,6.289,9.752,14.65,9.752,23.543c0,8.894-3.463,17.254-9.752,23.543
				c-6.289,6.289-14.65,9.754-23.542,9.754C448.764,264.327,448.763,264.327,448.762,264.327z M442.43,199.759
				c1.015,4.657,3.136,14.688,4.349,22.617c2.95-0.675,6.117,0.223,8.267,2.372c3.465,3.466,3.466,9.103,0.001,12.566
				c-1.679,1.678-3.911,2.604-6.285,2.604c-2.352,0-4.565-0.908-6.239-2.557c-6.564,4.03-17.892,9.174-20.877,10.509
				c1.286,2.069,2.814,3.991,4.55,5.727c6.027,6.028,14.041,9.346,22.565,9.347c0.001,0,0.001,0,0.003,0
				c8.522,0,16.536-3.32,22.564-9.348c6.027-6.028,9.346-14.041,9.346-22.564s-3.32-16.537-9.347-22.565
				c-6.022-6.022-14.032-9.34-22.554-9.34C446.645,199.126,444.514,199.339,442.43,199.759z"/>
		</g>
	</g>
	<g>
		<g>
			<path fill-rule="evenodd" clip-rule="evenodd" fill="#FFFFFF" d="M503.628,282.983l12.489,4.618
				c1.977-2.965,3.764-6.065,5.359-9.278l-10.239-8.502c1.3-2.93,2.404-5.965,3.305-9.085l13.308,0.067
				c0.832-3.442,1.459-6.962,1.855-10.554l-12.537-4.493c0.107-1.598,0.18-3.202,0.18-4.827c0-1.625-0.074-3.232-0.18-4.829
				l12.537-4.493c-0.396-3.593-1.023-7.114-1.855-10.554l-13.308,0.067c-0.901-3.121-2.006-6.153-3.306-9.084l10.239-8.504
				c-1.595-3.212-3.382-6.312-5.359-9.277l-12.49,4.619c-1.905-2.606-3.984-5.073-6.216-7.393l6.711-11.488
				c-2.586-2.467-5.318-4.778-8.2-6.904l-10.142,8.599c-2.668-1.795-5.468-3.408-8.376-4.837l2.378-13.09
				c-3.255-1.428-6.616-2.651-10.07-3.663l-6.593,11.557c-3.101-0.764-6.279-1.332-9.524-1.675l-2.241-13.102
				c-1.773-0.112-3.558-0.188-5.36-0.188c-1.803,0-3.587,0.076-5.36,0.188l-2.242,13.102c-3.245,0.343-6.423,0.911-9.523,1.675
				l-6.593-11.557c-3.453,1.012-6.814,2.235-10.069,3.662l2.378,13.09c-2.908,1.428-5.709,3.041-8.377,4.837l-10.142-8.601
				c-2.883,2.126-5.616,4.438-8.2,6.905l6.71,11.488c-2.233,2.32-4.312,4.787-6.217,7.393l-12.49-4.619
				c-1.977,2.965-3.763,6.065-5.358,9.277l10.24,8.504c-1.3,2.931-2.406,5.963-3.306,9.084l-13.308-0.067
				c-0.832,3.44-1.46,6.961-1.855,10.554l12.536,4.493c-0.106,1.597-0.18,3.203-0.18,4.829c0,1.625,0.074,3.229,0.18,4.827
				l-12.536,4.493c0.395,3.592,1.023,7.112,1.855,10.554l13.308-0.067c0.9,3.119,2.005,6.154,3.305,9.085l-10.239,8.502
				c1.595,3.213,3.382,6.313,5.358,9.278l12.489-4.618c1.905,2.604,3.984,5.071,6.216,7.392l-6.71,11.487
				c2.585,2.467,5.318,4.778,8.2,6.904l10.142-8.6c2.668,1.798,5.469,3.411,8.377,4.839l-1.073,5.907h14.952l0.406-0.711
				c1.07,0.264,2.153,0.495,3.241,0.711h27.767c1.088-0.216,2.171-0.447,3.241-0.711l0.405,0.711h14.953l-1.073-5.907
				c2.908-1.428,5.709-3.041,8.377-4.839l10.141,8.6c2.883-2.126,5.615-4.437,8.2-6.904l-6.71-11.487
				C499.643,288.054,501.723,285.587,503.628,282.983z M496.121,272.639c-10.518,16.591-29.03,27.612-50.128,27.612
				c-32.764,0-59.324-26.558-59.324-59.321c0-32.765,26.559-59.324,59.324-59.324c5.15,0,10.145,0.658,14.91,1.892
				c-0.005,0.012-10.513,27.091-14.038,42.565c-0.29-0.016-0.578-0.044-0.873-0.044c-8.236,0-14.911,6.675-14.911,14.911
				c0,8.234,6.675,14.91,14.911,14.91c5.811,0,10.834-3.334,13.293-8.183C471.631,256.821,489.065,268.122,496.121,272.639z"/>
		</g>
		<g>
			<path fill="#80C9FF" d="M412.1,310.912c0-0.181,0.035-0.354,0.098-0.513l0.84-4.62c-2.327-1.185-4.582-2.487-6.729-3.886
				l-9.349,7.928c-0.49,0.417-1.2,0.439-1.717,0.058c-2.871-2.118-5.675-4.478-8.333-7.016c-0.464-0.443-0.563-1.145-0.239-1.698
				l6.186-10.591c-1.774-1.897-3.448-3.887-4.991-5.933l-11.517,4.257c-0.598,0.223-1.276,0.004-1.631-0.53
				c-1.99-2.984-3.822-6.157-5.447-9.431c-0.285-0.574-0.138-1.269,0.356-1.68l9.44-7.839c-1.009-2.37-1.899-4.815-2.654-7.294
				l-12.271,0.062c-0.002,0-0.005,0-0.007,0c-0.638,0-1.194-0.438-1.345-1.058c-0.858-3.549-1.492-7.16-1.885-10.728
				c-0.07-0.636,0.306-1.238,0.908-1.454l11.558-4.142c-0.08-1.433-0.119-2.685-0.119-3.875c0-1.192,0.039-2.444,0.119-3.877
				l-11.558-4.141c-0.603-0.216-0.978-0.818-0.908-1.454c0.392-3.569,1.027-7.179,1.885-10.728c0.151-0.621,0.707-1.058,1.345-1.058
				c0.002,0,0.005,0,0.007,0l12.27,0.061c0.753-2.474,1.644-4.92,2.655-7.295l-9.44-7.839c-0.494-0.409-0.641-1.105-0.356-1.679
				c1.626-3.276,3.459-6.449,5.447-9.43c0.356-0.534,1.031-0.754,1.631-0.53l11.517,4.259c1.543-2.047,3.216-4.037,4.991-5.935
				l-6.186-10.591c-0.324-0.553-0.224-1.256,0.239-1.698c2.664-2.544,5.468-4.905,8.335-7.017c0.514-0.382,1.225-0.357,1.716,0.058
				l9.35,7.928c2.147-1.399,4.402-2.701,6.727-3.883l-2.192-12.069c-0.115-0.631,0.218-1.257,0.806-1.515
				c3.301-1.447,6.744-2.7,10.235-3.723c0.617-0.181,1.273,0.085,1.591,0.642l6.079,10.656c2.537-0.586,5.101-1.038,7.648-1.346
				l2.066-12.078c0.108-0.632,0.637-1.107,1.278-1.148c4.136-0.259,6.757-0.259,10.893,0c0.64,0.041,1.169,0.516,1.277,1.148
				l2.066,12.078c2.547,0.308,5.111,0.76,7.647,1.346l6.079-10.656c0.319-0.557,0.976-0.823,1.591-0.642
				c3.49,1.022,6.934,2.275,10.237,3.723c0.587,0.257,0.92,0.884,0.805,1.515l-2.192,12.069c2.323,1.183,4.578,2.485,6.726,3.884
				l9.35-7.928c0.489-0.414,1.199-0.439,1.716-0.058c2.866,2.114,5.67,4.474,8.335,7.016c0.463,0.442,0.563,1.146,0.239,1.699
				l-6.187,10.591c1.774,1.897,3.447,3.887,4.991,5.935l11.517-4.259c0.601-0.224,1.275-0.004,1.631,0.53
				c1.988,2.98,3.82,6.154,5.446,9.43c0.286,0.574,0.138,1.27-0.356,1.679l-9.44,7.839c1.01,2.373,1.901,4.818,2.654,7.295
				l12.27-0.061c0.002,0,0.005,0,0.007,0c0.638,0,1.194,0.437,1.345,1.058c0.857,3.544,1.492,7.154,1.886,10.728
				c0.069,0.636-0.306,1.238-0.909,1.454l-11.559,4.141c0.081,1.425,0.119,2.677,0.119,3.877c0,1.198-0.038,2.449-0.119,3.875
				l11.559,4.142c0.603,0.216,0.979,0.818,0.909,1.454c-0.394,3.573-1.029,7.183-1.886,10.728c-0.151,0.62-0.707,1.058-1.345,1.058
				c-0.002,0-0.005,0-0.007,0l-12.27-0.062c-0.756,2.482-1.646,4.927-2.653,7.294l9.439,7.839c0.494,0.411,0.641,1.105,0.356,1.68
				c-1.625,3.274-3.457,6.446-5.446,9.431c-0.356,0.533-1.034,0.752-1.631,0.53l-11.517-4.259c-1.546,2.049-3.219,4.038-4.991,5.934
				l6.187,10.59c0.324,0.554,0.224,1.256-0.239,1.7c-2.663,2.54-5.467,4.901-8.335,7.016c-0.517,0.381-1.226,0.357-1.717-0.058
				l-9.348-7.928c-2.146,1.399-4.402,2.701-6.728,3.886l0.888,4.886c0.073,0.404-0.037,0.819-0.299,1.133
				c-0.263,0.314-0.652,0.497-1.062,0.497h-14.953c-0.422,0-0.816-0.192-1.076-0.513c-0.763,0.173-1.53,0.334-2.301,0.486
				c-0.089,0.017-0.179,0.027-0.27,0.027H432.11c-0.091,0-0.181-0.01-0.27-0.027c-0.771-0.153-1.538-0.313-2.301-0.486
				c-0.26,0.321-0.655,0.513-1.077,0.513h-14.952c-0.01-0.001-0.019-0.001-0.028,0C412.719,312.296,412.1,311.677,412.1,310.912z
				 M427.666,309.517c0.305-0.537,0.928-0.803,1.533-0.658c1.006,0.247,2.024,0.466,3.047,0.67h27.494
				c1.023-0.204,2.041-0.423,3.047-0.67c0.603-0.145,1.227,0.121,1.533,0.658l12.499,0.012l-0.777-4.276
				c-0.111-0.608,0.196-1.216,0.751-1.489c2.867-1.408,5.631-3.005,8.214-4.744c0.514-0.348,1.194-0.308,1.668,0.091l9.3,7.886
				c2.188-1.66,4.332-3.467,6.397-5.388l-6.155-10.536c-0.312-0.535-0.232-1.212,0.197-1.658c2.199-2.288,4.251-4.727,6.097-7.25
				c0.366-0.499,1.02-0.693,1.597-0.48l11.457,4.236c1.5-2.317,2.901-4.745,4.18-7.238l-9.391-7.799
				c-0.476-0.395-0.632-1.059-0.381-1.625c1.271-2.866,2.361-5.863,3.241-8.908c0.172-0.593,0.713-1,1.329-1
				c0.002,0,0.005,0,0.007,0l12.206,0.062c0.622-2.728,1.108-5.489,1.448-8.234l-11.502-4.12c-0.581-0.208-0.955-0.778-0.913-1.395
				c0.121-1.812,0.177-3.317,0.177-4.735c0-1.421-0.056-2.927-0.177-4.737c-0.041-0.616,0.332-1.187,0.913-1.395l11.502-4.12
				c-0.34-2.745-0.826-5.506-1.448-8.234l-12.206,0.062c-0.002,0-0.005,0-0.007,0c-0.616,0-1.158-0.407-1.329-1
				c-0.877-3.037-1.967-6.034-3.241-8.908c-0.251-0.566-0.095-1.23,0.381-1.625l9.392-7.8c-1.28-2.495-2.681-4.922-4.179-7.237
				l-11.458,4.237c-0.581,0.216-1.232,0.018-1.597-0.482c-1.842-2.521-3.893-4.961-6.096-7.25c-0.429-0.445-0.509-1.122-0.197-1.657
				l6.156-10.537c-2.065-1.921-4.21-3.728-6.397-5.388l-9.302,7.886c-0.472,0.4-1.153,0.438-1.667,0.092
				c-2.589-1.741-5.352-3.336-8.213-4.743c-0.555-0.273-0.862-0.88-0.751-1.489l2.181-12.007c-2.553-1.079-5.187-2.037-7.856-2.857
				l-6.048,10.601c-0.306,0.538-0.934,0.806-1.533,0.658c-3.091-0.762-6.234-1.315-9.338-1.643
				c-0.616-0.066-1.114-0.532-1.218-1.143l-2.056-12.019c-3.079-0.165-5.284-0.165-8.363,0l-2.056,12.019
				c-0.105,0.611-0.603,1.077-1.219,1.143c-3.104,0.328-6.246,0.881-9.338,1.643c-0.605,0.148-1.228-0.12-1.533-0.658l-6.048-10.601
				c-2.669,0.821-5.303,1.778-7.855,2.856l2.181,12.007c0.111,0.609-0.196,1.217-0.751,1.489c-2.865,1.407-5.629,3.003-8.214,4.743
				c-0.513,0.346-1.193,0.307-1.667-0.092l-9.302-7.887c-2.186,1.659-4.33,3.466-6.396,5.388l6.155,10.538
				c0.313,0.535,0.232,1.212-0.197,1.657c-2.203,2.29-4.255,4.729-6.096,7.25c-0.364,0.499-1.017,0.697-1.597,0.482l-11.458-4.237
				c-1.498,2.315-2.9,4.742-4.179,7.237l9.392,7.8c0.476,0.395,0.632,1.06,0.381,1.625c-1.276,2.878-2.367,5.875-3.241,8.908
				c-0.171,0.592-0.713,1-1.329,1c-0.002,0-0.005,0-0.007,0l-12.206-0.062c-0.624,2.732-1.109,5.492-1.448,8.234l11.501,4.12
				c0.582,0.208,0.955,0.777,0.914,1.395c-0.121,1.821-0.178,3.326-0.178,4.737c0,1.408,0.056,2.913,0.178,4.735
				c0.041,0.618-0.332,1.187-0.914,1.395l-11.501,4.12c0.34,2.741,0.825,5.503,1.448,8.234l12.206-0.062c0.002,0,0.005,0,0.007,0
				c0.616,0,1.159,0.408,1.329,1c0.878,3.042,1.968,6.038,3.241,8.908c0.251,0.566,0.095,1.229-0.381,1.625l-9.391,7.799
				c1.279,2.492,2.68,4.921,4.18,7.238l11.457-4.236c0.576-0.213,1.231-0.019,1.597,0.48c1.843,2.521,3.896,4.96,6.097,7.25
				c0.429,0.446,0.509,1.123,0.197,1.656l-6.154,10.537c2.062,1.919,4.207,3.726,6.396,5.388l9.301-7.886
				c0.475-0.4,1.155-0.439,1.668-0.091c2.583,1.738,5.347,3.336,8.214,4.744c0.556,0.273,0.862,0.881,0.751,1.489l-0.777,4.276
				h12.491L427.666,309.517z M385.287,240.93c0-33.474,27.233-60.708,60.707-60.708c5.163,0,10.296,0.651,15.257,1.935
				c0.382,0.1,0.705,0.358,0.885,0.709c0.18,0.351,0.201,0.763,0.058,1.131c-0.105,0.271-10.514,27.163-13.978,42.372
				c-0.149,0.656-0.757,1.114-1.423,1.074l-0.283-0.018c-0.171-0.011-0.342-0.024-0.516-0.024c-7.459,0-13.528,6.069-13.528,13.528
				c0,7.458,6.069,13.526,13.528,13.526c5.116,0,9.737-2.846,12.059-7.425c0.184-0.363,0.52-0.627,0.917-0.721
				c0.398-0.092,0.814-0.005,1.142,0.237c12.348,9.168,29.818,20.487,36.755,24.928c0.642,0.411,0.83,1.262,0.423,1.905
				c-11.216,17.693-30.392,28.255-51.296,28.255C412.52,301.635,385.287,274.402,385.287,240.93z M459.716,249.694
				c-2.98,4.681-8.103,7.529-13.723,7.529c-8.985,0-16.295-7.31-16.295-16.293c0-8.912,7.194-16.178,16.081-16.294
				c3.23-13.448,11.097-34.459,13.271-40.168c-4.264-0.981-8.649-1.478-13.057-1.478c-31.949,0-57.94,25.991-57.94,57.94
				c0,31.947,25.992,57.937,57.94,57.937c19.491,0,37.411-9.624,48.209-25.815C486.866,268.341,471.37,258.247,459.716,249.694z"/>
		</g>
	</g>
	<g>
		<g>
			<path fill="#288EEA" d="M246.902,289.081c-0.03-0.764,0.565-1.407,1.329-1.437c1.354-0.053,2.703-0.131,4.046-0.233
				c0.759-0.057,1.427,0.513,1.485,1.274c0.058,0.762-0.512,1.427-1.274,1.485c-1.375,0.105-2.759,0.185-4.15,0.239
				c-0.017,0.001-0.036,0.001-0.055,0.001C247.543,290.41,246.93,289.827,246.902,289.081z M234.497,290.109
				c-1.385-0.116-2.764-0.256-4.135-0.421c-0.758-0.092-1.299-0.782-1.208-1.54c0.092-0.76,0.775-1.301,1.54-1.209
				c1.336,0.162,2.68,0.3,4.033,0.413c0.761,0.062,1.327,0.731,1.264,1.492c-0.06,0.722-0.665,1.269-1.377,1.269
				C234.575,290.113,234.536,290.112,234.497,290.109z M264.572,287.189c-0.151-0.75,0.333-1.479,1.082-1.632
				c1.328-0.269,2.648-0.562,3.959-0.878c0.734-0.183,1.49,0.277,1.669,1.02c0.179,0.743-0.277,1.49-1.021,1.668
				c-1.343,0.324-2.695,0.625-4.056,0.902c-0.093,0.018-0.186,0.027-0.277,0.027C265.283,288.297,264.706,287.845,264.572,287.189z
				 M216.743,287.18c-1.348-0.335-2.686-0.697-4.015-1.081c-0.734-0.213-1.157-0.98-0.944-1.714
				c0.212-0.733,0.977-1.151,1.714-0.944c1.294,0.375,2.599,0.727,3.913,1.053c0.742,0.185,1.193,0.935,1.009,1.677
				c-0.157,0.629-0.721,1.05-1.341,1.05C216.968,287.22,216.855,287.207,216.743,287.18z M281.716,282.475
				c-0.27-0.715,0.091-1.513,0.804-1.785c1.27-0.479,2.528-0.983,3.774-1.509c0.702-0.296,1.516,0.032,1.812,0.736
				c0.297,0.704-0.032,1.516-0.736,1.812c-1.278,0.539-2.568,1.057-3.868,1.55c-0.162,0.061-0.327,0.089-0.491,0.089
				C282.453,283.368,281.926,283.028,281.716,282.475z M199.692,281.424c-1.271-0.546-2.531-1.118-3.778-1.71
				c-0.689-0.329-0.983-1.154-0.655-1.845c0.328-0.689,1.154-0.983,1.844-0.655c1.215,0.579,2.442,1.133,3.684,1.667
				c0.701,0.303,1.025,1.116,0.724,1.819c-0.226,0.523-0.736,0.836-1.272,0.836C200.057,281.536,199.87,281.5,199.692,281.424z
				 M297.882,275.048c-0.382-0.661-0.155-1.508,0.507-1.89c1.172-0.677,2.332-1.377,3.475-2.096c0.646-0.404,1.5-0.212,1.908,0.435
				c0.407,0.647,0.213,1.5-0.435,1.907c-1.173,0.738-2.362,1.454-3.564,2.15c-0.217,0.126-0.456,0.185-0.691,0.185
				C298.604,275.74,298.139,275.493,297.882,275.048z M183.808,273.005c-1.169-0.746-2.321-1.512-3.459-2.298
				c-0.628-0.435-0.785-1.297-0.35-1.925c0.435-0.628,1.297-0.786,1.926-0.35c1.107,0.768,2.233,1.515,3.372,2.242
				c0.645,0.411,0.832,1.266,0.422,1.911c-0.264,0.413-0.711,0.639-1.168,0.639C184.298,273.223,184.039,273.153,183.808,273.005z
				 M312.639,265.126c-0.484-0.592-0.396-1.463,0.195-1.947c1.048-0.855,2.079-1.729,3.093-2.623
				c0.57-0.504,1.445-0.451,1.952,0.123c0.504,0.573,0.449,1.447-0.124,1.953c-1.04,0.918-2.097,1.813-3.171,2.69
				c-0.258,0.21-0.568,0.312-0.874,0.312C313.31,265.633,312.911,265.46,312.639,265.126z M169.47,262.146
				c-1.034-0.923-2.05-1.865-3.048-2.823c-0.551-0.529-0.569-1.405-0.04-1.957c0.53-0.551,1.407-0.567,1.956-0.04
				c0.975,0.936,1.966,1.854,2.975,2.755c0.57,0.509,0.619,1.384,0.111,1.954c-0.272,0.307-0.652,0.461-1.032,0.461
				C170.063,262.497,169.733,262.381,169.47,262.146z M325.613,252.977c-0.571-0.507-0.623-1.381-0.116-1.953
				c0.897-1.011,1.775-2.037,2.635-3.079c0.484-0.59,1.358-0.674,1.947-0.188c0.591,0.487,0.674,1.358,0.188,1.947
				c-0.881,1.069-1.781,2.123-2.7,3.158c-0.275,0.308-0.654,0.464-1.035,0.464C326.205,253.326,325.876,253.211,325.613,252.977z
				 M157.043,249.132c-0.872-1.077-1.728-2.168-2.562-3.275c-0.46-0.611-0.338-1.478,0.272-1.938c0.614-0.46,1.48-0.336,1.938,0.273
				c0.814,1.081,1.648,2.147,2.499,3.197c0.483,0.593,0.391,1.464-0.202,1.946c-0.257,0.208-0.566,0.309-0.87,0.309
				C157.716,249.644,157.316,249.469,157.043,249.132z M336.482,238.92c-0.646-0.409-0.838-1.265-0.428-1.909
				c0.722-1.139,1.423-2.292,2.106-3.459c0.385-0.66,1.23-0.883,1.893-0.496c0.659,0.385,0.881,1.233,0.496,1.892
				c-0.698,1.196-1.419,2.378-2.158,3.544c-0.263,0.416-0.712,0.643-1.17,0.643C336.968,239.135,336.711,239.066,336.482,238.92z
				 M146.851,234.297c-0.69-1.201-1.359-2.418-2.006-3.647c-0.357-0.677-0.095-1.513,0.58-1.869c0.674-0.358,1.513-0.096,1.869,0.58
				c0.631,1.199,1.283,2.386,1.957,3.557c0.381,0.663,0.153,1.509-0.511,1.89c-0.218,0.124-0.454,0.183-0.688,0.183
				C147.572,234.991,147.107,234.743,146.851,234.297z M344.954,223.313c-0.703-0.301-1.029-1.113-0.73-1.816
				c0.528-1.237,1.037-2.485,1.52-3.746c0.276-0.713,1.079-1.071,1.788-0.795c0.713,0.275,1.07,1.075,0.796,1.788
				c-0.497,1.292-1.016,2.572-1.558,3.84c-0.224,0.525-0.736,0.84-1.273,0.84C345.315,223.425,345.131,223.388,344.954,223.313z
				 M139.172,218.009c-0.489-1.299-0.954-2.609-1.394-3.93c-0.242-0.725,0.149-1.509,0.874-1.75c0.73-0.239,1.509,0.15,1.749,0.874
				c0.43,1.288,0.884,2.565,1.36,3.831c0.27,0.716-0.092,1.513-0.807,1.783c-0.16,0.06-0.325,0.089-0.487,0.089
				C139.906,218.907,139.38,218.564,139.172,218.009z M350.802,206.543c-0.742-0.183-1.196-0.933-1.012-1.675
				c0.323-1.309,0.621-2.626,0.897-3.953c0.155-0.749,0.889-1.229,1.636-1.073c0.748,0.155,1.228,0.887,1.073,1.636
				c-0.283,1.359-0.589,2.711-0.92,4.053c-0.155,0.631-0.72,1.052-1.341,1.052C351.024,206.584,350.913,206.57,350.802,206.543z
				 M134.219,200.683c-0.27-1.354-0.516-2.717-0.737-4.089c-0.121-0.755,0.391-1.465,1.145-1.587
				c0.755-0.129,1.466,0.391,1.586,1.145c0.216,1.339,0.457,2.671,0.719,3.991c0.15,0.75-0.336,1.478-1.086,1.628
				c-0.092,0.017-0.182,0.026-0.271,0.026C134.928,201.797,134.351,201.341,134.219,200.683z M353.87,189.038
				c-0.762-0.061-1.329-0.729-1.268-1.489c0.108-1.343,0.192-2.692,0.252-4.047c0.033-0.763,0.645-1.331,1.443-1.322
				c0.763,0.033,1.355,0.68,1.321,1.443c-0.061,1.389-0.147,2.772-0.258,4.147c-0.058,0.724-0.663,1.273-1.378,1.273
				C353.945,189.042,353.908,189.041,353.87,189.038z M132.126,182.813c-0.05-1.378-0.075-2.763-0.075-4.154v-0.227
				c0-0.764,0.619-1.384,1.384-1.384c0.764,0,1.383,0.62,1.383,1.384v0.227c0,1.358,0.025,2.709,0.073,4.055
				c0.028,0.763-0.569,1.405-1.332,1.432c-0.018,0-0.034,0-0.051,0C132.767,184.147,132.152,183.56,132.126,182.813z
				 M352.619,169.996c-0.106-1.352-0.236-2.697-0.392-4.034c-0.089-0.759,0.455-1.446,1.215-1.534
				c0.749-0.086,1.445,0.455,1.534,1.215c0.159,1.371,0.294,2.75,0.402,4.137c0.06,0.761-0.509,1.427-1.271,1.488
				c-0.036,0.003-0.073,0.004-0.109,0.004C353.282,171.271,352.676,170.72,352.619,169.996z M134.126,166.157
				c-0.758-0.095-1.295-0.786-1.201-1.544c0.173-1.38,0.37-2.751,0.593-4.115c0.125-0.754,0.83-1.259,1.589-1.142
				c0.754,0.123,1.266,0.834,1.143,1.589c-0.217,1.329-0.412,2.666-0.58,4.011c-0.088,0.7-0.683,1.212-1.372,1.212
				C134.243,166.168,134.184,166.164,134.126,166.157z M349.842,152.669c-0.321-1.316-0.666-2.622-1.036-3.918
				c-0.209-0.735,0.216-1.5,0.951-1.71c0.732-0.211,1.501,0.216,1.711,0.951c0.379,1.329,0.733,2.67,1.063,4.02
				c0.182,0.743-0.273,1.491-1.015,1.672c-0.11,0.027-0.221,0.04-0.33,0.04C350.563,153.725,349.998,153.301,349.842,152.669z
				 M137.535,148.716c-0.733-0.216-1.154-0.985-0.938-1.717c0.392-1.333,0.809-2.656,1.249-3.966
				c0.243-0.724,1.029-1.114,1.753-0.871c0.723,0.243,1.114,1.028,0.871,1.752c-0.43,1.277-0.837,2.565-1.218,3.864
				c-0.178,0.603-0.729,0.994-1.328,0.994C137.796,148.772,137.665,148.754,137.535,148.716z M344.306,136.011
				c-0.531-1.248-1.085-2.485-1.66-3.709c-0.325-0.692-0.028-1.516,0.664-1.841c0.686-0.324,1.516-0.026,1.84,0.664
				c0.589,1.255,1.156,2.523,1.701,3.802c0.3,0.703-0.028,1.516-0.731,1.815c-0.177,0.075-0.361,0.111-0.542,0.111
				C345.041,136.853,344.529,136.537,344.306,136.011z M143.711,132.051c-0.688-0.332-0.977-1.159-0.645-1.848
				c0.601-1.247,1.225-2.481,1.868-3.702c0.357-0.674,1.196-0.935,1.87-0.578c0.676,0.357,0.935,1.194,0.578,1.869
				c-0.63,1.191-1.236,2.395-1.824,3.613c-0.238,0.494-0.733,0.782-1.247,0.782C144.11,132.188,143.904,132.144,143.711,132.051z
				 M336.148,120.457c-0.723-1.144-1.468-2.274-2.233-3.389c-0.431-0.631-0.27-1.492,0.36-1.924c0.631-0.432,1.49-0.271,1.924,0.359
				c0.784,1.144,1.546,2.303,2.289,3.476c0.408,0.646,0.215,1.5-0.431,1.908c-0.23,0.145-0.485,0.214-0.738,0.214
				C336.859,121.102,336.411,120.874,336.148,120.457z M152.488,116.612c-0.627-0.437-0.779-1.3-0.344-1.927
				c0.793-1.136,1.607-2.257,2.442-3.361c0.461-0.61,1.333-0.731,1.938-0.27c0.61,0.461,0.731,1.329,0.27,1.938
				c-0.814,1.076-1.608,2.169-2.379,3.276c-0.269,0.386-0.698,0.592-1.136,0.592C153.005,116.861,152.73,116.78,152.488,116.612z
				 M325.605,106.418c-0.896-1.012-1.81-2.008-2.743-2.985c-0.527-0.553-0.506-1.428,0.046-1.956
				c0.553-0.529,1.428-0.509,1.956,0.045c0.958,1.003,1.895,2.025,2.813,3.064c0.506,0.572,0.453,1.446-0.12,1.952
				c-0.264,0.233-0.591,0.347-0.917,0.347C326.259,106.885,325.878,106.727,325.605,106.418z M163.625,102.769
				c-0.549-0.532-0.564-1.407-0.033-1.956c0.963-0.996,1.949-1.973,2.95-2.932c0.55-0.527,1.427-0.51,1.956,0.043
				c0.528,0.552,0.509,1.428-0.043,1.956c-0.977,0.934-1.935,1.886-2.874,2.856c-0.271,0.281-0.632,0.422-0.995,0.422
				C164.24,103.158,163.894,103.029,163.625,102.769z M312.962,94.246c-1.044-0.856-2.105-1.692-3.182-2.51
				c-0.608-0.463-0.725-1.331-0.263-1.939c0.462-0.608,1.328-0.727,1.939-0.265c1.101,0.838,2.188,1.696,3.261,2.572
				c0.59,0.485,0.678,1.356,0.193,1.947c-0.273,0.335-0.67,0.508-1.072,0.508C313.53,94.559,313.22,94.456,312.962,94.246z
				 M176.831,90.872c-0.456-0.613-0.33-1.48,0.282-1.936c1.112-0.827,2.241-1.636,3.382-2.423c0.628-0.435,1.493-0.276,1.924,0.354
				c0.433,0.629,0.276,1.49-0.354,1.924c-1.115,0.768-2.213,1.557-3.298,2.365c-0.248,0.184-0.539,0.273-0.826,0.273
				C177.519,91.429,177.102,91.237,176.831,90.872z M298.545,84.253c-1.166-0.677-2.346-1.332-3.537-1.966
				c-0.675-0.358-0.931-1.196-0.572-1.871c0.36-0.674,1.197-0.931,1.872-0.572c1.221,0.65,2.43,1.322,3.626,2.015
				c0.661,0.383,0.886,1.23,0.503,1.891c-0.256,0.443-0.721,0.689-1.198,0.689C299.003,84.439,298.763,84.379,298.545,84.253z
				 M191.776,81.237c-0.351-0.678-0.087-1.513,0.591-1.865c1.23-0.64,2.474-1.257,3.73-1.852c0.688-0.328,1.516-0.032,1.843,0.659
				c0.327,0.691,0.031,1.516-0.66,1.842c-1.224,0.58-2.437,1.182-3.638,1.806c-0.204,0.106-0.422,0.156-0.636,0.156
				C192.505,81.983,192.023,81.711,191.776,81.237z M282.711,76.702c-1.261-0.48-2.532-0.938-3.814-1.372
				c-0.723-0.245-1.111-1.031-0.866-1.755c0.246-0.723,1.031-1.11,1.755-0.867c1.314,0.445,2.619,0.915,3.912,1.407
				c0.713,0.272,1.071,1.072,0.8,1.786c-0.211,0.552-0.736,0.892-1.293,0.892C283.04,76.793,282.873,76.763,282.711,76.702z
				 M208.084,74.13c-0.238-0.725,0.157-1.507,0.882-1.746c1.313-0.432,2.639-0.839,3.974-1.223c0.743-0.213,1.501,0.214,1.711,0.947
				c0.211,0.734-0.213,1.501-0.947,1.712c-1.303,0.374-2.593,0.772-3.873,1.193c-0.144,0.047-0.29,0.07-0.433,0.07
				C208.816,75.082,208.276,74.713,208.084,74.13z M265.862,71.804c-1.32-0.269-2.649-0.516-3.986-0.737
				c-0.753-0.125-1.264-0.837-1.139-1.591c0.124-0.753,0.839-1.269,1.59-1.139c1.374,0.227,2.737,0.479,4.089,0.757
				c0.748,0.153,1.232,0.885,1.078,1.633c-0.133,0.654-0.711,1.106-1.354,1.106C266.049,71.832,265.956,71.823,265.862,71.804z
				 M225.308,69.754c-0.118-0.755,0.399-1.463,1.153-1.581c1.366-0.214,2.739-0.403,4.119-0.567
				c0.748-0.082,1.447,0.453,1.536,1.211c0.089,0.759-0.452,1.447-1.212,1.537c-1.346,0.159-2.683,0.343-4.014,0.552
				c-0.073,0.011-0.146,0.017-0.216,0.017C226.004,70.924,225.417,70.437,225.308,69.754z M248.442,69.683
				c-1.346-0.055-2.695-0.086-4.053-0.092c-0.764-0.004-1.38-0.626-1.377-1.39c0.004-0.762,0.622-1.378,1.384-1.378
				c0.002,0,0.004,0,0.007,0c1.391,0.006,2.775,0.038,4.154,0.095c0.763,0.031,1.357,0.676,1.325,1.439
				c-0.031,0.744-0.643,1.327-1.381,1.327C248.482,69.685,248.461,69.684,248.442,69.683z"/>
		</g>
	</g>
	<g>
		<g>
			<line fill="#FFFFFF" x1="509.544" y1="310.912" x2="10.543" y2="310.912"/>
		</g>
		<g>
			<path fill="#288EEA" d="M10.543,312.296h499.001c0.764,0,1.383-0.619,1.383-1.384c0-0.764-0.619-1.384-1.383-1.384H10.543
				c-0.764,0-1.384,0.619-1.384,1.384C9.159,311.677,9.778,312.296,10.543,312.296z"/>
		</g>
	</g>
	<g>
		<g>
			<path fill="#DDDDDD" d="M90.013,73.094c0,9.663,7.861,17.525,17.524,17.525c9.663,0,17.525-7.863,17.525-17.525
				c0-9.663-7.862-17.525-17.525-17.525C97.874,55.569,90.013,63.431,90.013,73.094z M96.931,73.094
				c0-5.85,4.759-10.607,10.606-10.607c5.849,0,10.607,4.758,10.607,10.607c0,5.849-4.758,10.607-10.607,10.607
				C101.69,83.701,96.931,78.943,96.931,73.094z"/>
		</g>
	</g>
	<g>
		<g>
			<path fill="#288EEA" d="M96.942,73.298c0.109,5.754,4.817,10.403,10.595,10.403c5.848,0,10.607-4.759,10.607-10.607
				c0-5.85-4.759-10.607-10.607-10.607c-0.096,0-0.188,0.011-0.284,0.014v-6.918c0.095-0.002,0.188-0.015,0.284-0.015
				c9.664,0,17.525,7.862,17.525,17.525c0,9.663-7.861,17.525-17.525,17.525c-9.594,0-17.402-7.753-17.513-17.321H96.942z"/>
		</g>
	</g>
	<g>
		<g>
			<circle fill="#FFFFFF" cx="364.044" cy="94.83" r="0.821"/>
		</g>
	</g>
	<g>
		<g>
			<circle fill="#FFFFFF" cx="360.801" cy="94.83" r="0.821"/>
		</g>
	</g>
	<g>
		<g>
			<circle fill="#FFFFFF" cx="357.559" cy="94.83" r="0.821"/>
		</g>
	</g>
	<g>
		<g>
			<line fill="#FFFFFF" x1="521.919" y1="310.912" x2="561.696" y2="310.912"/>
		</g>
		<g>
			<path fill="#288EEA" d="M521.919,312.296h39.777c0.764,0,1.383-0.619,1.383-1.384c0-0.764-0.619-1.384-1.383-1.384h-39.777
				c-0.764,0-1.384,0.619-1.384,1.384C520.535,311.677,521.155,312.296,521.919,312.296z"/>
		</g>
	</g>
	<g>
		<g>
			<circle fill-rule="evenodd" clip-rule="evenodd" fill="#EDEDED" cx="376.703" cy="85.577" r="1.654"/>
		</g>
	</g>
	<g>
		<g>
			<circle fill-rule="evenodd" clip-rule="evenodd" fill="#EDEDED" cx="493.729" cy="114.224" r="1.654"/>
		</g>
	</g>
	<g>
		<g>
			<circle fill-rule="evenodd" clip-rule="evenodd" fill="#EDEDED" cx="443.5" cy="95.955" r="1.654"/>
		</g>
	</g>
	<g>
		<g>
			<circle fill-rule="evenodd" clip-rule="evenodd" fill="#288EEA" cx="364.865" cy="74.739" r="1.654"/>
		</g>
	</g>
	<g>
		<g>
			<circle fill-rule="evenodd" clip-rule="evenodd" fill="#288EEA" cx="435.966" cy="90.787" r="1.654"/>
		</g>
	</g>
	<g>
		<g>
			<circle fill-rule="evenodd" clip-rule="evenodd" fill="#288EEA" cx="537.887" cy="172.547" r="1.654"/>
		</g>
	</g>
	<g>
		<g>
			<circle fill-rule="evenodd" clip-rule="evenodd" fill="#288EEA" cx="484.235" cy="146.824" r="1.654"/>
		</g>
	</g>
	<g>
		<g>
			<circle fill-rule="evenodd" clip-rule="evenodd" fill="#EDEDED" cx="198.073" cy="123.575" r="1.654"/>
		</g>
	</g>
	<g>
		<g>
			<circle fill-rule="evenodd" clip-rule="evenodd" fill="#80C9FF" cx="225.501" cy="43.705" r="1.654"/>
		</g>
	</g>
	<g>
		<g>
			<circle fill-rule="evenodd" clip-rule="evenodd" fill="#80C9FF" cx="151.17" cy="120.774" r="1.654"/>
		</g>
	</g>
	<g>
		<g>
			<g>
				<path fill-rule="evenodd" clip-rule="evenodd" fill="#80C9FF" d="M298.072,42.321c0,0.669,0.542,1.21,1.211,1.21l0,0
					c0.669,0,1.211-0.542,1.211-1.21v-5.88c0-0.669-0.542-1.21-1.211-1.21l0,0c-0.668,0-1.211,0.542-1.211,1.21V42.321z"/>
			</g>
		</g>
		<g>
			<g>
				<path fill-rule="evenodd" clip-rule="evenodd" fill="#80C9FF" d="M298.072,53.794c0,0.669,0.542,1.21,1.211,1.21l0,0
					c0.669,0,1.211-0.542,1.211-1.21v-5.88c0-0.669-0.542-1.21-1.211-1.21l0,0c-0.668,0-1.211,0.542-1.211,1.21V53.794z"/>
			</g>
		</g>
		<g>
			<g>
				<path fill-rule="evenodd" clip-rule="evenodd" fill="#80C9FF" d="M296.487,46.126c0.669,0,1.211-0.541,1.211-1.21l0,0
					c0-0.669-0.541-1.21-1.211-1.21h-5.88c-0.669,0-1.211,0.542-1.211,1.21l0,0c0,0.669,0.542,1.21,1.211,1.21H296.487z"/>
			</g>
		</g>
		<g>
			<g>
				<path fill-rule="evenodd" clip-rule="evenodd" fill="#80C9FF" d="M307.96,46.126c0.669,0,1.211-0.541,1.211-1.21l0,0
					c0-0.669-0.541-1.21-1.211-1.21h-5.88c-0.669,0-1.211,0.542-1.211,1.21l0,0c0,0.669,0.542,1.21,1.211,1.21H307.96z"/>
			</g>
		</g>
	</g>
	<g>
		<g>
			<g>
				<path fill-rule="evenodd" clip-rule="evenodd" fill="#EDEDED" d="M459.933,140.481c0,0.497,0.403,0.9,0.9,0.9l0,0
					c0.497,0,0.9-0.403,0.9-0.9v-4.372c0-0.497-0.402-0.9-0.9-0.9l0,0c-0.497,0-0.9,0.403-0.9,0.9V140.481z"/>
			</g>
		</g>
		<g>
			<g>
				<path fill-rule="evenodd" clip-rule="evenodd" fill="#EDEDED" d="M459.933,149.01c0,0.497,0.403,0.9,0.9,0.9l0,0
					c0.497,0,0.9-0.402,0.9-0.9v-4.372c0-0.497-0.402-0.9-0.9-0.9l0,0c-0.497,0-0.9,0.403-0.9,0.9V149.01z"/>
			</g>
		</g>
		<g>
			<g>
				<path fill-rule="evenodd" clip-rule="evenodd" fill="#EDEDED" d="M458.755,143.309c0.497,0,0.9-0.402,0.9-0.9l0,0
					c0-0.497-0.403-0.9-0.9-0.9h-4.372c-0.497,0-0.9,0.403-0.9,0.9l0,0c0,0.497,0.402,0.9,0.9,0.9H458.755z"/>
			</g>
		</g>
		<g>
			<g>
				<path fill-rule="evenodd" clip-rule="evenodd" fill="#EDEDED" d="M467.284,143.309c0.497,0,0.9-0.402,0.9-0.9l0,0
					c0-0.497-0.403-0.9-0.9-0.9h-4.372c-0.497,0-0.9,0.403-0.9,0.9l0,0c0,0.497,0.402,0.9,0.9,0.9H467.284z"/>
			</g>
		</g>
	</g>
	<g>
		<g>
			<g>
				<path fill-rule="evenodd" clip-rule="evenodd" fill="#EDEDED" d="M505.561,153.138c0,0.497,0.402,0.9,0.9,0.9l0,0
					c0.497,0,0.9-0.402,0.9-0.9v-4.372c0-0.497-0.403-0.9-0.9-0.9l0,0c-0.497,0-0.9,0.403-0.9,0.9V153.138z"/>
			</g>
		</g>
		<g>
			<g>
				<path fill-rule="evenodd" clip-rule="evenodd" fill="#EDEDED" d="M505.561,161.666c0,0.497,0.402,0.9,0.9,0.9l0,0
					c0.497,0,0.9-0.402,0.9-0.9v-4.372c0-0.497-0.403-0.9-0.9-0.9l0,0c-0.497,0-0.9,0.403-0.9,0.9V161.666z"/>
			</g>
		</g>
		<g>
			<g>
				<path fill-rule="evenodd" clip-rule="evenodd" fill="#EDEDED" d="M504.382,155.966c0.497,0,0.9-0.402,0.9-0.9l0,0
					c0-0.497-0.403-0.9-0.9-0.9h-4.371c-0.497,0-0.9,0.403-0.9,0.9l0,0c0,0.497,0.403,0.9,0.9,0.9H504.382z"/>
			</g>
		</g>
		<g>
			<g>
				<path fill-rule="evenodd" clip-rule="evenodd" fill="#EDEDED" d="M512.912,155.966c0.497,0,0.9-0.402,0.9-0.9l0,0
					c0-0.497-0.403-0.9-0.9-0.9h-4.372c-0.497,0-0.9,0.403-0.9,0.9l0,0c0,0.497,0.402,0.9,0.9,0.9H512.912z"/>
			</g>
		</g>
	</g>
	<g>
		<g>
			<g>
				<path fill-rule="evenodd" clip-rule="evenodd" fill="#80C9FF" d="M170.2,122.413c0,0.388,0.315,0.702,0.702,0.702l0,0
					c0.388,0,0.703-0.314,0.703-0.702v-3.412c0-0.388-0.314-0.702-0.703-0.702l0,0c-0.388,0-0.702,0.314-0.702,0.702V122.413z"/>
			</g>
		</g>
		<g>
			<g>
				<path fill-rule="evenodd" clip-rule="evenodd" fill="#80C9FF" d="M170.2,129.069c0,0.388,0.315,0.702,0.702,0.702l0,0
					c0.388,0,0.703-0.314,0.703-0.702v-3.412c0-0.388-0.314-0.702-0.703-0.702l0,0c-0.388,0-0.702,0.314-0.702,0.702V129.069z"/>
			</g>
		</g>
		<g>
			<g>
				<path fill-rule="evenodd" clip-rule="evenodd" fill="#80C9FF" d="M169.281,124.62c0.388,0,0.702-0.314,0.702-0.702l0,0
					c0-0.388-0.314-0.702-0.702-0.702h-3.411c-0.388,0-0.702,0.314-0.702,0.702l0,0c0,0.388,0.314,0.702,0.702,0.702H169.281z"/>
			</g>
		</g>
		<g>
			<g>
				<path fill-rule="evenodd" clip-rule="evenodd" fill="#80C9FF" d="M175.937,124.62c0.388,0,0.702-0.314,0.702-0.702l0,0
					c0-0.388-0.314-0.702-0.702-0.702h-3.411c-0.388,0-0.702,0.314-0.702,0.702l0,0c0,0.388,0.314,0.702,0.702,0.702H175.937z"/>
			</g>
		</g>
	</g>
	<g>
		<g>
			<g>
				<path fill="#80C9FF" d="M361.694,93.656h17.688c0.581,0,1.1-0.364,1.3-0.909c0.537-1.471,1.467-2.769,2.69-3.752
					c0.53-0.426,0.671-1.174,0.334-1.764c-0.919-1.611-1.405-3.435-1.405-5.277c0-5.882,4.786-10.667,10.668-10.667
					c0.737,0,1.484,0.079,2.221,0.235c0.384,0.08,0.782-0.004,1.1-0.233c0.317-0.23,0.522-0.584,0.563-0.973
					c1.368-12.788,12.11-22.432,24.988-22.432c13.86,0,25.136,11.276,25.136,25.135c0,1.45-0.133,2.937-0.396,4.418
					c-0.067,0.382,0.029,0.774,0.264,1.082c0.236,0.308,0.59,0.503,0.976,0.537c6.283,0.556,11.022,5.735,11.022,12.046
					c0,0.355-0.024,0.703-0.054,1.05c-0.034,0.387,0.096,0.769,0.358,1.055c0.262,0.286,0.632,0.449,1.02,0.449h10.231
					c0.764,0,1.384-0.619,1.384-1.384c0-0.764-0.62-1.384-1.384-1.384h-8.79c-0.099-7.164-5.17-13.099-12.087-14.39
					c0.148-1.168,0.222-2.333,0.222-3.48c0-15.386-12.517-27.902-27.903-27.902c-13.81,0-25.408,9.991-27.549,23.469
					c-0.442-0.044-0.884-0.066-1.323-0.066c-7.409,0-13.435,6.027-13.435,13.435c0,1.947,0.43,3.877,1.25,5.645
					c-0.964,0.95-1.752,2.064-2.324,3.291h-16.766c-0.764,0-1.384,0.619-1.384,1.384C360.311,93.037,360.93,93.656,361.694,93.656z"
					/>
			</g>
		</g>
	</g>
	<g>
		<g>
			<g>
				<path fill="#80C9FF" d="M285.45,77.372h29.358c0.581,0,1.1-0.363,1.3-0.909c0.372-1.021,1.019-1.922,1.87-2.607
					c0.529-0.426,0.67-1.173,0.333-1.763c-0.646-1.132-0.988-2.415-0.988-3.71c0-4.135,3.364-7.5,7.5-7.5
					c0.519,0,1.044,0.056,1.56,0.166c0.384,0.081,0.782-0.003,1.1-0.233c0.317-0.23,0.522-0.584,0.563-0.973
					c0.989-9.241,8.752-16.21,18.058-16.21c10.016,0,18.165,8.148,18.165,18.164c0,1.049-0.096,2.124-0.286,3.193
					c-0.068,0.382,0.028,0.775,0.263,1.083c0.236,0.308,0.59,0.502,0.976,0.537c4.442,0.393,7.793,4.055,7.793,8.517
					c0,0.251-0.017,0.496-0.039,0.742c-0.034,0.386,0.096,0.769,0.358,1.055c0.262,0.286,0.632,0.449,1.02,0.449h7.542
					c0.764,0,1.384-0.62,1.384-1.384c0-0.764-0.62-1.384-1.384-1.384h-6.126c-0.23-5.18-3.879-9.45-8.862-10.533
					c0.085-0.763,0.127-1.524,0.127-2.275c0-11.541-9.39-20.931-20.932-20.931c-10.246,0-18.867,7.33-20.61,17.273
					c-5.908-0.389-10.938,4.36-10.938,10.244c0,1.404,0.292,2.796,0.851,4.082c-0.607,0.634-1.116,1.356-1.507,2.14H285.45
					c-0.764,0-1.384,0.62-1.384,1.384C284.066,76.752,284.686,77.372,285.45,77.372z"/>
			</g>
		</g>
	</g>
	<g>
		<g>
			<path fill="#80C9FF" d="M98.175,112.035h14.949c0.765,0,1.384-0.619,1.384-1.384c0-0.764-0.619-1.384-1.384-1.384H99.518
				c-0.352-2.537-2.129-4.609-4.543-5.359c0.015-0.235,0.021-0.468,0.021-0.698c0-6.415-5.218-11.633-11.633-11.633
				c-2.791,0-5.406,0.973-7.464,2.706c-0.881-5.547-5.697-9.8-11.488-9.8c-5.502,0-10.162,3.805-11.344,9.048
				c-3.245,0.099-5.855,2.77-5.855,6.039c0,0.684,0.117,1.364,0.345,2.007c-0.154,0.189-0.293,0.388-0.42,0.597h-6.776
				c-0.764,0-1.384,0.619-1.384,1.384c0,0.764,0.619,1.384,1.384,1.384h7.64c0.581,0,1.1-0.364,1.3-0.91
				c0.154-0.422,0.423-0.796,0.776-1.081c0.528-0.426,0.668-1.172,0.334-1.762c-0.286-0.501-0.431-1.046-0.431-1.619
				c0-2.03,1.89-3.644,3.956-3.202c0.386,0.078,0.782-0.005,1.1-0.234c0.316-0.23,0.52-0.583,0.562-0.972
				c0.483-4.51,4.271-7.912,8.814-7.912c4.888,0,8.866,3.977,8.866,8.866c0,0.512-0.047,1.038-0.139,1.562
				c-0.068,0.386,0.032,0.783,0.275,1.092c0.241,0.309,0.604,0.501,0.994,0.527c0.526,0.045,1.097-0.209,1.366-0.653
				c1.624-2.692,4.461-4.299,7.59-4.299c4.889,0,8.867,3.977,8.867,8.865c0,0.507-0.047,1.032-0.141,1.562
				c-0.066,0.382,0.029,0.774,0.265,1.081c0.237,0.308,0.591,0.502,0.977,0.537c1.986,0.176,3.484,1.814,3.484,3.81
				c0,0.111-0.008,0.219-0.017,0.327c-0.035,0.387,0.094,0.772,0.357,1.058C97.416,111.872,97.786,112.035,98.175,112.035z"/>
		</g>
	</g>
	<g>
		<g>
			<path fill="#288EEA" d="M287.714,132.537c-1.213-0.502-1.953-1.674-1.886-2.984c0.025-0.499-0.155-0.968-0.508-1.321
				c-0.353-0.353-0.82-0.533-1.321-0.508c-1.306,0.064-2.482-0.673-2.984-1.886c-0.502-1.213-0.197-2.564,0.777-3.443
				c0.371-0.335,0.575-0.794,0.575-1.294c0-0.499-0.204-0.958-0.575-1.293c-0.974-0.879-1.279-2.231-0.777-3.443
				c0.502-1.213,1.679-1.952,2.985-1.886c0.495,0.027,0.967-0.155,1.32-0.508c0.353-0.353,0.534-0.822,0.508-1.321
				c-0.067-1.31,0.673-2.482,1.885-2.984c1.213-0.502,2.564-0.197,3.444,0.777l0,0c0.335,0.371,0.794,0.575,1.293,0.575
				c0.499,0,0.959-0.204,1.293-0.575c0.88-0.974,2.232-1.279,3.444-0.777c1.212,0.502,1.952,1.674,1.885,2.984
				c-0.025,0.499,0.155,0.968,0.508,1.321c0.353,0.353,0.821,0.536,1.321,0.508c1.306-0.072,2.482,0.673,2.984,1.885
				c0.502,1.213,0.197,2.564-0.777,3.444c-0.371,0.335-0.575,0.794-0.575,1.293c0,0.499,0.204,0.959,0.575,1.294
				c0.974,0.879,1.279,2.231,0.777,3.443c-0.502,1.213-1.672,1.955-2.984,1.886c-0.499-0.025-0.968,0.156-1.321,0.508
				c-0.353,0.353-0.533,0.822-0.508,1.321c0.067,1.31-0.673,2.482-1.886,2.984c-1.212,0.502-2.564,0.197-3.443-0.777
				c-0.335-0.371-0.794-0.575-1.293-0.575c-0.499,0-0.958,0.204-1.293,0.575c-0.598,0.663-1.415,1.015-2.257,1.015
				C288.504,132.776,288.102,132.698,287.714,132.537z M294.723,130.877c0.608,0.673,1.411,0.669,1.96,0.442
				c0.549-0.228,1.119-0.793,1.073-1.699c-0.044-0.864,0.281-1.709,0.892-2.32s1.461-0.943,2.321-0.893
				c0.905,0.045,1.471-0.524,1.699-1.073c0.227-0.549,0.231-1.352-0.442-1.96c-0.642-0.58-1.01-1.408-1.01-2.272
				c0-0.864,0.368-1.693,1.01-2.272c0.673-0.608,0.669-1.411,0.442-1.96c-0.228-0.55-0.801-1.12-1.698-1.073
				c-0.864,0.046-1.71-0.281-2.321-0.892c-0.611-0.611-0.937-1.458-0.892-2.321c0.046-0.905-0.524-1.471-1.073-1.699
				c-0.549-0.227-1.353-0.23-1.96,0.442c-0.579,0.642-1.407,1.01-2.272,1.01c-0.864,0-1.693-0.368-2.272-1.01
				c-0.608-0.672-1.411-0.669-1.96-0.442c-0.549,0.228-1.119,0.793-1.073,1.699c0.044,0.863-0.281,1.71-0.893,2.321
				c-0.611,0.611-1.46,0.942-2.32,0.892c-0.903-0.039-1.471,0.524-1.699,1.073c-0.228,0.549-0.231,1.353,0.442,1.96
				c0.642,0.579,1.01,1.407,1.01,2.272c0,0.865-0.368,1.693-1.01,2.272c-0.673,0.607-0.669,1.411-0.442,1.959
				c0.228,0.549,0.786,1.112,1.699,1.074c0.865-0.047,1.709,0.281,2.32,0.892c0.611,0.611,0.937,1.457,0.892,2.32
				c-0.046,0.906,0.524,1.471,1.073,1.699c0.549,0.227,1.353,0.231,1.96-0.442c0.579-0.642,1.407-1.01,2.272-1.01
				C293.316,129.867,294.144,130.235,294.723,130.877z"/>
		</g>
	</g>
	<g>
		<path fill="#F0FBFF" d="M284.902,122.419c-1.239,1.119-0.388,3.174,1.28,3.089c1.05-0.054,1.916,0.813,1.863,1.863
			c-0.085,1.668,1.97,2.519,3.089,1.28l0,0c0.705-0.781,1.93-0.781,2.634,0l0,0c1.119,1.239,3.174,0.388,3.089-1.28
			c-0.054-1.05,0.813-1.916,1.863-1.863h0c1.668,0.085,2.519-1.97,1.28-3.089c-0.78-0.705-0.78-1.93,0-2.634
			c1.239-1.119,0.388-3.174-1.28-3.089h0c-1.05,0.054-1.916-0.813-1.863-1.863c0.085-1.668-1.97-2.519-3.089-1.28v0
			c-0.705,0.78-1.93,0.78-2.634,0v0c-1.119-1.239-3.174-0.388-3.089,1.28c0.054,1.05-0.813,1.916-1.863,1.863
			c-1.668-0.085-2.519,1.97-1.28,3.089C285.683,120.489,285.683,121.714,284.902,122.419z M288.292,121.102
			c0-2.297,1.862-4.159,4.159-4.159c2.297,0,4.159,1.862,4.159,4.159c0,2.297-1.862,4.159-4.159,4.159
			C290.154,125.261,288.292,123.399,288.292,121.102z"/>
	</g>
	<g>
		<path fill="#288EEA" d="M292.451,137.429c-0.294,0-0.531-0.238-0.531-0.531c0-0.294,0.238-0.531,0.531-0.531
			c1.728,0,3.424-0.286,5.039-0.852c0.278-0.096,0.58,0.05,0.677,0.326c0.097,0.277-0.049,0.58-0.326,0.677
			C296.113,137.122,294.299,137.429,292.451,137.429z M276.655,121.567c-0.001,0-0.002,0-0.002,0
			c-0.294-0.001-0.53-0.24-0.529-0.533c0.007-1.847,0.321-3.659,0.933-5.385c0.098-0.277,0.403-0.421,0.678-0.323
			c0.277,0.098,0.421,0.402,0.323,0.678c-0.571,1.613-0.865,3.307-0.872,5.034C277.186,121.331,276.948,121.567,276.655,121.567z
			 M306.697,114.801c-0.198,0-0.388-0.111-0.48-0.301c-0.369-0.769-0.807-1.513-1.302-2.211c-0.17-0.24-0.113-0.571,0.127-0.741
			c0.24-0.17,0.571-0.113,0.741,0.127c0.528,0.747,0.997,1.542,1.392,2.364c0.127,0.265,0.016,0.582-0.249,0.709
			C306.853,114.785,306.774,114.801,306.697,114.801z M278.65,113.941c-0.088,0-0.176-0.022-0.258-0.067
			c-0.256-0.143-0.348-0.467-0.205-0.723c2.886-5.167,8.352-8.376,14.264-8.376c3.422,0,6.7,1.048,9.476,3.03
			c0.239,0.17,0.294,0.502,0.124,0.741c-0.169,0.239-0.502,0.295-0.741,0.124c-2.595-1.853-5.659-2.832-8.858-2.832
			c-5.528,0-10.638,3.001-13.336,7.831C279.017,113.843,278.836,113.941,278.65,113.941z"/>
	</g>
	<g>
		<g>
			<path fill="#288EEA" d="M86.095,223.951c-1.444-0.598-2.326-1.994-2.246-3.555c0.03-0.594-0.185-1.153-0.606-1.573
				c-0.42-0.421-0.977-0.635-1.573-0.606c-1.556,0.076-2.956-0.802-3.555-2.246c-0.598-1.444-0.235-3.055,0.926-4.102
				c0.442-0.399,0.685-0.946,0.685-1.541c0-0.595-0.244-1.142-0.685-1.54c-1.161-1.047-1.524-2.658-0.926-4.102
				c0.598-1.445,2.001-2.325,3.556-2.246c0.59,0.032,1.153-0.184,1.573-0.605c0.421-0.421,0.636-0.98,0.606-1.574
				c-0.08-1.561,0.802-2.956,2.246-3.555c1.444-0.598,3.055-0.235,4.102,0.926l0,0c0.398,0.441,0.946,0.685,1.54,0.685
				c0.595,0,1.142-0.243,1.541-0.685c1.048-1.161,2.658-1.524,4.102-0.926c1.444,0.598,2.326,1.994,2.246,3.555
				c-0.03,0.594,0.184,1.153,0.605,1.573c0.42,0.421,0.978,0.639,1.574,0.605c1.556-0.086,2.956,0.802,3.555,2.246
				c0.598,1.444,0.235,3.055-0.925,4.102c-0.441,0.399-0.685,0.946-0.685,1.54c0,0.595,0.243,1.142,0.685,1.541
				c1.161,1.048,1.524,2.658,0.925,4.102c-0.598,1.444-1.991,2.329-3.555,2.246c-0.595-0.03-1.153,0.185-1.574,0.606
				c-0.42,0.42-0.635,0.979-0.605,1.573c0.08,1.561-0.802,2.957-2.246,3.555c-1.444,0.598-3.055,0.235-4.102-0.925
				c-0.398-0.441-0.946-0.685-1.541-0.685c-0.595,0-1.142,0.243-1.54,0.685c-0.713,0.789-1.685,1.21-2.689,1.21
				C87.036,224.235,86.557,224.142,86.095,223.951z M94.444,221.973c0.724,0.801,1.68,0.797,2.335,0.527
				c0.654-0.271,1.334-0.945,1.279-2.024c-0.053-1.029,0.334-2.036,1.063-2.764c0.728-0.728,1.74-1.123,2.765-1.064
				c1.078,0.054,1.753-0.624,2.024-1.279c0.271-0.654,0.275-1.611-0.527-2.335c-0.764-0.69-1.203-1.677-1.203-2.707
				c0-1.03,0.439-2.016,1.203-2.706c0.802-0.724,0.797-1.681,0.527-2.335c-0.271-0.655-0.955-1.335-2.023-1.279
				c-1.029,0.054-2.037-0.335-2.765-1.063c-0.728-0.728-1.116-1.736-1.063-2.765c0.055-1.079-0.624-1.752-1.279-2.024
				c-0.654-0.271-1.611-0.274-2.335,0.527c-0.69,0.765-1.677,1.203-2.707,1.203c-1.03,0-2.016-0.438-2.706-1.203
				c-0.724-0.801-1.681-0.797-2.335-0.527c-0.654,0.271-1.334,0.945-1.279,2.024c0.052,1.029-0.335,2.037-1.064,2.765
				c-0.728,0.728-1.74,1.123-2.764,1.063c-1.076-0.047-1.753,0.624-2.024,1.279c-0.271,0.654-0.275,1.611,0.527,2.335
				c0.764,0.69,1.203,1.676,1.203,2.706c0,1.03-0.439,2.017-1.204,2.707c-0.801,0.723-0.797,1.68-0.527,2.334
				c0.271,0.654,0.936,1.325,2.024,1.279c1.031-0.056,2.036,0.335,2.764,1.063c0.728,0.728,1.116,1.736,1.063,2.764
				c-0.055,1.079,0.624,1.753,1.279,2.024c0.654,0.271,1.611,0.275,2.335-0.527c0.69-0.765,1.677-1.203,2.706-1.203
				C92.768,220.77,93.754,221.208,94.444,221.973z"/>
		</g>
	</g>
	<g>
		<path fill="#288EEA" d="M82.745,211.897c-1.476,1.333-0.462,3.782,1.524,3.68c1.251-0.064,2.283,0.968,2.219,2.219
			c-0.101,1.987,2.347,3.001,3.68,1.524l0,0c0.839-0.93,2.299-0.93,3.138,0l0,0c1.333,1.476,3.782,0.462,3.68-1.524
			c-0.064-1.251,0.968-2.283,2.219-2.219l0,0c1.987,0.102,3.001-2.347,1.524-3.68c-0.93-0.839-0.93-2.299,0-3.138
			c1.476-1.333,0.462-3.782-1.524-3.68l0,0c-1.251,0.064-2.283-0.968-2.219-2.219c0.101-1.987-2.347-3.001-3.68-1.524v0
			c-0.839,0.93-2.299,0.93-3.138,0v0c-1.333-1.476-3.782-0.462-3.68,1.524c0.064,1.251-0.968,2.283-2.219,2.219
			c-1.987-0.101-3.001,2.347-1.524,3.68C83.675,209.598,83.675,211.057,82.745,211.897z M86.783,210.328
			c0-2.736,2.218-4.955,4.955-4.955c2.736,0,4.955,2.218,4.955,4.955c0,2.736-2.218,4.955-4.955,4.955
			C89.001,215.282,86.783,213.064,86.783,210.328z"/>
	</g>
	<g>
		<path fill="#288EEA" d="M91.738,229.676c-3.215,0-6.4-0.805-9.208-2.328c-0.258-0.14-0.354-0.462-0.214-0.72
			c0.14-0.257,0.463-0.353,0.72-0.214c2.654,1.439,5.663,2.199,8.702,2.199c1.732,0,3.446-0.242,5.094-0.719
			c0.283-0.08,0.577,0.081,0.659,0.363c0.081,0.282-0.081,0.577-0.363,0.659C95.383,229.42,93.57,229.676,91.738,229.676z
			 M78.528,224.26c-0.135,0-0.269-0.051-0.373-0.153c-0.646-0.637-1.253-1.326-1.804-2.047c-0.178-0.233-0.133-0.567,0.1-0.745
			c0.234-0.179,0.567-0.132,0.745,0.1c0.521,0.681,1.094,1.333,1.705,1.935c0.209,0.206,0.211,0.542,0.005,0.751
			C78.802,224.207,78.665,224.26,78.528,224.26z M110.414,208.551c-0.265,0-0.494-0.197-0.527-0.467
			c-0.105-0.853-0.27-1.704-0.494-2.531c-0.076-0.283,0.092-0.575,0.375-0.651c0.282-0.077,0.575,0.092,0.651,0.375
			c0.236,0.875,0.411,1.776,0.522,2.678c0.036,0.292-0.171,0.557-0.462,0.592C110.457,208.55,110.435,208.551,110.414,208.551z
			 M107.818,201.081c-0.179,0-0.354-0.091-0.454-0.255c-3.352-5.5-9.194-8.783-15.626-8.783c-2.39,0-4.713,0.454-6.905,1.349
			c-0.272,0.111-0.582-0.019-0.693-0.291c-0.111-0.272,0.019-0.582,0.291-0.693c2.32-0.947,4.778-1.428,7.307-1.428
			c6.806,0,12.987,3.474,16.533,9.293c0.153,0.251,0.074,0.578-0.177,0.73C108.008,201.056,107.912,201.081,107.818,201.081z
			 M78.1,197.895c-0.132,0-0.263-0.048-0.366-0.146c-0.212-0.202-0.221-0.539-0.019-0.751c1.258-1.323,2.693-2.461,4.267-3.381
			c0.252-0.148,0.578-0.064,0.727,0.19c0.148,0.253,0.063,0.579-0.19,0.727c-1.487,0.87-2.845,1.946-4.034,3.197
			C78.381,197.84,78.241,197.895,78.1,197.895z"/>
	</g>
	<g>
		<path fill="#028EEA" d="M292.451,126.595c-3.09,0-5.604-2.514-5.604-5.603c0-3.09,2.514-5.604,5.604-5.604
			c3.089,0,5.603,2.514,5.603,5.604C298.054,124.081,295.54,126.595,292.451,126.595z M292.451,116.451
			c-2.504,0-4.541,2.037-4.541,4.541c0,2.503,2.037,4.54,4.541,4.54c2.503,0,4.54-2.037,4.54-4.54
			C296.991,118.488,294.954,116.451,292.451,116.451z"/>
	</g>
	<g>
		<path fill="#DDDDDD" d="M350.39,99.624c-0.552,0-1.093-0.216-1.501-0.624l-6.069-6.069c-0.402-0.401-0.623-0.935-0.623-1.502
			s0.221-1.102,0.623-1.503l6.069-6.069c0.61-0.609,1.517-0.791,2.316-0.461c0.797,0.331,1.312,1.101,1.312,1.964v12.138
			c0,0.863-0.515,1.634-1.312,1.964C350.941,99.571,350.664,99.624,350.39,99.624z M350.392,85.361l-6.068,6.069l6.069,6.068
			L350.392,85.361z"/>
	</g>
	<g>
		<g>
			<path fill="#DDDDDD" d="M406.991,87.231c0,4.277,3.48,7.758,7.757,7.758c4.278,0,7.757-3.48,7.757-7.758
				c0-4.278-3.48-7.758-7.757-7.758C410.471,79.473,406.991,82.954,406.991,87.231z M410.053,87.231
				c0-2.589,2.107-4.695,4.695-4.695c2.589,0,4.695,2.106,4.695,4.695c0,2.589-2.106,4.695-4.695,4.695
				C412.16,91.927,410.053,89.82,410.053,87.231z"/>
		</g>
	</g>
	<g>
		<g>
			<path fill="#288EEA" d="M419.443,87.231c0-2.589-2.106-4.695-4.695-4.695V82.44v-2.582v-0.384c4.278,0,7.757,3.48,7.757,7.758
				c0,0.234-0.015,0.465-0.036,0.693l-3.046-0.314C419.434,87.485,419.443,87.359,419.443,87.231z"/>
		</g>
	</g>
	<g>
		<path fill="#FFFFFF" d="M173.028,113.589h40.748V62.106c0-0.352-0.108-0.696-0.31-0.985l-4.719-6.757
			c-0.322-0.461-0.848-0.735-1.41-0.735h-32.588c-0.95,0-1.72,0.77-1.72,1.72V113.589z"/>
		<path fill="#F0FBFF" d="M215.104,114.918H171.7V55.349c0-1.681,1.368-3.049,3.049-3.049h32.588c0.995,0,1.93,0.487,2.5,1.303
			l4.719,6.757c0.359,0.513,0.549,1.117,0.549,1.746V114.918z M174.357,112.261h38.091V62.106c0-0.081-0.024-0.158-0.07-0.223
			l-4.719-6.758c-0.073-0.105-0.193-0.168-0.321-0.168h-32.588c-0.216,0-0.392,0.176-0.392,0.392V112.261z"/>
	</g>
	<g>
		<path fill="#F0FBFF" d="M205.641,70.59h-18.732c-0.734,0-1.328-0.595-1.328-1.329c0-0.734,0.595-1.329,1.328-1.329h18.732
			c0.734,0,1.329,0.595,1.329,1.329C206.97,69.995,206.375,70.59,205.641,70.59z"/>
	</g>
	<g>
		<path fill="#F0FBFF" d="M205.641,77.277h-18.732c-0.734,0-1.328-0.595-1.328-1.329c0-0.734,0.595-1.329,1.328-1.329h18.732
			c0.734,0,1.329,0.595,1.329,1.329C206.97,76.683,206.375,77.277,205.641,77.277z"/>
	</g>
	<g>
		<path fill="#F0FBFF" d="M205.641,83.964h-18.732c-0.734,0-1.328-0.595-1.328-1.329c0-0.734,0.595-1.329,1.328-1.329h18.732
			c0.734,0,1.329,0.595,1.329,1.329C206.97,83.37,206.375,83.964,205.641,83.964z"/>
	</g>
	<g>
		<path fill="#F0FBFF" d="M205.641,90.652h-18.732c-0.734,0-1.328-0.595-1.328-1.329c0-0.734,0.595-1.329,1.328-1.329h18.732
			c0.734,0,1.329,0.595,1.329,1.329C206.97,90.057,206.375,90.652,205.641,90.652z"/>
	</g>
	<g>
		<path fill="#F0FBFF" d="M205.641,97.34h-18.732c-0.734,0-1.328-0.595-1.328-1.329c0-0.734,0.595-1.329,1.328-1.329h18.732
			c0.734,0,1.329,0.595,1.329,1.329C206.97,96.745,206.375,97.34,205.641,97.34z"/>
	</g>
	<g>
		<path fill="#FFFFFF" d="M238.919,300.705c0,3.807-3.087,6.894-6.895,6.894H140.67c-3.808,0-6.895-3.087-6.895-6.894V139.398
			c0-3.808,3.087-6.895,6.895-6.895h91.354c3.808,0,6.895,3.087,6.895,6.895V300.705z"/>
		<path fill="#288EEA" d="M232.024,309.193H140.67c-4.681,0-8.489-3.808-8.489-8.488V139.398c0-4.681,3.808-8.489,8.489-8.489
			h91.354c4.681,0,8.489,3.808,8.489,8.489v161.307C240.513,305.385,236.705,309.193,232.024,309.193z M140.67,134.098
			c-2.923,0-5.301,2.378-5.301,5.301v161.307c0,2.922,2.378,5.3,5.301,5.3h91.354c2.923,0,5.301-2.378,5.301-5.3V139.398
			c0-2.923-2.378-5.301-5.301-5.301H140.67z"/>
	</g>
	<g>
		<g>
			<path fill="#FFFFFF" d="M232.555,276.779c0,1.338-1.086,2.426-2.426,2.426h-87.563c-1.34,0-2.426-1.088-2.426-2.426v-15.365
				c0-1.339,1.086-2.426,2.426-2.426h87.563c1.34,0,2.426,1.087,2.426,2.426V276.779z"/>
			<path fill="#288EEA" d="M230.128,280.534h-87.564c-2.07,0-3.755-1.685-3.755-3.755v-15.365c0-2.07,1.685-3.755,3.755-3.755
				h87.564c2.07,0,3.755,1.685,3.755,3.755v15.365C233.883,278.849,232.199,280.534,230.128,280.534z M142.565,260.316
				c-0.605,0-1.098,0.492-1.098,1.098v15.365c0,0.605,0.492,1.098,1.098,1.098h87.564c0.605,0,1.098-0.492,1.098-1.098v-15.365
				c0-0.605-0.492-1.098-1.098-1.098H142.565z"/>
		</g>
		<g>
			<path fill="#288EEA" d="M148.687,273.341c0,0.781-0.634,1.415-1.415,1.415l0,0c-0.781,0-1.415-0.634-1.415-1.415v-8.49
				c0-0.782,0.634-1.416,1.415-1.416l0,0c0.781,0,1.415,0.634,1.415,1.416V273.341z"/>
		</g>
		<g>
			<path fill="#288EEA" d="M153.476,273.341c0,0.781-0.634,1.415-1.415,1.415l0,0c-0.781,0-1.415-0.634-1.415-1.415v-8.49
				c0-0.782,0.634-1.416,1.415-1.416l0,0c0.781,0,1.415,0.634,1.415,1.416V273.341z"/>
		</g>
		<g>
			<path fill="#288EEA" d="M158.265,273.341c0,0.781-0.634,1.415-1.415,1.415l0,0c-0.781,0-1.415-0.634-1.415-1.415v-8.49
				c0-0.782,0.634-1.416,1.415-1.416l0,0c0.781,0,1.415,0.634,1.415,1.416V273.341z"/>
		</g>
		<g>
			<path fill="#FFFFFF" d="M226.347,269.096c0,1.533-1.242,2.776-2.776,2.776l0,0c-1.533,0-2.776-1.242-2.776-2.776l0,0
				c0-1.533,1.242-2.776,2.776-2.776l0,0C225.105,266.321,226.347,267.563,226.347,269.096L226.347,269.096z"/>
			<path fill="#288EEA" d="M223.572,273.2c-2.263,0-4.104-1.841-4.104-4.104c0-2.263,1.841-4.104,4.104-4.104
				c2.263,0,4.104,1.841,4.104,4.104C227.676,271.359,225.835,273.2,223.572,273.2z M223.572,267.649
				c-0.798,0-1.447,0.649-1.447,1.447c0,0.798,0.649,1.447,1.447,1.447c0.798,0,1.447-0.649,1.447-1.447
				C225.019,268.298,224.37,267.649,223.572,267.649z"/>
		</g>
	</g>
	<g>
		<g>
			<path fill="#FFFFFF" d="M232.555,251.324c0,1.338-1.086,2.426-2.426,2.426h-87.563c-1.34,0-2.426-1.088-2.426-2.426v-15.365
				c0-1.339,1.086-2.426,2.426-2.426h87.563c1.34,0,2.426,1.087,2.426,2.426V251.324z"/>
			<path fill="#288EEA" d="M230.128,255.078h-87.564c-2.07,0-3.755-1.684-3.755-3.755v-15.365c0-2.07,1.685-3.754,3.755-3.754
				h87.564c2.07,0,3.755,1.684,3.755,3.754v15.365C233.883,253.394,232.199,255.078,230.128,255.078z M142.565,234.861
				c-0.605,0-1.098,0.492-1.098,1.097v15.365c0,0.605,0.492,1.098,1.098,1.098h87.564c0.605,0,1.098-0.492,1.098-1.098v-15.365
				c0-0.605-0.492-1.097-1.098-1.097H142.565z"/>
		</g>
		<g>
			<path fill="#288EEA" d="M148.687,247.886c0,0.781-0.634,1.415-1.415,1.415l0,0c-0.781,0-1.415-0.634-1.415-1.415v-8.49
				c0-0.782,0.634-1.416,1.415-1.416l0,0c0.781,0,1.415,0.634,1.415,1.416V247.886z"/>
		</g>
		<g>
			<path fill="#288EEA" d="M153.476,247.886c0,0.781-0.634,1.415-1.415,1.415l0,0c-0.781,0-1.415-0.634-1.415-1.415v-8.49
				c0-0.782,0.634-1.416,1.415-1.416l0,0c0.781,0,1.415,0.634,1.415,1.416V247.886z"/>
		</g>
		<g>
			<path fill="#288EEA" d="M158.265,247.886c0,0.781-0.634,1.415-1.415,1.415l0,0c-0.781,0-1.415-0.634-1.415-1.415v-8.49
				c0-0.782,0.634-1.416,1.415-1.416l0,0c0.781,0,1.415,0.634,1.415,1.416V247.886z"/>
		</g>
		<g>
			<path fill="#FFFFFF" d="M226.347,243.641c0,1.533-1.242,2.776-2.776,2.776l0,0c-1.533,0-2.776-1.242-2.776-2.776l0,0
				c0-1.533,1.242-2.776,2.776-2.776l0,0C225.105,240.866,226.347,242.108,226.347,243.641L226.347,243.641z"/>
			<path fill="#288EEA" d="M223.572,247.745c-2.263,0-4.104-1.841-4.104-4.104c0-2.263,1.841-4.104,4.104-4.104
				c2.263,0,4.104,1.841,4.104,4.104C227.676,245.904,225.835,247.745,223.572,247.745z M223.572,242.194
				c-0.798,0-1.447,0.649-1.447,1.447c0,0.798,0.649,1.447,1.447,1.447c0.798,0,1.447-0.649,1.447-1.447
				C225.019,242.843,224.37,242.194,223.572,242.194z"/>
		</g>
	</g>
	<g>
		<g>
			<path fill="#FFFFFF" d="M232.555,225.869c0,1.338-1.086,2.426-2.426,2.426h-87.563c-1.34,0-2.426-1.088-2.426-2.426v-15.365
				c0-1.339,1.086-2.426,2.426-2.426h87.563c1.34,0,2.426,1.087,2.426,2.426V225.869z"/>
			<path fill="#288EEA" d="M230.128,229.623h-87.564c-2.07,0-3.755-1.684-3.755-3.755v-15.365c0-2.07,1.685-3.755,3.755-3.755
				h87.564c2.07,0,3.755,1.684,3.755,3.755v15.365C233.883,227.939,232.199,229.623,230.128,229.623z M142.565,209.406
				c-0.605,0-1.098,0.492-1.098,1.098v15.365c0,0.605,0.492,1.098,1.098,1.098h87.564c0.605,0,1.098-0.492,1.098-1.098v-15.365
				c0-0.605-0.492-1.098-1.098-1.098H142.565z"/>
		</g>
		<g>
			<path fill="#288EEA" d="M148.687,222.431c0,0.781-0.634,1.415-1.415,1.415l0,0c-0.781,0-1.415-0.634-1.415-1.415v-8.49
				c0-0.782,0.634-1.416,1.415-1.416l0,0c0.781,0,1.415,0.634,1.415,1.416V222.431z"/>
		</g>
		<g>
			<path fill="#288EEA" d="M153.476,222.431c0,0.781-0.634,1.415-1.415,1.415l0,0c-0.781,0-1.415-0.634-1.415-1.415v-8.49
				c0-0.782,0.634-1.416,1.415-1.416l0,0c0.781,0,1.415,0.634,1.415,1.416V222.431z"/>
		</g>
		<g>
			<path fill="#288EEA" d="M158.265,222.431c0,0.781-0.634,1.415-1.415,1.415l0,0c-0.781,0-1.415-0.634-1.415-1.415v-8.49
				c0-0.782,0.634-1.416,1.415-1.416l0,0c0.781,0,1.415,0.634,1.415,1.416V222.431z"/>
		</g>
		<g>
			<path fill="#FFFFFF" d="M226.347,218.186c0,1.533-1.242,2.776-2.776,2.776l0,0c-1.533,0-2.776-1.242-2.776-2.776l0,0
				c0-1.533,1.242-2.776,2.776-2.776l0,0C225.105,215.411,226.347,216.653,226.347,218.186L226.347,218.186z"/>
			<path fill="#288EEA" d="M223.572,222.29c-2.263,0-4.104-1.841-4.104-4.104c0-2.263,1.841-4.104,4.104-4.104
				c2.263,0,4.104,1.841,4.104,4.104C227.676,220.449,225.835,222.29,223.572,222.29z M223.572,216.739
				c-0.798,0-1.447,0.649-1.447,1.447s0.649,1.447,1.447,1.447c0.798,0,1.447-0.649,1.447-1.447S224.37,216.739,223.572,216.739z"/>
		</g>
	</g>
	<g>
		<g>
			<path fill="#FFFFFF" d="M232.555,200.414c0,1.338-1.086,2.426-2.426,2.426h-87.563c-1.34,0-2.426-1.088-2.426-2.426v-15.365
				c0-1.339,1.086-2.426,2.426-2.426h87.563c1.34,0,2.426,1.087,2.426,2.426V200.414z"/>
			<path fill="#288EEA" d="M230.128,204.168h-87.564c-2.07,0-3.755-1.685-3.755-3.755v-15.365c0-2.07,1.685-3.755,3.755-3.755
				h87.564c2.07,0,3.755,1.685,3.755,3.755v15.365C233.883,202.484,232.199,204.168,230.128,204.168z M142.565,183.951
				c-0.605,0-1.098,0.492-1.098,1.098v15.365c0,0.605,0.492,1.098,1.098,1.098h87.564c0.605,0,1.098-0.492,1.098-1.098v-15.365
				c0-0.605-0.492-1.098-1.098-1.098H142.565z"/>
		</g>
		<g>
			<path fill="#288EEA" d="M148.687,196.976c0,0.781-0.634,1.415-1.415,1.415l0,0c-0.781,0-1.415-0.634-1.415-1.415v-8.49
				c0-0.782,0.634-1.416,1.415-1.416l0,0c0.781,0,1.415,0.634,1.415,1.416V196.976z"/>
		</g>
		<g>
			<path fill="#288EEA" d="M153.476,196.976c0,0.781-0.634,1.415-1.415,1.415l0,0c-0.781,0-1.415-0.634-1.415-1.415v-8.49
				c0-0.782,0.634-1.416,1.415-1.416l0,0c0.781,0,1.415,0.634,1.415,1.416V196.976z"/>
		</g>
		<g>
			<path fill="#288EEA" d="M158.265,196.976c0,0.781-0.634,1.415-1.415,1.415l0,0c-0.781,0-1.415-0.634-1.415-1.415v-8.49
				c0-0.782,0.634-1.416,1.415-1.416l0,0c0.781,0,1.415,0.634,1.415,1.416V196.976z"/>
		</g>
		<g>
			<path fill="#FFFFFF" d="M226.347,192.731c0,1.533-1.242,2.776-2.776,2.776l0,0c-1.533,0-2.776-1.242-2.776-2.776l0,0
				c0-1.533,1.242-2.776,2.776-2.776l0,0C225.105,189.955,226.347,191.198,226.347,192.731L226.347,192.731z"/>
			<path fill="#288EEA" d="M223.572,196.835c-2.263,0-4.104-1.841-4.104-4.104c0-2.263,1.841-4.104,4.104-4.104
				c2.263,0,4.104,1.841,4.104,4.104C227.676,194.994,225.835,196.835,223.572,196.835z M223.572,191.284
				c-0.798,0-1.447,0.649-1.447,1.447c0,0.798,0.649,1.447,1.447,1.447c0.798,0,1.447-0.649,1.447-1.447
				C225.019,191.933,224.37,191.284,223.572,191.284z"/>
		</g>
	</g>
	<g>
		<g>
			<path fill="#FFFFFF" d="M232.555,174.959c0,1.338-1.086,2.426-2.426,2.426h-87.563c-1.34,0-2.426-1.088-2.426-2.426v-15.365
				c0-1.339,1.086-2.426,2.426-2.426h87.563c1.34,0,2.426,1.087,2.426,2.426V174.959z"/>
			<path fill="#288EEA" d="M230.128,178.713h-87.564c-2.07,0-3.755-1.685-3.755-3.755v-15.365c0-2.07,1.685-3.754,3.755-3.754
				h87.564c2.07,0,3.755,1.684,3.755,3.754v15.365C233.883,177.028,232.199,178.713,230.128,178.713z M142.565,158.496
				c-0.605,0-1.098,0.492-1.098,1.097v15.365c0,0.605,0.492,1.098,1.098,1.098h87.564c0.605,0,1.098-0.492,1.098-1.098v-15.365
				c0-0.605-0.492-1.097-1.098-1.097H142.565z"/>
		</g>
		<g>
			<path fill="#288EEA" d="M148.687,171.521c0,0.781-0.634,1.415-1.415,1.415l0,0c-0.781,0-1.415-0.634-1.415-1.415v-8.49
				c0-0.782,0.634-1.416,1.415-1.416l0,0c0.781,0,1.415,0.634,1.415,1.416V171.521z"/>
		</g>
		<g>
			<path fill="#288EEA" d="M153.476,171.521c0,0.781-0.634,1.415-1.415,1.415l0,0c-0.781,0-1.415-0.634-1.415-1.415v-8.49
				c0-0.782,0.634-1.416,1.415-1.416l0,0c0.781,0,1.415,0.634,1.415,1.416V171.521z"/>
		</g>
		<g>
			<path fill="#288EEA" d="M158.265,171.521c0,0.781-0.634,1.415-1.415,1.415l0,0c-0.781,0-1.415-0.634-1.415-1.415v-8.49
				c0-0.782,0.634-1.416,1.415-1.416l0,0c0.781,0,1.415,0.634,1.415,1.416V171.521z"/>
		</g>
		<g>
			<path fill="#FFFFFF" d="M226.347,167.276c0,1.533-1.242,2.776-2.776,2.776l0,0c-1.533,0-2.776-1.242-2.776-2.776l0,0
				c0-1.533,1.242-2.776,2.776-2.776l0,0C225.105,164.5,226.347,165.743,226.347,167.276L226.347,167.276z"/>
			<path fill="#288EEA" d="M223.572,171.38c-2.263,0-4.104-1.841-4.104-4.104c0-2.263,1.841-4.104,4.104-4.104
				c2.263,0,4.104,1.841,4.104,4.104C227.676,169.539,225.835,171.38,223.572,171.38z M223.572,165.829
				c-0.798,0-1.447,0.649-1.447,1.447c0,0.798,0.649,1.447,1.447,1.447c0.798,0,1.447-0.649,1.447-1.447
				C225.019,166.478,224.37,165.829,223.572,165.829z"/>
		</g>
	</g>
	<g>
		<path fill="#FFFFFF" d="M244.905,307.601c0,1.443-1.17,2.612-2.612,2.612H130.4c-1.443,0-2.612-1.17-2.612-2.612v-20.027
			c0-1.443,1.17-2.612,2.612-2.612h111.892c1.443,0,2.612,1.17,2.612,2.612V307.601z"/>
		<path fill="#288EEA" d="M242.293,311.807H130.4c-2.32,0-4.207-1.887-4.207-4.206v-20.027c0-2.32,1.887-4.207,4.207-4.207h111.892
			c2.32,0,4.207,1.887,4.207,4.207v20.027C246.499,309.92,244.612,311.807,242.293,311.807z M130.4,286.555
			c-0.562,0-1.018,0.457-1.018,1.018v20.027c0,0.561,0.457,1.018,1.018,1.018h111.892c0.562,0,1.018-0.457,1.018-1.018v-20.027
			c0-0.561-0.457-1.018-1.018-1.018H130.4z"/>
	</g>
	<g>
		<path fill="#288EEA" d="M232.151,148.079h-27.387c-1.563,0-2.834-1.271-2.834-2.833c0-0.391-0.318-0.708-0.708-0.708h-35.394
			c-0.391,0-0.708,0.318-0.708,0.708c0,1.563-1.271,2.833-2.834,2.833h-22.146c-0.587,0-1.063-0.476-1.063-1.063
			s0.476-1.063,1.063-1.063h22.146c0.391,0,0.708-0.318,0.708-0.708c0-1.563,1.271-2.834,2.834-2.834h35.394
			c1.563,0,2.834,1.271,2.834,2.834c0,0.39,0.318,0.708,0.708,0.708h27.387c0.587,0,1.063,0.476,1.063,1.063
			S232.738,148.079,232.151,148.079z"/>
	</g>
	<g>
		<g opacity="0.8">
			<g>
				<polygon fill="#DDDDDD" points="133.654,115.565 132.128,108.82 83.703,108.82 83.703,115.565 83.703,151.596 83.703,158.34 
					153.572,158.34 153.572,115.565 				"/>
			</g>
		</g>
		<g>
			<g>
				<polygon fill="#FFFFFF" points="137.975,111.414 136.448,104.669 88.024,104.669 88.024,111.414 88.024,147.444 88.024,154.19 
					157.894,154.19 157.894,111.414 				"/>
			</g>
			<g>
				<path fill="#288EEA" d="M158.585,154.881H87.332v-50.903h49.668l1.527,6.745h20.057V154.881z M88.716,153.497h68.486v-41.391
					h-19.779l-1.527-6.745h-47.18V153.497z"/>
			</g>
		</g>
		<g>
			<g>
				<path fill="#288EEA" d="M157.894,123.693H88.024c-0.383,0-0.692-0.309-0.692-0.692c0-0.382,0.309-0.692,0.692-0.692h69.869
					c0.382,0,0.692,0.31,0.692,0.692C158.585,123.384,158.275,123.693,157.894,123.693z"/>
			</g>
		</g>
		<g>
			<g>
				<rect x="105.434" y="120.407" fill="#FFFFFF" width="17.525" height="5.304"/>
			</g>
			<g>
				<path fill="#288EEA" d="M123.65,126.403h-18.907v-6.688h18.907V126.403z M106.126,125.019h16.14v-3.92h-16.14V125.019z"/>
			</g>
		</g>
	</g>
	<g>
		<g opacity="0.8">
			<g>
				<polygon fill="#DDDDDD" points="133.654,146.265 132.128,139.52 83.703,139.52 83.703,146.265 83.703,182.295 83.703,189.04 
					153.572,189.04 153.572,146.265 				"/>
			</g>
		</g>
		<g>
			<g>
				<polygon fill="#FFFFFF" points="137.975,142.114 136.448,135.369 88.024,135.369 88.024,142.114 88.024,178.144 88.024,184.889 
					157.894,184.889 157.894,142.114 				"/>
			</g>
			<g>
				<path fill="#288EEA" d="M158.585,185.581H87.332v-50.903h49.668l1.527,6.745h20.057V185.581z M88.716,184.197h68.486v-41.391
					h-19.779l-1.527-6.745h-47.18V184.197z"/>
			</g>
		</g>
		<g>
			<g>
				<path fill="#288EEA" d="M157.894,154.393H88.024c-0.383,0-0.692-0.309-0.692-0.692c0-0.382,0.309-0.692,0.692-0.692h69.869
					c0.382,0,0.692,0.31,0.692,0.692C158.585,154.084,158.275,154.393,157.894,154.393z"/>
			</g>
		</g>
		<g>
			<g>
				<rect x="105.434" y="151.107" fill="#FFFFFF" width="17.525" height="5.304"/>
			</g>
			<g>
				<path fill="#288EEA" d="M123.65,157.103h-18.907v-6.688h18.907V157.103z M106.126,155.719h16.14v-3.92h-16.14V155.719z"/>
			</g>
		</g>
	</g>
	<g>
		<path fill="#FFFFFF" d="M132.914,231.806L132.914,231.806c-19.597,0-35.483,15.886-35.483,35.483v42.924"/>
		<path fill="#288EEA" d="M97.431,311.807c-0.881,0-1.594-0.714-1.594-1.594v-42.924c0-20.444,16.633-37.077,37.077-37.077
			c0.881,0,1.594,0.714,1.594,1.594c0,0.881-0.714,1.594-1.594,1.594c-18.686,0-33.888,15.202-33.888,33.888v42.924
			C99.026,311.093,98.312,311.807,97.431,311.807z"/>
	</g>
	<g>
		<path fill="#288EEA" d="M110.555,311.807c-0.881,0-1.594-0.714-1.594-1.594v-49.945c0-12.601,10.251-22.852,22.851-22.852
			c0.881,0,1.595,0.714,1.595,1.594c0,0.881-0.714,1.594-1.594,1.594c-10.842,0-19.663,8.821-19.663,19.663v49.945
			C112.149,311.093,111.435,311.807,110.555,311.807z"/>
	</g>
	<g>
		
			<rect x="106.032" y="299.802" transform="matrix(-1 -4.497304e-11 4.497304e-11 -1 221.2049 609.8331)" fill="#288EEA" width="9.141" height="10.229"/>
	</g>
	<g>
		
			<rect x="124.778" y="228.621" transform="matrix(-1 -4.497259e-11 4.497259e-11 -1 258.6969 464.1937)" fill="#288EEA" width="9.141" height="6.952"/>
	</g>
	<g>
		
			<rect x="95.005" y="299.802" transform="matrix(-1 -4.497304e-11 4.497304e-11 -1 199.1517 609.8331)" fill="#288EEA" width="9.141" height="10.229"/>
	</g>
	<g>
		
			<rect x="101.338" y="298.075" transform="matrix(-1 -4.534030e-11 4.534030e-11 -1 205.4843 600.0685)" fill="#288EEA" width="2.808" height="3.919"/>
	</g>
	<g>
		<g>
			<path fill="#028EEA" d="M196.232,88.752c1.091,0,1.975,0.883,1.975,1.975v15.565h19.991c1.091,0,1.975,0.883,1.975,1.975
				c0,1.092-0.884,1.975-1.975,1.975h-21.967c-1.091,0-1.975-0.883-1.975-1.975v-17.54
				C194.256,89.636,195.141,88.752,196.232,88.752z M205.803,88.447h26.341v-5.883c0-0.787,0.468-1.501,1.19-1.813
				c0.723-0.313,1.562-0.166,2.136,0.372l2.43,2.28c0.795,0.747,0.834,1.995,0.089,2.793c-0.501,0.534-1.229,0.727-1.894,0.571
				v3.655c0,1.092-0.884,1.975-1.975,1.975h-28.316c-1.091,0-1.975-0.883-1.975-1.975C203.827,89.331,204.712,88.447,205.803,88.447
				z M228.075,106.293h5.423c1.091,0,1.975,0.883,1.975,1.975v4.115l14.004-12.704l-7.077-6.638
				c-0.798-0.748-0.836-1.997-0.09-2.793c0.746-0.795,1.997-0.835,2.792-0.089l8.638,8.104c0.402,0.378,0.635,0.909,0.624,1.458
				c-0.005,0.55-0.239,1.074-0.648,1.445l-18.892,17.139c-0.579,0.527-1.413,0.66-2.127,0.343c-0.715-0.316-1.176-1.024-1.176-1.806
				v-6.599h-3.448c-1.091,0-1.975-0.883-1.975-1.975C226.1,107.176,226.984,106.293,228.075,106.293z"/>
		</g>
	</g>
	<g>
		<path fill="#028EEA" d="M162.288,90.338l8.638-8.104c0.796-0.746,2.046-0.706,2.792,0.089c0.747,0.799,0.706,2.047-0.09,2.793
			l-7.077,6.638l14.004,12.704v-4.115c0-1.092,0.884-1.975,1.975-1.975h5.423c1.091,0,1.975,0.883,1.975,1.975
			c0,1.092-0.884,1.975-1.975,1.975h-3.448v6.599c0,0.781-0.461,1.489-1.176,1.806c-0.714,0.316-1.548,0.183-2.127-0.343
			l-18.892-17.139c-0.409-0.37-0.643-0.895-0.648-1.445c0-0.006,0-0.012,0-0.017C161.664,91.233,161.89,90.712,162.288,90.338z
			 M178.13,75.479l2.43-2.28c0.574-0.538,1.413-0.685,2.136-0.372c0.722,0.312,1.19,1.026,1.19,1.813v5.884h26.341
			c1.091,0,1.975,0.883,1.975,1.975c0,1.092-0.884,1.975-1.975,1.975h-28.316c-1.091,0-1.975-0.883-1.975-1.975v-3.655
			c-0.666,0.156-1.394-0.037-1.894-0.571c-0.358-0.382-0.535-0.868-0.535-1.352C177.506,76.393,177.715,75.868,178.13,75.479z"/>
	</g>
	<g>
		<g>
			<g>
				<g>
					<g>
						<path fill="#FFFFFF" d="M484.741,300.143V167.324c0-6.112-4.956-11.068-11.069-11.068H270.29
							c-6.112,0-11.068,4.956-11.068,11.068v132.819H484.741z"/>
					</g>
				</g>
				<g>
					<g>
						<path fill="#288EEA" d="M486.124,301.527H257.838V167.324c0-6.866,5.586-12.452,12.452-12.452h203.382
							c6.867,0,12.452,5.586,12.452,12.452V301.527z M260.605,298.76h222.752V167.324c0-5.34-4.346-9.685-9.685-9.685H270.29
							c-5.34,0-9.685,4.345-9.685,9.685V298.76z"/>
					</g>
				</g>
			</g>
			<g>
				<g>
					<g>
						<rect x="270.867" y="163.631" fill="#FFFFFF" width="204.303" height="136.047"/>
					</g>
				</g>
				<g>
					<g>
						<path fill="#288EEA" d="M475.863,300.37H270.175V162.939h205.687V300.37z M271.559,298.986h202.92V164.322h-202.92V298.986z"
							/>
					</g>
				</g>
			</g>
			<g>
				<g>
					<g>
						<path fill="#FFFFFF" d="M231.452,296.224c-0.67,1.316-1.055,2.802-1.055,4.38c0,5.35,4.336,9.685,9.685,9.685h263.797
							c5.348,0,9.685-4.335,9.685-9.685c0-1.578-0.387-3.064-1.057-4.38H231.452z"/>
					</g>
				</g>
				<g>
					<g>
						<path fill="#288EEA" d="M503.879,311.673H240.082c-6.103,0-11.069-4.965-11.069-11.069c0-1.752,0.406-3.437,1.206-5.008
							l0.385-0.756h282.752l0.384,0.756c0.801,1.573,1.208,3.259,1.208,5.008C514.948,306.708,509.982,311.673,503.879,311.673z
							 M232.345,297.608c-0.375,0.956-0.565,1.962-0.565,2.997c0,4.578,3.724,8.302,8.301,8.302h263.797
							c4.578,0,8.302-3.724,8.302-8.302c0-1.034-0.191-2.038-0.567-2.997H232.345z"/>
					</g>
				</g>
			</g>
			<g>
				<g>
					<g>
						<rect x="353.217" y="296.224" fill="#FFFFFF" width="37.529" height="5.072"/>
					</g>
				</g>
				<g>
					<g>
						<path fill="#288EEA" d="M391.438,301.988h-38.913v-6.455h38.913V301.988z M353.908,300.605h36.146v-3.688h-36.146V300.605z"/>
					</g>
				</g>
			</g>
		</g>
		<g>
			<g>
				<path fill="#DDDDDD" d="M347.166,181.851c-9.663,0-17.524,7.862-17.524,17.525c0,9.663,7.861,17.525,17.524,17.525
					c9.663,0,17.524-7.863,17.524-17.525C364.69,189.713,356.829,181.851,347.166,181.851z M347.166,209.984
					c-5.849,0-10.606-4.759-10.606-10.607c0-5.85,4.757-10.607,10.606-10.607c5.848,0,10.606,4.758,10.606,10.607
					C357.772,205.225,353.013,209.984,347.166,209.984z"/>
			</g>
		</g>
		<g>
			<g>
				<path fill="#DDDDDD" d="M395.09,181.851c-9.663,0-17.524,7.862-17.524,17.525c0,9.663,7.861,17.525,17.524,17.525
					s17.524-7.863,17.524-17.525C412.614,189.713,404.753,181.851,395.09,181.851z M395.09,209.984
					c-5.849,0-10.606-4.759-10.606-10.607c0-5.85,4.757-10.607,10.606-10.607c5.848,0,10.607,4.758,10.607,10.607
					C405.697,205.225,400.938,209.984,395.09,209.984z"/>
			</g>
		</g>
		<g>
			<g>
				<path fill="#288EEA" d="M443.015,181.851c-9.664,0-17.524,7.862-17.524,17.525c0,9.663,7.861,17.525,17.524,17.525
					c9.663,0,17.524-7.863,17.524-17.525C460.539,189.713,452.678,181.851,443.015,181.851z M443.015,209.984
					c-5.848,0-10.607-4.759-10.607-10.607c0-5.85,4.759-10.607,10.607-10.607c5.848,0,10.606,4.758,10.606,10.607
					C453.621,205.225,448.862,209.984,443.015,209.984z"/>
			</g>
		</g>
		<g>
			<g>
				<path fill="#288EEA" d="M347.339,210.157c-5.848,0-10.606-4.758-10.606-10.607c0-5.441,4.119-9.932,9.401-10.534v-1.098v-5.833
					c-9.101,0.624-16.319,8.208-16.319,17.464c0,9.663,7.861,17.525,17.524,17.525c1.847,0,3.626-0.291,5.299-0.824l-2.386-6.51
					C349.325,210.007,348.35,210.157,347.339,210.157z"/>
			</g>
		</g>
		<g>
			<g>
				<path fill="#288EEA" d="M384.484,199.376c0-5.85,4.758-10.607,10.606-10.607v-0.217v-5.833v-0.868
					c-9.663,0-17.524,7.862-17.524,17.525c0,0.528,0.034,1.049,0.08,1.567l6.881-0.709
					C384.505,199.95,384.484,199.665,384.484,199.376z"/>
			</g>
		</g>
		<g>
			<g>
				<g>
					<path fill="#DDDDDD" d="M337.768,241.225h-7.148v-7.149h7.148V241.225z M332.179,239.665h4.031v-4.03h-4.031V239.665z"/>
				</g>
			</g>
		</g>
		<g>
			<g>
				<g>
					<path fill="#DDDDDD" d="M352.991,241.225h-7.147v-7.149h7.147V241.225z M347.402,239.665h4.029v-4.03h-4.029V239.665z"/>
				</g>
			</g>
		</g>
		<g>
			<g>
				<rect x="330.62" y="246.024" fill="#DDDDDD" width="33.09" height="2.036"/>
			</g>
		</g>
		<g>
			<g>
				<rect x="330.62" y="251.558" fill="#DDDDDD" width="33.09" height="2.036"/>
			</g>
		</g>
		<g>
			<g>
				<rect x="330.62" y="257.092" fill="#DDDDDD" width="26.323" height="2.036"/>
			</g>
		</g>
		<g>
			<g>
				<rect x="330.62" y="262.626" fill="#DDDDDD" width="21.358" height="2.036"/>
			</g>
		</g>
		<g>
			<g>
				<rect x="330.62" y="268.16" fill="#DDDDDD" width="30.127" height="2.036"/>
			</g>
		</g>
		<g>
			<g>
				<rect x="330.62" y="273.695" fill="#DDDDDD" width="33.09" height="2.036"/>
			</g>
		</g>
		<g>
			<g>
				<g>
					<path fill="#DDDDDD" d="M386.673,241.225h-7.149v-7.149h7.149V241.225z M381.083,239.665h4.03v-4.03h-4.03V239.665z"/>
				</g>
			</g>
		</g>
		<g>
			<g>
				<rect x="379.524" y="246.024" fill="#DDDDDD" width="12.931" height="2.036"/>
			</g>
		</g>
		<g>
			<g>
				<rect x="379.524" y="251.558" fill="#DDDDDD" width="33.09" height="2.036"/>
			</g>
		</g>
		<g>
			<g>
				<rect x="379.524" y="257.092" fill="#DDDDDD" width="33.09" height="2.036"/>
			</g>
		</g>
		<g>
			<g>
				<rect x="379.524" y="262.626" fill="#DDDDDD" width="33.09" height="2.036"/>
			</g>
		</g>
		<g>
			<g>
				<rect x="379.524" y="268.16" fill="#DDDDDD" width="33.09" height="2.036"/>
			</g>
		</g>
		<g>
			<g>
				<rect x="379.524" y="273.695" fill="#DDDDDD" width="28.379" height="2.036"/>
			</g>
		</g>
		<g>
			<g>
				<path fill="#DDDDDD" d="M297.697,181.851c-9.663,0-17.524,7.862-17.524,17.525c0,9.663,7.861,17.525,17.524,17.525
					c9.663,0,17.524-7.863,17.524-17.525C315.221,189.713,307.36,181.851,297.697,181.851z M297.697,209.984
					c-5.849,0-10.606-4.759-10.606-10.607c0-5.85,4.757-10.607,10.606-10.607c5.848,0,10.607,4.758,10.607,10.607
					C308.304,205.225,303.544,209.984,297.697,209.984z"/>
			</g>
		</g>
		<g>
			<g>
				<path fill="#288EEA" d="M287.091,199.376c0-5.85,4.758-10.607,10.606-10.607v-0.217v-5.833v-0.868
					c-9.663,0-17.524,7.862-17.524,17.525c0,0.528,0.034,1.049,0.08,1.567l6.881-0.709
					C287.111,199.95,287.091,199.665,287.091,199.376z"/>
			</g>
		</g>
		<g>
			<g>
				<g>
					<path fill="#DDDDDD" d="M289.28,241.225h-7.149v-7.149h7.149V241.225z M283.69,239.665h4.03v-4.03h-4.03V239.665z"/>
				</g>
			</g>
		</g>
		<g>
			<g>
				<rect x="282.131" y="246.024" fill="#DDDDDD" width="12.931" height="2.036"/>
			</g>
		</g>
		<g>
			<g>
				<rect x="282.131" y="251.558" fill="#DDDDDD" width="33.09" height="2.036"/>
			</g>
		</g>
		<g>
			<g>
				<rect x="282.131" y="257.092" fill="#DDDDDD" width="33.09" height="2.036"/>
			</g>
		</g>
		<g>
			<g>
				<rect x="282.131" y="262.626" fill="#DDDDDD" width="33.09" height="2.036"/>
			</g>
		</g>
		<g>
			<g>
				<rect x="282.131" y="268.16" fill="#DDDDDD" width="33.09" height="2.036"/>
			</g>
		</g>
		<g>
			<g>
				<rect x="282.131" y="273.695" fill="#DDDDDD" width="28.379" height="2.036"/>
			</g>
		</g>
		<g>
			<g>
				<g>
					<path fill="#DDDDDD" d="M435.701,241.225h-7.149v-7.149h7.149V241.225z M430.111,239.665h4.031v-4.03h-4.031V239.665z"/>
				</g>
			</g>
		</g>
		<g>
			<g>
				<g>
					<path fill="#DDDDDD" d="M450.923,241.225h-7.147v-7.149h7.147V241.225z M445.335,239.665h4.029v-4.03h-4.029V239.665z"/>
				</g>
			</g>
		</g>
		<g>
			<g>
				<rect x="428.552" y="246.024" fill="#DDDDDD" width="33.09" height="2.036"/>
			</g>
		</g>
		<g>
			<g>
				<rect x="428.552" y="251.558" fill="#DDDDDD" width="33.09" height="2.036"/>
			</g>
		</g>
		<g>
			<g>
				<rect x="428.552" y="257.092" fill="#DDDDDD" width="24.316" height="2.036"/>
			</g>
		</g>
		<g>
			<g>
				<rect x="428.552" y="262.626" fill="#DDDDDD" width="33.09" height="2.036"/>
			</g>
		</g>
		<g>
			<g>
				<rect x="428.552" y="268.16" fill="#DDDDDD" width="26.853" height="2.036"/>
			</g>
		</g>
		<g>
			<g>
				<rect x="428.552" y="273.695" fill="#DDDDDD" width="14.463" height="2.036"/>
			</g>
		</g>
	</g>
	<g>
		<g opacity="0.8">
			<g>
				<polygon fill="#DDDDDD" points="516.208,215.298 514.682,208.553 466.257,208.553 466.257,215.298 466.257,251.328 
					466.257,258.073 536.126,258.073 536.126,215.298 				"/>
			</g>
		</g>
		<g>
			<g>
				<polygon fill="#FFFFFF" points="520.529,211.147 519.002,204.402 470.579,204.402 470.579,211.147 470.579,247.177 
					470.579,253.922 540.448,253.922 540.448,211.147 				"/>
			</g>
			<g>
				<path fill="#288EEA" d="M541.14,254.614h-71.253V203.71h49.668l1.527,6.745h20.057V254.614z M471.27,253.23h68.486v-41.391
					h-19.779l-1.527-6.745h-47.18V253.23z"/>
			</g>
		</g>
		<g>
			<g>
				<path fill="#288EEA" d="M540.448,223.426h-69.869c-0.383,0-0.692-0.309-0.692-0.692c0-0.382,0.309-0.692,0.692-0.692h69.869
					c0.382,0,0.692,0.31,0.692,0.692C541.14,223.117,540.83,223.426,540.448,223.426z"/>
			</g>
		</g>
		<g>
			<g>
				<rect x="487.988" y="220.14" fill="#FFFFFF" width="17.525" height="5.304"/>
			</g>
			<g>
				<path fill="#288EEA" d="M506.204,226.136h-18.907v-6.688h18.907V226.136z M488.681,224.752h16.14v-3.92h-16.14V224.752z"/>
			</g>
		</g>
	</g>
	<g>
		<g>
			<path fill="#FFFFFF" d="M327.468,173.1c-0.504,0-0.914-0.41-0.914-0.915v-55.196c0-0.505,0.41-0.915,0.914-0.915h74.021
				c0.505,0,0.915,0.41,0.915,0.915v55.196c0,0.505-0.41,0.915-0.915,0.915H327.468z"/>
			<path fill="#298EEA" d="M401.404,117.074v6.933V172.1h-73.85v-55.026H401.404 M401.49,115.074h-74.021
				c-1.053,0-1.914,0.861-1.914,1.914v55.197c0,1.053,0.861,1.914,1.914,1.914h74.021c1.053,0,1.914-0.861,1.914-1.914v-48.178
				v-7.019C403.404,115.935,402.542,115.074,401.49,115.074L401.49,115.074z"/>
		</g>
		<line fill="none" stroke="#298EEA" stroke-miterlimit="10" x1="328" y1="128.902" x2="403" y2="128.902"/>
		<line fill="none" stroke="#298EEA" stroke-miterlimit="10" x1="344.5" y1="130.402" x2="344.5" y2="174.402"/>
		<rect x="331.109" y="133.34" fill="#D4E8FB" width="9.572" height="1.914"/>
		<rect x="331.109" y="138.594" fill="#D4E8FB" width="9.572" height="1.914"/>
		<rect x="331.109" y="143.849" fill="#D4E8FB" width="9.572" height="1.914"/>
		<rect x="331.109" y="149.103" fill="#D4E8FB" width="9.572" height="1.914"/>
		<rect x="331.109" y="154.358" fill="#D4E8FB" width="9.572" height="1.914"/>
		<rect x="331.109" y="159.612" fill="#D4E8FB" width="9.572" height="1.914"/>
		<rect x="331.109" y="164.867" fill="#D4E8FB" width="9.572" height="1.914"/>
		<g>
			<path fill="#D4E8FB" d="M370.356,144.32l-1.028,3.512l-0.074,0.253c-0.245,0.655-0.861,1.127-1.591,1.161h-3.049
				c-1.527,0-2.766,1.24-2.766,2.769c0,1.529,1.238,2.769,2.766,2.769h1.906c0.384,0.067,0.676,0.403,0.676,0.807
				c0,0.071-0.009,0.139-0.026,0.204l-1.039,3.915h-1.526c-4.245,0-7.685-3.445-7.685-7.695c0-4.25,3.441-7.695,7.685-7.695H370.356
				z"/>
			<path fill="#D4E8FB" d="M387.034,147.032c0,4.25-3.441,7.695-7.685,7.695h-4.846l1.028-3.512l0.074-0.253
				c0.245-0.655,0.861-1.127,1.591-1.161h2.144c1.527,0,2.766-1.24,2.766-2.769c0-1.529-1.238-2.769-2.766-2.769h-2.974
				l-3.722,14.083l-0.057,0.215c-0.197,0.587-0.704,1.032-1.326,1.14c-0.096,0.018-0.195,0.026-0.296,0.026h-3.728l4.848-18.9
				l0.069-0.268c0.243-0.711,0.916-1.221,1.708-1.221h5.486C383.593,139.337,387.034,142.782,387.034,147.032z"/>
		</g>
	</g>
</g>
<g id="Layer_2">
</g>
</svg>
