<?xml version="1.0" encoding="utf-8"?>
<!-- Generator: Adobe Illustrator 20.1.0, SVG Export Plug-In . SVG Version: 6.00 Build 0)  -->
<svg version="1.1" id="Layer_1" xmlns="http://www.w3.org/2000/svg" xmlns:xlink="http://www.w3.org/1999/xlink" x="0px" y="0px"
	 viewBox="0 0 48 48" enable-background="new 0 0 48 48" xml:space="preserve">
<path fill="#FFFFFF" stroke="#666666" stroke-width="2" stroke-miterlimit="10" d="M24,1C11.318,1,1,11.318,1,24
	c0,12.682,10.318,23,23,23c12.682,0,23-10.318,23-23C47,11.318,36.682,1,24,1z"/>
<path fill="#666666" d="M34.851,24.77H12.492c-0.454,0-0.822,0.368-0.822,0.822c0,1.317,0.213,2.613,0.632,3.852
	c0.803,2.37,2.304,4.402,4.341,5.876c2.054,1.488,4.484,2.274,7.029,2.274s4.975-0.786,7.028-2.274
	c2.037-1.474,3.539-3.506,4.341-5.876l0,0c0.419-1.239,0.632-2.535,0.632-3.852C35.673,25.138,35.305,24.77,34.851,24.77z
	 M33.997,26.414c-0.052,0.659-0.167,1.309-0.342,1.944H13.688c-0.176-0.635-0.29-1.285-0.342-1.944H33.997z M18.301,34.45
	c0.687-0.738,1.662-1.175,2.689-1.175c0.797,0,1.555,0.251,2.191,0.725c0.291,0.217,0.691,0.217,0.982,0
	c0.636-0.474,1.394-0.725,2.19-0.725c1.026,0,2.001,0.438,2.689,1.176c-1.615,0.983-3.455,1.5-5.37,1.5
	C21.756,35.95,19.916,35.434,18.301,34.45z M30.381,33.483c-1.001-1.159-2.474-1.853-4.028-1.853c-0.954,0-1.87,0.249-2.681,0.725
	c-0.811-0.476-1.727-0.725-2.682-0.725c-1.555,0-3.029,0.694-4.028,1.852c-1.134-0.962-2.038-2.143-2.665-3.48h18.75
	C32.419,31.34,31.515,32.521,30.381,33.483z"/>
<path fill="#666666" d="M13.253,21.628c0.158,0,0.315-0.065,0.435-0.195l3.633-3.928c1.242-1.342,1.242-3.527,0-4.869
	c-0.602-0.65-1.401-1.008-2.252-1.008c-0.659,0-1.287,0.215-1.817,0.614c-0.529-0.399-1.158-0.614-1.817-0.614
	c-0.851,0-1.651,0.358-2.252,1.008c-1.242,1.342-1.242,3.527,0,4.869l3.633,3.928C12.937,21.563,13.095,21.628,13.253,21.628z"/>
<path fill="#666666" d="M34.419,21.628c0.158,0,0.315-0.065,0.435-0.195l3.633-3.928c1.242-1.342,1.242-3.527,0-4.869
	c-0.602-0.65-1.401-1.008-2.252-1.008c-0.659,0-1.287,0.215-1.817,0.614c-0.529-0.399-1.158-0.614-1.817-0.614
	c-0.851,0-1.651,0.358-2.252,1.008c-1.242,1.342-1.242,3.527,0,4.869l3.633,3.928C34.104,21.563,34.262,21.628,34.419,21.628z"/>
</svg>
