<?xml version="1.0" encoding="utf-8"?>
<!-- Generator: Adobe Illustrator 20.1.0, SVG Export Plug-In . SVG Version: 6.00 Build 0)  -->
<svg version="1.1" id="Layer_1" xmlns="http://www.w3.org/2000/svg" xmlns:xlink="http://www.w3.org/1999/xlink" x="0px" y="0px"
	 viewBox="0 0 48 48" enable-background="new 0 0 48 48" xml:space="preserve">
<path fill="#FFFFFF" stroke="#666666" stroke-width="2" stroke-miterlimit="10" d="M24,1C11.318,1,1,11.318,1,24s10.318,23,23,23
	s23-10.318,23-23C47,11.318,36.682,1,24,1z"/>
<g>
	<path fill="#666666" d="M35.15,27.748c-6.148,6.148-16.152,6.148-22.299,0c-0.321-0.321-0.842-0.321-1.163,0
		c-0.321,0.321-0.321,0.842,0,1.162c3.395,3.395,7.853,5.092,12.312,5.092c4.458,0,8.918-1.698,12.312-5.092
		c0.321-0.321,0.321-0.842,0-1.162C35.991,27.427,35.471,27.427,35.15,27.748z"/>
	<path fill="#666666" d="M27.496,35.067c-2.287,0.641-4.705,0.641-6.992,0c-0.437-0.123-0.891,0.133-1.013,0.57
		c-0.123,0.437,0.133,0.891,0.57,1.014c1.289,0.361,2.614,0.542,3.94,0.542c1.325,0,2.651-0.181,3.94-0.542
		c0.437-0.123,0.692-0.576,0.57-1.013C28.387,35.199,27.933,34.944,27.496,35.067z"/>
</g>
<g>
	<path fill="#666666" d="M14.37,21.771c1.677,0,3.041-1.364,3.041-3.041c0-1.677-1.364-3.041-3.041-3.041s-3.041,1.364-3.041,3.041
		C11.328,20.407,12.693,21.771,14.37,21.771z"/>
	<path fill="#666666" d="M33.63,15.938c-1.677,0-3.041,1.364-3.041,3.041c0,1.677,1.364,3.041,3.041,3.041
		c1.677,0,3.041-1.364,3.041-3.041S35.307,15.938,33.63,15.938z"/>
</g>
</svg>
