<?xml version="1.0" encoding="utf-8"?>
<!-- Generator: Adobe Illustrator 20.1.0, SVG Export Plug-In . SVG Version: 6.00 Build 0)  -->
<svg version="1.1" id="Layer_1" xmlns="http://www.w3.org/2000/svg" xmlns:xlink="http://www.w3.org/1999/xlink" x="0px" y="0px"
	 viewBox="0 0 48 48" enable-background="new 0 0 48 48" xml:space="preserve">
<g>
	<path fill="#FFFFFF" stroke="#666666" stroke-width="2" stroke-miterlimit="10" d="M45.688,43.5H2.313c-0.55,0-1-0.45-1-1v-11
		c0-0.55,0.45-1,1-1h43.375c0.55,0,1,0.45,1,1v11C46.688,43.05,46.237,43.5,45.688,43.5z"/>
	<circle fill="#666666" cx="6.344" cy="37" r="1.594"/>
	<path fill="#FFFFFF" stroke="#666666" stroke-width="2" stroke-miterlimit="10" d="M45.688,30.5H2.313c-0.55,0-1-0.45-1-1v-11
		c0-0.55,0.45-1,1-1h43.375c0.55,0,1,0.45,1,1v11C46.688,30.05,46.237,30.5,45.688,30.5z"/>
	<circle fill="#666666" cx="6.344" cy="24" r="1.594"/>
	<path fill="#FFFFFF" stroke="#666666" stroke-width="2" stroke-miterlimit="10" d="M45.688,17.5H2.313c-0.55,0-1-0.45-1-1v-11
		c0-0.55,0.45-1,1-1h43.375c0.55,0,1,0.45,1,1v11C46.688,17.05,46.237,17.5,45.688,17.5z"/>
	<circle fill="#666666" cx="6.344" cy="11" r="1.594"/>
</g>
</svg>
