<?xml version="1.0" encoding="utf-8"?>
<!-- Generator: Adobe Illustrator 20.1.0, SVG Export Plug-In . SVG Version: 6.00 Build 0)  -->
<svg version="1.1" id="Layer_1" xmlns="http://www.w3.org/2000/svg" xmlns:xlink="http://www.w3.org/1999/xlink" x="0px" y="0px"
	 viewBox="0 0 48 48" enable-background="new 0 0 48 48" xml:space="preserve">
<g>
	<g>
		<path fill="#FFFFFF" d="M24,46C11.869,46,2,36.131,2,24S11.869,2,24,2s22,9.869,22,22S36.131,46,24,46z"/>
		<path fill="#666666" d="M24,3c11.579,0,21,9.421,21,21s-9.421,21-21,21S3,35.579,3,24S12.421,3,24,3 M24,1C11.297,1,1,11.297,1,24
			s10.297,23,23,23s23-10.297,23-23S36.703,1,24,1L24,1z"/>
	</g>
	<g>
		<path fill="#FFFFFF" d="M24,42.427C13.839,42.427,5.573,34.16,5.573,24C5.573,13.839,13.839,5.573,24,5.573
			c10.16,0,18.427,8.267,18.427,18.427C42.427,34.16,34.16,42.427,24,42.427z"/>
		<path fill="#666666" d="M24,6.073c9.885,0,17.927,8.042,17.927,17.927S33.885,41.927,24,41.927S6.073,33.885,6.073,24
			S14.115,6.073,24,6.073 M24,5.073C13.547,5.073,5.073,13.547,5.073,24S13.547,42.927,24,42.927S42.927,34.453,42.927,24
			S34.453,5.073,24,5.073L24,5.073z"/>
	</g>
	<g>
		<g>
			<path fill="#FFFFFF" d="M21.956,28.564l-1.894-3.587H15.91v3.587h-1.24V17.821h4.698c1.96,0,4.297,0.597,4.297,3.442
				c0,1.541-0.592,2.618-1.759,3.203l-0.991,0.496l2.292,3.604H21.956z M15.91,24.429h3.458c1.987,0,3.221-1.171,3.221-3.057
				c0-1.852-1.234-3.002-3.221-3.002H15.91V24.429z"/>
			<path fill="#666666" d="M19.368,16.821H13.67v12.743h3.24v-3.586h2.459h0.091l1.893,3.586h3.677l-2.676-4.205
				c1.493-0.747,2.312-2.148,2.312-4.096C24.665,18.422,22.736,16.821,19.368,16.821L19.368,16.821z M16.91,23.429v-4.06h2.459
				c1.401,0,2.221,0.673,2.221,2.002c0,1.347-0.82,2.058-2.221,2.058H16.91L16.91,23.429z"/>
		</g>
		<g>
			<path fill="#FFFFFF" d="M26.561,32.096V20.752h1.148v3.213l0.058-0.074c-0.038,0.23-0.058,0.472-0.058,0.721
				c0,0.264,0.021,0.518,0.063,0.761l-0.063-0.083v6.806H26.561z M31.714,28.674c-0.767,0-1.399-0.226-1.888-0.672
				c0.324,0.116,0.677,0.178,1.05,0.178c1.856,0,3.203-1.5,3.203-3.567c0-2.056-1.347-3.548-3.203-3.548
				c-0.329,0-0.642,0.048-0.933,0.138c0.462-0.372,1.03-0.56,1.697-0.56c2.225,0,3.606,1.556,3.606,4.061
				C35.247,27.152,33.894,28.674,31.714,28.674z"/>
			<path fill="#666666" d="M31.64,19.642c-1.238,0-2.24,0.51-2.931,1.402v-1.292H25.56v13.344h3.149v-4.842
				c0.692,0.91,1.729,1.42,3.004,1.42c2.749,0,4.533-1.984,4.533-4.97C36.247,21.663,34.408,19.642,31.64,19.642L31.64,19.642z
				 M30.876,27.179c-1.275,0-2.167-1.038-2.167-2.567c0-1.493,0.892-2.548,2.167-2.548c1.31,0,2.203,1.056,2.203,2.548
				C33.079,26.124,32.186,27.179,30.876,27.179L30.876,27.179z"/>
		</g>
	</g>
</g>
</svg>
