<?xml version="1.0" encoding="utf-8"?>
<!-- Generator: Adobe Illustrator 20.1.0, SVG Export Plug-In . SVG Version: 6.00 Build 0)  -->
<svg version="1.1" id="Layer_1" xmlns="http://www.w3.org/2000/svg" xmlns:xlink="http://www.w3.org/1999/xlink" x="0px" y="0px"
	 viewBox="0 0 48 48" enable-background="new 0 0 48 48" xml:space="preserve">
<g>
	<path fill-rule="evenodd" clip-rule="evenodd" fill="#FFFFFF" stroke="#666666" stroke-width="2" stroke-miterlimit="10" d="
		M2.69,26.271c0-11.771,9.543-21.313,21.314-21.313c11.772,0,21.314,9.542,21.314,21.313"/>
	<path fill-rule="evenodd" clip-rule="evenodd" fill="#FFFFFF" stroke="#666666" stroke-width="2" stroke-miterlimit="10" d="
		M5.262,34.897c0,1.142-0.926,2.067-2.067,2.067l0,0c-1.141,0-2.066-0.925-2.066-2.067v-6.555c0-1.141,0.925-2.067,2.066-2.067l0,0
		c1.142,0,2.067,0.926,2.067,2.067V34.897z"/>
	<path fill-rule="evenodd" clip-rule="evenodd" fill="#FFFFFF" stroke="#666666" stroke-width="2" stroke-miterlimit="10" d="
		M46.871,34.897c0,1.142-0.926,2.067-2.067,2.067l0,0c-1.141,0-2.067-0.925-2.067-2.067v-6.555c0-1.141,0.926-2.067,2.067-2.067l0,0
		c1.141,0,2.067,0.926,2.067,2.067V34.897z"/>
	
		<polyline fill-rule="evenodd" clip-rule="evenodd" fill="#FFFFFF" stroke="#666666" stroke-width="2" stroke-miterlimit="10" points="
		44.804,36.963 39.787,43.042 24.856,43.042 	"/>
	<path fill-rule="evenodd" clip-rule="evenodd" fill="#FFFFFF" stroke="#666666" stroke-width="2" stroke-miterlimit="10" d="
		M27.68,41.3c0,0.962-0.78,1.742-1.742,1.742h-2.166c-0.962,0-1.742-0.78-1.742-1.742l0,0c0-0.962,0.78-1.742,1.742-1.742h2.166
		C26.9,39.558,27.68,40.338,27.68,41.3L27.68,41.3z"/>
</g>
</svg>
