<?xml version="1.0" encoding="utf-8"?>
<!-- Generator: Adobe Illustrator 20.1.0, SVG Export Plug-In . SVG Version: 6.00 Build 0)  -->
<svg version="1.1" id="Layer_1" xmlns="http://www.w3.org/2000/svg" xmlns:xlink="http://www.w3.org/1999/xlink" x="0px" y="0px"
	 viewBox="0 0 48 48" enable-background="new 0 0 48 48" xml:space="preserve">
<g>
	<path fill="#FFFFFF" d="M7.333,43.583c-0.552,0-1-0.448-1-1V5.417c0-0.551,0.448-1,1-1h33.334c0.552,0,1,0.449,1,1v37.167
		c0,0.552-0.448,1-1,1H7.333z"/>
	<path fill="#666666" d="M40.667,5.417v37.167H7.333V5.417H40.667 M40.667,3.417H7.333c-1.1,0-2,0.9-2,2v37.167c0,1.1,0.9,2,2,2
		h33.333c1.1,0,2-0.9,2-2V5.417C42.667,4.317,41.767,3.417,40.667,3.417L40.667,3.417z"/>
</g>
<rect x="11.167" y="9.979" fill="#666666" width="14" height="2"/>
<rect x="11.167" y="22.95" fill="#666666" width="14" height="2"/>
<rect x="11.167" y="29.435" fill="#666666" width="24" height="2"/>
<rect x="11.167" y="35.92" fill="#666666" width="24" height="2"/>
<rect x="11.167" y="16.464" fill="#666666" width="14" height="2"/>
</svg>
