<svg width="64" height="64" viewBox="0 0 64 64" fill="none" xmlns="http://www.w3.org/2000/svg">
<path d="M8.06953 50.32C9.20171 50.32 10.1195 49.4022 10.1195 48.27C10.1195 47.1378 9.20171 46.22 8.06953 46.22C6.93735 46.22 6.01953 47.1378 6.01953 48.27C6.01953 49.4022 6.93735 50.32 8.06953 50.32Z" stroke="#007AFF" stroke-width="2" stroke-linejoin="round"/>
<path d="M63.0002 31.38C62.9976 30.2766 62.5588 29.219 61.7795 28.4378C61.0002 27.6566 59.9436 27.2153 58.8402 27.21L36.0002 27.27H30.0002L32.6502 18.59L34.0002 7.84C34.0019 6.71916 33.5678 5.64157 32.7897 4.8348C32.0117 4.02803 30.9505 3.55525 29.8303 3.51631C28.7102 3.47737 27.6187 3.87532 26.7865 4.62611C25.9543 5.3769 25.4464 6.42176 25.3702 7.54L23.7002 15.91L19.4502 23.35L15.6402 28.05C15.6551 28.1695 15.6551 28.2905 15.6402 28.41V48.1H15.7402V53.48C15.7475 53.8694 15.6604 54.2547 15.4862 54.603C15.3121 54.9513 15.0561 55.2522 14.7402 55.48L26.3202 60.48H43.0602H51.6302C52.6904 60.5066 53.723 60.1404 54.5296 59.452C55.3362 58.7635 55.86 57.8012 56.0002 56.75C56.0585 56.1748 55.9966 55.5938 55.8183 55.0439C55.6401 54.4939 55.3494 53.987 54.9648 53.5554C54.5802 53.1238 54.11 52.7768 53.5842 52.5366C53.0583 52.2964 52.4883 52.1681 51.9102 52.16H53.9102C55.0135 52.1719 56.0764 51.7451 56.865 50.9734C57.6536 50.2017 58.1033 49.1483 58.1152 48.045C58.1272 46.9417 57.7003 45.8788 56.9286 45.0903C56.1569 44.3017 55.1035 43.8519 54.0002 43.84H56.7002C57.746 43.852 58.7602 43.4816 59.552 42.7984C60.3439 42.1152 60.8589 41.1663 61.0002 40.13C61.0611 39.5611 61.0039 38.9858 60.8323 38.4401C60.6607 37.8943 60.3784 37.3898 60.003 36.9581C59.6276 36.5263 59.1671 36.1767 58.6505 35.931C58.1338 35.6853 57.572 35.5488 57.0002 35.53H58.8502C59.9493 35.5247 61.0018 35.0858 61.7789 34.3087C62.5561 33.5315 62.995 32.479 63.0002 31.38V31.38Z" stroke="#007AFF" stroke-width="2" stroke-linejoin="round"/>
<path d="M15.72 28.13C15.6226 27.5659 15.3277 27.0549 14.888 26.6885C14.4482 26.322 13.8924 26.124 13.32 26.13H3.42C2.78321 26.1351 2.17366 26.389 1.72151 26.8374C1.26935 27.2859 1.01042 27.8933 1 28.53V53.48C1.00526 54.1246 1.26433 54.7411 1.72107 55.196C2.17781 55.6508 2.7954 55.9074 3.44 55.91H13.34C13.8617 55.9059 14.3689 55.7379 14.79 55.43C15.1059 55.2022 15.3618 54.9013 15.536 54.553C15.7101 54.2047 15.7973 53.8194 15.79 53.43V28.53C15.7817 28.3945 15.7583 28.2603 15.72 28.13V28.13Z" stroke="#00BFA5" stroke-width="2" stroke-linecap="round" stroke-linejoin="round"/>
</svg>
