<svg id="Layer_1" data-name="Layer 1" xmlns="http://www.w3.org/2000/svg" viewBox="0 0 40 40"><defs><style>.cls-1{fill:#fff;}.cls-2{fill:#00bfa5;}.cls-3{fill:#007aff;}.cls-4{fill:none;stroke:#007aff;stroke-miterlimit:10;stroke-width:2px;}</style></defs><title>briefcase</title><path class="cls-1" d="M10.76,8.15V4.58a1.76,1.76,0,0,1,1.76-1.76h15a1.76,1.76,0,0,1,1.76,1.76V8.15Z"/><path class="cls-2" d="M27.48,3.82a.76.76,0,0,1,.76.76V7.15H11.76V4.58a.76.76,0,0,1,.76-.76h15m0-2h-15A2.77,2.77,0,0,0,9.76,4.58V9.15H30.24V4.58a2.77,2.77,0,0,0-2.76-2.76Z"/><path class="cls-3" d="M35.71,9.18A2.29,2.29,0,0,1,38,11.47V33.89a2.3,2.3,0,0,1-2.29,2.29H4.29A2.3,2.3,0,0,1,2,33.89V11.47A2.29,2.29,0,0,1,4.29,9.18H35.71m0-2H4.29A4.29,4.29,0,0,0,0,11.47V33.89a4.29,4.29,0,0,0,4.29,4.29H35.71A4.29,4.29,0,0,0,40,33.89V11.47a4.29,4.29,0,0,0-4.29-4.29Z"/><polyline class="cls-4" points="0.45 19.97 19.96 24.94 39.41 19.97"/><rect class="cls-1" x="15.43" y="21.61" width="8.53" height="4.67" rx="0.42" ry="0.42"/><path class="cls-2" d="M23,22.61v2.67H16.43V22.61H23m.58-2h-7.7A1.42,1.42,0,0,0,14.43,22v3.83a1.43,1.43,0,0,0,1.42,1.42h7.7A1.43,1.43,0,0,0,25,25.86V22a1.42,1.42,0,0,0-1.42-1.42Z"/></svg>