<svg width="64" height="64" viewBox="0 0 64 64" fill="none" xmlns="http://www.w3.org/2000/svg">
<path d="M17.7599 41.31L14.0699 45C13.436 45.6339 12.5763 45.99 11.6799 45.99C10.7835 45.99 9.92375 45.6339 9.28988 45V45C8.97634 44.687 8.72758 44.3152 8.55786 43.906C8.38814 43.4967 8.30078 43.0581 8.30078 42.615C8.30078 42.172 8.38814 41.7333 8.55786 41.324C8.72758 40.9148 8.97634 40.543 9.28988 40.23L12.9999 36.54C13.6338 35.9061 14.4935 35.55 15.3899 35.55C16.2863 35.55 17.146 35.9061 17.7799 36.54C18.0921 36.8543 18.3393 37.2271 18.5073 37.6371C18.6753 38.047 18.7609 38.4861 18.759 38.9292C18.7571 39.3722 18.6679 39.8105 18.4965 40.2191C18.3251 40.6276 18.0747 40.9983 17.7599 41.31V41.31Z" stroke="#007AFF" stroke-width="2" stroke-linejoin="round"/>
<path d="M32.1298 55.55L28.4498 59.23C27.8159 59.8639 26.9562 60.22 26.0598 60.22C25.1633 60.22 24.3036 59.8639 23.6698 59.23V59.23C23.3562 58.917 23.1075 58.5452 22.9377 58.136C22.768 57.7267 22.6807 57.288 22.6807 56.845C22.6807 56.402 22.768 55.9633 22.9377 55.554C23.1075 55.1448 23.3562 54.773 23.6698 54.46L27.3598 50.78C27.6728 50.4664 28.0445 50.2177 28.4538 50.048C28.863 49.8783 29.3017 49.7909 29.7448 49.7909C30.1878 49.7909 30.6265 49.8783 31.0357 50.048C31.445 50.2177 31.8168 50.4664 32.1298 50.78V50.78C32.4433 51.093 32.6921 51.4648 32.8618 51.874C33.0315 52.2833 33.1189 52.722 33.1189 53.165C33.1189 53.608 33.0315 54.0467 32.8618 54.456C32.6921 54.8652 32.4433 55.237 32.1298 55.55V55.55Z" stroke="#007AFF" stroke-width="2" stroke-linejoin="round"/>
<path d="M57.19 23.81L42.94 9.59C42.6241 9.27425 42.3734 8.89933 42.2024 8.48667C42.0314 8.07401 41.9434 7.63169 41.9434 7.185C41.9434 6.73831 42.0314 6.29599 42.2024 5.88333C42.3734 5.47067 42.6241 5.09575 42.94 4.78V4.78C43.2558 4.46403 43.6307 4.21338 44.0434 4.04236C44.456 3.87135 44.8983 3.78333 45.345 3.78333C45.7917 3.78333 46.234 3.87135 46.6467 4.04236C47.0594 4.21338 47.4343 4.46403 47.75 4.78L62 19C62.3157 19.3149 62.5661 19.689 62.737 20.1008C62.9079 20.5126 62.9959 20.9541 62.9959 21.4C62.9959 21.8459 62.9079 22.2874 62.737 22.6992C62.5661 23.111 62.3157 23.4851 62 23.8C61.6849 24.1166 61.3105 24.3681 60.8982 24.5399C60.4859 24.7118 60.0438 24.8007 59.5971 24.8017C59.1504 24.8026 58.7079 24.7155 58.2949 24.5453C57.8819 24.3752 57.5064 24.1253 57.19 23.81V23.81Z" stroke="#00BFA5" stroke-width="2" stroke-linecap="round" stroke-linejoin="round"/>
<path d="M6.80973 23.81L21.0597 9.59C21.3757 9.27425 21.6263 8.89933 21.7974 8.48667C21.9684 8.07401 22.0564 7.63169 22.0564 7.185C22.0564 6.73831 21.9684 6.29599 21.7974 5.88333C21.6263 5.47067 21.3757 5.09575 21.0597 4.78C20.744 4.46403 20.3691 4.21338 19.9564 4.04236C19.5437 3.87135 19.1014 3.78333 18.6547 3.78333C18.208 3.78333 17.7657 3.87135 17.3531 4.04236C16.9404 4.21338 16.5655 4.46403 16.2497 4.78L1.99973 19C1.68406 19.3149 1.43362 19.689 1.26274 20.1008C1.09186 20.5126 1.00391 20.9541 1.00391 21.4C1.00391 21.8459 1.09186 22.2874 1.26274 22.6992C1.43362 23.111 1.68406 23.4851 1.99973 23.8C2.31482 24.1166 2.68922 24.3681 3.10152 24.5399C3.51383 24.7118 3.95596 24.8007 4.40265 24.8017C4.84935 24.8026 5.29185 24.7155 5.70486 24.5453C6.11788 24.3752 6.49332 24.1253 6.80973 23.81V23.81Z" stroke="#00BFA5" stroke-width="2" stroke-linecap="round" stroke-linejoin="round"/>
<path d="M23.5496 45.07L17.7896 50.82C17.1557 51.4539 16.296 51.81 15.3996 51.81C14.5032 51.81 13.6435 51.4539 13.0096 50.82V50.82C12.6961 50.507 12.4473 50.1352 12.2776 49.726C12.1079 49.3168 12.0205 48.8781 12.0205 48.435C12.0205 47.992 12.1079 47.5533 12.2776 47.144C12.4473 46.7348 12.6961 46.363 13.0096 46.05L18.7696 40.3C19.4035 39.6662 20.2632 39.3101 21.1596 39.3101C22.056 39.3101 22.9157 39.6662 23.5496 40.3C23.8632 40.613 24.1119 40.9848 24.2816 41.394C24.4514 41.8033 24.5387 42.242 24.5387 42.685C24.5387 43.1281 24.4514 43.5668 24.2816 43.976C24.1119 44.3852 23.8632 44.757 23.5496 45.07V45.07Z" stroke="#007AFF" stroke-width="2" stroke-linejoin="round"/>
<path d="M28.3494 49.82L22.5894 55.57C21.9555 56.2039 21.0958 56.56 20.1994 56.56C19.303 56.56 18.4433 56.2039 17.8094 55.57V55.57C17.4959 55.257 17.2471 54.8852 17.0774 54.476C16.9077 54.0668 16.8203 53.6281 16.8203 53.185C16.8203 52.742 16.9077 52.3033 17.0774 51.894C17.2471 51.4848 17.4959 51.113 17.8094 50.8L23.5694 45.05C24.2033 44.4162 25.063 44.0601 25.9594 44.0601C26.8558 44.0601 27.7155 44.4162 28.3494 45.05C28.663 45.363 28.9117 45.7348 29.0814 46.144C29.2512 46.5533 29.3385 46.992 29.3385 47.435C29.3385 47.8781 29.2512 48.3168 29.0814 48.726C28.9117 49.1352 28.663 49.507 28.3494 49.82V49.82Z" stroke="#007AFF" stroke-width="2" stroke-linejoin="round"/>
<path d="M22.0801 22.7L31.0801 13.7C32.0981 12.6471 33.314 11.8056 34.6581 11.224C36.0022 10.6423 37.4479 10.3319 38.9123 10.3105C40.3767 10.2891 41.8309 10.5572 43.1913 11.0994C44.5518 11.6416 45.7918 12.4472 46.8401 13.47L54.0001 20.69C54.86 21.5308 55.5446 22.5338 56.0141 23.6411C56.4835 24.7483 56.7286 25.9377 56.7352 27.1404C56.7417 28.343 56.5095 29.535 56.052 30.6473C55.5945 31.7595 54.9209 32.7699 54.0701 33.62L51.0701 36.62" stroke="#007AFF" stroke-width="2" stroke-linejoin="round"/>
<path d="M51 36.55L50.71 36.29" stroke="#007AFF" stroke-width="2" stroke-linejoin="round"/>
<path d="M24.4301 20.38L20.7401 24.07C20.4265 24.383 20.1778 24.7548 20.0081 25.164C19.8383 25.5733 19.751 26.012 19.751 26.455C19.751 26.898 19.8383 27.3367 20.0081 27.746C20.1778 28.1552 20.4265 28.527 20.7401 28.84V28.84C21.3739 29.4739 22.2337 29.83 23.1301 29.83C24.0265 29.83 24.8862 29.4739 25.5201 28.84L28.8901 25.47C32.3201 22.05 35.8901 21.53 39.5601 25.18L54.6401 40.24C55.2662 40.8664 55.6206 41.7142 55.6266 42.5998C55.6325 43.4855 55.2896 44.3379 54.6719 44.9727C54.0542 45.6075 53.2114 45.9736 52.3259 45.9918C51.4404 46.01 50.5833 45.6788 49.9401 45.07L50.9401 46.07C51.2773 46.3783 51.5486 46.7517 51.7375 47.1678C51.9263 47.5839 52.0289 48.034 52.0389 48.4908C52.0489 48.9476 51.9662 49.4017 51.7957 49.8257C51.6253 50.2496 51.3706 50.6346 51.0472 50.9574C50.7238 51.2801 50.3382 51.534 49.9139 51.7035C49.4896 51.8731 49.0353 51.9548 48.5785 51.9439C48.1217 51.9329 47.6719 51.8294 47.2562 51.6397C46.8405 51.45 46.4677 51.1779 46.1601 50.84C46.743 51.4855 47.0547 52.3308 47.0303 53.2002C47.0059 54.0696 46.6473 54.8961 46.0291 55.5079C45.4109 56.1197 44.5806 56.4696 43.711 56.4849C42.8414 56.5002 41.9994 56.1797 41.3601 55.59L40.4301 54.65C40.9929 55.2929 41.2905 56.1256 41.2626 56.9796C41.2348 57.8336 40.8836 58.6451 40.2801 59.25V59.25C39.6462 59.8839 38.7865 60.24 37.8901 60.24C36.9937 60.24 36.1339 59.8839 35.5001 59.25L32.0001 55.77" stroke="#007AFF" stroke-width="2" stroke-linejoin="round"/>
<path d="M31.79 55.55L32.02 55.77" stroke="#007AFF" stroke-width="2" stroke-linejoin="round"/>
<path d="M32.0798 13C29.9378 11.2361 27.2168 10.331 24.445 10.4604C21.6732 10.5897 19.0483 11.7443 17.0798 13.7L9.93981 20.7C9.08173 21.5421 8.39904 22.546 7.93117 23.6535C7.46331 24.761 7.21954 25.9502 7.21397 27.1525C7.20839 28.3548 7.4411 29.5462 7.89867 30.658C8.35624 31.7698 9.02958 32.7799 9.87981 33.63L12.8798 36.63" stroke="#007AFF" stroke-width="2" stroke-linejoin="round"/>
</svg>
