<svg width="64" height="64" viewBox="0 0 64 64" fill="none" xmlns="http://www.w3.org/2000/svg">
<path d="M14.8802 32.82V26.67C14.8534 22.0918 16.6384 17.6887 19.8457 14.4215C23.0529 11.1542 27.4222 9.28805 32.0002 9.23004V9.23004C36.579 9.28544 40.9498 11.1508 44.1576 14.4186C47.3655 17.6864 49.1496 22.091 49.1202 26.67V32.82" stroke="#00BFA5" stroke-width="2" stroke-linecap="round" stroke-linejoin="round"/>
<path d="M7.86997 26.67C7.81665 20.2116 10.3271 13.9957 14.8507 9.3859C19.3744 4.77606 25.5417 2.14865 32 2.08002C38.4591 2.14865 44.6275 4.77574 49.1527 9.38529C53.6779 13.9948 56.1906 20.2107 56.14 26.67" stroke="#007AFF" stroke-width="2" stroke-linecap="round" stroke-linejoin="round"/>
<path d="M62.9102 41.72C62.9707 41.3229 63.0008 40.9217 63.0002 40.52V35.61C63.0136 33.4703 62.1798 31.4123 60.6809 29.8853C59.182 28.3583 57.1398 27.4864 55.0002 27.46H51.7902C51.0767 27.4705 50.3961 27.7621 49.8962 28.2713C49.3963 28.7806 49.1175 29.4664 49.1202 30.18V46C49.1149 46.7144 49.3929 47.4018 49.8933 47.9116C50.3937 48.4214 51.0758 48.7121 51.7902 48.72H55.0002C56.9398 48.6987 58.8069 47.9794 60.2595 46.6939C61.7121 45.4084 62.6531 43.6427 62.9102 41.72" stroke="#007AFF" stroke-width="2" stroke-linecap="round" stroke-linejoin="round"/>
<path d="M1.09016 41.72C1.02962 41.3229 0.999527 40.9217 1.00016 40.52V35.61C0.986788 33.4703 1.82059 31.4123 3.31949 29.8853C4.81838 28.3583 6.8606 27.4864 9.00016 27.46H12.2102C12.9237 27.4705 13.6042 27.7621 14.1041 28.2713C14.604 28.7806 14.8829 29.4664 14.8802 30.18V46C14.8855 46.7144 14.6075 47.4018 14.107 47.9116C13.6066 48.4214 12.9245 48.7121 12.2102 48.72H9.00016C7.06052 48.6987 5.19347 47.9794 3.74085 46.6939C2.28823 45.4084 1.34723 43.6427 1.09016 41.72" stroke="#007AFF" stroke-width="2" stroke-linecap="round" stroke-linejoin="round"/>
<path d="M55.6699 40.85V53.32L50.3799 58.76H40.1699" stroke="#00BFA5" stroke-width="2" stroke-linecap="round" stroke-linejoin="round"/>
<path d="M37.0399 55.6H27.0099C25.2812 55.6 23.8799 57.0014 23.8799 58.73V58.78C23.8799 60.5087 25.2812 61.91 27.0099 61.91H37.0399C38.7685 61.91 40.1699 60.5087 40.1699 58.78V58.73C40.1699 57.0014 38.7685 55.6 37.0399 55.6Z" stroke="#00BFA5" stroke-width="2" stroke-linecap="round" stroke-linejoin="round"/>
<path d="M32.7604 23.82L35.7604 29.87C35.832 30.0094 35.9354 30.1299 36.0622 30.222C36.189 30.3141 36.3357 30.375 36.4904 30.4L43.1604 31.4C43.3215 31.4438 43.4691 31.5273 43.5896 31.6428C43.7102 31.7583 43.7999 31.9022 43.8507 32.0613C43.9014 32.2203 43.9114 32.3896 43.8799 32.5536C43.8484 32.7175 43.7764 32.871 43.6703 33L38.8404 37.71C38.7326 37.8211 38.6522 37.9557 38.6053 38.1032C38.5585 38.2507 38.5465 38.4071 38.5704 38.56L39.7104 45.2C39.7261 45.3743 39.6958 45.5496 39.6225 45.7085C39.5492 45.8673 39.4356 46.0042 39.2929 46.1054C39.1502 46.2066 38.9834 46.2686 38.8092 46.2852C38.6351 46.3018 38.4596 46.2724 38.3004 46.2L32.3004 43.07C32.1608 42.9997 32.0067 42.963 31.8504 42.963C31.6941 42.963 31.5399 42.9997 31.4004 43.07L25.4004 46.2C25.2415 46.2701 25.0672 46.2976 24.8945 46.2798C24.7218 46.2621 24.5567 46.1997 24.4155 46.0988C24.2742 45.9979 24.1617 45.862 24.0889 45.7044C24.0161 45.5468 23.9856 45.373 24.0004 45.2L25.1404 38.56C25.168 38.4062 25.1569 38.248 25.108 38.0995C25.0591 37.9511 24.974 37.8173 24.8604 37.71L20.1104 33C19.9922 32.8699 19.9104 32.7111 19.8732 32.5393C19.8361 32.3676 19.8448 32.1891 19.8985 32.0218C19.9522 31.8546 20.0491 31.7044 20.1793 31.5864C20.3096 31.4685 20.4686 31.3869 20.6404 31.35L27.3104 30.35C27.465 30.325 27.6117 30.2641 27.7385 30.172C27.8653 30.0799 27.9687 29.9594 28.0404 29.82L31.0404 23.77C31.1332 23.6233 31.2626 23.5032 31.4159 23.4216C31.5692 23.3401 31.741 23.2999 31.9146 23.3049C32.0882 23.3099 32.2574 23.3601 32.4057 23.4504C32.554 23.5407 32.6762 23.6681 32.7604 23.82Z" stroke="#007AFF" stroke-width="2" stroke-linecap="round" stroke-linejoin="round"/>
</svg>
