<svg width="64" height="64" viewBox="0 0 64 64" fill="none" xmlns="http://www.w3.org/2000/svg">
<g clip-path="url(#clip0)">
<path d="M32.2598 50.87V40.5L39.1098 33.65V25.97" stroke="#00BFA5" stroke-width="2" stroke-linecap="round" stroke-linejoin="round"/>
<path d="M32.2599 51.27V40.5L25.4199 33.65V25.97" stroke="#00BFA5" stroke-width="2" stroke-linecap="round" stroke-linejoin="round"/>
<path d="M35.3498 59.91C35.3737 60.3299 35.3117 60.7503 35.1674 61.1454C35.0232 61.5404 34.7998 61.9019 34.511 62.2076C34.2222 62.5134 33.874 62.7569 33.4878 62.9234C33.1015 63.0899 32.6854 63.1757 32.2648 63.1757C31.8442 63.1757 31.4281 63.0899 31.0418 62.9234C30.6556 62.7569 30.3074 62.5134 30.0186 62.2076C29.7298 61.9019 29.5064 61.5404 29.3622 61.1454C29.2179 60.7503 29.1559 60.3299 29.1798 59.91" stroke="#00BFA5" stroke-width="2" stroke-linecap="round" stroke-linejoin="round"/>
<path d="M47.5005 29.64C47.4959 27.1007 46.8569 24.6029 45.6415 22.3734C44.4261 20.1439 42.673 18.2534 40.5413 16.8737C38.4095 15.4939 35.9669 14.6687 33.4352 14.473C30.9035 14.2773 28.363 14.7173 26.0446 15.7529C23.7261 16.7886 21.7032 18.3872 20.1596 20.4034C18.616 22.4196 17.6007 24.7896 17.2059 27.298C16.811 29.8063 17.0492 32.3736 17.8988 34.7665C18.7483 37.1594 20.1823 39.3021 22.0705 41C23.0083 41.8387 23.7598 42.8648 24.2765 44.0119C24.7933 45.1591 25.0637 46.4018 25.0705 47.66V49.66C25.0692 49.8736 25.1101 50.0853 25.1909 50.283C25.2717 50.4807 25.3909 50.6605 25.5414 50.812C25.692 50.9635 25.871 51.0837 26.0682 51.1657C26.2654 51.2477 26.4769 51.29 26.6905 51.29H37.8705C38.3028 51.29 38.7174 51.1182 39.0231 50.8126C39.3288 50.5069 39.5005 50.0923 39.5005 49.66V47.66C39.5058 46.4001 39.7756 45.1555 40.2924 44.0065C40.8092 42.8575 41.5614 41.8299 42.5005 40.99C44.0825 39.5539 45.3451 37.8015 46.2064 35.8462C47.0678 33.891 47.5087 31.7765 47.5005 29.64V29.64Z" stroke="#007AFF" stroke-width="2" stroke-linejoin="round"/>
<path d="M37.2404 51.32H27.2904C26.1085 51.32 25.1504 52.2781 25.1504 53.46V53.47C25.1504 54.6519 26.1085 55.61 27.2904 55.61H37.2404C38.4223 55.61 39.3804 54.6519 39.3804 53.47V53.46C39.3804 52.2781 38.4223 51.32 37.2404 51.32Z" stroke="#007AFF" stroke-width="2" stroke-linejoin="round"/>
<path d="M37.2404 55.62H27.2904C26.1085 55.62 25.1504 56.5781 25.1504 57.76V57.77C25.1504 58.9519 26.1085 59.91 27.2904 59.91H37.2404C38.4223 59.91 39.3804 58.9519 39.3804 57.77V57.76C39.3804 56.5781 38.4223 55.62 37.2404 55.62Z" stroke="#007AFF" stroke-width="2" stroke-linejoin="round"/>
<path d="M32.2605 30.72C33.7738 30.72 35.0005 29.4888 35.0005 27.97C35.0005 26.4512 33.7738 25.22 32.2605 25.22C30.7472 25.22 29.5205 26.4512 29.5205 27.97C29.5205 29.4888 30.7472 30.72 32.2605 30.72Z" stroke="#007AFF" stroke-width="2" stroke-linecap="round" stroke-linejoin="round"/>
<path d="M31.8301 7.7V1" stroke="#00BFA5" stroke-width="2" stroke-linecap="round" stroke-linejoin="round"/>
<path d="M54.1201 27.79H60.8001" stroke="#00BFA5" stroke-width="2" stroke-linecap="round" stroke-linejoin="round"/>
<path d="M3.2002 27.79H9.8802" stroke="#00BFA5" stroke-width="2" stroke-linecap="round" stroke-linejoin="round"/>
<path d="M46.8301 13.88L51.5301 9.17999" stroke="#00BFA5" stroke-width="2" stroke-linecap="round" stroke-linejoin="round"/>
<path d="M16.8199 13.88L12.1299 9.17999" stroke="#00BFA5" stroke-width="2" stroke-linecap="round" stroke-linejoin="round"/>
<path d="M16.8199 42.9L12.1299 47.61" stroke="#00BFA5" stroke-width="2" stroke-linecap="round" stroke-linejoin="round"/>
<path d="M46.8301 42.9L51.5301 47.61" stroke="#00BFA5" stroke-width="2" stroke-linecap="round" stroke-linejoin="round"/>
</g>
<defs>
<clipPath id="clip0">
<rect width="64" height="64" fill="white"/>
</clipPath>
</defs>
</svg>
