<svg width="64" height="64" viewBox="0 0 64 64" fill="none" xmlns="http://www.w3.org/2000/svg">
<path d="M36.1094 45.18V57.4" stroke="#00BFA5" stroke-width="2" stroke-linecap="round" stroke-linejoin="round"/>
<path d="M27.8896 57.55V45.1" stroke="#00BFA5" stroke-width="2" stroke-linecap="round" stroke-linejoin="round"/>
<path d="M43.3996 42.38V63L32.0296 54.49L20.5996 63V42.4" stroke="#007AFF" stroke-width="2" stroke-linejoin="round"/>
<path d="M31.9996 45.47C44.3487 45.47 54.3596 35.5173 54.3596 23.24C54.3596 10.9627 44.3487 1.01001 31.9996 1.01001C19.6506 1.01001 9.63965 10.9627 9.63965 23.24C9.63965 35.5173 19.6506 45.47 31.9996 45.47Z" stroke="#007AFF" stroke-width="2" stroke-linejoin="round"/>
<path d="M31.9994 39.99C41.3054 39.99 48.8494 32.4908 48.8494 23.24C48.8494 13.9892 41.3054 6.48999 31.9994 6.48999C22.6934 6.48999 15.1494 13.9892 15.1494 23.24C15.1494 32.4908 22.6934 39.99 31.9994 39.99Z" stroke="#00BFA5" stroke-width="2" stroke-linecap="round" stroke-linejoin="round"/>
<path d="M32.9994 14.15L35.2794 18.74C35.3609 18.904 35.4807 19.046 35.6286 19.1539C35.7766 19.2619 35.9484 19.3325 36.1294 19.36L41.2294 20.09C41.4365 20.1191 41.6315 20.205 41.7927 20.3383C41.9538 20.4716 42.0748 20.647 42.1422 20.845C42.2095 21.043 42.2207 21.2558 42.1743 21.4597C42.1279 21.6636 42.0258 21.8507 41.8794 22L38.1894 25.6C38.0574 25.7274 37.9583 25.885 37.9008 26.0592C37.8433 26.2335 37.8291 26.4191 37.8594 26.6L38.7394 31.6C38.774 31.8084 38.7494 32.0223 38.6686 32.2174C38.5877 32.4125 38.4538 32.5811 38.282 32.7039C38.1102 32.8268 37.9074 32.8991 37.6966 32.9125C37.4858 32.926 37.2755 32.8801 37.0894 32.78L32.5294 30.4C32.3652 30.3166 32.1836 30.2731 31.9994 30.2731C31.8152 30.2731 31.6336 30.3166 31.4694 30.4L26.9094 32.78C26.7234 32.8801 26.5131 32.926 26.3023 32.9125C26.0915 32.8991 25.8887 32.8268 25.7169 32.7039C25.5451 32.5811 25.4112 32.4125 25.3303 32.2174C25.2494 32.0223 25.2249 31.8084 25.2594 31.6L26.1394 26.6C26.1697 26.4191 26.1555 26.2335 26.098 26.0592C26.0405 25.885 25.9415 25.7274 25.8094 25.6L22.1194 22C21.9676 21.8527 21.8602 21.6657 21.8094 21.4604C21.7586 21.255 21.7665 21.0395 21.8321 20.8384C21.8978 20.6373 22.0186 20.4587 22.1807 20.3228C22.3429 20.187 22.5399 20.0994 22.7494 20.07L27.8494 19.34C28.0305 19.3125 28.2023 19.2419 28.3502 19.1339C28.4982 19.026 28.618 18.884 28.6994 18.72L30.9994 14.15C31.0976 13.9706 31.2423 13.8209 31.4182 13.7167C31.5942 13.6124 31.7949 13.5574 31.9994 13.5574C32.204 13.5574 32.4047 13.6124 32.5806 13.7167C32.7566 13.8209 32.9012 13.9706 32.9994 14.15V14.15Z" stroke="#007AFF" stroke-width="2" stroke-linejoin="round"/>
</svg>
