<svg width="64" height="64" viewBox="0 0 64 64" fill="none" xmlns="http://www.w3.org/2000/svg">
<path d="M52.34 44.45H63C63 36.2283 59.7339 28.3433 53.9203 22.5297C48.1067 16.7161 40.2217 13.45 32 13.45C23.7783 13.45 15.8933 16.7161 10.0797 22.5297C4.26606 28.3433 1 36.2283 1 44.45H11.66" stroke="#007AFF" stroke-width="2" stroke-linecap="round" stroke-linejoin="round"/>
<path d="M1.03027 50.52H11.6603" stroke="#00BFA5" stroke-width="2" stroke-linecap="round" stroke-linejoin="round"/>
<path d="M52.3398 50.52H62.9698" stroke="#00BFA5" stroke-width="2" stroke-linecap="round" stroke-linejoin="round"/>
<path d="M34.1296 45.83L43.1296 33.07L29.7896 41.17C29.6535 41.2619 29.5233 41.3621 29.3996 41.47C28.7723 42.0548 28.4031 42.8648 28.3731 43.7219C28.3431 44.5789 28.6548 45.4128 29.2396 46.04C29.8244 46.6672 30.6344 47.0365 31.4914 47.0665C32.3485 47.0965 33.1823 46.7848 33.8096 46.2C33.9298 46.0891 34.0372 45.965 34.1296 45.83V45.83Z" stroke="#007AFF" stroke-width="2" stroke-linecap="round" stroke-linejoin="round"/>
<path d="M32 23.6V17.15" stroke="#00BFA5" stroke-width="2" stroke-linecap="round" stroke-linejoin="round"/>
<path d="M46.4697 29.55L50.9997 25.02" stroke="#00BFA5" stroke-width="2" stroke-linecap="round" stroke-linejoin="round"/>
<path d="M17.53 29.55L13 25.02" stroke="#00BFA5" stroke-width="2" stroke-linecap="round" stroke-linejoin="round"/>
<path d="M12.6798 37.11L8.7998 35.72" stroke="#00BFA5" stroke-width="2" stroke-linecap="round" stroke-linejoin="round"/>
<path d="M14.4602 33.43L10.9102 31.28" stroke="#00BFA5" stroke-width="2" stroke-linecap="round" stroke-linejoin="round"/>
<path d="M11.6704 41.05L7.61035 40.46" stroke="#00BFA5" stroke-width="2" stroke-linecap="round" stroke-linejoin="round"/>
<path d="M20.5297 27.09L18.1797 23.62" stroke="#00BFA5" stroke-width="2" stroke-linecap="round" stroke-linejoin="round"/>
<path d="M24.2502 25.11L22.6602 21.22" stroke="#00BFA5" stroke-width="2" stroke-linecap="round" stroke-linejoin="round"/>
<path d="M28.2297 24.06L27.4297 19.8" stroke="#00BFA5" stroke-width="2" stroke-linecap="round" stroke-linejoin="round"/>
<path d="M51.3398 37.18L55.2298 35.8" stroke="#00BFA5" stroke-width="2" stroke-linecap="round" stroke-linejoin="round"/>
<path d="M49.54 33.43L53.09 31.28" stroke="#00BFA5" stroke-width="2" stroke-linecap="round" stroke-linejoin="round"/>
<path d="M52.3301 41.05L56.3901 40.46" stroke="#00BFA5" stroke-width="2" stroke-linecap="round" stroke-linejoin="round"/>
<path d="M43.4697 27.09L45.8197 23.62" stroke="#00BFA5" stroke-width="2" stroke-linecap="round" stroke-linejoin="round"/>
<path d="M39.79 25.13L41.4 21.24" stroke="#00BFA5" stroke-width="2" stroke-linecap="round" stroke-linejoin="round"/>
<path d="M35.79 23.95L36.57 19.8" stroke="#00BFA5" stroke-width="2" stroke-linecap="round" stroke-linejoin="round"/>
</svg>
