<svg xmlns="http://www.w3.org/2000/svg" xmlns:xlink="http://www.w3.org/1999/xlink" width="76" height="40" viewBox="0 0 76 40">
    <defs>
        <path id="a" d="M.447.032h4.891V2.03H.447z"/>
    </defs>
    <g fill="none" fill-rule="evenodd">
        <path stroke="#CCC" d="M4 .5A3.5 3.5 0 0 0 .5 4v32A3.5 3.5 0 0 0 4 39.5h68a3.5 3.5 0 0 0 3.5-3.5V4A3.5 3.5 0 0 0 72 .5H4z"/>
        <path fill="#41A5DF" d="M35.709 18.428c-.449.008-.792.171-.957.608a.839.839 0 0 0-.042.311v2.89c0 .518.23.808.74.946.044.12.145.07.221.07 1.504.003 3.006.003 4.507 0 .287 0 .287 0 .287.289 0 .697.002 1.393.004 2.09-.003.19-.163.25-.292.336-.1 0-.2-.006-.301-.006H29.07c-.211 0-.418.019-.63-.072-.227-.097-.426-.293-.426-.535v-9.016c0-.223.143-.367.368-.367h11.626c.225 0 .368.145.368.368 0 .578-.008 1.158.005 1.736.006.208-.043.276-.27.274-1.39-.012-2.78-.007-4.17-.004-.082 0-.197-.057-.233.082"/>
        <path fill="#4A4A4A" d="M22.695 20.623c.003-.534 0-1.036-.055-1.534-.054-.487-.17-.962-.621-1.249-.58-.37-1.214-.38-1.836-.115-.575.247-.756.763-.815 1.324-.053.548-.07 1.099-.052 1.65.017.674-.015 1.354.188 2.014.098.316.259.596.54.794.974.677 2.279.146 2.517-1.021.127-.63.106-1.265.134-1.863m2.403-.12c0 .783-.006 1.564-.145 2.339-.28 1.543-1.223 2.523-2.786 2.862-1.098.237-2.175.169-3.207-.291-1-.448-1.587-1.221-1.843-2.257a7.031 7.031 0 0 1-.198-1.613c-.012-1.153-.143-2.318.197-3.448.307-1.017.885-1.846 1.926-2.252 1.335-.522 2.69-.514 4.013.042.95.398 1.478 1.18 1.801 2.107.18.518.236 1.058.242 1.602.003.302 0 .606 0 .908M56.41 21.218c.274 0 .547-.006.821.002.141.005.185-.018.148-.175-.216-.932-.416-1.87-.622-2.805-.047-.213-.087-.428-.141-.64-.028-.108-.06-.229-.211-.229-.14 0-.168.111-.2.213l-.023.081c-.25 1.135-.498 2.27-.753 3.404-.03.135.022.152.14.15.28-.003.56-.001.841-.001m3.103 4.242c-.288 0-.577-.007-.865 0-.199.005-.309-.073-.351-.264-.147-.653-.302-1.303-.442-1.957-.035-.166-.1-.208-.269-.207-.792.01-1.584.008-2.378 0-.14 0-.215.021-.246.177-.13.643-.287 1.28-.41 1.923-.043.227-.16.32-.373.322-.612.004-1.225.004-1.837 0-.206 0-.233-.14-.197-.296.087-.378.182-.754.274-1.13l1.485-6.058c.095-.388.177-.782.298-1.167.248-.777.81-1.176 1.612-1.303a3.76 3.76 0 0 1 1.331.025c.84.166 1.329.682 1.527 1.483.274 1.116.549 2.23.82 3.346l1.06 4.31c.044.178.083.357.111.538.029.18-.054.263-.241.26-.303-.005-.606-.002-.909-.002M15.375 22.933v2.095c0 .323-.053.398-.367.509-.403.14-.828.175-1.25.217-.668.068-1.338.065-2.007.039-1.067-.043-1.989-.422-2.715-1.202-.545-.585-.799-1.294-.9-2.065-.187-1.406-.195-2.81.065-4.21.237-1.271 1.013-2.086 2.23-2.516 1.017-.36 2.07-.381 3.131-.267.5.052 1 .105 1.492.221.224.053.33.169.345.392.034.452.011.901-.007 1.355-.005.147-.091.129-.185.127l-2.051-.053c-.295-.009-.591-.007-.886-.025-1.034-.069-1.544.435-1.704 1.375-.2 1.166-.178 2.346-.016 3.518.12.86.638 1.291 1.536 1.333.25.011.504-.003.755.01.147.007.173-.045.173-.179-.007-.932-.004-1.863-.003-2.795 0-.375.09-.465.468-.465.475 0 .95-.004 1.426.01.405.01.47.088.471.482v2.094M46.39 18.786c0 .422.004.847-.003 1.27 0 .121.02.174.162.172.46-.009.921.007 1.383-.007.898-.027 1.314-.369 1.43-1.154.016-.113.026-.226.028-.339.017-.857-.44-1.336-1.316-1.362-.504-.014-1.008 0-1.514-.014-.152-.003-.175.055-.172.184.005.418.001.833.001 1.25m-2.358 1.983v-4.127c0-.72.375-1.096 1.114-1.1 1.081-.006 2.162-.017 3.243 0 1.054.017 1.964.384 2.68 1.163.285.312.473.696.543 1.11.121.665.134 1.34-.012 1.999-.217.973-.932 1.536-1.816 1.923-.61.269-1.264.314-1.922.318-.417.001-.835-.006-1.254-.02-.163-.007-.2.049-.2.203 0 .932-.01 1.864-.02 2.796-.003.347-.082.423-.43.423h-1.385c-.428 0-.543-.111-.544-.52l.003-4.168M63.867 23.607c0-.543-.003-1.086 0-1.63a.256.256 0 0 0-.14-.253c-.43-.274-.665-.699-.857-1.141-.595-1.374-1.176-2.755-1.761-4.133a.934.934 0 0 1-.07-.199c-.042-.245.04-.349.292-.35.475-.005.95-.006 1.426 0 .296.004.493.14.601.423.421 1.107.855 2.21 1.286 3.315.038.098.083.195.137.287.143.235.285.235.416-.015.098-.188.183-.382.258-.58.393-1.005.787-2.01 1.172-3.018.11-.284.316-.409.611-.41.454-.005.909-.004 1.362 0 .326 0 .42.116.318.423-.09.266-.21.522-.322.782-.5 1.17-.994 2.339-1.503 3.504-.2.459-.447.89-.905 1.153-.102.058-.075.143-.075.222a962.148 962.148 0 0 0 0 3.218c0 .354-.117.468-.475.468h-1.341c-.285 0-.423-.13-.424-.413-.009-.552-.006-1.103-.006-1.653"/>
        <path fill="#41A5DF" d="M36.573 20.736a.514.514 0 0 0 .155.382c.103.1.245.154.39.15.321 0 .542-.218.542-.532 0-.314-.224-.534-.542-.533a.536.536 0 0 0-.388.152.52.52 0 0 0-.157.38m1.85-1.467c.864 0 1.727.004 2.59-.003.164 0 .224.035.222.209-.01.839-.01 1.678 0 2.516 0 .17-.052.212-.22.212a851.993 851.993 0 0 0-5.18 0c-.156 0-.212-.033-.212-.198.01-.847.01-1.692 0-2.537 0-.162.05-.203.21-.201.863.006 1.726.002 2.59.002"/>
        <g transform="translate(31.324 12.843)">
            <mask id="b" fill="#fff">
                <use xlink:href="#a"/>
            </mask>
            <path fill="#41A5DF" d="M5.338.613L.462 2.03a.304.304 0 0 0-.015-.035L1.78 1.28 3.919.133c.266-.142.519-.139.767.039.198.14.4.271.652.44" mask="url(#b)"/>
        </g>
        <path fill="#41A5DF" d="M34.458 15.007c.701-.24 1.403-.483 2.109-.716.291-.096.574-.222.88-.278.18-.034.333.013.444.15.198.24.386.49.574.737.065.086.082.148-.07.148a978.4 978.4 0 0 0-3.926 0l-.011-.041z"/>
    </g>
</svg>
