<svg xmlns="http://www.w3.org/2000/svg" width="76" height="40" viewBox="0 0 76 40">
    <g fill="none" fill-rule="evenodd">
        <path stroke="#CCC" d="M4 .5A3.5 3.5 0 0 0 .5 4v32A3.5 3.5 0 0 0 4 39.5h68a3.5 3.5 0 0 0 3.5-3.5V4A3.5 3.5 0 0 0 72 .5H4z"/>
        <g fill-rule="nonzero">
            <path fill="#253B80" d="M30.36 16.266h-3.309a.46.46 0 0 0-.454.388l-1.339 8.485a.275.275 0 0 0 .273.319h1.58a.46.46 0 0 0 .454-.389l.361-2.289a.46.46 0 0 1 .454-.388h1.048c2.18 0 3.438-1.055 3.766-3.145.148-.915.006-1.633-.422-2.137-.47-.552-1.304-.844-2.412-.844zm.382 3.099c-.181 1.187-1.088 1.187-1.966 1.187h-.499l.35-2.217a.276.276 0 0 1 .273-.233h.229c.597 0 1.161 0 1.452.34.174.204.227.506.16.923zM40.252 19.327h-1.585a.276.276 0 0 0-.272.232l-.07.444-.111-.161c-.343-.498-1.108-.664-1.872-.664-1.75 0-3.247 1.326-3.538 3.186-.151.928.064 1.816.59 2.435.483.569 1.174.806 1.996.806 1.411 0 2.194-.907 2.194-.907l-.07.44a.276.276 0 0 0 .271.32h1.428a.46.46 0 0 0 .454-.39l.856-5.423a.275.275 0 0 0-.271-.318zm-2.209 3.084c-.153.905-.871 1.513-1.788 1.513-.46 0-.828-.148-1.064-.427-.234-.278-.323-.673-.249-1.114a1.774 1.774 0 0 1 1.776-1.525c.45 0 .816.15 1.057.432.241.285.337.682.268 1.12zM48.692 19.327h-1.593a.461.461 0 0 0-.38.201l-2.197 3.236-.93-3.11a.461.461 0 0 0-.442-.327h-1.565a.276.276 0 0 0-.262.364l1.754 5.148-1.649 2.328a.276.276 0 0 0 .225.435h1.59a.459.459 0 0 0 .379-.197l5.296-7.645a.276.276 0 0 0-.226-.433z"/>
            <path fill="#179BD7" d="M53.964 16.266h-3.31a.46.46 0 0 0-.454.388l-1.338 8.485a.275.275 0 0 0 .272.319h1.698a.322.322 0 0 0 .318-.272l.38-2.406a.46.46 0 0 1 .453-.388h1.047c2.18 0 3.438-1.055 3.767-3.145.149-.915.006-1.633-.422-2.137-.47-.552-1.304-.844-2.411-.844zm.382 3.099c-.18 1.187-1.088 1.187-1.966 1.187h-.499l.351-2.217a.275.275 0 0 1 .272-.233h.229c.597 0 1.161 0 1.452.34.174.204.227.506.16.923zM63.855 19.327h-1.584a.274.274 0 0 0-.271.232l-.07.444-.112-.161c-.343-.498-1.108-.664-1.871-.664-1.751 0-3.246 1.326-3.538 3.186-.15.928.064 1.816.59 2.435.484.569 1.174.806 1.996.806 1.411 0 2.194-.907 2.194-.907l-.071.44a.276.276 0 0 0 .273.32h1.427a.46.46 0 0 0 .454-.39l.857-5.423a.276.276 0 0 0-.274-.318zm-2.209 3.084c-.152.905-.871 1.513-1.788 1.513-.459 0-.828-.148-1.064-.427-.234-.278-.322-.673-.248-1.114.143-.897.873-1.525 1.775-1.525.45 0 .816.15 1.057.432.243.285.338.682.268 1.12zM65.723 16.498l-1.358 8.641a.275.275 0 0 0 .272.319h1.366c.227 0 .42-.165.454-.389l1.34-8.485a.276.276 0 0 0-.273-.319h-1.529c-.135 0-.25.1-.272.233z"/>
            <path fill="#253B80" d="M11.516 27.107l.253-1.608-.564-.013H8.513l1.871-11.86a.153.153 0 0 1 .152-.13h4.539c1.506 0 2.546.313 3.09.932.254.29.416.594.494.927.082.35.084.77.004 1.28l-.006.037V17l.254.144c.215.114.385.244.516.393.217.249.358.564.418.938.061.385.04.842-.06 1.36-.116.597-.304 1.116-.557 1.54-.233.392-.53.717-.883.969-.337.239-.737.42-1.19.536a5.931 5.931 0 0 1-1.486.172h-.353c-.253 0-.498.09-.69.254a1.07 1.07 0 0 0-.36.643l-.027.144-.448 2.833-.02.104c-.005.033-.014.05-.028.06a.075.075 0 0 1-.046.018h-2.181z"/>
            <path fill="#179BD7" d="M19.152 16.71a7.938 7.938 0 0 1-.046.266c-.599 3.073-2.646 4.135-5.262 4.135h-1.331c-.32 0-.59.232-.64.547l-.681 4.324-.193 1.226a.34.34 0 0 0 .336.394h2.362c.28 0 .517-.203.56-.48l.024-.12.445-2.821.028-.155a.568.568 0 0 1 .562-.48h.353c2.288 0 4.08-.93 4.603-3.617.219-1.124.105-2.061-.473-2.72a2.258 2.258 0 0 0-.647-.5z"/>
            <path fill="#222D65" d="M18.526 16.46a4.721 4.721 0 0 0-.582-.129 7.396 7.396 0 0 0-1.174-.086h-3.557a.565.565 0 0 0-.561.48l-.757 4.794-.022.14a.647.647 0 0 1 .64-.548h1.331c2.616 0 4.663-1.062 5.262-4.135a6.87 6.87 0 0 0 .046-.266 3.19 3.19 0 0 0-.626-.25z"/>
            <path fill="#253B80" d="M12.652 16.725a.566.566 0 0 1 .56-.48h3.558c.422 0 .815.028 1.174.086a4.721 4.721 0 0 1 .717.17c.176.06.34.129.492.209.178-1.136-.002-1.909-.616-2.61-.677-.77-1.898-1.1-3.462-1.1h-4.539a.649.649 0 0 0-.64.548L8.004 25.531a.39.39 0 0 0 .385.451h2.802l.703-4.463.757-4.794z"/>
        </g>
    </g>
</svg>
