<svg width="88" height="88" viewBox="0 0 88 88" fill="none" xmlns="http://www.w3.org/2000/svg">
<g clip-path="url(#clip0)">
<path d="M44 88C68.3005 88 88 68.3005 88 44C88 19.6995 68.3005 0 44 0C19.6995 0 0 19.6995 0 44C0 68.3005 19.6995 88 44 88Z" fill="#007AFF"/>
<path d="M57.9183 39.785C57.4414 37.4654 56.2287 35.3616 54.4605 33.7864C52.6922 32.2111 50.4628 31.2486 48.1037 31.0419C45.7447 30.8352 43.3818 31.3954 41.3666 32.6391C39.3514 33.8828 37.7913 35.7436 36.9183 37.945H36.5983C34.6519 37.9458 32.781 38.6983 31.3761 40.0455C29.9711 41.3926 29.1408 43.2303 29.0583 45.175C28.8834 45.1399 28.7063 45.1165 28.5283 45.105C27.9634 45.0298 27.389 45.0761 26.8434 45.2409C26.2979 45.4057 25.7939 45.6852 25.3652 46.0607C24.9364 46.4361 24.5929 46.8988 24.3575 47.4178C24.1221 47.9368 24.0003 48.5001 24.0003 49.07C24.0003 49.6399 24.1221 50.2032 24.3575 50.7222C24.5929 51.2412 24.9364 51.7039 25.3652 52.0793C25.7939 52.4547 26.2979 52.7342 26.8434 52.899C27.389 53.0639 27.9634 53.1102 28.5283 53.035H57.9283C59.6867 53.035 61.3731 52.3365 62.6164 51.0931C63.8598 49.8497 64.5583 48.1634 64.5583 46.405C64.5583 44.6466 63.8598 42.9602 62.6164 41.7169C61.3731 40.4735 59.6867 39.775 57.9283 39.775L57.9183 39.785Z" stroke="white" stroke-width="2" stroke-linejoin="round"/>
<path d="M31.4183 57.165H57.6383" stroke="white" stroke-width="2" stroke-linecap="round" stroke-linejoin="round"/>
</g>
<defs>
<clipPath id="clip0">
<rect width="88" height="88" fill="white"/>
</clipPath>
</defs>
</svg>
