<svg width="88" height="88" viewBox="0 0 88 88" fill="none" xmlns="http://www.w3.org/2000/svg">
<path d="M44 88C68.3005 88 88 68.3005 88 44C88 19.6995 68.3005 0 44 0C19.6995 0 0 19.6995 0 44C0 68.3005 19.6995 88 44 88Z" fill="#007AFF"/>
<g clip-path="url(#clip0)">
<path d="M60.8315 41.4287H27.169C25.7744 41.4287 24.644 42.5592 24.644 43.9537V52.335C24.644 53.7295 25.7744 54.86 27.169 54.86H60.8315C62.226 54.86 63.3565 53.7295 63.3565 52.335V43.9537C63.3565 42.5592 62.226 41.4287 60.8315 41.4287Z" stroke="white" stroke-width="2" stroke-linejoin="round"/>
<path d="M30.8877 48.1412H48.9939" stroke="white" stroke-width="2" stroke-linecap="round" stroke-linejoin="round"/>
<path d="M56.1753 49.8099C57.0728 49.8099 57.8003 49.0628 57.8003 48.1412C57.8003 47.2196 57.0728 46.4724 56.1753 46.4724C55.2778 46.4724 54.5503 47.2196 54.5503 48.1412C54.5503 49.0628 55.2778 49.8099 56.1753 49.8099Z" stroke="white" stroke-width="2" stroke-linecap="round" stroke-linejoin="round"/>
<path d="M51.2002 33.7537H52.4502C53.0657 33.7557 53.6747 33.8806 54.2413 34.121C54.808 34.3614 55.3209 34.7125 55.7502 35.1537L62.6252 42.1975" stroke="white" stroke-width="2" stroke-linecap="round" stroke-linejoin="round"/>
<path d="M25.3626 42.1975L32.2376 35.1537C32.6668 34.7125 33.1798 34.3614 33.7465 34.121C34.3131 33.8806 34.9221 33.7557 35.5376 33.7537H37.1251" stroke="white" stroke-width="2" stroke-linecap="round" stroke-linejoin="round"/>
<path d="M44.0993 38.424C43.187 38.424 42.3896 38.2403 41.7071 37.8729C41.0246 37.5123 40.4988 37.0054 40.1297 36.3523C39.7606 35.6992 39.576 34.9474 39.576 34.0969C39.576 33.1717 39.771 32.3689 40.161 31.6885C40.558 31.0082 41.0977 30.4877 41.7802 30.1271C42.4696 29.7597 43.2461 29.576 44.1097 29.576C45.015 29.576 45.7915 29.7461 46.4392 30.0863C47.0938 30.4265 47.5883 30.8823 47.9226 31.4538C48.2568 32.0253 48.424 32.6546 48.424 33.3418C48.424 33.9609 48.3265 34.4847 48.1315 34.9134C47.9365 35.342 47.6753 35.6617 47.348 35.8727C47.0277 36.0836 46.669 36.189 46.2721 36.189C45.903 36.189 45.607 36.1108 45.3841 35.9543C45.1648 35.8003 45.0331 35.5902 44.9892 35.3241C44.988 35.3168 44.9817 35.3114 44.9743 35.3114C44.9693 35.3114 44.9646 35.3139 44.9618 35.3181C44.5724 35.8987 44.062 36.189 43.4307 36.189C42.9362 36.189 42.5428 36.0257 42.2503 35.6992C41.9647 35.3658 41.822 34.9202 41.822 34.3623C41.822 33.886 41.9125 33.4472 42.0936 33.0458C42.2816 32.6444 42.5428 32.328 42.877 32.0967C43.2183 31.8586 43.6013 31.7395 44.0261 31.7395C44.3256 31.7395 44.5867 31.8042 44.8096 31.9334C45.0364 32.061 45.1919 32.2349 45.2763 32.4552C45.2784 32.4605 45.2835 32.4641 45.2892 32.4641C45.2958 32.4641 45.3014 32.4594 45.3026 32.4529L45.3853 32.0053C45.4028 31.9104 45.4855 31.8416 45.5819 31.8416H46.1369C46.2617 31.8416 46.356 31.9546 46.3337 32.0773L45.9169 34.3725C45.889 34.5154 45.8751 34.6616 45.8751 34.8113C45.8751 35.0222 45.9204 35.1787 46.0109 35.2808C46.1014 35.3828 46.2477 35.4338 46.4496 35.4338C46.6098 35.4338 46.77 35.3658 46.9302 35.2297C47.0903 35.0869 47.2261 34.8589 47.3376 34.546C47.449 34.233 47.5047 33.8316 47.5047 33.3418C47.5047 32.7839 47.3759 32.2838 47.1182 31.8416C46.8675 31.3926 46.4845 31.0388 45.9691 30.7803C45.4607 30.5217 44.8409 30.3925 44.1097 30.3925C43.4272 30.3925 42.8144 30.5387 42.2712 30.8313C41.7349 31.1238 41.3101 31.549 40.9967 32.1069C40.6903 32.6648 40.5371 33.3282 40.5371 34.0969C40.5371 34.8045 40.6799 35.4236 40.9654 35.9543C41.2509 36.4782 41.6618 36.883 42.198 37.1687C42.7343 37.4613 43.368 37.6075 44.0993 37.6075C44.6425 37.6075 45.1091 37.5395 45.499 37.4034C45.8493 37.2812 46.1209 37.1152 46.3138 36.9052C46.3551 36.8603 46.412 36.8319 46.4729 36.8319H47.2839C47.4378 36.8319 47.5313 36.9974 47.4359 37.1182C47.159 37.4694 46.7745 37.7583 46.2825 37.9851C45.6697 38.2777 44.9419 38.424 44.0993 38.424ZM43.6396 35.4338C43.9391 35.4338 44.1968 35.342 44.4126 35.1583C44.6355 34.9746 44.8026 34.7365 44.9141 34.4439C45.0324 34.1514 45.0916 33.8452 45.0916 33.5255C45.0916 33.1921 45.0116 32.9404 44.8514 32.7703C44.6912 32.5934 44.4684 32.5049 44.1828 32.5049C43.8973 32.5049 43.6466 32.5968 43.4307 32.7805C43.2218 32.9574 43.0616 33.1887 42.9502 33.4744C42.8457 33.7534 42.7935 34.0459 42.7935 34.3521C42.7935 34.6854 42.8701 34.9508 43.0233 35.1481C43.1835 35.3386 43.3889 35.4338 43.6396 35.4338Z" fill="white" stroke="white" stroke-width="0.3"/>
</g>
<defs>
<clipPath id="clip0">
<rect width="40" height="40" fill="white" transform="translate(24 24)"/>
</clipPath>
</defs>
</svg>
