<svg width="88" height="88" viewBox="0 0 88 88" fill="none" xmlns="http://www.w3.org/2000/svg">
<path d="M44 88C68.3005 88 88 68.3005 88 44C88 19.6995 68.3005 0 44 0C19.6995 0 0 19.6995 0 44C0 68.3005 19.6995 88 44 88Z" fill="#007AFF"/>
<path d="M59.3039 35.6782H28.6952C26.5821 35.6782 24.8691 37.3912 24.8691 39.5043V44.813C24.8691 46.9261 26.5821 48.6391 28.6952 48.6391H59.3039C61.417 48.6391 63.13 46.9261 63.13 44.813V39.5043C63.13 37.3912 61.417 35.6782 59.3039 35.6782Z" stroke="white" stroke-width="2" stroke-linejoin="round"/>
<path d="M31.0387 42.1539H48.9352" stroke="white" stroke-width="2" stroke-linecap="round" stroke-linejoin="round"/>
<path d="M56.0326 43.7608C56.9201 43.7608 57.6396 43.0414 57.6396 42.1539C57.6396 41.2664 56.9201 40.5469 56.0326 40.5469C55.1451 40.5469 54.4257 41.2664 54.4257 42.1539C54.4257 43.0414 55.1451 43.7608 56.0326 43.7608Z" stroke="white" stroke-width="2" stroke-linecap="round" stroke-linejoin="round"/>
<path d="M48.0265 29.1165H52.2543C53.5178 29.1405 54.7302 29.6194 55.6691 30.4652L61.9917 36.7878" stroke="white" stroke-width="2" stroke-linecap="round" stroke-linejoin="round"/>
<path d="M25.9788 36.8165L32.2631 30.4652C32.7119 30.0217 33.2458 29.6735 33.8326 29.4418C34.4195 29.21 35.0472 29.0993 35.6779 29.1165H48.1892" stroke="white" stroke-width="2" stroke-linecap="round" stroke-linejoin="round"/>
<path d="M43.9996 48.6391V52.6469" stroke="white" stroke-width="2" stroke-linejoin="round"/>
<path d="M54.0908 56.6547H47.8926" stroke="white" stroke-width="2" stroke-linecap="round" stroke-linejoin="round"/>
<path d="M39.9535 56.6547H33.7648" stroke="white" stroke-width="2" stroke-linecap="round" stroke-linejoin="round"/>
<path d="M46.19 54.8086H46.037V54.1773C46.037 53.7714 45.8758 53.3822 45.5887 53.0952C45.3017 52.8082 44.9125 52.6469 44.5066 52.6469H43.4927C43.0868 52.6469 42.6975 52.8082 42.4105 53.0952C42.1235 53.3822 41.9622 53.7714 41.9622 54.1773V54.8086H41.8092C41.3567 54.8112 40.9237 54.9927 40.6047 55.3135C40.2856 55.6343 40.1066 56.0684 40.1066 56.5208V57.1808C40.1066 57.6324 40.2859 58.0654 40.6053 58.3847C40.9246 58.704 41.3576 58.8834 41.8092 58.8834H46.19C46.6416 58.8834 47.0747 58.704 47.394 58.3847C47.7133 58.0654 47.8927 57.6324 47.8927 57.1808V56.5208C47.8927 56.0684 47.7136 55.6343 47.3946 55.3135C47.0755 54.9927 46.6425 54.8112 46.19 54.8086V54.8086Z" stroke="white" stroke-width="2" stroke-linecap="round" stroke-linejoin="round"/>
</svg>
