<svg xmlns="http://www.w3.org/2000/svg" width="136" height="56" viewBox="0 0 136 56">
    <g fill="none" fill-rule="evenodd">
        <rect width="135" height="55" x=".5" y=".5" stroke="#2760FF" rx="4"/>
        <path fill="#FFF" d="M113.98 22.23l-5.842-1.361-1.043-.419-26.81.21v12.985l33.695.105z"/>
        <path fill="#F48120" d="M103.174 32.29c.315-1.045.21-2.088-.315-2.714-.524-.627-1.258-1.044-2.202-1.148l-18.25-.209c-.106 0-.21-.104-.316-.104-.105-.105-.105-.209 0-.313.105-.21.21-.313.42-.313l18.355-.21c2.203-.103 4.51-1.878 5.35-3.965l1.049-2.713c0-.104.105-.209 0-.313C106.11 14.966 101.285 11 95.622 11c-5.245 0-9.755 3.34-11.328 8.036a5.749 5.749 0 0 0-3.776-1.044c-2.517.209-4.51 2.296-4.825 4.8-.105.627 0 1.253.105 1.879-4.09.104-7.447 3.444-7.447 7.618 0 .417 0 .73.105 1.148 0 .209.21.313.314.313h33.67c.21 0 .42-.104.42-.313l.314-1.148z"/>
        <path fill="#FAAD3F" d="M108.638 20.8h-.521c-.104 0-.209.104-.313.209l-.73 2.506c-.312 1.045-.208 2.09.313 2.716.521.626 1.251 1.044 2.19 1.148l3.857.21c.105 0 .209.104.313.104.104.104.104.208 0 .313-.104.209-.208.313-.417.313l-3.962.21c-2.19.104-4.483 1.879-5.317 3.968l-.209.94c-.104.104 0 .313.209.313h13.762c.209 0 .313-.104.313-.313.209-.836.417-1.776.417-2.716 0-5.43-4.483-9.921-9.905-9.921"/>
        <path fill="#404041" fill-rule="nonzero" d="M120.06 39.624c-.524 0-.941-.405-.941-.91 0-.507.417-.912.94-.912.523 0 .941.405.941.911s-.418.911-.94.911zm0-1.62c-.419 0-.732.304-.732.71 0 .404.313.708.731.708s.732-.304.732-.709c0-.405-.314-.708-.732-.708zm.417 1.215h-.209l-.209-.303h-.209v.303h-.209v-.91h.523c.209 0 .313.1.313.303 0 .101-.104.202-.209.304l.21.303h-.001zm-.313-.506c.104 0 .104 0 .104-.101s-.104-.101-.104-.101h-.314v.303l.314-.101zm-93.77-.91h2.3v6.072h3.973v1.923h-6.273v-7.996zm8.677 3.946c0-2.327 1.882-4.149 4.495-4.149 2.614 0 4.391 1.822 4.391 4.15 0 2.327-1.881 4.149-4.495 4.149-2.51 0-4.39-1.822-4.39-4.15zm6.586 0c0-1.214-.837-2.226-2.091-2.226-1.254 0-2.09 1.012-2.09 2.125s.836 2.126 2.09 2.126c1.254.202 2.09-.81 2.09-2.025zm5.122.506v-4.453h2.3v4.453c0 1.113.627 1.72 1.568 1.72.94 0 1.568-.505 1.568-1.619v-4.554h2.3v4.453c0 2.632-1.568 3.745-3.868 3.745-2.404-.102-3.868-1.215-3.868-3.745zm11.185-4.453h3.241c2.927 0 4.704 1.62 4.704 3.947 0 2.328-1.777 4.049-4.704 4.049H58.07l-.105-7.996zm3.241 5.971c1.36 0 2.3-.708 2.3-2.024 0-1.315-.94-2.024-2.3-2.024h-.94v4.049h.94zm7.945-5.97h6.586v1.922H71.45v1.316h3.868v1.822H71.45v2.935h-2.3v-7.996zm9.826 0h2.3v6.072h3.973v1.923h-6.273v-7.996zm12.231-.102h2.3l3.554 8.097h-2.509l-.627-1.417h-3.24l-.628 1.417h-2.404l3.554-8.097zm2.09 4.96l-.94-2.227-.94 2.226h1.88zm6.691-4.859h3.868c1.255 0 2.09.304 2.718.911.523.506.732 1.113.732 1.822 0 1.215-.628 2.024-1.673 2.43l1.986 2.833h-2.613l-1.673-2.43h-1.045v2.43h-2.3v-7.996zm3.763 3.846c.732 0 1.255-.405 1.255-.91 0-.608-.523-.912-1.255-.912h-1.463v1.923h1.463v-.1zm6.795-3.846h6.69v1.822h-4.39v1.215h3.973v1.821h-3.973v1.215h4.496v1.923h-6.795v-7.996zm-89.17 4.96a2.067 2.067 0 0 1-1.88 1.214c-1.255 0-2.092-1.012-2.092-2.125 0-1.114.837-2.126 2.091-2.126.94 0 1.673.607 1.986 1.316h2.404c-.417-1.923-2.09-3.34-4.39-3.34-2.509 0-4.495 1.822-4.495 4.15C15 44.178 16.881 46 19.39 46c2.196 0 3.869-1.417 4.391-3.239h-2.404z"/>
    </g>
</svg>
