<?xml version="1.0" encoding="UTF-8"?>
<svg width="200px" height="66px" viewBox="0 0 200 66" version="1.1" xmlns="http://www.w3.org/2000/svg" xmlns:xlink="http://www.w3.org/1999/xlink">
    <!-- Generator: Sketch 52.3 (67297) - http://www.bohemiancoding.com/sketch -->
    <title>cloudflare-logo-horizontal</title>
    <desc>Created with Sketch.</desc>
    <g id="Web-Hosting-Terbaik" stroke="none" stroke-width="1" fill="none" fill-rule="evenodd">
        <g id="09-3-1-Fitur-kecepatan" transform="translate(-870.000000, -3935.000000)">
            <g id="Section-10---Tab-Fitur-Hosting-Detail" transform="translate(345.000000, 3671.000000)">
                <g id="Fitur-Kecepatan">
                    <g id="CloudFlare" transform="translate(1.000000, 225.000000)">
                        <g id="cloudflare-logo-horizontal" transform="translate(524.000000, 39.000000)">
                            <polygon id="Path" fill="#FFFFFF" points="186.754967 21.17742 175.73245 18.61002 173.764238 17.82 123.178808 18.21468 123.178808 42.70266 186.754967 42.9"></polygon>
                            <path d="M166.366225,40.14516 C166.959603,38.17704 166.761589,36.20892 165.772185,35.02818 C164.782781,33.84744 163.397351,33.06072 161.616556,32.86338 L127.181457,32.47002 C126.982781,32.47002 126.78543,32.27334 126.587417,32.27334 C126.389404,32.07666 126.389404,31.87998 126.587417,31.6833 C126.78543,31.28928 126.983444,31.0926 127.37947,31.0926 L162.011921,30.69924 C166.168212,30.50256 170.521854,27.15702 172.104636,23.22144 L174.084768,18.10446 C174.084768,17.90778 174.282119,17.7111 174.084768,17.51442 C171.907285,7.4778 162.803311,0 152.116556,0 C142.221192,0 133.711258,6.29706 130.743046,15.15294 C128.763576,13.77552 126.388742,12.98814 123.618543,13.18482 C118.868874,13.57818 115.108609,17.51442 114.51457,22.23738 C114.317219,23.41812 114.51457,24.59886 114.713245,25.7796 C106.994702,25.97628 100.662252,32.274 100.662252,40.14516 C100.662252,40.93188 100.662252,41.52258 100.860265,42.30996 C100.860265,42.70332 101.255629,42.9 101.453642,42.9 L164.980795,42.9 C165.376821,42.9 165.772185,42.70332 165.772185,42.30996 L166.366225,40.14516 Z" id="Path" fill="#F48120"></path>
                            <path d="M176.675497,18.48 L175.692053,18.48 C175.495364,18.48 175.298675,18.67668 175.102649,18.87402 L173.725166,23.60028 C173.135099,25.56972 173.331788,27.53916 174.315232,28.72056 C175.298675,29.90196 176.676159,30.69 178.446358,30.88668 L185.724503,31.2807 C185.921854,31.2807 186.118543,31.47804 186.315232,31.47804 C186.511921,31.67472 186.511921,31.8714 186.315232,32.06874 C186.118543,32.4621 185.921854,32.65944 185.528477,32.65944 L178.05298,33.05346 C173.921854,33.25014 169.59404,36.59766 168.019868,40.53654 L167.627152,42.3093 C167.429801,42.50598 167.627152,42.9 168.02053,42.9 L193.987417,42.9 C194.380795,42.9 194.576821,42.70332 194.576821,42.3093 C194.970861,40.73388 195.364238,38.96112 195.364238,37.18902 C195.364238,26.9478 186.905298,18.48 176.675497,18.48" id="Path" fill="#FAAD3F"></path>
                            <path d="M198.225166,53.97678 C197.238411,53.97678 196.450331,53.21382 196.450331,52.25946 C196.450331,51.3051 197.238411,50.54148 198.225166,50.54148 C199.211258,50.54148 200,51.3051 200,52.25946 C200,53.21382 199.211258,53.97678 198.225166,53.97678 Z M198.225166,50.92362 C197.435762,50.92362 196.844371,51.49584 196.844371,52.25946 C196.844371,53.02242 197.435762,53.5953 198.225166,53.5953 C199.013245,53.5953 199.605298,53.02242 199.605298,52.25946 C199.605298,51.49584 199.013907,50.92362 198.225166,50.92362 Z M199.013245,53.21382 L198.619205,53.21382 L198.225166,52.64094 L197.830464,52.64094 L197.830464,53.21382 L197.435762,53.21382 L197.435762,51.49584 L198.422517,51.49584 C198.816556,51.49584 199.013907,51.68724 199.013907,52.06872 C199.013907,52.25946 198.816556,52.4502 198.619205,52.64094 L199.013907,53.21382 L199.013245,53.21382 Z M198.421854,52.25946 C198.619205,52.25946 198.619205,52.25946 198.619205,52.06806 C198.619205,51.87732 198.421854,51.87732 198.421854,51.87732 L197.830464,51.87732 L197.830464,52.4502 L198.421854,52.2588 L198.421854,52.25946 Z M21.4993377,50.54148 L25.8384106,50.54148 L25.8384106,61.99248 L33.3331126,61.99248 L33.3331126,65.61852 L21.4986755,65.61852 L21.4986755,50.54148 L21.4993377,50.54148 Z M37.8701987,57.9843 C37.8701987,53.5953 41.4198675,50.16 46.3509934,50.16 C51.2821192,50.16 54.6357616,53.5953 54.6357616,57.9843 C54.6357616,62.37396 51.0860927,65.80926 46.1543046,65.80926 C41.4205298,65.80926 37.8701987,62.37396 37.8701987,57.9843 Z M50.2960265,57.9843 C50.2960265,55.6941 48.7178808,53.78604 46.3509934,53.78604 C43.984106,53.78604 42.4066225,55.69476 42.4066225,57.79356 C42.4066225,59.89302 43.984106,61.80174 46.3509934,61.80174 C48.7178808,62.18322 50.2960265,60.2745 50.2960265,57.9843 Z M59.9602649,58.93866 L59.9602649,50.54148 L64.3,50.54148 L64.3,58.93866 C64.3,61.03746 65.4834437,62.18322 67.2582781,62.18322 C69.0331126,62.18322 70.2172185,61.22886 70.2172185,59.1294 L70.2172185,50.54148 L74.5562914,50.54148 L74.5562914,58.93866 C74.5562914,63.90054 71.597351,66 67.2582781,66 C62.7218543,65.8086 59.9602649,63.7098 59.9602649,58.93866 Z M81.0649007,50.54148 L87.1794702,50.54148 C92.702649,50.54148 96.0549669,53.5953 96.0549669,57.9843 C96.0549669,62.37396 92.7019868,65.61852 87.1794702,65.61852 L81.2622517,65.61852 L81.0649007,50.54148 Z M87.1794702,61.80108 C89.7437086,61.80108 91.518543,60.46524 91.518543,57.9843 C91.518543,55.50336 89.7437086,54.16752 87.1794702,54.16752 L85.4046358,54.16752 L85.4046358,61.8024 L87.1794702,61.8024 L87.1794702,61.80108 Z M102.169536,50.54148 L114.595364,50.54148 L114.595364,54.16752 L106.509272,54.16752 L106.509272,56.64912 L113.807285,56.64912 L113.807285,60.08376 L106.509272,60.08376 L106.509272,65.61852 L102.169536,65.61852 L102.169536,50.54148 Z M120.709934,50.54148 L125.049007,50.54148 L125.049007,61.99248 L132.544371,61.99248 L132.544371,65.61852 L120.709934,65.61852 L120.709934,50.54148 Z M143.786755,50.35074 L148.12649,50.35074 L154.83245,65.61852 L150.098675,65.61852 L148.915232,62.94618 L142.800662,62.94618 L141.617219,65.61852 L137.080795,65.61852 L143.786755,50.35074 Z M147.731788,59.70228 L145.956954,55.50336 L144.181457,59.70228 L147.731788,59.70228 Z M160.354967,50.54148 L167.65298,50.54148 C170.019868,50.54148 171.597351,51.11436 172.780795,52.25946 C173.76755,53.21382 174.161589,54.35826 174.161589,55.69476 C174.161589,57.98496 172.978146,59.51154 171.00596,60.27516 L174.753642,65.61852 L169.822517,65.61852 L166.666887,61.03812 L164.69404,61.03812 L164.69404,65.61852 L160.354967,65.61852 L160.354967,50.54148 Z M167.455629,57.79356 C168.836424,57.79356 169.822517,57.0306 169.822517,56.07624 C169.822517,54.93114 168.835762,54.35826 167.455629,54.35826 L164.69404,54.35826 L164.69404,57.9843 L167.455629,57.9843 L167.455629,57.79356 Z M180.276159,50.54148 L192.899338,50.54148 L192.899338,53.97678 L184.615894,53.97678 L184.615894,56.26698 L192.111258,56.26698 L192.111258,59.70228 L184.615894,59.70228 L184.615894,61.99248 L193.097351,61.99248 L193.097351,65.61852 L180.276821,65.61852 L180.276821,50.54148 L180.276159,50.54148 Z M12.0311258,59.89302 C11.4397351,61.22886 10.0589404,62.18322 8.48145695,62.18322 C6.11456954,62.18322 4.53642384,60.2745 4.53642384,58.1757 C4.53642384,56.07624 6.11456954,54.16752 8.48145695,54.16752 C10.2562914,54.16752 11.6370861,55.31262 12.2284768,56.64912 L16.7649007,56.64912 C15.9768212,53.02242 12.8205298,50.35074 8.48145695,50.35074 C3.74768212,50.3514 0,53.78604 0,58.1757 C0,62.5647 3.54966887,66 8.28410596,66 C12.4258278,66 15.5821192,63.32832 16.5682119,59.89302 L12.0317881,59.89302 L12.0311258,59.89302 Z" id="Shape" fill="#404041" fill-rule="nonzero"></path>
                        </g>
                    </g>
                </g>
            </g>
        </g>
    </g>
</svg>