<?xml version="1.0" encoding="UTF-8"?>
<svg width="187px" height="43px" viewBox="0 0 187 43" version="1.1" xmlns="http://www.w3.org/2000/svg" xmlns:xlink="http://www.w3.org/1999/xlink">
    <!-- Generator: Sketch 52.3 (67297) - http://www.bohemiancoding.com/sketch -->
    <title>CPanel_logo</title>
    <desc>Created with Sketch.</desc>
    <g id="Web-Hosting-Terbaik" stroke="none" stroke-width="1" fill="none" fill-rule="evenodd">
        <g id="01" transform="translate(-392.000000, -4633.000000)" fill="#FF6C2C">
            <g id="Section-10---Tab-Fitur-Hosting-Detail" transform="translate(345.000000, 3671.000000)">
                <g id="Fitur-Keamanan">
                    <g id="cPanel" transform="translate(46.000000, 915.000000)">
                        <g id="CPanel_logo" transform="translate(0.000000, 46.000000)">
                            <g id="g2995" transform="translate(94.616574, 22.578965) scale(-1, 1) rotate(-180.000000) translate(-94.616574, -22.578965) translate(0.034844, 0.498965)">
                                <g id="g2997-Clipped" transform="translate(0.000000, -0.000000)">
                                    <g id="g2997" transform="translate(0.884427, 1.247756)">
                                        <g id="g3003" transform="translate(0.097243, 0.157870)">
                                            <path d="M15.4518151,31.7353385 L27.0920109,31.7353385 L25.2892991,24.6869374 C25.0139134,23.7047199 24.4988529,22.9157198 23.7441176,22.319937 C22.9885238,21.7231022 22.1127493,21.4255615 21.1174807,21.4255615 L15.7093454,21.4255615 C14.4730285,21.4255615 13.3824737,21.0575368 12.4385395,20.3209613 C11.4935752,19.5845612 10.8330959,18.5853364 10.4553849,17.3229362 C10.2150233,16.3759607 10.1892703,15.4817605 10.3782975,14.6403357 C10.5668096,13.7985603 10.9014273,13.0530428 11.3826655,12.4048354 C11.8632169,11.7555759 12.4811178,11.2385178 13.237055,10.8527844 C13.9917903,10.466525 14.8160588,10.274535 15.7093454,10.274535 L19.0055609,10.274535 C19.6236336,10.274535 20.129938,10.0196003 20.5249894,9.51183489 C20.9193541,9.00301747 21.0312939,8.43353471 20.8599505,7.80233461 L18.7997084,0.0175333365 L15.1942849,0.0175333365 C12.7219945,0.0175333365 10.4468005,0.569833427 8.36973321,1.67425827 C6.29163576,2.77903379 4.56618306,4.24254136 3.19337513,6.06653433 C1.81953708,7.88929996 0.883500453,9.9670003 0.386295379,12.2992847 C-0.111939816,14.6310431 -0.0516777373,17.0245188 0.566394869,19.4795365 L0.772590757,20.2685367 C1.21828978,21.9515616 1.91362146,23.5034372 2.85824243,24.9234621 C3.80252002,26.3438376 4.91848445,27.5534625 6.20613571,28.553038 C7.49378697,29.5524382 8.92737205,30.332321 10.5070626,30.8935631 C12.0860664,31.4541038 13.7342601,31.7353385 15.4518151,31.7353385" id="path3005"></path>
                                        </g>
                                        <g id="g3007" transform="translate(21.420285, 0.175333)">
                                            <path d="M0,0 L10.1466919,38.8188064 C10.4208758,39.8001472 10.9359363,40.5891473 11.6918735,41.1858067 C12.4466088,41.7817648 13.3222116,42.0800069 14.318682,42.0800069 L25.0834466,42.0800069 C27.555737,42.0800069 29.8299008,41.5277068 31.9079983,40.4231066 C33.9848939,39.3185064 35.7105183,37.8537715 37.0843564,36.0310059 C38.4571643,34.2073636 39.4021286,32.1294879 39.9171891,29.7979049 C40.4322496,27.4652698 40.3628882,25.0721448 39.7109932,22.6180037 L39.5051407,21.8290036 C39.0584116,20.1458033 38.3720076,18.594103 37.4448987,17.1739028 C36.5176181,15.7537026 35.4104097,14.534785 34.1227585,13.5182022 C32.8351072,12.5007427 31.4008354,11.7117426 29.8218316,11.1512018 C28.242141,10.5897844 26.5939474,10.3094264 24.8774224,10.3094264 L15.5548273,10.3094264 L17.4090451,17.4106029 C17.6834006,18.357403 18.1984611,19.1283438 18.9542266,19.7250032 C19.7091336,20.320786 20.5845648,20.6192034 21.5808635,20.6192034 L24.5683861,20.6192034 C25.8043596,20.6192034 26.9119114,21.0047614 27.8903547,21.7764036 C28.8691413,22.5473444 29.5129669,23.5467445 29.8218316,24.7746041 C30.0616781,25.6507449 30.0874311,26.5104043 29.8992623,27.3520045 C29.7102351,28.1936046 29.3752741,28.9382454 28.8947226,29.5875048 C28.4134844,30.2358876 27.7954118,30.7618877 27.0406765,31.1655051 C26.2849111,31.5682458 25.4609859,31.7704052 24.5683861,31.7704052 L18.7997084,31.7704052 L11.2796534,3.20842519 C11.0044394,2.26180037 10.4893789,1.48998291 9.73447186,0.894200146 C8.97904978,0.297540715 8.12027223,0 7.15916933,0 L0,0 Z" id="path3009"></path>
                                        </g>
                                        <g id="g3011" transform="translate(59.551193, 0.210435)">
                                            <path d="M26.0963989,20.6893367 L26.2509171,21.2679368 C26.3194201,21.5481195 26.2768418,21.7848196 26.1221519,21.9780369 C25.9676338,22.1702023 25.7530252,22.267337 25.4783263,22.267337 L8.7388599,22.267337 C8.01794688,22.267337 7.36502185,22.4249617 6.78162998,22.7407371 C6.19755137,23.0563371 5.71699992,23.4681952 5.33980394,23.9768373 C4.96140616,24.4846027 4.70387591,25.0723201 4.56721318,25.7389375 C4.42934866,26.4046783 4.44634565,27.0884784 4.61837586,27.7903379 L5.64849687,31.7879385 L28.3111591,31.7879385 C29.7189911,31.7879385 31.0066424,31.4723385 32.1741129,30.840963 C33.3410683,30.2099383 34.3119573,29.3856961 35.0845481,28.368938 C35.8571389,27.3514785 36.388853,26.1860376 36.6808923,24.8710374 C36.9724165,23.5560372 36.9464918,22.1966776 36.6038049,20.7945367 L32.5346552,5.32995887 C32.1229502,3.75195861 31.2899257,2.4716744 30.0367835,1.49015824 C28.7829545,0.50794075 27.3495411,0.0173580032 25.7358566,0.0173580032 L8.99639015,0.0699580118 C7.51971169,0.0699580118 6.16355738,0.393974065 4.92758385,1.0432335 C3.69126695,1.69144094 2.67831463,2.55039908 1.88855518,3.62045859 C1.09845237,4.68964143 0.549569559,5.91697497 0.240361569,7.3024592 C-0.0683313603,8.68741742 -0.0338223065,10.0986757 0.34337367,11.5369352 L0.549569559,12.3259354 C0.789416067,13.3071008 1.19339519,14.2193603 1.75979006,15.0609605 C2.3265283,15.9027359 2.98700756,16.6210767 3.74294469,17.2177362 C4.49768002,17.8136943 5.33980394,18.277977 6.26656948,18.611461 C7.19367839,18.9444191 8.17263672,19.1113365 9.20275773,19.1113365 L23.2635661,19.1113365 L22.2334451,15.1661605 C21.9584028,14.2193603 21.4433423,13.4477182 20.6882636,12.8519354 C19.9328415,12.2551007 19.074064,11.9577353 18.1129611,11.9577353 L11.8292229,11.9577353 C11.2451443,11.9577353 10.867605,11.6591426 10.6962615,11.0633598 C10.5932494,10.6771004 10.6617525,10.3352004 10.902114,10.0376596 C11.1421322,9.73941759 11.4509968,9.5907349 11.8292229,9.5907349 L21.9759149,9.5907349 C22.3534542,9.5907349 22.6794875,9.69593492 22.9547015,9.90615962 C23.2290571,10.116735 23.4004005,10.3969177 23.469762,10.7479351 L23.5727741,11.1687352 L26.0963989,20.6893367 Z" id="path3013"></path>
                                        </g>
                                        <g id="g3015" transform="translate(93.820142, 0.157870)">
                                            <path d="M21.804228,31.7353385 C24.3098257,31.7353385 26.6020166,31.1830384 28.6797707,30.0784383 C30.7573531,28.9738381 32.4822907,27.5091032 33.8564722,25.6863375 C35.2292801,23.8625199 36.1654884,21.7757022 36.6632086,19.4269365 C37.160757,17.0771188 37.0836696,14.6745257 36.4317747,12.22056 L33.8564722,2.33175838 C33.6840986,1.63007427 33.3153153,1.06953351 32.7492638,0.648558107 C32.1825255,0.227758038 31.5555252,0.0175333365 30.8687779,0.0175333365 L25.3062961,0.0175333365 C24.6538861,0.0175333365 24.1388256,0.271240711 23.7611146,0.780058128 C23.3828885,1.28799888 23.2797047,1.85853364 23.4520783,2.48955841 L26.5424413,14.4297604 C26.7824595,15.3060765 26.8080409,16.1655606 26.6195287,17.0073361 C26.4303298,17.8489363 26.0957122,18.593577 25.6155041,19.2428365 C25.1340942,19.8912193 24.516365,20.4172193 23.7611146,20.8208367 C23.0053491,21.2235775 22.1810806,21.4255615 21.2891675,21.4255615 L15.5201465,21.4255615 L10.5238879,2.33175838 C10.3522011,1.63007427 9.98324608,1.06953351 9.41667953,0.648558107 C8.84994128,0.227758038 8.20611565,0.0175333365 7.48520263,0.0175333365 L1.97405523,0.0175333365 C1.35598262,0.0175333365 0.848991399,0.271240711 0.454626739,0.780058128 C0.0604337659,1.28799888 -0.0516777373,1.85853364 0.119665724,2.48955841 L7.74273288,31.7353385 L21.804228,31.7353385 Z" id="path3017"></path>
                                        </g>
                                        <g id="g3019" transform="translate(131.710620, 0.131500)">
                                            <path d="M14.2500073,21.7413369 C13.8383023,21.4076775 13.5457479,20.9786368 13.3744044,20.4526367 L11.0566322,11.5106352 C10.9192827,11.0190005 11.0054695,10.5638351 11.3141624,10.143035 C11.6233704,9.72205959 12.0355905,9.51183489 12.550651,9.51183489 L33.8739842,9.51183489 L32.2257906,3.25225853 C31.9505766,2.30563371 31.4355161,1.53381625 30.6806091,0.938033488 C29.9248437,0.341374057 29.0660661,0.0438333413 28.1053066,0.0438333413 L8.68769722,0.0438333413 C7.27917843,0.0438333413 5.99152717,0.350316058 4.82474344,0.964333492 C3.6567579,1.57729893 2.68689897,2.40154106 1.91430821,3.4365339 C1.14171745,4.4702994 0.608973204,5.64555893 0.317964018,6.96055914 C0.0264397726,8.27555936 0.0690181077,9.61703491 0.446729145,10.9846351 L3.58825485,22.9248371 C3.93128515,24.2216026 4.46385771,25.4142202 5.1851141,26.5016377 C5.90602712,27.5881785 6.75622033,28.5176207 7.7346636,29.2894381 C8.71310688,30.0603789 9.81155925,30.6651037 11.0308791,31.1041384 C12.2495123,31.5421212 13.5112389,31.7616385 14.8167455,31.7616385 L28.5686893,31.7616385 C29.9765214,31.7616385 31.2641727,31.4460385 32.4316431,30.8148384 C33.5985985,30.1836383 34.5694876,29.3592208 35.3420784,28.342638 C36.1146691,27.3251785 36.6376272,26.1506203 36.9126695,24.8184374 C37.1873685,23.4853778 37.1526877,22.135837 36.8096574,20.7682367 L35.8825485,17.1914361 C35.4708435,15.6132606 34.637819,14.3420937 33.3846768,13.3777602 C32.1308478,12.413076 30.7144314,11.93126 29.1354276,11.93126 L13.580772,11.93126 L14.610893,15.8238359 C14.8505679,16.7706361 15.3484597,17.5415769 16.1043968,18.1382363 C16.8591321,18.7341944 17.734735,19.0324365 18.7313771,19.0324365 L25.0149435,19.0324365 C25.5985071,19.0324365 25.9757031,19.3299772 26.1480767,19.9266366 L26.3539292,20.7156367 C26.4572846,21.1011948 26.3877515,21.4520368 26.1480767,21.7676369 C25.9072,22.0832369 25.5985071,22.241037 25.2207961,22.241037 L15.641014,22.241037 C15.1259535,22.241037 14.6620557,22.0741196 14.2500073,21.7413369" id="path3021"></path>
                                        </g>
                                        <g id="g3023" transform="translate(165.532257, 0.175333)">
                                            <path d="M0,0 L10.3525445,39.7130065 C10.5238879,40.4139893 10.893358,40.9836474 11.4600962,41.4225068 C12.0264911,41.8604895 12.6703167,42.0800069 13.3915731,42.0800069 L18.9027205,42.0800069 C19.5544438,42.0800069 20.0782603,41.8252475 20.4736551,41.3173068 C20.8680197,40.8084893 20.9796162,40.2390066 20.8082727,39.6078065 L13.0823651,10.3094264 C12.704139,8.76596677 12.0948225,7.36400121 11.2539003,6.10142567 C10.4121198,4.83920079 9.41667953,3.76072528 8.26637773,2.86670047 C7.11556088,1.97250032 5.83700902,1.27046554 4.42934866,0.762700125 C3.02100155,0.253707375 1.54518151,0 0,0" id="path3025"></path>
                                        </g>
                                    </g>
                                </g>
                            </g>
                            <path d="M23.1961166,40.6095942 C23.5474942,39.3054919 25.7898528,30.7300505 28.1791361,21.5530509 C30.5684203,12.3760527 32.6906799,4.42879801 32.8952704,3.89248535 C33.0998609,3.35617269 33.7498617,2.56580914 34.3397188,2.13612205 C35.3173356,1.42396666 35.8899953,1.3438802 40.8148216,1.23057922 C50.1807679,1.01510557 53.6826346,1.9245366 57.543592,5.57502356 C61.6471883,9.45492319 63.2520524,14.9093976 61.8871703,20.3376126 C60.283558,26.7152732 55.989115,31.1082523 50.0998431,32.395398 C49.0973256,32.6145051 45.9847723,32.7937749 43.1830541,32.7937749 L38.089021,32.7937749 L39.0788123,29.0749621 C40.5525961,23.5377136 40.9651135,23.1526479 45.7735767,22.825708 C49.0901166,22.6002078 50.5804237,21.8478888 51.6844233,19.8418656 C53.2000709,17.0878598 52.4069429,14.0183546 49.6979622,12.1539983 C48.6191809,11.4115665 48.2068717,11.3525944 44.7276,11.4430939 L40.933605,11.5417801 L37.1281148,25.9439593 C35.0350943,33.8651569 33.1303492,40.700166 32.8953485,41.1328654 C32.1013928,42.5947441 30.7673243,42.9806826 26.5080384,42.9806826 L22.5572487,42.9806826 L23.1961166,40.6095942 Z" id="path3202"></path>
                            <path d="M67.2269056,42.6599208 C64.8341784,41.8959612 62.7262871,40.069773 61.5152701,37.7115935 C60.5807898,35.8919063 60.6541569,32.0806453 61.6674176,29.8079585 C62.6907344,27.5127125 63.9133767,26.2200107 66.0252472,25.2004171 C67.6760558,24.4034206 68.0602475,24.3699576 75.597663,24.3666638 L83.4502414,24.3632326 L83.2160501,25.5048687 C82.7939555,27.5625062 81.7809759,29.5079622 80.7360219,30.2678394 C79.8531882,30.9098229 79.1424241,31.0281604 75.6558836,31.1136531 C72.2359748,31.1975087 71.5429442,31.3091592 71.2232477,31.8277767 C70.9472706,32.2754687 70.947346,32.609538 71.2235079,33.05723 C71.5535858,33.5922991 72.2941408,33.6844628 76.9384303,33.7684646 C79.8730661,33.821543 82.6492642,33.7193169 83.1077548,33.5412963 C83.843149,33.2557607 84.1157194,32.5497646 85.4209262,27.5498419 C86.2346791,24.4325615 86.8132621,21.6499607 86.7066688,21.3662831 C86.5430313,20.9307959 85.1001678,20.8505057 77.4378088,20.8505057 C68.5608284,20.8505057 68.3373541,20.8330255 67.1990068,20.0495988 C65.1253775,18.6224999 64.7842337,16.8382621 65.8577632,13.034689 L66.229554,11.7174166 L78.4279645,11.7174166 C90.1388561,11.7174166 90.688364,11.747175 92.177487,12.4620124 C95.0669876,13.8490852 97.1542488,17.0952835 97.1542488,20.2020824 C97.1542488,21.7780579 92.8134395,38.2826917 92.0423026,39.6387296 C91.7142234,40.2156561 90.7823794,41.1640919 89.9715387,41.7463658 L88.4972786,42.8050463 L78.2931575,42.8701193 C72.6808908,42.905909 67.701071,42.8113187 67.2268926,42.659921 L67.2269056,42.6599208 Z" id="path3204"></path>
                            <path d="M95.5032215,42.5591564 C95.2762027,42.3273158 95.0951597,41.7345438 95.1009034,41.2418848 C95.1066549,40.7492232 96.7880403,33.9441939 98.8373336,26.1195956 L102.56332,11.8930527 L110.401691,11.7985038 C119.230749,11.6920051 121.09754,11.9781842 124.279429,13.9259612 C128.902885,16.7561851 131.889503,22.5315976 131.471568,27.8338597 C131.211377,31.134838 128.434974,41.2769701 127.541834,42.1890822 C126.83292,42.9130501 126.447969,42.9806826 123.036216,42.9806826 C119.049311,42.9806826 118.480216,42.7690783 118.480216,41.2866418 C118.480216,40.8185992 119.192966,37.6533005 120.064104,34.2526476 C121.799096,27.4797853 121.875183,25.9211128 120.562694,24.0387437 C119.247561,22.1525839 118.070619,21.7485967 113.860125,21.7380796 L110.099952,21.728687 L108.121231,29.2810486 C107.032932,33.4348492 105.874002,37.855286 105.545829,39.1042447 C105.217656,40.3532035 104.595403,41.7363401 104.163044,42.1778794 C103.440858,42.9154073 103.073608,42.9806823 99.6464592,42.9806823 C97.2036,42.9806823 95.7735122,42.8351876 95.5032215,42.5591562 L95.5032215,42.5591564 Z" id="path3206"></path>
                            <path d="M138.477453,42.4997418 C135.647454,41.4538559 132.937856,37.7324677 132.930192,34.8810658 C132.925846,33.266232 136.164946,20.8618042 137.194313,18.5512045 C138.345525,15.9671043 139.909454,14.3413527 142.49411,13.0419054 L144.779227,11.8930527 L154.073571,11.8930527 C164.366138,11.8930527 164.729358,11.9606511 167.016882,14.3019107 C169.447026,16.7891466 169.956955,19.9945552 168.674473,24.7215651 C167.845004,27.7788544 166.784151,29.3614439 164.90954,30.3381107 C163.677315,30.9800969 162.875456,31.0374119 155.126405,31.0374119 C148.369123,31.0374119 146.68551,30.9450328 146.68551,30.5742596 C146.68551,29.2305856 147.820276,26.501556 148.762811,25.5784998 C149.803016,24.5597925 149.90875,24.5364804 154.016394,24.4202036 C156.321999,24.3549379 158.401888,24.1379921 158.638364,23.9381014 C159.267186,23.4065688 159.184437,21.3224465 158.524242,21.0637243 C158.224996,20.9464539 155.610796,20.8505055 152.714908,20.8505055 C148.202719,20.8505055 147.347152,20.9384271 146.732969,21.4652327 C146.23929,21.8886775 145.638763,23.5162172 144.803045,26.695683 C143.494281,31.6748346 143.363609,32.7735359 144.002567,33.4260681 C144.306334,33.7362839 147.309803,33.8475943 155.376659,33.8475943 C165.655461,33.8475943 166.326751,33.8858716 166.157515,34.4623223 C166.058256,34.8004208 165.675464,36.2056037 165.306869,37.5849477 C164.494209,40.6260539 164.154481,41.3072103 162.97973,42.2508968 C162.100462,42.9572197 161.710566,42.9798241 150.852719,42.9539587 C142.963061,42.9351682 139.290951,42.8003843 138.477453,42.4997418 Z" id="path3208"></path>
                            <path d="M166.789202,42.591483 C166.882432,42.3225425 169.212512,33.4286143 171.967158,22.8271969 C174.721802,12.2257793 177.138124,3.24177132 177.33676,2.8627353 C177.903062,1.78211518 179.788897,1.17923641 182.602831,1.17923641 C185.254367,1.17923641 186.754262,1.6108936 187.075765,2.46651019 C187.322724,3.12374792 179.178197,33.906993 178.28348,35.6980347 C177.154403,37.9582113 174.734084,40.331192 172.31998,41.5448954 C169.8377,42.7928708 166.500478,43.4243746 166.789202,42.591483 Z" id="path3210"></path>
                            <path d="M17.3539162,16.6352337 L17.3539162,11.7174164 L22.5134216,11.7174164 C26.4121779,11.7174164 27.6727153,11.8247103 27.6720595,12.1565073 C27.671539,12.398007 27.2827772,14.0972887 26.808047,15.9326882 C26.0911072,18.7045186 25.7425284,19.463157 24.7501632,20.4114148 C23.5850369,21.5247552 23.4785716,21.5530509 20.4546705,21.5530509 L17.3539162,21.5530509 L17.3539162,16.6352337 Z" id="path3212"></path>
                        </g>
                    </g>
                </g>
            </g>
        </g>
    </g>
</svg>