<svg xmlns="http://www.w3.org/2000/svg" width="136" height="56" viewBox="0 0 136 56">
    <defs>
        <linearGradient id="a" x1="-.004%" x2="100.006%" y1="49.992%" y2="49.992%">
            <stop offset="0%" stop-color="#007AFF"/>
            <stop offset="100%" stop-color="#0095FF"/>
        </linearGradient>
        <linearGradient id="b" x1=".2%" x2="100.2%" y1="50%" y2="50%">
            <stop offset="0%" stop-color="#007AFF"/>
            <stop offset="100%" stop-color="#0095FF"/>
        </linearGradient>
        <linearGradient id="c" x1="0%" y1="49.833%" y2="49.833%">
            <stop offset="0%" stop-color="#007AFF"/>
            <stop offset="100%" stop-color="#0095FF"/>
        </linearGradient>
    </defs>
    <g fill="none" fill-rule="evenodd">
        <rect width="135" height="55" x=".5" y=".5" stroke="#2760FF" rx="4"/>
        <path fill="#4D5872" d="M62.732 28.096c-1.32 0-2.376-.356-3.168-1.068l.384-.756c.416.352.842.604 1.278.756.436.152.942.228 1.518.228.68 0 1.204-.132 1.572-.396.368-.264.552-.636.552-1.116a.925.925 0 0 0-.264-.684 1.86 1.86 0 0 0-.696-.42 10.45 10.45 0 0 0-1.164-.324 11.345 11.345 0 0 1-1.614-.48 2.513 2.513 0 0 1-1.02-.72c-.26-.312-.39-.72-.39-1.224 0-.48.126-.906.378-1.278s.612-.66 1.08-.864c.468-.204 1.01-.306 1.626-.306.584 0 1.13.092 1.638.276.508.184.938.448 1.29.792l-.372.756a4.122 4.122 0 0 0-1.218-.75 3.748 3.748 0 0 0-1.338-.234c-.656 0-1.17.138-1.542.414-.372.276-.558.662-.558 1.158 0 .424.164.744.492.96.328.216.824.4 1.488.552.728.176 1.3.338 1.716.486.416.148.762.37 1.038.666.276.296.414.692.414 1.188 0 .48-.126.9-.378 1.26s-.614.638-1.086.834c-.472.196-1.024.294-1.656.294zm7.404 0c-1.32 0-2.376-.356-3.168-1.068l.384-.756c.416.352.842.604 1.278.756.436.152.942.228 1.518.228.68 0 1.204-.132 1.572-.396.368-.264.552-.636.552-1.116a.925.925 0 0 0-.264-.684 1.86 1.86 0 0 0-.696-.42 10.45 10.45 0 0 0-1.164-.324 11.345 11.345 0 0 1-1.614-.48 2.513 2.513 0 0 1-1.02-.72c-.26-.312-.39-.72-.39-1.224 0-.48.126-.906.378-1.278s.612-.66 1.08-.864c.468-.204 1.01-.306 1.626-.306.584 0 1.13.092 1.638.276.508.184.938.448 1.29.792l-.372.756a4.122 4.122 0 0 0-1.218-.75 3.748 3.748 0 0 0-1.338-.234c-.656 0-1.17.138-1.542.414-.372.276-.558.662-.558 1.158 0 .424.164.744.492.96.328.216.824.4 1.488.552.728.176 1.3.338 1.716.486.416.148.762.37 1.038.666.276.296.414.692.414 1.188 0 .48-.126.9-.378 1.26s-.614.638-1.086.834c-.472.196-1.024.294-1.656.294zm4.716-8.556h2.844c1.352 0 2.398.366 3.138 1.098.74.732 1.11 1.774 1.11 3.126 0 1.352-.37 2.396-1.11 3.132-.74.736-1.786 1.104-3.138 1.104h-2.844v-8.46zm2.784 7.62c2.192 0 3.288-1.132 3.288-3.396 0-2.256-1.096-3.384-3.288-3.384h-1.8v6.78h1.8zm11.868.936c-1.32 0-2.376-.356-3.168-1.068l.384-.756c.416.352.842.604 1.278.756.436.152.942.228 1.518.228.68 0 1.204-.132 1.572-.396.368-.264.552-.636.552-1.116a.925.925 0 0 0-.264-.684 1.86 1.86 0 0 0-.696-.42 10.45 10.45 0 0 0-1.164-.324 11.345 11.345 0 0 1-1.614-.48 2.513 2.513 0 0 1-1.02-.72c-.26-.312-.39-.72-.39-1.224 0-.48.126-.906.378-1.278s.612-.66 1.08-.864c.468-.204 1.01-.306 1.626-.306.584 0 1.13.092 1.638.276.508.184.938.448 1.29.792l-.372.756a4.122 4.122 0 0 0-1.218-.75 3.748 3.748 0 0 0-1.338-.234c-.656 0-1.17.138-1.542.414-.372.276-.558.662-.558 1.158 0 .424.164.744.492.96.328.216.824.4 1.488.552.728.176 1.3.338 1.716.486.416.148.762.37 1.038.666.276.296.414.692.414 1.188 0 .48-.126.9-.378 1.26s-.614.638-1.086.834c-.472.196-1.024.294-1.656.294zm9.492-5.94V28h-.948v-.996c-.184.352-.442.62-.774.804a2.275 2.275 0 0 1-1.122.276c-.696 0-1.22-.194-1.572-.582-.352-.388-.528-.962-.528-1.722v-3.624h.972v3.6c0 .52.104.902.312 1.146.208.244.536.366.984.366.512 0 .924-.166 1.236-.498.312-.332.468-.77.468-1.314v-3.3h.972zm4.752-.144c.512 0 .964.128 1.356.384.392.256.696.614.912 1.074.216.46.324.994.324 1.602 0 .608-.108 1.138-.324 1.59a2.481 2.481 0 0 1-.906 1.05c-.388.248-.842.372-1.362.372-.456 0-.854-.1-1.194-.3-.34-.2-.598-.484-.774-.852v3.228h-.972v-8.004h.972v1.008c.176-.368.434-.652.774-.852.34-.2.738-.3 1.194-.3zm-.192 5.268c.568 0 1.008-.192 1.32-.576.312-.384.468-.928.468-1.632 0-.704-.156-1.254-.468-1.65-.312-.396-.752-.594-1.32-.594-.568 0-1.006.192-1.314.576-.308.384-.462.932-.462 1.644 0 .712.154 1.262.462 1.65.308.388.746.582 1.314.582zm9.132-2.052h-4.272c.032.68.216 1.194.552 1.542.336.348.812.522 1.428.522.68 0 1.304-.232 1.872-.696l.324.708a2.74 2.74 0 0 1-.984.57c-.4.14-.808.21-1.224.21-.912 0-1.63-.268-2.154-.804s-.786-1.276-.786-2.22c0-.6.116-1.13.348-1.59.232-.46.558-.818.978-1.074a2.7 2.7 0 0 1 1.434-.384c.776 0 1.384.254 1.824.762.44.508.66 1.206.66 2.094v.36zm-2.472-2.46c-.512 0-.922.16-1.23.48-.308.32-.49.772-.546 1.356h3.396c-.016-.592-.164-1.046-.444-1.362-.28-.316-.672-.474-1.176-.474zm7.212.084l-.636.06c-.6.056-1.034.244-1.302.564-.268.32-.402.716-.402 1.188V28h-.972v-5.844h.948v1.02c.328-.68.972-1.06 1.932-1.14l.348-.024.084.84zM60.044 40v-8.46h5.232v.828h-4.26v2.916h4.02v.828h-4.02V40h-.972zm8.736-5.988c.744 0 1.298.19 1.662.57.364.38.546.958.546 1.734V40h-.948v-.996c-.152.344-.384.61-.696.798a2.051 2.051 0 0 1-1.08.282c-.376 0-.722-.076-1.038-.228a1.855 1.855 0 0 1-.75-.636 1.572 1.572 0 0 1-.276-.9c0-.44.112-.782.336-1.026.224-.244.592-.42 1.104-.528.512-.108 1.224-.162 2.136-.162h.264v-.396c0-.488-.1-.842-.3-1.062-.2-.22-.524-.33-.972-.33-.672 0-1.34.208-2.004.624l-.324-.708c.304-.216.67-.39 1.098-.522a4.207 4.207 0 0 1 1.242-.198zm-.384 5.304c.48 0 .874-.162 1.182-.486.308-.324.462-.742.462-1.254v-.348h-.216c-.704 0-1.24.03-1.608.09-.368.06-.63.16-.786.3-.156.14-.234.346-.234.618 0 .312.114.57.342.774.228.204.514.306.858.306zm6.348.768c-.984 0-1.764-.252-2.34-.756l.324-.72c.312.248.63.426.954.534.324.108.69.162 1.098.162.432 0 .762-.074.99-.222a.72.72 0 0 0 .342-.642.704.704 0 0 0-.228-.552c-.152-.136-.404-.244-.756-.324l-.984-.228c-.496-.112-.876-.304-1.14-.576a1.391 1.391 0 0 1-.396-1.008c0-.52.204-.94.612-1.26.408-.32.952-.48 1.632-.48.408 0 .796.066 1.164.198.368.132.676.322.924.57l-.324.708c-.536-.456-1.124-.684-1.764-.684-.408 0-.726.078-.954.234a.748.748 0 0 0-.342.654c0 .232.07.418.21.558.14.14.366.246.678.318l.996.24c.544.128.948.322 1.212.582.264.26.396.598.396 1.014 0 .512-.206.92-.618 1.224-.412.304-.974.456-1.686.456zm6.288-.78c.176 0 .352-.012.528-.036l-.048.768a3.507 3.507 0 0 1-.6.048c-.704 0-1.234-.184-1.59-.552-.356-.368-.534-.88-.534-1.536v-3.072h-1.14v-.768h1.14V32.38h.972v1.776h1.656v.768H79.76v3c0 .92.424 1.38 1.272 1.38zm4.272 1.476l-.804-.264 3.06-9.552.804.264-3.06 9.552zM89.18 40v-8.46h.984V40h-.984zm6.612.096c-.784 0-1.466-.176-2.046-.528a3.466 3.466 0 0 1-1.338-1.5c-.312-.648-.468-1.412-.468-2.292 0-.888.154-1.658.462-2.31.308-.652.752-1.152 1.332-1.5.58-.348 1.266-.522 2.058-.522.792 0 1.478.174 2.058.522.58.348 1.024.848 1.332 1.5.308.652.462 1.418.462 2.298 0 .88-.156 1.646-.468 2.298-.312.652-.758 1.154-1.338 1.506-.58.352-1.262.528-2.046.528zm0-.84c.896 0 1.594-.302 2.094-.906.5-.604.75-1.466.75-2.586 0-1.12-.248-1.98-.744-2.58-.496-.6-1.196-.9-2.1-.9-.896 0-1.594.302-2.094.906-.5.604-.75 1.462-.75 2.574 0 1.112.25 1.972.75 2.58.5.608 1.198.912 2.094.912z"/>
        <g transform="translate(7 6)">
            <path fill="#0366D6" d="M40.17 15.318l-3.045 3.025-2.063-2.111L13.207 38.06l3.802 3.795a2.138 2.138 0 0 0 3.018 0l21.828-21.828a2.138 2.138 0 0 0 0-3.018l-1.684-1.691z"/>
            <path fill="#0366D6" d="M36.468 17.851L25.287 6.67l2.916-2.917 11.181 11.181z"/>
            <path fill="#6CCB93" d="M29.18 4.726l.487.486L26.75 8.13l-.486-.486zM30.15 5.701l.486.486-2.917 2.917-.486-.486zM31.12 6.673l.485.487-2.916 2.916-.487-.486zM32.09 7.644l.487.486-2.917 2.917-.486-.487zM33.065 8.62l.486.487-2.917 2.917-.486-.487zM34.041 9.586l.486.486-2.917 2.917-.486-.486zM35.01 10.568l.487.486-2.917 2.917-.486-.486zM35.987 11.533l.486.486-2.917 2.917-.486-.486zM36.956 12.508l.486.486-2.917 2.917-.486-.486z"/>
            <path fill="url(#a)" d="M25.506 6.71l9.893 9.886 3.025-3.025 1.685 1.691a2.138 2.138 0 0 1 0 3.019L18.28 40.109a2.138 2.138 0 0 1-3.018 0L2 26.847a2.145 2.145 0 0 1 0-3.025L23.82 2a2.145 2.145 0 0 1 3.026 0l1.684 1.684-3.025 3.025z"/>
            <path fill="#0366D6" d="M33.688 21.794L19.118 36.34a3.259 3.259 0 0 0-4.599 0L5.761 27.59a3.259 3.259 0 0 0 0-4.599L20.316 8.443a3.259 3.259 0 0 0 4.599 0l8.773 8.745a3.259 3.259 0 0 0 0 4.606z"/>
            <circle cx="4.249" cy="25.396" r="1" fill="#D4E8FB"/>
            <circle cx="16.644" cy="37.785" r="1" fill="#D4E8FB"/>
            <circle cx="22.736" cy="6.916" r="1" fill="#D4E8FB"/>
            <circle cx="35.124" cy="19.305" r="1" fill="#D4E8FB"/>
            <path fill="#298EEA" d="M16.053 22.907l.358 1.032a3.547 3.547 0 0 0-1.479.756c-.233.227-.302.468-.13.64.605.604 2.104-1.596 3.369-.33.687.687.453 1.69-.33 2.468a3.685 3.685 0 0 1-2.16 1.038l-.336-1.011a3.107 3.107 0 0 0 1.787-.742c.282-.275.351-.557.152-.757-.619-.619-2.097 1.595-3.335.358-.646-.647-.502-1.609.337-2.448a3.726 3.726 0 0 1 1.767-1.004zM19.25 19.69l.364 1.031a3.664 3.664 0 0 0-1.485.75c-.233.233-.302.474-.13.646.605.598 2.11-1.595 3.369-.33.687.687.453 1.691-.33 2.468-.583.575-1.34.94-2.152 1.038l-.323-1.024a3.107 3.107 0 0 0 1.787-.743c.282-.282.35-.557.151-.756-.619-.619-2.097 1.595-3.334.358-.646-.647-.502-1.61.337-2.448a3.726 3.726 0 0 1 1.746-.99z"/>
            <path fill="#298EEA" fill-rule="nonzero" d="M20.92 17.339a2.434 2.434 0 0 1 3.61-.11 2.468 2.468 0 0 1-.144 3.643l-1.472 1.472-3.492-3.5 1.499-1.505zm2.173 3.437l.64-.632a1.375 1.375 0 0 0-.104-1.966 1.375 1.375 0 0 0-2.014-.076l-.598.598 2.076 2.076z"/>
            <path fill="#D4E8FB" d="M8.097 28.921l1.79-1.789.486.486-1.79 1.79zM9.015 29.843l1.79-1.79.485.487-1.789 1.789zM9.93 30.757l1.79-1.79.485.487-1.789 1.789zM10.855 31.678l1.789-1.789.486.486-1.789 1.79zM11.773 32.6l1.789-1.79.486.487-1.79 1.789zM12.698 33.52l1.789-1.788.486.486-1.79 1.789zM13.61 34.43l1.79-1.789.486.486-1.79 1.79zM23.91 12.186l1.789-1.788.486.486-1.79 1.789zM24.834 13.108l1.79-1.79.485.487-1.789 1.789zM25.754 14.034l1.79-1.79.485.487-1.789 1.789zM26.672 14.948l1.789-1.789.486.486-1.789 1.79zM27.597 15.87l1.789-1.79.486.487-1.79 1.789zM28.51 16.786l1.789-1.79.486.487-1.79 1.789zM29.43 17.712l1.789-1.789.486.486-1.79 1.79z"/>
            <path fill="url(#b)" d="M18.413 28.506h3.437v4.125h-3.437z" transform="rotate(-45 20.131 30.569)"/>
            <path fill="url(#b)" d="M21.603 25.315h3.437v4.125h-3.437z" transform="rotate(-45 23.321 27.378)"/>
            <path fill="url(#c)" d="M24.79 22.129h3.438v4.125h-3.437z" transform="rotate(-45 26.51 24.191)"/>
            <path fill="url(#b)" d="M9.646 19.74h3.438v4.126H9.646z" transform="rotate(-45 11.365 21.803)"/>
            <path fill="url(#b)" d="M12.836 16.55h3.438v4.124h-3.438z" transform="rotate(-45 14.555 18.612)"/>
            <path fill="url(#c)" d="M16.031 13.363h3.438v4.125H16.03z" transform="rotate(-45 17.75 15.425)"/>
            <path fill="#001B44" d="M7.563 14.438a.687.687 0 0 1-.688-.688V8.649a1.78 1.78 0 0 1 1.774-1.774h6.476a.687.687 0 1 1 0 1.375H8.649a.406.406 0 0 0-.399.399v5.101c0 .38-.308.688-.688.688zM35.351 37.125h-5.788a.687.687 0 1 1 0-1.375h5.788a.406.406 0 0 0 .399-.399v-5.788a.687.687 0 1 1 1.375 0v5.788a1.78 1.78 0 0 1-1.774 1.774z"/>
            <circle cx="10.313" cy="10.313" r="1.375" fill="#6CCB93"/>
            <circle cx="33.688" cy="33.688" r="1.375" fill="#6CCB93"/>
            <path d="M0 0h44v44H0z"/>
        </g>
    </g>
</svg>
