<svg xmlns="http://www.w3.org/2000/svg" width="136" height="56" viewBox="0 0 136 56">
    <defs>
        <linearGradient id="a" x1="0%" y1="50%" y2="50%">
            <stop offset="0%" stop-color="#007AFF"/>
            <stop offset="100%" stop-color="#0095FF"/>
        </linearGradient>
        <linearGradient id="b" x1="100%" x2=".004%" y1="50.31%" y2="50.31%">
            <stop offset="0%" stop-color="#007AFF"/>
            <stop offset="100%" stop-color="#0095FF"/>
        </linearGradient>
    </defs>
    <g fill="none" fill-rule="evenodd">
        <rect width="135" height="55" x=".5" y=".5" fill-rule="nonzero" stroke="#2760FF" rx="4"/>
        <path fill="#4D5872" d="M57.344 26.096c-1.104 0-1.94-.288-2.508-.864-.568-.576-.852-1.424-.852-2.544V17.54h.972v5.232c0 .824.202 1.444.606 1.86.404.416.998.624 1.782.624s1.376-.208 1.776-.624c.4-.416.6-1.036.6-1.86V17.54h.984v5.148c0 1.112-.286 1.958-.858 2.538-.572.58-1.406.87-2.502.87zm8.184-6.084c1.4 0 2.1.772 2.1 2.316V26h-.972v-3.612c0-.544-.106-.94-.318-1.188-.212-.248-.55-.372-1.014-.372-.536 0-.964.164-1.284.492-.32.328-.48.772-.48 1.332V26h-.972v-5.844h.96v.96c.192-.36.46-.634.804-.822a2.412 2.412 0 0 1 1.176-.282zM69.404 26v-8.46h.972V26h-.972zm2.784 0v-5.844h.972V26h-.972zm-.096-8.376h1.176v1.092h-1.176v-1.092zm9.384 2.388c1.296 0 1.944.772 1.944 2.316V26h-.972v-3.624c0-.536-.094-.928-.282-1.176-.188-.248-.49-.372-.906-.372-.488 0-.872.164-1.152.492-.28.328-.42.776-.42 1.344V26h-.972v-3.624c0-.544-.096-.938-.288-1.182-.192-.244-.496-.366-.912-.366-.488 0-.872.164-1.152.492-.28.328-.42.776-.42 1.344V26h-.972v-5.844h.96v.924c.176-.344.42-.608.732-.792a2.086 2.086 0 0 1 1.08-.276c.904 0 1.5.384 1.788 1.152.168-.36.424-.642.768-.846a2.261 2.261 0 0 1 1.176-.306zM85.196 26v-5.844h.972V26h-.972zm-.096-8.376h1.176v1.092H85.1v-1.092zm5.448 7.68c.176 0 .352-.012.528-.036l-.048.768a3.507 3.507 0 0 1-.6.048c-.704 0-1.234-.184-1.59-.552-.356-.368-.534-.88-.534-1.536v-3.072h-1.14v-.768h1.14V18.38h.972v1.776h1.656v.768h-1.656v3c0 .92.424 1.38 1.272 1.38zm6.408-2.076h-4.272c.032.68.216 1.194.552 1.542.336.348.812.522 1.428.522.68 0 1.304-.232 1.872-.696l.324.708a2.74 2.74 0 0 1-.984.57c-.4.14-.808.21-1.224.21-.912 0-1.63-.268-2.154-.804s-.786-1.276-.786-2.22c0-.6.116-1.13.348-1.59.232-.46.558-.818.978-1.074a2.7 2.7 0 0 1 1.434-.384c.776 0 1.384.254 1.824.762.44.508.66 1.206.66 2.094v.36zm-2.472-2.46c-.512 0-.922.16-1.23.48-.308.32-.49.772-.546 1.356h3.396c-.016-.592-.164-1.046-.444-1.362-.28-.316-.672-.474-1.176-.474zm9.084-3.228V26h-.972v-1.068a1.928 1.928 0 0 1-.774.852c-.34.2-.738.3-1.194.3-.512 0-.964-.128-1.356-.384a2.535 2.535 0 0 1-.912-1.074c-.216-.46-.324-.994-.324-1.602 0-.6.108-1.128.324-1.584a2.46 2.46 0 0 1 .912-1.056 2.482 2.482 0 0 1 1.356-.372c.456 0 .854.1 1.194.3.34.2.598.484.774.852V17.54h.972zm-2.748 7.74c.568 0 1.006-.194 1.314-.582.308-.388.462-.938.462-1.65s-.154-1.26-.462-1.644c-.308-.384-.746-.576-1.314-.576-.568 0-1.01.192-1.326.576-.316.384-.474.924-.474 1.62 0 .712.158 1.266.474 1.662.316.396.758.594 1.326.594zm7.788.72v-8.46h5.232v.828h-4.26v2.916h4.02v.828h-4.02V26h-.972zm8.736-5.988c.744 0 1.298.19 1.662.57.364.38.546.958.546 1.734V26h-.948v-.996c-.152.344-.384.61-.696.798a2.051 2.051 0 0 1-1.08.282c-.376 0-.722-.076-1.038-.228a1.855 1.855 0 0 1-.75-.636 1.572 1.572 0 0 1-.276-.9c0-.44.112-.782.336-1.026.224-.244.592-.42 1.104-.528.512-.108 1.224-.162 2.136-.162h.264v-.396c0-.488-.1-.842-.3-1.062-.2-.22-.524-.33-.972-.33-.672 0-1.34.208-2.004.624l-.324-.708c.304-.216.67-.39 1.098-.522a4.207 4.207 0 0 1 1.242-.198zm-.384 5.304c.48 0 .874-.162 1.182-.486.308-.324.462-.742.462-1.254v-.348h-.216c-.704 0-1.24.03-1.608.09-.368.06-.63.16-.786.3-.156.14-.234.346-.234.618 0 .312.114.57.342.774.228.204.514.306.858.306zm6.348.768c-.984 0-1.764-.252-2.34-.756l.324-.72c.312.248.63.426.954.534.324.108.69.162 1.098.162.432 0 .762-.074.99-.222a.72.72 0 0 0 .342-.642.704.704 0 0 0-.228-.552c-.152-.136-.404-.244-.756-.324l-.984-.228c-.496-.112-.876-.304-1.14-.576a1.391 1.391 0 0 1-.396-1.008c0-.52.204-.94.612-1.26.408-.32.952-.48 1.632-.48.408 0 .796.066 1.164.198.368.132.676.322.924.57l-.324.708c-.536-.456-1.124-.684-1.764-.684-.408 0-.726.078-.954.234a.748.748 0 0 0-.342.654c0 .232.07.418.21.558.14.14.366.246.678.318l.996.24c.544.128.948.322 1.212.582.264.26.396.598.396 1.014 0 .512-.206.92-.618 1.224-.412.304-.974.456-1.686.456zm6.288-.78c.176 0 .352-.012.528-.036l-.048.768a3.507 3.507 0 0 1-.6.048c-.704 0-1.234-.184-1.59-.552-.356-.368-.534-.88-.534-1.536v-3.072h-1.14v-.768h1.14V18.38h.972v1.776h1.656v.768h-1.656v3c0 .92.424 1.38 1.272 1.38zm-70.752 8.352c.488.128.866.368 1.134.72.268.352.402.792.402 1.32 0 .744-.244 1.314-.732 1.71-.488.396-1.18.594-2.076.594h-3.528v-8.46h3.396c.872 0 1.548.192 2.028.576.48.384.72.928.72 1.632 0 .456-.118.848-.354 1.176-.236.328-.566.572-.99.732zm-3.828-.36h2.28c.632 0 1.11-.128 1.434-.384.324-.256.486-.628.486-1.116 0-.96-.64-1.44-1.92-1.44h-2.28v2.94zm2.46 3.888c.664 0 1.154-.122 1.47-.366.316-.244.474-.626.474-1.146 0-1.04-.648-1.56-1.944-1.56h-2.46v3.072h2.46zm6.888-5.172c.744 0 1.298.19 1.662.57.364.38.546.958.546 1.734V38h-.948v-.996c-.152.344-.384.61-.696.798a2.051 2.051 0 0 1-1.08.282c-.376 0-.722-.076-1.038-.228a1.855 1.855 0 0 1-.75-.636 1.572 1.572 0 0 1-.276-.9c0-.44.112-.782.336-1.026.224-.244.592-.42 1.104-.528.512-.108 1.224-.162 2.136-.162h.264v-.396c0-.488-.1-.842-.3-1.062-.2-.22-.524-.33-.972-.33-.672 0-1.34.208-2.004.624l-.324-.708c.304-.216.67-.39 1.098-.522a4.207 4.207 0 0 1 1.242-.198zm-.384 5.304c.48 0 .874-.162 1.182-.486.308-.324.462-.742.462-1.254v-.348h-.216c-.704 0-1.24.03-1.608.09-.368.06-.63.16-.786.3-.156.14-.234.346-.234.618 0 .312.114.57.342.774.228.204.514.306.858.306zm7.308-5.304c1.4 0 2.1.772 2.1 2.316V38h-.972v-3.612c0-.544-.106-.94-.318-1.188-.212-.248-.55-.372-1.014-.372-.536 0-.964.164-1.284.492-.32.328-.48.772-.48 1.332V38h-.972v-5.844h.96v.96c.192-.36.46-.634.804-.822a2.412 2.412 0 0 1 1.176-.282zm9.06-2.472V38h-.972v-1.068a1.928 1.928 0 0 1-.774.852c-.34.2-.738.3-1.194.3-.512 0-.964-.128-1.356-.384a2.535 2.535 0 0 1-.912-1.074c-.216-.46-.324-.994-.324-1.602 0-.6.108-1.128.324-1.584a2.46 2.46 0 0 1 .912-1.056 2.482 2.482 0 0 1 1.356-.372c.456 0 .854.1 1.194.3.34.2.598.484.774.852V29.54h.972zM77.6 37.28c.568 0 1.006-.194 1.314-.582.308-.388.462-.938.462-1.65s-.154-1.26-.462-1.644c-.308-.384-.746-.576-1.314-.576-.568 0-1.01.192-1.326.576-.316.384-.474.924-.474 1.62 0 .712.158 1.266.474 1.662.316.396.758.594 1.326.594zm12.48-5.124h.972L88.88 38h-.936L86.3 33.476 84.644 38h-.924l-2.172-5.844h1.008l1.656 4.692 1.692-4.692h.84l1.668 4.692 1.668-4.692zM92.252 38v-5.844h.972V38h-.972zm-.096-8.376h1.176v1.092h-1.176v-1.092zm8.064-.084V38h-.972v-1.068a1.928 1.928 0 0 1-.774.852c-.34.2-.738.3-1.194.3-.512 0-.964-.128-1.356-.384a2.535 2.535 0 0 1-.912-1.074c-.216-.46-.324-.994-.324-1.602 0-.6.108-1.128.324-1.584a2.46 2.46 0 0 1 .912-1.056 2.482 2.482 0 0 1 1.356-.372c.456 0 .854.1 1.194.3.34.2.598.484.774.852V29.54h.972zm-2.748 7.74c.568 0 1.006-.194 1.314-.582.308-.388.462-.938.462-1.65s-.154-1.26-.462-1.644c-.308-.384-.746-.576-1.314-.576-.568 0-1.01.192-1.326.576-.316.384-.474.924-.474 1.62 0 .712.158 1.266.474 1.662.316.396.758.594 1.326.594zm7.116.024c.176 0 .352-.012.528-.036l-.048.768a3.507 3.507 0 0 1-.6.048c-.704 0-1.234-.184-1.59-.552-.356-.368-.534-.88-.534-1.536v-3.072h-1.14v-.768h1.14V30.38h.972v1.776h1.656v.768h-1.656v3c0 .92.424 1.38 1.272 1.38zm4.452-5.292c1.4 0 2.1.772 2.1 2.316V38h-.972v-3.612c0-.544-.106-.94-.318-1.188-.212-.248-.55-.372-1.014-.372-.536 0-.964.164-1.284.492-.32.328-.48.772-.48 1.332V38h-.972v-8.46h.972v3.552c.192-.352.458-.62.798-.804a2.42 2.42 0 0 1 1.17-.276z"/>
        <g transform="translate(5 6)">
            <path fill="url(#a)" d="M19.938 4.813h4.125v3.438h-4.125z" transform="rotate(-180 22 6.531)"/>
            <path fill="#0366D6" d="M19.938 8.25l4.125-3.438h-4.125z"/>
            <circle cx="22" cy="24.406" r="17.531" fill="#CFDEFE"/>
            <path fill="url(#b)" d="M6.188 24.406C6.188 33.14 13.267 40.22 22 40.22s15.813-7.08 15.813-15.813v-.392c-.109-8.733-7.276-15.724-16.009-15.616-8.733.108-15.725 7.275-15.616 16.008z"/>
            <path d="M44 44H0V0h44z"/>
            <path fill="#6CCB93" d="M25.437 4.125h-6.875v-2.75h6.875zM22 10.656v5.5a8.25 8.25 0 0 1 8.25 7.907h5.5c-.187-7.46-6.288-13.41-13.75-13.407z"/>
            <path fill="#FFF" d="M22 26.813c1.327 0 13.406-2.407 13.406-2.407S23.326 22 22 22a2.406 2.406 0 1 0 0 4.813z"/>
            <circle cx="22" cy="24.406" r="2.406" fill="#001B44"/>
            <circle cx="22" cy="24.406" r="1" fill="#CFDEFE"/>
            <path fill="#001B44" d="M13.063 24.75h-5.5a.687.687 0 1 1 0-1.375h5.5a.687.687 0 1 1 0 1.375zM13.063 20.625h-11a.687.687 0 1 1 0-1.375h11a.687.687 0 1 1 0 1.375zM13.063 28.875h-11a.687.687 0 1 1 0-1.375h11a.687.687 0 1 1 0 1.375z"/>
        </g>
    </g>
</svg>
