<?xml version="1.0" encoding="UTF-8"?>
<svg width="207px" height="103px" viewBox="0 0 207 103" version="1.1" xmlns="http://www.w3.org/2000/svg" xmlns:xlink="http://www.w3.org/1999/xlink">
    <!-- Generator: Sketch 52.3 (67297) - http://www.bohemiancoding.com/sketch -->
    <title>Lets encrypt</title>
    <desc>Created with Sketch.</desc>
    <g id="Web-Hosting-Terbaik" stroke="none" stroke-width="1" fill="none" fill-rule="evenodd">
        <g id="09-3-1-Fitur-kecepatan" transform="translate(-372.000000, -4132.000000)">
            <g id="Section-10---Tab-Fitur-Hosting-Detail" transform="translate(345.000000, 3671.000000)">
                <g id="Fitur-Kecepatan">
                    <g id="Http2" transform="translate(27.000000, 427.000000)">
                        <g id="Lets-encrypt" transform="translate(0.000000, 34.000000)">
                            <path d="M34.2286525,58.6619718 L44.288227,58.6619718 L41.1585816,98.3802817 L31.0990071,98.3802817 L32.3843972,82.3239437 L16.3449645,82.3239437 L15.0595745,98.3802817 L5,98.3802817 L8.12964539,58.6619718 L18.1892199,58.6619718 L16.9597163,74.0985915 L32.9991489,74.0985915 L34.2286525,58.6619718 Z M57.2539007,98.3802817 L59.7129078,67.056338 L47.8649645,67.056338 L48.5356028,58.6619718 L82.5146099,58.6619718 L81.8439716,67.056338 L70.0519149,67.056338 L67.6487943,98.3802817 L57.2539007,98.3802817 Z M92.5741844,98.3802817 L95.0331915,67.056338 L83.1852482,67.056338 L83.8558865,58.6619718 L117.834894,58.6619718 L117.164255,67.056338 L105.372199,67.056338 L102.969078,98.3802817 L92.5741844,98.3802817 Z M140.524823,58.6619718 C144.734962,58.6619718 148.02292,59.7229941 150.388794,61.8450704 C152.754669,63.9671468 153.937589,66.8685262 153.937589,70.5492958 C153.937589,74.8685662 152.689469,78.1924766 150.193191,80.5211268 C147.696914,82.8497769 144.101584,84.0140845 139.407092,84.0140845 L130.409362,84.0140845 L129.291631,98.3802817 L119.008511,98.3802817 L122.138156,58.6619718 L140.524823,58.6619718 Z M138.401135,76.2394366 C142.387727,76.2394366 144.380993,74.5305335 144.380993,71.1126761 C144.380993,69.5352034 143.94322,68.3708958 143.06766,67.6197183 C142.1921,66.8685408 140.860151,66.4929577 139.071773,66.4929577 L131.806525,66.4929577 L131.024113,76.2394366 L138.401135,76.2394366 Z M156.00539,103 L148.963688,100.464789 L166.959149,55 L174.000851,57.5352113 L156.00539,103 Z M186.575319,90.1549296 L201.441135,90.1549296 L200.826383,98.3802817 L173.05078,98.3802817 L173.609645,90.7183099 L187.581277,77.3098592 C190.450133,74.4929437 191.884539,71.9953161 191.884539,69.8169014 C191.884539,67.3755746 190.319732,66.1549296 187.190071,66.1549296 C184.134926,66.1549296 180.781768,67.3380163 177.130496,69.7042254 L174.50383,62.3802817 C178.117843,59.5633662 182.812264,58.1549296 188.587234,58.1549296 C192.760115,58.1549296 196.038759,59.1783935 198.423262,61.2253521 C200.807766,63.2723107 202,66.1173527 202,69.7605634 C202,71.8263014 201.478398,73.7793335 200.435177,75.6197183 C199.391957,77.4601031 197.54772,79.6572642 194.902411,82.2112676 L186.575319,90.1549296 Z" id="HTTP/2" fill="#00AB72"></path>
                            <g id="letsencrypt-logo-horizontal">
                                <g id="svg_1" transform="translate(46.407080, 21.265823)" fill="#2C3C69">
                                    <g id="svg_2" transform="translate(0.000000, 0.607595)">
                                        <g id="svg_3">
                                            <polygon id="svg_4" points="0.379195912 19.3695178 0.379195912 0.28678481 5.03822063 0.28678481 5.03822063 15.3533146 12.459689 15.3533146 12.459689 19.3689102 0.379195301 19.3689102 0.379195301 19.3695172"></polygon>
                                            <path d="M27.8118831,12.819645 C27.8118831,12.9994918 27.8118831,13.179343 27.8118831,13.3591893 C27.8118831,13.5390355 27.8027244,13.7091664 27.7850214,13.871393 L18.0071669,13.871393 C18.0431971,14.2487064 18.1561599,14.5901772 18.3460607,14.8957963 C18.5359615,15.2014153 18.7795999,15.4657227 19.0769716,15.6911368 C19.3749582,15.9159488 19.7089652,16.0909373 20.0796125,16.2161025 C20.4490348,16.3424822 20.8331132,16.4050627 21.2306271,16.4050627 C21.9346713,16.4050627 22.5312496,16.2750392 23.0185215,16.0143804 C23.5064089,15.7537215 23.9033122,15.4171133 24.2104525,15.0033418 L27.2983503,16.944 C26.6663665,17.8602507 25.8316466,18.5656703 24.7929805,19.0596468 C23.7543192,19.5530114 22.5483464,19.800909 21.1768938,19.800909 C20.1650986,19.800909 19.2082572,19.6429373 18.3057592,19.3294195 C17.4026555,19.0146823 16.6131245,18.5571639 15.9353369,17.9544322 C15.2587693,17.3529102 14.7256979,16.6116431 14.3373476,15.7312399 C13.9489973,14.8508367 13.7554254,13.8446601 13.7554254,12.7120994 C13.7554254,11.6166094 13.9447162,10.6231905 14.3239121,9.73427848 C14.703108,8.84536648 15.2178572,8.09012597 15.8681681,7.47037853 C16.5178691,6.8500241 17.2848053,6.36941894 18.1708166,6.02794997 C19.0549924,5.68708861 20.0124443,5.51574623 21.0413363,5.51574623 C22.0342029,5.51574623 22.9464709,5.68222846 23.7769133,6.01458106 C24.6073558,6.34693367 25.3205594,6.8275437 25.9171327,7.45640446 C26.5130961,8.08526522 26.9771633,8.84901205 27.3117858,9.74764496 C27.6451871,10.6456709 27.8118831,11.6706835 27.8118831,12.819645 Z M23.7219551,11.1214183 C23.7219551,10.4208614 23.5009109,9.81873418 23.058213,9.31564618 C22.6155151,8.81316516 21.9517681,8.56101266 21.0675923,8.56101266 C20.6340531,8.56101266 20.2371492,8.6284557 19.8756655,8.76334177 C19.5141819,8.89822785 19.199098,9.08233033 18.9273729,9.31564557 C18.6568679,9.54956841 18.4400961,9.82359433 18.277672,10.1383291 C18.1152478,10.4530621 18.0248749,10.7811639 18.0071669,11.1214183 L23.7219551,11.1214183 Z" id="svg_5" fill-rule="nonzero"></path>
                                            <path d="M34.9078932,9.23544365 L34.9078932,14.3763056 C34.9078932,15.0075931 35.0300153,15.480302 35.2742685,15.7968608 C35.517292,16.1128083 35.9551031,16.2695696 36.5877116,16.2695696 C36.8038642,16.2695696 37.0340671,16.252557 37.2783204,16.2154955 C37.5219588,16.1796437 37.7246851,16.1261772 37.8877193,16.0538716 L37.9420577,19.2881031 C37.6349216,19.3956437 37.246567,19.4898252 36.7776076,19.5712399 C36.3074373,19.6520518 35.8384785,19.6921543 35.3689133,19.6921543 C34.4658047,19.6921543 33.7068071,19.5791386 33.0931315,19.3543273 C32.4788502,19.1295202 31.9866915,18.8050621 31.6172692,18.380962 C31.246617,17.9580766 30.9803839,17.4537715 30.8179646,16.8680518 C30.6549304,16.2829397 30.5743262,15.6297722 30.5743262,14.9091664 L30.5743262,9.23544425 L28.4072402,9.23544425 L28.4072402,5.94713863 L30.5468496,5.94713863 L30.5468496,2.41640628 L34.9078926,2.41640628 L34.9078926,5.94713863 L38.0770088,5.94713863 L38.0770088,9.23544425 L34.9078926,9.23544425 L34.9078932,9.23544365 Z" id="svg_6"></path>
                                            <path d="M52.4601468,9.90865762 C52.0986539,9.56779868 51.6748834,9.28040446 51.1870009,9.04648101 C50.6997241,8.81316516 50.1849799,8.69589873 49.6433549,8.69589873 C49.227523,8.69589873 48.8440601,8.77731585 48.4923402,8.9383279 C48.1400153,9.10055696 47.9641514,9.37944304 47.9641514,9.77377094 C47.9641514,10.1510886 48.1577183,10.4202538 48.5460735,10.5824804 C48.9344287,10.744707 49.5621449,10.9239488 50.4286091,11.1214177 C50.9342038,11.2295684 51.4446805,11.3826835 51.9594345,11.5801501 C52.4741886,11.7776166 52.9388706,12.0382797 53.3540876,12.361519 C53.7693137,12.6847583 54.1033207,13.0803032 54.3567333,13.5475419 C54.6089155,14.0147854 54.73592,14.57195 54.73592,15.2184279 C54.73592,16.0635962 54.5643415,16.7769102 54.2211758,17.3608083 C53.8780003,17.9447064 53.4310305,18.4162007 52.8802469,18.7758981 C52.3294632,19.1355955 51.7109149,19.3956431 51.0251886,19.557267 C50.3388566,19.7194937 49.6525154,19.7996938 48.9667891,19.7996938 C47.8646253,19.7996938 46.7862676,19.6247101 45.7292835,19.2741254 C44.6735291,18.9241531 43.7930153,18.4070862 43.088971,17.7241489 L45.5809054,15.1096672 C45.9771987,15.5410639 46.4650812,15.9007571 47.0433415,16.1875419 C47.6209869,16.4755413 48.2352682,16.6189337 48.8855792,16.6189337 C49.2470629,16.6189337 49.6036646,16.5332634 49.9553839,16.3625304 C50.3077089,16.1924045 50.4835728,15.8910362 50.4835728,15.4602513 C50.4835728,15.0464792 50.267411,14.7414671 49.8338669,14.5433888 C49.4003326,14.3459222 48.723765,14.1393424 47.8023384,13.9230368 C47.3327739,13.8154912 46.8632093,13.6720988 46.3936442,13.4922519 C45.9234648,13.3124051 45.503971,13.0705811 45.1345395,12.7643544 C44.7645114,12.4593375 44.461643,12.0820247 44.2271639,11.6324008 C43.9926842,11.1839988 43.8754446,10.6444539 43.8754446,10.0155937 C43.8754446,9.20688425 44.0464175,8.51969377 44.390198,7.9534159 C44.7333637,7.38713803 45.1754516,6.92536466 45.7176823,6.56566906 C46.2593073,6.20597347 46.8595468,5.94166906 47.5184022,5.77032851 C48.1772575,5.59898795 48.8318453,5.51392284 49.482762,5.51392284 C50.4933366,5.51392284 51.4819313,5.6718963 52.4479319,5.98541711 C53.4139326,6.30015008 54.2315545,6.77164435 54.8995685,7.40050511 L52.4601468,9.9086558 L52.4601468,9.90865762 Z" id="svg_7"></path>
                                            <polygon id="svg_8" points="63.2406329 19.3695178 63.2406329 0.28678481 76.1332511 0.28678481 76.1332511 4.16810127 67.7097568 4.16810127 67.7097568 7.77964557 75.6728453 7.77964557 75.6728453 11.472 67.7097568 11.472 67.7097568 15.4341266 76.6211337 15.4341266 76.6211337 19.3695172 63.2406329 19.3695172"></polygon>
                                            <path d="M88.3413735,19.3695178 L88.3413735,12.0382809 C88.3413735,11.6609632 88.3090052,11.3018746 88.2467281,10.9604063 C88.1832212,10.6189379 88.0794172,10.3181766 87.9347003,10.0575202 C87.7899835,9.79746896 87.5872579,9.59027909 87.3253015,9.43716577 C87.0633451,9.28526704 86.7336149,9.20810066 86.3367067,9.20810066 C85.9397986,9.20810066 85.5917504,9.28526704 85.293773,9.43716577 C84.9964013,9.59027909 84.7472661,9.80172152 84.5488166,10.0708867 C84.3503671,10.3400518 84.2013741,10.6505316 84.1024519,11.0005063 C84.0029246,11.3510886 83.953459,11.7150374 83.953459,12.092355 L83.953459,19.3695178 L79.4843351,19.3695178 L79.4843351,5.94713803 L83.7910397,5.94713803 L83.7910397,7.80698673 L83.8453781,7.80698673 C84.0084123,7.51959433 84.2196921,7.23706268 84.4822536,6.9587842 C84.7436042,6.67989813 85.0513552,6.44172213 85.4030745,6.24425316 C85.7553995,6.0467842 86.138863,5.88455757 86.5546942,5.75878481 C86.9699204,5.63361965 87.4120082,5.56982218 87.8815728,5.56982218 C88.7846814,5.56982218 89.5516176,5.73204881 90.1842164,6.05529053 C90.8168151,6.37853225 91.3260809,6.79655696 91.7150418,7.30815129 C92.103397,7.82035322 92.383065,8.40911332 92.5546436,9.07321397 C92.7256164,9.73853104 92.8117174,10.4032411 92.8117174,11.0679488 L92.8117174,19.3689102 L88.3413729,19.3689102 L88.3413729,19.3695172 L88.3413735,19.3695178 Z" id="svg_9"></path>
                                            <path d="M104.240689,10.2859753 C103.987277,9.96273418 103.644111,9.70268476 103.211182,9.50460881 C102.777648,9.30713985 102.334329,9.20810066 101.883698,9.20810066 C101.413518,9.20810066 100.989748,9.3022797 100.610552,9.4912399 C100.231356,9.6802001 99.9065075,9.93235504 99.6353924,10.2458734 C99.3648923,10.5606088 99.1517867,10.9245576 98.9985169,11.3377221 C98.8452563,11.7514967 98.768314,12.1907872 98.768314,12.6586335 C98.768314,13.1258722 98.8403647,13.5657752 98.9850815,13.9789397 C99.1291926,14.3927119 99.3410775,14.7566607 99.6213512,15.070786 C99.9010107,15.385519 100.235027,15.6328083 100.623987,15.8120525 C101.012342,15.9918993 101.450153,16.0812176 101.93743,16.0812176 C102.388072,16.0812176 102.835647,15.9961549 103.277744,15.8254171 C103.719841,15.6546793 104.077039,15.4073942 104.34754,15.0841507 L106.812622,18.0759506 C106.25267,18.6148879 105.529702,19.0371664 104.645526,19.3427854 C103.760745,19.6477975 102.821606,19.8009108 101.828744,19.8009108 C100.763207,19.8009108 99.7685093,19.6386842 98.8446414,19.3154449 C97.9213891,18.9922056 97.1190284,18.5201043 96.4381938,17.900355 C95.7567443,17.28061 95.2212316,16.5308373 94.8304352,15.650434 C94.4396387,14.7700308 94.2448511,13.7729632 94.2448511,12.6586341 C94.2448511,11.5625323 94.4396295,10.5739759 94.8304352,9.69357023 C95.221231,8.81377397 95.7567437,8.06278663 96.4381938,7.44303919 C97.1190284,6.82268476 97.9219948,6.34693732 98.8446414,6.01458228 C99.7685087,5.68222967 100.754048,5.51574744 101.801873,5.51574744 C102.28915,5.51574744 102.77215,5.56071008 103.250873,5.65124111 C103.728991,5.74055939 104.189388,5.86268415 104.63209,6.0151923 C105.074793,6.16770046 105.480861,6.35666066 105.850888,6.58147018 C106.220915,6.8062797 106.542121,7.05296446 106.812621,7.32273418 L104.240688,10.2859765 L104.240689,10.2859753 Z" id="svg_10"></path>
                                            <path d="M117.258486,9.58541833 C117.059431,9.53134177 116.86524,9.49610248 116.675949,9.47787281 C116.486658,9.45964314 116.301039,9.45053225 116.120897,9.45053225 C115.524943,9.45053225 115.023616,9.55868294 114.617549,9.77316395 C114.2115,9.98825256 113.886643,10.2476968 113.642399,10.5527089 C113.398751,10.8571133 113.222281,11.1888614 113.1142,11.5473399 C113.006119,11.9058185 112.951781,12.2187342 112.951781,12.4878993 L112.951781,19.3689102 L108.509528,19.3689102 L108.509528,5.9629361 L112.789361,5.9629361 L112.789361,7.90359433 L112.8437,7.90359433 C113.186875,7.21579686 113.673537,6.65498673 114.306742,6.22055635 C114.938139,5.78612597 115.669659,5.56921519 116.500708,5.56921519 C116.680831,5.56921519 116.8573,5.5789361 117.028888,5.59655575 C117.199861,5.61417782 117.34031,5.64151838 117.449006,5.6773677 L117.258485,9.58541772 L117.258486,9.58541833 Z" id="svg_11"></path>
                                            <path d="M127.69397,21.3909879 C127.42347,22.0915449 127.120601,22.7161525 126.786594,23.2642031 C126.452587,23.8116468 126.05567,24.2788855 125.595264,24.6659241 C125.134858,25.0523556 124.592628,25.3433912 123.969803,25.5414696 C123.346978,25.7389361 122.610556,25.8379753 121.76242,25.8379753 C121.346588,25.8379753 120.917936,25.8106347 120.476444,25.7565557 C120.033145,25.7024816 119.649663,25.630783 119.324825,25.5414696 L119.812698,21.8223797 C120.02886,21.8934665 120.268221,21.9524032 120.530802,21.9973683 C120.792134,22.0417215 121.031496,22.0642044 121.248272,22.0642044 C121.934604,22.0642044 122.431049,21.9068354 122.738185,21.5927101 C123.044706,21.2779729 123.306672,20.8338234 123.523448,20.2590392 L123.956983,19.154431 L118.322803,5.94774744 L123.252333,5.94774744 L126.259011,14.5725576 L126.340221,14.5725576 L129.022061,5.94774744 L133.734833,5.94774744 L127.693971,21.3909879 L127.69397,21.3909879 Z" id="svg_12"></path>
                                            <path d="M149.904638,12.6045588 C149.904638,13.5390362 149.759922,14.4376715 149.471104,15.2998481 C149.181671,16.1626317 148.762168,16.9215184 148.211999,17.5771145 C147.661216,18.2333183 146.988319,18.7588867 146.193906,19.1544316 C145.398879,19.5487619 144.496385,19.747443 143.48458,19.747443 C142.654147,19.747443 141.868884,19.5815678 141.128194,19.2492152 C140.387505,18.9168626 139.810484,18.4629879 139.394652,17.8882037 L139.340929,17.8882037 L139.340929,25.8391905 L134.898658,25.8391905 L134.898658,5.94713863 L139.124152,5.94713863 L139.124152,7.59129114 L139.205362,7.59129114 C139.621194,7.05235382 140.193948,6.58086197 140.925469,6.17620314 C141.656393,5.7721519 142.51858,5.56982278 143.512067,5.56982278 C144.487217,5.56982278 145.371393,5.75878542 146.166421,6.13610066 C146.960833,6.51341833 147.633133,7.02562025 148.184514,7.67210066 C148.735894,8.31858106 149.159682,9.06956841 149.457669,9.92263352 C149.755655,10.7763038 149.904639,11.6706835 149.904639,12.6045582 L149.904638,12.6045588 Z M145.597934,12.6045588 C145.597934,12.173167 145.530756,11.7514961 145.395208,11.3377215 C145.259641,10.924557 145.060586,10.5606082 144.798638,10.2458728 C144.536673,9.93174744 144.206933,9.67594876 143.810034,9.47787281 C143.413135,9.27979686 142.952729,9.18136709 142.428817,9.18136709 C141.923222,9.18136709 141.47137,9.28040385 141.074471,9.47787281 C140.676957,9.67534177 140.338049,9.93600061 140.058399,10.2592393 C139.778116,10.5824804 139.561954,10.9512899 139.408684,11.3638475 C139.254818,11.7776221 139.178491,12.199293 139.178491,12.6306848 C139.178491,13.0620766 139.254818,13.484355 139.408684,13.8975196 C139.561954,14.3112917 139.778116,14.6788836 140.058399,15.0021278 C140.338049,15.3253671 140.676957,15.5866329 141.074471,15.7840994 C141.470755,15.9815708 141.923222,16.0799982 142.428817,16.0799982 C142.952115,16.0799982 143.41252,15.9815708 143.810034,15.7840994 C144.207548,15.5866281 144.536672,15.3253671 144.798638,15.0021278 C145.060605,14.6788885 145.25964,14.3058216 145.395208,13.8835437 C145.530159,13.4624798 145.597934,13.0359506 145.597934,12.6045588 Z" id="svg_13" fill-rule="nonzero"></path>
                                            <path d="M157.001263,9.23544365 L157.001263,14.3763056 C157.001263,15.0075931 157.123395,15.480302 157.367639,15.7968608 C157.610653,16.1128083 158.048473,16.2695696 158.681082,16.2695696 C158.897244,16.2695696 159.127437,16.252557 159.371681,16.2154955 C159.615328,16.1796437 159.818055,16.1261772 159.981089,16.0538716 L160.035427,19.2881031 C159.728291,19.3956437 159.339927,19.4898252 158.870987,19.5712399 C158.400798,19.6520518 157.931839,19.6921543 157.462283,19.6921543 C156.559175,19.6921543 155.800168,19.5791386 155.186493,19.3543273 C154.572221,19.1295202 154.080062,18.8050621 153.71063,18.380962 C153.339987,17.9580766 153.073755,17.4537715 152.911335,16.8680518 C152.748301,16.2829397 152.667688,15.6297722 152.667688,14.9091664 L152.667688,9.23544425 L150.500611,9.23544425 L150.500611,5.94713863 L152.64022,5.94713863 L152.64022,2.41640628 L157.001263,2.41640628 L157.001263,5.94713863 L160.17038,5.94713863 L160.17038,9.23544425 L157.001263,9.23544425 L157.001263,9.23544365 Z" id="svg_14"></path>
                                        </g>
                                    </g>
                                    <path d="M42.1388465,0.528606987 C40.8058648,0.528606987 39.7623168,1.48435504 39.7623168,2.70501266 C39.7623168,3.99068415 40.6409951,4.85407534 41.9495563,4.85407534 C42.0612991,4.85407534 42.1669295,4.84374744 42.266466,4.8236962 C42.0570223,5.77519109 41.1355957,6.4581278 40.2648554,6.59483605 L40.0877702,6.62278603 L40.0877702,8.67463352 L40.3173674,8.65276071 C41.3737366,8.55250694 42.4172847,8.07493792 43.1817797,7.34217782 C44.1783131,6.3864322 44.7052814,5.0065841 44.7052814,3.35149367 C44.7052814,1.71584932 43.6257122,0.528607595 42.1388459,0.528607595 L42.1388465,0.528606987 Z" id="svg_15"></path>
                                </g>
                                <g id="svg_16" transform="translate(10.991150, 10.936709)" fill="#F9A11D">
                                    <path d="M17.3959368,11.2818234 L12.4865581,11.2818234 L12.4865581,8.77367028 C12.4865581,6.77043159 10.8482649,5.14086015 8.83505371,5.14086015 C6.82184071,5.14086015 5.1841599,6.77103858 5.1841599,8.77367028 L5.1841599,11.2818234 L0.274778761,11.2818234 L0.274778761,8.77367028 C0.274778761,4.07696142 4.11496338,0.255189873 8.83566372,0.255189873 C13.5563641,0.255189873 17.3965487,4.07635443 17.3965487,8.77367028 L17.3965487,11.2818234 L17.3959362,11.2818234 L17.3959368,11.2818234 Z" id="svg_17"></path>
                                </g>
                                <path d="M30.3673262,22.2185323 L9.28569027,22.2185323 C8.38563656,22.2185323 7.64923009,22.9512899 7.64923009,23.8468867 L7.64923009,39.364862 C7.64923009,40.2604563 8.38563656,40.9932164 9.28569027,40.9932164 L30.3673262,40.9932164 C31.2673811,40.9932164 32.0037864,40.2604563 32.0037864,39.364862 L32.0037864,23.8468867 C32.0037864,22.9512899 31.2673811,22.2185323 30.3673262,22.2185323 Z M20.8947882,32.4072924 L20.8947882,34.5101754 C20.8947882,35.0971139 20.4160626,35.5728595 19.8268142,35.5728595 C19.2375658,35.5728595 18.7588401,35.0965069 18.7588401,34.5101754 L18.7588401,32.4078999 C18.1018135,32.0366594 17.6578926,31.3361025 17.6578926,30.5304316 C17.6578926,29.3383291 18.6293882,28.3722532 19.8268142,28.3722532 C21.0248483,28.3722532 21.9957333,29.3389367 21.9957333,30.5304316 C21.9957333,31.3354955 21.5518123,32.0360525 20.8947876,32.407293 L20.8947882,32.4072924 Z" id="svg_18" fill="#2C3C69" fill-rule="nonzero"></path>
                                <path d="M7.14852273,19.9048089 L2.06145194,19.9048089 C1.23650442,19.9048089 0.567876717,19.2394943 0.567876717,18.4186323 C0.567876717,17.5977703 1.23650442,16.9324557 2.06145194,16.9324557 L7.14852273,16.9324557 C7.97346964,16.9324557 8.64209735,17.5977728 8.64209735,18.4186323 C8.64209735,19.2394918 7.9728578,19.9048089 7.14852273,19.9048089 Z" id="svg_19" fill="#F9A11D"></path>
                                <path d="M10.7316378,11.9422791 C10.3982389,11.9422791 10.0617882,11.8316962 9.78395636,11.6038481 L5.75997406,8.31129175 C5.12309735,7.78997408 5.03089442,6.85367149 5.55541593,6.21934177 C6.07932743,5.58562086 7.02029204,5.49387342 7.65777937,6.01518987 L11.6817617,9.30774744 C12.3186372,9.8290639 12.4108413,10.7653677 11.8863186,11.3996962 C11.5913894,11.7575702 11.1633451,11.9422797 10.7316378,11.9422797 L10.7316378,11.9422791 Z" id="svg_20" fill="#F9A11D"></path>
                                <path d="M19.8262048,8.44253165 C19.0012566,8.44253165 18.3326277,7.77721458 18.3326277,6.95635382 L18.3326277,1.85437975 C18.3326277,1.03351899 19.0012566,0.368202532 19.8262048,0.368202532 C20.6511529,0.368202532 21.3197794,1.03351899 21.3197794,1.85437975 L21.3197794,6.95635382 C21.3197794,7.77721458 20.6511504,8.44253165 19.8262048,8.44253165 Z" id="svg_21" fill="#F9A11D"></path>
                                <g id="svg_22" transform="translate(26.867257, 5.468354)" fill="#F9A11D">
                                    <g id="svg_23">
                                        <path d="M2.05351266,6.47392466 C1.62180409,6.47392466 1.19437229,6.28921519 0.898831858,5.93134116 C0.374919133,5.29762025 0.466513274,4.36070886 1.10338877,3.83939241 L5.12737107,0.546834835 C5.76485963,0.0255183797 6.70582423,0.117265823 7.22973207,0.750986734 C7.7536448,1.38470765 7.66205065,2.32161904 7.02517516,2.84293671 L3.0011953,6.13549306 C2.72336222,6.36334116 2.38752212,6.47392405 2.05351266,6.47392405 L2.05351266,6.47392466 Z" id="svg_24"></path>
                                    </g>
                                </g>
                                <path d="M37.5915688,19.9048089 L32.4562566,19.9048089 C31.6313085,19.9048089 30.962682,19.2394943 30.962682,18.4186323 C30.962682,17.5977703 31.6313085,16.9324557 32.4562566,16.9324557 L37.5915688,16.9324557 C38.4165145,16.9324557 39.0851434,17.5977728 39.0851434,18.4186323 C39.0851434,19.2394918 38.4165145,19.9048089 37.5915688,19.9048089 Z" id="svg_25" fill="#F9A11D"></path>
                            </g>
                        </g>
                    </g>
                </g>
            </g>
        </g>
    </g>
</svg>