<?xml version="1.0" encoding="UTF-8"?>
<svg width="136px" height="56px" viewBox="0 0 136 56" version="1.1" xmlns="http://www.w3.org/2000/svg" xmlns:xlink="http://www.w3.org/1999/xlink">
    <!-- Generator: Sketch 52.4 (67378) - http://www.bohemiancoding.com/sketch -->
    <title>HTTP2</title>
    <desc>Created with Sketch.</desc>
    <g id="Web-Hosting-Terbaik" stroke="none" stroke-width="1" fill="none" fill-rule="evenodd">
        <g id="01" transform="translate(-959.000000, -3415.000000)">
            <g id="Section-9---Fitur-hosting-image" transform="translate(349.000000, 3415.000000)">
                <g id="row-1">
                    <g id="HTTP2" transform="translate(610.000000, 0.000000)">
                        <rect id="Rectangle-Copy-11" stroke="#2760FF" fill-rule="nonzero" x="0.5" y="0.5" width="135" height="55" rx="4"></rect>
                        <path d="M38.632,19.08 L42.952,19.08 L41.608,36 L37.288,36 L37.84,29.16 L30.952,29.16 L30.4,36 L26.08,36 L27.424,19.08 L31.744,19.08 L31.216,25.656 L38.104,25.656 L38.632,19.08 Z M48.52,36 L49.576,22.656 L44.488,22.656 L44.776,19.08 L59.368,19.08 L59.08,22.656 L54.016,22.656 L52.984,36 L48.52,36 Z M63.688,36 L64.744,22.656 L59.656,22.656 L59.944,19.08 L74.536,19.08 L74.248,22.656 L69.184,22.656 L68.152,36 L63.688,36 Z M84.28,19.08 C86.088009,19.08 87.4999949,19.5319955 88.516,20.436 C89.5320051,21.3400045 90.04,22.5759922 90.04,24.144 C90.04,25.9840092 89.5040054,27.399995 88.432,28.392 C87.3599946,29.384005 85.8160101,29.88 83.8,29.88 L79.936,29.88 L79.456,36 L75.04,36 L76.384,19.08 L84.28,19.08 Z M83.368,26.568 C85.0800086,26.568 85.936,25.8400073 85.936,24.384 C85.936,23.7119966 85.7480019,23.2160016 85.372,22.896 C84.9959981,22.5759984 84.4240038,22.416 83.656,22.416 L80.536,22.416 L80.2,26.568 L83.368,26.568 Z M90.928,37.968 L87.904,36.888 L95.632,17.52 L98.656,18.6 L90.928,37.968 Z M104.056,32.496 L110.44,32.496 L110.176,36 L98.248,36 L98.488,32.736 L104.488,27.024 C105.720006,25.823994 106.336,24.7600046 106.336,23.832 C106.336,22.7919948 105.664007,22.272 104.32,22.272 C103.007993,22.272 101.568008,22.775995 100,23.784 L98.872,20.664 C100.424008,19.463994 102.439988,18.864 104.92,18.864 C106.712009,18.864 108.119995,19.2999956 109.144,20.172 C110.168005,21.0440044 110.68,22.2559922 110.68,23.808 C110.68,24.6880044 110.456002,25.5199961 110.008,26.304 C109.559998,27.0880039 108.768006,28.0239946 107.632,29.112 L104.056,32.496 Z" id="HTTP/2" fill="#00AB72"></path>
                    </g>
                </g>
            </g>
        </g>
    </g>
</svg>