<svg viewBox="0 0 64 64" xmlns="http://www.w3.org/2000/svg" xmlns:xlink="http://www.w3.org/1999/xlink"><linearGradient id="a" gradientUnits="userSpaceOnUse" x1="16" x2="48" y1="37" y2="37"><stop offset="0" stop-color="#007aff"/><stop offset=".63" stop-color="#008bff"/><stop offset="1" stop-color="#0095ff"/></linearGradient><linearGradient id="b" x1="3" x2="60" xlink:href="#a" y1="58" y2="58"/><linearGradient id="c" x1="37" x2="46" xlink:href="#a" y1="8.5" y2="8.5"/><linearGradient id="d" x1="27" x2="37" xlink:href="#a" y1="8" y2="8"/><g fill="#cfdefe"><path d="m17 61h-7v-37l7-6z"/><path d="m22.33 15h7v46h-7z"/><path d="m34.67 15h7v46h-7z"/><path d="m54 61h-7v-43l7 6z"/></g><circle cx="32" cy="37" fill="url(#a)" r="16"/><path d="m32 36c3.62 0 4.07-3.63 4.07-5.88a4.07 4.07 0 1 0 -8.14 0c0 2.2.9 5.88 4.07 5.88z" fill="#fff"/><path d="m41.5 40c-.68-2-4.07-2.71-5.09-3.05a1.62 1.62 0 0 1 -.35-.17l-3.89 3.52-4.17-3.56a2 2 0 0 1 -.36.17c-1 .34-4.41 1-5.09 3.05a17.18 17.18 0 0 0 -.68 4.42s1.13 5.62 10.13 5.62 10.18-5.62 10.18-5.62a17.18 17.18 0 0 0 -.68-4.38z" fill="#fff"/><path d="m3 55h57v6h-57z" fill="url(#b)"/><path d="m61 62h-58a1 1 0 0 1 -1-1v-18a1 1 0 0 1 2 0v17h56v-17a1 1 0 0 1 2 0v18a1 1 0 0 1 -1 1z" fill="#001b44"/><path d="m61 44a1 1 0 0 1 -1-1 28 28 0 0 0 -56 0 1 1 0 0 1 -2 0 30 30 0 0 1 60 0 1 1 0 0 1 -1 1z" fill="#001b44"/><path d="m9.86 62a1 1 0 0 1 -1-1v-36a1 1 0 0 1 2 0v36a1 1 0 0 1 -1 1z" fill="#001b44"/><path d="m54.14 62a1 1 0 0 1 -1-1v-36a1 1 0 0 1 2 0v36a1 1 0 0 1 -1 1z" fill="#001b44"/><path d="m37 7h9v3h-9z" fill="url(#c)"/><path d="m43 7h2v3h-2z" fill="#0366d6"/><path d="m44 6h2v5h-2z" fill="#cfdefe"/><circle cx="32" cy="8" fill="url(#d)" r="5"/><path d="m32 14a6 6 0 1 1 6-6 6 6 0 0 1 -6 6zm0-10a4 4 0 1 0 4 4 4 4 0 0 0 -4-4z" fill="#001b44"/><circle cx="19.33" cy="9.67" fill="#6ccb93" r="6.67"/><circle cx="19.33" cy="9.67" fill="#fff" r="2.67"/><path d="m19.33 17.33a7.67 7.67 0 1 1 7.67-7.66 7.67 7.67 0 0 1 -7.67 7.66zm0-13.33a5.67 5.67 0 1 0 5.67 5.67 5.67 5.67 0 0 0 -5.67-5.67z" fill="#001b44"/><path d="m0 0h64v64h-64z" fill="none"/></svg>