<svg viewBox="0 0 64 64" xmlns="http://www.w3.org/2000/svg" xmlns:xlink="http://www.w3.org/1999/xlink"><linearGradient id="a" gradientUnits="userSpaceOnUse" x1="25.79" x2="51.83" y1="16.83" y2="16.83"><stop offset="0" stop-color="#007aff"/><stop offset="1" stop-color="#0095ff"/></linearGradient><linearGradient id="b" x1="7.02" x2="41.73" xlink:href="#a" y1="13.7" y2="13.7"/><linearGradient id="c" x1="32.46" x2="62" xlink:href="#a" y1="38.74" y2="38.74"/><linearGradient id="d" x1="12.26" x2="37.84" xlink:href="#a" y1="47.13" y2="47.13"/><linearGradient id="e" x1="4.9" x2="22.08" xlink:href="#a" y1="39.75" y2="39.75"/><linearGradient id="f" x1="37.09" x2="47.97" xlink:href="#a" y1="47.74" y2="57.06"/><linearGradient id="g" x1="41.87" x2="58.97" xlink:href="#a" y1="24.71" y2="24.71"/><linearGradient id="h" x1="2" x2="31.57" xlink:href="#a" y1="25.3" y2="25.3"/><path d="m45.9 31.66c.27-1.45.65-2.86.79-4.29.54-5.3-.28-10.23-3.83-14.49a31 31 0 0 0 -5.16-5.39 21.44 21.44 0 0 0 -11.5-4.24c-.13 0-.26 0-.39-.06v-.15c1.14-.27 2.26-.63 3.42-.8a19.23 19.23 0 0 1 15 3.83 19.51 19.51 0 0 1 7.53 12.22 9.73 9.73 0 0 1 -.46 4.24 19 19 0 0 1 -5.15 8.94z" fill="url(#a)"/><path d="m41.73 22.3c-3.55-6.3-8.73-10.3-15.81-11.65s-13.35.59-18.92 5.42a18.35 18.35 0 0 1 3-4.44 19.37 19.37 0 0 1 14.76-6.54 19.85 19.85 0 0 1 11.59 3.56 4.89 4.89 0 0 1 1 .95 18.59 18.59 0 0 1 4.25 10.61c.05.7.09 1.39.13 2.09z" fill="url(#b)"/><path d="m32.46 45.58c6.79 2 13.24 1.31 19.11-2.75s8.86-9.8 9.49-16.91c.12.39.25.77.35 1.16s.19.8.27 1.2a20 20 0 0 1 -14.68 23.01 10.87 10.87 0 0 1 -5.72-.3 18.42 18.42 0 0 1 -8.82-5.41z" fill="url(#c)"/><path d="m18.2 32.26c-2 7-1.29 13.43 2.77 19.32s9.77 8.88 16.87 9.49c-.85.21-1.69.47-2.55.62a19.9 19.9 0 0 1 -22.68-14.34 11.58 11.58 0 0 1 .39-6.75 18.66 18.66 0 0 1 4.69-7.83z" fill="url(#d)"/><path d="m22.08 22.56a21.93 21.93 0 0 0 -6.25 34.38 6.66 6.66 0 0 1 -.67-.34 19.44 19.44 0 0 1 -10-14.48 19.47 19.47 0 0 1 3.25-14.29 4.27 4.27 0 0 1 .78-.83 18.44 18.44 0 0 1 10.22-4.31c.31 0 .61-.09.91-.1z" fill="url(#e)"/><path d="m56.37 48.24a19.65 19.65 0 0 1 -17.58 10.84 19.33 19.33 0 0 1 -11.07-3.4 6.07 6.07 0 0 1 -1.21-1.11 19.36 19.36 0 0 1 -4.25-12.79c3.47 6.37 8.52 10.45 15.52 11.75s13.22-.64 18.59-5.29z" fill="url(#f)"/><path d="m48.23 7.56a19.27 19.27 0 0 1 9.77 11.44 19.78 19.78 0 0 1 -2.21 17.11 9.55 9.55 0 0 1 -3.34 2.92 19 19 0 0 1 -9.82 2.8 5 5 0 0 1 -.55 0s-.07 0-.16-.07c6.24-3.42 10.29-8.51 11.57-15.56s-.69-13.2-5.26-18.64z" fill="url(#g)"/><path d="m31.57 18.45c-6.92-2-13.36-1.3-19.21 2.78s-8.83 9.84-9.43 17c-.22-.87-.49-1.73-.64-2.61a20 20 0 0 1 9.71-20.87 18.57 18.57 0 0 1 6.18-2.27 9.81 9.81 0 0 1 4.16.46 18.72 18.72 0 0 1 8.77 5c.15.15.25.28.46.51z" fill="url(#h)"/><g fill="#0366d6"><path d="m44.07 30.93c-.29-1.54-.59-3-.83-4.56a5 5 0 0 1 .12-1.37 23 23 0 0 0 -.31-8.71 20 20 0 0 1 1.02 14.64z"/><path d="m39.9 22.8c-1.37-.93-2.68-1.82-4-2.72a1.43 1.43 0 0 1 -.28-.32 21.22 21.22 0 0 0 -6.48-6.35.36.36 0 0 1 -.15-.17 19.8 19.8 0 0 1 10.91 9.56z"/><path d="m41.31 39.63 2.69-3.91a1.26 1.26 0 0 1 .35-.34 21.23 21.23 0 0 0 6.28-6.45c0-.06.06-.11.15-.11a19.54 19.54 0 0 1 -9.47 10.81z"/><path d="m22.68 24.39-2.68 3.89a1.22 1.22 0 0 1 -.34.34 21.37 21.37 0 0 0 -6.33 6.51.2.2 0 0 1 -.16.09 19.71 19.71 0 0 1 9.51-10.83z"/><path d="m24.14 41.24 3.86 2.67a1.07 1.07 0 0 1 .29.31 21.1 21.1 0 0 0 6.47 6.36.26.26 0 0 1 .07.1c-3-.28-8.66-5.27-10.69-9.44z"/><path d="m30.64 20.2c-1.49.28-3.05.66-4.63.85a11.6 11.6 0 0 1 -2.23-.27 20.7 20.7 0 0 0 -7.58.46c2.99-2.08 11.1-2.64 14.44-1.04z"/><path d="m21 47.69a19.7 19.7 0 0 1 -1-14.69c.13 1 .24 1.83.36 2.71a2.78 2.78 0 0 0 .13.65c.59 1.4.11 2.79 0 4.17a21.3 21.3 0 0 0 .48 6.94 1.15 1.15 0 0 1 .03.22z"/><path d="m47.85 42.83a19.65 19.65 0 0 1 -14.57.91l2.56-.34a2.35 2.35 0 0 0 .65-.13c1.39-.6 2.77-.05 4.15 0a34.85 34.85 0 0 0 3.54.06c1.17-.06 2.33-.33 3.67-.5z"/></g><path d="m0 0h64v64h-64z" fill="none"/></svg>