<svg viewBox="0 0 64 64" xmlns="http://www.w3.org/2000/svg" xmlns:xlink="http://www.w3.org/1999/xlink"><linearGradient id="a" gradientUnits="userSpaceOnUse" x1="10.1" x2="37.1" y1="59.7" y2="15.03"><stop offset="0" stop-color="#007aff"/><stop offset="1" stop-color="#0095ff"/></linearGradient><path d="m56 6v26a24 24 0 0 1 -9.6 19.2l-14.4 10.8-1-.75-13.4-10a24 24 0 0 1 -9.6-19.25v-26l23-3.83 1-.17z" fill="#007aff"/><path d="m20 48a20.1 20.1 0 0 1 -8-16v-22.61l20-3.33 20 3.33v22.61a20.1 20.1 0 0 1 -8 16l-12 9z" fill="url(#a)"/><path d="m46 31.5a14 14 0 0 0 -7.63 25.73l8-6a24 24 0 0 0 9.34-15.74 13.92 13.92 0 0 0 -9.71-3.99z" fill="#001b44" opacity=".38"/><path d="m29 38a2 2 0 0 1 -1.41-.59l-6-6a2 2 0 0 1 2.82-2.82l4.59 4.58 12.59-12.58a2 2 0 0 1 2.82 2.82l-14 14a2 2 0 0 1 -1.41.59z" fill="#cfdefe"/><circle cx="47" cy="43" fill="#fff" r="14"/><path d="m47 58a15 15 0 1 1 6.43-1.44l-.86-1.81a13 13 0 1 0 -5.57 1.25z" fill="#001b44"/><path d="m45.69 47-1.51-3h-1.18v3h-2v-8.54h3.29a3.92 3.92 0 0 1 1.71.35 2.73 2.73 0 0 1 1.1.93 2.32 2.32 0 0 1 .39 1.31 2.56 2.56 0 0 1 -.4 1.54 2.68 2.68 0 0 1 -1.08.88l1.79 3.45v.08zm-2.69-6.9v2.26h1.31a1.27 1.27 0 0 0 .93-.29 1.08 1.08 0 0 0 .31-.83 1.11 1.11 0 0 0 -.31-.85 1.35 1.35 0 0 0 -.93-.29z" fill="#6ccb93"/><path d="m51.81 47.12a1.86 1.86 0 0 1 -.84-.18 2.11 2.11 0 0 1 -.63-.48v3h-1.89v-8.8h1.75l.07.6a2 2 0 0 1 .65-.53 1.86 1.86 0 0 1 .87-.19 2.11 2.11 0 0 1 1.84.88 3.91 3.91 0 0 1 .63 2.32 4.94 4.94 0 0 1 -.26 1.75 2.63 2.63 0 0 1 -.82 1.2 2.12 2.12 0 0 1 -1.37.43zm.58-3.38a2.54 2.54 0 0 0 -.25-1.2.85.85 0 0 0 -.83-.48 1 1 0 0 0 -.9.39 2.18 2.18 0 0 0 -.26 1.17v.48a1.94 1.94 0 0 0 .27 1.08 1 1 0 0 0 .91.4.83.83 0 0 0 .82-.51 3.2 3.2 0 0 0 .24-1.33z" fill="#6ccb93"/><path d="m45 61a1 1 0 0 1 -.71-1.71l2.3-2.29-2.3-2.3a1 1 0 0 1 0-1.42 1 1 0 0 1 1.41 0l3 3a1 1 0 0 1 0 1.41l-3 3a1 1 0 0 1 -.7.31z" fill="#001b44"/><path d="m0 0h64v64h-64z" fill="none"/></svg>