<svg xmlns="http://www.w3.org/2000/svg" width="136" height="56" viewBox="0 0 136 56">
    <g fill="none" fill-rule="evenodd">
        <rect width="135" height="55" x=".5" y=".5" fill-rule="nonzero" stroke="#2760FF" rx="4"/>
        <path fill="#00BF38" d="M38.521 46.962c-7.435.012-13.493-6.151-13.504-13.74 0-.986.102-1.978.309-2.95l.04-.177a39204.706 39204.706 0 0 0 2.636-12.12c.984-4.594 5.374-7.929 10.462-7.937 5.093-.008 9.495 3.316 10.49 7.913.013.052.385 1.74.397 1.798l2.166 9.81c.012.058.026.116.037.174l.07.314a14.077 14.077 0 0 1 .358 3.13c.013 7.59-6.027 13.775-13.461 13.785z"/>
        <path fill="#FFF" fill-rule="nonzero" d="M38.493 27.593c-3.029 0-5.493 2.517-5.493 5.608 0 3.091 2.464 5.606 5.493 5.606 3.028 0 5.492-2.515 5.492-5.606 0-3.091-2.463-5.608-5.492-5.608zm-1.786 1.156c-.268.4-.497.89-.678 1.449h-1.216a4.734 4.734 0 0 1 1.894-1.45zm-2.401 2.246h1.51c-.12.559-.195 1.166-.218 1.807h-1.802a4.878 4.878 0 0 1 .51-1.807zm0 4.41a4.868 4.868 0 0 1-.51-1.806h1.802c.023.64.098 1.249.219 1.806h-1.511zm.507.798h1.216c.18.56.41 1.05.678 1.448a4.771 4.771 0 0 1-1.894-1.448zm3.29 1.71c-.463-.224-.916-.829-1.243-1.71h1.243v1.71zm0-2.508h-1.484a9.168 9.168 0 0 1-.239-1.806h1.723v1.806zm0-2.603H36.38c.024-.66.11-1.267.24-1.807h1.483v1.807zm0-2.604H36.86c.326-.882.78-1.488 1.242-1.712v1.712zm4.576.797c.279.55.458 1.16.51 1.807h-1.804a10.072 10.072 0 0 0-.218-1.807h1.512zm-.508-.797h-1.216c-.18-.56-.41-1.05-.679-1.45a4.725 4.725 0 0 1 1.895 1.45zm-3.287-1.712c.46.224.914.83 1.24 1.712h-1.24v-1.712zm0 2.509h1.48c.13.54.216 1.148.241 1.807h-1.721v-1.807zm0 2.604h1.721a9.192 9.192 0 0 1-.24 1.806h-1.481v-1.806zm0 4.314v-1.71h1.241c-.327.881-.78 1.486-1.241 1.71zm1.392-.262c.27-.398.499-.888.68-1.448h1.215a4.765 4.765 0 0 1-1.895 1.448zm2.403-2.246h-1.512c.122-.557.197-1.165.218-1.806h1.803a4.827 4.827 0 0 1-.509 1.806z"/>
        <path fill="#FFF" fill-rule="nonzero" d="M38.493 22.19c-2.899 0-5.533 1.177-7.473 3.082l1.384-6.312c.526-2.512 3.086-4.333 6.089-4.333 3.005 0 5.566 1.83 6.094 4.36l.427 1.95a.897.897 0 0 0 1.075.694c.484-.11.789-.6.68-1.095l-.425-1.94c-.701-3.364-4.004-5.805-7.851-5.805-3.847 0-7.146 2.434-7.846 5.776a239900.296 239900.296 0 0 1-2.69 12.288 8.966 8.966 0 0 0-.097.509l-.012.062c-.027.179-.051.359-.071.54l-.006.048a11.6 11.6 0 0 0-.045.534c0 .02-.003.04-.003.061-.01.196-.016.392-.016.591 0 6.07 4.838 11.01 10.786 11.01 5.946 0 10.786-4.94 10.786-11.01 0-6.071-4.84-11.01-10.786-11.01zm0 20.184c-4.956 0-8.988-4.115-8.988-9.174 0-.164.005-.329.013-.492 0-.016.004-.03.004-.045.008-.15.02-.303.037-.454l.002-.026a8.864 8.864 0 0 1 .153-.943c.883-4.12 4.482-7.214 8.779-7.214 4.956 0 8.987 4.116 8.987 9.174 0 5.059-4.03 9.174-8.987 9.174z"/>
        <path fill="#4D5872" d="M67.354 25.112c-1.54 0-2.772-.415-3.696-1.246l.448-.882c.485.41.982.705 1.491.882.509.177 1.099.266 1.771.266.793 0 1.405-.154 1.834-.462.43-.308.644-.742.644-1.302 0-.327-.103-.593-.308-.798a2.17 2.17 0 0 0-.812-.49 12.192 12.192 0 0 0-1.358-.378c-.765-.177-1.393-.364-1.883-.56a2.931 2.931 0 0 1-1.19-.84c-.303-.364-.455-.84-.455-1.428 0-.56.147-1.057.441-1.491.294-.434.714-.77 1.26-1.008s1.178-.357 1.897-.357a5.57 5.57 0 0 1 1.911.322 4.133 4.133 0 0 1 1.505.924l-.434.882c-.467-.401-.94-.693-1.421-.875a4.372 4.372 0 0 0-1.561-.273c-.765 0-1.365.161-1.799.483-.434.322-.651.772-.651 1.351 0 .495.191.868.574 1.12.383.252.961.467 1.736.644.85.205 1.517.394 2.002.567.485.173.889.432 1.211.777.322.345.483.807.483 1.386 0 .56-.147 1.05-.441 1.47-.294.42-.716.744-1.267.973-.55.229-1.195.343-1.932.343zm11.074-6.93V25h-1.106v-1.162a2.22 2.22 0 0 1-.903.938 2.654 2.654 0 0 1-1.309.322c-.812 0-1.423-.226-1.834-.679-.41-.453-.616-1.122-.616-2.009v-4.228h1.134v4.2c0 .607.121 1.052.364 1.337.243.285.625.427 1.148.427.597 0 1.078-.194 1.442-.581.364-.387.546-.898.546-1.533v-3.85h1.134zm5.544-.168c.597 0 1.125.15 1.582.448.457.299.812.716 1.064 1.253.252.537.378 1.16.378 1.869 0 .71-.126 1.328-.378 1.855a2.895 2.895 0 0 1-1.057 1.225c-.453.29-.982.434-1.589.434-.532 0-.996-.117-1.393-.35a2.25 2.25 0 0 1-.903-.994v3.766h-1.134v-9.338h1.134v1.176c.205-.43.506-.76.903-.994.397-.233.861-.35 1.393-.35zm-.224 6.146c.663 0 1.176-.224 1.54-.672.364-.448.546-1.083.546-1.904s-.182-1.463-.546-1.925c-.364-.462-.877-.693-1.54-.693s-1.174.224-1.533.672c-.36.448-.539 1.087-.539 1.918 0 .83.18 1.472.539 1.925.36.453.87.679 1.533.679zm8.372-6.146c.597 0 1.125.15 1.582.448.457.299.812.716 1.064 1.253.252.537.378 1.16.378 1.869 0 .71-.126 1.328-.378 1.855a2.895 2.895 0 0 1-1.057 1.225c-.453.29-.982.434-1.589.434-.532 0-.996-.117-1.393-.35a2.25 2.25 0 0 1-.903-.994v3.766H88.69v-9.338h1.134v1.176c.205-.43.506-.76.903-.994.397-.233.861-.35 1.393-.35zm-.224 6.146c.663 0 1.176-.224 1.54-.672.364-.448.546-1.083.546-1.904s-.182-1.463-.546-1.925c-.364-.462-.877-.693-1.54-.693s-1.174.224-1.533.672c-.36.448-.539 1.087-.539 1.918 0 .83.18 1.472.539 1.925.36.453.87.679 1.533.679zm7.77.938c-.644 0-1.211-.145-1.701-.434a2.892 2.892 0 0 1-1.134-1.239c-.266-.537-.399-1.16-.399-1.869 0-.71.133-1.332.399-1.869.266-.537.644-.95 1.134-1.239.49-.29 1.057-.434 1.701-.434.644 0 1.213.145 1.708.434.495.29.875.702 1.141 1.239.266.537.399 1.16.399 1.869 0 .71-.133 1.332-.399 1.869a2.88 2.88 0 0 1-1.141 1.239c-.495.29-1.064.434-1.708.434zm0-.938c.672 0 1.188-.222 1.547-.665.36-.443.539-1.09.539-1.939 0-.83-.182-1.472-.546-1.925-.364-.453-.877-.679-1.54-.679s-1.176.226-1.54.679c-.364.453-.546 1.094-.546 1.925 0 .84.18 1.484.539 1.932.36.448.875.672 1.547.672zm8.806-5.166l-.742.07c-.7.065-1.206.285-1.519.658-.313.373-.469.835-.469 1.386V25h-1.134v-6.818h1.106v1.19c.383-.793 1.134-1.237 2.254-1.33l.406-.028.098.98zm4.62 5.194c.205 0 .41-.014.616-.042l-.056.896a4.092 4.092 0 0 1-.7.056c-.821 0-1.44-.215-1.855-.644-.415-.43-.623-1.027-.623-1.792v-3.584h-1.33v-.896h1.33V16.11h1.134v2.072h1.932v.896h-1.932v3.5c0 1.073.495 1.61 1.484 1.61zM64.218 41v-9.87h1.148V41h-1.148zm3.584-9.87h3.906c1.036 0 1.841.252 2.415.756.574.504.861 1.218.861 2.142 0 .924-.29 1.643-.868 2.156-.579.513-1.381.77-2.408.77H68.95V41h-1.148v-9.87zm3.794 4.872c1.503 0 2.254-.658 2.254-1.974 0-1.297-.751-1.946-2.254-1.946H68.95v3.92h2.646zm12.488-4.872h1.176L80.948 41h-.994l-4.312-9.87h1.204l3.612 8.428 3.626-8.428zm5.824 3.668c.597 0 1.13.13 1.596.392.467.261.83.63 1.092 1.106.261.476.392 1.022.392 1.638 0 .607-.135 1.153-.406 1.638a2.88 2.88 0 0 1-1.134 1.134 3.305 3.305 0 0 1-1.638.406c-1.195 0-2.116-.415-2.765-1.246-.649-.83-.973-2.016-.973-3.556 0-1.11.152-2.063.455-2.856.303-.793.74-1.398 1.309-1.813.57-.415 1.25-.623 2.044-.623.57 0 1.125.105 1.666.315.541.21 1.017.511 1.428.903l-.434.882c-.467-.392-.912-.679-1.337-.861a3.26 3.26 0 0 0-1.295-.273c-.85 0-1.51.376-1.981 1.127-.471.751-.707 1.813-.707 3.185v.21c.215-.523.56-.938 1.036-1.246.476-.308 1.027-.462 1.652-.462zm-.154 5.348c.635 0 1.143-.2 1.526-.602.383-.401.574-.933.574-1.596 0-.653-.194-1.18-.581-1.582-.387-.401-.898-.602-1.533-.602-.644 0-1.169.203-1.575.609-.406.406-.609.931-.609 1.575 0 .653.203 1.183.609 1.589.406.406.936.609 1.589.609z"/>
    </g>
</svg>
