<svg xmlns="http://www.w3.org/2000/svg" width="136" height="56" viewBox="0 0 136 56">
    <g fill="none" fill-rule="evenodd">
        <rect width="135" height="55" x=".5" y=".5" stroke="#2760FF" rx="4"/>
        <path fill="#4D5872" d="M34.044 47v-8.46h5.352v.816h-4.38v2.94h4.14v.816h-4.14v3.072h4.38V47h-5.352zm9.78-5.988c1.4 0 2.1.772 2.1 2.316V47h-.972v-3.612c0-.544-.106-.94-.318-1.188-.212-.248-.55-.372-1.014-.372-.536 0-.964.164-1.284.492-.32.328-.48.772-.48 1.332V47h-.972v-5.844h.96v.96c.192-.36.46-.634.804-.822a2.412 2.412 0 0 1 1.176-.282zm6.444 5.292c.176 0 .352-.012.528-.036l-.048.768a3.507 3.507 0 0 1-.6.048c-.704 0-1.234-.184-1.59-.552-.356-.368-.534-.88-.534-1.536v-3.072h-1.14v-.768h1.14V39.38h.972v1.776h1.656v.768h-1.656v3c0 .92.424 1.38 1.272 1.38zm6.408-2.076h-4.272c.032.68.216 1.194.552 1.542.336.348.812.522 1.428.522.68 0 1.304-.232 1.872-.696l.324.708a2.74 2.74 0 0 1-.984.57c-.4.14-.808.21-1.224.21-.912 0-1.63-.268-2.154-.804s-.786-1.276-.786-2.22c0-.6.116-1.13.348-1.59.232-.46.558-.818.978-1.074a2.7 2.7 0 0 1 1.434-.384c.776 0 1.384.254 1.824.762.44.508.66 1.206.66 2.094v.36zm-2.472-2.46c-.512 0-.922.16-1.23.48-.308.32-.49.772-.546 1.356h3.396c-.016-.592-.164-1.046-.444-1.362-.28-.316-.672-.474-1.176-.474zm7.212.084l-.636.06c-.6.056-1.034.244-1.302.564-.268.32-.402.716-.402 1.188V47h-.972v-5.844h.948v1.02c.328-.68.972-1.06 1.932-1.14l.348-.024.084.84zm3.864-.84c.512 0 .964.128 1.356.384.392.256.696.614.912 1.074.216.46.324.994.324 1.602 0 .608-.108 1.138-.324 1.59a2.481 2.481 0 0 1-.906 1.05c-.388.248-.842.372-1.362.372-.456 0-.854-.1-1.194-.3-.34-.2-.598-.484-.774-.852v3.228h-.972v-8.004h.972v1.008c.176-.368.434-.652.774-.852.34-.2.738-.3 1.194-.3zm-.192 5.268c.568 0 1.008-.192 1.32-.576.312-.384.468-.928.468-1.632 0-.704-.156-1.254-.468-1.65-.312-.396-.752-.594-1.32-.594-.568 0-1.006.192-1.314.576-.308.384-.462.932-.462 1.644 0 .712.154 1.262.462 1.65.308.388.746.582 1.314.582zm7.548-4.428l-.636.06c-.6.056-1.034.244-1.302.564-.268.32-.402.716-.402 1.188V47h-.972v-5.844h.948v1.02c.328-.68.972-1.06 1.932-1.14l.348-.024.084.84zM73.56 47v-5.844h.972V47h-.972zm-.096-8.376h1.176v1.092h-1.176v-1.092zm4.86 8.46c-.984 0-1.764-.252-2.34-.756l.324-.72c.312.248.63.426.954.534.324.108.69.162 1.098.162.432 0 .762-.074.99-.222a.72.72 0 0 0 .342-.642.704.704 0 0 0-.228-.552c-.152-.136-.404-.244-.756-.324l-.984-.228c-.496-.112-.876-.304-1.14-.576a1.391 1.391 0 0 1-.396-1.008c0-.52.204-.94.612-1.26.408-.32.952-.48 1.632-.48.408 0 .796.066 1.164.198.368.132.676.322.924.57l-.324.708c-.536-.456-1.124-.684-1.764-.684-.408 0-.726.078-.954.234a.748.748 0 0 0-.342.654c0 .232.07.418.21.558.14.14.366.246.678.318l.996.24c.544.128.948.322 1.212.582.264.26.396.598.396 1.014 0 .512-.206.92-.618 1.224-.412.304-.974.456-1.686.456zM87 44.228h-4.272c.032.68.216 1.194.552 1.542.336.348.812.522 1.428.522.68 0 1.304-.232 1.872-.696l.324.708a2.74 2.74 0 0 1-.984.57c-.4.14-.808.21-1.224.21-.912 0-1.63-.268-2.154-.804s-.786-1.276-.786-2.22c0-.6.116-1.13.348-1.59.232-.46.558-.818.978-1.074a2.7 2.7 0 0 1 1.434-.384c.776 0 1.384.254 1.824.762.44.508.66 1.206.66 2.094v.36zm-2.472-2.46c-.512 0-.922.16-1.23.48-.308.32-.49.772-.546 1.356h3.396c-.016-.592-.164-1.046-.444-1.362-.28-.316-.672-.474-1.176-.474z"/>
        <path fill="#002D73" fill-rule="nonzero" d="M37.54 15.643v14.16c0 .132.102.244.23.256.733.062 1.547.062 2.401 0a39.574 39.574 0 0 0 2.6-.312 4.03 4.03 0 0 0-.057.703c0 .215.022.476.063.759h-8.272V15.646c.157.014.36.04.612.074.367.065.744.066.968.005l.744-.003a9.52 9.52 0 0 1 .711-.079zm9.916.774c-.441.063-.735.064-.947.004h-.744c-.263-.037-.464-.06-.615-.075v14.863h2.88V16.343a6.387 6.387 0 0 0-.574.074zm2.852-.085c.028.21.042.422.042.628 0 .271-.013.51-.038.715h.481c1.363-.175 2.507-.265 3.384-.265.14 0 .254.115.254.257v13.542h2.793V17.667c0-.142.114-.257.253-.257.639 0 1.553.06 2.718.177.294.043.607.07.933.083a2.462 2.462 0 0 1 .001-.704 1.762 1.762 0 0 1 .007-.634H50.308zm13.12 0v14.877h7.889a5.193 5.193 0 0 1-.059-.716c0-.231.018-.448.05-.647-.537.084-1.136.15-1.777.195-.747.061-1.775.09-3.057.09a.255.255 0 0 1-.253-.258v-5.75c0-.14.113-.256.253-.256h2.11c.704.041 1.27.084 1.836.125l.418.03-.041-.19-.008-1.034c0-.03.004-.058.014-.083l.017-.06c-.743.095-1.423.134-2.235.134h-2.111a.255.255 0 0 1-.253-.257v-4.865c0-.142.113-.257.253-.257 1.557 0 3.192.103 4.863.307a3.078 3.078 0 0 1 .001-1.385h-7.91zm19.766 10.306c-.06-1.839-1.447-3.47-4.13-4.837-1.987-1.043-2.952-2.057-2.952-3.096 0-1.676.963-2.596 2.786-2.663 1.24 0 2.195.677 2.841 2.016.068-.236.162-.537.285-.915.15-.401.276-.737.382-1.015-.954-.579-2.103-.901-3.418-.958-3.31.178-4.98 1.731-5.094 4.747 0 2.031 1.264 3.663 3.757 4.844 2.085.964 3.14 2.07 3.14 3.283-.132 1.704-1.129 2.596-2.965 2.663-1.816-.064-2.953-.935-3.384-2.59h-.033a17.505 17.505 0 0 1-.55 2.641c1.106.426 2.253.672 3.413.729 3.665 0 5.689-1.77 5.922-4.85zm4.825-2.141a.242.242 0 0 0-.16.067.254.254 0 0 0-.073.177v6.468h-2.9v-14.88h5.223c2.99 0 4.473 1.165 4.528 3.557.021 1.302-.33 2.339-1.044 3.079-.982 1.02-2.702 1.537-5.11 1.537-.149 0-.297-.003-.464-.005zm-.026-.75c.112.016.232.025.354.025.356 0 .767-.07 1.22-.208 1.316-.383 2.046-1.473 2.17-3.256-.124-2.01-.9-3.127-2.323-3.322h-1.386a.245.245 0 0 0-.242.247v6.271c0 .122.088.226.207.243zm18.24-7.418v14.88h7.903a5.443 5.443 0 0 1-.058-.727c0-.236.017-.457.052-.659-.544.085-1.146.153-1.79.198-.752.06-1.749.09-3.05.09a.245.245 0 0 1-.243-.246v-5.743c0-.135.109-.246.243-.246h2.34c.88.054 1.68.105 2.413.156-.013-.06-.027-.13-.045-.204l-.008-1.03c0-.028.004-.055.013-.079a2.08 2.08 0 0 1 .025-.075c-.732.088-1.537.134-2.397.134h-2.341a.244.244 0 0 1-.243-.246v-4.858c0-.136.109-.246.243-.246 1.56 0 3.198.105 4.87.31a3.041 3.041 0 0 1 .003-1.409h-7.93zm14.745 14.88h-4.811v-14.88h6.188c4.173.289 6.313 2.578 6.54 6.984-.28 4.953-2.945 7.61-7.917 7.896zm4.671-7.882c0-4.09-1.804-6.165-5.357-6.165h-1.073a.246.246 0 0 0-.241.247V30.13c0 .134.11.246.24.246h.95c1.816 0 3.201-.605 4.12-1.794.901-1.173 1.361-2.94 1.361-5.255zM96.255 16.33v14.88h7.901a5.461 5.461 0 0 1-.059-.727c0-.236.017-.457.052-.659-.546.085-1.146.153-1.788.198-.753.06-1.752.09-3.053.09a.245.245 0 0 1-.242-.246v-5.743c0-.135.11-.246.242-.246h2.342c.88.054 1.68.105 2.413.156a9.037 9.037 0 0 0-.046-.204l-.007-1.03c0-.028.004-.055.013-.079l.022-.075c-.729.088-1.533.134-2.395.134h-2.342a.245.245 0 0 1-.242-.246v-4.858c0-.136.11-.246.242-.246 1.56 0 3.199.105 4.87.31a3.132 3.132 0 0 1-.08-.682c0-.255.028-.498.082-.727h-7.925z"/>
        <path fill="#3E8EDE" d="M29.006 23.54l-7.202-7.336-3.068 3.966 3.307 3.369a.812.812 0 0 1 0 1.13l-.956.974s.645.984.675 1.043c.148.304.184 1.018-.238 1.344l-7.522 5.883c-.002 1.974-.004 6.034-.001 6.035L29.006 24.67a.812.812 0 0 0 0-1.13z"/>
        <path fill="#002D73" d="M12.278 24.462a.812.812 0 0 1 0-1.128l.958-.976-.655-.959a1.064 1.064 0 0 1 .217-1.426l7.523-5.883.005-6.032-.004-.002-.004-.006L5.317 23.334a.81.81 0 0 0 0 1.13l7.201 7.335 3.068-3.966-3.308-3.37z"/>
        <path fill="#3E8EDE" fill-rule="nonzero" d="M24.113 11.623c.142 0 .28.088.343.22.115.24-.05.454-.142.572l-6.592 8.524c-.067.086-.072.271-.01.36.035.052 3.558 5.26 3.68 5.436.173.254.156.909-.189 1.175l-10.6 8.29c-.148.116-.258.18-.413.18a.407.407 0 0 1-.324-.216c-.116-.24.058-.469.141-.578l6.59-8.52a.365.365 0 0 0 .014-.362l-3.679-5.39a.912.912 0 0 1 .185-1.221l10.601-8.29c.16-.128.274-.18.395-.18zm0-.028c-.127 0-.247.054-.412.185l-10.6 8.29a.94.94 0 0 0-.191 1.26l3.679 5.39a.338.338 0 0 1-.013.329l-6.59 8.52c-.087.114-.268.352-.145.607a.434.434 0 0 0 .347.233c.166-.002.284-.071.432-.187l10.6-8.29c.366-.282.368-.958.194-1.213l-3.68-5.436c-.055-.079-.05-.25.01-.327l6.592-8.524c.086-.112.268-.344.145-.602a.418.418 0 0 0-.368-.235z"/>
        <path fill="#FFCE00" d="M21.034 26.819c.085.131.162.63-.053.795l-10.6 8.29c-.09.07-.147.104-.173.102-.036.002-.01-.064.088-.192l6.59-8.518a.735.735 0 0 0 .024-.804L13.232 21.1s7.716 5.587 7.802 5.72z"/>
        <path fill="#FFDE6E" d="M21.034 26.819L17.41 21.51a.73.73 0 0 1 .023-.8l6.59-8.523c.099-.127.124-.19.089-.19-.026 0-.084.03-.172.102l-10.601 8.29a.534.534 0 0 0-.108.71l7.802 5.72z"/>
    </g>
</svg>
