<svg xmlns="http://www.w3.org/2000/svg" width="136" height="56" viewBox="0 0 136 56">
    <defs>
        <linearGradient id="a" x1="37.661%" x2="63.878%" y1="87.676%" y2="7.853%">
            <stop offset="0%" stop-color="#007AFF"/>
            <stop offset="100%" stop-color="#0095FF"/>
        </linearGradient>
        <linearGradient id="b" x1="88.886%" x2="16.605%" y1="51.311%" y2="48.872%">
            <stop offset="0%" stop-color="#007AFF"/>
            <stop offset="100%" stop-color="#0095FF"/>
        </linearGradient>
    </defs>
    <g fill="none" fill-rule="evenodd">
        <rect width="135" height="55" x=".5" y=".5" fill-rule="nonzero" stroke="#2760FF" rx="4"/>
        <g transform="translate(7 7)">
            <path fill="#001B44" d="M5 31.375a.625.625 0 0 1-.313-1.163l15-8.75a.625.625 0 0 1 .625 0l14.92 8.607a.627.627 0 0 1-.626 1.087L20 22.725 5.312 31.288a.562.562 0 0 1-.312.087z"/>
            <path fill="#001B44" d="M19.919 22.625a.625.625 0 0 1-.313-.081L4.687 13.93a.627.627 0 0 1 .625-1.087l14.607 8.431L34.6 12.713a.625.625 0 0 1 .856.225c.17.297.07.676-.225.85l-15 8.75a.625.625 0 0 1-.312.087z"/>
            <path fill="#001B44" d="M20 39.85a.625.625 0 0 1-.625-.625V4.775a.625.625 0 1 1 1.25 0v34.45c0 .345-.28.625-.625.625z"/>
            <path fill="url(#a)" d="M30.625 22c0 5.868-4.757 10.625-10.625 10.625a10.519 10.519 0 0 1-2.813-.375 10.625 10.625 0 0 1 0-20.5l.625-.15c.72-.151 1.453-.227 2.188-.225 5.868 0 10.625 4.757 10.625 10.625z"/>
            <path fill="url(#b)" d="M25 22a10.625 10.625 0 0 1-7.806 10.25 10.625 10.625 0 0 1 0-20.5A10.625 10.625 0 0 1 25 22z"/>
            <path fill="#0366D6" d="M25 22a5 5 0 0 1-6.031 4.894A5 5 0 0 1 20 17a5 5 0 0 1 5 5z"/>
            <path fill="#001B44" fill-rule="nonzero" d="M20 39.85a.625.625 0 0 1-.313-.081L4.77 31.156a.625.625 0 0 1-.313-.543V13.387c0-.224.119-.431.313-.543L19.687 4.23a.625.625 0 0 1 .625 0l14.92 8.613c.193.112.313.32.312.543v17.226a.625.625 0 0 1-.313.543L20.312 39.77a.625.625 0 0 1-.312.081zm-14.294-9.6L20 38.506l14.294-8.256v-16.5L20 5.494 5.706 13.75v16.5z"/>
            <circle cx="5" cy="30.75" r="1.875" fill="#6CCB93"/>
            <circle cx="5.081" cy="13.387" r="1.875" fill="#6CCB93"/>
            <circle cx="20" cy="5.125" r="1.875" fill="#6CCB93"/>
            <circle cx="20" cy="38.875" r="1.875" fill="#6CCB93"/>
            <path d="M0 2h40v40H0z"/>
            <circle cx="34.375" cy="13.25" r="1.875" fill="#6CCB93"/>
            <circle cx="34.375" cy="30.475" r="1.875" fill="#6CCB93"/>
            <text fill="#6CCB93" font-family="NunitoSans-Black, Nunito Sans" font-size="8" font-weight="700">
                <tspan x="28" y="8">+</tspan>
            </text>
            <text fill="#6CCB93" font-family="NunitoSans-Black, Nunito Sans" font-size="8" font-weight="700">
                <tspan x="0" y="22">+</tspan>
            </text>
            <path fill="#6CCB93" d="M22.88 21.85v1.19h-1.85v1.84h-1.18v-1.84H18v-1.19h1.85V20h1.18v1.85z"/>
            <path fill="#618BFF" d="M29.88 33.85v1.19h-1.85v1.84h-1.18v-1.84H25v-1.19h1.85V32h1.18v1.85z"/>
        </g>
        <path fill="#4D5872" d="M59.732 26.096c-1.32 0-2.376-.356-3.168-1.068l.384-.756c.416.352.842.604 1.278.756.436.152.942.228 1.518.228.68 0 1.204-.132 1.572-.396.368-.264.552-.636.552-1.116a.925.925 0 0 0-.264-.684 1.86 1.86 0 0 0-.696-.42 10.45 10.45 0 0 0-1.164-.324 11.345 11.345 0 0 1-1.614-.48 2.513 2.513 0 0 1-1.02-.72c-.26-.312-.39-.72-.39-1.224 0-.48.126-.906.378-1.278s.612-.66 1.08-.864c.468-.204 1.01-.306 1.626-.306.584 0 1.13.092 1.638.276.508.184.938.448 1.29.792l-.372.756a4.122 4.122 0 0 0-1.218-.75 3.748 3.748 0 0 0-1.338-.234c-.656 0-1.17.138-1.542.414-.372.276-.558.662-.558 1.158 0 .424.164.744.492.96.328.216.824.4 1.488.552.728.176 1.3.338 1.716.486.416.148.762.37 1.038.666.276.296.414.692.414 1.188 0 .48-.126.9-.378 1.26s-.614.638-1.086.834c-.472.196-1.024.294-1.656.294zm9.468-2.868h-4.272c.032.68.216 1.194.552 1.542.336.348.812.522 1.428.522.68 0 1.304-.232 1.872-.696l.324.708a2.74 2.74 0 0 1-.984.57c-.4.14-.808.21-1.224.21-.912 0-1.63-.268-2.154-.804s-.786-1.276-.786-2.22c0-.6.116-1.13.348-1.59.232-.46.558-.818.978-1.074a2.7 2.7 0 0 1 1.434-.384c.776 0 1.384.254 1.824.762.44.508.66 1.206.66 2.094v.36zm-2.472-2.46c-.512 0-.922.16-1.23.48-.308.32-.49.772-.546 1.356h3.396c-.016-.592-.164-1.046-.444-1.362-.28-.316-.672-.474-1.176-.474zm3.9 5.232v-8.46h.972V26h-.972zm4.08-5.844h1.656v.768h-1.656V26h-.972v-5.076h-1.14v-.768h1.14v-.192c0-.776.194-1.364.582-1.764.388-.4.986-.624 1.794-.672l.48-.024.072.756-.552.036c-.488.032-.844.17-1.068.414-.224.244-.336.618-.336 1.122v.324zm11.916-2.616h.972V26h-.972v-3.876H81.56V26h-.972v-8.46h.972v3.744h5.064V17.54zm7.812 5.688h-4.272c.032.68.216 1.194.552 1.542.336.348.812.522 1.428.522.68 0 1.304-.232 1.872-.696l.324.708a2.74 2.74 0 0 1-.984.57c-.4.14-.808.21-1.224.21-.912 0-1.63-.268-2.154-.804s-.786-1.276-.786-2.22c0-.6.116-1.13.348-1.59.232-.46.558-.818.978-1.074a2.7 2.7 0 0 1 1.434-.384c.776 0 1.384.254 1.824.762.44.508.66 1.206.66 2.094v.36zm-2.472-2.46c-.512 0-.922.16-1.23.48-.308.32-.49.772-.546 1.356h3.396c-.016-.592-.164-1.046-.444-1.362-.28-.316-.672-.474-1.176-.474zm6.276-.756c.744 0 1.298.19 1.662.57.364.38.546.958.546 1.734V26H99.5v-.996c-.152.344-.384.61-.696.798a2.051 2.051 0 0 1-1.08.282c-.376 0-.722-.076-1.038-.228a1.855 1.855 0 0 1-.75-.636 1.572 1.572 0 0 1-.276-.9c0-.44.112-.782.336-1.026.224-.244.592-.42 1.104-.528.512-.108 1.224-.162 2.136-.162h.264v-.396c0-.488-.1-.842-.3-1.062-.2-.22-.524-.33-.972-.33-.672 0-1.34.208-2.004.624l-.324-.708c.304-.216.67-.39 1.098-.522a4.207 4.207 0 0 1 1.242-.198zm-.384 5.304c.48 0 .874-.162 1.182-.486.308-.324.462-.742.462-1.254v-.348h-.216c-.704 0-1.24.03-1.608.09-.368.06-.63.16-.786.3-.156.14-.234.346-.234.618 0 .312.114.57.342.774.228.204.514.306.858.306zm4.368.684v-8.46h.972V26h-.972zm2.784 0v-5.844h.972V26h-.972zm-.096-8.376h1.176v1.092h-1.176v-1.092zm5.82 2.388c1.4 0 2.1.772 2.1 2.316V26h-.972v-3.612c0-.544-.106-.94-.318-1.188-.212-.248-.55-.372-1.014-.372-.536 0-.964.164-1.284.492-.32.328-.48.772-.48 1.332V26h-.972v-5.844h.96v.96c.192-.36.46-.634.804-.822a2.412 2.412 0 0 1 1.176-.282zm9.108.144v5.448c0 .872-.224 1.53-.672 1.974-.448.444-1.112.666-1.992.666-1.024 0-1.884-.264-2.58-.792l.324-.72c.392.256.76.44 1.104.552.344.112.728.168 1.152.168.56 0 .984-.15 1.272-.45.288-.3.432-.738.432-1.314v-1.032a1.83 1.83 0 0 1-.774.864c-.348.2-.758.3-1.23.3-.512 0-.966-.12-1.362-.36a2.434 2.434 0 0 1-.924-1.02c-.22-.44-.33-.948-.33-1.524 0-.576.11-1.084.33-1.524.22-.44.528-.78.924-1.02s.85-.36 1.362-.36c.464 0 .868.1 1.212.3.344.2.604.484.78.852v-1.008h.972zm-2.772 4.86c.56 0 1-.186 1.32-.558.32-.372.48-.886.48-1.542 0-.648-.158-1.158-.474-1.53-.316-.372-.758-.558-1.326-.558-.568 0-1.014.186-1.338.558-.324.372-.486.882-.486 1.53 0 .656.162 1.17.486 1.542.324.372.77.558 1.338.558zM62.9 29.54h.924V38h-.756l-5.1-6.804V38h-.924v-8.46h.756l5.1 6.804V29.54zm7.764 5.688h-4.272c.032.68.216 1.194.552 1.542.336.348.812.522 1.428.522.68 0 1.304-.232 1.872-.696l.324.708a2.74 2.74 0 0 1-.984.57c-.4.14-.808.21-1.224.21-.912 0-1.63-.268-2.154-.804s-.786-1.276-.786-2.22c0-.6.116-1.13.348-1.59.232-.46.558-.818.978-1.074a2.7 2.7 0 0 1 1.434-.384c.776 0 1.384.254 1.824.762.44.508.66 1.206.66 2.094v.36zm-2.472-2.46c-.512 0-.922.16-1.23.48-.308.32-.49.772-.546 1.356h3.396c-.016-.592-.164-1.046-.444-1.362-.28-.316-.672-.474-1.176-.474zm6.432 4.536c.176 0 .352-.012.528-.036l-.048.768a3.507 3.507 0 0 1-.6.048c-.704 0-1.234-.184-1.59-.552-.356-.368-.534-.88-.534-1.536v-3.072h-1.14v-.768h1.14V30.38h.972v1.776h1.656v.768h-1.656v3c0 .92.424 1.38 1.272 1.38zm9.516-5.148h.972L82.94 38h-.936l-1.644-4.524L78.704 38h-.924l-2.172-5.844h1.008l1.656 4.692 1.692-4.692h.84l1.668 4.692 1.668-4.692zm4.524 5.928c-.552 0-1.038-.124-1.458-.372a2.479 2.479 0 0 1-.972-1.062c-.228-.46-.342-.994-.342-1.602 0-.608.114-1.142.342-1.602.228-.46.552-.814.972-1.062.42-.248.906-.372 1.458-.372.552 0 1.04.124 1.464.372.424.248.75.602.978 1.062.228.46.342.994.342 1.602 0 .608-.114 1.142-.342 1.602-.228.46-.554.814-.978 1.062-.424.248-.912.372-1.464.372zm0-.804c.576 0 1.018-.19 1.326-.57.308-.38.462-.934.462-1.662 0-.712-.156-1.262-.468-1.65-.312-.388-.752-.582-1.32-.582-.568 0-1.008.194-1.32.582-.312.388-.468.938-.468 1.65 0 .72.154 1.272.462 1.656.308.384.75.576 1.326.576zm7.548-4.428l-.636.06c-.6.056-1.034.244-1.302.564-.268.32-.402.716-.402 1.188V38H92.9v-5.844h.948v1.02c.328-.68.972-1.06 1.932-1.14l.348-.024.084.84zM102.344 38h-1.26l-2.976-2.796V38h-.972v-8.46h.972v5.268l2.724-2.64h1.236l-2.904 2.796 3.18 3.036z"/>
    </g>
</svg>
