<?xml version="1.0" encoding="UTF-8"?>
<svg width="99px" height="104px" viewBox="0 0 99 104" version="1.1" xmlns="http://www.w3.org/2000/svg" xmlns:xlink="http://www.w3.org/1999/xlink">
    <!-- Generator: Sketch 52.3 (67297) - http://www.bohemiancoding.com/sketch -->
    <title>selfhealing</title>
    <desc>Created with Sketch.</desc>
    <defs>
        <linearGradient x1="37.6605405%" y1="87.6763783%" x2="63.8777955%" y2="7.85304438%" id="linearGradient-1">
            <stop stop-color="#007AFF" offset="0%"></stop>
            <stop stop-color="#0095FF" offset="100%"></stop>
        </linearGradient>
        <linearGradient x1="88.8859457%" y1="51.3109756%" x2="16.6046787%" y2="48.8719512%" id="linearGradient-2">
            <stop stop-color="#007AFF" offset="0%"></stop>
            <stop stop-color="#0095FF" offset="100%"></stop>
        </linearGradient>
    </defs>
    <g id="Web-Hosting-Terbaik" stroke="none" stroke-width="1" fill="none" fill-rule="evenodd">
        <g id="10-3-1-Fitur-Reliable" transform="translate(-936.000000, -3943.000000)">
            <g id="Section-10---Tab-Fitur-Hosting-Detail" transform="translate(345.000000, 3671.000000)">
                <g id="Fitur-Reliable-Hosting">
                    <g id="selfhealing" transform="translate(590.000000, 264.000000)">
                        <path d="M13.7,85.9675 C12.9319592,85.9596608 12.2630842,85.4414039 12.0636896,84.699656 C11.864295,83.9579081 12.1831605,83.1741296 12.84375,82.78225 L53.94375,58.80725 C54.4735993,58.5013413 55.1264007,58.5013413 55.65625,58.80725 L96.533625,82.388375 C97.3564602,82.8612688 97.6401438,83.9116647 97.1672499,84.7345 C96.6943561,85.5573352 95.6439602,85.8410188 94.821125,85.368125 L54.8,62.2665 L14.55625,85.72775 C14.3005848,85.8900508 14.0027721,85.9734383 13.7,85.9675 Z" id="Path" fill="#001B44"></path>
                        <path d="M54.577375,61.9925 C54.2773854,61.9945718 53.982115,61.9178015 53.721125,61.769875 L12.84375,38.171625 C12.0209148,37.6987312 11.7372313,36.6483353 12.2101251,35.8255 C12.6830189,35.0026648 13.7334148,34.7189812 14.55625,35.191875 L54.577375,58.2935 L94.804,34.83225 C95.1966911,34.6021346 95.6648341,34.5378107 96.1050374,34.6534846 C96.5452406,34.7691584 96.9212871,35.0553131 97.150125,35.44875 C97.6177781,36.2628265 97.3427939,37.3016558 96.533625,37.77775 L55.433625,61.75275 C55.1742963,61.9066637 54.8789226,61.9893683 54.577375,61.9925 Z" id="Path" fill="#001B44"></path>
                        <path d="M54.8,109.189 C53.8542124,109.189 53.0875,108.422288 53.0875,107.4765 L53.0875,13.0835 C53.0875,12.1377124 53.8542124,11.371 54.8,11.371 C55.7457876,11.371 56.5125,12.1377124 56.5125,13.0835 L56.5125,107.4765 C56.5125,108.422288 55.7457876,109.189 54.8,109.189 Z" id="Path" fill="#001B44"></path>
                        <path d="M83.9125,60.28 C83.9125,76.3583898 70.8783898,89.3925 54.8,89.3925 C52.7860311,89.3969794 50.7771393,89.1903506 48.80625,88.776 C48.2468333,88.6504167 47.676,88.5134167 47.09375,88.365 C34.4310859,84.9085514 25.6474375,73.4059323 25.6474375,60.28 C25.6474375,47.1540677 34.4310859,35.6514486 47.09375,32.195 L48.80625,31.784 C50.7771393,31.3696494 52.7860311,31.1630206 54.8,31.1675 C70.8783898,31.1675 83.9125,44.2016102 83.9125,60.28 Z" id="Path" fill="url(#linearGradient-1)"></path>
                        <path d="M68.5,60.28 C68.5070571,73.3897298 59.7508532,84.8870672 47.110875,88.365 C34.4482109,84.9085514 25.6645625,73.4059323 25.6645625,60.28 C25.6645625,47.1540677 34.4482109,35.6514486 47.110875,32.195 C59.7508532,35.6729328 68.5070571,47.1702702 68.5,60.28 Z" id="Path" fill="url(#linearGradient-2)"></path>
                        <path d="M68.5,60.28 C68.5,67.8463011 62.3663011,73.98 54.8,73.98 C53.8506875,73.9790705 52.9039343,73.8815262 51.974375,73.688875 C45.6285874,72.3593739 41.083658,66.7635633 41.083658,60.28 C41.083658,53.7964367 45.6285874,48.2006261 51.974375,46.871125 C52.9039343,46.6784738 53.8506875,46.5809295 54.8,46.58 C62.3663011,46.58 68.5,52.7136989 68.5,60.28 Z" id="Path" fill="#0366D6"></path>
                        <path d="M54.8,109.189 C54.5000104,109.191072 54.20474,109.114302 53.94375,108.966375 L13.066375,85.368125 C12.5344139,85.0610036 12.2076864,84.4924976 12.210125,83.87825 L12.210125,36.68175 C12.2076864,36.0675024 12.5344139,35.4989964 13.066375,35.191875 L53.94375,11.593625 C54.4735993,11.2877163 55.1264007,11.2877163 55.65625,11.593625 L96.533625,35.191875 C97.0655861,35.4989964 97.3923136,36.0675024 97.389875,36.68175 L97.389875,83.87825 C97.3923136,84.4924976 97.0655861,85.0610036 96.533625,85.368125 L55.65625,108.966375 C55.39526,109.114302 55.0999896,109.191072 54.8,109.189 Z M15.635125,82.885 L54.8,105.507125 L93.964875,82.885 L93.964875,37.675 L54.8,15.052875 L15.635125,37.675 L15.635125,82.885 Z" id="Shape" fill="#001B44" fill-rule="nonzero"></path>
                        <circle id="Oval" fill="#6CCB93" cx="13.7" cy="84.255" r="5.1375"></circle>
                        <circle id="Oval" fill="#6CCB93" cx="13.922625" cy="36.68175" r="5.1375"></circle>
                        <circle id="Oval" fill="#6CCB93" cx="54.8" cy="14.0425" r="5.1375"></circle>
                        <circle id="Oval" fill="#6CCB93" cx="54.8" cy="106.5175" r="5.1375"></circle>
                        <rect id="Rectangle" x="0" y="5.48" width="109.6" height="109.6"></rect>
                        <circle id="Oval" fill="#6CCB93" cx="94.1875" cy="36.305" r="5.1375"></circle>
                        <circle id="Oval" fill="#6CCB93" cx="94.1875" cy="83.5015" r="5.1375"></circle>
                        <text id="+" font-family="NunitoSans-Black, Nunito Sans" font-size="21.92" font-weight="700" fill="#6CCB93">
                            <tspan x="76.72" y="22">+</tspan>
                        </text>
                        <text id="+-copy-2" font-family="NunitoSans-Black, Nunito Sans" font-size="21.92" font-weight="700" fill="#6CCB93">
                            <tspan x="0" y="60.36">+</tspan>
                        </text>
                        <polygon id="+-copy" fill="#6CCB93" points="62.6912 59.869 62.6912 63.1296 57.6222 63.1296 57.6222 68.1712 54.389 68.1712 54.389 63.1296 49.32 63.1296 49.32 59.869 54.389 59.869 54.389 54.8 57.6222 54.8 57.6222 59.869"></polygon>
                        <polygon id="+-copy-3" fill="#618BFF" points="81.8712 92.749 81.8712 96.0096 76.8022 96.0096 76.8022 101.0512 73.569 101.0512 73.569 96.0096 68.5 96.0096 68.5 92.749 73.569 92.749 73.569 87.68 76.8022 87.68 76.8022 92.749"></polygon>
                    </g>
                </g>
            </g>
        </g>
    </g>
</svg>