<?xml version="1.0" encoding="UTF-8"?>
<svg width="214px" height="104px" viewBox="0 0 214 104" version="1.1" xmlns="http://www.w3.org/2000/svg" xmlns:xlink="http://www.w3.org/1999/xlink">
    <!-- Generator: Sketch 52.3 (67297) - http://www.bohemiancoding.com/sketch -->
    <title>SSD</title>
    <desc>Created with Sketch.</desc>
    <defs>
        <linearGradient x1="-0.0040686712%" y1="49.9920232%" x2="100.005584%" y2="49.9920232%" id="linearGradient-1">
            <stop stop-color="#007AFF" offset="0%"></stop>
            <stop stop-color="#0095FF" offset="100%"></stop>
        </linearGradient>
        <linearGradient x1="0.2%" y1="50%" x2="100.2%" y2="50%" id="linearGradient-2">
            <stop stop-color="#007AFF" offset="0%"></stop>
            <stop stop-color="#0095FF" offset="100%"></stop>
        </linearGradient>
        <linearGradient x1="0%" y1="49.8333333%" x2="100%" y2="49.8333333%" id="linearGradient-3">
            <stop stop-color="#007AFF" offset="0%"></stop>
            <stop stop-color="#0095FF" offset="100%"></stop>
        </linearGradient>
    </defs>
    <g id="Web-Hosting-Terbaik" stroke="none" stroke-width="1" fill="none" fill-rule="evenodd">
        <g id="09-3-1-Fitur-kecepatan" transform="translate(-348.000000, -4496.000000)">
            <g id="Section-10---Tab-Fitur-Hosting-Detail" transform="translate(345.000000, 3671.000000)">
                <g id="Fitur-Kecepatan">
                    <g id="SSD" transform="translate(0.000000, 808.000000)">
                        <g transform="translate(0.000000, 14.000000)">
                            <path d="M126.99,48.315 C125.099991,48.315 123.256676,48.0758357 121.46,47.5975 C119.663324,47.1191643 118.111673,46.4600042 116.805,45.62 L119.185,41.07 C121.681679,42.6100077 124.376652,43.38 127.27,43.38 C128.600007,43.38 129.614997,43.2050017 130.315,42.855 C131.015004,42.5049982 131.365,41.99167 131.365,41.315 C131.365,40.591663 130.980004,40.0258354 130.21,39.6175 C129.439996,39.2091646 128.250008,38.771669 126.64,38.305 C124.913325,37.7916641 123.501672,37.2900024 122.405,36.8 C121.308328,36.3099975 120.363337,35.5808382 119.57,34.6125 C118.776663,33.6441618 118.38,32.3900077 118.38,30.85 C118.38,29.2866588 118.817496,27.9100059 119.6925,26.72 C120.567504,25.529994 121.809992,24.6141699 123.42,23.9725 C125.030008,23.3308301 126.908323,23.01 129.055,23.01 C130.851676,23.01 132.566659,23.2549975 134.2,23.745 C135.833342,24.2350024 137.139995,24.8883292 138.12,25.705 L135.81,30.255 C134.806662,29.531663 133.692506,28.9658354 132.4675,28.5575 C131.242494,28.1491646 130.046673,27.945 128.88,27.945 C127.619994,27.945 126.622504,28.1491646 125.8875,28.5575 C125.152496,28.9658354 124.785,29.531663 124.785,30.255 C124.785,31.0016704 125.164163,31.5733313 125.9225,31.97 C126.680837,32.3666686 127.888325,32.8099975 129.545,33.3 C131.248342,33.8133359 132.642495,34.3091643 133.7275,34.7875 C134.812505,35.2658357 135.751663,35.971662 136.545,36.905 C137.338337,37.838338 137.735,39.0633257 137.735,40.58 C137.735,43.0533457 136.801676,44.9608266 134.935,46.3025 C133.068324,47.6441734 130.420017,48.315 126.99,48.315 Z M159.085,30.78 L157.72,48 L151.665,48 L151.84,46.04 C151.23333,46.7400035 150.463338,47.2883313 149.53,47.685 C148.596662,48.0816686 147.581672,48.28 146.485,48.28 C144.618324,48.28 143.195005,47.749172 142.215,46.6875 C141.234995,45.625828 140.745,44.0800101 140.745,42.05 C140.745,41.793332 140.768333,41.3850028 140.815,40.825 L141.585,30.78 L147.815,30.78 L147.045,40.475 L147.01,41 C147.01,41.8166707 147.196665,42.4408312 147.57,42.8725 C147.943335,43.3041688 148.491663,43.52 149.215,43.52 C150.078338,43.52 150.754998,43.222503 151.245,42.6275 C151.735002,42.032497 152.015,41.2333383 152.085,40.23 L152.855,30.78 L159.085,30.78 Z M173.785,30.36 C175.231674,30.36 176.509161,30.6924967 177.6175,31.3575 C178.725839,32.0225033 179.58333,32.9733271 180.19,34.21 C180.79667,35.4466728 181.1,36.9166581 181.1,38.62 C181.1,40.486676 180.755837,42.1549926 180.0675,43.625 C179.379163,45.0950073 178.41084,46.2383292 177.1625,47.055 C175.91416,47.8716707 174.473342,48.28 172.84,48.28 C170.669989,48.28 168.966673,47.5100077 167.73,45.97 L167.065,54.3 L160.835,54.3 L162.725,30.78 L168.85,30.78 L168.71,32.635 C169.270003,31.911663 169.981662,31.3516686 170.845,30.955 C171.708338,30.5583313 172.688328,30.36 173.785,30.36 Z M171.475,43.695 C172.548339,43.695 173.394164,43.2750042 174.0125,42.435 C174.630836,41.5949958 174.94,40.475007 174.94,39.075 C174.94,37.7449933 174.648336,36.7241702 174.065,36.0125 C173.481664,35.3008298 172.653339,34.945 171.58,34.945 C170.553328,34.945 169.730836,35.3649958 169.1125,36.205 C168.494164,37.0450042 168.185,38.1416599 168.185,39.495 C168.185,40.8716735 168.47083,41.9158298 169.0425,42.6275 C169.61417,43.3391702 170.424995,43.695 171.475,43.695 Z M191.985,30.36 C194.388345,30.36 196.295826,31.0833261 197.7075,32.53 C199.119174,33.9766739 199.825,36.0416532 199.825,38.725 C199.825,39.3316697 199.79,39.9499968 199.72,40.58 L189.115,40.58 C189.395001,42.6800105 190.666655,43.73 192.93,43.73 C194.586675,43.73 196.196659,43.1933387 197.76,42.12 L199.02,46.215 C198.249996,46.8683366 197.287506,47.3758315 196.1325,47.7375 C194.977494,48.0991685 193.75834,48.28 192.475,48.28 C190.631657,48.28 189.004174,47.9300035 187.5925,47.23 C186.180826,46.5299965 185.084171,45.544173 184.3025,44.2725 C183.520829,43.000827 183.13,41.5133418 183.13,39.81 C183.13,37.9899909 183.520829,36.3625072 184.3025,34.9275 C185.084171,33.4924928 186.145827,32.372504 187.4875,31.5675 C188.829173,30.762496 190.328325,30.36 191.985,30.36 Z M192.195,34.56 C191.378329,34.56 190.719169,34.7991643 190.2175,35.2775 C189.715831,35.7558357 189.371668,36.5433278 189.185,37.64 L194.75,37.64 C194.68,35.5866564 193.828342,34.56 192.195,34.56 Z M216.345,30.29 L216.275,35.435 L212.495,35.82 C211.188327,35.9600007 210.290002,36.2866641 209.8,36.8 C209.309998,37.3133359 209.006667,38.164994 208.89,39.355 L208.225,48 L201.995,48 L203.36,30.815 L209.31,30.815 L209.1,33.02 C210.406673,31.4333254 212.366654,30.5466676 214.98,30.36 L216.345,30.29 Z M136.3,54.365 L125.485,54.365 L125.135,58.915 L135.25,58.915 L134.865,63.955 L124.715,63.955 L123.91,74 L117.575,74 L119.535,49.325 L136.685,49.325 L136.3,54.365 Z M146.1,56.36 C148.573346,56.36 150.422494,56.9141611 151.6475,58.0225 C152.872506,59.1308389 153.485,60.8399884 153.485,63.15 C153.485,63.4300014 153.461667,63.8499972 153.415,64.41 L152.68,74 L146.835,74 L147.01,71.83 C146.589998,72.6000038 145.995004,73.2008312 145.225,73.6325 C144.454996,74.0641688 143.568338,74.28 142.565,74.28 C141.421661,74.28 140.395005,74.0525023 139.485,73.5975 C138.574995,73.1424977 137.857503,72.5300038 137.3325,71.76 C136.807497,70.9899961 136.545,70.1266714 136.545,69.17 C136.545,67.8399933 136.871663,66.772504 137.525,65.9675 C138.178337,65.162496 139.21666,64.5733352 140.64,64.2 C142.06334,63.8266648 143.953322,63.64 146.31,63.64 L147.57,63.64 L147.605,63.395 C147.651667,62.5316623 147.459169,61.9016686 147.0275,61.505 C146.595831,61.1083313 145.866672,60.91 144.84,60.91 C144.023329,60.91 143.113338,61.0674984 142.11,61.3825 C141.106662,61.6975016 140.173338,62.0999975 139.31,62.59 L138.05,58.495 C139.006671,57.8649968 140.231659,57.3516686 141.725,56.955 C143.218341,56.5583313 144.67666,56.36 146.1,56.36 Z M144.385,70.115 C145.178337,70.115 145.849164,69.8116697 146.3975,69.205 C146.945836,68.5983303 147.255,67.828338 147.325,66.895 L147.36,66.51 L146.415,66.51 C145.038326,66.51 144.04667,66.6616651 143.44,66.965 C142.83333,67.2683348 142.53,67.7699965 142.53,68.47 C142.53,68.9600024 142.699165,69.3566651 143.0375,69.66 C143.375835,69.9633348 143.824997,70.115 144.385,70.115 Z M163.46,74.28 C161.873325,74.28 160.415007,74.110835 159.085,73.7725 C157.754993,73.434165 156.436673,72.9150035 155.13,72.215 L157.055,67.98 C158.011671,68.5866697 159.073328,69.0708315 160.24,69.4325 C161.406673,69.7941685 162.526661,69.975 163.6,69.975 C164.323337,69.975 164.854165,69.8816676 165.1925,69.695 C165.530835,69.5083324 165.7,69.2750014 165.7,68.995 C165.7,68.6216648 165.466669,68.330001 165,68.12 C164.533331,67.9099989 163.775005,67.6533348 162.725,67.35 C161.488327,67.0233317 160.450004,66.6850017 159.61,66.335 C158.769996,65.9849982 158.040836,65.4658368 157.4225,64.7775 C156.804164,64.0891632 156.495,63.1850056 156.495,62.065 C156.495,60.9449944 156.821663,59.9533376 157.475,59.09 C158.128337,58.2266623 159.049994,57.5558357 160.24,57.0775 C161.430006,56.5991643 162.794992,56.36 164.335,56.36 C165.665007,56.36 166.977494,56.5408315 168.2725,56.9025 C169.567506,57.2641685 170.669995,57.7716634 171.58,58.425 L169.69,62.485 C168.826662,61.9016637 167.922505,61.4525016 166.9775,61.1375 C166.032495,60.8224984 165.105005,60.665 164.195,60.665 C163.44833,60.665 162.888335,60.7524991 162.515,60.9275 C162.141665,61.1025009 161.955,61.3416651 161.955,61.645 C161.955,62.0183352 162.194164,62.3216655 162.6725,62.555 C163.150836,62.7883345 163.914995,63.0449986 164.965,63.325 C166.225006,63.6750017 167.269163,64.0249982 168.0975,64.375 C168.925837,64.7250017 169.649164,65.2441632 170.2675,65.9325 C170.885836,66.6208368 171.195,67.5249944 171.195,68.645 C171.195,70.4183422 170.50084,71.8008284 169.1125,72.7925 C167.72416,73.7841716 165.840012,74.28 163.46,74.28 Z M181.45,67.035 L181.415,67.525 C181.415,69.0416742 182.243325,69.8 183.9,69.8 C184.296669,69.8 184.83333,69.7650003 185.51,69.695 L184.845,74.105 C184.121663,74.2216672 183.42167,74.28 182.745,74.28 C177.704975,74.28 175.185,72.1916875 175.185,68.015 C175.185,67.5716644 175.196667,67.2333345 175.22,67 L175.675,61.365 L172.455,61.365 L172.805,56.78 L176.025,56.78 L176.41,51.775 L182.64,51.775 L182.255,56.78 L186.385,56.78 L186.035,61.365 L181.905,61.365 L181.45,67.035 Z" id="SuperFast" fill="#0092FF"></path>
                            <g id="ic_SSD">
                                <path d="M100.426563,38.29375 L92.8125,45.85625 L87.65625,40.5796875 L33.0171875,95.15 L42.521875,104.6375 C44.6077262,106.715591 47.9813363,106.715591 50.0671875,104.6375 L104.6375,50.0671875 C106.715591,47.9813363 106.715591,44.6077262 104.6375,42.521875 L100.426563,38.29375 Z" id="Path" fill="#0366D6"></path>
                                <polygon id="Rectangle" fill="#0366D6" transform="translate(80.838683, 27.004963) rotate(-135.000000) translate(-80.838683, -27.004963) " points="61.0730581 21.8487129 100.604308 21.8487129 100.604308 32.1612129 61.0730581 32.1612129"></polygon>
                                <polygon id="Rectangle" fill="#6CCB93" transform="translate(69.912879, 16.069421) rotate(45.000000) translate(-69.912879, -16.069421) " points="69.0535044 10.9131708 70.7722544 10.9131708 70.7722544 21.2256708 69.0535044 21.2256708"></polygon>
                                <polygon id="Rectangle" fill="#6CCB93" transform="translate(72.336317, 18.506923) rotate(45.000000) translate(-72.336317, -18.506923) " points="71.4769419 13.3506733 73.1956919 13.3506733 73.1956919 23.6631733 71.4769419 23.6631733"></polygon>
                                <polygon id="Rectangle" fill="#6CCB93" transform="translate(74.759754, 20.937306) rotate(45.000000) translate(-74.759754, -20.937306) " points="73.9003794 15.7810565 75.6191294 15.7810565 75.6191294 26.0935565 73.9003794 26.0935565"></polygon>
                                <polygon id="Rectangle" fill="#6CCB93" transform="translate(77.188226, 23.362656) rotate(45.000000) translate(-77.188226, -23.362656) " points="76.328851 18.2064055 78.047601 18.2064055 78.047601 28.5189055 76.328851 28.5189055"></polygon>
                                <polygon id="Rectangle" fill="#6CCB93" transform="translate(79.623817, 25.805192) rotate(45.000000) translate(-79.623817, -25.805192) " points="78.7644419 20.6489421 80.4831919 20.6489421 80.4831919 30.9614421 78.7644419 30.9614421"></polygon>
                                <polygon id="Rectangle" fill="#6CCB93" transform="translate(82.064442, 28.218388) rotate(45.000000) translate(-82.064442, -28.218388) " points="81.2050669 23.0621378 82.9238169 23.0621378 82.9238169 33.3746378 81.2050669 33.3746378"></polygon>
                                <polygon id="Rectangle" fill="#6CCB93" transform="translate(84.487879, 30.673078) rotate(45.000000) translate(-84.487879, -30.673078) " points="83.6285044 25.5168278 85.3472544 25.5168278 85.3472544 35.8293278 83.6285044 35.8293278"></polygon>
                                <polygon id="Rectangle" fill="#6CCB93" transform="translate(86.928504, 33.086273) rotate(45.000000) translate(-86.928504, -33.086273) " points="86.0691294 27.9300235 87.7878794 27.9300235 87.7878794 38.2425235 86.0691294 38.2425235"></polygon>
                                <polygon id="Rectangle" fill="#6CCB93" transform="translate(89.351942, 35.523776) rotate(45.000000) translate(-89.351942, -35.523776) " points="88.4925669 30.3675259 90.2113169 30.3675259 90.2113169 40.6800259 88.4925669 40.6800259"></polygon>
                                <path d="M63.765625,16.775 L88.4984375,41.490625 L96.0609375,33.928125 L100.271875,38.15625 C102.349966,40.2421012 102.349966,43.6157113 100.271875,45.7015625 L45.7015625,100.271875 C43.6157113,102.349966 40.2421012,102.349966 38.15625,100.271875 L5.0015625,67.1171875 C2.92148333,65.0254513 2.92148333,61.6464237 5.0015625,59.5546875 L59.5546875,5.0015625 C61.6464237,2.92148333 65.0254513,2.92148333 67.1171875,5.0015625 L71.328125,9.2125 L63.765625,16.775 Z" id="Path" fill="url(#linearGradient-1)"></path>
                                <path d="M84.21875,54.484375 L47.7984375,90.853125 C44.6195317,87.6868643 39.4789058,87.6868643 36.3,90.853125 L14.403125,68.9734375 C17.5693857,65.7945317 17.5693857,60.6539058 14.403125,57.475 L50.7890625,21.10625 C53.9679683,24.2725107 59.1085942,24.2725107 62.2875,21.10625 L84.21875,42.96875 C81.0410595,46.1496385 81.0410595,51.3034865 84.21875,54.484375 Z" id="Path" fill="#0366D6"></path>
                                <circle id="Oval" fill="#D4E8FB" cx="10.621875" cy="63.490625" r="2.3890625"></circle>
                                <circle id="Oval" fill="#D4E8FB" cx="41.6109375" cy="94.4625" r="2.3890625"></circle>
                                <circle id="Oval" fill="#D4E8FB" cx="56.8390625" cy="17.290625" r="2.3890625"></circle>
                                <circle id="Oval" fill="#D4E8FB" cx="87.8109375" cy="48.2625" r="2.3890625"></circle>
                                <path d="M40.1328125,57.26875 L41.0265625,59.846875 C39.6625781,60.1758966 38.3961225,60.8238506 37.33125,61.7375 C36.746875,62.3046875 36.575,62.90625 37.0046875,63.3359375 C38.5171875,64.8484375 42.2640625,59.3484375 45.4265625,62.5109375 C47.1453125,64.2296875 46.5609375,66.7390625 44.6015625,68.68125 C43.1418234,70.123226 41.2424695,71.0366095 39.2046875,71.2765625 L38.3625,68.75 C40.0117134,68.6227692 41.5772674,67.9724622 42.83125,66.89375 C43.5359375,66.20625 43.7078125,65.5015625 43.209375,65.003125 C41.6625,63.45625 37.9671875,68.990625 34.8734375,65.896875 C33.2578125,64.28125 33.61875,61.875 35.715625,59.778125 C36.9271026,58.548587 38.4563691,57.6798208 40.1328125,57.26875 Z" id="Path" fill="#298EEA"></path>
                                <path d="M48.125,49.225 L49.0359375,51.803125 C47.67119,52.1347659 46.400968,52.7757576 45.3234375,53.6765625 C44.7390625,54.2609375 44.5671875,54.8625 44.996875,55.2921875 C46.509375,56.7875 50.2734375,51.3046875 53.41875,54.4671875 C55.1375,56.1859375 54.553125,58.6953125 52.59375,60.6375 C51.1385169,62.076056 49.2457583,62.989176 47.2140625,63.2328125 L46.40625,60.671875 C48.0554634,60.5446442 49.6210174,59.8943372 50.875,58.815625 C51.5796875,58.1109375 51.7515625,57.4234375 51.253125,56.925 C49.70625,55.378125 46.0109375,60.9125 42.9171875,57.81875 C41.3015625,56.203125 41.6625,53.796875 43.759375,51.7 C44.9607852,50.491187 46.4707887,49.6351221 48.125,49.225 Z" id="Path" fill="#298EEA"></path>
                                <path d="M52.3015625,43.346875 C53.4157069,42.0360666 55.0326871,41.2581766 56.7522191,41.2057718 C58.471751,41.153367 60.1331006,41.8313461 61.325,43.071875 C62.5591483,44.2908139 63.2232163,45.9729365 63.1545397,47.7062043 C63.085863,49.4394722 62.2907855,51.0637796 60.9640625,52.18125 L57.2859375,55.859375 L48.5546875,47.1109375 L52.3015625,43.346875 Z M57.7328125,51.940625 L59.33125,50.359375 C59.9599826,49.6785373 60.2871773,48.7726781 60.2386388,47.8472114 C60.1901003,46.9217446 59.7699413,46.0550823 59.0734375,45.44375 C58.4497385,44.7188924 57.5522888,44.2865942 56.5967093,44.2507192 C55.6411299,44.2148442 54.7137929,44.578635 54.0375,45.2546875 L52.5421875,46.75 L57.7328125,51.940625 Z" id="Shape" fill="#298EEA" fill-rule="nonzero"></path>
                                <polygon id="Rectangle" fill="#D4E8FB" transform="translate(23.087410, 70.674634) rotate(-45.000000) translate(-23.087410, -70.674634) " points="19.92491 69.8152585 26.24991 69.8152585 26.24991 71.5340085 19.92491 71.5340085"></polygon>
                                <polygon id="Rectangle" fill="#D4E8FB" transform="translate(25.382021, 72.977759) rotate(-45.000000) translate(-25.382021, -72.977759) " points="22.2195206 72.1183835 28.5445206 72.1183835 28.5445206 73.8371335 22.2195206 73.8371335"></polygon>
                                <polygon id="Rectangle" fill="#D4E8FB" transform="translate(27.669512, 75.263696) rotate(-45.000000) translate(-27.669512, -75.263696) " points="24.5070119 74.404321 30.8320119 74.404321 30.8320119 76.123071 24.5070119 76.123071"></polygon>
                                <polygon id="Rectangle" fill="#D4E8FB" transform="translate(29.981310, 77.566821) rotate(-45.000000) translate(-29.981310, -77.566821) " points="26.81881 76.707446 33.14381 76.707446 33.14381 78.426196 26.81881 78.426196"></polygon>
                                <polygon id="Rectangle" fill="#D4E8FB" transform="translate(32.275921, 79.869946) rotate(-45.000000) translate(-32.275921, -79.869946) " points="29.1134207 79.010571 35.4384207 79.010571 35.4384207 80.729321 29.1134207 80.729321"></polygon>
                                <polygon id="Rectangle" fill="#D4E8FB" transform="translate(34.587719, 82.173071) rotate(-45.000000) translate(-34.587719, -82.173071) " points="31.4252188 81.313696 37.7502188 81.313696 37.7502188 83.032446 31.4252188 83.032446"></polygon>
                                <polygon id="Rectangle" fill="#D4E8FB" transform="translate(36.870176, 84.446855) rotate(-45.000000) translate(-36.870176, -84.446855) " points="33.707676 83.5874801 40.032676 83.5874801 40.032676 85.3062301 33.707676 85.3062301"></polygon>
                                <polygon id="Rectangle" fill="#D4E8FB" transform="translate(62.617883, 28.837670) rotate(-45.000000) translate(-62.617883, -28.837670) " points="59.4553831 27.9782949 65.7803831 27.9782949 65.7803831 29.6970449 59.4553831 29.6970449"></polygon>
                                <polygon id="Rectangle" fill="#D4E8FB" transform="translate(64.929681, 31.140795) rotate(-45.000000) translate(-64.929681, -31.140795) " points="61.7671812 30.2814199 68.0921812 30.2814199 68.0921812 32.0001699 61.7671812 32.0001699"></polygon>
                                <polygon id="Rectangle" fill="#D4E8FB" transform="translate(67.229326, 33.456073) rotate(-45.000000) translate(-67.229326, -33.456073) " points="64.0668259 32.5966983 70.3918259 32.5966983 70.3918259 34.3154483 64.0668259 34.3154483"></polygon>
                                <polygon id="Rectangle" fill="#D4E8FB" transform="translate(69.523937, 35.742011) rotate(-45.000000) translate(-69.523937, -35.742011) " points="66.3614365 34.8826358 72.6864365 34.8826358 72.6864365 36.6013858 66.3614365 36.6013858"></polygon>
                                <polygon id="Rectangle" fill="#D4E8FB" transform="translate(71.835735, 38.045136) rotate(-45.000000) translate(-71.835735, -38.045136) " points="68.6732346 37.1857608 74.9982346 37.1857608 74.9982346 38.9045108 68.6732346 38.9045108"></polygon>
                                <polygon id="Rectangle" fill="#D4E8FB" transform="translate(74.118192, 40.336107) rotate(-45.000000) translate(-74.118192, -40.336107) " points="70.9556919 39.4767324 77.2806919 39.4767324 77.2806919 41.1954824 70.9556919 41.1954824"></polygon>
                                <polygon id="Rectangle" fill="#D4E8FB" transform="translate(76.417837, 42.651386) rotate(-45.000000) translate(-76.417837, -42.651386) " points="73.2553366 41.7920108 79.5803366 41.7920108 79.5803366 43.5107608 73.2553366 43.5107608"></polygon>
                                <polygon id="Rectangle" fill="url(#linearGradient-2)" transform="translate(50.328530, 76.422295) rotate(-45.000000) translate(-50.328530, -76.422295) " points="46.0316554 71.2660454 54.6254054 71.2660454 54.6254054 81.5785454 46.0316554 81.5785454"></polygon>
                                <polygon id="Rectangle" fill="url(#linearGradient-2)" transform="translate(58.303530, 68.443942) rotate(-45.000000) translate(-58.303530, -68.443942) " points="54.0066554 63.2876922 62.6004054 63.2876922 62.6004054 73.6001922 54.0066554 73.6001922"></polygon>
                                <polygon id="Rectangle" fill="url(#linearGradient-3)" transform="translate(66.273496, 60.477742) rotate(-45.000000) translate(-66.273496, -60.477742) " points="61.9766213 55.3214924 70.5703713 55.3214924 70.5703713 65.6339924 61.9766213 65.6339924"></polygon>
                                <polygon id="Rectangle" fill="url(#linearGradient-2)" transform="translate(28.412366, 54.508233) rotate(-45.000000) translate(-28.412366, -54.508233) " points="24.115491 49.3519829 32.709241 49.3519829 32.709241 59.6644829 24.115491 59.6644829"></polygon>
                                <polygon id="Rectangle" fill="url(#linearGradient-2)" transform="translate(36.387366, 46.529880) rotate(-45.000000) translate(-36.387366, -46.529880) " points="32.090491 41.3736297 40.684241 41.3736297 40.684241 51.6861297 32.090491 51.6861297"></polygon>
                                <polygon id="Rectangle" fill="url(#linearGradient-3)" transform="translate(44.374519, 38.563680) rotate(-45.000000) translate(-44.374519, -38.563680) " points="40.0776444 33.4074299 48.6713944 33.4074299 48.6713944 43.7199299 40.0776444 43.7199299"></polygon>
                                <path d="M18.90625,36.09375 C17.9570106,36.09375 17.1875,35.3242394 17.1875,34.375 L17.1875,21.621875 C17.1969225,19.1767509 19.1767509,17.1969225 21.621875,17.1875 L37.8125,17.1875 C38.7617394,17.1875 39.53125,17.9570106 39.53125,18.90625 C39.53125,19.8554894 38.7617394,20.625 37.8125,20.625 L21.621875,20.625 C21.0751681,20.6341903 20.6341903,21.0751681 20.625,21.621875 L20.625,34.375 C20.625,35.3242394 19.8554894,36.09375 18.90625,36.09375 Z" id="Path" fill="#001B44"></path>
                                <path d="M88.378125,92.8125 L73.90625,92.8125 C72.9570106,92.8125 72.1875,92.0429894 72.1875,91.09375 C72.1875,90.1445106 72.9570106,89.375 73.90625,89.375 L88.378125,89.375 C88.9248319,89.3658097 89.3658097,88.9248319 89.375,88.378125 L89.375,73.90625 C89.375,72.9570106 90.1445106,72.1875 91.09375,72.1875 C92.0429894,72.1875 92.8125,72.9570106 92.8125,73.90625 L92.8125,88.378125 C92.8030775,90.8232491 90.8232491,92.8030775 88.378125,92.8125 Z" id="Path" fill="#001B44"></path>
                                <circle id="Oval" fill="#6CCB93" cx="25.78125" cy="25.78125" r="3.4375"></circle>
                                <circle id="Oval" fill="#6CCB93" cx="84.21875" cy="84.21875" r="3.4375"></circle>
                                <rect id="Rectangle" x="0" y="0" width="110" height="110"></rect>
                            </g>
                        </g>
                    </g>
                </g>
            </g>
        </g>
    </g>
</svg>