<svg xmlns="http://www.w3.org/2000/svg" width="136" height="56" viewBox="0 0 136 56">
    <defs>
        <linearGradient id="a" x1="-39.292%" x2="79.458%" y1="135.378%" y2="21.2%">
            <stop offset="0%" stop-color="#007AFF"/>
            <stop offset="100%" stop-color="#0095FF"/>
        </linearGradient>
        <linearGradient id="b" x1="-3.5%" x2="51.083%" y1="195.959%" y2="69.405%">
            <stop offset="0%" stop-color="#007AFF"/>
            <stop offset="100%" stop-color="#0095FF"/>
        </linearGradient>
    </defs>
    <g fill="none" fill-rule="evenodd">
        <rect width="135" height="55" x=".5" y=".5" fill-rule="nonzero" stroke="#2760FF" rx="4"/>
        <path fill="#4D5872" d="M67.354 25.112c-1.54 0-2.772-.415-3.696-1.246l.448-.882c.485.41.982.705 1.491.882.509.177 1.099.266 1.771.266.793 0 1.405-.154 1.834-.462.43-.308.644-.742.644-1.302 0-.327-.103-.593-.308-.798a2.17 2.17 0 0 0-.812-.49 12.192 12.192 0 0 0-1.358-.378c-.765-.177-1.393-.364-1.883-.56a2.931 2.931 0 0 1-1.19-.84c-.303-.364-.455-.84-.455-1.428 0-.56.147-1.057.441-1.491.294-.434.714-.77 1.26-1.008s1.178-.357 1.897-.357a5.57 5.57 0 0 1 1.911.322 4.133 4.133 0 0 1 1.505.924l-.434.882c-.467-.401-.94-.693-1.421-.875a4.372 4.372 0 0 0-1.561-.273c-.765 0-1.365.161-1.799.483-.434.322-.651.772-.651 1.351 0 .495.191.868.574 1.12.383.252.961.467 1.736.644.85.205 1.517.394 2.002.567.485.173.889.432 1.211.777.322.345.483.807.483 1.386 0 .56-.147 1.05-.441 1.47-.294.42-.716.744-1.267.973-.55.229-1.195.343-1.932.343zm11.074-6.93V25h-1.106v-1.162a2.22 2.22 0 0 1-.903.938 2.654 2.654 0 0 1-1.309.322c-.812 0-1.423-.226-1.834-.679-.41-.453-.616-1.122-.616-2.009v-4.228h1.134v4.2c0 .607.121 1.052.364 1.337.243.285.625.427 1.148.427.597 0 1.078-.194 1.442-.581.364-.387.546-.898.546-1.533v-3.85h1.134zm5.544-.168c.597 0 1.125.15 1.582.448.457.299.812.716 1.064 1.253.252.537.378 1.16.378 1.869 0 .71-.126 1.328-.378 1.855a2.895 2.895 0 0 1-1.057 1.225c-.453.29-.982.434-1.589.434-.532 0-.996-.117-1.393-.35a2.25 2.25 0 0 1-.903-.994v3.766h-1.134v-9.338h1.134v1.176c.205-.43.506-.76.903-.994.397-.233.861-.35 1.393-.35zm-.224 6.146c.663 0 1.176-.224 1.54-.672.364-.448.546-1.083.546-1.904s-.182-1.463-.546-1.925c-.364-.462-.877-.693-1.54-.693s-1.174.224-1.533.672c-.36.448-.539 1.087-.539 1.918 0 .83.18 1.472.539 1.925.36.453.87.679 1.533.679zm8.372-6.146c.597 0 1.125.15 1.582.448.457.299.812.716 1.064 1.253.252.537.378 1.16.378 1.869 0 .71-.126 1.328-.378 1.855a2.895 2.895 0 0 1-1.057 1.225c-.453.29-.982.434-1.589.434-.532 0-.996-.117-1.393-.35a2.25 2.25 0 0 1-.903-.994v3.766H88.69v-9.338h1.134v1.176c.205-.43.506-.76.903-.994.397-.233.861-.35 1.393-.35zm-.224 6.146c.663 0 1.176-.224 1.54-.672.364-.448.546-1.083.546-1.904s-.182-1.463-.546-1.925c-.364-.462-.877-.693-1.54-.693s-1.174.224-1.533.672c-.36.448-.539 1.087-.539 1.918 0 .83.18 1.472.539 1.925.36.453.87.679 1.533.679zm7.77.938c-.644 0-1.211-.145-1.701-.434a2.892 2.892 0 0 1-1.134-1.239c-.266-.537-.399-1.16-.399-1.869 0-.71.133-1.332.399-1.869.266-.537.644-.95 1.134-1.239.49-.29 1.057-.434 1.701-.434.644 0 1.213.145 1.708.434.495.29.875.702 1.141 1.239.266.537.399 1.16.399 1.869 0 .71-.133 1.332-.399 1.869a2.88 2.88 0 0 1-1.141 1.239c-.495.29-1.064.434-1.708.434zm0-.938c.672 0 1.188-.222 1.547-.665.36-.443.539-1.09.539-1.939 0-.83-.182-1.472-.546-1.925-.364-.453-.877-.679-1.54-.679s-1.176.226-1.54.679c-.364.453-.546 1.094-.546 1.925 0 .84.18 1.484.539 1.932.36.448.875.672 1.547.672zm8.806-5.166l-.742.07c-.7.065-1.206.285-1.519.658-.313.373-.469.835-.469 1.386V25h-1.134v-6.818h1.106v1.19c.383-.793 1.134-1.237 2.254-1.33l.406-.028.098.98zm4.62 5.194c.205 0 .41-.014.616-.042l-.056.896a4.092 4.092 0 0 1-.7.056c-.821 0-1.44-.215-1.855-.644-.415-.43-.623-1.027-.623-1.792v-3.584h-1.33v-.896h1.33V16.11h1.134v2.072h1.932v.896h-1.932v3.5c0 1.073.495 1.61 1.484 1.61zM67.48 34.014c1.633 0 2.45.9 2.45 2.702V41h-1.134v-4.214c0-.635-.124-1.097-.371-1.386-.247-.29-.642-.434-1.183-.434-.625 0-1.125.191-1.498.574-.373.383-.56.9-.56 1.554V41H64.05v-6.818h1.12v1.12c.224-.42.537-.74.938-.959.401-.22.859-.329 1.372-.329zm7.35 7.084c-.644 0-1.211-.145-1.701-.434a2.892 2.892 0 0 1-1.134-1.239c-.266-.537-.399-1.16-.399-1.869 0-.71.133-1.332.399-1.869.266-.537.644-.95 1.134-1.239.49-.29 1.057-.434 1.701-.434.644 0 1.213.145 1.708.434.495.29.875.702 1.141 1.239.266.537.399 1.16.399 1.869 0 .71-.133 1.332-.399 1.869a2.88 2.88 0 0 1-1.141 1.239c-.495.29-1.064.434-1.708.434zm0-.938c.672 0 1.188-.222 1.547-.665.36-.443.539-1.09.539-1.939 0-.83-.182-1.472-.546-1.925-.364-.453-.877-.679-1.54-.679s-1.176.226-1.54.679c-.364.453-.546 1.094-.546 1.925 0 .84.18 1.484.539 1.932.36.448.875.672 1.547.672zm8.372-6.146c1.633 0 2.45.9 2.45 2.702V41h-1.134v-4.214c0-.635-.124-1.097-.371-1.386-.247-.29-.642-.434-1.183-.434-.625 0-1.125.191-1.498.574-.373.383-.56.9-.56 1.554V41h-1.134v-6.818h1.12v1.12c.224-.42.537-.74.938-.959.401-.22.859-.329 1.372-.329zm4.48 3.724V36.8h3.92v.938h-3.92zm8.344 3.36c-1.148 0-2.058-.294-2.73-.882l.378-.84c.364.29.735.497 1.113.623a4.04 4.04 0 0 0 1.281.189c.504 0 .889-.086 1.155-.259a.84.84 0 0 0 .399-.749c0-.27-.089-.485-.266-.644-.177-.159-.471-.285-.882-.378l-1.148-.266c-.579-.13-1.022-.355-1.33-.672a1.623 1.623 0 0 1-.462-1.176c0-.607.238-1.097.714-1.47s1.11-.56 1.904-.56c.476 0 .929.077 1.358.231.43.154.789.376 1.078.665l-.378.826c-.625-.532-1.311-.798-2.058-.798-.476 0-.847.091-1.113.273a.873.873 0 0 0-.399.763c0 .27.082.488.245.651.163.163.427.287.791.371l1.162.28c.635.15 1.106.376 1.414.679.308.303.462.698.462 1.183 0 .597-.24 1.073-.721 1.428-.48.355-1.136.532-1.967.532zm7.336-.91c.205 0 .41-.014.616-.042l-.056.896a4.092 4.092 0 0 1-.7.056c-.821 0-1.44-.215-1.855-.644-.415-.43-.623-1.027-.623-1.792v-3.584h-1.33v-.896h1.33V32.11h1.134v2.072h1.932v.896h-1.932v3.5c0 1.073.495 1.61 1.484 1.61zm4.592.91c-.644 0-1.211-.145-1.701-.434a2.892 2.892 0 0 1-1.134-1.239c-.266-.537-.399-1.16-.399-1.869 0-.71.133-1.332.399-1.869.266-.537.644-.95 1.134-1.239.49-.29 1.057-.434 1.701-.434.644 0 1.213.145 1.708.434.495.29.875.702 1.141 1.239.266.537.399 1.16.399 1.869 0 .71-.133 1.332-.399 1.869a2.88 2.88 0 0 1-1.141 1.239c-.495.29-1.064.434-1.708.434zm0-.938c.672 0 1.188-.222 1.547-.665.36-.443.539-1.09.539-1.939 0-.83-.182-1.472-.546-1.925-.364-.453-.877-.679-1.54-.679s-1.176.226-1.54.679c-.364.453-.546 1.094-.546 1.925 0 .84.18 1.484.539 1.932.36.448.875.672 1.547.672zm8.372-6.146c.597 0 1.125.15 1.582.448.457.299.812.716 1.064 1.253.252.537.378 1.16.378 1.869 0 .71-.126 1.328-.378 1.855a2.895 2.895 0 0 1-1.057 1.225c-.453.29-.982.434-1.589.434-.532 0-.996-.117-1.393-.35a2.25 2.25 0 0 1-.903-.994v3.766h-1.134v-9.338h1.134v1.176c.205-.43.506-.76.903-.994.397-.233.861-.35 1.393-.35zm-.224 6.146c.663 0 1.176-.224 1.54-.672.364-.448.546-1.083.546-1.904s-.182-1.463-.546-1.925c-.364-.462-.877-.693-1.54-.693s-1.174.224-1.533.672c-.36.448-.539 1.087-.539 1.918 0 .83.18 1.472.539 1.925.36.453.87.679 1.533.679z"/>
        <g transform="translate(10 6)">
            <path fill="#001B44" d="M22 27.5h-4.441A6.552 6.552 0 0 1 11 20.941v-3.753h1.375v3.753a5.19 5.19 0 0 0 5.184 5.184H22V27.5z"/>
            <path fill="url(#a)" d="M30.25 13.633c0 4.558-.914 11.921-8.25 11.921-6.414 0-8.25-7.363-8.25-11.92a8.25 8.25 0 1 1 16.5 0z"/>
            <path fill="#001B44" d="M32.484 15.125H31.11v-3.266a9.11 9.11 0 1 0-18.218 0v3.266h-1.375v-3.266C11.516 6.07 16.21 1.375 22 1.375s10.484 4.694 10.484 10.484v3.266z"/>
            <rect width="4.627" height="8.25" x="31.123" y="12.375" fill="#6CCB93" rx="1.352"/>
            <rect width="4.125" height="8.25" x="8.938" y="12.375" fill="#6CCB93" rx="1.352" transform="rotate(180 11 16.5)"/>
            <path fill="url(#b)" d="M41.25 33.688c-1.375-4.126-8.25-5.5-10.313-6.188a3.582 3.582 0 0 1-.687-.344l-7.906 7.219-8.546-7.233c-.23.149-.477.269-.736.358-2.062.688-8.937 2.063-10.312 6.188a34.485 34.485 0 0 0-1.375 8.937h41.25a34.485 34.485 0 0 0-1.375-8.938z"/>
            <path fill="#6CCB93" d="M20.625 24.75h2.063a1.375 1.375 0 0 1 0 2.75H19.25v-1.375c0-.76.616-1.375 1.375-1.375z"/>
            <path fill="#CFDEFE" d="M26.813 37.125h8.938v2.063h-8.938z"/>
            <path fill="#001B44" d="M26.813 39.188h8.938v1h-8.938z" opacity=".38"/>
            <path d="M0 0h44v44H0z"/>
        </g>
    </g>
</svg>
