<?xml version="1.0" encoding="UTF-8"?>
<svg width="73px" height="73px" viewBox="0 0 73 73" version="1.1" xmlns="http://www.w3.org/2000/svg" xmlns:xlink="http://www.w3.org/1999/xlink">
    <!-- Generator: Sketch 52.3 (67297) - http://www.bohemiancoding.com/sketch -->
    <title>WhatsApp_Logo_2-02</title>
    <desc>Created with Sketch.</desc>
    <g id="Web-Hosting-Terbaik" stroke="none" stroke-width="1" fill="none" fill-rule="evenodd">
        <g id="03--1-Dedicated-Line" transform="translate(-436.000000, -5830.000000)">
            <g id="Section-11---Support" transform="translate(248.000000, 4772.000000)">
                <g id="Tab---Detail-support" transform="translate(0.000000, 516.000000)">
                    <g id="CUstomer-Success">
                        <g id="Group-10" transform="translate(92.000000, 535.000000)">
                            <g id="WhatsApp_Logo_2-02" transform="translate(96.000000, 7.000000)">
                                <rect id="Rectangle" fill="#25D366" x="0" y="0" width="73" height="73" rx="2.26799997"></rect>
                                <path d="M55.8107812,17.109375 C46.1852099,7.51562901 30.9470979,6.52198138 20.1571562,14.7844715 C9.36721446,23.0469616 6.35350573,38.0170969 13.1057813,49.8110937 L9.25046875,63.875 L23.63375,60.0995312 C27.6116497,62.270413 32.0709443,63.407788 36.6026562,63.4073438 C47.5706004,63.4054483 57.4589396,56.8011052 61.6619567,46.6704364 C65.8649737,36.5397676 63.5561141,24.8750444 55.8107812,17.109375 Z M36.6140625,58.8220313 C32.5598362,58.8344507 28.5782351,57.7464093 25.09375,55.6739062 L24.2725,55.1948437 L15.740625,57.4760937 L18.021875,49.1495313 L17.4857812,48.3054687 C11.9982063,39.6086236 13.089403,28.3007984 20.1387115,20.8137532 C27.1880199,13.3267081 38.4096963,11.557075 47.4209809,16.5114008 C56.4322655,21.4657266 60.9504032,31.8889725 58.4055295,41.8525167 C55.8606559,51.8160608 46.8974429,58.7959201 36.6140625,58.8220313 Z M48.9784375,41.929375 C48.3054687,41.5985937 44.9748438,39.9560937 44.3475,39.7279687 C43.7201562,39.4998437 43.2753125,39.3857812 42.8304687,40.0701562 C42.385625,40.7545312 41.0625,42.2715625 40.6746875,42.7278125 C40.286875,43.1840625 39.8876562,43.2296875 39.2146875,42.8989062 C37.2124776,42.083339 35.3675374,40.9254267 33.7625,39.4770312 C32.2789153,38.105548 31.0066237,36.52191 29.9870312,34.7776562 C29.5878125,34.1046875 29.9870312,33.7282812 30.2835937,33.3975 C30.5801562,33.0667187 30.9679687,32.5990625 31.29875,32.256875 C31.580187,31.9113083 31.8106542,31.5271963 31.983125,31.11625 C32.1521507,30.749663 32.1308437,30.3235232 31.9260937,29.975625 C31.755,29.6448437 30.3976562,26.3028125 29.83875,24.9454687 C29.2798437,23.588125 28.698125,23.8048437 28.3103125,23.8048437 C27.9225,23.8048437 27.46625,23.8048437 27.01,23.8048437 C26.3149289,23.8240239 25.65865,24.1294619 25.1964062,24.6489062 C23.6394963,26.1322357 22.7784291,28.2021088 22.8239062,30.3520312 C22.8239062,33.6940625 25.2534375,36.910625 25.595625,37.366875 C25.9378125,37.823125 30.3748437,44.666875 37.1729687,47.6325 C38.444599,48.1274492 39.7431789,48.5501541 41.0625,48.8985937 C42.4433731,49.3229137 43.9046556,49.4166858 45.3284375,49.1723437 C46.6401563,48.9784375 49.3434375,47.5298437 49.8909375,45.944375 C50.3284404,44.932223 50.4631477,43.8149454 50.27875,42.7278125 C50.1076563,42.4426562 49.6628125,42.2715625 48.9784375,41.929375 Z" id="Shape" fill="#FFFFFF"></path>
                            </g>
                        </g>
                    </g>
                </g>
            </g>
        </g>
    </g>
</svg>