<?xml version="1.0" encoding="UTF-8"?>
<svg width="42px" height="42px" viewBox="0 0 42 42" version="1.1" xmlns="http://www.w3.org/2000/svg" xmlns:xlink="http://www.w3.org/1999/xlink">
    <!-- Generator: sketchtool 52.2 (67145) - http://www.bohemiancoding.com/sketch -->
    <title>210EB2F4-174D-454E-AAA5-6E69E3B393A6</title>
    <desc>Created with sketchtool.</desc>
    <g id="Web-Hosting-Terbaik" stroke="none" stroke-width="1" fill="none" fill-rule="evenodd">
        <g id="10-3-1-Fitur-Reliable" transform="translate(-560.000000, -4786.000000)" fill="#5A5A5A">
            <g id="Section-11---Support" transform="translate(248.000000, 4373.000000)">
                <g id="WhatsApp_Logo_2-02" transform="translate(305.000000, 406.000000)">
                    <path d="M42.81375,13.125 C35.4297501,5.76541404 23.7402395,5.0031638 15.4630239,11.3415124 C7.18580835,17.679861 4.8739222,29.1638004 10.05375,38.21125 L7.09625,49 L18.13,46.10375 C21.1815395,47.7690839 24.6023682,48.6415908 28.07875,48.64125 C36.4925154,48.6397959 44.0780907,43.5734505 47.3023229,35.8019786 C50.5265552,28.0305067 48.7553752,19.0822258 42.81375,13.125 Z M28.0875,45.12375 C24.9774086,45.1332773 21.9230297,44.2986153 19.25,42.70875 L18.62,42.34125 L12.075,44.09125 L13.825,37.70375 L13.41375,37.05625 C9.20410344,30.3846976 10.0411859,21.7102015 15.4488745,15.9667148 C20.8565632,10.2232281 29.4649725,8.86570138 36.3777388,12.6662801 C43.290505,16.4668588 46.7564737,24.4627734 44.8042418,32.1060402 C42.85201,39.7493069 35.9761206,45.1037195 28.0875,45.12375 Z M37.5725,32.165 C37.05625,31.91125 34.50125,30.65125 34.02,30.47625 C33.53875,30.30125 33.1975,30.21375 32.85625,30.73875 C32.515,31.26375 31.5,32.4275 31.2025,32.7775 C30.905,33.1275 30.59875,33.1625 30.0825,32.90875 C28.5465581,32.2831093 27.1312616,31.3948479 25.9,30.28375 C24.7619076,29.2316532 23.7859031,28.0168077 23.00375,26.67875 C22.6975,26.1625 23.00375,25.87375 23.23125,25.62 C23.45875,25.36625 23.75625,25.0075 24.01,24.745 C24.2258969,24.4799078 24.4026936,24.1852465 24.535,23.87 C24.6646636,23.5887826 24.6483185,23.2618808 24.49125,22.995 C24.36,22.74125 23.31875,20.1775 22.89,19.13625 C22.46125,18.095 22.015,18.26125 21.7175,18.26125 C21.42,18.26125 21.07,18.26125 20.72,18.26125 C20.1867947,18.2759636 19.683348,18.5102721 19.32875,18.90875 C18.1344081,20.0466466 17.4738634,21.6344944 17.50875,23.28375 C17.50875,25.8475 19.3725,28.315 19.635,28.665 C19.8975,29.015 23.30125,34.265 28.51625,36.54 C29.4917472,36.919687 30.4879181,37.2439538 31.5,37.51125 C32.5592999,37.8367557 33.6802838,37.9086905 34.7725,37.72125 C35.77875,37.5725 37.8525,36.46125 38.2725,35.245 C38.6081187,34.4685546 38.7114557,33.611465 38.57,32.7775 C38.43875,32.55875 38.0975,32.4275 37.5725,32.165 Z" id="Shape"></path>
                </g>
            </g>
        </g>
    </g>
</svg>