<svg xmlns="http://www.w3.org/2000/svg" width="136" height="56" viewBox="0 0 136 56">
    <defs>
        <linearGradient id="a" x1="0%" y1="50%" y2="50%">
            <stop offset="0%" stop-color="#007AFF"/>
            <stop offset="100%" stop-color="#0095FF"/>
        </linearGradient>
    </defs>
    <g fill="none" fill-rule="evenodd">
        <rect width="135" height="55" x=".5" y=".5" stroke="#2760FF" rx="4"/>
        <path fill="#4D5872" d="M65.857 18.245h.88L64.031 26h-.77l-2.211-6.347L58.839 26h-.759l-2.717-7.755h.913l2.2 6.479 2.255-6.479.682.011 2.222 6.479 2.222-6.49zm5.951 5.214h-3.916c.03.623.198 1.094.506 1.413.308.32.744.479 1.309.479.623 0 1.195-.213 1.716-.638l.297.649c-.235.22-.535.394-.902.523-.367.128-.74.192-1.122.192-.836 0-1.494-.246-1.974-.737S67 24.17 67 23.305c0-.55.106-1.036.319-1.457a2.38 2.38 0 0 1 .897-.985 2.475 2.475 0 0 1 1.314-.352c.711 0 1.269.233 1.672.698.403.466.605 1.106.605 1.92v.33zm-2.266-2.255c-.47 0-.845.147-1.127.44-.283.293-.45.708-.501 1.243h3.113c-.015-.543-.15-.959-.407-1.248-.257-.29-.616-.435-1.078-.435zm6.27-.693c.47 0 .884.114 1.243.341.36.227.638.55.836.968.198.418.297.902.297 1.452 0 .557-.099 1.047-.297 1.469-.198.421-.477.75-.836.984-.36.235-.774.352-1.243.352-.418 0-.783-.092-1.094-.275a1.768 1.768 0 0 1-.71-.781V26h-.891v-7.755h.891v3.322c.161-.337.398-.598.71-.781a2.119 2.119 0 0 1 1.094-.275zm-.176 4.829c.52 0 .924-.181 1.21-.544.286-.364.429-.871.429-1.524 0-.638-.143-1.133-.429-1.485-.286-.352-.69-.528-1.21-.528s-.922.176-1.204.528c-.283.352-.424.854-.424 1.507 0 .653.141 1.157.424 1.512.282.356.683.534 1.204.534zm5.698.737c-.902 0-1.617-.231-2.145-.693l.297-.66c.286.227.577.39.874.49.298.099.633.148 1.007.148.396 0 .698-.068.907-.203a.66.66 0 0 0 .314-.589.645.645 0 0 0-.209-.506c-.14-.125-.37-.224-.693-.297l-.902-.209c-.455-.103-.803-.279-1.045-.528a1.275 1.275 0 0 1-.363-.924c0-.477.187-.862.561-1.155.374-.293.873-.44 1.496-.44.374 0 .73.06 1.067.181.337.122.62.296.847.523l-.297.649c-.491-.418-1.03-.627-1.617-.627-.374 0-.665.071-.875.215a.686.686 0 0 0-.313.599c0 .213.064.383.192.512.129.128.336.225.622.291l.913.22c.499.117.869.295 1.111.534.242.238.363.548.363.929 0 .47-.189.843-.567 1.122-.377.279-.892.418-1.545.418zM84.799 26v-5.357h.891V26h-.891zm-.088-7.678h1.078v1.001h-1.078v-1.001zm4.994 7.04c.161 0 .323-.011.484-.033l-.044.704c-.169.03-.352.044-.55.044-.645 0-1.131-.169-1.457-.506-.327-.337-.49-.807-.49-1.408v-2.816h-1.045v-.704h1.045v-1.628h.891v1.628h1.518v.704h-1.518v2.75c0 .843.389 1.265 1.166 1.265zm5.874-1.903h-3.916c.03.623.198 1.094.506 1.413.308.32.744.479 1.309.479.623 0 1.195-.213 1.716-.638l.297.649c-.235.22-.535.394-.902.523-.367.128-.74.192-1.122.192-.836 0-1.494-.246-1.974-.737s-.721-1.17-.721-2.035c0-.55.106-1.036.319-1.457a2.38 2.38 0 0 1 .897-.985 2.475 2.475 0 0 1 1.314-.352c.711 0 1.269.233 1.672.698.403.466.605 1.106.605 1.92v.33zm-2.266-2.255c-.47 0-.845.147-1.127.44-.283.293-.45.708-.501 1.243h3.113c-.015-.543-.15-.959-.407-1.248-.257-.29-.616-.435-1.078-.435zM61.886 38l-.858-1.991H56.98L56.122 38h-.924l3.41-7.755h.781L62.799 38h-.913zm-4.587-2.739h3.41l-1.705-3.971-1.705 3.971zm8.789 2.816c-.528 0-.986-.114-1.375-.341a2.276 2.276 0 0 1-.896-.962c-.21-.415-.314-.9-.314-1.458 0-.557.108-1.047.325-1.469.216-.421.52-.75.912-.984.393-.235.853-.352 1.381-.352.36 0 .711.064 1.056.192.345.129.623.3.836.512l-.297.66c-.506-.41-1.02-.616-1.54-.616-.55 0-.979.18-1.287.539-.308.36-.462.865-.462 1.518 0 .645.154 1.144.462 1.496.308.352.737.528 1.287.528.52 0 1.034-.205 1.54-.616l.297.66a2.464 2.464 0 0 1-.858.506c-.345.125-.7.187-1.067.187zm5.269 0c-.528 0-.986-.114-1.375-.341a2.276 2.276 0 0 1-.897-.962c-.209-.415-.313-.9-.313-1.458 0-.557.108-1.047.325-1.469.216-.421.52-.75.913-.984.392-.235.852-.352 1.38-.352.36 0 .711.064 1.056.192.345.129.623.3.836.512l-.297.66c-.506-.41-1.02-.616-1.54-.616-.55 0-.979.18-1.287.539-.308.36-.462.865-.462 1.518 0 .645.154 1.144.462 1.496.308.352.737.528 1.287.528.52 0 1.034-.205 1.54-.616l.297.66a2.464 2.464 0 0 1-.858.506c-.345.125-.7.187-1.067.187zm7.491-2.618h-3.916c.03.623.198 1.094.506 1.413.308.32.744.479 1.309.479.623 0 1.195-.213 1.716-.638l.297.649c-.235.22-.535.394-.902.523-.367.128-.74.192-1.122.192-.836 0-1.494-.246-1.975-.737-.48-.491-.72-1.17-.72-2.035 0-.55.106-1.036.319-1.458a2.38 2.38 0 0 1 .897-.984 2.475 2.475 0 0 1 1.314-.352c.711 0 1.269.233 1.672.698.403.466.605 1.106.605 1.92v.33zm-2.266-2.255c-.47 0-.845.147-1.127.44-.283.293-.45.708-.501 1.243h3.113c-.015-.543-.15-.959-.407-1.248-.257-.29-.616-.435-1.078-.435zM80.157 38v-7.755h.891V38h-.891zm7.04-2.541h-3.916c.03.623.198 1.094.506 1.413.308.32.744.479 1.309.479.623 0 1.195-.213 1.716-.638l.297.649c-.235.22-.535.394-.902.523-.367.128-.74.192-1.122.192-.836 0-1.494-.246-1.974-.737s-.721-1.17-.721-2.035c0-.55.106-1.036.319-1.458a2.38 2.38 0 0 1 .897-.984 2.475 2.475 0 0 1 1.314-.352c.711 0 1.269.233 1.672.698.403.466.605 1.106.605 1.92v.33zm-2.266-2.255c-.47 0-.845.147-1.127.44-.283.293-.45.708-.501 1.243h3.113c-.015-.543-.15-.959-.407-1.248-.257-.29-.616-.435-1.078-.435zm6.611.077l-.583.055c-.55.051-.948.224-1.194.517-.245.293-.368.656-.368 1.089V38h-.891v-5.357h.869v.935c.3-.623.891-.972 1.771-1.045l.319-.022.077.77zm2.981-.77c.682 0 1.19.174 1.523.522.334.349.501.879.501 1.59V38h-.869v-.913c-.14.315-.352.56-.638.731a1.88 1.88 0 0 1-.99.259c-.345 0-.662-.07-.951-.209a1.7 1.7 0 0 1-.688-.583 1.44 1.44 0 0 1-.253-.825c0-.403.103-.717.308-.94.205-.224.543-.385 1.012-.485.47-.099 1.122-.148 1.958-.148h.242v-.363c0-.447-.092-.772-.275-.974-.183-.201-.48-.302-.891-.302-.616 0-1.228.19-1.837.572l-.297-.649a3.513 3.513 0 0 1 1.007-.478 3.856 3.856 0 0 1 1.138-.182zm-.352 4.862c.44 0 .801-.148 1.083-.445.283-.298.424-.68.424-1.15v-.319h-.198c-.645 0-1.137.027-1.474.082-.337.056-.577.147-.72.276-.144.128-.215.317-.215.566a.91.91 0 0 0 .314.71c.209.187.47.28.786.28zm6.358-.011c.161 0 .323-.011.484-.033l-.044.704c-.169.03-.352.044-.55.044-.645 0-1.131-.169-1.457-.506-.327-.337-.49-.807-.49-1.408v-2.816h-1.045v-.704h1.045v-1.628h.891v1.628h1.518v.704h-1.518v2.75c0 .843.389 1.265 1.166 1.265zm3.608.715c-.506 0-.951-.114-1.337-.341a2.272 2.272 0 0 1-.89-.973c-.21-.422-.314-.912-.314-1.469s.104-1.047.313-1.468c.21-.422.506-.747.891-.974.386-.227.831-.341 1.337-.341s.953.114 1.342.341c.389.227.687.552.897.974.209.421.313.91.313 1.468 0 .557-.104 1.047-.313 1.469a2.262 2.262 0 0 1-.897.973 2.609 2.609 0 0 1-1.342.341zm0-.737c.528 0 .933-.174 1.216-.523.282-.348.423-.856.423-1.523 0-.653-.143-1.157-.429-1.512-.286-.356-.69-.534-1.21-.534s-.924.178-1.21.534c-.286.355-.429.86-.429 1.512 0 .66.141 1.166.423 1.518.283.352.688.528 1.216.528zm6.919-4.059l-.583.055c-.55.051-.948.224-1.194.517-.245.293-.368.656-.368 1.089V38h-.891v-5.357h.869v.935c.3-.623.891-.972 1.771-1.045l.319-.022.077.77z"/>
        <g transform="translate(6 8)">
            <circle cx="20.5" cy="20.5" r="17.938" fill="#CFDEFE"/>
            <circle cx="20.5" cy="20.5" r="15.375" fill="url(#a)"/>
            <path fill="#6CCB93" d="M30.558 13.645a12.172 12.172 0 0 0-18.2-2.19 12.467 12.467 0 0 0-1.922 2.19 12.172 12.172 0 0 0-.493 12.922l3.356-3.357A7.688 7.688 0 0 1 20.5 12.812a7.688 7.688 0 0 1 7.194 10.398l3.357 3.357a12.172 12.172 0 0 0-.493-12.922z"/>
            <path fill="#001B44" d="M32.313 28.828a.64.64 0 0 1-.538-.993 13.331 13.331 0 0 0 2.178-7.335c0-7.43-6.023-13.453-13.453-13.453S7.047 13.07 7.047 20.5a13.331 13.331 0 0 0 2.178 7.335.643.643 0 0 1-1.076.705 14.734 14.734 0 1 1 24.702 0 .64.64 0 0 1-.538.288z"/>
            <path fill="#FFF" d="M21.14 22.742c1.237 0 12.493-2.242 12.493-2.242s-11.256-2.242-12.492-2.242a2.242 2.242 0 1 0 0 4.484z"/>
            <circle cx="20.5" cy="20.5" r="2.242" fill="#001B44"/>
            <circle cx="20.5" cy="20.5" r="1" fill="#CFDEFE"/>
            <path d="M0 0h41v41H0z"/>
            <path fill="#CFDEFE" d="M30.558 13.645l-3.261 3.261a7.687 7.687 0 0 0-13.594 0l-3.26-3.26a12.172 12.172 0 0 1 20.115 0z"/>
            <path fill="#0366D6" d="M13.703 16.906a7.687 7.687 0 0 0-.397 6.304l-3.357 3.357a12.172 12.172 0 0 1 .493-12.922 12.467 12.467 0 0 1 1.922-2.19c.967 1.28 1.922 2.51 2.742 3.58a7.585 7.585 0 0 0-1.403 1.871z"/>
            <path fill="#001B44" d="M16.656 39.719a.64.64 0 0 1-.64-.64v-10.25a.64.64 0 0 1 1.28 0v10.25a.64.64 0 0 1-.64.64zM20.5 34.594a.64.64 0 0 1-.64-.64v-5.126a.64.64 0 0 1 1.28 0v5.125a.64.64 0 0 1-.64.64zM24.344 39.719a.64.64 0 0 1-.64-.64v-10.25a.64.64 0 0 1 1.28 0v10.25a.64.64 0 0 1-.64.64z"/>
        </g>
    </g>
</svg>
