<?xml version="1.0" encoding="UTF-8"?>
<svg width="189px" height="102px" viewBox="0 0 189 102" version="1.1" xmlns="http://www.w3.org/2000/svg" xmlns:xlink="http://www.w3.org/1999/xlink">
    <!-- Generator: Sketch 52.3 (67297) - http://www.bohemiancoding.com/sketch -->
    <title>wp</title>
    <desc>Created with Sketch.</desc>
    <defs>
        <linearGradient x1="19.1206897%" y1="95.5172414%" x2="68.2586207%" y2="23.1034483%" id="linearGradient-1">
            <stop stop-color="#007AFF" offset="0%"></stop>
            <stop stop-color="#0095FF" offset="100%"></stop>
        </linearGradient>
    </defs>
    <g id="Web-Hosting-Terbaik" stroke="none" stroke-width="1" fill="none" fill-rule="evenodd">
        <g id="09-3-1-Fitur-kecepatan" transform="translate(-383.000000, -3731.000000)">
            <g id="Section-10---Tab-Fitur-Hosting-Detail" transform="translate(345.000000, 3671.000000)">
                <g id="Fitur-Kecepatan">
                    <g id="wordpres-accelerator" transform="translate(38.000000, 55.000000)">
                        <g id="wp">
                            <path d="M34.5,53 L30,53 C26.6862915,53 24,50.3137085 24,47 C24,43.6862915 26.6862915,41 30,41 L52,41 L82,41 C85.3137085,41 88,38.3137085 88,35 C88,31.6862915 85.3137085,29 82,29 L69,29 C65.6862915,29 63,26.3137085 63,23 C63,19.6862915 65.6862915,17 69,17 L120,17 C123.313708,17 126,19.6862915 126,23 C126,26.3137085 123.313708,29 120,29 L117,29 C120.313708,29 123,31.6862915 123,35 C123,38.3137085 120.313708,41 117,41 L120,41 C123.313708,41 126,43.6862915 126,47 C126,50.3137085 123.313708,53 120,53 L104,53 C107.313708,53 110,55.6862915 110,59 C110,62.3137085 107.313708,65 104,65 C107.313708,65 110,67.6862915 110,71 C110,74.3137085 107.313708,77 104,77 C107.313708,77 110,79.6862915 110,83 C110,86.3137085 107.313708,89 104,89 L144,89 C147.313708,89 150,91.6862915 150,95 C150,98.3137085 147.313708,101 144,101 L54,101 C50.6862915,101 48,98.3137085 48,95 C48,91.6862915 50.6862915,89 54,89 L73,89 C76.3137085,89 79,86.3137085 79,83 C79,79.6862915 76.3137085,77 73,77 L46,77 L6,77 C2.6862915,77 4.05812251e-16,74.3137085 0,71 C-4.05812251e-16,67.6862915 2.6862915,65 6,65 L39,65 L69,65 C72.3137085,65 75,62.3137085 75,59 C75,55.6862915 72.3137085,53 69,53 L34.5,53 Z M11,29 L18,29 C21.3137085,29 24,31.6862915 24,35 C24,38.3137085 21.3137085,41 18,41 L11,41 C7.6862915,41 5,38.3137085 5,35 C5,31.6862915 7.6862915,29 11,29 Z" id="Combined-Shape" fill="#007AFF" fill-rule="nonzero"></path>
                            <g id="ic_WordPress-Optimized" transform="translate(82.000000, 0.000000)">
                                <circle id="Oval" fill="url(#linearGradient-1)" cx="55" cy="55" r="49.84375"></circle>
                                <path d="M16.5171875,37.8984375 L36.815625,93.4828125 C22.0070182,86.4136029 12.6315406,71.4088178 12.7703125,55 C12.5968807,49.0783695 13.8836913,43.2050828 16.5171875,37.8984375 Z" id="Path" fill="#FFFFFF"></path>
                                <path d="M69.9015625,94.084375 C70.0747697,94.4644056 69.9149915,94.913306 69.540625,95.0984375 L69.4203125,95.0984375 C65.07977,96.4729454 60.601331,97.3663277 56.065625,97.7625 C52.673522,97.9667596 49.2691632,97.7648061 45.925,97.1609375 C45.1184213,96.9887211 44.5796718,96.2254926 44.6875,95.4078125 C44.6875,95.4078125 44.6875,95.3046875 44.6875,95.253125 L55,59.3484375 C55,59.3484375 67.340625,88.8421875 69.9015625,94.084375 Z" id="Path" fill="#FFFFFF"></path>
                                <path d="M97.2296875,55.5328125 C97.355138,69.7209715 90.2246109,82.9902341 78.3234375,90.715625 C78.146085,90.8310945 77.9298431,90.8706419 77.7231021,90.8254173 C77.5163611,90.7801927 77.336381,90.6539718 77.2234375,90.475 C77.1215848,90.2631697 77.1215848,90.0165178 77.2234375,89.8046875 L89.2546875,54.51875 C91.4285958,49.8257413 92.515485,44.7026743 92.434375,39.53125 C92.554878,38.0818643 92.3674424,36.6233809 91.884375,35.2515625 C95.3419401,41.4554605 97.1803171,48.430653 97.2296875,55.5328125 Z" id="Path" fill="#FFFFFF"></path>
                                <path d="M83.325,23.4609375 L82.7921875,23.4609375 C80.8876742,23.5367987 79.0918194,24.3681455 77.8016831,25.7711687 C76.5115468,27.174192 75.8334028,29.0333188 75.9171875,30.9375 C75.9171875,34.684375 78.0484375,37.365625 80.196875,41.0953125 C82.5391076,44.576597 83.8335312,48.6567156 83.9265625,52.8515625 C83.9265625,56.615625 82.328125,60.878125 80.7296875,66.75625 L76.45,81.1421875 L60.878125,35.2171875 C62.4967051,35.2117604 64.1100572,35.0331392 65.690625,34.684375 C66.6158709,34.4293729 67.207651,33.5267279 67.0725331,32.5765442 C66.9374152,31.6263604 66.1174667,30.9244659 65.1578125,30.9375 C65.1578125,30.9375 58.2828125,31.4703125 53.934375,31.4703125 C49.5859375,31.4703125 42.7109375,30.9375 42.7109375,30.9375 C41.7477023,30.9151125 40.9189542,31.6144408 40.7790232,32.5677207 C40.6390922,33.5210007 41.2319026,34.428998 42.1609375,34.684375 C43.5655859,35.0075245 44.9996206,35.186059 46.440625,35.2171875 L52.8515625,53.384375 L44.2578125,81.19375 L28.7890625,35.2171875 C30.4133751,35.2127238 32.0325266,35.0340986 33.61875,34.684375 C34.5319199,34.4332488 35.1226273,33.5502469 35.0062189,32.6103572 C34.8898106,31.6704675 34.101531,30.9582576 33.1546875,30.9375 C33.1546875,30.9375 26.2796875,31.4703125 21.93125,31.4703125 L19.18125,31.4703125 C25.9609954,21.0078363 37.0172779,14.0757405 49.3883003,12.5310201 C61.7593226,10.9862997 74.1807189,14.9868312 83.325,23.4609375 Z" id="Path" fill="#FFFFFF"></path>
                                <path d="M101.182812,73.7515625 C95.7648768,87.0938755 84.841229,97.4409453 71.225,102.128125 C66.1560152,96.7766772 64.3270435,89.1274644 66.4270409,82.0618709 C68.5270383,74.9962775 74.2369651,69.5877351 81.4059473,67.8735895 C88.5749294,66.159444 96.1138279,68.4001146 101.182812,73.7515625 Z" id="Path" fill="#001B44" opacity="0.38"></path>
                                <circle id="Oval" fill="#FFFFFF" cx="85.9375" cy="85.9375" r="18.90625"></circle>
                                <path d="M85.9375,106.5625 C74.546627,106.5625 65.3125,97.328373 65.3125,85.9375 C65.3125,74.546627 74.546627,65.3125 85.9375,65.3125 C97.328373,65.3125 106.5625,74.546627 106.5625,85.9375 C106.5625,97.328373 97.328373,106.5625 85.9375,106.5625 Z M85.9375,68.75 C76.4451059,68.75 68.75,76.4451059 68.75,85.9375 C68.75,95.4298941 76.4451059,103.125 85.9375,103.125 C95.4298941,103.125 103.125,95.4298941 103.125,85.9375 C103.125,76.4451059 95.4298941,68.75 85.9375,68.75 Z" id="Shape" fill="#001B44" fill-rule="nonzero"></path>
                                <path d="M78.65,93.225 L73.7859375,98.0890625 C67.0762479,91.3773463 67.0762479,80.4976537 73.7859375,73.7859375 L78.65,78.65 C74.6287661,82.6762413 74.6287661,89.1987587 78.65,93.225 Z" id="Path" fill="#CFDEFE"></path>
                                <path d="M98.0890625,98.0890625 L93.225,93.225 C97.2462339,89.1987587 97.2462339,82.6762413 93.225,78.65 L98.0890625,73.7859375 C104.798752,80.4976537 104.798752,91.3773463 98.0890625,98.0890625 Z" id="Path" fill="#6CCB93"></path>
                                <path d="M101.40625,85.9375 C101.40625,85.9375 89.271875,90.303125 86.865625,90.303125 C84.4545569,90.303125 82.5,88.3485681 82.5,85.9375 C82.5,83.5264319 84.4545569,81.571875 86.865625,81.571875 C89.271875,81.571875 101.40625,85.9375 101.40625,85.9375 Z" id="Path" fill="#001B44"></path>
                                <circle id="Oval" fill="#FFFFFF" cx="85.9375" cy="85.9375" r="1.71875"></circle>
                                <path d="M98.0890625,73.7859375 L93.225,78.65 C89.1987587,74.6287661 82.6762413,74.6287661 78.65,78.65 L73.7859375,73.7859375 C80.4976537,67.0762479 91.3773463,67.0762479 98.0890625,73.7859375 Z" id="Path" fill="#4580F4"></path>
                                <rect id="Rectangle" x="0" y="0" width="110" height="110"></rect>
                            </g>
                        </g>
                    </g>
                </g>
            </g>
        </g>
    </g>
</svg>