<svg width="64" height="64" viewBox="0 0 64 64" fill="none" xmlns="http://www.w3.org/2000/svg">
<g clip-path="url(#clip0)">
<path d="M36.1099 45.25V57.54" stroke="#00BFA5" stroke-width="2" stroke-linecap="round" stroke-linejoin="round"/>
<path d="M27.8899 57.6899V45.1699" stroke="#00BFA5" stroke-width="2" stroke-linecap="round" stroke-linejoin="round"/>
<path d="M43.3999 42.4302V63.1702L32.0299 54.6102L20.5999 63.1702V42.4602" stroke="#007AFF" stroke-width="2" stroke-linejoin="round"/>
<path d="M31.9999 45.5501C44.349 45.5501 54.3599 35.5392 54.3599 23.1901C54.3599 10.841 44.349 0.830078 31.9999 0.830078C19.6508 0.830078 9.63989 10.841 9.63989 23.1901C9.63989 35.5392 19.6508 45.5501 31.9999 45.5501Z" stroke="#007AFF" stroke-width="2" stroke-linejoin="round"/>
<path d="M31.9999 40.0398C41.3059 40.0398 48.8499 32.4958 48.8499 23.1898C48.8499 13.8838 41.3059 6.33984 31.9999 6.33984C22.6939 6.33984 15.1499 13.8838 15.1499 23.1898C15.1499 32.4958 22.6939 40.0398 31.9999 40.0398Z" stroke="#00BFA5" stroke-width="2" stroke-linecap="round" stroke-linejoin="round"/>
<path d="M33 13.9999L35.28 18.6199C35.36 18.7849 35.4794 18.9278 35.6276 19.0359C35.7759 19.144 35.9484 19.214 36.13 19.2399L41.23 19.9799C41.4585 19.9943 41.6774 20.0773 41.8582 20.2179C42.0389 20.3586 42.1731 20.5504 42.2432 20.7684C42.3134 20.9864 42.3162 21.2205 42.2515 21.4401C42.1867 21.6598 42.0572 21.8548 41.88 21.9999L38.19 25.5899C38.0593 25.7182 37.9612 25.8759 37.9038 26.0499C37.8464 26.2238 37.8314 26.409 37.86 26.5899L38.74 31.6699C38.7728 31.8781 38.7473 32.0913 38.6662 32.2859C38.5851 32.4804 38.4517 32.6487 38.2807 32.772C38.1098 32.8953 37.908 32.9688 37.6978 32.9843C37.4876 32.9998 37.2772 32.9567 37.09 32.8599L32.53 30.4699C32.3673 30.3815 32.1851 30.3352 32 30.3352C31.8148 30.3352 31.6326 30.3815 31.47 30.4699L26.91 32.8599C26.7228 32.9567 26.5124 32.9998 26.3022 32.9843C26.092 32.9688 25.8902 32.8953 25.7192 32.772C25.5483 32.6487 25.4148 32.4804 25.3338 32.2859C25.2527 32.0913 25.2272 31.8781 25.26 31.6699L26.14 26.5899C26.1686 26.409 26.1536 26.2238 26.0962 26.0499C26.0388 25.8759 25.9406 25.7182 25.81 25.5899L22.12 21.9999C21.9504 21.8545 21.8272 21.6625 21.7658 21.4477C21.7044 21.233 21.7075 21.0049 21.7746 20.7919C21.8417 20.5788 21.9699 20.3902 22.1433 20.2494C22.3167 20.1086 22.5277 20.0218 22.75 19.9999L27.85 19.2599C28.0316 19.234 28.2041 19.164 28.3523 19.0559C28.5005 18.9478 28.6199 18.8049 28.7 18.6399L31 13.9999C31.0982 13.8205 31.2428 13.6708 31.4188 13.5665C31.5947 13.4622 31.7955 13.4072 32 13.4072C32.2045 13.4072 32.4052 13.4622 32.5812 13.5665C32.7571 13.6708 32.9018 13.8205 33 13.9999Z" stroke="#007AFF" stroke-width="2" stroke-linejoin="round"/>
</g>
<defs>
<clipPath id="clip0">
<rect width="64" height="64" fill="white"/>
</clipPath>
</defs>
</svg>
