<svg width="64" height="64" viewBox="0 0 64 64" fill="none" xmlns="http://www.w3.org/2000/svg">
<path d="M19.55 25.4299V18.4299C19.55 15.3179 20.7835 12.3327 22.9803 10.1285C25.1771 7.92417 28.158 6.68051 31.2701 6.66992V6.66992C34.3769 6.67783 37.3543 7.91483 39.5521 10.1108C41.7499 12.3067 42.9895 15.2831 43 18.3899V25.5099" stroke="#00BFA5" stroke-width="2" stroke-linecap="round" stroke-linejoin="round"/>
<path d="M14.3799 25.36V17.9C14.4061 13.4277 16.1937 9.1458 19.3552 5.98239C22.5168 2.81898 26.7976 1.02886 31.2699 1V1C35.7439 1.02624 40.0273 2.8152 43.191 5.97889C46.3547 9.14259 48.1436 13.4259 48.1699 17.9V25.28" stroke="#00BFA5" stroke-width="2" stroke-linecap="round" stroke-linejoin="round"/>
<path d="M55.16 62.9101H8.83997C8.38346 62.8718 7.96046 62.655 7.66279 62.3068C7.36511 61.9586 7.21678 61.507 7.24997 61.0501V27.4901C7.21667 27.0321 7.36471 26.5794 7.66215 26.2296C7.95959 25.8798 8.38261 25.6609 8.83997 25.6201H55.16C55.6173 25.6609 56.0404 25.8798 56.3378 26.2296C56.6352 26.5794 56.7833 27.0321 56.75 27.4901V61.0501C56.7832 61.507 56.6348 61.9586 56.3372 62.3068C56.0395 62.655 55.6165 62.8718 55.16 62.9101V62.9101Z" stroke="#007AFF" stroke-width="2" stroke-linejoin="round"/>
<path d="M32 45.3897C33.922 45.3897 35.48 43.8316 35.48 41.9097C35.48 39.9877 33.922 38.4297 32 38.4297C30.0781 38.4297 28.52 39.9877 28.52 41.9097C28.52 43.8316 30.0781 45.3897 32 45.3897Z" stroke="#00BFA5" stroke-width="2" stroke-linecap="round" stroke-linejoin="round"/>
<path d="M25.65 53.2299C25.5574 52.7791 25.5105 52.3201 25.51 51.8599C25.51 50.136 26.1948 48.4827 27.4138 47.2637C28.6328 46.0447 30.2861 45.3599 32.01 45.3599C33.7339 45.3599 35.3872 46.0447 36.6062 47.2637C37.8252 48.4827 38.51 50.136 38.51 51.8599C38.509 52.2656 38.4722 52.6706 38.4 53.0699" stroke="#00BFA5" stroke-width="2" stroke-linecap="round" stroke-linejoin="round"/>
<path d="M32 55.2798C38.0806 55.2798 43.01 50.3504 43.01 44.2698C43.01 38.1891 38.0806 33.2598 32 33.2598C25.9193 33.2598 20.99 38.1891 20.99 44.2698C20.99 50.3504 25.9193 55.2798 32 55.2798Z" stroke="#00BFA5" stroke-width="2" stroke-linecap="round" stroke-linejoin="round"/>
</svg>
