<svg id="abe4fb3c-8be4-4985-ba03-04ede1322658" data-name="Layer 1" xmlns="http://www.w3.org/2000/svg" width="170" height="110" viewBox="0 0 170 110">
  <defs>
    <style>
      .a34ad940-53d3-4d0c-9857-5566466c5851 {
        fill: #c4c4c4;
      }
    </style>
  </defs>
  <title>client logo</title>
  <g>
    <path class="a34ad940-53d3-4d0c-9857-5566466c5851" d="M68,70h.43c.75,0,1.12-.21,1.12-.62V62.26a3.32,3.32,0,0,1,.89-.94,2,2,0,0,1,1.16-.38,1.4,1.4,0,0,1,1.6,1.57v6.91c0,.41.38.62,1.13.62h.41a1.86,1.86,0,0,0,.86-.15.5.5,0,0,0,.27-.47V62.15c0-2.3-1.09-3.45-3.24-3.45a3.88,3.88,0,0,0-1.81.45,4.29,4.29,0,0,0-1.29,1v-.84c0-.41-.37-.61-1.13-.61H68a2.05,2.05,0,0,0-.87.14.51.51,0,0,0-.26.47V69.42C66.88,69.83,67.26,70,68,70Z"/>
    <path class="a34ad940-53d3-4d0c-9857-5566466c5851" d="M78.54,61h.58v5.88a3.3,3.3,0,0,0,.82,2.48,3,3,0,0,0,2.18.79c1.25,0,1.88-.3,1.88-.9a3.17,3.17,0,0,0-.17-.8c-.12-.36-.26-.54-.43-.54a1.37,1.37,0,0,0-.3,0,1.75,1.75,0,0,1-.4,0,.88.88,0,0,1-.68-.25,1.4,1.4,0,0,1-.22-.9V61h1.3a.49.49,0,0,0,.44-.21,1.38,1.38,0,0,0,.14-.71v-.32a1.34,1.34,0,0,0-.14-.7.49.49,0,0,0-.44-.21H81.8V56.76c0-.42-.3-.62-.92-.62h-.51c-.58,0-.91.2-1,.62l0,2.09h-.82a.49.49,0,0,0-.44.21,1.34,1.34,0,0,0-.14.7v.32a1.38,1.38,0,0,0,.14.71A.49.49,0,0,0,78.54,61Z"/>
    <path class="a34ad940-53d3-4d0c-9857-5566466c5851" d="M90.65,70.15a4.76,4.76,0,0,0,3.76-1.46,6.27,6.27,0,0,0,1.29-4.26,6.27,6.27,0,0,0-1.29-4.26,4.73,4.73,0,0,0-3.76-1.47,4.82,4.82,0,0,0-3.8,1.47,6.27,6.27,0,0,0-1.3,4.26,6.22,6.22,0,0,0,1.3,4.24A4.79,4.79,0,0,0,90.65,70.15Zm-1.79-8.41a2,2,0,0,1,1.77-.89,1.93,1.93,0,0,1,1.75.89A5,5,0,0,1,93,64.41a5.07,5.07,0,0,1-.57,2.7,1.92,1.92,0,0,1-1.75.88,2,2,0,0,1-1.77-.88,5,5,0,0,1-.58-2.7A4.88,4.88,0,0,1,88.86,61.74Z"/>
    <path class="a34ad940-53d3-4d0c-9857-5566466c5851" d="M99.31,70h.4a1.88,1.88,0,0,0,.87-.15.51.51,0,0,0,.26-.47V65h0V54.54c0-.4-.37-.6-1.13-.6h-.4c-.76,0-1.13.2-1.13.6V65h0v4.42C98.17,69.83,98.55,70,99.31,70Z"/>
    <path class="a34ad940-53d3-4d0c-9857-5566466c5851" d="M109.11,70.15a4.78,4.78,0,0,0,3.77-1.46,6.32,6.32,0,0,0,1.29-4.26,6.32,6.32,0,0,0-1.29-4.26,5.59,5.59,0,0,0-7.56,0,6.22,6.22,0,0,0-1.3,4.26,6.17,6.17,0,0,0,1.3,4.24A4.76,4.76,0,0,0,109.11,70.15Zm-1.79-8.41a2.2,2.2,0,0,1,3.53,0,5,5,0,0,1,.57,2.67,5.07,5.07,0,0,1-.57,2.7,2.21,2.21,0,0,1-3.53,0,5.07,5.07,0,0,1-.57-2.7A5,5,0,0,1,107.32,61.74Z"/>
    <path class="a34ad940-53d3-4d0c-9857-5566466c5851" d="M120.67,74.52a7,7,0,0,0,3.87-.94A2.92,2.92,0,0,0,126,71a2.31,2.31,0,0,0-.89-2,5.77,5.77,0,0,0-2.4-.89l-1-.15a9,9,0,0,1-1.72-.34.7.7,0,0,1-.56-.68q0-.9,1.56-.9a4.79,4.79,0,0,0,3.13-1,3.35,3.35,0,0,0,1.17-2.74,2.55,2.55,0,0,0-.12-.75,2.06,2.06,0,0,0-.3-.65l0-.07A6.19,6.19,0,0,0,126,61a.4.4,0,0,0,.37-.2,1.45,1.45,0,0,0,.12-.68v-.32a1.34,1.34,0,0,0-.14-.7.49.49,0,0,0-.44-.21h-3.58a6.83,6.83,0,0,0-1.51-.15,5.09,5.09,0,0,0-3.23.94,3.22,3.22,0,0,0-1.21,2.72,3.71,3.71,0,0,0,.46,1.88,3.33,3.33,0,0,0,1.29,1.26,2.15,2.15,0,0,0-1.24,1.92,2,2,0,0,0,.24,1,1.61,1.61,0,0,0,.66.66l0,.08a3.35,3.35,0,0,0-1.43,1,2.38,2.38,0,0,0-.51,1.52Q115.83,74.51,120.67,74.52ZM119.43,61.1a2.53,2.53,0,0,1,2.79,0,1.8,1.8,0,0,1,0,2.57,2.65,2.65,0,0,1-2.8,0,1.84,1.84,0,0,1,0-2.57Zm-.71,9.34a2.25,2.25,0,0,1,.9-.57c.4.06.7.09.9.11a11.33,11.33,0,0,1,2.17.39.81.81,0,0,1,.66.78,1,1,0,0,1-.62.92,4.14,4.14,0,0,1-1.83.32,5,5,0,0,1-1.85-.28.93.93,0,0,1-.67-.88A1.13,1.13,0,0,1,118.72,70.44Z"/>
    <path class="a34ad940-53d3-4d0c-9857-5566466c5851" d="M129.41,70h.43c.75,0,1.13-.21,1.13-.62v-10c0-.41-.38-.62-1.13-.62h-.43c-.76,0-1.13.21-1.13.62v10C128.28,69.83,128.65,70,129.41,70Z"/>
    <path class="a34ad940-53d3-4d0c-9857-5566466c5851" d="M129.62,57.71a1.35,1.35,0,1,0-1.34-1.34A1.35,1.35,0,0,0,129.62,57.71Z"/>
    <path class="a34ad940-53d3-4d0c-9857-5566466c5851" d="M46.66,54.24,38.77,73.79a1.85,1.85,0,0,0-.11.38c0,.29.39.44,1.16.44h.65c.89,0,1.44-.27,1.66-.82L50,54.24a1.16,1.16,0,0,0,.08-.38c0-.29-.38-.44-1.14-.44h-.65C47.43,53.42,46.88,53.69,46.66,54.24Z"/>
    <path class="a34ad940-53d3-4d0c-9857-5566466c5851" d="M62.76,73.79c.22.55.77.82,1.66.82h.65c.77,0,1.16-.15,1.16-.44a1.85,1.85,0,0,0-.11-.38L58.23,54.24c-.22-.55-.77-.82-1.65-.82h-.65c-.76,0-1.14.15-1.14.44a1.16,1.16,0,0,0,.08.38Z"/>
    <path class="a34ad940-53d3-4d0c-9857-5566466c5851" d="M50,63c0,.5.48.75,1.42.75h.75q1.41,0,1.41-.75V60.86q0-.75-1.41-.75h-.75c-.94,0-1.42.25-1.42.75Z"/>
    <path class="a34ad940-53d3-4d0c-9857-5566466c5851" d="M51.66,74.55A7.84,7.84,0,0,0,53,72.4a6,6,0,0,0,.58-2.53.93.93,0,0,0-.35-.75,1.68,1.68,0,0,0-1.06-.28h-.45c-.94,0-1.41.34-1.41,1a10.49,10.49,0,0,1-.22,2.42,13.34,13.34,0,0,1-.6,1.82,2.61,2.61,0,0,0-.22.78c0,.17.12.3.35.39a2.08,2.08,0,0,0,.71.13C50.7,75.41,51.13,75.12,51.66,74.55Z"/>
    <path class="a34ad940-53d3-4d0c-9857-5566466c5851" d="M47.93,16l-23,25.29V94H145.07V42.19Zm94.35,75.17H27.72V42.39L48.85,19.16l93.43,25.17Z"/>
    <path class="a34ad940-53d3-4d0c-9857-5566466c5851" d="M52.72,81.11a2.35,2.35,0,0,0-.94.18,2.31,2.31,0,0,0-.73.5,2.48,2.48,0,0,0-.48.74,2.44,2.44,0,0,0-.17.9,2.45,2.45,0,0,0,.65,1.65,2.55,2.55,0,0,0,.72.49,2.31,2.31,0,0,0,.91.18,2.58,2.58,0,0,0,.58-.06,1.94,1.94,0,0,0,.48-.16,2.06,2.06,0,0,0,.4-.25,2.25,2.25,0,0,0,.37-.33L54,84.44a2.64,2.64,0,0,1-.58.42,1.59,1.59,0,0,1-1.3,0,1.48,1.48,0,0,1-.47-.35,1.32,1.32,0,0,1-.31-.51,1.8,1.8,0,0,1,0-1.24,1.49,1.49,0,0,1,.31-.51,1.62,1.62,0,0,1,.47-.34,1.45,1.45,0,0,1,.59-.12,1.52,1.52,0,0,1,.69.15,2.73,2.73,0,0,1,.57.41l.5-.59a3.17,3.17,0,0,0-.34-.28,2.46,2.46,0,0,0-.39-.22,2.06,2.06,0,0,0-.46-.14A2.48,2.48,0,0,0,52.72,81.11Z"/>
    <path class="a34ad940-53d3-4d0c-9857-5566466c5851" d="M55.42,85.07a2.22,2.22,0,0,0,.74.49,2.27,2.27,0,0,0,1,.19,2.48,2.48,0,0,0,1-.19,2.36,2.36,0,0,0,.74-.5,2.33,2.33,0,0,0,.49-.74,2.48,2.48,0,0,0,.17-.9,2.44,2.44,0,0,0-.17-.9,2.48,2.48,0,0,0-.48-.74,2.39,2.39,0,0,0-.74-.49,2.6,2.6,0,0,0-1.9,0,2.54,2.54,0,0,0-.74.5,2.45,2.45,0,0,0-.49.74,2.52,2.52,0,0,0-.17.9,2.44,2.44,0,0,0,.17.9A2.48,2.48,0,0,0,55.42,85.07Zm.29-2.27a1.66,1.66,0,0,1,.31-.51A1.54,1.54,0,0,1,56.5,82a1.51,1.51,0,0,1,.61-.12,1.36,1.36,0,0,1,.61.13,1.54,1.54,0,0,1,.49.34,1.66,1.66,0,0,1,.31.51,1.62,1.62,0,0,1,.11.62,1.59,1.59,0,0,1-.11.62,1.46,1.46,0,0,1-.79.85,1.51,1.51,0,0,1-.61.12,1.36,1.36,0,0,1-.61-.13,1.54,1.54,0,0,1-.49-.34,1.66,1.66,0,0,1-.31-.51,1.66,1.66,0,0,1,0-1.24Z"/>
    <polygon class="a34ad940-53d3-4d0c-9857-5566466c5851" points="60.96 81.18 60.18 81.18 60.18 85.67 63.32 85.67 63.32 84.96 60.96 84.96 60.96 81.18"/>
    <polygon class="a34ad940-53d3-4d0c-9857-5566466c5851" points="64.69 81.18 63.91 81.18 63.91 85.67 67.05 85.67 67.05 84.96 64.69 84.96 64.69 81.18"/>
    <path class="a34ad940-53d3-4d0c-9857-5566466c5851" d="M69.23,81.15l-2,4.52h.8l.46-1.08h2.13l.45,1.08h.83l-2-4.52Zm-.42,2.74.77-1.8.78,1.8Z"/>
    <path class="a34ad940-53d3-4d0c-9857-5566466c5851" d="M75.75,83a.92.92,0,0,0,.14-.28,1.06,1.06,0,0,0,.06-.37,1,1,0,0,0-.4-.84,1.66,1.66,0,0,0-1.07-.31h-2v4.49h2.07a2.88,2.88,0,0,0,.68-.08,1.39,1.39,0,0,0,.52-.24,1,1,0,0,0,.34-.38,1.19,1.19,0,0,0,.12-.54,1,1,0,0,0-.07-.4.87.87,0,0,0-.18-.31,1.6,1.6,0,0,0-.28-.22,3,3,0,0,0-.36-.16,1.58,1.58,0,0,0,.24-.15A.8.8,0,0,0,75.75,83Zm-2.5-1.1h1.13A1,1,0,0,1,75,82a.5.5,0,0,1,.21.43.53.53,0,0,1-.23.47,1.14,1.14,0,0,1-.62.15H73.25Zm2.17,2.47a.53.53,0,0,1-.23.46,1.1,1.1,0,0,1-.64.16h-1.3V83.74h1.24a1.19,1.19,0,0,1,.7.16A.53.53,0,0,1,75.42,84.35Z"/>
    <path class="a34ad940-53d3-4d0c-9857-5566466c5851" d="M77.31,85.07a2.22,2.22,0,0,0,.74.49,2.27,2.27,0,0,0,1,.19,2.48,2.48,0,0,0,1-.19,2.36,2.36,0,0,0,.74-.5,2.33,2.33,0,0,0,.49-.74,2.48,2.48,0,0,0,.17-.9,2.44,2.44,0,0,0-.17-.9,2.48,2.48,0,0,0-.48-.74,2.39,2.39,0,0,0-.74-.49,2.44,2.44,0,0,0-.95-.18,2.47,2.47,0,0,0-1,.18,2.54,2.54,0,0,0-.74.5,2.45,2.45,0,0,0-.49.74,2.52,2.52,0,0,0-.17.9,2.44,2.44,0,0,0,.17.9A2.48,2.48,0,0,0,77.31,85.07Zm.29-2.27a1.66,1.66,0,0,1,.31-.51,1.54,1.54,0,0,1,.48-.34,1.51,1.51,0,0,1,.61-.12,1.36,1.36,0,0,1,.61.13,1.54,1.54,0,0,1,.49.34,1.66,1.66,0,0,1,.31.51,1.62,1.62,0,0,1,.11.62,1.59,1.59,0,0,1-.11.62,1.46,1.46,0,0,1-.79.85A1.51,1.51,0,0,1,79,85a1.36,1.36,0,0,1-.61-.13,1.54,1.54,0,0,1-.49-.34A1.66,1.66,0,0,1,77.6,84a1.8,1.8,0,0,1,0-1.24Z"/>
    <path class="a34ad940-53d3-4d0c-9857-5566466c5851" d="M82.07,85.67h.78V84.1h1L85,85.67h.93L84.67,84a1.63,1.63,0,0,0,.43-.18,1.32,1.32,0,0,0,.33-.29,1.26,1.26,0,0,0,.23-.39,1.59,1.59,0,0,0,.08-.5,1.46,1.46,0,0,0-.12-.6,1.35,1.35,0,0,0-.33-.45,1.57,1.57,0,0,0-.53-.28,2.39,2.39,0,0,0-.69-.1h-2Zm.78-3.78H84a1.13,1.13,0,0,1,.69.19.69.69,0,0,1,.24.57.67.67,0,0,1-.25.55,1,1,0,0,1-.67.21H82.85Z"/>
    <path class="a34ad940-53d3-4d0c-9857-5566466c5851" d="M88.06,81.15l-2,4.52h.81l.46-1.08h2.12l.46,1.08h.83l-2-4.52Zm-.42,2.74.77-1.8.77,1.8Z"/>
    <path class="a34ad940-53d3-4d0c-9857-5566466c5851" d="M93.83,84.86a1.42,1.42,0,0,1-.7.16,1.46,1.46,0,0,1-.6-.12,1.48,1.48,0,0,1-.47-.35,1.62,1.62,0,0,1-.31-.51,2,2,0,0,1,0-1.24,1.88,1.88,0,0,1,.31-.51,1.62,1.62,0,0,1,.47-.34,1.46,1.46,0,0,1,.6-.12,1.51,1.51,0,0,1,.68.15,2.73,2.73,0,0,1,.57.41l.51-.59-.34-.28a2.46,2.46,0,0,0-.39-.22,2.15,2.15,0,0,0-.47-.14,2.43,2.43,0,0,0-.56,0,2.34,2.34,0,0,0-.93.18,2.11,2.11,0,0,0-.73.5,2.15,2.15,0,0,0-.48.74,2.49,2.49,0,0,0,0,1.81,2.48,2.48,0,0,0,.48.74,2.25,2.25,0,0,0,1.63.67,2.49,2.49,0,0,0,.57-.06,1.69,1.69,0,0,0,.48-.16,2.14,2.14,0,0,0,.41-.25,1.86,1.86,0,0,0,.36-.33l-.51-.51A2.43,2.43,0,0,1,93.83,84.86Z"/>
    <polygon class="a34ad940-53d3-4d0c-9857-5566466c5851" points="95.19 81.91 96.61 81.91 96.61 85.67 97.41 85.67 97.41 81.91 98.83 81.91 98.83 81.18 95.19 81.18 95.19 81.91"/>
    <rect class="a34ad940-53d3-4d0c-9857-5566466c5851" x="99.47" y="81.18" width="0.78" height="4.49"/>
    <polygon class="a34ad940-53d3-4d0c-9857-5566466c5851" points="102.7 85.7 103.4 85.7 105.26 81.18 104.41 81.18 103.06 84.63 101.71 81.18 100.84 81.18 102.7 85.7"/>
    <polygon class="a34ad940-53d3-4d0c-9857-5566466c5851" points="106.58 83.76 108.83 83.76 108.83 83.05 106.58 83.05 106.58 81.89 109.11 81.89 109.11 81.18 105.79 81.18 105.79 85.67 109.15 85.67 109.15 84.96 106.58 84.96 106.58 83.76"/>
    <path class="a34ad940-53d3-4d0c-9857-5566466c5851" d="M112.39,82a.87.87,0,0,1,.54-.15,1.66,1.66,0,0,1,.61.12,2.51,2.51,0,0,1,.61.34l.42-.6a2.88,2.88,0,0,0-.74-.42,2.72,2.72,0,0,0-.89-.14,2,2,0,0,0-.61.09,1.37,1.37,0,0,0-.49.27,1.27,1.27,0,0,0-.31.41,1.19,1.19,0,0,0-.12.54,1.43,1.43,0,0,0,.1.53,1.16,1.16,0,0,0,.29.37,1.91,1.91,0,0,0,.47.26,6.35,6.35,0,0,0,.64.18,4.13,4.13,0,0,1,.51.15,1.5,1.5,0,0,1,.31.15.39.39,0,0,1,.16.18.65.65,0,0,1,0,.21.47.47,0,0,1-.22.42,1,1,0,0,1-.58.15,1.79,1.79,0,0,1-.75-.15,2.41,2.41,0,0,1-.66-.43l-.48.57a2.79,2.79,0,0,0,.88.54,3,3,0,0,0,1,.17,2.22,2.22,0,0,0,.65-.09,1.32,1.32,0,0,0,.5-.26,1.23,1.23,0,0,0,.33-.42,1.32,1.32,0,0,0,.12-.57,1.22,1.22,0,0,0-.09-.49,1.25,1.25,0,0,0-.28-.37,1.61,1.61,0,0,0-.45-.26,3.91,3.91,0,0,0-.63-.2,5.26,5.26,0,0,1-.53-.15,1.62,1.62,0,0,1-.32-.15.56.56,0,0,1-.17-.18.59.59,0,0,1,0-.23A.49.49,0,0,1,112.39,82Z"/>
    <path class="a34ad940-53d3-4d0c-9857-5566466c5851" d="M116.18,84.23h.9a2.63,2.63,0,0,0,.7-.1,1.91,1.91,0,0,0,.57-.29,1.37,1.37,0,0,0,.38-.48,1.47,1.47,0,0,0,.15-.67,1.52,1.52,0,0,0-.12-.62,1.36,1.36,0,0,0-.34-.48,1.57,1.57,0,0,0-.54-.3,2.25,2.25,0,0,0-.71-.11H115.4v4.49h.78Zm0-2.34h.92a1.09,1.09,0,0,1,.71.21.69.69,0,0,1,.27.6.71.71,0,0,1-.27.59,1,1,0,0,1-.71.23h-.92Z"/>
    <path class="a34ad940-53d3-4d0c-9857-5566466c5851" d="M120.59,81.15l-2,4.52h.81l.46-1.08H122l.46,1.08h.83l-2-4.52Zm-.42,2.74.77-1.8.78,1.8Z"/>
    <path class="a34ad940-53d3-4d0c-9857-5566466c5851" d="M125.66,81.11a2.34,2.34,0,0,0-.93.18,2.21,2.21,0,0,0-.73.5,2.15,2.15,0,0,0-.48.74,2.49,2.49,0,0,0,0,1.81,2.48,2.48,0,0,0,.48.74,2.25,2.25,0,0,0,1.63.67,2.65,2.65,0,0,0,.58-.06,1.74,1.74,0,0,0,.47-.16,2.14,2.14,0,0,0,.41-.25,1.86,1.86,0,0,0,.36-.33l-.5-.51a2.69,2.69,0,0,1-.59.42,1.39,1.39,0,0,1-.7.16,1.41,1.41,0,0,1-.59-.12,1.52,1.52,0,0,1-.48-.35,1.44,1.44,0,0,1-.3-.51,1.8,1.8,0,0,1,0-1.24,1.63,1.63,0,0,1,.3-.51,1.67,1.67,0,0,1,.48-.34,1.41,1.41,0,0,1,.59-.12,1.51,1.51,0,0,1,.68.15,2.49,2.49,0,0,1,.57.41l.51-.59-.34-.28a2.46,2.46,0,0,0-.39-.22,2.24,2.24,0,0,0-.46-.14A2.52,2.52,0,0,0,125.66,81.11Z"/>
    <polygon class="a34ad940-53d3-4d0c-9857-5566466c5851" points="131.4 84.96 128.82 84.96 128.82 83.76 131.07 83.76 131.07 83.05 128.82 83.05 128.82 81.89 131.36 81.89 131.36 81.18 128.04 81.18 128.04 85.67 131.4 85.67 131.4 84.96"/>
  </g>
</svg>
