<svg id="Layer_1" data-name="Layer 1" xmlns="http://www.w3.org/2000/svg" viewBox="0 0 200 45"><defs><style>.cls-1{fill:#00a8b1;}.cls-2{fill:#ff2500;}</style></defs><title>logo media</title><path class="cls-1" d="M148.41,13.39V17a1.25,1.25,0,0,1-1.25,1.24h-2.38a4.25,4.25,0,0,0-4.25,4.25V35a1.24,1.24,0,0,1-1.25,1.24h-3.9A1.23,1.23,0,0,1,134.14,35V22.15a10,10,0,0,1,10-10h3A1.25,1.25,0,0,1,148.41,13.39Z"/><path class="cls-1" d="M173.47,21.88v13a1.46,1.46,0,0,0,1.46,1.47h2.8a1.46,1.46,0,0,0,1.46-1.47V21.67A3.67,3.67,0,0,1,182.86,18h0a3.67,3.67,0,0,1,3.67,3.67V34.84A1.47,1.47,0,0,0,188,36.31h2.79a1.47,1.47,0,0,0,1.47-1.47v-13a9.4,9.4,0,0,0-9.4-9.4h0A9.39,9.39,0,0,0,173.47,21.88Z"/><path class="cls-1" d="M75.23,12.48a9.42,9.42,0,0,0-6.45,2.57,9.39,9.39,0,0,0-15.84,6.83v13a1.47,1.47,0,0,0,1.47,1.47H57.2a1.47,1.47,0,0,0,1.47-1.47V21.67a3.67,3.67,0,0,1,7.23-.86,9.45,9.45,0,0,0-.07,1.07v13a1.47,1.47,0,0,0,1.47,1.47h3a1.47,1.47,0,0,0,1.47-1.47v-13a9.45,9.45,0,0,0-.07-1.07,3.66,3.66,0,0,1,7.22.86V34.84a1.47,1.47,0,0,0,1.47,1.47h2.79a1.47,1.47,0,0,0,1.47-1.47v-13A9.4,9.4,0,0,0,75.23,12.48Z"/><path class="cls-2" d="M49.62,14v7c-.43,1.07-1.73,1.76-3.11,2.48a11.86,11.86,0,0,0-2.61,1.66V16.75a4.25,4.25,0,0,1,4.26-4.26A1.46,1.46,0,0,1,49.62,14Z"/><path class="cls-2" d="M30.83,20.87V14a1.47,1.47,0,0,1,1.47-1.47,4.26,4.26,0,0,1,4.26,4.26v8.34A12.43,12.43,0,0,0,34,23.46C32.56,22.71,31.21,22,30.83,20.87Z"/><path class="cls-1" d="M49.62,22.67v4.25a9.4,9.4,0,0,1-18.79,0v-4.3a11.94,11.94,0,0,0,2.69,1.73c1.25.65,2.54,1.34,3,2.32v.46a3.67,3.67,0,0,0,7.34,0V26.7h0c.49-1,1.8-1.69,3.07-2.35A12.27,12.27,0,0,0,49.62,22.67Z"/><path class="cls-1" d="M29.1,34.63l-9.75-9.75a1.77,1.77,0,0,1,0-2.5l8.11-8.11A.74.74,0,0,0,26.93,13H22.19a1.77,1.77,0,0,0-1.23.5l-8.21,7.94V3.89A3.89,3.89,0,0,0,8.86,0H7V34.53A1.38,1.38,0,0,0,8.4,35.91h3a1.37,1.37,0,0,0,1.37-1.38V25.26l9.38,10.08a1.8,1.8,0,0,0,1.3.57h5.15A.75.75,0,0,0,29.1,34.63Z"/><path class="cls-1" d="M98.46,12.56a9.7,9.7,0,0,0-5.75,1.91,2.78,2.78,0,0,0-2.32-1.24H88.78a1.33,1.33,0,0,0-1.33,1.33V43.69A1.34,1.34,0,0,0,88.78,45h3.06a1.34,1.34,0,0,0,1.34-1.33V35.06a9.75,9.75,0,0,0,5.28,1.59c5.9,0,10.68-5.39,10.68-12S104.36,12.56,98.46,12.56Zm-.87,19.53a5.34,5.34,0,0,1-4.41-2.69V19.8a5.33,5.33,0,0,1,4.41-2.68c3.18,0,5.75,3.35,5.75,7.48S100.77,32.09,97.59,32.09Z"/><path class="cls-1" d="M130.9,13.23h-1.21a3.29,3.29,0,0,0-2.78,1.52,9.24,9.24,0,0,0-6.26-2.52c-5.66,0-10.25,5.39-10.25,12s4.59,12,10.25,12a9.18,9.18,0,0,0,5.74-2.06v.85a1.21,1.21,0,0,0,1.21,1.21h3.3a1.21,1.21,0,0,0,1.21-1.21V14.44A1.21,1.21,0,0,0,130.9,13.23Zm-9.19,18.64a5.5,5.5,0,0,1-5.49-5.48V22.68a5.48,5.48,0,0,1,9.36-3.88,5.74,5.74,0,0,1,.81,1v9.4A5.49,5.49,0,0,1,121.71,31.87Z"/><path class="cls-1" d="M169.7,13.23h-1.22a3.26,3.26,0,0,0-2.77,1.52,9.26,9.26,0,0,0-6.26-2.52c-5.66,0-10.25,5.39-10.25,12s4.59,12,10.25,12a9.18,9.18,0,0,0,5.73-2.06v.85a1.21,1.21,0,0,0,1.21,1.21h3.31a1.21,1.21,0,0,0,1.21-1.21V14.44A1.21,1.21,0,0,0,169.7,13.23Zm-9.19,18.64A5.5,5.5,0,0,1,155,26.39V22.68a5.48,5.48,0,0,1,9.36-3.88,5.69,5.69,0,0,1,.8,1v9.4A5.49,5.49,0,0,1,160.51,31.87Z"/></svg>