<svg id="Layer_1" data-name="Layer 1" xmlns="http://www.w3.org/2000/svg" viewBox="0 0 200 45"><defs><style>.cls-1{fill:#ff9e00;}.cls-2{fill:#ff6e00;}.cls-3{fill:#ff3e11;}.cls-4{fill:#ff002a;}</style></defs><title>logo media</title><path class="cls-1" d="M39.27,34.42V9.82a3.17,3.17,0,0,1,1.81-2.55H32.94a3.17,3.17,0,0,1,1.81,2.55v24.6C34.75,37,32.94,37,32.94,37h8.14S39.27,37,39.27,34.42Z"/><path class="cls-1" d="M84.51,34.42V9.82a3.17,3.17,0,0,1,1.81-2.55H78.17A3.17,3.17,0,0,1,80,9.82V27.69l-.09-.24c0,9.6-14.62,8.6-14.62,1V9.82a3.17,3.17,0,0,1,1.81-2.55H58.94a3.17,3.17,0,0,1,1.81,2.55v6.65l0,0V28.26c0,5.62,4.43,9.51,10.41,9.51S80,34.42,80,34.42C80,37,78.17,37,78.17,37h8.15S84.51,37,84.51,34.42Z"/><path class="cls-1" d="M112.32,33.58c-1.84-1.92-8.73-10.8-8.73-10.8s7.21-2.26,7.21-7.78-4.37-7.73-11.71-7.73H91a3.17,3.17,0,0,1,1.81,2.55v24.6C92.76,37,91,37,91,37h8.14s-1.81,0-1.81-2.54v-24h3.86a5.25,5.25,0,0,1,4.64,5.18c0,3.14-3.64,5.94-7.52,5.94a99.65,99.65,0,0,0,5.79,9c2,2.75,5.45,6.78,7.71,6.78h6A24.81,24.81,0,0,1,112.32,33.58Z"/><path class="cls-1" d="M147.16,7.24l-1.54,5.26a5.42,5.42,0,0,1,3.44-1.59h5.68V34.42c0,2.54-1.81,2.54-1.81,2.54h8.14s-1.81,0-1.81-2.54V10.92l6,0c1.45,0,2,1.82,2,1.82l1.59-5.53Z"/><path class="cls-1" d="M54.48,33.58c-1.42-1.48-9.89-12.64-9.89-12.64L55.51,7.29H46.92s2.81,1.61,1.53,3.45-8.2,11.09-8.2,11.09,8.68,15.48,13.68,15.48h6A24.81,24.81,0,0,1,54.48,33.58Z"/><path class="cls-1" d="M142,37h8.85c-1.76-1-2.93-3.27-3.88-5.24S137.2,7.3,137.2,7.3l-6.91-.07c1.09.2,1.33,2.18,1,3.06s-7.63,18.85-8.64,21.78a13.7,13.7,0,0,1-3.41,5h7.69a2.6,2.6,0,0,1-1.29-3.27c.82-2.25,3-8,3-8h11.09s2.45,6.4,3.27,8.37A2.17,2.17,0,0,1,142,37Zm-12-14,4.38-11.36,4.39,11.37Z"/><path class="cls-1" d="M22.5,34.18c-.44-1.06-2.91-7.46-5.1-13.16a29.41,29.41,0,0,1,4.25-1.16c2.17,5.54,4.35,11,4.8,11.94.95,2,2.11,4.22,3.87,5.24H21.48A2.16,2.16,0,0,0,22.5,34.18Z"/><path class="cls-1" d="M21.44,19.34a39.81,39.81,0,0,0-4.55.37l-3.07-8S12,16.29,10,21.3a30.8,30.8,0,0,0-4.25,1.79,1,1,0,0,0-.17.1c2.33-5.85,5-12.37,5.18-12.9.33-.88.1-2.86-1-3.06l6.92.07S19.05,13.28,21.44,19.34Z"/><path class="cls-2" d="M25,19.33a23.74,23.74,0,0,0-3.37.45A29.79,29.79,0,0,0,17.34,21a24.2,24.2,0,0,0-3.67,1.67A23.81,23.81,0,0,0,7.42,28c-.73,1.93-1.36,3.59-1.79,4.7-.21.56-.35,1-.44,1.21a2.59,2.59,0,0,0,1.32,3.25l-7.69.07a13.65,13.65,0,0,0,3.36-5.07c.38-1.1,1.6-4.31,3-7.93C9.63,22.17,18.05,18.83,25,19.33Z"/><path class="cls-3" d="M181.67,22.82v2.49a10.07,10.07,0,0,0-3.86-1.12,5.44,5.44,0,0,0-5.18,5.4,5.71,5.71,0,0,0,5.82,5.71,7.74,7.74,0,0,0,4.44-1.48l-1.06,2.91a19.25,19.25,0,0,1-3.91.47c-2,0-7.92-1.05-7.92-7.93C170,22.81,177,20.73,181.67,22.82Z"/><path class="cls-3" d="M191.51,22a7.82,7.82,0,0,0-8,7.64,8,8,0,0,0,16,0A7.82,7.82,0,0,0,191.51,22Zm0,13.3a5.44,5.44,0,0,1-5.2-5.66,5.22,5.22,0,1,1,10.41,0A5.44,5.44,0,0,1,191.51,35.32Z"/><circle class="cls-3" cx="165.29" cy="34.33" r="2.89"/><path class="cls-4" d="M25,19.44c-6.89-.55-15.34,2.71-19.79,4.72l.39-1a1,1,0,0,1,.17-.1A30.8,30.8,0,0,1,10,21.3a37,37,0,0,1,6.85-1.59,39.81,39.81,0,0,1,4.55-.37A27.66,27.66,0,0,1,25,19.44Z"/></svg>