<svg id="Layer_1" data-name="Layer 1" xmlns="http://www.w3.org/2000/svg" viewBox="0 0 200 45"><defs><style>.cls-1{fill:#ff0010;}</style></defs><title>logo media</title><path d="M90.79,12.25h-8.5V7.86h22.23v4.39H96V37.31H90.79Z"/><path d="M109.46,7.86h5.22V37.31h-5.22Z"/><path d="M122.17,7.86h5.91l5.21,14.39c.65,1.87,1.24,3.86,1.89,5.78h.18c.65-1.92,1.21-3.91,1.86-5.78l5.1-14.39h5.91V37.31h-4.8V23.84c0-2.72.42-6.64.67-9.37h-.18l-2.38,6.84L136.7,34.55h-3.1l-4.87-13.24-2.34-6.84h-.18c.25,2.73.67,6.65.67,9.37V37.31h-4.71Z"/><path d="M155.72,7.86h17.73v4.39H160.94V19.8h10.6v4.4h-10.6v8.72h13v4.39H155.72Z"/><path d="M177.91,33.54,181,30a11.55,11.55,0,0,0,7.67,3.36c3.32,0,5.14-1.5,5.14-3.8s-1.9-3.2-4.58-4.33l-4-1.75c-2.9-1.21-5.95-3.5-5.95-7.81,0-4.69,4.14-8.3,9.89-8.3a12.93,12.93,0,0,1,9.08,3.75l-2.68,3.32a9.48,9.48,0,0,0-6.4-2.53c-2.79,0-4.61,1.3-4.61,3.45,0,2.32,2.24,3.17,4.68,4.18l4,1.66c3.51,1.46,6,3.68,6,8,0,4.77-4,8.75-10.58,8.75A15.22,15.22,0,0,1,177.91,33.54Z"/><polygon class="cls-1" points="4.08 5.69 0 8.57 0 36.91 4.08 39.31 8.16 36.91 8.16 8.57 4.08 5.69"/><path class="cls-1" d="M25.48,5.69H15.85v.16L12,8.57V36.91l3.85,2.26v.14h9.63A14.38,14.38,0,0,0,39.86,24.93V20.07A14.38,14.38,0,0,0,25.48,5.69ZM32,24c0,4.76-3.49,8.62-7.8,8.62h-4V12.42h4c4.31,0,7.8,3.86,7.8,8.62Z"/><polygon class="cls-1" points="66.99 5.69 62.91 8.57 62.91 23.39 51.38 8.57 47.3 5.69 43.22 8.57 43.22 36.91 47.3 39.31 51.38 36.91 51.38 21.39 62.91 36.91 66.99 39.31 71.07 36.91 71.07 8.57 66.99 5.69"/></svg>