<svg id="Layer_1" data-name="Layer 1" xmlns="http://www.w3.org/2000/svg" viewBox="0 0 200 45"><defs><style>.cls-1{fill:#ff0004;}.cls-2{fill:#b2000d;}</style></defs><title>logo media</title><path class="cls-1" d="M76.51,35.2H51.18L63.55,9.76ZM56,32.2H71.61l-8-15.71Z"/><polygon class="cls-1" points="128.5 35.3 119.21 16.49 109.72 35.4 106.42 35.3 119.23 9.75 131.84 35.3 128.5 35.3"/><path class="cls-1" d="M37,35.06c-7.28,0-11.08-5-11.08-10V9.82h3V25.09c0,3.36,2.53,7,8.08,7,5.32,0,8.37-2.47,8.37-6.78,0-5.05-.19-15.23-.19-15.33l3,0c0,.1.19,10.31.19,15.38C48.41,31.31,44.05,35.06,37,35.06Z"/><path class="cls-1" d="M101.07,35.31l-5.78-10a7.57,7.57,0,0,0,5.77-7.5A7.67,7.67,0,0,0,93,10.07H81.48V35.25h3v-9.6H92l5.52,9.61ZM84.48,13.07H93c3.51,0,5.09,2.38,5.09,4.75s-1.65,4.83-5.32,4.83H84.48Z"/><path class="cls-1" d="M10.54,35.53l-.54,0c-3.66-.2-8.94-3.6-9.53-4L2.11,29c1.42.93,5.63,3.36,8.06,3.5a9.45,9.45,0,0,0,6.42-2.14,3.52,3.52,0,0,0,1.16-2.7c-.06-2.84-2.51-3.44-6.25-4l-.82-.13c-.48-.08-1-.14-1.54-.21C6,22.92.72,22.27.72,16.8S6,9.31,10.46,9.31c3.28,0,6,1,9.24,3.49l-1.83,2.39c-2.66-2-4.81-2.88-7.41-2.88-1.13,0-6.74.22-6.74,4.49,0,2.43,1.71,3,5.79,3.53.58.07,1.14.14,1.66.23l.79.13c3.25.51,8.68,1.36,8.79,6.93a6.47,6.47,0,0,1-2.08,4.91A12.35,12.35,0,0,1,10.54,35.53Z"/><path class="cls-2" d="M164.36,35.38a8.08,8.08,0,1,1,8.27-8.08A8.17,8.17,0,0,1,164.36,35.38Zm0-13.15a5.08,5.08,0,1,0,5.27,5.07A5.18,5.18,0,0,0,164.36,22.23Z"/><path class="cls-2" d="M147.17,35.38a8.08,8.08,0,1,1,0-16.15,8.27,8.27,0,0,1,7.26,4.23l-2.62,1.45a5.3,5.3,0,0,0-4.64-2.68,5.08,5.08,0,1,0,0,10.15,5.3,5.3,0,0,0,4.6-2.61l2.6,1.5A8.33,8.33,0,0,1,147.17,35.38Z"/><polygon class="cls-2" points="176.63 35.43 173.27 35.31 181.46 19.61 186.32 28.39 191.07 19.41 199.74 35.37 196.29 35.35 191.1 25.76 186.39 34.68 181.54 25.95 176.63 35.43"/><circle class="cls-2" cx="135.87" cy="33.66" r="1.7"/></svg>