<svg id="Layer_1" data-name="Layer 1" xmlns="http://www.w3.org/2000/svg" viewBox="0 0 200 45"><defs><style>.cls-1{fill:#ffbc00;}.cls-2{fill:#00395e;}.cls-3{fill:#ff0009;}.cls-4{fill:#ff8700;}</style></defs><title>logo media</title><path class="cls-1" d="M177.49,34.53h-5.24a2,2,0,0,0,.2-.83V14.28h4.81V33.7A1.48,1.48,0,0,0,177.49,34.53Z"/><path class="cls-1" d="M199.72,26.73h0V7.31a2,2,0,0,1,.2-.83h-5.24a1.48,1.48,0,0,1,.23.83v7h0V17A9.16,9.16,0,0,0,188,13.73c-5.36,0-9.7,4.91-9.7,11s4.34,11,9.7,11a9.16,9.16,0,0,0,6.89-3.24v1.3a2,2,0,0,1-.2.83H200a1.48,1.48,0,0,1-.23-.83Zm-10.93,4.82c-3.36,0-6.09-3.07-6.09-6.86s2.73-6.87,6.09-6.87,6.08,3.08,6.08,6.87S192.14,31.55,188.79,31.55Z"/><rect class="cls-1" x="172.45" y="6.45" width="4.81" height="4.81"/><rect class="cls-2" x="166.31" y="30.61" width="3.91" height="3.91"/><path class="cls-2" d="M31.68,13.72A10.88,10.88,0,1,0,42.33,24.6,10.77,10.77,0,0,0,31.68,13.72Zm0,18c-3.39,0-6.14-3.19-6.14-7.11s2.75-7.11,6.14-7.11,6.13,3.18,6.13,7.11S35.07,31.71,31.68,31.71Z"/><path class="cls-2" d="M23.44,6.5H16.9a7.15,7.15,0,0,1-1.6,2.24l-10,10.68V6.19H.45V34.73H5.26V25.54L9,21.65c2.14,2.9,8.25,11.16,8.54,11.62a5.25,5.25,0,0,1,.57,1.45h6.54L12.2,18.27Z"/><path class="cls-2" d="M62.22,21s-.11-5.35-4.61-6.53-7.27.05-9.64,3.69V14.28h-4.8V33.69a1.93,1.93,0,0,1-.21.84H48.2a1.51,1.51,0,0,1-.23-.84V22.83c1.26-3.32,3.81-5.14,6.55-5.14,3,0,2.89,3.29,2.89,3.29V33.69a2,2,0,0,1-.2.84h5.24a1.51,1.51,0,0,1-.23-.84Z"/><path class="cls-2" d="M117.57,21s-.12-5.35-4.62-6.53-7.27.05-9.63,3.69V14.28H98.51V33.69a2,2,0,0,1-.2.84h5.24a1.51,1.51,0,0,1-.23-.84V22.83c1.25-3.32,3.81-5.14,6.55-5.14,3,0,2.89,3.29,2.89,3.29V33.69a2,2,0,0,1-.2.84h5.24a1.51,1.51,0,0,1-.23-.84Z"/><path class="cls-2" d="M73.5,31.64C71.8,31.37,72,29.29,72,29.29V18.09h4.1a1.36,1.36,0,0,1,.59.15V14.49a1,1,0,0,1-.59.17H72V9.87a2,2,0,0,1,.2-.83H66.91a1.48,1.48,0,0,1,.23.83v4.76H63.5a1.45,1.45,0,0,1-.6-.14v3.75a1.06,1.06,0,0,1,.6-.17h3.64V29.29c0,1.33.48,5.6,4.59,5.88,4.46.3,5.76-.59,5.76-.59l-.85-3.79A4.58,4.58,0,0,1,73.5,31.64Z"/><path class="cls-2" d="M96.6,19.69c-.16-.84-.53-5.9-8.51-5.9s-9.66,5.74-9.66,5.74l4.59.73C83.29,18.65,84.8,17,88,17c1.89,0,4.2.9,4.2,2.71V22a53.78,53.78,0,0,0-7,.52C82.13,23,78,25.22,78.12,29.4s4.54,5.84,7.61,5.84c2.42,0,4.89-1.37,6.5-2.47v.93a2.16,2.16,0,0,1-.18.83H96.8a1.66,1.66,0,0,1-.2-.83ZM89.39,31c-2.82,1.41-6.26,1-6.53-1.2s.94-3.43,3.36-4.23a18.7,18.7,0,0,1,6-.46C92.2,27.26,92.2,29.55,89.39,31Z"/><rect class="cls-2" x="120.5" y="30.61" width="3.91" height="3.91"/><rect class="cls-2" x="113.92" y="9.09" width="3.91" height="3.91"/><rect class="cls-3" x="96.16" y="9.09" width="3.91" height="3.91"/><rect class="cls-1" x="78.37" y="9.09" width="3.91" height="3.91"/><path class="cls-4" d="M155.39,35.45c-5.72,0-10.37-4.92-10.37-11s4.65-11,10.37-11,10.36,4.92,10.36,11S161.1,35.45,155.39,35.45Zm0-17.93c-3.51,0-6.37,3.13-6.37,7s2.86,7,6.37,7,6.36-3.12,6.36-7S158.9,17.52,155.39,17.52Z"/><path class="cls-4" d="M135.55,35.45c-5.72,0-10.37-4.92-10.37-11s4.65-11,10.37-11a10.27,10.27,0,0,1,9.29,6.1l-3.62,1.7a6.32,6.32,0,0,0-5.67-3.8c-3.51,0-6.37,3.13-6.37,7s2.86,7,6.37,7a6.32,6.32,0,0,0,5.68-3.81l3.62,1.68A10.24,10.24,0,0,1,135.55,35.45Z"/></svg>