<svg id="fdb1467c-e63f-4f8f-aa49-88ae42a3f2e8" data-name="Layer 1" xmlns="http://www.w3.org/2000/svg" width="64" height="64" viewBox="0 0 64 64">
  <defs>
    <style>
      .a53c7119-f121-4468-a40d-731b4b189823, .eab222a8-142c-4d2a-bb90-19c71e0f177e {
        fill: none;
        stroke-linejoin: round;
        stroke-width: 2px;
      }

      .a53c7119-f121-4468-a40d-731b4b189823 {
        stroke: #00bfa5;
        stroke-linecap: round;
      }

      .eab222a8-142c-4d2a-bb90-19c71e0f177e {
        stroke: #007aff;
      }
    </style>
  </defs>
  <title>icons</title>
  <g>
    <path class="a53c7119-f121-4468-a40d-731b4b189823" d="M48.37,1V11a2,2,0,0,1-2,2H17.62a2,2,0,0,1-2-2V1"/>
    <line class="a53c7119-f121-4468-a40d-731b4b189823" x1="19.52" y1="1" x2="19.52" y2="12.93"/>
    <line class="a53c7119-f121-4468-a40d-731b4b189823" x1="23.69" y1="1" x2="23.69" y2="12.93"/>
    <line class="a53c7119-f121-4468-a40d-731b4b189823" x1="27.86" y1="1" x2="27.86" y2="12.93"/>
    <line class="a53c7119-f121-4468-a40d-731b4b189823" x1="32.03" y1="1" x2="32.03" y2="12.93"/>
    <line class="a53c7119-f121-4468-a40d-731b4b189823" x1="36.2" y1="1" x2="36.2" y2="12.93"/>
    <line class="a53c7119-f121-4468-a40d-731b4b189823" x1="40.37" y1="1" x2="40.37" y2="12.93"/>
    <line class="a53c7119-f121-4468-a40d-731b4b189823" x1="44.54" y1="1" x2="44.54" y2="12.93"/>
    <rect class="eab222a8-142c-4d2a-bb90-19c71e0f177e" x="8.5" y="1" width="47" height="62" rx="3.97"/>
    <rect class="a53c7119-f121-4468-a40d-731b4b189823" x="15.63" y="21.02" width="32.74" height="34.37" rx="1.84"/>
  </g>
  <path class="a53c7119-f121-4468-a40d-731b4b189823" d="M38.86,38a2.57,2.57,0,0,0-.79.14c0-.18,0-.36,0-.54a5.43,5.43,0,0,0-10.85,0c0,.1,0,.19,0,.28a2.84,2.84,0,0,0-1.78-.63A2.88,2.88,0,0,0,25.2,43v0H38.86a2.51,2.51,0,0,0,0-5Z"/>
</svg>
