<svg id="bdd86ad1-85f2-4d58-8eba-1b4f59cb6e8c" data-name="Layer 1" xmlns="http://www.w3.org/2000/svg" width="64" height="64" viewBox="0 0 64 64">
  <defs>
    <style>
      .a46ac3b4-9d03-474b-8624-31caf7c79f1c, .f2fa33eb-79d1-456d-abe8-189c4c6825ff {
        fill: none;
        stroke-linecap: round;
        stroke-linejoin: round;
        stroke-width: 2px;
      }

      .a46ac3b4-9d03-474b-8624-31caf7c79f1c {
        stroke: #00bfa5;
      }

      .f2fa33eb-79d1-456d-abe8-189c4c6825ff {
        stroke: #007aff;
      }
    </style>
  </defs>
  <title>icons</title>
  <g>
    <line class="a46ac3b4-9d03-474b-8624-31caf7c79f1c" x1="14.41" y1="42.77" x2="1" y2="42.77"/>
    <path class="f2fa33eb-79d1-456d-abe8-189c4c6825ff" d="M14.41,51.71H4.93A3.94,3.94,0,0,1,1,47.77V16.23a3.94,3.94,0,0,1,3.93-3.94h9.54"/>
    <g>
      <path class="a46ac3b4-9d03-474b-8624-31caf7c79f1c" d="M14.46,29.82a2.93,2.93,0,0,1-.16-5.29"/>
      <path class="a46ac3b4-9d03-474b-8624-31caf7c79f1c" d="M14.47,17.71l-.39.11-2,.57-.65.18.27,1.95a7.81,7.81,0,0,0-1.59,1.26l-1.83-.71-.33.59-1,1.83-.33.59,1.57,1.18a7.79,7.79,0,0,0-.23,2L6.11,28l.19.65.57,2,.18.65,2-.27a7.92,7.92,0,0,0,1.27,1.6L9.57,34.5l.59.33,1.84,1,.59.33,1.18-1.57a4.53,4.53,0,0,0,.64.13"/>
    </g>
    <line class="f2fa33eb-79d1-456d-abe8-189c4c6825ff" x1="9.83" y1="47.75" x2="14.41" y2="47.75"/>
  </g>
  <g>
    <line class="a46ac3b4-9d03-474b-8624-31caf7c79f1c" x1="49.59" y1="42.77" x2="63" y2="42.77"/>
    <path class="f2fa33eb-79d1-456d-abe8-189c4c6825ff" d="M49.59,51.71h9.48A3.94,3.94,0,0,0,63,47.77V16.23a3.94,3.94,0,0,0-3.93-3.94H49.53"/>
    <g>
      <path class="a46ac3b4-9d03-474b-8624-31caf7c79f1c" d="M49.54,29.82a2.93,2.93,0,0,0,.16-5.29"/>
      <path class="a46ac3b4-9d03-474b-8624-31caf7c79f1c" d="M49.53,17.71l.39.11,2,.57.65.18-.27,1.95a7.81,7.81,0,0,1,1.59,1.26l1.83-.71.33.59,1,1.83.33.59-1.57,1.18a7.79,7.79,0,0,1,.23,2l1.81.79-.19.65-.57,2-.18.65-2-.27a7.92,7.92,0,0,1-1.27,1.6l.71,1.81-.59.33-1.84,1-.59.33-1.18-1.57a4.53,4.53,0,0,1-.64.13"/>
    </g>
    <line class="f2fa33eb-79d1-456d-abe8-189c4c6825ff" x1="54.17" y1="47.75" x2="49.59" y2="47.75"/>
  </g>
  <g>
    <line class="a46ac3b4-9d03-474b-8624-31caf7c79f1c" x1="49.59" y1="44.31" x2="14.41" y2="44.31"/>
    <rect class="f2fa33eb-79d1-456d-abe8-189c4c6825ff" x="14.41" y="7.64" width="35.18" height="47.42" rx="4.73"/>
    <g>
      <circle class="a46ac3b4-9d03-474b-8624-31caf7c79f1c" cx="32.01" cy="25.5" r="3.52"/>
      <path class="a46ac3b4-9d03-474b-8624-31caf7c79f1c" d="M41.26,25.37l2.18-1-.22-.77-.69-2.44-.22-.78L40,20.75a8.92,8.92,0,0,0-1.5-1.89l.86-2.2-.7-.4L36.41,15l-.71-.4-1.42,1.88a9.17,9.17,0,0,0-2.4-.28l-.95-2.17-.78.22L27.71,15l-.78.22.33,2.34a9.81,9.81,0,0,0-1.92,1.52l-2.19-.85-.4.7-1.23,2.21-.4.71L23,23.24a9.09,9.09,0,0,0-.27,2.39l-2.18.95.22.78.69,2.44.22.78,2.36-.33a8.92,8.92,0,0,0,1.53,1.92l-.85,2.19.7.39L27.64,36l.71.4,1.42-1.89a9.37,9.37,0,0,0,2.37.27l1,2.17.78-.22L36.31,36l.77-.22-.33-2.35a9.14,9.14,0,0,0,2-1.6l2.14.84.39-.71,1.24-2.21.39-.71L41,27.64A9,9,0,0,0,41.26,25.37Z"/>
    </g>
    <line class="f2fa33eb-79d1-456d-abe8-189c4c6825ff" x1="25.03" y1="50.29" x2="38.97" y2="50.29"/>
  </g>
</svg>
