<svg id="ad643c0e-5822-4a3e-a561-e719b5526571" data-name="Layer 1" xmlns="http://www.w3.org/2000/svg" width="64" height="64" viewBox="0 0 64 64">
  <defs>
    <style>
      .a7b3bbda-274a-473b-96fe-97fe3f2188db, .ad780565-0fa8-4182-b15d-9981fc4ce4e1, .fb0fbc27-6b4f-4308-afca-e7308b25f501 {
        fill: none;
      }

      .a7b3bbda-274a-473b-96fe-97fe3f2188db, .ad780565-0fa8-4182-b15d-9981fc4ce4e1 {
        stroke: #007aff;
      }

      .a7b3bbda-274a-473b-96fe-97fe3f2188db, .ad780565-0fa8-4182-b15d-9981fc4ce4e1, .fb0fbc27-6b4f-4308-afca-e7308b25f501, .fec9e579-c7ad-4d20-840d-62684eb2da2c {
        stroke-linejoin: round;
        stroke-width: 2px;
      }

      .fb0fbc27-6b4f-4308-afca-e7308b25f501, .fec9e579-c7ad-4d20-840d-62684eb2da2c {
        stroke: #00bfa5;
      }

      .ad780565-0fa8-4182-b15d-9981fc4ce4e1, .fb0fbc27-6b4f-4308-afca-e7308b25f501, .fec9e579-c7ad-4d20-840d-62684eb2da2c {
        stroke-linecap: round;
      }

      .fec9e579-c7ad-4d20-840d-62684eb2da2c {
        fill: #fff;
      }
    </style>
  </defs>
  <title>icons</title>
  <g>
    <rect class="a7b3bbda-274a-473b-96fe-97fe3f2188db" x="14.23" y="22.16" width="35.54" height="12.04" rx="2.29"/>
    <line class="fb0fbc27-6b4f-4308-afca-e7308b25f501" x1="19.96" y1="28.18" x2="36.59" y2="28.18"/>
    <circle class="fec9e579-c7ad-4d20-840d-62684eb2da2c" cx="43.18" cy="28.18" r="1.49"/>
    <path class="ad780565-0fa8-4182-b15d-9981fc4ce4e1" d="M35.84,15.28h3.93a4.25,4.25,0,0,1,3,1.26l6.32,6.31"/>
    <path class="ad780565-0fa8-4182-b15d-9981fc4ce4e1" d="M14.89,22.85l6.31-6.31a4.25,4.25,0,0,1,3-1.26H35.84"/>
  </g>
  <g>
    <line class="a7b3bbda-274a-473b-96fe-97fe3f2188db" x1="32.01" y1="48.82" x2="32.01" y2="56.7"/>
    <line class="fb0fbc27-6b4f-4308-afca-e7308b25f501" x1="0.99" y1="42.7" x2="63.01" y2="42.7"/>
    <path class="ad780565-0fa8-4182-b15d-9981fc4ce4e1" d="M8.54,7.3H59.71A3.32,3.32,0,0,1,63,10.61V45.52a3.31,3.31,0,0,1-3.3,3.3H4.29A3.31,3.31,0,0,1,1,45.52V10.61A3.32,3.32,0,0,1,4.29,7.3H9.37"/>
    <line class="fb0fbc27-6b4f-4308-afca-e7308b25f501" x1="19.73" y1="56.7" x2="44.28" y2="56.7"/>
  </g>
</svg>
