<svg id="ad9531ac-6642-47a0-982f-d8b3741c4c72" data-name="Layer 1" xmlns="http://www.w3.org/2000/svg" width="64" height="64" viewBox="0 0 64 64">
  <defs>
    <style>
      .b00c97c4-0e3b-483a-a061-7730bb078e82, .b5936370-8081-4c2c-b80c-57a094ecfcd4 {
        fill: none;
        stroke-linecap: round;
        stroke-linejoin: round;
        stroke-width: 2px;
      }

      .b5936370-8081-4c2c-b80c-57a094ecfcd4 {
        stroke: #007aff;
      }

      .b00c97c4-0e3b-483a-a061-7730bb078e82 {
        stroke: #00bfa5;
      }
    </style>
  </defs>
  <title>icons</title>
  <path class="b5936370-8081-4c2c-b80c-57a094ecfcd4" d="M45.92,21H59a4,4,0,0,1,4,4V59a4,4,0,0,1-4,4H5a4,4,0,0,1-4-4V25a4,4,0,0,1,4-4H17.55"/>
  <g>
    <path class="b5936370-8081-4c2c-b80c-57a094ecfcd4" d="M26.52,23.41A10.37,10.37,0,0,1,31.63,4.25"/>
    <path class="b5936370-8081-4c2c-b80c-57a094ecfcd4" d="M37.07,5.57A10.37,10.37,0,0,1,32.37,25"/>
    <polyline class="b5936370-8081-4c2c-b80c-57a094ecfcd4" points="29.66 1 32.86 4.2 29.46 7.6"/>
    <polyline class="b5936370-8081-4c2c-b80c-57a094ecfcd4" points="34.04 28.27 30.84 25.07 34.24 21.67"/>
  </g>
  <line class="b00c97c4-0e3b-483a-a061-7730bb078e82" x1="8.35" y1="24.43" x2="8.35" y2="17.26"/>
  <line class="b00c97c4-0e3b-483a-a061-7730bb078e82" x1="15.15" y1="24.43" x2="15.15" y2="17.26"/>
  <line class="b00c97c4-0e3b-483a-a061-7730bb078e82" x1="48.82" y1="24.43" x2="48.82" y2="17.26"/>
  <line class="b00c97c4-0e3b-483a-a061-7730bb078e82" x1="55.63" y1="24.43" x2="55.63" y2="17.26"/>
  <rect class="b00c97c4-0e3b-483a-a061-7730bb078e82" x="10.58" y="34.95" width="8" height="8" rx="2"/>
  <rect class="b00c97c4-0e3b-483a-a061-7730bb078e82" x="28" y="34.95" width="8" height="8" rx="2"/>
  <rect class="b00c97c4-0e3b-483a-a061-7730bb078e82" x="45.42" y="34.95" width="8" height="8" rx="2"/>
  <rect class="b00c97c4-0e3b-483a-a061-7730bb078e82" x="10.58" y="47.93" width="8" height="8" rx="2"/>
  <rect class="b00c97c4-0e3b-483a-a061-7730bb078e82" x="28" y="47.93" width="8" height="8" rx="2"/>
  <rect class="b00c97c4-0e3b-483a-a061-7730bb078e82" x="45.42" y="47.93" width="8" height="8" rx="2"/>
</svg>
