<svg id="bab11478-1cab-45c9-b0fe-bf03f8de47f6" data-name="Layer 1" xmlns="http://www.w3.org/2000/svg" width="64" height="64" viewBox="0 0 64 64">
  <defs>
    <style>
      .ac654a04-1d19-4255-a62a-f4eeaf6d3067, .e3ec99e8-3d36-457e-b4c0-52eca79d9fe9, .f94374e5-1e40-4ad7-8c1e-3fdea60c2de8 {
        fill: none;
        stroke-linejoin: round;
        stroke-width: 2px;
      }

      .ac654a04-1d19-4255-a62a-f4eeaf6d3067, .f94374e5-1e40-4ad7-8c1e-3fdea60c2de8 {
        stroke: #007aff;
      }

      .e3ec99e8-3d36-457e-b4c0-52eca79d9fe9 {
        stroke: #00bfa5;
      }

      .ac654a04-1d19-4255-a62a-f4eeaf6d3067, .e3ec99e8-3d36-457e-b4c0-52eca79d9fe9 {
        stroke-linecap: round;
      }

      .b1ec8fe0-c175-4263-a5d3-f55bec9a7344 {
        fill: #007aff;
      }
    </style>
  </defs>
  <title>icons</title>
  <g>
    <line class="f94374e5-1e40-4ad7-8c1e-3fdea60c2de8" x1="32.01" y1="55.13" x2="32.01" y2="63"/>
    <line class="e3ec99e8-3d36-457e-b4c0-52eca79d9fe9" x1="0.99" y1="49" x2="63.01" y2="49"/>
    <path class="ac654a04-1d19-4255-a62a-f4eeaf6d3067" d="M50.05,13.33l9.66.28a3.32,3.32,0,0,1,3.3,3.3V51.82a3.32,3.32,0,0,1-3.3,3.31H4.29A3.32,3.32,0,0,1,1,51.82V16.91a3.32,3.32,0,0,1,3.3-3.3H14"/>
    <line class="e3ec99e8-3d36-457e-b4c0-52eca79d9fe9" x1="19.73" y1="63" x2="44.28" y2="63"/>
  </g>
  <g>
    <circle class="e3ec99e8-3d36-457e-b4c0-52eca79d9fe9" cx="32" cy="10.66" r="3.89"/>
    <path class="e3ec99e8-3d36-457e-b4c0-52eca79d9fe9" d="M24.92,23.29a7.13,7.13,0,0,1-.17-1.54,7.25,7.25,0,0,1,14.5,0,7.45,7.45,0,0,1-.13,1.35"/>
    <circle class="ac654a04-1d19-4255-a62a-f4eeaf6d3067" cx="32" cy="13.28" r="12.28"/>
  </g>
  <rect class="ac654a04-1d19-4255-a62a-f4eeaf6d3067" x="10.43" y="32.49" width="43.13" height="9.94" rx="1.8"/>
  <g>
    <circle class="b1ec8fe0-c175-4263-a5d3-f55bec9a7344" cx="21.59" cy="37.46" r="1"/>
    <circle class="b1ec8fe0-c175-4263-a5d3-f55bec9a7344" cx="28.53" cy="37.46" r="1"/>
    <circle class="b1ec8fe0-c175-4263-a5d3-f55bec9a7344" cx="35.47" cy="37.46" r="1"/>
    <circle class="b1ec8fe0-c175-4263-a5d3-f55bec9a7344" cx="42.41" cy="37.46" r="1"/>
  </g>
</svg>
