<svg id="eafb6e89-6acf-4a15-837e-60f450b6216a" data-name="Layer 1" xmlns="http://www.w3.org/2000/svg" width="64" height="64" viewBox="0 0 64 64">
  <defs>
    <style>
      .aa57bcae-b85e-4fb7-86c9-5bdb1779a8db, .b99e94a8-273d-4eac-b7b3-1f0c22ca0c5b, .f1a9ccab-f91e-40d1-b01d-55bea499b86c {
        fill: none;
        stroke-linejoin: round;
        stroke-width: 2px;
      }

      .aa57bcae-b85e-4fb7-86c9-5bdb1779a8db, .b99e94a8-273d-4eac-b7b3-1f0c22ca0c5b {
        stroke: #007aff;
      }

      .f1a9ccab-f91e-40d1-b01d-55bea499b86c {
        stroke: #00bfa5;
      }

      .aa57bcae-b85e-4fb7-86c9-5bdb1779a8db, .f1a9ccab-f91e-40d1-b01d-55bea499b86c {
        stroke-linecap: round;
      }
    </style>
  </defs>
  <title>icons</title>
  <g>
    <g>
      <line class="b99e94a8-273d-4eac-b7b3-1f0c22ca0c5b" x1="32.01" y1="52.7" x2="32.01" y2="60.57"/>
      <line class="f1a9ccab-f91e-40d1-b01d-55bea499b86c" x1="0.99" y1="46.57" x2="63.01" y2="46.57"/>
      <path class="aa57bcae-b85e-4fb7-86c9-5bdb1779a8db" d="M45.1,11.18H59.71a3.32,3.32,0,0,1,3.3,3.3V49.39a3.32,3.32,0,0,1-3.3,3.31H4.29A3.32,3.32,0,0,1,1,49.39V14.48a3.32,3.32,0,0,1,3.3-3.3h14.6"/>
      <line class="f1a9ccab-f91e-40d1-b01d-55bea499b86c" x1="19.73" y1="60.57" x2="44.28" y2="60.57"/>
    </g>
    <path class="aa57bcae-b85e-4fb7-86c9-5bdb1779a8db" d="M40.17,11.59a8.17,8.17,0,1,0-15.75,3h0l0,.1a1,1,0,0,1,.07.15l5.65,12.92a2,2,0,0,0,3.66,0l5.65-12.92.07-.16,0-.09h0A8.26,8.26,0,0,0,40.17,11.59Z"/>
    <circle class="f1a9ccab-f91e-40d1-b01d-55bea499b86c" cx="32" cy="11.37" r="3.4"/>
    <line class="f1a9ccab-f91e-40d1-b01d-55bea499b86c" x1="20.06" y1="35.59" x2="43.94" y2="35.59"/>
  </g>
</svg>
