<svg id="f5958e3e-e448-4666-bfb6-5a31ee530341" data-name="Layer 1" xmlns="http://www.w3.org/2000/svg" width="64" height="64" viewBox="0 0 64 64">
  <defs>
    <style>
      .e2ebaaaf-0d8a-406b-b829-4cc861ccd67e, .f74db340-1288-4142-943b-f5908e645cf3, .fad78486-4d35-42a1-b3cd-473fb308005e {
        fill: none;
        stroke-linejoin: round;
        stroke-width: 2px;
      }

      .e2ebaaaf-0d8a-406b-b829-4cc861ccd67e, .f74db340-1288-4142-943b-f5908e645cf3 {
        stroke: #007aff;
      }

      .fad78486-4d35-42a1-b3cd-473fb308005e {
        stroke: #00bfa5;
      }

      .e2ebaaaf-0d8a-406b-b829-4cc861ccd67e, .fad78486-4d35-42a1-b3cd-473fb308005e {
        stroke-linecap: round;
      }
    </style>
  </defs>
  <title>icons</title>
  <g>
    <line class="f74db340-1288-4142-943b-f5908e645cf3" x1="32.01" y1="55.13" x2="32.01" y2="63"/>
    <line class="fad78486-4d35-42a1-b3cd-473fb308005e" x1="0.99" y1="49" x2="63.01" y2="49"/>
    <path class="e2ebaaaf-0d8a-406b-b829-4cc861ccd67e" d="M42.33,13.61H59.71a3.32,3.32,0,0,1,3.3,3.3V51.82a3.32,3.32,0,0,1-3.3,3.31H4.29A3.32,3.32,0,0,1,1,51.82V16.91a3.32,3.32,0,0,1,3.3-3.3h16.8"/>
    <line class="fad78486-4d35-42a1-b3cd-473fb308005e" x1="19.73" y1="63" x2="44.28" y2="63"/>
  </g>
  <g>
    <circle class="fad78486-4d35-42a1-b3cd-473fb308005e" cx="32" cy="33.86" r="2.77"/>
    <path class="fad78486-4d35-42a1-b3cd-473fb308005e" d="M38.25,30.71,40,28.53l-.47-.48L38,26.54l-.47-.49L35.31,27.7a6,6,0,0,0-1.11-.48l-.34-2.74h-.68l-2.11,0H30.4L30,27.16a6.92,6.92,0,0,0-1.14.45l-2.18-1.7-.48.47-1.51,1.47-.48.48,1.64,2.22a6,6,0,0,0-.49,1.14L22.62,32v.67l0,2.11v.68l2.74.41A6.67,6.67,0,0,0,25.75,37l-1.7,2.18.47.49L26,41.2l.47.48L28.69,40a7.38,7.38,0,0,0,1.16.5l.34,2.71h.67l2.11,0h.68l.41-2.74a7.88,7.88,0,0,0,1.1-.44l2.18,1.7.48-.47,1.51-1.47.49-.47-1.65-2.23a7.26,7.26,0,0,0,.51-1.23l2.68-.33v-.68l0-2.1v-.68l-2.74-.41A6.9,6.9,0,0,0,38.25,30.71Z"/>
  </g>
  <g>
    <line class="fad78486-4d35-42a1-b3cd-473fb308005e" x1="31.71" y1="1" x2="31.71" y2="18.8"/>
    <polyline class="fad78486-4d35-42a1-b3cd-473fb308005e" points="35.95 14.56 31.71 18.8 27.19 14.28"/>
  </g>
</svg>
