<svg id="add2421b-ced8-4e22-b0c3-c6f6188fc499" data-name="Layer 1" xmlns="http://www.w3.org/2000/svg" width="64" height="64" viewBox="0 0 64 64">
  <defs>
    <style>
      .b196525f-c024-41c1-886e-1988794b1b2e, .f29b8b2e-cd9a-4149-bc08-1ddab5e86cb6 {
        fill: none;
        stroke-linecap: round;
        stroke-linejoin: round;
        stroke-width: 2px;
      }

      .b196525f-c024-41c1-886e-1988794b1b2e {
        stroke: #007aff;
      }

      .f29b8b2e-cd9a-4149-bc08-1ddab5e86cb6 {
        stroke: #00bfa5;
      }
    </style>
  </defs>
  <title>icons</title>
  <g>
    <circle class="b196525f-c024-41c1-886e-1988794b1b2e" cx="20.85" cy="20.81" r="6.09"/>
    <circle class="f29b8b2e-cd9a-4149-bc08-1ddab5e86cb6" cx="47.15" cy="47.17" r="4.6"/>
    <path class="b196525f-c024-41c1-886e-1988794b1b2e" d="M36.87,20.59l3.78-1.65-.39-1.35-1.19-4.22L38.69,12l-4.08.57A15.36,15.36,0,0,0,32,9.31l1.5-3.81-1.23-.69L28.46,2.67,27.24,2,24.78,5.25a16,16,0,0,0-4.16-.49L19,1l-1.35.38L13.4,2.58,12.05,3,12.62,7A15.77,15.77,0,0,0,9.3,9.65L5.5,8.16,4.81,9.39,2.67,13.21,2,14.44,5.26,16.9A15.48,15.48,0,0,0,4.79,21L1,22.69,1.4,24l1.19,4.22L3,29.61,7.05,29a15.71,15.71,0,0,0,2.66,3.33L8.23,36.15l1.22.69L13.28,39l1.23.68L17,36.39a16,16,0,0,0,4.1.46l1.65,3.77,1.35-.39L28.29,39l1.35-.38-.57-4.08a16.17,16.17,0,0,0,3.43-2.76l3.71,1.44L36.89,32,39,28.21,39.71,27l-3.26-2.46A15.71,15.71,0,0,0,36.87,20.59Z"/>
    <path class="f29b8b2e-cd9a-4149-bc08-1ddab5e86cb6" d="M58.78,47.52,63,45.68l-.31-1.08-1-3.37-.31-1.08-4.55.64a10.73,10.73,0,0,0-1.25-1.58l1.67-4.27-1-.55-3.06-1.71-1-.54L49.52,35.8a11.27,11.27,0,0,0-2-.25l-1.84-4.2-1.08.3-3.37,1-1.08.3.64,4.54a11.26,11.26,0,0,0-1.62,1.28L34.9,37.07l-.55,1-1.7,3.06-.55,1,3.67,2.76a11.89,11.89,0,0,0-.24,2l-4.21,1.84.31,1.08.95,3.37.31,1.08,4.56-.64a11.27,11.27,0,0,0,1.29,1.63l-1.65,4.24,1,.54,3.06,1.71,1,.55,2.77-3.67a12.66,12.66,0,0,0,2,.23L48.66,63l1.08-.31,3.37-.95,1.08-.31-.64-4.55a11.56,11.56,0,0,0,1.72-1.38l4.17,1.63.55-1,1.7-3.06.55-1-3.67-2.77A12.22,12.22,0,0,0,58.78,47.52Z"/>
  </g>
</svg>
