<svg width="64" height="64" viewBox="0 0 64 64" fill="none" xmlns="http://www.w3.org/2000/svg">
<g clip-path="url(#clip0)">
<path d="M59 58.1801H5C3.67392 58.1801 2.40215 57.6533 1.46447 56.7156C0.526784 55.7779 0 54.5061 0 53.1801L0 40.1801C0 38.854 0.526784 37.5822 1.46447 36.6445C2.40215 35.7068 3.67392 35.1801 5 35.1801H59C60.3261 35.1801 61.5979 35.7068 62.5355 36.6445C63.4732 37.5822 64 38.854 64 40.1801V53.1801C64 54.5061 63.4732 55.7779 62.5355 56.7156C61.5979 57.6533 60.3261 58.1801 59 58.1801ZM5 37.2101C4.20435 37.2101 3.44129 37.5261 2.87868 38.0887C2.31607 38.6513 2 39.4144 2 40.2101V53.2101C2 54.0057 2.31607 54.7688 2.87868 55.3314C3.44129 55.894 4.20435 56.2101 5 56.2101H59C59.7957 56.2101 60.5587 55.894 61.1213 55.3314C61.6839 54.7688 62 54.0057 62 53.2101V40.2101C62 39.4144 61.6839 38.6513 61.1213 38.0887C60.5587 37.5261 59.7957 37.2101 59 37.2101H5Z" fill="#007AFF"/>
<path d="M40 47.7H11C10.7348 47.7 10.4804 47.5946 10.2929 47.4071C10.1054 47.2195 10 46.9652 10 46.7C10 46.4347 10.1054 46.1804 10.2929 45.9928C10.4804 45.8053 10.7348 45.7 11 45.7H40C40.2652 45.7 40.5196 45.8053 40.7071 45.9928C40.8946 46.1804 41 46.4347 41 46.7C41 46.9652 40.8946 47.2195 40.7071 47.4071C40.5196 47.5946 40.2652 47.7 40 47.7Z" fill="#00BFA5"/>
<path d="M51.48 49.3C52.9159 49.3 54.08 48.1359 54.08 46.7C54.08 45.264 52.9159 44.1 51.48 44.1C50.0441 44.1 48.88 45.264 48.88 46.7C48.88 48.1359 50.0441 49.3 51.48 49.3Z" fill="white"/>
<path d="M51.48 50.2999C50.7652 50.3019 50.0658 50.0916 49.4706 49.6957C48.8754 49.2998 48.4112 48.7361 48.1367 48.0761C47.8623 47.416 47.7899 46.6893 47.9289 45.9881C48.0679 45.2869 48.4119 44.6428 48.9174 44.1373C49.4228 43.6318 50.067 43.2878 50.7682 43.1488C51.4694 43.0099 52.1961 43.0822 52.8561 43.3567C53.5162 43.6311 54.0799 44.0954 54.4758 44.6906C54.8717 45.2858 55.082 45.9851 55.08 46.6999C55.0774 47.6539 54.6972 48.5681 54.0227 49.2426C53.3481 49.9172 52.434 50.2973 51.48 50.2999ZM51.48 45.0899C51.1612 45.088 50.8489 45.1807 50.5828 45.3564C50.3167 45.5321 50.1088 45.7829 49.9854 46.0769C49.8621 46.3709 49.8287 46.6949 49.8897 47.0079C49.9507 47.3208 50.1033 47.6086 50.328 47.8348C50.5528 48.061 50.8396 48.2153 51.1522 48.2782C51.4648 48.3412 51.789 48.3099 52.0838 48.1883C52.3786 48.0668 52.6306 47.8604 52.808 47.5954C52.9853 47.3305 53.08 47.0188 53.08 46.6999C53.08 46.2747 52.9118 45.8667 52.612 45.565C52.3122 45.2634 51.9053 45.0926 51.48 45.0899Z" fill="#00BFA5"/>
<path d="M32 27.83C31.2856 27.832 30.5866 27.6219 29.9917 27.2264C29.3967 26.831 28.9324 26.2679 28.6577 25.6084C28.3829 24.9489 28.31 24.2228 28.4481 23.5218C28.5863 22.8209 28.9293 22.1767 29.4338 21.6709C29.9383 21.165 30.5815 20.8202 31.282 20.6801C31.9826 20.54 32.7089 20.6109 33.3692 20.8838C34.0294 21.1568 34.5938 21.6195 34.9909 22.2133C35.388 22.8072 35.6 23.5056 35.6 24.22C35.6 25.1757 35.221 26.0924 34.5462 26.7691C33.8713 27.4458 32.9557 27.8273 32 27.83ZM32 22.62C31.6807 22.618 31.3681 22.711 31.1018 22.8871C30.8355 23.0633 30.6276 23.3146 30.5045 23.6092C30.3814 23.9038 30.3487 24.2284 30.4105 24.5416C30.4723 24.8548 30.6258 25.1426 30.8516 25.3684C31.0774 25.5941 31.3651 25.7477 31.6784 25.8095C31.9916 25.8713 32.3162 25.8386 32.6108 25.7155C32.9053 25.5924 33.1567 25.3845 33.3328 25.1182C33.509 24.8519 33.602 24.5392 33.6 24.22C33.6 23.7956 33.4314 23.3887 33.1314 23.0886C32.8313 22.7885 32.4243 22.62 32 22.62Z" fill="#00BFA5"/>
<path d="M61.82 38.41C61.5577 38.4089 61.3063 38.3048 61.12 38.12L50.12 27.12C49.5214 26.5181 48.8091 26.041 48.0246 25.7166C47.2401 25.3921 46.3989 25.2267 45.55 25.23H37.76C37.4948 25.23 37.2404 25.1247 37.0529 24.9372C36.8654 24.7496 36.76 24.4953 36.76 24.23C36.76 23.9648 36.8654 23.7105 37.0529 23.5229C37.2404 23.3354 37.4948 23.23 37.76 23.23H45.54C46.6545 23.2258 47.7587 23.4428 48.7886 23.8685C49.8186 24.2942 50.7538 24.9202 51.54 25.71L62.54 36.71C62.681 36.8499 62.7772 37.0286 62.8163 37.2234C62.8554 37.4181 62.8355 37.6201 62.7594 37.8035C62.6832 37.987 62.5541 38.1436 62.3886 38.2534C62.2231 38.3632 62.0286 38.4212 61.83 38.42L61.82 38.41Z" fill="#007AFF"/>
<path d="M2.18 38.4099C2.04839 38.4107 1.91793 38.3855 1.79609 38.3357C1.67426 38.286 1.56344 38.2126 1.47 38.1199C1.37627 38.027 1.30188 37.9164 1.25111 37.7945C1.20034 37.6727 1.1742 37.542 1.1742 37.4099C1.1742 37.2779 1.20034 37.1472 1.25111 37.0254C1.30188 36.9035 1.37627 36.7929 1.47 36.6999L12.47 25.6999C13.2555 24.9092 14.1906 24.2826 15.2207 23.8568C16.2508 23.4311 17.3554 23.2146 18.47 23.2199H25.88C26.1452 23.2199 26.3996 23.3253 26.5871 23.5128C26.7746 23.7004 26.88 23.9547 26.88 24.2199C26.88 24.4852 26.7746 24.7395 26.5871 24.9271C26.3996 25.1146 26.1452 25.2199 25.88 25.2199H18.46C17.611 25.2167 16.7699 25.382 15.9854 25.7065C15.2009 26.0309 14.4886 26.508 13.89 27.1099L2.89 38.1099C2.79739 38.2044 2.68694 38.2796 2.56507 38.3311C2.44319 38.3826 2.31231 38.4094 2.18 38.4099Z" fill="#007AFF"/>
<path d="M37.36 20.2099C37.2236 20.2108 37.0885 20.1837 36.963 20.1304C36.8374 20.0771 36.7241 19.9987 36.63 19.8999C36.0385 19.2633 35.322 18.7555 34.5254 18.4082C33.7287 18.061 32.869 17.8818 32 17.8818C31.131 17.8818 30.2713 18.061 29.4746 18.4082C28.678 18.7555 27.9615 19.2633 27.37 19.8999C27.28 19.9958 27.1721 20.073 27.0523 20.1272C26.9325 20.1813 26.8032 20.2113 26.6718 20.2155C26.5404 20.2197 26.4095 20.1979 26.2865 20.1515C26.1635 20.1051 26.0509 20.0349 25.955 19.9449C25.8591 19.855 25.7819 19.747 25.7278 19.6272C25.6736 19.5075 25.6436 19.3782 25.6394 19.2468C25.6353 19.1154 25.657 18.9844 25.7034 18.8615C25.7499 18.7385 25.82 18.6258 25.91 18.53C26.6886 17.6935 27.6312 17.0264 28.679 16.5702C29.7267 16.1141 30.8572 15.8787 32 15.8787C33.1428 15.8787 34.2733 16.1141 35.321 16.5702C36.3688 17.0264 37.3114 17.6935 38.09 18.53C38.186 18.6297 38.2603 18.7482 38.3081 18.8782C38.356 19.0081 38.3763 19.1465 38.3678 19.2847C38.3594 19.4229 38.3223 19.5578 38.259 19.6809C38.1957 19.8041 38.1075 19.9127 38 19.9999C37.8174 20.1419 37.5912 20.2161 37.36 20.2099Z" fill="#00BFA5"/>
<path d="M23 16.8499C22.7474 16.8491 22.5044 16.7526 22.32 16.5799C22.127 16.3993 22.0133 16.1495 22.0039 15.8853C21.9946 15.621 22.0902 15.3638 22.27 15.1699C23.5106 13.8419 25.0109 12.783 26.6778 12.0591C28.3447 11.3351 30.1427 10.9615 31.96 10.9615C33.7773 10.9615 35.5753 11.3351 37.2422 12.0591C38.9091 12.783 40.4094 13.8419 41.65 15.1699C41.8317 15.3636 41.929 15.6214 41.9206 15.8868C41.9121 16.1521 41.7986 16.4033 41.605 16.5849C41.4114 16.7666 41.1535 16.8639 40.8882 16.8555C40.6228 16.8471 40.3717 16.7336 40.19 16.5399C39.1373 15.4104 37.8633 14.5096 36.4474 13.8937C35.0316 13.2778 33.504 12.96 31.96 12.96C30.416 12.96 28.8884 13.2778 27.4725 13.8937C26.0567 14.5096 24.7827 15.4104 23.73 16.5399C23.6359 16.6387 23.5226 16.7171 23.397 16.7704C23.2715 16.8237 23.1364 16.8508 23 16.8499Z" fill="#00BFA5"/>
<path d="M19.28 13.33C19.0287 13.3319 18.7859 13.2391 18.6 13.07C18.5029 12.9804 18.4246 12.8725 18.3695 12.7524C18.3144 12.6323 18.2836 12.5025 18.2789 12.3705C18.2743 12.2384 18.2958 12.1068 18.3424 11.9831C18.3889 11.8595 18.4595 11.7463 18.55 11.65C20.2666 9.79998 22.3481 8.32584 24.663 7.32068C26.978 6.31551 29.4762 5.80115 32 5.81005C34.5217 5.8143 37.0159 6.33462 39.329 7.33896C41.6421 8.34331 43.7252 9.81045 45.45 11.65C45.5608 11.7403 45.6509 11.8533 45.7143 11.9813C45.7778 12.1093 45.8131 12.2495 45.8178 12.3923C45.8225 12.5351 45.7965 12.6773 45.7417 12.8092C45.6868 12.9411 45.6043 13.0598 45.4997 13.1572C45.3951 13.2545 45.2709 13.3284 45.1354 13.3737C44.9999 13.419 44.8562 13.4347 44.7141 13.4198C44.572 13.4049 44.4347 13.3598 44.3115 13.2874C44.1884 13.2149 44.0821 13.117 44 13.0001C42.4653 11.3526 40.6079 10.0388 38.5434 9.14051C36.4789 8.2422 34.2515 7.7786 32 7.7786C29.7485 7.7786 27.5211 8.2422 25.4566 9.14051C23.3921 10.0388 21.5347 11.3526 20 13.0001C19.9088 13.1012 19.7979 13.1826 19.6741 13.2394C19.5503 13.2961 19.4162 13.327 19.28 13.33Z" fill="#00BFA5"/>
</g>
<defs>
<clipPath id="clip0">
<rect width="64" height="64" fill="white"/>
</clipPath>
</defs>
</svg>
