<svg width="40" height="40" viewBox="0 0 40 40" fill="none" xmlns="http://www.w3.org/2000/svg">
<g clip-path="url(#clip0)">
<path d="M32.0908 15.8792L24.1358 7.92426L4.22371 27.8364L12.1787 35.7913L32.0908 15.8792Z" stroke="#007AFF" stroke-width="2" stroke-linecap="round" stroke-linejoin="round"/>
<path d="M29.4462 13.2105L26.8016 10.5659L6.87537 30.4922L9.51995 33.1368L29.4462 13.2105Z" stroke="#007AFF" stroke-width="2" stroke-linecap="round" stroke-linejoin="round"/>
<path d="M12.17 35.79L4.22 27.83L1 39L12.17 35.79Z" stroke="#007AFF" stroke-width="2" stroke-linecap="round" stroke-linejoin="round"/>
<path d="M34.7618 13.2071L26.7927 5.23804L24.1693 7.8614L32.1384 15.8305L34.7618 13.2071Z" stroke="#00BFA5" stroke-width="2" stroke-linecap="round" stroke-linejoin="round"/>
<path d="M36.3683 2.38074L37.5987 3.61111C38.4895 4.5019 38.9899 5.71008 38.9899 6.96986C38.9899 8.22964 38.4895 9.43782 37.5987 10.3286L34.7702 13.157L26.8294 5.21624L29.6578 2.38781C30.5474 1.49823 31.7536 0.997888 33.0116 0.996562C34.2697 0.995236 35.4768 1.49304 36.3683 2.38074V2.38074Z" stroke="#00BFA5" stroke-width="2" stroke-linecap="round" stroke-linejoin="round"/>
</g>
<defs>
<clipPath id="clip0">
<rect width="40" height="40" fill="white"/>
</clipPath>
</defs>
</svg>
