<svg width="64" height="64" viewBox="0 0 64 64" fill="none" xmlns="http://www.w3.org/2000/svg">
<g clip-path="url(#clip0)">
<path d="M32 1L5.67001 7.7V25.64C5.67001 53.58 32 63.06 32 63.06C32 63.06 58.33 52.81 58.33 25.64V7.7L32 1Z" stroke="#007AFF" stroke-width="2" stroke-linejoin="round"/>
<path d="M31.94 58.08C26.63 55.64 10.25 46.44 10.25 25.64V11.25L32 5.67004L53.75 11.25V25.64C53.75 45.89 37.26 55.5 31.94 58.08Z" stroke="#00BFA5" stroke-width="2" stroke-linecap="round" stroke-linejoin="round"/>
<path d="M33.0585 18.6659L35.4963 23.8569C35.5819 24.0423 35.7095 24.2028 35.868 24.3243C36.0265 24.4458 36.2109 24.5245 36.4051 24.5535L41.858 25.3849C42.1024 25.4012 42.3365 25.4944 42.5297 25.6524C42.7229 25.8104 42.8664 26.026 42.9414 26.2709C43.0164 26.5159 43.0195 26.7789 42.9502 27.0257C42.8809 27.2725 42.7425 27.4916 42.553 27.6546L38.6077 31.6883C38.4679 31.8325 38.363 32.0097 38.3017 32.2051C38.2403 32.4005 38.2242 32.6086 38.2548 32.8118L39.1957 38.5197C39.2308 38.7536 39.2035 38.9932 39.1168 39.2118C39.0301 39.4304 38.8875 39.6195 38.7047 39.758C38.5219 39.8965 38.3061 39.9791 38.0814 39.9965C37.8566 40.014 37.6317 39.9656 37.4315 39.8567L32.556 37.1714C32.3821 37.072 32.1872 37.02 31.9893 37.02C31.7914 37.02 31.5965 37.072 31.4226 37.1714L26.5471 39.8567C26.3469 39.9656 26.122 40.014 25.8972 39.9965C25.6725 39.9791 25.4567 39.8965 25.2739 39.758C25.0911 39.6195 24.9485 39.4304 24.8618 39.2118C24.7751 38.9932 24.7478 38.7536 24.7829 38.5197L25.7238 32.8118C25.7544 32.6086 25.7383 32.4005 25.6769 32.2051C25.6156 32.0097 25.5107 31.8325 25.3709 31.6883L21.4256 27.6546C21.2443 27.4912 21.1126 27.2755 21.047 27.0342C20.9813 26.7929 20.9846 26.5366 21.0563 26.2973C21.1281 26.0579 21.2652 25.8459 21.4506 25.6877C21.636 25.5295 21.8615 25.4321 22.0992 25.4074L27.5521 24.576C27.7463 24.5469 27.9307 24.4682 28.0892 24.3468C28.2477 24.2253 28.3753 24.0648 28.4609 23.8793L30.9201 18.6659C31.0251 18.4643 31.1798 18.2961 31.3679 18.179C31.556 18.0618 31.7706 18 31.9893 18C32.208 18 32.4226 18.0618 32.6107 18.179C32.7989 18.2961 32.9535 18.4643 33.0585 18.6659Z" stroke="#00BFA5" stroke-width="2" stroke-linejoin="round"/>
</g>
<defs>
<clipPath id="clip0">
<rect width="64" height="64" fill="white"/>
</clipPath>
</defs>
</svg>
