<svg width="40" height="40" viewBox="0 0 40 40" fill="none" xmlns="http://www.w3.org/2000/svg">
<path d="M29.17 3.42999C29.17 3.42999 31.39 13.43 27.93 13.85C24.47 14.27 22.43 16.13 22.12 19.12C21.81 22.11 23.85 24.4 22.12 28.36C20.39 32.32 18.82 23.36 15.52 21.47C12.22 19.58 6.87999 19.79 6.99999 17.65C7.11999 15.51 1.28999 16.81 1.48999 16" stroke="#00BFA5" stroke-width="2" stroke-linecap="round" stroke-linejoin="round"/>
<path d="M38.58 23.72C38.58 23.72 36.73 20.31 34.06 21.44C31.39 22.57 31.39 26.5 29.06 27.6C26.73 28.7 23.37 33.1 25.57 34C27.77 34.9 23.23 35.8 23.38 38.6" stroke="#00BFA5" stroke-width="2" stroke-linecap="round" stroke-linejoin="round"/>
<path d="M12 37.15C12 37.15 15.57 36.09 13.37 33.15C11.17 30.21 9.85999 31 9.22999 28.36C8.59999 25.72 3.85999 29.92 3.85999 29.92" stroke="#00BFA5" stroke-width="2" stroke-linecap="round" stroke-linejoin="round"/>
<path d="M20 38.94C30.4603 38.94 38.94 30.4603 38.94 20C38.94 9.53973 30.4603 1.06 20 1.06C9.53973 1.06 1.06 9.53973 1.06 20C1.06 30.4603 9.53973 38.94 20 38.94Z" stroke="#007AFF" stroke-width="2" stroke-linecap="round" stroke-linejoin="round"/>
</svg>
