<svg width="40" height="40" viewBox="0 0 40 40" fill="none" xmlns="http://www.w3.org/2000/svg">
<g clip-path="url(#clip0)">
<path d="M11.1 13.27H3.84C2.27151 13.27 1 14.5415 1 16.11V36.16C1 37.7285 2.27151 39 3.84 39H11.1C12.6685 39 13.94 37.7285 13.94 36.16V16.11C13.94 14.5415 12.6685 13.27 11.1 13.27Z" stroke="#007AFF" stroke-width="2" stroke-linecap="round" stroke-linejoin="round"/>
<path d="M7.38001 21.79C8.51771 21.79 9.44001 20.8767 9.44001 19.75C9.44001 18.6234 8.51771 17.71 7.38001 17.71C6.2423 17.71 5.32001 18.6234 5.32001 19.75C5.32001 20.8767 6.2423 21.79 7.38001 21.79Z" stroke="#00BFA5" stroke-width="2" stroke-linecap="round" stroke-linejoin="round"/>
<path d="M28.21 15.88C28.34 14.72 28.84 10.57 29.35 6.32C29.4266 5.48995 29.337 4.65295 29.0863 3.85796C28.8356 3.06297 28.4289 2.32594 27.89 1.69C27.6921 1.42618 27.423 1.2244 27.1143 1.10843C26.8056 0.992462 26.4702 0.967139 26.1476 1.03544C25.825 1.10375 25.5286 1.26284 25.2934 1.49397C25.0582 1.72509 24.8939 2.01863 24.82 2.34L24.37 4.34L21.28 12L14.21 15.88V37.17H32C33.2434 37.1704 34.446 36.7261 35.3905 35.9174C36.335 35.1086 36.9591 33.9887 37.15 32.76L38.9 21.33C39.0008 20.6535 38.9543 19.9632 38.7637 19.3064C38.5731 18.6495 38.2429 18.0416 37.7957 17.5241C37.3485 17.0066 36.7948 16.5918 36.1725 16.3081C35.5502 16.0243 34.8739 15.8783 34.19 15.88H28.21Z" stroke="#007AFF" stroke-width="2" stroke-linecap="round" stroke-linejoin="round"/>
</g>
<defs>
<clipPath id="clip0">
<rect width="40" height="40" fill="white"/>
</clipPath>
</defs>
</svg>
