<svg width="64" height="64" viewBox="0 0 64 64" fill="none" xmlns="http://www.w3.org/2000/svg">
<path d="M14.88 32.82V26.67C14.8532 22.0917 16.6382 17.6886 19.8455 14.4214C23.0527 11.1542 27.422 9.28799 32 9.22998V9.22998C36.5788 9.28538 40.9496 11.1507 44.1574 14.4185C47.3653 17.6863 49.1494 22.0909 49.12 26.67V32.82" stroke="#00BFA5" stroke-width="2" stroke-linecap="round" stroke-linejoin="round"/>
<path d="M7.87 26.6701C7.81668 20.2117 10.3272 13.9958 14.8508 9.38596C19.3744 4.77612 25.5418 2.14871 32 2.08008C38.4592 2.14871 44.6275 4.7758 49.1527 9.38535C53.6779 13.9949 56.1907 20.2108 56.14 26.6701" stroke="#007AFF" stroke-width="2" stroke-linecap="round" stroke-linejoin="round"/>
<path d="M62.91 41.72C62.9706 41.3228 63.0006 40.9217 63 40.52V35.61C63.0134 33.4703 62.1796 31.4122 60.6807 29.8852C59.1818 28.3582 57.1396 27.4863 55 27.46H51.79C51.0765 27.4705 50.3959 27.762 49.896 28.2713C49.3962 28.7805 49.1173 29.4664 49.12 30.18V46C49.1147 46.7143 49.3927 47.4017 49.8931 47.9115C50.3936 48.4213 51.0757 48.712 51.79 48.72H55C56.9396 48.6986 58.8067 47.9793 60.2593 46.6938C61.7119 45.4083 62.6529 43.6426 62.91 41.72" stroke="#007AFF" stroke-width="2" stroke-linecap="round" stroke-linejoin="round"/>
<path d="M1.09001 41.72C1.02946 41.3228 0.999375 40.9217 1.00001 40.52V35.61C0.986635 33.4703 1.82044 31.4122 3.31933 29.8852C4.81823 28.3582 6.86044 27.4863 9.00001 27.46H12.21C12.9235 27.4705 13.6041 27.762 14.104 28.2713C14.6039 28.7805 14.8827 29.4664 14.88 30.18V46C14.8853 46.7143 14.6073 47.4017 14.1069 47.9115C13.6065 48.4213 12.9244 48.712 12.21 48.72H9.00001C7.06037 48.6986 5.19332 47.9793 3.7407 46.6938C2.28807 45.4083 1.34708 43.6426 1.09001 41.72" stroke="#007AFF" stroke-width="2" stroke-linecap="round" stroke-linejoin="round"/>
<path d="M55.67 40.8501V53.3201L50.38 58.7601H40.17" stroke="#00BFA5" stroke-width="2" stroke-linecap="round" stroke-linejoin="round"/>
<path d="M37.04 55.6001H27.01C25.2814 55.6001 23.88 57.0014 23.88 58.7301V58.7801C23.88 60.5087 25.2814 61.9101 27.01 61.9101H37.04C38.7687 61.9101 40.17 60.5087 40.17 58.7801V58.7301C40.17 57.0014 38.7687 55.6001 37.04 55.6001Z" stroke="#00BFA5" stroke-width="2" stroke-linecap="round" stroke-linejoin="round"/>
<path d="M42.73 31.4601C43.2627 32.8205 43.5341 34.2692 43.53 35.7301C43.528 38.4426 42.5963 41.0725 40.8902 43.1813C39.1841 45.29 36.8068 46.7502 34.1544 47.3184C31.5021 47.8867 28.7352 47.5285 26.3149 46.3038C23.8947 45.079 21.9674 43.0616 20.8544 40.588C19.7414 38.1144 19.5099 35.334 20.1986 32.7103C20.8873 30.0867 22.4546 27.7785 24.639 26.1704C26.8235 24.5624 29.4931 23.7517 32.2029 23.8736C34.9126 23.9954 37.4987 25.0425 39.53 26.8401" stroke="#00BFA5" stroke-width="2" stroke-linecap="round" stroke-linejoin="round"/>
<path d="M39.73 23.27L39.69 27.16L35.56 27.21" stroke="#00BFA5" stroke-width="2" stroke-linecap="round" stroke-linejoin="round"/>
<path d="M31.67 28.3101V36.2601L34.65 39.2401" stroke="#00BFA5" stroke-width="2" stroke-linecap="round" stroke-linejoin="round"/>
</svg>
