<svg width="64" height="64" viewBox="0 0 64 64" fill="none" xmlns="http://www.w3.org/2000/svg">
<g clip-path="url(#clip0)">
<path d="M36.11 45.25V57.54" stroke="#00BFA5" stroke-width="2" stroke-linecap="round" stroke-linejoin="round"/>
<path d="M27.89 57.6902V45.1702" stroke="#00BFA5" stroke-width="2" stroke-linecap="round" stroke-linejoin="round"/>
<path d="M43.4 42.4302V63.1702L32.03 54.6102L20.6 63.1702V42.4602" stroke="#007AFF" stroke-width="2" stroke-linejoin="round"/>
<path d="M32 45.5501C44.3491 45.5501 54.36 35.5392 54.36 23.1901C54.36 10.841 44.3491 0.830078 32 0.830078C19.6509 0.830078 9.64001 10.841 9.64001 23.1901C9.64001 35.5392 19.6509 45.5501 32 45.5501Z" stroke="#007AFF" stroke-width="2" stroke-linejoin="round"/>
<path d="M32 40.0401C41.306 40.0401 48.85 32.4961 48.85 23.1901C48.85 13.8841 41.306 6.34009 32 6.34009C22.694 6.34009 15.15 13.8841 15.15 23.1901C15.15 32.4961 22.694 40.0401 32 40.0401Z" stroke="#00BFA5" stroke-width="2" stroke-linecap="round" stroke-linejoin="round"/>
<path d="M33 14.0001L35.28 18.6201C35.3601 18.7852 35.4795 18.928 35.6277 19.0361C35.7759 19.1442 35.9484 19.2143 36.13 19.2401L41.23 19.9801C41.4586 19.9946 41.6775 20.0775 41.8582 20.2182C42.0389 20.3588 42.1731 20.5506 42.2433 20.7686C42.3134 20.9866 42.3163 21.2207 42.2515 21.4404C42.1867 21.66 42.0572 21.8551 41.88 22.0001L38.19 25.5901C38.0593 25.7185 37.9612 25.8762 37.9038 26.0501C37.8464 26.2241 37.8314 26.4092 37.86 26.5901L38.74 31.6701C38.7728 31.8783 38.7473 32.0916 38.6662 32.2861C38.5851 32.4807 38.4517 32.649 38.2808 32.7722C38.1098 32.8955 37.908 32.969 37.6978 32.9845C37.4876 33.0001 37.2772 32.957 37.09 32.8601L32.53 30.4701C32.3673 30.3817 32.1851 30.3354 32 30.3354C31.8149 30.3354 31.6327 30.3817 31.47 30.4701L26.91 32.8601C26.7228 32.957 26.5124 33.0001 26.3022 32.9845C26.092 32.969 25.8902 32.8955 25.7193 32.7722C25.5483 32.649 25.4149 32.4807 25.3338 32.2861C25.2527 32.0916 25.2272 31.8783 25.26 31.6701L26.14 26.5901C26.1686 26.4092 26.1536 26.2241 26.0962 26.0501C26.0388 25.8762 25.9407 25.7185 25.81 25.5901L22.12 22.0001C21.9504 21.8547 21.8273 21.6627 21.7659 21.448C21.7045 21.2332 21.7075 21.0051 21.7746 20.7921C21.8417 20.579 21.97 20.3904 22.1434 20.2496C22.3168 20.1088 22.5277 20.022 22.75 20.0001L27.85 19.2601C28.0316 19.2343 28.2041 19.1642 28.3523 19.0561C28.5005 18.948 28.6199 18.8052 28.7 18.6401L31 14.0001C31.0982 13.8207 31.2429 13.671 31.4188 13.5668C31.5947 13.4625 31.7955 13.4075 32 13.4075C32.2045 13.4075 32.4053 13.4625 32.5812 13.5668C32.7572 13.671 32.9018 13.8207 33 14.0001Z" stroke="#007AFF" stroke-width="2" stroke-linejoin="round"/>
</g>
<defs>
<clipPath id="clip0">
<rect width="64" height="64" fill="white"/>
</clipPath>
</defs>
</svg>
