<svg width="141" height="45" viewBox="0 0 141 45" fill="none" xmlns="http://www.w3.org/2000/svg">
<rect width="141" height="45" rx="4" fill="#D43B28"/>
<path d="M35.04 29.144C34.176 29.144 33.3653 29.0267 32.608 28.792C31.8507 28.5573 31.2107 28.2267 30.688 27.8L31.376 26.296C31.92 26.712 32.4907 27.016 33.088 27.208C33.696 27.4 34.352 27.496 35.056 27.496C35.8347 27.496 36.432 27.3627 36.848 27.096C37.2747 26.8187 37.488 26.4347 37.488 25.944C37.488 25.5173 37.2907 25.192 36.896 24.968C36.512 24.744 35.8667 24.5307 34.96 24.328C34.0213 24.1253 33.2587 23.8907 32.672 23.624C32.0853 23.3573 31.6427 23.016 31.344 22.6C31.0453 22.184 30.896 21.656 30.896 21.016C30.896 20.3547 31.0773 19.7627 31.44 19.24C31.8027 18.7173 32.3147 18.312 32.976 18.024C33.6373 17.7253 34.4 17.576 35.264 17.576C36.0533 17.576 36.8053 17.6987 37.52 17.944C38.2347 18.1787 38.8213 18.504 39.28 18.92L38.592 20.424C37.5893 19.624 36.48 19.224 35.264 19.224C34.5387 19.224 33.9627 19.3733 33.536 19.672C33.12 19.96 32.912 20.3653 32.912 20.888C32.912 21.3253 33.0987 21.6613 33.472 21.896C33.8453 22.1307 34.48 22.3493 35.376 22.552C36.3253 22.7653 37.0933 23.0053 37.68 23.272C38.2773 23.528 38.7307 23.8587 39.04 24.264C39.36 24.6693 39.52 25.1813 39.52 25.8C39.52 26.472 39.3387 27.064 38.976 27.576C38.624 28.0773 38.1067 28.4667 37.424 28.744C36.752 29.0107 35.9573 29.144 35.04 29.144ZM49.2271 21.176V29H47.2751V27.8C47.0298 28.2267 46.6991 28.5573 46.2831 28.792C45.8671 29.016 45.3978 29.128 44.8751 29.128C42.9551 29.128 41.9951 28.0507 41.9951 25.896V21.176H43.9951V25.912C43.9951 26.4667 44.1071 26.8773 44.3311 27.144C44.5551 27.4107 44.9071 27.544 45.3871 27.544C45.9418 27.544 46.3845 27.3627 46.7151 27C47.0565 26.6267 47.2271 26.136 47.2271 25.528V21.176H49.2271ZM56.6048 20.984C57.2874 20.984 57.8901 21.1493 58.4128 21.48C58.9354 21.8107 59.3408 22.28 59.6288 22.888C59.9274 23.496 60.0768 24.2053 60.0768 25.016C60.0768 25.8267 59.9274 26.5467 59.6288 27.176C59.3408 27.7947 58.9301 28.2747 58.3968 28.616C57.8741 28.9573 57.2768 29.128 56.6048 29.128C56.0394 29.128 55.5328 29.0053 55.0848 28.76C54.6474 28.5147 54.3114 28.1733 54.0768 27.736V29H52.1088V17.72H54.1088V22.312C54.3434 21.8853 54.6794 21.56 55.1168 21.336C55.5541 21.1013 56.0501 20.984 56.6048 20.984ZM56.0768 27.576C56.7061 27.576 57.1968 27.352 57.5488 26.904C57.9008 26.456 58.0768 25.8267 58.0768 25.016C58.0768 24.216 57.9008 23.6027 57.5488 23.176C57.2074 22.7493 56.7168 22.536 56.0768 22.536C55.4368 22.536 54.9408 22.7547 54.5888 23.192C54.2474 23.6187 54.0768 24.2373 54.0768 25.048C54.0768 25.8587 54.2474 26.4827 54.5888 26.92C54.9408 27.3573 55.4368 27.576 56.0768 27.576ZM65.3981 29.128C64.7048 29.128 64.0648 29.0427 63.4781 28.872C62.9021 28.7013 62.4115 28.456 62.0061 28.136L62.5661 26.744C63.3981 27.352 64.3528 27.656 65.4301 27.656C65.8888 27.656 66.2355 27.5813 66.4701 27.432C66.7155 27.2827 66.8381 27.0693 66.8381 26.792C66.8381 26.5573 66.7528 26.376 66.5821 26.248C66.4221 26.12 66.1288 26.0027 65.7021 25.896L64.4221 25.608C63.6968 25.448 63.1581 25.1867 62.8061 24.824C62.4541 24.4613 62.2781 23.992 62.2781 23.416C62.2781 22.936 62.4115 22.5147 62.6781 22.152C62.9555 21.7787 63.3341 21.4907 63.8141 21.288C64.3048 21.0853 64.8701 20.984 65.5101 20.984C66.0648 20.984 66.5981 21.0693 67.1101 21.24C67.6328 21.4107 68.0915 21.6507 68.4861 21.96L67.9261 23.32C67.1155 22.7333 66.3048 22.44 65.4941 22.44C65.0568 22.44 64.7155 22.52 64.4701 22.68C64.2248 22.84 64.1021 23.064 64.1021 23.352C64.1021 23.5653 64.1768 23.7413 64.3261 23.88C64.4861 24.0187 64.7368 24.1253 65.0781 24.2L66.4061 24.504C67.1848 24.6747 67.7555 24.9467 68.1181 25.32C68.4808 25.6827 68.6621 26.1627 68.6621 26.76C68.6621 27.4853 68.3688 28.0613 67.7821 28.488C67.1955 28.9147 66.4008 29.128 65.3981 29.128ZM74.6518 29.128C73.8304 29.128 73.1158 28.9627 72.5078 28.632C71.9104 28.3013 71.4518 27.832 71.1318 27.224C70.8118 26.616 70.6518 25.9067 70.6518 25.096C70.6518 24.2853 70.8171 23.5707 71.1478 22.952C71.4891 22.3227 71.9691 21.8373 72.5878 21.496C73.2064 21.1547 73.9211 20.984 74.7318 20.984C75.2864 20.984 75.8251 21.0747 76.3478 21.256C76.8811 21.4267 77.3078 21.6613 77.6278 21.96L77.0518 23.368C76.7211 23.1013 76.3691 22.8987 75.9958 22.76C75.6331 22.6213 75.2704 22.552 74.9078 22.552C74.2144 22.552 73.6758 22.7707 73.2918 23.208C72.9078 23.6347 72.7158 24.2533 72.7158 25.064C72.7158 25.864 72.9078 26.4827 73.2918 26.92C73.6758 27.3467 74.2144 27.56 74.9078 27.56C75.2704 27.56 75.6331 27.4907 75.9958 27.352C76.3691 27.2133 76.7211 27.0107 77.0518 26.744L77.6278 28.136C77.2864 28.4453 76.8491 28.6907 76.3158 28.872C75.7824 29.0427 75.2278 29.128 74.6518 29.128ZM84.8483 22.648L83.6803 22.76C82.3576 22.8987 81.6963 23.5707 81.6963 24.776V29H79.6963V21.176H81.6003V22.552C82.0056 21.6133 82.8429 21.1013 84.1123 21.016L84.7203 20.968L84.8483 22.648ZM86.6212 29V21.176H88.6212V29H86.6212ZM86.5092 17.544H88.7172V19.512H86.5092V17.544ZM95.9797 20.984C96.6624 20.984 97.2651 21.1493 97.7877 21.48C98.3104 21.8107 98.7157 22.28 99.0037 22.888C99.3024 23.496 99.4517 24.2053 99.4517 25.016C99.4517 25.8267 99.3024 26.5467 99.0037 27.176C98.7157 27.7947 98.3051 28.2747 97.7717 28.616C97.2491 28.9573 96.6517 29.128 95.9797 29.128C95.4144 29.128 94.9077 29.0053 94.4597 28.76C94.0224 28.5147 93.6864 28.1733 93.4517 27.736V29H91.4837V17.72H93.4837V22.312C93.7184 21.8853 94.0544 21.56 94.4917 21.336C94.9291 21.1013 95.4251 20.984 95.9797 20.984ZM95.4517 27.576C96.0811 27.576 96.5717 27.352 96.9237 26.904C97.2757 26.456 97.4517 25.8267 97.4517 25.016C97.4517 24.216 97.2757 23.6027 96.9237 23.176C96.5824 22.7493 96.0917 22.536 95.4517 22.536C94.8117 22.536 94.3157 22.7547 93.9637 23.192C93.6224 23.6187 93.4517 24.2373 93.4517 25.048C93.4517 25.8587 93.6224 26.4827 93.9637 26.92C94.3157 27.3573 94.8117 27.576 95.4517 27.576ZM108.757 25.448H103.429C103.493 26.1733 103.712 26.712 104.085 27.064C104.458 27.416 104.992 27.592 105.685 27.592C106.549 27.592 107.338 27.3147 108.053 26.76L108.629 28.136C108.266 28.4347 107.808 28.6747 107.253 28.856C106.709 29.0373 106.16 29.128 105.605 29.128C104.325 29.128 103.312 28.7653 102.565 28.04C101.829 27.3147 101.461 26.3227 101.461 25.064C101.461 24.264 101.621 23.5547 101.941 22.936C102.261 22.3173 102.709 21.8373 103.285 21.496C103.872 21.1547 104.533 20.984 105.269 20.984C106.346 20.984 107.194 21.3307 107.813 22.024C108.442 22.7173 108.757 23.672 108.757 24.888V25.448ZM105.317 22.392C104.784 22.392 104.352 22.5627 104.021 22.904C103.701 23.2453 103.504 23.736 103.429 24.376H107.045C107.024 23.7253 106.864 23.2347 106.565 22.904C106.266 22.5627 105.85 22.392 105.317 22.392Z" fill="white"/>
</svg>
