<svg width="43" height="43" viewBox="0 0 43 43" fill="none" xmlns="http://www.w3.org/2000/svg">
<path d="M32.0907 18.8793L24.1357 10.9243L4.22362 30.8364L12.1786 38.7914L32.0907 18.8793Z" stroke="#007AFF" stroke-width="2" stroke-linecap="round" stroke-linejoin="round"/>
<path d="M29.4463 16.2105L26.8018 13.5659L6.87549 33.4922L9.52007 36.1368L29.4463 16.2105Z" stroke="#007AFF" stroke-width="2" stroke-linecap="round" stroke-linejoin="round"/>
<path d="M12.17 38.79L4.22 30.83L1 42L12.17 38.79Z" stroke="#007AFF" stroke-width="2" stroke-linecap="round" stroke-linejoin="round"/>
<path d="M34.7618 16.2071L26.7927 8.23804L24.1694 10.8614L32.1385 18.8305L34.7618 16.2071Z" stroke="#00BFA5" stroke-width="2" stroke-linecap="round" stroke-linejoin="round"/>
<path d="M36.3683 5.38074L37.5987 6.61111C38.4895 7.5019 38.9899 8.71008 38.9899 9.96986C38.9899 11.2296 38.4895 12.4378 37.5987 13.3286L34.7702 16.157L26.8294 8.21624L29.6578 5.38781C30.5474 4.49823 31.7536 3.99789 33.0116 3.99656C34.2697 3.99524 35.4768 4.49304 36.3683 5.38074V5.38074Z" stroke="#00BFA5" stroke-width="2" stroke-linecap="round" stroke-linejoin="round"/>
</svg>
