<svg width="40" height="40" viewBox="0 0 40 40" fill="none" xmlns="http://www.w3.org/2000/svg">
<path d="M29.1699 3.43005C29.1699 3.43005 31.3899 13.4301 27.9299 13.8501C24.4699 14.2701 22.4299 16.1301 22.1199 19.1201C21.8099 22.1101 23.8499 24.4001 22.1199 28.3601C20.3899 32.3201 18.8199 23.3601 15.5199 21.4701C12.2199 19.5801 6.87989 19.7901 6.99989 17.6501C7.11989 15.5101 1.28989 16.8101 1.48989 16.0001" stroke="#00BFA5" stroke-width="2" stroke-linecap="round" stroke-linejoin="round"/>
<path d="M38.5801 23.72C38.5801 23.72 36.7301 20.31 34.0601 21.44C31.3901 22.57 31.3901 26.5 29.0601 27.6C26.7301 28.7 23.3701 33.1 25.5701 34C27.7701 34.9 23.2301 35.8 23.3801 38.6" stroke="#00BFA5" stroke-width="2" stroke-linecap="round" stroke-linejoin="round"/>
<path d="M11.9999 37.15C11.9999 37.15 15.5699 36.09 13.3699 33.15C11.1699 30.21 9.85986 31 9.22986 28.36C8.59986 25.72 3.85986 29.92 3.85986 29.92" stroke="#00BFA5" stroke-width="2" stroke-linecap="round" stroke-linejoin="round"/>
<path d="M20.0001 38.9401C30.4603 38.9401 38.9401 30.4603 38.9401 20.0001C38.9401 9.53979 30.4603 1.06006 20.0001 1.06006C9.53979 1.06006 1.06006 9.53979 1.06006 20.0001C1.06006 30.4603 9.53979 38.9401 20.0001 38.9401Z" stroke="#007AFF" stroke-width="2" stroke-linecap="round" stroke-linejoin="round"/>
</svg>
