<svg width="64" height="64" viewBox="0 0 64 64" fill="none" xmlns="http://www.w3.org/2000/svg">
<g clip-path="url(#clip0)">
<path d="M36.11 45.25V57.54" stroke="#00BFA5" stroke-width="2" stroke-linecap="round" stroke-linejoin="round"/>
<path d="M27.89 57.69V45.17" stroke="#00BFA5" stroke-width="2" stroke-linecap="round" stroke-linejoin="round"/>
<path d="M43.4 42.43V63.17L32.03 54.61L20.6 63.17V42.46" stroke="#007AFF" stroke-width="2" stroke-linejoin="round"/>
<path d="M32 45.55C44.3491 45.55 54.36 35.5391 54.36 23.19C54.36 10.8409 44.3491 0.829987 32 0.829987C19.6509 0.829987 9.64 10.8409 9.64 23.19C9.64 35.5391 19.6509 45.55 32 45.55Z" stroke="#007AFF" stroke-width="2" stroke-linejoin="round"/>
<path d="M32 40.04C41.306 40.04 48.85 32.496 48.85 23.19C48.85 13.884 41.306 6.34 32 6.34C22.694 6.34 15.15 13.884 15.15 23.19C15.15 32.496 22.694 40.04 32 40.04Z" stroke="#00BFA5" stroke-width="2" stroke-linecap="round" stroke-linejoin="round"/>
<path d="M33 14L35.28 18.62C35.3601 18.785 35.4795 18.9279 35.6277 19.036C35.7759 19.1441 35.9484 19.2142 36.13 19.24L41.23 19.98C41.4586 19.9944 41.6775 20.0774 41.8582 20.218C42.0389 20.3587 42.1731 20.5505 42.2433 20.7685C42.3134 20.9865 42.3163 21.2206 42.2515 21.4403C42.1867 21.6599 42.0572 21.855 41.88 22L38.19 25.59C38.0593 25.7183 37.9612 25.8761 37.9038 26.05C37.8464 26.2239 37.8314 26.4091 37.86 26.59L38.74 31.67C38.7728 31.8782 38.7473 32.0914 38.6662 32.286C38.5851 32.4806 38.4517 32.6488 38.2808 32.7721C38.1098 32.8954 37.908 32.9689 37.6978 32.9844C37.4876 32.9999 37.2772 32.9569 37.09 32.86L32.53 30.47C32.3673 30.3816 32.1851 30.3353 32 30.3353C31.8149 30.3353 31.6327 30.3816 31.47 30.47L26.91 32.86C26.7228 32.9569 26.5124 32.9999 26.3022 32.9844C26.092 32.9689 25.8902 32.8954 25.7193 32.7721C25.5483 32.6488 25.4149 32.4806 25.3338 32.286C25.2527 32.0914 25.2272 31.8782 25.26 31.67L26.14 26.59C26.1686 26.4091 26.1536 26.2239 26.0962 26.05C26.0388 25.8761 25.9407 25.7183 25.81 25.59L22.12 22C21.9504 21.8546 21.8273 21.6626 21.7659 21.4479C21.7045 21.2331 21.7075 21.005 21.7746 20.792C21.8417 20.5789 21.97 20.3903 22.1434 20.2495C22.3168 20.1087 22.5277 20.0219 22.75 20L27.85 19.26C28.0316 19.2342 28.2041 19.1641 28.3523 19.056C28.5005 18.9479 28.6199 18.805 28.7 18.64L31 14C31.0982 13.8206 31.2429 13.6709 31.4188 13.5666C31.5947 13.4624 31.7955 13.4073 32 13.4073C32.2045 13.4073 32.4053 13.4624 32.5812 13.5666C32.7572 13.6709 32.9018 13.8206 33 14Z" stroke="#007AFF" stroke-width="2" stroke-linejoin="round"/>
</g>
<defs>
<clipPath id="clip0">
<rect width="64" height="64" fill="white"/>
</clipPath>
</defs>
</svg>
