<svg width="64" height="64" viewBox="0 0 64 64" fill="none" xmlns="http://www.w3.org/2000/svg">
<path d="M14.88 32.82V26.67C14.8532 22.0917 16.6382 17.6886 19.8455 14.4214C23.0527 11.1542 27.422 9.28799 32 9.22998V9.22998C36.5788 9.28538 40.9496 11.1507 44.1574 14.4185C47.3653 17.6863 49.1494 22.0909 49.12 26.67V32.82" stroke="#00BFA5" stroke-width="2" stroke-linecap="round" stroke-linejoin="round"/>
<path d="M7.86997 26.67C7.81665 20.2116 10.3271 13.9957 14.8507 9.38587C19.3744 4.77603 25.5417 2.14862 32 2.07999C38.4591 2.14862 44.6275 4.7757 49.1527 9.38526C53.6779 13.9948 56.1906 20.2107 56.14 26.67" stroke="#007AFF" stroke-width="2" stroke-linecap="round" stroke-linejoin="round"/>
<path d="M62.9099 41.72C62.9705 41.3229 63.0006 40.9217 62.9999 40.52V35.61C63.0133 33.4703 62.1795 31.4123 60.6806 29.8853C59.1817 28.3583 57.1395 27.4864 54.9999 27.46H51.79C51.0764 27.4705 50.3959 27.762 49.896 28.2713C49.3961 28.7805 49.1172 29.4664 49.1199 30.18V46C49.1146 46.7144 49.3926 47.4017 49.8931 47.9116C50.3935 48.4214 51.0756 48.7121 51.79 48.72H54.9999C56.9396 48.6986 58.8066 47.9794 60.2593 46.6939C61.7119 45.4084 62.6529 43.6426 62.9099 41.72" stroke="#007AFF" stroke-width="2" stroke-linecap="round" stroke-linejoin="round"/>
<path d="M1.08998 41.72C1.02943 41.3229 0.999344 40.9217 0.999975 40.52V35.61C0.986605 33.4703 1.82041 31.4123 3.3193 29.8853C4.8182 28.3583 6.86041 27.4864 8.99998 27.46H12.21C12.9235 27.4705 13.6041 27.762 14.1039 28.2713C14.6038 28.7805 14.8827 29.4664 14.88 30.18V46C14.8853 46.7144 14.6073 47.4017 14.1069 47.9116C13.6064 48.4214 12.9243 48.7121 12.21 48.72H8.99998C7.06034 48.6986 5.19329 47.9794 3.74067 46.6939C2.28804 45.4084 1.34705 43.6426 1.08998 41.72" stroke="#007AFF" stroke-width="2" stroke-linecap="round" stroke-linejoin="round"/>
<path d="M55.67 40.85V53.32L50.38 58.76H40.17" stroke="#00BFA5" stroke-width="2" stroke-linecap="round" stroke-linejoin="round"/>
<path d="M37.04 55.6H27.01C25.2814 55.6 23.88 57.0013 23.88 58.73V58.78C23.88 60.5086 25.2814 61.91 27.01 61.91H37.04C38.7687 61.91 40.17 60.5086 40.17 58.78V58.73C40.17 57.0013 38.7687 55.6 37.04 55.6Z" stroke="#00BFA5" stroke-width="2" stroke-linecap="round" stroke-linejoin="round"/>
<path d="M42.73 31.46C43.2627 32.8204 43.5341 34.269 43.53 35.73C43.528 38.4425 42.5963 41.0723 40.8902 43.1811C39.1841 45.2899 36.8068 46.7501 34.1544 47.3183C31.5021 47.8865 28.7352 47.5284 26.3149 46.3036C23.8947 45.0789 21.9674 43.0615 20.8544 40.5878C19.7414 38.1142 19.5099 35.3338 20.1986 32.7102C20.8873 30.0866 22.4546 27.7783 24.639 26.1703C26.8235 24.5622 29.4931 23.7515 32.2029 23.8734C34.9126 23.9953 37.4987 25.0423 39.53 26.84" stroke="#00BFA5" stroke-width="2" stroke-linecap="round" stroke-linejoin="round"/>
<path d="M39.73 23.27L39.69 27.16L35.56 27.21" stroke="#00BFA5" stroke-width="2" stroke-linecap="round" stroke-linejoin="round"/>
<path d="M31.67 28.31V36.26L34.65 39.24" stroke="#00BFA5" stroke-width="2" stroke-linecap="round" stroke-linejoin="round"/>
</svg>
