<svg width="40" height="41" viewBox="0 0 40 41" fill="none" xmlns="http://www.w3.org/2000/svg">
<path d="M11.1 14.27H3.84C2.27151 14.27 1 15.5415 1 17.11V37.16C1 38.7285 2.27151 40 3.84 40H11.1C12.6685 40 13.94 38.7285 13.94 37.16V17.11C13.94 15.5415 12.6685 14.27 11.1 14.27Z" stroke="#007AFF" stroke-width="2" stroke-linecap="round" stroke-linejoin="round"/>
<path d="M7.37982 22.79C8.51753 22.79 9.43982 21.8766 9.43982 20.75C9.43982 19.6233 8.51753 18.71 7.37982 18.71C6.24212 18.71 5.31982 19.6233 5.31982 20.75C5.31982 21.8766 6.24212 22.79 7.37982 22.79Z" stroke="#00BFA5" stroke-width="2" stroke-linecap="round" stroke-linejoin="round"/>
<path d="M28.21 16.88C28.34 15.72 28.84 11.57 29.35 7.32C29.4266 6.48995 29.3369 5.65295 29.0863 4.85796C28.8356 4.06297 28.4289 3.32594 27.89 2.69C27.6921 2.42618 27.423 2.2244 27.1143 2.10843C26.8056 1.99246 26.4702 1.96714 26.1476 2.03544C25.825 2.10375 25.5286 2.26284 25.2934 2.49397C25.0582 2.72509 24.8939 3.01863 24.82 3.34L24.37 5.34L21.28 13L14.21 16.88V38.17H32C33.2434 38.1704 34.446 37.7261 35.3905 36.9174C36.335 36.1086 36.959 34.9887 37.15 33.76L38.9 22.33C39.0008 21.6535 38.9543 20.9632 38.7637 20.3064C38.5731 19.6495 38.2429 19.0416 37.7957 18.5241C37.3485 18.0066 36.7948 17.5918 36.1725 17.3081C35.5502 17.0243 34.8739 16.8783 34.19 16.88H28.21Z" stroke="#007AFF" stroke-width="2" stroke-linecap="round" stroke-linejoin="round"/>
</svg>
