<svg width="64" height="64" viewBox="0 0 64 64" fill="none" xmlns="http://www.w3.org/2000/svg">
<g clip-path="url(#clip0)">
<path d="M12.62 59.04H28.16" stroke="#00BFA5" stroke-width="2" stroke-linecap="round" stroke-linejoin="round"/>
<path d="M12.94 29.7C11.5104 29.1345 10.3218 28.0899 9.57749 26.7448C8.83317 25.3996 8.57944 23.8377 8.8597 22.3261C9.13995 20.8145 9.93679 19.4473 11.1139 18.4584C12.2909 17.4696 13.775 16.9205 15.3123 16.9051C16.8495 16.8897 18.3444 17.409 19.541 18.3742C20.7376 19.3393 21.5616 20.6903 21.872 22.196C22.1824 23.7016 21.96 25.2684 21.2427 26.6281C20.5255 27.9878 19.358 29.0561 17.94 29.65" stroke="#00BFA5" stroke-width="2" stroke-linecap="round" stroke-linejoin="round"/>
<path d="M17.98 33.1547C17.9795 32.8055 18.0525 32.4601 18.1941 32.1409C18.3358 31.8217 18.5431 31.5359 18.8024 31.302C19.0618 31.0681 19.3674 30.8914 19.6995 30.7833C20.0316 30.6753 20.3827 30.6383 20.73 30.6747C21.358 30.7627 21.9319 31.0781 22.3429 31.561C22.7539 32.0439 22.9735 32.6608 22.96 33.2947V41.0147V36.0147C22.9567 35.6625 23.0278 35.3136 23.1688 34.9908C23.3097 34.668 23.5173 34.3786 23.7779 34.1416C24.0385 33.9046 24.3462 33.7254 24.6809 33.6156C25.0156 33.5059 25.3697 33.4681 25.72 33.5047C26.348 33.5927 26.9219 33.9081 27.3329 34.391C27.7439 34.8739 27.9635 35.4908 27.95 36.1247V43.7347V38.0147C27.9439 37.3859 28.1668 36.7763 28.5772 36.2997C28.9875 35.8231 29.5572 35.5121 30.18 35.4247C30.5273 35.3883 30.8784 35.4253 31.2105 35.5333C31.5426 35.6414 31.8482 35.8181 32.1076 36.052C32.3669 36.2859 32.5742 36.5717 32.7159 36.8909C32.8575 37.2101 32.9305 37.5555 32.93 37.9047V50.1647C32.9276 51.3896 32.4757 52.571 31.66 53.4847L28.2 57.3747V63.0147C28.2 63.0147 12.57 62.9547 12.64 63.0147C12.71 63.0747 12.64 56.9147 12.64 56.9147L9.46 53.6947C8.52531 52.7577 8.00028 51.4883 8 50.1647V37.8947C8 37.5678 8.06441 37.244 8.18954 36.9419C8.31467 36.6398 8.49809 36.3653 8.7293 36.1341C8.96052 35.9028 9.23502 35.7194 9.53712 35.5943C9.83922 35.4692 10.163 35.4047 10.49 35.4047C10.817 35.4047 11.1408 35.4692 11.4429 35.5943C11.745 35.7194 12.0195 35.9028 12.2507 36.1341C12.4819 36.3653 12.6653 36.6398 12.7905 36.9419C12.9156 37.244 12.98 37.5678 12.98 37.8947V42.4947V23.4947C12.9779 23.145 13.0498 22.7989 13.191 22.4789C13.3321 22.159 13.5394 21.8725 13.7991 21.6383C14.0588 21.4041 14.3651 21.2275 14.6978 21.12C15.0306 21.0125 15.3824 20.9767 15.73 21.0147C16.3687 21.0989 16.9531 21.4181 17.3691 21.9099C17.7851 22.4017 18.0029 23.031 17.98 23.6747V33.1547ZM17.98 33.1547V39.5" stroke="#007AFF" stroke-width="2" stroke-linecap="round" stroke-linejoin="round"/>
<path d="M6.53 29.72C5.56085 28.3296 4.93253 26.7307 4.69585 25.0525C4.45916 23.3743 4.62076 21.6639 5.16758 20.0597C5.71439 18.4555 6.63107 17.0026 7.84348 15.8183C9.05589 14.6341 10.53 13.7518 12.1466 13.2428C13.7632 12.7338 15.4768 12.6124 17.149 12.8884C18.8212 13.1645 20.405 13.8302 21.7722 14.8317C23.1394 15.8333 24.2518 17.1425 25.0192 18.6536C25.7867 20.1647 26.1878 21.8352 26.19 23.53C26.1872 25.67 25.5428 27.76 24.34 29.53" stroke="#00BFA5" stroke-width="2" stroke-linecap="round" stroke-linejoin="round"/>
<path d="M15.38 12.51V5C15.38 3.93913 15.8014 2.92172 16.5516 2.17157C17.3017 1.42143 18.3191 1 19.38 1H43.82C44.8809 1 45.8983 1.42143 46.6484 2.17157C47.3986 2.92172 47.82 3.93913 47.82 5V12.51" stroke="#00BFA5" stroke-width="2" stroke-linecap="round" stroke-linejoin="round"/>
<path d="M56.65 12.51H38.97C37.0646 12.51 35.52 14.0546 35.52 15.96V33.64C35.52 35.5454 37.0646 37.09 38.97 37.09H56.65C58.5554 37.09 60.1 35.5454 60.1 33.64V15.96C60.1 14.0546 58.5554 12.51 56.65 12.51Z" stroke="#00BFA5" stroke-width="2" stroke-linecap="round" stroke-linejoin="round"/>
</g>
<defs>
<clipPath id="clip0">
<rect width="64" height="64" fill="white"/>
</clipPath>
</defs>
</svg>
