<svg width="64" height="64" viewBox="0 0 64 64" fill="none" xmlns="http://www.w3.org/2000/svg">
<g clip-path="url(#clip0)">
<path d="M59 58.18H5C3.67392 58.18 2.40215 57.6532 1.46447 56.7155C0.526784 55.7778 0 54.5061 0 53.18L0 40.18C0 38.8539 0.526784 37.5821 1.46447 36.6445C2.40215 35.7068 3.67392 35.18 5 35.18H59C60.3261 35.18 61.5979 35.7068 62.5355 36.6445C63.4732 37.5821 64 38.8539 64 40.18V53.18C64 54.5061 63.4732 55.7778 62.5355 56.7155C61.5979 57.6532 60.3261 58.18 59 58.18ZM5 37.21C4.20435 37.21 3.44129 37.5261 2.87868 38.0887C2.31607 38.6513 2 39.4143 2 40.21V53.21C2 54.0056 2.31607 54.7687 2.87868 55.3313C3.44129 55.8939 4.20435 56.21 5 56.21H59C59.7957 56.21 60.5587 55.8939 61.1213 55.3313C61.6839 54.7687 62 54.0056 62 53.21V40.21C62 39.4143 61.6839 38.6513 61.1213 38.0887C60.5587 37.5261 59.7957 37.21 59 37.21H5Z" fill="#007AFF"/>
<path d="M40 47.7H11C10.7348 47.7 10.4804 47.5946 10.2929 47.4071C10.1054 47.2196 10 46.9652 10 46.7C10 46.4348 10.1054 46.1804 10.2929 45.9929C10.4804 45.8054 10.7348 45.7 11 45.7H40C40.2652 45.7 40.5196 45.8054 40.7071 45.9929C40.8946 46.1804 41 46.4348 41 46.7C41 46.9652 40.8946 47.2196 40.7071 47.4071C40.5196 47.5946 40.2652 47.7 40 47.7Z" fill="#00BFA5"/>
<path d="M51.48 49.3C52.9159 49.3 54.08 48.1359 54.08 46.7C54.08 45.2641 52.9159 44.1 51.48 44.1C50.0441 44.1 48.88 45.2641 48.88 46.7C48.88 48.1359 50.0441 49.3 51.48 49.3Z" fill="white"/>
<path d="M51.48 50.3C50.7652 50.302 50.0658 50.0917 49.4706 49.6958C48.8754 49.2999 48.4112 48.7362 48.1367 48.0761C47.8623 47.4161 47.7899 46.6894 47.9289 45.9882C48.0679 45.287 48.4119 44.6428 48.9174 44.1374C49.4228 43.6319 50.067 43.2879 50.7682 43.1489C51.4694 43.0099 52.1961 43.0823 52.8561 43.3567C53.5162 43.6312 54.0799 44.0954 54.4758 44.6906C54.8717 45.2858 55.082 45.9852 55.08 46.7C55.0774 47.654 54.6972 48.5681 54.0227 49.2427C53.3481 49.9172 52.434 50.2974 51.48 50.3ZM51.48 45.09C51.1612 45.088 50.8489 45.1808 50.5828 45.3565C50.3168 45.5322 50.1088 45.7829 49.9854 46.0769C49.8621 46.3709 49.8287 46.695 49.8897 47.0079C49.9507 47.3209 50.1033 47.6087 50.328 47.8349C50.5528 48.061 50.8396 48.2154 51.1522 48.2783C51.4648 48.3412 51.789 48.3099 52.0838 48.1884C52.3786 48.0668 52.6306 47.8605 52.808 47.5955C52.9853 47.3305 53.08 47.0189 53.08 46.7C53.08 46.2747 52.9118 45.8667 52.612 45.5651C52.3122 45.2634 51.9053 45.0926 51.48 45.09Z" fill="#00BFA5"/>
<path d="M32 27.83C31.2856 27.832 30.5867 27.6219 29.9917 27.2265C29.3967 26.831 28.9324 26.2679 28.6577 25.6084C28.3829 24.949 28.31 24.2228 28.4482 23.5219C28.5863 22.8209 28.9293 22.1768 29.4338 21.6709C29.9383 21.165 30.5815 20.8202 31.282 20.6801C31.9826 20.54 32.7089 20.6109 33.3692 20.8839C34.0294 21.1568 34.5938 21.6195 34.9909 22.2134C35.388 22.8072 35.6 23.5056 35.6 24.22C35.6 25.1757 35.221 26.0924 34.5462 26.7691C33.8714 27.4458 32.9557 27.8274 32 27.83ZM32 22.62C31.6807 22.618 31.3681 22.711 31.1018 22.8872C30.8355 23.0633 30.6276 23.3147 30.5045 23.6093C30.3814 23.9038 30.3487 24.2284 30.4105 24.5416C30.4723 24.8549 30.6258 25.1427 30.8516 25.3684C31.0774 25.5942 31.3651 25.7477 31.6784 25.8095C31.9916 25.8713 32.3162 25.8386 32.6108 25.7155C32.9054 25.5924 33.1567 25.3845 33.3328 25.1182C33.509 24.8519 33.602 24.5393 33.6 24.22C33.6 23.7957 33.4314 23.3887 33.1314 23.0886C32.8313 22.7886 32.4244 22.62 32 22.62Z" fill="#00BFA5"/>
<path d="M61.82 38.41C61.5577 38.4089 61.3063 38.3047 61.12 38.12L50.12 27.12C49.5214 26.518 48.8091 26.041 48.0246 25.7165C47.2401 25.3921 46.3989 25.2267 45.55 25.23H37.76C37.4948 25.23 37.2404 25.1246 37.0529 24.9371C36.8654 24.7496 36.76 24.4952 36.76 24.23C36.76 23.9648 36.8654 23.7104 37.0529 23.5229C37.2404 23.3354 37.4948 23.23 37.76 23.23H45.54C46.6545 23.2257 47.7587 23.4427 48.7886 23.8684C49.8186 24.2942 50.7538 24.9201 51.54 25.71L62.54 36.71C62.681 36.8499 62.7772 37.0286 62.8163 37.2233C62.8553 37.4181 62.8355 37.62 62.7594 37.8035C62.6832 37.9869 62.5541 38.1435 62.3886 38.2533C62.2231 38.3631 62.0286 38.4212 61.83 38.42L61.82 38.41Z" fill="#007AFF"/>
<path d="M2.17999 38.41C2.04839 38.4108 1.91792 38.3855 1.79609 38.3358C1.67425 38.286 1.56343 38.2127 1.46999 38.12C1.37626 38.027 1.30187 37.9164 1.2511 37.7946C1.20033 37.6727 1.17419 37.542 1.17419 37.41C1.17419 37.278 1.20033 37.1473 1.2511 37.0254C1.30187 36.9036 1.37626 36.793 1.46999 36.7L12.47 25.7C13.2555 24.9092 14.1906 24.2827 15.2207 23.8569C16.2508 23.4311 17.3554 23.2146 18.47 23.22H25.88C26.1452 23.22 26.3996 23.3254 26.5871 23.5129C26.7746 23.7004 26.88 23.9548 26.88 24.22C26.88 24.4852 26.7746 24.7396 26.5871 24.9271C26.3996 25.1147 26.1452 25.22 25.88 25.22H18.46C17.611 25.2167 16.7699 25.3821 15.9854 25.7065C15.2009 26.031 14.4886 26.508 13.89 27.11L2.88999 38.11C2.79738 38.2045 2.68693 38.2797 2.56506 38.3312C2.44318 38.3827 2.3123 38.4095 2.17999 38.41Z" fill="#007AFF"/>
<path d="M37.36 20.21C37.2236 20.2108 37.0885 20.1838 36.963 20.1305C36.8374 20.0771 36.7241 19.9987 36.63 19.9C36.0385 19.2633 35.322 18.7555 34.5254 18.4083C33.7287 18.061 32.869 17.8818 32 17.8818C31.131 17.8818 30.2713 18.061 29.4746 18.4083C28.678 18.7555 27.9615 19.2633 27.37 19.9C27.2801 19.9959 27.1721 20.0731 27.0523 20.1272C26.9325 20.1814 26.8032 20.2114 26.6718 20.2156C26.5404 20.2197 26.4095 20.198 26.2865 20.1516C26.1635 20.1051 26.0509 20.035 25.955 19.945C25.8591 19.855 25.7819 19.7471 25.7278 19.6273C25.6736 19.5075 25.6436 19.3782 25.6395 19.2468C25.6353 19.1154 25.657 18.9845 25.7034 18.8615C25.7499 18.7385 25.8201 18.6259 25.91 18.53C26.6886 17.6935 27.6312 17.0264 28.679 16.5703C29.7267 16.1141 30.8572 15.8787 32 15.8787C33.1428 15.8787 34.2733 16.1141 35.3211 16.5703C36.3688 17.0264 37.3114 17.6935 38.09 18.53C38.186 18.6297 38.2603 18.7483 38.3081 18.8782C38.356 19.0081 38.3763 19.1466 38.3678 19.2848C38.3594 19.4229 38.3223 19.5579 38.259 19.681C38.1957 19.8041 38.1075 19.9127 38 20C37.8174 20.1419 37.5912 20.2161 37.36 20.21Z" fill="#00BFA5"/>
<path d="M23 16.85C22.7474 16.8491 22.5044 16.7527 22.32 16.58C22.127 16.3993 22.0133 16.1496 22.004 15.8853C21.9946 15.6211 22.0902 15.3639 22.27 15.17C23.5106 13.8419 25.0109 12.7831 26.6778 12.0591C28.3447 11.3352 30.1427 10.9616 31.96 10.9616C33.7773 10.9616 35.5753 11.3352 37.2422 12.0591C38.9091 12.7831 40.4094 13.8419 41.65 15.17C41.8317 15.3636 41.929 15.6215 41.9206 15.8868C41.9121 16.1522 41.7986 16.4033 41.605 16.585C41.4114 16.7667 41.1535 16.864 40.8882 16.8556C40.6228 16.8471 40.3717 16.7336 40.19 16.54C39.1373 15.4105 37.8633 14.5097 36.4475 13.8938C35.0316 13.2779 33.504 12.9601 31.96 12.9601C30.416 12.9601 28.8884 13.2779 27.4726 13.8938C26.0567 14.5097 24.7827 15.4105 23.73 16.54C23.6359 16.6387 23.5226 16.7172 23.3971 16.7705C23.2715 16.8238 23.1364 16.8508 23 16.85Z" fill="#00BFA5"/>
<path d="M19.28 13.33C19.0287 13.3319 18.7859 13.239 18.6 13.07C18.5029 12.9804 18.4246 12.8724 18.3695 12.7523C18.3144 12.6323 18.2836 12.5025 18.2789 12.3704C18.2743 12.2384 18.2958 12.1067 18.3424 11.9831C18.3889 11.8594 18.4595 11.7462 18.55 11.65C20.2666 9.79993 22.3481 8.32579 24.663 7.32063C26.978 6.31547 29.4762 5.8011 32 5.81C34.5217 5.81426 37.0159 6.33457 39.329 7.33892C41.6421 8.34327 43.7252 9.8104 45.45 11.65C45.5608 11.7403 45.6509 11.8532 45.7143 11.9813C45.7778 12.1093 45.8131 12.2494 45.8178 12.3922C45.8225 12.5351 45.7965 12.6772 45.7417 12.8092C45.6868 12.9411 45.6043 13.0597 45.4997 13.1571C45.3951 13.2545 45.2709 13.3283 45.1354 13.3736C44.9999 13.4189 44.8562 13.4347 44.7141 13.4198C44.572 13.4049 44.4347 13.3597 44.3115 13.2873C44.1884 13.2149 44.0821 13.1169 44 13C42.4653 11.3526 40.6079 10.0388 38.5434 9.14047C36.4789 8.24215 34.2515 7.77856 32 7.77856C29.7485 7.77856 27.5211 8.24215 25.4566 9.14047C23.3921 10.0388 21.5347 11.3526 20 13C19.9088 13.1011 19.7979 13.1826 19.6741 13.2393C19.5503 13.2961 19.4162 13.3269 19.28 13.33Z" fill="#00BFA5"/>
</g>
<defs>
<clipPath id="clip0">
<rect width="64" height="64" fill="white"/>
</clipPath>
</defs>
</svg>
