<svg id="Layer_1" data-name="Layer 1" xmlns="http://www.w3.org/2000/svg" viewBox="0 0 160 160"><defs><style>.cls-1{fill:#288eea;}.cls-2{fill:#fff;}</style></defs><title>badge-04</title><path class="cls-1" d="M80,1A79,79,0,1,1,1,80,79.089,79.089,0,0,1,80,1m0-1a80,80,0,1,0,80,80A80,80,0,0,0,80,0Z"/><path class="cls-1" d="M80,136.5A56.5,56.5,0,1,1,136.5,80,56.564,56.564,0,0,1,80,136.5Zm0-112A55.5,55.5,0,1,0,135.5,80,55.563,55.563,0,0,0,80,24.5Z"/><path class="cls-1" d="M80,132.331A52.331,52.331,0,1,1,132.331,80,52.39,52.39,0,0,1,80,132.331ZM80,29.669A50.331,50.331,0,1,0,130.331,80,50.388,50.388,0,0,0,80,29.669Z"/><path class="cls-1" d="M29.566,115.061,21.958,119.8a4.279,4.279,0,0,1-3.771.577,6,6,0,0,1-3.126-2.687,5.928,5.928,0,0,1-1.02-3.972,4.3,4.3,0,0,1,2.189-3.118l7.607-4.736,1.438,2.307-7.6,4.733a2.6,2.6,0,0,0-1.318,1.662,2.777,2.777,0,0,0,.477,2.021,2.858,2.858,0,0,0,1.613,1.346,2.578,2.578,0,0,0,2.082-.444l7.6-4.733Z"/><path class="cls-1" d="M28.624,129.732,25.351,126.3,22.61,127.65l-1.89-1.979L33.7,119.705l1.915,2.006-6.572,12.677-1.891-1.979Zm-1.275-4.413,2.352,2.463,2.685-4.873-.039-.04Z"/><path class="cls-1" d="M41.75,143.538l-2.234-1.516.667-10.7-.051-.023-5.177,7.631-2.242-1.521L40.3,126.229l2.241,1.521-.661,10.694.051.023,5.172-7.624,2.233,1.516Z"/><path class="cls-1" d="M57.494,148.472a5.093,5.093,0,0,1-2.27.627,7.357,7.357,0,0,1-3.226-.61,5.533,5.533,0,0,1-3.193-2.923,5.362,5.362,0,0,1,.017-4.295l1.04-2.622a5.473,5.473,0,0,1,2.873-3.156,5.186,5.186,0,0,1,4.179,0A5.407,5.407,0,0,1,59.986,138a4.164,4.164,0,0,1,.082,3.431l-.037.045-2.372-.94a2.6,2.6,0,0,0-.011-1.835,2.39,2.39,0,0,0-1.434-1.242,2.432,2.432,0,0,0-2.217.153,3.851,3.851,0,0,0-1.617,2.016l-1.046,2.636a3.809,3.809,0,0,0-.187,2.613,2.609,2.609,0,0,0,1.621,1.675,4.869,4.869,0,0,0,1.486.38,2.29,2.29,0,0,0,.988-.126l.92-2.321-2.225-.882.69-1.742,4.743,1.881Z"/><path class="cls-1" d="M72.967,147.6l-1.5-.134-.5,5.618-2.7-.242,1.205-13.454,2.7.242-.492,5.5,1.173.105,4.06-5.179,3.3.3-5.089,5.859,4.244,7.626-3.29-.294Z"/><path class="cls-1" d="M91.293,146.869l-5.565.567.391,3.83,6.507-.663.212,2.076-9.2.938-1.37-13.438,9.184-.936.212,2.076-6.488.661.345,3.378,5.564-.567Z"/><path class="cls-1" d="M97.141,137.812l6.5,8.291.053-.019.039-10.542,3.351-1.154,4.4,12.772-2.562.882-1.312-3.807-1.7-5.726-.055.01-.165,10.634-1.719.593L97.321,141.5l-.05.027,2.177,5.521,1.311,3.807-2.561.882-4.4-12.771Z"/><path class="cls-1" d="M117.194,144.09l-7.315-11.354,3.837-2.473a6.457,6.457,0,0,1,3.63-1.235,3.157,3.157,0,0,1,2.625,1.608,2.935,2.935,0,0,1,.489,1.677,3,3,0,0,1-.612,1.714,2.865,2.865,0,0,1,2.136-.052,3.321,3.321,0,0,1,1.581,1.332,3.494,3.494,0,0,1,.515,3.161,5.789,5.789,0,0,1-2.51,2.8Zm-1.974-8.064,1.638-1.056a2.714,2.714,0,0,0,1.163-1.278,1.536,1.536,0,0,0-.213-1.409,1.622,1.622,0,0,0-1.243-.843,2.9,2.9,0,0,0-1.72.578l-1.56,1Zm1.015,1.575,2.105,3.268,2.1-1.352a2.525,2.525,0,0,0,1.127-1.282,1.693,1.693,0,0,0-.273-1.47,2.161,2.161,0,0,0-1.226-1.011,1.976,1.976,0,0,0-1.562.385Z"/><path class="cls-1" d="M133.028,128.058l-3.389,3.315,1.381,2.725-1.956,1.914-6.125-12.905,1.982-1.939,12.756,6.416-1.956,1.914Zm-4.4,1.33,2.433-2.381-4.9-2.625-.04.039Z"/><path class="cls-1" d="M140.159,120.735l3.443-4.928,1.711,1.2-5,7.148-11.072-7.737,1.552-2.221Z"/><path class="cls-1" d="M148.366,111.17l-1.246,2.405-11.994-6.213,1.246-2.405Z"/><path class="cls-1" d="M26.027,48.657a5.11,5.11,0,0,1,.5,2.3,7.362,7.362,0,0,1-.786,3.188,5.529,5.529,0,0,1-3.093,3.027,5.357,5.357,0,0,1-4.288-.251L15.8,55.74a5.476,5.476,0,0,1-3-3.042,5.191,5.191,0,0,1,.224-4.173A5.416,5.416,0,0,1,15.7,45.6a4.163,4.163,0,0,1,3.43.106l.043.04-1.068,2.316a2.608,2.608,0,0,0-1.834-.09,2.4,2.4,0,0,0-1.318,1.364,2.43,2.43,0,0,0,.031,2.221,3.853,3.853,0,0,0,1.925,1.726l2.575,1.188a3.8,3.8,0,0,0,2.6.33,2.606,2.606,0,0,0,1.761-1.527,4.888,4.888,0,0,0,.461-1.463,2.305,2.305,0,0,0-.071-.993l-2.269-1.046-1,2.173-1.7-.785L21.4,46.523Z"/><path class="cls-1" d="M30.524,40.4l-2.789,3.833,1.815,2.457L27.94,48.9,19.752,37.192l1.632-2.243,13.646,4.2-1.61,2.213Zm-4.114,2.043,2-2.753L23.14,37.914l-.033.045Z"/><path class="cls-1" d="M33.88,32.911l3.668,3.961-1.987,1.841L26.383,28.8l3.737-3.46a5.6,5.6,0,0,1,3.366-1.683,3.564,3.564,0,0,1,2.951,1.269,2.967,2.967,0,0,1,.821,1.692,3.817,3.817,0,0,1-.352,1.982,2.9,2.9,0,0,1,2.063-.3,3.74,3.74,0,0,1,1.771,1.141l.674.729a4.931,4.931,0,0,0,.916.764,1.618,1.618,0,0,0,1.006.314l.133.144-2.05,1.9a1.531,1.531,0,0,1-1.028-.4,8.318,8.318,0,0,1-.977-.891l-.649-.7a2.148,2.148,0,0,0-1.474-.778,2.081,2.081,0,0,0-1.521.644Zm-1.419-1.532,1.716-1.588A2.561,2.561,0,0,0,35.1,28.28a1.778,1.778,0,0,0-.559-1.43,1.965,1.965,0,0,0-1.414-.7,2.278,2.278,0,0,0-1.587.724l-1.75,1.62Z"/><path class="cls-1" d="M49.117,24.458l-4.036,2.485.745,2.963L43.5,31.341,40.37,17.4l2.362-1.455,11.025,9.074-2.331,1.435Zm-4.582.326L47.435,23,43.23,19.356l-.047.029Z"/><path class="cls-1" d="M64.626,21.064l-2.537.923-8.281-6.812-.049.027,3.15,8.667-2.546.926L49.749,12.1l2.546-.926,8.277,6.8.049-.028L57.474,9.292l2.537-.922Z"/><path class="cls-1" d="M73.2,16.118a1.565,1.565,0,0,0-.729-1.158,5.576,5.576,0,0,0-2.043-.6,11.017,11.017,0,0,1-3.847-1.1,3.127,3.127,0,0,1-1.6-2.409,3.239,3.239,0,0,1,1.006-2.891A5.892,5.892,0,0,1,69.41,6.389a5.428,5.428,0,0,1,3.761.644,3.54,3.54,0,0,1,1.764,2.69l-.01.058-2.6.381a1.97,1.97,0,0,0-.84-1.409,2.487,2.487,0,0,0-1.824-.318,2.592,2.592,0,0,0-1.591.721,1.516,1.516,0,0,0-.408,1.307,1.324,1.324,0,0,0,.792,1.023,8.754,8.754,0,0,0,2.307.6,8.538,8.538,0,0,1,3.589,1.133,3.415,3.415,0,0,1,1.527,2.486,3.21,3.21,0,0,1-.957,2.906,5.974,5.974,0,0,1-3.43,1.516,6.6,6.6,0,0,1-3.974-.564,3.55,3.55,0,0,1-2.042-2.922l.011-.058,2.606-.383a2.079,2.079,0,0,0,.986,1.642,3.323,3.323,0,0,0,2.114.257,2.7,2.7,0,0,0,1.605-.694A1.466,1.466,0,0,0,73.2,16.118Z"/><path class="cls-1" d="M80.912,19.315l-2.708.044L77.986,5.854l2.708-.044Z"/><path class="cls-1" d="M91.578,12.391l1.492.3a1.849,1.849,0,0,0,1.5-.216,2,2,0,0,0,.729-1.288,1.829,1.829,0,0,0-.2-1.374,1.762,1.762,0,0,0-1.223-.745,1.9,1.9,0,0,0-1.343.187A1.466,1.466,0,0,0,91.8,10.3l-2.575-.513-.007-.059a3.074,3.074,0,0,1,1.7-2.328A4.849,4.849,0,0,1,94.213,7,5.194,5.194,0,0,1,97.3,8.64a3.45,3.45,0,0,1,.665,3.046,2.87,2.87,0,0,1-.873,1.533,3.7,3.7,0,0,1-1.743.916,3.453,3.453,0,0,1,1.439,1.535,3.225,3.225,0,0,1,.2,2,3.51,3.51,0,0,1-1.895,2.6,5.419,5.419,0,0,1-3.6.366,5.29,5.29,0,0,1-2.976-1.61,3.187,3.187,0,0,1-.729-3.017l.029-.051,2.575.514a1.643,1.643,0,0,0,.3,1.362,2.022,2.022,0,0,0,1.284.769,2.052,2.052,0,0,0,1.553-.219,1.854,1.854,0,0,0,.808-1.273,2.036,2.036,0,0,0-.219-1.634,2.229,2.229,0,0,0-1.445-.793l-1.492-.3Z"/><path class="cls-1" d="M107.866,20.13a5.957,5.957,0,0,1-2.618,3.348,4.708,4.708,0,0,1-6.223-2.415,5.942,5.942,0,0,1,.321-4.239l1.078-2.776a5.977,5.977,0,0,1,2.618-3.348,4.217,4.217,0,0,1,3.614-.095,4.233,4.233,0,0,1,2.6,2.509,5.944,5.944,0,0,1-.317,4.24Zm-1.338-4.016a4.433,4.433,0,0,0,.4-2.364,1.674,1.674,0,0,0-2.593-1.012,4.515,4.515,0,0,0-1.293,2.023l-1.271,3.274a4.513,4.513,0,0,0-.413,2.385,1.564,1.564,0,0,0,1.042,1.2,1.537,1.537,0,0,0,1.557-.191,4.553,4.553,0,0,0,1.3-2.04Z"/><path class="cls-1" d="M120.1,34.37l-2.168-1.608,3.345-4.508L116.85,24.97l-3.345,4.508-2.175-1.614,8.049-10.848,2.176,1.614-3.461,4.664,4.426,3.283,3.46-4.663,2.168,1.608Z"/><path class="cls-1" d="M128.474,39.154l-3.165-3.529-2.782,1.261L120.7,34.849l13.16-5.558,1.852,2.065L128.745,43.82l-1.827-2.037Zm-1.138-4.45,2.273,2.535,2.836-4.786-.037-.042Z"/><path class="cls-1" d="M135.091,44l-4.643,2.757-1.383-2.329,11.614-6.9,2.6,4.38a5.6,5.6,0,0,1,.939,3.645,3.567,3.567,0,0,1-1.859,2.62,2.98,2.98,0,0,1-1.827.448,3.833,3.833,0,0,1-1.864-.76,2.907,2.907,0,0,1-.135,2.081,3.744,3.744,0,0,1-1.487,1.493l-.854.507a4.875,4.875,0,0,0-.938.735,1.627,1.627,0,0,0-.519.917l-.167.1-1.426-2.4a1.525,1.525,0,0,1,.606-.922,8.289,8.289,0,0,1,1.076-.768l.822-.488a2.15,2.15,0,0,0,1.07-1.277,2.079,2.079,0,0,0-.312-1.623Zm1.795-1.065,1.193,2.011a2.56,2.56,0,0,0,1.284,1.217,1.779,1.779,0,0,0,1.515-.246,1.97,1.97,0,0,0,.982-1.236,2.285,2.285,0,0,0-.375-1.7l-1.218-2.05Z"/><path class="cls-1" d="M135.994,57.691l-1.034-2.5,12.484-5.157,1.034,2.5Z"/><path class="cls-1" d="M80.432,112.1l-.327-.112c-.665-.23-16.377-5.83-22.7-22.63-4.581-12.165-5.036-30-5.054-30.754l-.017-.723,28.1-9.977,28.1,9.977-.017.723c-.018.753-.472,18.59-5.054,30.755-6.325,16.8-22.038,22.4-22.7,22.63ZM54.373,59.275c.136,3.49.948,18.878,4.9,29.375,5.5,14.6,18.891,20.426,21.158,21.32,2.268-.895,15.661-6.719,21.159-21.32,3.953-10.5,4.765-25.885,4.9-29.375l-26.06-9.253Z"/><path class="cls-1" d="M80.432,54.118,57.849,62.137s.347,15.242,4.16,25.369c5.2,13.8,18.423,18.376,18.423,18.376s13.227-4.572,18.424-18.376c3.814-10.127,4.16-25.369,4.16-25.369Z"/><path class="cls-1" d="M147.294,86.6l-.163-.057a8.175,8.175,0,0,1-4.623-4.6,22.357,22.357,0,0,1-1.008-6.111l-.008-.362,5.8-2.06,5.8,2.06-.008.361a22.327,22.327,0,0,1-1.008,6.113,8.173,8.173,0,0,1-4.623,4.6Zm-4.779-10.435a20.568,20.568,0,0,0,.929,5.423,7.227,7.227,0,0,0,3.85,3.944,7.272,7.272,0,0,0,3.852-3.944,20.472,20.472,0,0,0,.929-5.423l-4.779-1.7Z"/><path class="cls-1" d="M14,86.6l-.163-.057a8.175,8.175,0,0,1-4.623-4.6A22.357,22.357,0,0,1,8.2,75.824L8.2,75.462,14,73.4l5.8,2.06-.008.361a22.327,22.327,0,0,1-1.008,6.113,8.173,8.173,0,0,1-4.623,4.6ZM9.218,76.161a20.568,20.568,0,0,0,.929,5.423A7.227,7.227,0,0,0,14,85.528a7.272,7.272,0,0,0,3.852-3.944,20.472,20.472,0,0,0,.929-5.423L14,74.464Z"/><path class="cls-2" d="M74.107,77.376l1.609-1.61,3.564,3.564,9.89-9.891,1.61,1.61-11.5,11.5Zm6.324-8.625a9.2,9.2,0,1,0,9.2,9.2h2.3a11.5,11.5,0,1,1-11.5-11.5,14,14,0,0,1,4.37.806l-1.84,1.839A8.992,8.992,0,0,0,80.432,68.751Z"/></svg>