<?xml version="1.0" encoding="utf-8"?>
<!-- Generator: Adobe Illustrator 20.1.0, SVG Export Plug-In . SVG Version: 6.00 Build 0)  -->
<svg version="1.1" id="Layer_1" xmlns="http://www.w3.org/2000/svg" xmlns:xlink="http://www.w3.org/1999/xlink" x="0px" y="0px"
	 viewBox="0 0 420 300" enable-background="new 0 0 420 300" xml:space="preserve">
<path fill="#FF7A45" d="M217.91,118.18c0,3.56-1.91,6.65-4.91,8.1v-5.07c0-2.1-2.03-4.21-4.12-4.21h-0.01
	c-2.09,0-3.87,2.11-3.87,4.21v5.17c-3-1.4-5.265-4.55-5.265-8.2c0-4.96,4.117-8.99,9.087-8.99
	C213.782,109.19,217.91,113.22,217.91,118.18z"/>
<g>
	<path fill="none" stroke="#298EEA" stroke-width="3" stroke-linecap="round" stroke-miterlimit="10" d="M204.957,205.844v-10.147
		c0-1.132-0.447-2.219-1.251-3.016c-2.756-2.732-9.374-9.732-12.78-17.081c-3.136-6.767-7.101-19.1-9.091-25.528
		c-0.704-2.275,0.589-4.686,2.875-5.354h0c1.944-0.568,4.019,0.31,4.965,2.101l5.91,11.193c1.193,2.259,4.09,2.969,6.192,1.517
		l0.536-0.37c1.152-0.796,1.839-2.107,1.839-3.507v-33.986c0-2.354,1.908-4.262,4.262-4.262h0.906c2.354,0,4.262,1.908,4.262,4.262
		v31.449"/>
	<path fill="none" stroke="#298EEA" stroke-width="3" stroke-linecap="round" stroke-miterlimit="10" d="M213.678,137.52
		c0.849-1.707,2.614-2.882,4.638-2.882c1.435,0,2.719,0.58,3.657,1.518c0.938,0.939,1.518,2.222,1.518,3.657
		c0.925-1.449,2.539-2.415,4.375-2.415c1.422,0,2.719,0.58,3.657,1.518c0.938,0.939,1.518,2.222,1.518,3.657v5.079
		c0.938-1.27,2.443-2.098,4.14-2.098c1.422,0,2.719,0.58,3.657,1.518c0.938,0.938,1.518,2.236,1.518,3.657v19.038
		c0,0,0,5.607-1.974,8.012c0,0-5.962,9.394-5.962,18.728c0,9.335,0,9.335,0,9.335"/>
	
		<line fill="none" stroke="#298EEA" stroke-width="3" stroke-linecap="round" stroke-miterlimit="10" x1="233.048" y1="147.249" x2="233.048" y2="159.57"/>
	
		<line fill="none" stroke="#298EEA" stroke-width="3" stroke-linecap="round" stroke-miterlimit="10" x1="223.502" y1="139.813" x2="223.502" y2="156.996"/>
	<path fill="none" stroke="#298EEA" stroke-width="3" stroke-linecap="round" stroke-miterlimit="10" d="M202.824,130.489
		c-4.409-2.187-7.44-6.734-7.44-11.989c0-7.387,5.988-13.375,13.375-13.375s13.375,5.988,13.375,13.375
		c0,5.42-3.224,10.087-7.859,12.188"/>
</g>
<g>
	<path fill="#D4E8FB" stroke="#298EEA" stroke-width="2" stroke-miterlimit="10" d="M75.809,61.016c0-0.212,0-0.368,0-0.523
		c0.004-7.504,0.007-15.009,0.019-22.513c0-0.297-0.068-0.471-0.344-0.638c-4.78-2.882-9.554-5.774-14.316-8.684
		c-0.41-0.25-0.686-0.257-1.101-0.003c-4.747,2.909-9.507,5.796-14.27,8.678c-0.245,0.148-0.311,0.309-0.311,0.577
		c0.006,7.504,0.005,15.009,0.005,22.513c0,0.081-0.007,0.162,0.001,0.242c0.031,0.298-0.029,0.398-0.331,0.208
		c-0.557-0.351-1.133-0.673-1.7-1.007c-1.008-0.594-2.012-1.194-3.027-1.776c-0.205-0.117-0.271-0.245-0.271-0.475
		c0.006-7.639,0.007-15.278-0.003-22.918c0-0.284,0.132-0.398,0.337-0.522c6.387-3.862,12.782-7.71,19.142-11.615
		c0.76-0.467,1.248-0.42,1.974,0.024c6.298,3.851,12.622,7.663,18.949,11.467c0.4,0.241,0.529,0.486,0.528,0.945
		c-0.016,7.504-0.013,15.009-0.004,22.513c0,0.307-0.083,0.476-0.355,0.632c-1.539,0.883-3.065,1.79-4.596,2.689
		C76.045,60.885,75.954,60.934,75.809,61.016z"/>
	<path fill="#D4E8FB" stroke="#298EEA" stroke-width="2" stroke-miterlimit="10" d="M63.304,36.476
		c1.291,0.786,2.518,1.533,3.744,2.279c1.034,0.629,2.064,1.263,3.104,1.883c0.197,0.117,0.272,0.244,0.272,0.476
		c-0.006,7.625-0.006,15.25,0.001,22.875c0,0.249-0.085,0.382-0.292,0.508c-3.079,1.872-6.155,3.749-9.225,5.637
		c-0.233,0.143-0.388,0.123-0.609-0.013c-3.024-1.859-6.052-3.712-9.087-5.554c-0.253-0.154-0.339-0.317-0.339-0.607
		c0.008-7.585,0.008-15.169,0.001-22.754c0-0.272,0.074-0.434,0.314-0.58c2.113-1.286,4.218-2.587,6.328-3.88
		c0.109-0.067,0.22-0.223,0.346-0.153c0.127,0.07,0.054,0.247,0.054,0.375c0.003,8.851,0.005,17.702-0.006,26.553
		c0,0.34,0.097,0.534,0.392,0.702c0.689,0.392,1.364,0.81,2.031,1.24c0.215,0.139,0.363,0.126,0.573-0.008
		c0.679-0.435,1.368-0.857,2.068-1.258c0.255-0.146,0.34-0.312,0.339-0.605c-0.008-8.864-0.007-17.729-0.007-26.593
		C63.304,36.851,63.304,36.703,63.304,36.476z"/>
</g>
<g>
	<path fill="#298EEA" d="M359.886,70.232c-13.295,0.098-24.369-10.918-24.074-24.543c0.28-12.982,11.093-23.738,24.548-23.45
		c12.998,0.278,23.767,11.115,23.45,24.59C383.505,59.755,372.864,70.234,359.886,70.232z M359.821,69.135
		c12.655-0.081,22.869-10.218,22.869-22.897c0-12.682-10.218-22.875-22.869-22.881c-12.692-0.005-22.905,10.238-22.89,22.901
		C336.946,58.956,347.194,69.07,359.821,69.135z"/>
	<path fill="none" stroke="#298EEA" stroke-linecap="round" stroke-miterlimit="10" d="M370.072,58.67
		c-2.495-7.422-4.954-14.737-7.418-22.068c0.774-0.069,1.517-0.13,2.259-0.201c0.631-0.06,0.966-0.508,0.825-1.087
		c-0.109-0.445-0.443-0.648-0.991-0.61c-1.923,0.133-3.847,0.264-5.777,0.242c-1.623-0.019-3.242-0.125-4.86-0.243
		c-0.681-0.05-1.144,0.399-1.036,1.013c0.069,0.395,0.332,0.631,0.782,0.678c0.607,0.064,1.214,0.13,1.823,0.167
		c0.224,0.014,0.337,0.071,0.418,0.295c0.998,2.759,2.008,5.513,3.018,8.267c0.06,0.164,0.069,0.315,0.013,0.482
		c-1.448,4.337-2.893,8.674-4.34,13.011c-0.021,0.062-0.058,0.119-0.108,0.218c-2.495-7.423-4.977-14.807-7.474-22.232
		c0.769-0.069,1.506-0.132,2.242-0.201c0.654-0.061,1.025-0.58,0.829-1.153c-0.138-0.403-0.482-0.586-1.005-0.547
		c-2.006,0.149-4.013,0.269-6.026,0.242c-0.18-0.002-0.359-0.017-0.634-0.031c3.209-4.661,7.474-7.692,12.962-8.806
		c6.789-1.378,12.807,0.351,18.132,4.905c-0.383,0.039-0.67,0.041-0.945,0.1c-1.777,0.383-2.998,2.198-2.752,4.047
		c0.117,0.881,0.442,1.68,0.86,2.453c0.541,0.999,1.195,1.931,1.706,2.949c1.213,2.415,1.455,4.918,0.688,7.507
		c-1.021,3.451-2.059,6.898-3.091,10.346C370.158,58.47,370.133,58.519,370.072,58.67z"/>
	<path fill="none" stroke="#298EEA" stroke-linecap="round" stroke-miterlimit="10" d="M360.184,48.07
		c0.777,2.13,1.515,4.157,2.256,6.182c1.368,3.741,2.735,7.483,4.114,11.22c0.095,0.258-0.076,0.237-0.203,0.28
		c-1.209,0.415-2.449,0.706-3.714,0.876c-2.796,0.376-5.557,0.205-8.282-0.545c-0.27-0.074-0.357-0.14-0.254-0.437
		c1.986-5.738,3.962-11.481,5.941-17.222C360.073,48.337,360.112,48.251,360.184,48.07z"/>
	<path fill="none" stroke="#298EEA" stroke-linecap="round" stroke-miterlimit="10" d="M340.978,37.88
		c0.232,0.486,9.693,26.421,9.778,26.77c-2.767-0.55-7.878-5.771-9.718-9.973C338.61,49.13,338.641,43.564,340.978,37.88z"/>
	<path fill="none" stroke="#298EEA" stroke-linecap="round" stroke-miterlimit="10" d="M370.186,63.965
		c0.191-0.558,0.363-1.063,0.538-1.568c1.891-5.467,3.765-10.94,5.682-16.397c0.602-1.715,1.199-3.422,1.445-5.232
		c0.19-1.392,0.206-2.786,0.093-4.188c2.335,4.39,3.009,9.033,2.008,13.9C378.62,56.962,374.29,61.702,370.186,63.965z"/>
</g>
<g>
	<path fill="#D4E8FB" stroke="#298EEA" stroke-width="2" stroke-linecap="round" stroke-miterlimit="10" d="M333.727,238.642
		c0-3.599,2.913-6.519,6.512-6.519c3.242,0,5.931,2.37,6.437,5.463c3.517-0.825,7.365,0.139,10.111,2.875l0.376,0.376l-4.812,4.812
		l-0.376-0.376c-1.561-1.561-4.086-1.561-5.656,0c-1.561,1.57-1.561,4.105-0.009,5.665l0.945,0.936l9.899,9.899l-4.803,4.812
		l-5.097-5.097l-4.81-4.803l-0.938-0.936c-2.91-2.913-3.811-7.062-2.708-10.746C335.895,244.345,333.727,241.747,333.727,238.642
		L333.727,238.642z"/>
	<path fill="none" stroke="#298EEA" stroke-width="2" stroke-linecap="round" stroke-miterlimit="10" d="M347.028,251.301
		l4.81,4.812l9.899-9.899l0.947-0.936c1.561-1.563,4.086-1.563,5.647-0.009c1.561,1.561,1.561,4.095,0,5.656l-0.376,0.376
		l4.812,4.812l0.376-0.376c2.875-2.885,3.783-6.98,2.736-10.635c3.195-0.411,5.656-3.15,5.656-6.465
		c0.009-3.599-2.91-6.519-6.509-6.519c-3.298,0-6.025,2.452-6.465,5.621c-3.665-1.077-7.798-0.167-10.689,2.727l-5.748,5.748
		L347.028,251.301z"/>
	<path fill="#D4E8FB" stroke="#298EEA" stroke-width="2" stroke-linecap="round" stroke-miterlimit="10" d="M376.363,267.141
		c0.863-3.536-0.092-7.429-2.866-10.193l-0.936-0.945l-4.812-4.812l-5.486-5.496l-4.812,4.812l5.486,5.496l4.812,4.803l0.936,0.945
		c1.57,1.57,1.57,4.098,0.009,5.649c-1.561,1.561-4.095,1.561-5.647,0l-0.376-0.367l-4.803,4.81l0.367,0.369
		c2.929,2.929,7.116,3.82,10.816,2.689c0.607,2.976,3.232,5.217,6.392,5.217c3.599,0,6.521-2.92,6.521-6.521
		C381.965,270.31,379.53,267.583,376.363,267.141L376.363,267.141z"/>
	<path fill="none" stroke="#298EEA" stroke-width="2" stroke-linecap="round" stroke-miterlimit="10" d="M368.041,261.26
		l-4.812-4.803l-5.192,5.192l-4.803,4.812l-0.947,0.947c-1.552,1.552-4.095,1.561-5.656-0.009c-1.561-1.561-1.561-4.095-0.009-5.656
		l0.376-0.369l-4.812-4.803l-0.367,0.36c-2.8,2.8-3.738,6.749-2.828,10.311c-2.875,0.679-5.014,3.27-5.014,6.347
		c0,3.599,2.92,6.528,6.521,6.528c3.094-0.009,5.691-2.167,6.354-5.059c3.552,0.882,7.473-0.066,10.247-2.838l0.945-0.947
		l4.803-4.822L368.041,261.26z"/>
</g>
<g>
	<path fill="#D4E8FB" stroke="#298EEA" stroke-width="2" stroke-miterlimit="10" d="M71.723,240.996
		c-2.466-1.518-4.782-2.112-7.114-3.632c-1.444-0.966-3.446-3.27-5.13-5.246c-0.308,3.19-1.276,4.498-2.39,5.428
		c-2.356,1.85-3.84,2.41-5.878,3.536c-1.708,0.888-11.026,6.468-10.966,18.412c0.042,11.932,10.148,20.686,21.334,20.624
		c11.182-0.042,20.848-8.188,20.802-20.426C82.335,247.424,73.213,241.92,71.723,240.996z M76.046,270.448
		c-1.658-0.128-5.03-5.284-7.164-5.368c-2.686-0.082-8.516,5.634-13.108,5.644c-2.792,0.008-3.622-0.406-4.56-0.994
		c-1.398-0.97-2.098-2.454-2.06-4.482c0.036-3.614,3.402-6.996,7.678-7.066c5.428-0.056,9.212,5.332,11.956,5.27
		c2.316-0.048,6.76-4.612,8.936-4.616c2.318-0.006,2.976,2.388,2.978,3.83c0.018,1.436-0.432,4.026-1.544,5.642
		C78.053,269.942,77.355,270.552,76.046,270.448z"/>
	<path fill="#298EEA" d="M72.053,275.414c-0.236,0.238-2.36,1.722-4.862,1.966c-2.508,0.246-5.9,0.382-7.94-1.458
		c-0.328-0.306-0.242-0.784-0.012-0.96c0.236-0.198,0.424-0.33,0.694-0.33c0.284,0,0.232,0,0.374,0.088
		c0.938,0.74,2.326,1.326,5.29,1.318c2.966-0.01,5.062-0.838,5.992-1.556c0.416-0.31,0.592-0.044,0.656,0.146
		C72.286,274.806,72.375,275.086,72.053,275.414z"/>
	<path fill="#298EEA" d="M63.991,271.554c0.5-0.46,1.35-1.204,2.138-1.532c0.784-0.332,1.194-0.29,1.94-0.292
		c0.74,0,1.546,0.042,2.096,0.412c0.562,0.37,0.897,1.192,1.07,1.652c0.196,0.458,0.004,0.736-0.366,0.938
		c-0.324,0.176-0.37,0.086-0.7-0.516c-0.31-0.59-0.598-1.2-2.228-1.196c-1.62,0.024-2.138,0.566-2.922,1.226
		c-0.782,0.652-1.07,0.872-1.332,0.5C63.402,272.382,63.485,272.012,63.991,271.554z"/>
</g>
<path fill-rule="evenodd" clip-rule="evenodd" fill="#D4E8FB" stroke="#298EEA" stroke-linecap="round" stroke-miterlimit="10" d="
	M347.008,154.209c0,0-1.085-1.232,0.733-2.756c1.818-1.525,3.665-0.235,3.665-0.235l1.73,1.437l-1.305-9.138
	c0,0-0.767-3.316,2.244-3.94c0,0,2.463-0.352,2.815,2.053l0.909,5.366c0,0,1.935-1.759,3.871,0.205c0,0,2.141-2.023,4.193,0.411
	c0,0,2.61-2.141,4.457,1.613c0.687,1.395,0.947,3.118,1.005,4.732l3.846-0.392l-3.802-34.82l-8.27,0.841
	c0,0-0.755-8.83-10.332-7.602c-7.91,1.014-8.011,9.49-8.011,9.49l-6.844,0.674l3.582,34.847l7.706-0.785
	C348.459,155.467,347.721,154.785,347.008,154.209z M352.904,112.681c4.926-0.577,7.456,6.124,7.456,7.101l-12.959,1.198
	C347.401,120.98,347.802,113.279,352.904,112.681z"/>
<path fill-rule="evenodd" clip-rule="evenodd" fill="#298EEA" d="M350.648,152.311c0,0-1.397-0.856-2.479,0.631l-0.135,0.315
	c0,0,3.526,3.42,6.46,6.884c2.535,2.993,4.538,6.097,4.538,6.097l10.051-1.442c0,0-0.09-3.11,0.676-6.626
	c0.297-1.361,0.357-2.971,0.238-4.463c-0.188-2.363-0.914-4.698-1.771-5.002c-1.397-0.496-1.803,0.09-1.577,1.217l0.09,1.352h-1.262
	c0,0-0.09-3.561-1.893-3.516c-1.803,0.045-1.172,3.155-1.172,3.155h-1.127c0,0,0.18-3.335-1.668-3.335s-1.442,3.831-1.442,3.831
	h-1.082l-1.516-9.522c0,0-0.089-1.073-1.341-0.939c-1.251,0.134-1.117,2.056-1.117,2.056l1.949,13.06L350.648,152.311z"/>
<g>
	<path fill="#298EEA" d="M322.11,172.71c0.619-0.16,1.338-0.26,2.217-0.26c1.238,0,2.297,0.3,2.996,0.979
		c0.639,0.639,0.979,1.618,0.979,2.797c0,1.238-0.3,2.077-0.819,2.757c-0.719,0.999-1.978,1.498-3.176,1.498
		c-0.26,0-0.459,0-0.679-0.02v5.513h-1.518V172.71z M323.628,179.182c0.18,0.02,0.36,0.04,0.619,0.04
		c1.498,0,2.517-0.979,2.517-2.896c0-1.378-0.559-2.617-2.277-2.617c-0.36,0-0.659,0.04-0.859,0.1V179.182z"/>
	<path fill="#298EEA" d="M330.08,172.71c0.639-0.18,1.438-0.26,2.197-0.26c1.338,0,2.337,0.28,3.036,0.959
		c0.659,0.679,0.939,1.578,0.939,2.637c0,1.718-0.799,2.837-2.158,3.476v0.04c0.999,0.3,1.518,1.258,1.798,3.016
		c0.32,1.838,0.579,2.976,0.779,3.396h-1.558c-0.2-0.4-0.459-1.678-0.719-3.316c-0.3-1.858-0.879-2.537-2.197-2.537h-0.599v5.853
		h-1.518V172.71z M331.598,178.922h0.659c1.458,0,2.437-1.079,2.437-2.697c0-1.558-0.639-2.517-2.277-2.537
		c-0.32,0-0.619,0.02-0.819,0.08V178.922z"/>
	<path fill="#298EEA" d="M343.144,179.582h-3.376v5.054h3.835v1.338h-5.374V172.51h5.134v1.338h-3.596v4.435h3.376V179.582z"/>
	<path fill="#298EEA" d="M345.002,184.196c0.439,0.3,1.258,0.539,1.918,0.539c1.418,0,2.257-0.919,2.257-2.277
		c0-1.238-0.719-1.998-1.778-2.797c-1.079-0.739-2.537-1.998-2.537-3.735c0-2.038,1.418-3.536,3.556-3.536
		c0.839,0,1.558,0.26,1.878,0.499l-0.36,1.318c-0.34-0.24-0.899-0.459-1.598-0.459c-1.338,0-1.958,0.999-1.958,1.918
		c0,1.338,0.699,1.858,1.978,2.777c1.618,1.139,2.337,2.377,2.337,3.875c0,2.317-1.618,3.775-3.775,3.775
		c-0.919,0-1.878-0.3-2.257-0.579L345.002,184.196z"/>
	<path fill="#298EEA" d="M354.091,173.888h-2.457v-1.378h6.452v1.378h-2.457v12.085h-1.538V173.888z"/>
	<path fill="#298EEA" d="M360.303,181.939l-0.879,4.035h-1.498l3.076-13.464h1.698l2.996,13.464h-1.518l-0.879-4.035H360.303z
		 M363.08,180.7l-0.699-3.416c-0.2-0.959-0.38-2.077-0.539-3.076h-0.06c-0.16,1.019-0.36,2.177-0.559,3.076l-0.699,3.416H363.08z"/>
	<path fill="#D4E8FB" d="M367.075,184.196c0.439,0.3,1.258,0.539,1.918,0.539c1.418,0,2.257-0.919,2.257-2.277
		c0-1.238-0.719-1.998-1.778-2.797c-1.079-0.739-2.537-1.998-2.537-3.735c0-2.038,1.418-3.536,3.556-3.536
		c0.839,0,1.558,0.26,1.878,0.499l-0.36,1.318c-0.34-0.24-0.899-0.459-1.598-0.459c-1.338,0-1.958,0.999-1.958,1.918
		c0,1.338,0.699,1.858,1.978,2.777c1.618,1.139,2.337,2.377,2.337,3.875c0,2.317-1.618,3.775-3.775,3.775
		c-0.919,0-1.878-0.3-2.257-0.579L367.075,184.196z"/>
	<path fill="#D4E8FB" d="M376.124,172.51v5.773h3.775v-5.773h1.538v13.464H379.9v-6.292h-3.775v6.292h-1.538V172.51H376.124z"/>
	<path fill="#D4E8FB" d="M390.906,179.142c0,5.054-1.718,6.992-3.895,6.992c-2.237,0-3.735-2.377-3.735-6.912
		c0-4.455,1.618-6.872,3.955-6.872C389.528,172.35,390.906,174.847,390.906,179.142z M384.874,179.242
		c0,2.777,0.539,5.533,2.257,5.533c1.718,0,2.177-2.936,2.177-5.573c0-2.517-0.459-5.493-2.197-5.493
		C385.413,173.709,384.874,176.505,384.874,179.242z"/>
	<path fill="#D4E8FB" d="M392.764,172.71c0.619-0.16,1.338-0.26,2.217-0.26c1.238,0,2.297,0.3,2.996,0.979
		c0.639,0.639,0.979,1.618,0.979,2.797c0,1.238-0.3,2.077-0.819,2.757c-0.719,0.999-1.978,1.498-3.176,1.498
		c-0.26,0-0.459,0-0.679-0.02v5.513h-1.518V172.71z M394.283,179.182c0.18,0.02,0.359,0.04,0.619,0.04
		c1.498,0,2.517-0.979,2.517-2.896c0-1.378-0.559-2.617-2.277-2.617c-0.36,0-0.659,0.04-0.859,0.1V179.182z"/>
</g>
<g>
	<path fill="#298EEA" d="M320.159,254.788c-1.458-0.384-2.953-0.446-4.454-0.351c-3.173-0.214-6.358-0.052-9.53-0.329
		c-2.735-0.239-5.408-0.627-7.608-2.488c-0.109-0.092-0.232-0.182-0.393-0.015c0.432,0.897,1.073,1.619,1.888,2.198
		c1.883,1.337,4.067,1.729,6.288,2.005c3.108,0.386,6.241,0.015,9.352,0.321c0.535,0.119,1.079,0.208,1.603,0.363
		c1.151,0.34,1.357,0.93,0.718,1.932c-0.423,0.665-1.007,1.187-1.525,1.769c-0.479,0.537-1.063,0.989-1.448,1.642
		c0.416,0.143,0.608-0.119,0.818-0.297c0.882-0.745,1.769-1.486,2.626-2.26c0.834-0.754,1.728-1.45,2.403-2.367
		C321.717,255.796,321.511,255.143,320.159,254.788z"/>
	<path fill="#298EEA" d="M303.89,267.8c-0.966,0.012-1.725-0.72-1.727-1.665c-0.002-0.916,0.801-1.731,1.703-1.731
		c0.881,0,1.709,0.855,1.697,1.751C305.553,267.05,304.801,267.789,303.89,267.8z"/>
	<path fill="#298EEA" d="M313.284,266.142c-0.005,0.968-0.736,1.678-1.706,1.657c-0.917-0.02-1.618-0.736-1.627-1.663
		c-0.009-0.957,0.739-1.728,1.674-1.726C312.567,264.413,313.289,265.166,313.284,266.142z"/>
	<g>
		<path fill="#298EEA" d="M251.962,256.016c-1.144-0.122-2.068,0.337-2.856,1.129c-0.394-0.866-1.09-1.077-1.89-0.931
			c-0.778,0.142-1.142,0.73-1.278,1.471c-0.026,0.141-0.029,0.288-0.029,0.432c-0.002,2.518-0.011,5.036,0.003,7.554
			c0.006,1.067,0.488,1.758,1.278,1.929c1.045,0.226,1.911-0.471,1.969-1.75c0.073-1.615-0.026-3.237,0.027-4.853
			c0.058-1.738,0.822-2.358,2.535-2.182c0.945,0.647,1.102,1.619,1.139,2.664c0.053,1.499-0.293,2.993-0.044,4.492
			c0.19,1.147,0.79,1.711,1.74,1.653c0.91-0.056,1.5-0.748,1.513-1.879c0.023-1.964,0.046-3.93-0.004-5.893
			C256,257.309,254.465,255.906,251.962,256.016z"/>
		<path fill="#298EEA" d="M228.516,256.02c-1.021-0.141-1.958,0.08-2.747,0.745c-0.325,0.274-0.503,0.357-0.811-0.029
			c-0.437-0.548-1.054-0.707-1.72-0.465c-0.738,0.268-1.096,0.862-1.1,1.612c-0.017,4.194-0.019,8.387-0.001,12.581
			c0.004,0.971,0.64,1.683,1.46,1.768c0.847,0.087,1.532-0.468,1.751-1.458c0.195-0.882,0.213-1.776,0.103-2.674
			c-0.04-0.324-0.114-0.658,0.052-1.014c0.97,0.578,1.937,0.889,3.012,0.704c0.982,0.036,1.791-0.376,2.498-1.005
			c2.328-2.072,2.823-5.801,1.111-8.443C231.278,257.032,230.198,256.048,228.516,256.02z M228.517,264.553L228.517,264.553
			c-0.963,0.248-1.873,0.299-2.512-0.669c-0.767-1.163-0.802-2.375-0.218-3.616c0.521-1.109,1.458-1.281,2.544-1.092
			C230.377,260.441,230.472,263.173,228.517,264.553z"/>
		<path fill="#298EEA" d="M277.068,256.26c-0.63-0.211-1.196-0.06-1.66,0.43c-0.153,0.162-0.238,0.412-0.521,0.409
			c-1.517-1.851-4.639-1.253-6.123,0.434c-2.033,2.311-2.04,6.191-0.098,8.588c1.365,1.684,3.488,2.195,5.35,1.286
			c-0.002-0.052-0.003-0.104-0.004-0.156c0.001,0.052,0.002,0.104,0.004,0.156c0.13-0.062,0.297-0.091,0.383-0.19
			c0.435-0.503,0.756-0.477,1.199,0.055c0.375,0.451,0.987,0.461,1.534,0.262c0.622-0.227,1.035-0.705,1.042-1.366
			c0.028-2.834,0.03-5.668,0.002-8.501C278.171,256.969,277.73,256.481,277.068,256.26z M273.833,264.449L273.833,264.449
			c-2.012,0.684-3.331-0.335-3.325-2.569c0.004-1.558,0.649-2.534,1.804-2.735c1.169-0.203,2.022,0.414,2.601,1.882
			C275.005,262.311,274.959,263.551,273.833,264.449z"/>
		<path fill="#298EEA" d="M217.06,256.153c-0.847-0.286-1.715-0.239-2.555-0.04c-3.506,0.827-5.261,5.057-3.593,8.603
			c1.178,2.505,3.803,3.715,6.317,2.913c0.848-0.08,1.522-0.52,2.127-1.068c1.905-1.727,2.534-4.746,1.446-7.272
			C220.093,257.643,218.929,256.455,217.06,256.153z M216.876,264.482L216.876,264.482c-1.287,0.377-2.146,0.185-2.724-0.607
			c-0.753-1.032-0.783-2.752-0.068-3.834c0.57-0.862,1.378-1.076,2.757-0.731C218.487,260.918,218.5,262.836,216.876,264.482z"/>
		<path fill="#298EEA" d="M240.498,256.035c-0.691-0.071-1.38-0.094-2.063,0.074c-2.975,0.731-4.86,3.776-4.304,6.958
			c0.55,3.146,3.006,5.016,6.195,4.717c1.431,0.021,2.737-0.391,3.878-1.236c0.705-0.522,0.863-1.447,0.465-2.087
			c-0.409-0.657-0.979-0.795-1.896-0.432c-0.855,0.339-1.683,0.758-2.621,0.84c-0.948-0.057-1.878-0.155-2.401-1.12
			c-0.26-0.48-0.281-0.813,0.431-0.797c0.772,0.017,1.545-0.015,2.317-0.025c1.099,0.006,2.197,0.022,3.296,0.015
			c0.704-0.004,1.139-0.335,1.226-1.073C245.345,259.124,243.236,256.399,240.498,256.035z M241.698,260.523
			c-0.126,0.318-0.448,0.148-0.685,0.187c-0.17,0.028-0.342,0.037-0.514,0.054c0.026,0.09,0.045,0.18,0.057,0.27
			c-0.012-0.09-0.03-0.18-0.057-0.27c-0.773-0.016-1.547-0.063-2.32-0.04c-0.734,0.022-0.692-0.33-0.418-0.783
			c0.583-0.965,1.44-1.356,2.559-1.139c0.427,0.289,0.89,0.533,1.165,1.003C241.617,260.031,241.802,260.261,241.698,260.523z"/>
		<path fill="#298EEA" d="M264.388,264.235c-0.72,0.195-1.428,0.442-2.181,0.489c-1.374-0.417-1.974-1.278-1.972-2.828
			c0.003-1.56,0.624-2.37,2.147-2.798c0.644,0.014,1.244,0.232,1.853,0.405c1.009,0.286,1.612,0.061,1.949-0.725
			c0.323-0.754,0.03-1.633-0.728-2.096c-0.944-0.577-1.976-0.785-3.074-0.667c-1.245-0.093-2.331,0.308-3.287,1.081
			c-2.034,1.646-2.761,4.762-1.652,7.349c0.858,2.002,2.293,3.289,4.596,3.345c1.377,0.198,2.616-0.157,3.686-1.018
			c0.593-0.477,0.78-1.114,0.405-1.849C265.748,264.175,265.14,264.031,264.388,264.235z"/>
		<path fill="#298EEA" d="M283.535,256.488c-0.438-0.064-0.598,1.051-1.241,0.253c-0.479-0.596-1.174-0.731-1.889-0.436
			c-0.724,0.298-1.013,0.887-1.01,1.659c0.009,2.632,0.002,5.263,0.006,7.895c0,0.2,0.011,0.408,0.065,0.599
			c0.217,0.77,0.912,1.236,1.707,1.166c0.85-0.074,1.45-0.721,1.484-1.738c0.045-1.329,0.029-2.66,0.012-3.99
			c-0.013-1.009,0.313-1.81,1.249-2.29c0.598-0.206,1.22-0.36,1.789-0.629c0.888-0.42,1.116-1.466,0.557-2.278
			C285.654,255.814,284.575,255.731,283.535,256.488z"/>
		<path fill="#298EEA" d="M293.644,256.35c-0.345-0.023-0.692-0.013-1.039-0.018c-0.325-0.776-0.044-1.599-0.186-2.391
			c-0.171-0.946-0.708-1.5-1.507-1.519c-0.816-0.02-1.462,0.576-1.583,1.534c-0.069,0.542-0.069,1.098-0.049,1.645
			c0.017,0.493-0.121,0.715-0.665,0.762c-1.069,0.093-1.437,0.515-1.431,1.459c0.006,0.902,0.388,1.368,1.378,1.425
			c0.671,0.039,0.722,0.362,0.718,0.888c-0.017,1.908-0.018,3.817,0.001,5.725c0.011,1.075,0.661,1.761,1.604,1.766
			c0.955,0.005,1.565-0.664,1.573-1.776c0.014-1.85,0.002-3.701,0.008-5.552c0.001-0.342-0.071-0.698,0.136-1.014
			c0.346-0.004,0.694,0.013,1.039-0.015c0.983-0.081,1.485-0.585,1.484-1.466C295.123,256.912,294.625,256.416,293.644,256.35z"/>
	</g>
</g>
<g>
	<path fill="#D4E8FB" d="M295.906,41.29c-1.087-0.181-2.188-0.053-3.281-0.1c-0.505-0.022-0.728,0.148-0.82,0.669
		c-0.287,1.632-0.628,3.254-0.95,4.879c-0.355,1.794-0.356,1.794,1.452,1.794c3.628,0.076,5.255-0.98,5.605-4.731
		C298.054,42.277,297.414,41.54,295.906,41.29z"/>
	<path fill="#D4E8FB" d="M266.03,41.321c-1.202-0.238-2.423-0.09-3.635-0.124c-0.428-0.012-0.53,0.232-0.598,0.6
		c-0.31,1.659-0.65,3.312-0.972,4.969c-0.343,1.765-0.339,1.766,1.477,1.765c3.415,0.065,5.349-0.79,5.572-4.932
		C267.949,42.221,267.396,41.591,266.03,41.321z"/>
	<path fill="#D4E8FB" d="M278.167,28.192c-19.054,0-34.5,8.077-34.5,18.041s15.446,18.041,34.5,18.041s34.5-8.077,34.5-18.041
		S297.221,28.192,278.167,28.192z M264.404,51.329c-1.272,0.049-2.548,0.047-3.821,0.034c-0.467-0.005-0.686,0.134-0.766,0.621
		c-0.183,1.109-0.461,2.203-0.633,3.314c-0.095,0.612-0.395,0.776-0.961,0.75c-0.739-0.034-1.484-0.047-2.221,0.003
		c-0.718,0.048-0.854-0.217-0.719-0.884c0.628-3.106,1.215-6.221,1.821-9.332c0.436-2.238,0.9-4.471,1.304-6.715
		c0.106-0.587,0.334-0.786,0.923-0.768c1.273,0.039,2.548,0.012,4.092,0.012c1.385,0.073,3.052-0.161,4.693,0.205
		c2.508,0.559,3.845,2.248,3.848,4.818C271.968,47.3,269.234,51.142,264.404,51.329z M282.426,51.372
		c-1.896,0-1.89,0.001-1.517-1.869c0.399-2.004,0.805-4.007,1.17-6.017c0.296-1.631-0.103-2.124-1.744-2.219
		c-0.768-0.045-1.545,0.027-2.308-0.05c-0.814-0.083-1.129,0.214-1.27,1.022c-0.485,2.771-1.072,5.523-1.567,8.293
		c-0.118,0.66-0.362,0.908-1.033,0.854c-0.707-0.056-1.426-0.067-2.131,0.002c-0.817,0.079-0.852-0.277-0.722-0.932
		c0.798-4.008,1.567-8.022,2.347-12.033c0.265-1.366,0.552-2.729,0.787-4.101c0.089-0.517,0.322-0.693,0.83-0.674
		c0.828,0.031,1.659,0.027,2.488,0.003c0.531-0.016,0.674,0.187,0.565,0.694c-0.229,1.072-0.405,2.154-0.636,3.226
		c-0.123,0.568,0.002,0.838,0.639,0.802c0.65-0.037,1.303-0.008,1.955-0.008c1.127-0.007,2.252-0.007,3.356,0.271
		c1.911,0.482,2.765,1.592,2.561,3.559c-0.251,2.417-0.876,4.773-1.322,7.158C284.496,51.376,284.474,51.372,282.426,51.372z
		 M301.916,44.422c-0.605,4.068-3.22,6.53-7.36,6.897c-0.675,0.06-1.36,0.008-1.709,0.008c-1.153,0.106-2.163-0.284-2.75,0.192
		c-0.585,0.475-0.436,1.533-0.609,2.335c-0.471,2.183-0.464,2.185-2.682,2.185c-1.631,0-1.641-0.002-1.338-1.57
		c0.982-5.084,1.983-10.164,2.944-15.251c0.121-0.641,0.337-0.885,1.019-0.872c2.249,0.043,4.499,0.014,6.749,0.019
		c0.355,0.001,0.711,0.016,1.064,0.051C300.633,38.752,302.418,41.05,301.916,44.422z"/>
</g>
<g>
	<path fill="#298EEA" d="M167.972,226.382c0.948,0.36,1.982,0.523,2.824,1.124c1.098,0.782,2.23,1.261,3.638,1.378
		c2.352,0.195,4.206,1.643,5.995,3.05c2.944,2.314,5.219,5.143,6.596,8.684c0.711,1.828,1.66,3.564,2.494,5.345
		c0.221,0.472,0.564,0.755,1.057,0.95c2.765,1.098,5.162,2.73,7.13,4.98c0.42,0.481,0.27,0.596-0.262,0.754
		c-1.241,0.367-2.544,0.384-3.789,0.747c-0.608,0.177-0.48,0.336-0.174,0.653c0.329,0.341,0.705,0.624,1.123,0.839
		c1.667,0.859,2.884,2.226,4.106,3.59c0.156,0.175,0.267,0.38,0.285,0.674c-0.192,0.023-0.275-0.131-0.382-0.223
		c-1.072-0.93-2.283-1.629-3.566-2.224c-1.245-0.577-2.368-1.334-3.209-2.447c-0.154-0.204-0.266-0.44-0.406-0.655
		c-0.342-0.527-0.201-0.792,0.398-1.009c1.475-0.535,2.989-0.748,4.554-0.703c0.043-0.367-0.228-0.478-0.422-0.612
		c-1.904-1.319-3.744-2.758-6.088-3.257c-0.807-0.172-1.28-0.732-1.624-1.434c-0.99-2.018-1.922-4.061-2.833-6.116
		c-2.116-4.775-5.536-8.238-10.419-10.202c-0.808-0.325-1.666-0.236-2.498-0.339c-0.496-0.062-0.881-0.216-1.256-0.524
		c-0.936-0.768-2.024-1.255-3.168-1.627c-0.375-0.122-0.756-0.177-1.049,0.14c-0.329,0.357-0.17,0.762,0.018,1.116
		c0.197,0.37,0.423,0.735,0.694,1.054c1.174,1.38,1.995,2.935,2.472,4.684c0.385,1.413,0.927,2.75,2.004,3.81
		c0.4,0.394,0.335,0.897,0.178,1.387c-0.327,1.024-0.739,2.022-0.836,3.113c-0.146,1.642,0.031,3.229,0.681,4.752
		c0.073,0.172,0.155,0.342,0.251,0.503c0.183,0.307,0.412,0.682,0.775,0.632c0.396-0.054,0.205-0.506,0.241-0.772
		c0.186-1.376,0.333-2.747,1.361-3.835c0.299-0.316,0.399-0.315,0.535,0.08c0.921,2.663,2.375,5.032,4.037,7.285
		c-0.072,0.008-0.143,0.016-0.215,0.023c-1.755-1.27-3.143-2.844-4.055-4.862c-0.099,0.637-0.193,1.274-0.3,1.91
		c-0.108,0.646-0.294,1.235-1.031,1.444c-0.696,0.197-1.192-0.149-1.61-0.612c-1.207-1.339-1.581-2.993-1.713-4.728
		c-0.134-1.764,0.317-3.438,0.812-5.101c0.079-0.266,0.149-0.48-0.06-0.704c-1.289-1.383-1.853-3.141-2.365-4.882
		c-0.378-1.285-1.087-2.316-1.88-3.331c-0.361-0.462-0.719-0.925-0.967-1.461c-0.586-1.267-0.143-2.375,1.155-2.882
		c0.088-0.035,0.178-0.051,0.201-0.16C167.597,226.382,167.785,226.382,167.972,226.382z"/>
	<g>
		<path fill="#298EEA" d="M132.897,273.008c-0.016-0.63-0.264-1.425,0.084-1.84c0.332-0.396,1.148-0.118,1.749-0.122
			c2.394-0.015,4.788-0.01,7.182-0.003c0.477,0.001,0.936-0.061,1.365-0.272c0.524-0.258,0.877-1.348,0.6-1.847
			c-0.136-0.245-0.378-0.13-0.568-0.131c-1.995-0.01-3.99,0.005-5.985-0.015c-1.165-0.012-2.281-0.255-3.284-0.885
			c-0.837-0.526-1.275-1.253-1.256-2.278c0.036-1.924,0.036-3.849,0.019-5.773c-0.004-0.41,0.114-0.525,0.51-0.507
			c0.632,0.03,1.269,0.037,1.9-0.002c0.441-0.027,0.552,0.12,0.546,0.549c-0.023,1.854-0.011,3.708-0.009,5.562
			c0.001,1.048,0.358,1.49,1.403,1.513c2.111,0.047,4.224,0.016,6.336,0.045c0.5,0.007,0.427-0.297,0.427-0.596
			c0-2.136,0.022-4.272-0.015-6.407c-0.01-0.578,0.178-0.733,0.713-0.68c0.739,0.072,1.733-0.311,2.153,0.153
			c0.368,0.407,0.119,1.383,0.12,2.108c0.005,2.535-0.049,5.071,0.017,7.604c0.046,1.784-0.473,2.889-2.754,3.575
			c-0.23,0.069-0.521,0.002-0.688,0.25C139.94,273.008,136.419,273.008,132.897,273.008z"/>
		<path fill="#298EEA" d="M127.249,257.474c-1.351,3.01-2.702,6.02-4.053,9.031c-0.096,0.214-0.203,0.423-0.284,0.642
			c-0.679,1.858-2.107,2.216-4.026,1.755c-0.853-0.205-1.263-0.916-1.596-1.663c-1.327-2.971-2.655-5.941-3.984-8.912
			c-0.13-0.29-0.27-0.575-0.532-0.832c0,0.875,0,1.751,0,2.626c0,2.722-0.011,5.444,0.011,8.166c0.004,0.481-0.109,0.67-0.617,0.63
			c-0.56-0.044-1.13-0.055-1.687,0.002c-0.596,0.06-0.681-0.195-0.678-0.716c0.021-3.402,0.011-6.805,0.011-10.207
			c0-2.347,0.901-3.193,3.271-3.076c1.277,0.063,2.139,0.683,2.643,1.866c1.341,3.143,2.706,6.276,4.062,9.413
			c0.056,0.129,0.116,0.255,0.183,0.403c0.227-0.133,0.257-0.371,0.342-0.561c1.338-2.992,2.667-5.987,3.999-8.981
			c0.949-2.134,3.182-2.82,5.202-1.605c0.587,0.353,0.817,0.91,0.82,1.543c0.017,3.825,0.009,7.649,0.021,11.474
			c0.001,0.338-0.11,0.453-0.445,0.441c-0.609-0.02-1.223-0.041-1.829,0.005c-0.54,0.04-0.713-0.112-0.706-0.683
			c0.032-2.886,0.014-5.772,0.014-8.658c0-0.694,0-1.388,0-2.083C127.343,257.486,127.296,257.48,127.249,257.474z"/>
		<path fill="#D4E8FB" d="M177.205,268.324c0.933,0.847,1.825,1.656,2.857,2.593c-1.211,0-2.231,0.001-3.252,0
			c-0.296,0-0.471-0.225-0.625-0.412c-1.107-1.341-2.43-1.934-4.222-1.599c-1.02,0.191-2.106,0.021-3.161,0.04
			c-0.885,0.015-1.724-0.18-2.537-0.495c-1.405-0.545-2.058-1.502-2.064-3.026c-0.01-2.253-0.009-4.505,0-6.758
			c0.006-1.519,0.671-2.454,2.102-2.989c0.73-0.273,1.483-0.441,2.265-0.443c2.018-0.004,4.036-0.01,6.054,0.003
			c0.877,0.005,1.72,0.207,2.519,0.568c1.159,0.524,1.786,1.421,1.794,2.701c0.014,2.346,0.016,4.693,0,7.04
			C178.924,266.931,178.558,267.506,177.205,268.324z M169.784,264.713c0.483,0,0.789,0.042,1.08-0.007
			c1.666-0.278,2.996,0.249,4.078,1.548c0.419,0.503,0.721,0.411,1.041-0.161c0.156-0.278,0.171-0.577,0.17-0.886
			c-0.003-2.065,0-4.13-0.002-6.195c-0.001-1.064-0.452-1.679-1.501-1.748c-1.896-0.125-3.802-0.129-5.698,0.002
			c-1.1,0.076-1.541,0.676-1.542,1.786c-0.002,2.018-0.005,4.036,0.001,6.055c0.003,1.001,0.405,1.562,1.372,1.755
			c1.094,0.219,2.203,0.057,3.465,0.103C171.377,266.169,170.652,265.507,169.784,264.713z"/>
		<path fill="#D4E8FB" d="M157.32,255.171c1.525,0,3.05,0.012,4.575-0.008c0.419-0.006,0.564,0.107,0.569,0.55
			c0.016,1.467,0.035,1.467-1.403,1.467c-2.205,0-4.411-0.004-6.616,0.001c-2.139,0.005-2.309,0.183-2.266,2.329
			c0.02,0.994,0.442,1.49,1.438,1.532c1.241,0.052,2.486,0.021,3.729,0.036c1.228,0.015,2.428,0.159,3.536,0.758
			c0.968,0.523,1.571,1.246,1.453,2.417c-0.021,0.209-0.003,0.422-0.003,0.633c0,2.382-0.929,3.469-3.318,3.891
			c-0.673,0.119-1.351,0.135-2.032,0.134c-2.369-0.006-4.739-0.017-7.108,0.009c-0.527,0.006-0.735-0.1-0.719-0.682
			c0.036-1.312,0.003-1.313,1.345-1.313c2.158,0,4.317,0.006,6.475-0.006c0.419-0.002,0.847-0.036,1.256-0.125
			c0.764-0.166,1.092-0.612,1.105-1.4c0.001-0.07,0-0.141,0-0.211c0.004-1.884-0.302-2.219-2.223-2.288
			c-1.219-0.043-2.44,0.004-3.659-0.033c-1.118-0.034-2.177-0.322-3.124-0.939c-0.735-0.479-1.17-1.128-1.118-2.051
			c0.027-0.491,0.02-0.985,0.004-1.478c-0.042-1.352,0.655-2.192,1.839-2.713c0.788-0.347,1.618-0.458,2.467-0.483
			c0.234-0.007,0.469-0.024,0.703-0.024c1.032-0.003,2.064-0.001,3.097-0.001C157.32,255.173,157.32,255.172,157.32,255.171z"/>
		<path fill="#D4E8FB" d="M183.748,260.609c0,1.549-0.005,3.098,0.002,4.647c0.004,1.006,0.345,1.39,1.326,1.573
			c0.652,0.122,1.309,0.095,1.965,0.096c2.089,0.002,4.178,0.012,6.266-0.008c0.439-0.004,0.606,0.088,0.603,0.572
			c-0.007,1.418,0.016,1.438-1.37,1.414c-2.626-0.046-5.257,0.144-7.879-0.124c-0.463-0.047-0.928-0.149-1.372-0.288
			c-1.814-0.565-2.502-1.515-2.502-3.413c-0.001-3.098,0.011-6.196-0.012-9.294c-0.004-0.498,0.141-0.667,0.631-0.618
			c0.764,0.077,1.766-0.323,2.228,0.165c0.369,0.39,0.107,1.384,0.111,2.109C183.753,258.497,183.748,259.553,183.748,260.609z"/>
		<path fill="#298EEA" d="M172.451,232.246c0.812-0.229,1.323-0.024,1.664,0.596c0.3,0.545,0.075,0.978-0.347,1.504
			C173.441,233.55,173.009,232.906,172.451,232.246z"/>
		<path fill="#298EEA" d="M179.222,251.751c0.072-0.008,0.143-0.016,0.215-0.023c0.039,0.041,0.078,0.081,0.116,0.122
			c-0.035,0.045-0.071,0.091-0.106,0.136C179.372,251.907,179.297,251.829,179.222,251.751z"/>
		<path fill="#298EEA" d="M179.553,251.849c0.045,0.049,0.09,0.098,0.135,0.147c-0.034,0.043-0.067,0.085-0.101,0.128
			c-0.046-0.047-0.093-0.093-0.14-0.14C179.482,251.94,179.518,251.895,179.553,251.849z"/>
		<path fill="#298EEA" d="M179.737,252.269c-0.05-0.048-0.1-0.096-0.15-0.144c0.034-0.042,0.067-0.085,0.101-0.128
			c0.046,0.048,0.092,0.096,0.139,0.144C179.797,252.183,179.767,252.226,179.737,252.269z"/>
		<path fill="#298EEA" d="M179.826,252.14c0.073,0.043,0.156,0.09,0.067,0.181c-0.017,0.017-0.102-0.034-0.156-0.053
			C179.767,252.226,179.797,252.183,179.826,252.14z"/>
		<path fill="#298EEA" d="M180.006,252.465c0.015,0.001,0.035-0.005,0.045,0.002c0.012,0.009,0.026,0.035,0.021,0.044
			c-0.03,0.062-0.064,0.061-0.089-0.003C179.979,252.499,179.998,252.48,180.006,252.465z"/>
		<path fill="#298EEA" d="M180.266,252.626c0.017,0,0.038-0.006,0.048,0.002c0.013,0.01,0.028,0.036,0.023,0.047
			c-0.03,0.067-0.067,0.066-0.095-0.001C180.238,252.663,180.258,252.642,180.266,252.626z"/>
	</g>
</g>
<g>
	<path fill="#298EEA" d="M58.146,142.531c1.583,0.229,1.63-0.531,1.677-0.531c-1.134,0-2.268,0-3.47,0
		c1.176-2,2.802-3.32,4.249-4.752c0.269-0.343,0.543-0.772,0.806-1.12c0.16-0.211,0.474-0.469,0.208-0.759
		c-0.262-0.285-0.618-0.183-0.887-0.006c-0.565,0.371-1.149,0.716-1.581,1.257c-0.888,0.636-1.526,1.521-2.313,2.257
		c-1.55,1.448-3.466,2.034-5.511,2.302c0.667-1.076,1.467-1.981,2.112-2.985c0.934-1.454,2.15-2.34,3.865-2.748
		c0.642-0.153,1.317-0.333,1.876-0.748c0.47-0.219,0.982-0.369,1.462-0.572l0.003,0.002c0,0,0.01-0.006,0.013-0.008
		c0.355-0.152,0.688-0.342,0.975-0.61c1.052-0.664,2.62-1.672,3.029-2.034c0.018-0.016,0.022-0.027,0.037-0.042
		c0.848-0.68,1.532-1.485,1.8-2.577c0.292-1.187-0.04-1.713-1.261-2.096c-0.489-0.127-0.955-0.019-1.42,0.129
		c-1.578,0.502-2.866,1.491-4.165,2.463c-2,1.394-3.659,3.159-5.138,5.059c-0.926,1.189-1.972,1.66-3.442,1.767
		c-1.996,0.145-4.001,0.449-5.823,1.405c-1.584,0.831-2.08,1.783-1.783,3.399c0.126,0.579,0.443,1.13,0.212,1.759
		c-0.846,2.309-2.403,3.969-4.602,5.035c-0.278,0.135-0.617,0.279-0.885-0.048c-0.242-0.296-0.123-0.617,0.009-0.909
		c0.404-0.889,0.978-1.663,1.642-2.376c0.972-1.044,2.082-1.921,3.275-2.738c-1.928-0.127-3.479,0.773-4.997,1.73
		c-0.897,0.565-1.582,1.133-1.698,2.46c-0.154,1.762,0.418,2.707,2.202,2.454c2.057-0.292,3.651-1.454,5.037-2.905
		c1.572-1.646,1.586-2.272,0.294-4.117c-0.066-0.094-0.073-0.229-0.107-0.344c0.002-0.164,0.004-0.328,0.006-0.492
		c0.014-0.079,0.027-0.159,0.041-0.238c1.361-2.236,5.818-4.059,8.637-3.464c-1.204,1.562-2.379,3.087-3.554,4.612
		c-0.191,0.248-0.461,0.288-0.75,0.32c-1.356,0.151-2.146,0.914-2.218,2.273c-0.062,1.164-0.648,2.022-1.333,2.888
		c-2.905,3.671-5.748,7.386-7.922,11.559c-0.522,1.002-1.021,2.018-1.287,3.12c-0.111,0.458-0.228,1.004,0.198,1.367
		c0.46,0.392,0.977,0.26,1.454-0.045c0.05-0.178,0.143-0.293,0.351-0.235l0.024-0.017l0,0c0.689-0.294,1.168-0.841,1.634-1.391
		c2.731-3.227,4.688-6.899,6.212-10.82c0.237-0.554,0.442-1.124,0.715-1.659c1.712-3.354,3.281-6.857,7.617-7.586
		c0.352-0.059,0.684-0.234,1.025-0.354c0.068,0.083,0.136,0.167,0.204,0.25c-0.19,0.806-1.339,0.567-1.516,1.402
		c-0.319,1.508-1.426,2.594-2.109,3.907c-0.366,0.703-1.392,1.783-0.848,2.077c0.815,0.439,1.514-0.738,2.109-1.427
		c1.005-1.164,1.536-2.619,2.486-3.832C55.601,142.453,57.206,142.395,58.146,142.531z M59.896,130.32
		c0.195-0.196,0.39-0.392,0.584-0.589c1.323-1.34,2.693-2.594,4.751-2.582c0.657,0.345,0.74,0.862,0.527,1.53
		c-0.29,0.911-0.801,1.666-1.5,2.292c-0.033,0.029-0.052,0.053-0.079,0.079c-0.006,0.006-0.018,0.01-0.023,0.018
		c-0.004,0.006-0.005,0.008-0.009,0.014c-0.086,0.092-0.133,0.166-0.146,0.225c-0.287,0.212-1.844,1.355-2.706,1.939
		c-0.732,0.313-1.393,0.785-2.138,1.069c-1.062,0.362-2.124,0.723-3.186,1.085c-0.057-0.063-0.114-0.126-0.171-0.188
		C57.166,133.582,58.531,131.951,59.896,130.32z M45.084,150.119c-1.187,2.483-2.299,5.001-3.788,7.331
		c-1.125,1.761-2.351,3.428-3.929,4.813c-0.382,0.061-0.797,0.127-0.644-0.482c0.077-0.306,0.241-0.596,0.395-0.877
		c2.306-4.208,5.101-8.084,8.081-11.954C45.485,149.453,45.046,149.761,45.084,150.119z M46.549,144.12
		c0.149-0.819,0.338-1.602,1.541-1.717C47.63,143.18,47.228,143.773,46.549,144.12z"/>
	<path fill="#298EEA" d="M39.956,136.681c1.106-0.384,2.113-0.986,3.01-1.752c0.586-0.365,0.925-0.75,1.13-1.067
		c0.006,0.002,0.015-0.001,0.02,0.002c0.016-0.034,0.031-0.068,0.047-0.102c0.195-0.333,0.228-0.566,0.228-0.566l-0.001,0
		c0.109-0.358,0.122-0.719-0.132-1.086c-0.131-0.173-0.24-0.481-1.02-0.467c-0.781,0.014-1.315,0.324-1.703,0.617
		c-0.354,0.177-0.68,0.417-1.001,0.657c-1.404,1.047-2.523,2.365-3.525,3.789c-0.275,0.39-0.512,0.775-1.02,0.971
		c-1.536,0.596-3.047,1.257-4.566,1.897c-0.332,0.14-0.609,0.31-0.974-0.034c-2.936-2.772-9.579-1.73-12.424,1.508
		c-1.431,1.628-1.71,3.753-0.521,5.452c0.518,0.74,0.4,1.083-0.167,1.672c-0.85,0.883-1.692,1.827-1.85,3.148
		c0.815-1.109,1.682-2.145,2.696-3.059c0.328-0.295,0.577-0.378,1.048-0.198c5.227,1.993,9.954,0.989,14.183-2.545
		c2.255-1.884,3.483-4.499,4.709-7.084C38.526,137.588,39.045,136.997,39.956,136.681z M42.802,132.306
		c0.022-0.012,0.033-0.02,0.049-0.03c0,0,0.007-0.002,0.007-0.002s0.489-0.242,0.788-0.026c0.217,0.167,0.353,0.33,0.353,0.494
		c0,0.001,0,0.003,0,0.004c0,0.284-0.214,0.573-0.324,0.895c-0.225,0.544-1.123,1.047-1.123,1.047l-0.012,0.004
		c-0.158,0.061-0.307,0.239-0.438,0.319c-0.851,0.521-1.69,1.061-2.933,1.418C40.253,134.725,41.158,133.205,42.802,132.306z
		 M30.296,141.467c-0.046,0.842-0.432,1.542-1.032,2.115c-1.472,1.404-3.799,1.757-5.91,0.784c2.078-1.46,4.214-2.453,6.363-3.421
		C30.329,140.67,30.316,141.104,30.296,141.467z M18.407,145.434c-0.471-1.676-0.165-3.196,0.948-4.521
		c1.983-2.36,6.424-3.287,9.22-1.938c0.357,0.172,0.681,0.423,0.995,0.669c0.347,0.271,0.473,0.572-0.046,0.805
		c-2.237,1.004-4.454,2.045-6.585,3.267c-0.802,0.459-0.716-0.879-1.614-0.715c1.086,0.995,0.593,1.56-0.385,2.055
		c-0.425,0.215-0.838,0.509-1.163,0.855C18.913,146.832,18.642,146.269,18.407,145.434z M35.536,139.17
		c-1.645,2.86-3.143,5.828-5.945,7.814c-1.749,1.24-3.708,1.676-5.804,1.648c-1.304-0.079-2.56-0.29-3.697-0.99
		c-0.522-0.321-0.592-0.589-0.056-0.958c0.498-0.342,0.999-0.687,1.449-1.087c0.788-0.7,1.535-0.815,2.604-0.46
		c1.925,0.638,3.831,0.268,5.519-0.897c1.135-0.784,1.795-1.843,1.549-3.293c-0.058-0.345-0.086-0.617,0.312-0.786
		c1.184-0.504,2.359-1.031,3.539-1.545c0.188-0.082,0.402-0.134,0.569,0.02C35.764,138.811,35.633,139.001,35.536,139.17z"/>
	<path fill="#298EEA" d="M122.308,145.54c-0.656,0.408-1.17,1.084-2.012,1.144c0.047-0.055,0.106-0.109,0.171-0.163
		c0.382-0.753,0.837-1.512,0.732-2.382c-0.183-1.524,0.097-2.77,1.646-3.448c0.06-0.026,0.049-0.214,0.076-0.346
		c-0.785-0.264-1.366,0.095-1.846,0.602c-1.203,1.269-2.606,2.271-4.083,3.184c0.221,0.545,0.53,0.182,0.757,0.039
		c0.713-0.449,1.403-0.935,2.324-1.557c-0.602,1.724-1.133,3.22-2.225,4.432c-0.286,0.317-0.693,0.546-1.08,0.747
		c-0.567,0.294-1.141,0.223-1.486-0.337c-0.354-0.575,0.073-0.992,0.483-1.328c0.458-0.375,1.061-0.599,1.062-1.349
		c0-0.292-0.219-0.411-0.321-0.617c-1.455-0.289-1.958,1.008-2.826,1.697c-0.631,0.419-1.255,0.848-1.896,1.25
		c-0.266,0.167-0.609,0.375-0.879,0.107c-0.3-0.299,0.02-0.62,0.187-0.84c0.917-1.212,1.89-2.381,2.799-3.599
		c0.223-0.3,0.885-0.578,0.438-1.049c-0.351-0.371-0.955-0.219-1.353,0.044c-0.898,0.592-1.748,1.26-2.486,2.055
		c-1.604,1.157-3.207,2.314-4.811,3.471c-0.902,0.08-0.821-0.359-0.476-0.918c0.886-1.436,2.006-2.691,3.08-3.981
		c0.119-0.143,0.273-0.352,0.246-0.501c-0.057-0.314-0.38-0.216-0.594-0.22c-1.406-0.029-2.349,0.872-3.333,1.687
		c-1.038,0.805-2.053,1.642-3.128,2.394c-0.283,0.198-0.721,0.815-1.137,0.07c0.734-0.538,1.258-1.254,1.571-2.089
		c0.313-0.836,0.209-1.584-0.935-2.157c0.221,1.039-0.069,1.609-0.772,2.04c-0.483,0.296-0.782,0.817-0.96,1.359
		c-0.502,1.53-1.795,2.178-3.098,2.813c-0.242,0.118-0.539,0.232-0.787-0.015c-0.277-0.276-0.178-0.617-0.06-0.905
		c0.324-0.789,0.841-1.46,1.39-2.105c1.026-1.204,2.237-2.194,3.571-3.073c-2.343,0-4.216,1.069-5.952,2.466
		c-1.217,0.959-2.434,1.917-3.651,2.876c-0.379,0.063-0.789,0.489-1.12,0.144c-0.372-0.389,0-0.834,0.195-1.211
		c0.241-0.464,0.523-0.908,0.816-1.342c2.942-4.361,6.436-8.267,9.968-12.145c0.185-0.204,0.672-0.361,0.405-0.732
		c-0.242-0.336-0.662-0.209-0.999-0.048c-0.252,0.12-0.513,0.25-0.719,0.433c-2.178,1.934-10.255,10.267-11.234,13.141
		c-0.015,0.044-0.134,0.054-0.204,0.079l0,0c-0.129-0.343,0.02-1.167-0.734-0.401c-0.386,0.392-2.365,1.858-2.95,2.208
		c-0.239,0.143-0.549,0.287-0.783,0.048c-0.261-0.268,0.016-0.529,0.152-0.745c0.817-1.3,1.838-2.445,2.801-3.635
		c0.252-0.312,0.879-0.624,0.515-1.065c-0.366-0.443-1.022-0.264-1.444,0.054c-1.143,0.861-2.341,1.669-3.26,2.795
		c0,0-0.006,0.003-0.006,0.003c-0.201-0.099-0.297,0.033-0.391,0.174c-0.889,0.661-3.743,2.874-4.161,2.375
		c-0.429-0.513,0.274-1.077,0.605-1.524c0.811-1.097,1.703-2.134,2.554-3.202c0.138-0.173,0.427-0.32,0.266-0.602
		c-0.143-0.25-0.425-0.167-0.656-0.168c-0.752-0.002-2.671,1.114-2.925,1.428c-0.186,0.142-0.372,0.284-0.558,0.427
		c-0.782,0.519-1.5,1.115-2.138,1.806c-1.311,0.929-2.565,1.957-4.207,2.291c-0.457,0.093-0.924,0.178-1.243-0.186
		c-0.334-0.381-0.131-0.851,0.055-1.254c0.674-1.463,1.749-2.602,2.987-3.595c0.327-0.263,0.745-0.709,1.151-0.372
		c0.379,0.315-0.082,0.728-0.22,1.079c-0.139,0.354-0.302,0.708,0.103,0.963c0.366,0.23,0.721,0.036,0.991-0.21
		c0.505-0.458,0.834-1.031,0.573-1.723c-0.252-0.67-0.859-0.817-1.501-0.749c-1.917,0.204-3.476,1.188-4.957,2.328
		c-1.455,1.125-2.91,2.249-4.365,3.374v0c-0.246,0.014-0.492,0.027-0.737,0.041c-0.009-0.172-0.018-0.344-0.027-0.517
		c0.921-1.577,2.159-2.909,3.33-4.292c0.171-0.202,0.491-0.404,0.325-0.71c-0.19-0.351-0.558-0.223-0.873-0.172
		c-0.677,0.109-1.087,0.658-1.672,1.039c-0.309-1.443-1.332-1.196-2.258-1.105c-1.938,0.231-5.118,2.677-5.876,4.543
		c-0.586,1.443,0.108,2.336,1.646,2.133c1.145-0.151,2.127-0.707,2.987-1.475c0.221,0.005,0.356,0.068,0.349,0.338
		c-0.032,1.171,0.743,1.258,1.598,1.119c0.414-0.067,1.193-0.303,1.193-0.463c0-0.027,0-0.053,0-0.08c1-0.462,2-1.443,3-2.105
		c0,0.291,0,0.516,0,0.741c0,1.503,0.53,2.255,2.225,2.07c2.203-0.241,4.063-1.297,5.646-2.801c0.634-0.304,0.986-1.255,1.712-1.432
		c-0.186,0.836-0.802,1.25-1.063,1.865c-0.22,0.518-0.536,1.149-0.12,1.696c0.4,0.526,0.99,0.557,1.544,0.455
		c0.884-0.163,1.65-0.572,2.339-1.145c0.591-0.409,1.181-0.802,1.77-1.213c0.225-0.157,0.444-0.415,0.658,0.016
		c-0.461,0.633-0.963,1.377-0.373,2.065c0.603,0.704,1.493,0.407,2.245,0.095c0.932-0.387,3.351-2.77,4.176-2.628
		c0.073,0.475-0.29,0.805-0.409,1.217c-0.343,1.186,0.113,1.778,1.347,1.672c0.809-0.069,1.538-0.376,2.178-0.883
		c0.776-0.312,1.349-0.911,1.999-1.402c0.209-0.158,0.414-0.581,0.742-0.125c-0.362,2.072,0.42,2.833,2.492,2.459
		c0.681-0.123,1.305-0.379,1.888-0.719c0.885-0.516,1.757-1.034,2.824-1.044c0.943-0.167,1.575-0.837,2.285-1.39
		c0.252-0.196,0.441-0.785,0.923-0.276c-0.23,0.33-0.48,0.648-0.686,0.992c-0.372,0.619-0.891,1.301-0.325,1.987
		c0.572,0.694,1.39,0.458,2.131,0.201c0.185-0.064,0.347-0.196,0.519-0.297c1.046-0.36,1.815-1.151,2.722-1.727
		c0.259-0.164,0.493-0.799,0.933-0.19c-0.504,0.618-0.972,1.356-0.406,2.055c0.549,0.679,1.411,0.43,2.136,0.142
		c1.096-0.435,2.036-1.115,2.86-1.956c0.848,2.303,1.351,2.595,3.856,2.169c0.878-0.149,1.724-0.414,2.5-0.862
		c1.404-0.637,2.6-1.536,3.539-2.763C123.151,144.697,122.805,145.231,122.308,145.54z M60.869,146.322
		c-0.624,0.362-1.236,0.745-1.876,1.077c-0.353,0.183-0.808,0.376-1.126,0.037c-0.36-0.383,0.028-0.766,0.236-1.068
		c1.254-1.81,2.906-3.202,4.731-4.404c1.121,0.047,1.179,0.609,0.679,1.423C62.812,144.527,61.792,145.38,60.869,146.322z
		 M76.591,144.028c0.009-0.047,0.016-0.09,0.015-0.09c0.004,0,0.007,0,0.01,0C76.612,143.972,76.597,143.994,76.591,144.028z"/>
</g>
<g>
	<path fill="#D4E8FB" stroke="#298EEA" stroke-linecap="round" stroke-miterlimit="10" d="M134.875,55.795H107.71
		c-0.802,0-1.459-0.656-1.459-1.459v-14.74v-2.124c0-0.802,0.656-1.459,1.459-1.459h27.165c0.802,0,1.459,0.656,1.459,1.459v16.864
		C136.333,55.138,135.677,55.795,134.875,55.795z"/>
	<g>
		<path fill="#298EEA" d="M153.691,49.955l-1.926-6.014l-1.947,6.014h-0.836l-2.385-7.135h0.876l1.957,6.188l1.937-6.177l0.815-0.01
			l1.957,6.188l1.937-6.188h0.846l-2.396,7.135H153.691z"/>
		<path fill="#298EEA" d="M162.002,47.58h-4.383c0.143,1.05,0.907,1.712,1.947,1.712c0.663,0,1.244-0.234,1.662-0.673l0.438,0.469
			c-0.51,0.571-1.264,0.897-2.161,0.897c-1.58,0-2.67-1.111-2.67-2.711s1.101-2.711,2.66-2.711
			C161.227,44.552,162.083,45.755,162.002,47.58z M161.288,46.927c-0.051-1.029-0.744-1.682-1.794-1.682
			c-1.019,0-1.753,0.663-1.875,1.682H161.288z"/>
		<path fill="#298EEA" d="M168.864,47.284c0,1.59-1.04,2.701-2.559,2.701c-0.958,0-1.692-0.438-2.089-1.183v1.152h-0.795v-7.563
			h0.795v3.354c0.397-0.754,1.131-1.193,2.069-1.193C167.804,44.552,168.864,45.674,168.864,47.284z M168.059,47.264
			c0-1.152-0.795-1.998-1.917-1.998c-1.131,0-1.926,0.836-1.926,1.998c0,1.172,0.795,1.998,1.926,1.998
			C167.263,49.262,168.059,48.426,168.059,47.264z"/>
		<path fill="#298EEA" d="M179.141,46.642v3.313h-0.795v-3.099c0-0.958-0.561-1.519-1.488-1.519
			c-1.111,0.03-1.753,0.826-1.753,1.977v2.64H174.3v-3.099c0-0.958-0.551-1.519-1.488-1.519c-1.101,0.03-1.764,0.826-1.764,1.977
			v2.64h-0.785v-5.372h0.785v1.213c0.357-0.836,1.081-1.233,2.049-1.244c1.009,0,1.702,0.52,1.927,1.407
			c0.336-0.948,1.09-1.396,2.12-1.407C178.397,44.552,179.141,45.348,179.141,46.642z"/>
		<path fill="#298EEA" d="M184.241,49.129c-0.428,0.581-1.111,0.866-1.967,0.866c-1.111,0-1.824-0.713-1.824-1.641
			c0-0.938,0.744-1.529,2.008-1.539h1.763v-0.316c0-0.785-0.489-1.253-1.437-1.253c-0.591,0-1.142,0.224-1.702,0.611l-0.336-0.581
			c0.693-0.458,1.274-0.724,2.191-0.724c1.325,0,2.059,0.704,2.069,1.855l0.01,3.547h-0.775V49.129z M184.231,48.1v-0.642h-1.671
			c-0.897,0-1.366,0.275-1.366,0.866s0.479,0.979,1.233,0.979C183.334,49.302,184.027,48.844,184.231,48.1z"/>
		<path fill="#298EEA" d="M187.699,43.044c0,0.316-0.224,0.55-0.52,0.55c-0.295,0-0.52-0.234-0.52-0.55s0.224-0.551,0.52-0.551
			C187.474,42.493,187.699,42.728,187.699,43.044z M186.791,49.955v-5.372h0.785v5.372H186.791z"/>
		<path fill="#298EEA" d="M189.564,49.955v-7.563h0.795v7.563H189.564z"/>
		<path fill="#298EEA" d="M199.199,49.18v0.775h-3.944v-7.135h0.815v6.36H199.199z"/>
		<path fill="#298EEA" d="M201.321,43.044c0,0.316-0.224,0.55-0.52,0.55c-0.295,0-0.52-0.234-0.52-0.55s0.224-0.551,0.52-0.551
			C201.096,42.493,201.321,42.728,201.321,43.044z M200.413,49.955v-5.372h0.785v5.372H200.413z"/>
		<path fill="#298EEA" d="M205.908,49.588c-0.377,0.254-0.785,0.397-1.213,0.407c-0.785,0-1.366-0.469-1.366-1.529v-3.068h-0.775
			v-0.642h0.775v-1.417h0.785v1.417l1.702-0.01v0.652h-1.702v2.925c0,0.652,0.255,0.897,0.713,0.897
			c0.275,0,0.561-0.092,0.856-0.275L205.908,49.588z"/>
		<path fill="#298EEA" d="M211.658,47.58h-4.383c0.143,1.05,0.907,1.712,1.947,1.712c0.663,0,1.244-0.234,1.662-0.673l0.438,0.469
			c-0.509,0.571-1.264,0.897-2.161,0.897c-1.58,0-2.67-1.111-2.67-2.711s1.101-2.711,2.66-2.711
			C210.884,44.552,211.74,45.755,211.658,47.58z M210.945,46.927c-0.051-1.029-0.744-1.682-1.794-1.682
			c-1.019,0-1.753,0.663-1.875,1.682H210.945z"/>
	</g>
	<polyline fill="none" stroke="#298EEA" stroke-linecap="round" stroke-miterlimit="10" points="106.251,38.685 121.565,45.904 
		136.333,38.199 	"/>
</g>
<g>
	<g>
		<path fill="none" stroke="#298EEA" stroke-width="2" stroke-linecap="round" stroke-miterlimit="10" d="M193.705,188.734
			c-0.77-0.321-1.532-0.659-2.285-1.014"/>
		
			<path fill="none" stroke="#298EEA" stroke-width="2" stroke-linecap="round" stroke-miterlimit="10" stroke-dasharray="4.9869,9.9737" d="
			M182.835,182.67c-13.21-9.488-22.093-24.774-22.729-42.423c-1.052-29.198,21.572-54.322,50.717-56.368
			c30.176-2.119,56.298,20.695,58.287,50.85c1.391,21.081-9.381,40.155-26.305,50.362"/>
		<polyline fill="none" stroke="#298EEA" stroke-width="2" stroke-linecap="round" stroke-miterlimit="10" points="239.068,188.242 
			237.579,190.25 238.782,192.441 		"/>
		
			<path fill="none" stroke="#298EEA" stroke-width="2" stroke-linecap="round" stroke-miterlimit="10" stroke-dasharray="5.0027,10.0054" d="
			M243.597,201.212l4.99,9.089c3.03,5.519,8.825,8.948,15.121,8.948h0c7.065,0,12.792,5.727,12.792,12.792v6.151"/>
		
			<line fill="none" stroke="#298EEA" stroke-width="2" stroke-linecap="round" stroke-miterlimit="10" x1="276.5" y1="243.195" x2="276.5" y2="245.695"/>
	</g>
</g>
<path fill="none" stroke="#298EEA" stroke-width="2" stroke-linecap="round" stroke-miterlimit="10" stroke-dasharray="5,10" d="
	M160,140h-0.125c-9.32,0-16.875,7.555-16.875,16.875v5.75C143,174.43,133.43,184,121.625,184h-22.25
	C87.018,184,77,173.982,77,161.625V151"/>
<path fill="none" stroke="#298EEA" stroke-width="2" stroke-linecap="round" stroke-miterlimit="10" stroke-dasharray="5,10" d="
	M164.047,118.078H99.672c-14.705,0-26.625-11.92-26.625-26.625V72.078"/>
<path fill="none" stroke="#298EEA" stroke-width="2" stroke-linecap="round" stroke-miterlimit="10" stroke-dasharray="5,10" d="
	M172.693,102.792v-3.186c0-6.124-4.964-11.088-11.088-11.088h-25.214c-8.118,0-14.698-6.581-14.698-14.698v-9.948"/>
<path fill="none" stroke="#298EEA" stroke-width="2" stroke-linecap="round" stroke-miterlimit="10" stroke-dasharray="5,10" d="
	M250,94h28.75c5.109,0,9.25-4.141,9.25-9.25V67.875"/>
<path fill="none" stroke="#298EEA" stroke-width="2" stroke-linecap="round" stroke-miterlimit="10" stroke-dasharray="5,10" d="
	M264,113h46.25c7.594,0,13.75-6.156,13.75-13.75v0c0-6.213,5.037-11.25,11.25-11.25h12.25c5.799,0,10.5-4.701,10.5-10.5V75"/>
<path fill="none" stroke="#298EEA" stroke-width="2" stroke-linecap="round" stroke-miterlimit="10" stroke-dasharray="5,10" d="
	M268.75,144.833H288c7.594,0,13.75,6.156,13.75,13.75V178.5c0,1.841,1.492,3.333,3.333,3.333h8.833"/>
<path fill="none" stroke="#298EEA" stroke-width="2" stroke-linecap="round" stroke-miterlimit="10" stroke-dasharray="5,10" d="
	M260.448,172.252l25.544,25.764c7.604,7.669,17.956,11.984,28.756,11.984H338c8.837,0,16,7.163,16,16v0"/>
<path fill="none" stroke="#298EEA" stroke-width="2" stroke-linecap="round" stroke-miterlimit="10" stroke-dasharray="5,10" d="
	M191.52,188.006l-13.437,13.377c-2.676,2.665-6.299,4.16-10.076,4.16h-3.453c-7.888,0-14.282,6.394-14.282,14.282v26.718"/>
<path fill="none" stroke="#298EEA" stroke-width="2" stroke-linecap="round" stroke-miterlimit="10" stroke-dasharray="5,10" d="
	M168.777,168.3l-23.941,21.905c-7.918,7.244-18.261,11.262-28.993,11.262H73.838c-6.996,0-12.667,5.671-12.667,12.667v8.333"/>
<path fill="none" stroke="#298EEA" stroke-width="2" stroke-linecap="round" stroke-miterlimit="10" stroke-dasharray="15,10" d="
	M227.076,106.554c2.026,3.281,3.195,7.147,3.195,11.286c0,5.335-1.942,10.216-5.157,13.975"/>
<path fill="none" stroke="#298EEA" stroke-width="2" stroke-linecap="round" stroke-miterlimit="10" stroke-dasharray="15,10" d="
	M199.213,137.123c-7.091-3.517-11.966-10.831-11.966-19.283c0-11.881,9.631-21.512,21.512-21.512"/>
<circle fill="#96E0B3" stroke="#298EEA" stroke-miterlimit="10" cx="73.047" cy="70.876" r="2.871"/>
<circle fill="#96E0B3" stroke="#298EEA" stroke-miterlimit="10" cx="121.693" cy="62.496" r="2.871"/>
<circle fill="#96E0B3" stroke="#298EEA" stroke-miterlimit="10" cx="288" cy="68.492" r="2.871"/>
<circle fill="#96E0B3" stroke="#298EEA" stroke-miterlimit="10" cx="357.926" cy="79.617" r="2.871"/>
<circle fill="#96E0B3" stroke="#298EEA" stroke-miterlimit="10" cx="315.239" cy="181.833" r="2.871"/>
<circle fill="#96E0B3" stroke="#298EEA" stroke-miterlimit="10" cx="354" cy="221.5" r="2.871"/>
<circle fill="#96E0B3" stroke="#298EEA" stroke-miterlimit="10" cx="276.5" cy="247.833" r="2.871"/>
<circle fill="#96E0B3" stroke="#298EEA" stroke-miterlimit="10" cx="150.273" cy="246.188" r="2.871"/>
<circle fill="#96E0B3" stroke="#298EEA" stroke-miterlimit="10" cx="60.767" cy="214.404" r="2.871"/>
<circle fill="#96E0B3" stroke="#298EEA" stroke-miterlimit="10" cx="76.616" cy="158.497" r="2.871"/>
</svg>
