<?xml version="1.0" encoding="utf-8"?>
<!-- Generator: Adobe Illustrator 20.1.0, SVG Export Plug-In . SVG Version: 6.00 Build 0)  -->
<svg version="1.1" xmlns="http://www.w3.org/2000/svg" xmlns:xlink="http://www.w3.org/1999/xlink" x="0px" y="0px"
	 viewBox="0 0 400.285 250" enable-background="new 0 0 400.285 250" xml:space="preserve">
<g id="Layer_6">
	<g>
		
			<rect x="40.209" y="139.423" fill-rule="evenodd" clip-rule="evenodd" fill="#F5FDFF" stroke="#D9F2FC" stroke-width="2" stroke-linecap="round" stroke-miterlimit="10" width="11.603" height="6.779"/>
		
			<rect x="28.9" y="145.126" fill-rule="evenodd" clip-rule="evenodd" fill="#F5FDFF" stroke="#D9F2FC" stroke-width="2" stroke-linecap="round" stroke-miterlimit="10" width="27.768" height="8.311"/>
		
			<rect x="145.838" y="139.423" fill-rule="evenodd" clip-rule="evenodd" fill="#F5FDFF" stroke="#D9F2FC" stroke-width="2" stroke-linecap="round" stroke-miterlimit="10" width="11.603" height="6.779"/>
		
			<rect x="134.529" y="145.126" fill-rule="evenodd" clip-rule="evenodd" fill="#F5FDFF" stroke="#D9F2FC" stroke-width="2" stroke-linecap="round" stroke-miterlimit="10" width="27.768" height="8.311"/>
		
			<rect x="46.988" y="157.804" fill-rule="evenodd" clip-rule="evenodd" fill="#F5FDFF" stroke="#D9F2FC" stroke-width="2" stroke-linecap="round" stroke-miterlimit="10" width="15.644" height="9.908"/>
		
			<rect x="41.643" y="167.19" fill-rule="evenodd" clip-rule="evenodd" fill="#F5FDFF" stroke="#D9F2FC" stroke-width="2" stroke-linecap="round" stroke-miterlimit="10" width="26.595" height="67.529"/>
		<rect x="46.988" y="174.165" fill-rule="evenodd" clip-rule="evenodd" fill="#C9E9F4" width="14.079" height="3.129"/>
		<rect x="46.988" y="182.769" fill-rule="evenodd" clip-rule="evenodd" fill="#C9E9F4" width="14.079" height="3.129"/>
		<rect x="46.988" y="191.373" fill-rule="evenodd" clip-rule="evenodd" fill="#C9E9F4" width="14.079" height="3.129"/>
		<rect x="46.988" y="199.977" fill-rule="evenodd" clip-rule="evenodd" fill="#C9E9F4" width="14.079" height="3.129"/>
		<rect x="46.988" y="208.581" fill-rule="evenodd" clip-rule="evenodd" fill="#C9E9F4" width="14.079" height="3.129"/>
		
			<rect x="90.009" y="157.804" fill-rule="evenodd" clip-rule="evenodd" fill="#F5FDFF" stroke="#D9F2FC" stroke-width="2" stroke-linecap="round" stroke-miterlimit="10" width="15.644" height="9.908"/>
		
			<rect x="84.664" y="167.19" fill-rule="evenodd" clip-rule="evenodd" fill="#F5FDFF" stroke="#D9F2FC" stroke-width="2" stroke-linecap="round" stroke-miterlimit="10" width="26.595" height="67.529"/>
		<rect x="90.009" y="174.165" fill-rule="evenodd" clip-rule="evenodd" fill="#C9E9F4" width="14.079" height="3.129"/>
		<rect x="90.009" y="182.769" fill-rule="evenodd" clip-rule="evenodd" fill="#C9E9F4" width="14.079" height="3.129"/>
		<rect x="90.009" y="191.373" fill-rule="evenodd" clip-rule="evenodd" fill="#C9E9F4" width="14.079" height="3.129"/>
		<rect x="90.009" y="199.977" fill-rule="evenodd" clip-rule="evenodd" fill="#C9E9F4" width="14.079" height="3.129"/>
		<rect x="90.009" y="208.581" fill-rule="evenodd" clip-rule="evenodd" fill="#C9E9F4" width="14.079" height="3.129"/>
		
			<rect x="132.769" y="157.804" fill-rule="evenodd" clip-rule="evenodd" fill="#F5FDFF" stroke="#D9F2FC" stroke-width="2" stroke-linecap="round" stroke-miterlimit="10" width="15.644" height="9.908"/>
		
			<rect x="127.424" y="167.19" fill-rule="evenodd" clip-rule="evenodd" fill="#F5FDFF" stroke="#D9F2FC" stroke-width="2" stroke-linecap="round" stroke-miterlimit="10" width="26.595" height="67.529"/>
		<rect x="132.769" y="174.165" fill-rule="evenodd" clip-rule="evenodd" fill="#C9E9F4" width="14.079" height="3.129"/>
		<rect x="132.769" y="182.769" fill-rule="evenodd" clip-rule="evenodd" fill="#C9E9F4" width="14.079" height="3.129"/>
		<rect x="132.769" y="191.373" fill-rule="evenodd" clip-rule="evenodd" fill="#C9E9F4" width="14.079" height="3.129"/>
		<rect x="132.769" y="199.977" fill-rule="evenodd" clip-rule="evenodd" fill="#C9E9F4" width="14.079" height="3.129"/>
		<rect x="132.769" y="208.581" fill-rule="evenodd" clip-rule="evenodd" fill="#C9E9F4" width="14.079" height="3.129"/>
		
			<path fill-rule="evenodd" clip-rule="evenodd" fill="#F5FDFF" stroke="#D9F2FC" stroke-width="2" stroke-linecap="round" stroke-miterlimit="10" d="
			M171.487,161.454H30.743c-4.547,0-8.914-1.773-12.174-4.942l-4.303-4.183h157.221V161.454z"/>
	</g>
</g>
<g id="Layer_5">
	<g opacity="0.4">
		<g>
			
				<circle fill="none" stroke="#80C9FF" stroke-width="2" stroke-linecap="round" stroke-linejoin="round" stroke-miterlimit="10" cx="202.322" cy="130.546" r="83.361"/>
			
				<circle fill="none" stroke="#80C9FF" stroke-width="2" stroke-linecap="round" stroke-linejoin="round" stroke-miterlimit="10" cx="202.322" cy="130.546" r="72.259"/>
			
				<circle fill="none" stroke="#80C9FF" stroke-width="2" stroke-linecap="round" stroke-linejoin="round" stroke-miterlimit="10" cx="202.948" cy="130.546" r="20.268"/>
			
				<line fill="none" stroke="#80C9FF" stroke-width="2" stroke-linecap="round" stroke-linejoin="round" stroke-miterlimit="10" x1="202" y1="47" x2="202" y2="130"/>
			
				<line fill="none" stroke="#80C9FF" stroke-width="2" stroke-linecap="round" stroke-linejoin="round" stroke-miterlimit="10" x1="180.46" y1="49.871" x2="202.007" y2="130.284"/>
			
				<line fill="none" stroke="#80C9FF" stroke-width="2" stroke-linecap="round" stroke-linejoin="round" stroke-miterlimit="10" x1="160.382" y1="58.188" x2="202.007" y2="130.284"/>
			
				<line fill="none" stroke="#80C9FF" stroke-width="2" stroke-linecap="round" stroke-linejoin="round" stroke-miterlimit="10" x1="143.14" y1="71.417" x2="202.007" y2="130.284"/>
			
				<line fill="none" stroke="#80C9FF" stroke-width="2" stroke-linecap="round" stroke-linejoin="round" stroke-miterlimit="10" x1="129.91" y1="88.659" x2="202.007" y2="130.284"/>
			
				<line fill="none" stroke="#80C9FF" stroke-width="2" stroke-linecap="round" stroke-linejoin="round" stroke-miterlimit="10" x1="121.593" y1="108.737" x2="202.007" y2="130.284"/>
			
				<line fill="none" stroke="#80C9FF" stroke-width="2" stroke-linecap="round" stroke-linejoin="round" stroke-miterlimit="10" x1="118" y1="130" x2="202" y2="130"/>
			
				<line fill="none" stroke="#80C9FF" stroke-width="2" stroke-linecap="round" stroke-linejoin="round" stroke-miterlimit="10" x1="121.593" y1="151.831" x2="202.007" y2="130.284"/>
			
				<line fill="none" stroke="#80C9FF" stroke-width="2" stroke-linecap="round" stroke-linejoin="round" stroke-miterlimit="10" x1="129.91" y1="171.909" x2="202.007" y2="130.284"/>
			
				<line fill="none" stroke="#80C9FF" stroke-width="2" stroke-linecap="round" stroke-linejoin="round" stroke-miterlimit="10" x1="143.14" y1="189.151" x2="202.007" y2="130.284"/>
			
				<line fill="none" stroke="#80C9FF" stroke-width="2" stroke-linecap="round" stroke-linejoin="round" stroke-miterlimit="10" x1="160.382" y1="202.381" x2="202.007" y2="130.284"/>
			
				<line fill="none" stroke="#80C9FF" stroke-width="2" stroke-linecap="round" stroke-linejoin="round" stroke-miterlimit="10" x1="180.46" y1="210.697" x2="202.007" y2="130.284"/>
			
				<line fill="none" stroke="#80C9FF" stroke-width="2" stroke-linecap="round" stroke-linejoin="round" stroke-miterlimit="10" x1="202" y1="214" x2="202" y2="130"/>
			
				<line fill="none" stroke="#80C9FF" stroke-width="2" stroke-linecap="round" stroke-linejoin="round" stroke-miterlimit="10" x1="223.553" y1="210.697" x2="202.007" y2="130.284"/>
			
				<line fill="none" stroke="#80C9FF" stroke-width="2" stroke-linecap="round" stroke-linejoin="round" stroke-miterlimit="10" x1="243.632" y1="202.381" x2="202.007" y2="130.284"/>
			
				<line fill="none" stroke="#80C9FF" stroke-width="2" stroke-linecap="round" stroke-linejoin="round" stroke-miterlimit="10" x1="260.873" y1="189.151" x2="202.007" y2="130.284"/>
			
				<line fill="none" stroke="#80C9FF" stroke-width="2" stroke-linecap="round" stroke-linejoin="round" stroke-miterlimit="10" x1="274.103" y1="171.909" x2="202.007" y2="130.284"/>
			
				<line fill="none" stroke="#80C9FF" stroke-width="2" stroke-linecap="round" stroke-linejoin="round" stroke-miterlimit="10" x1="282.42" y1="151.831" x2="202.007" y2="130.284"/>
			
				<line fill="none" stroke="#80C9FF" stroke-width="2" stroke-linecap="round" stroke-linejoin="round" stroke-miterlimit="10" x1="285" y1="130" x2="202" y2="130"/>
			
				<line fill="none" stroke="#80C9FF" stroke-width="2" stroke-linecap="round" stroke-linejoin="round" stroke-miterlimit="10" x1="282.42" y1="108.737" x2="202.007" y2="130.284"/>
			
				<line fill="none" stroke="#80C9FF" stroke-width="2" stroke-linecap="round" stroke-linejoin="round" stroke-miterlimit="10" x1="274.103" y1="88.659" x2="202.007" y2="130.284"/>
			
				<line fill="none" stroke="#80C9FF" stroke-width="2" stroke-linecap="round" stroke-linejoin="round" stroke-miterlimit="10" x1="260.873" y1="71.417" x2="202.007" y2="130.284"/>
			
				<line fill="none" stroke="#80C9FF" stroke-width="2" stroke-linecap="round" stroke-linejoin="round" stroke-miterlimit="10" x1="243.632" y1="58.188" x2="202.007" y2="130.284"/>
			
				<line fill="none" stroke="#80C9FF" stroke-width="2" stroke-linecap="round" stroke-linejoin="round" stroke-miterlimit="10" x1="223.553" y1="49.871" x2="202.007" y2="130.284"/>
		</g>
		<g>
			
				<circle fill="#D8E2EA" stroke="#80C9FF" stroke-width="2" stroke-linecap="round" stroke-linejoin="round" stroke-miterlimit="10" cx="202.22" cy="43.464" r="4.16"/>
			
				<ellipse transform="matrix(0.7071 -0.7071 0.7071 0.7071 28.2001 206.5796)" fill="#D8E2EA" stroke="#80C9FF" stroke-width="2" stroke-linecap="round" stroke-linejoin="round" stroke-miterlimit="10" cx="263.464" cy="69.249" rx="4.16" ry="4.16"/>
			
				<circle fill="#D8E2EA" stroke="#80C9FF" stroke-width="2" stroke-linecap="round" stroke-linejoin="round" stroke-miterlimit="10" cx="288.536" cy="130.788" r="4.16"/>
			
				<ellipse transform="matrix(0.7071 -0.7071 0.7071 0.7071 -58.829 242.0376)" fill="#D8E2EA" stroke="#80C9FF" stroke-width="2" stroke-linecap="round" stroke-linejoin="round" stroke-miterlimit="10" cx="262.751" cy="192.032" rx="4.16" ry="4.16"/>
			
				<circle fill="#D8E2EA" stroke="#80C9FF" stroke-width="2" stroke-linecap="round" stroke-linejoin="round" stroke-miterlimit="10" cx="201.212" cy="217.104" r="4.16"/>
			
				<ellipse transform="matrix(0.7071 -0.7071 0.7071 0.7071 -94.2871 155.0085)" fill="#D8E2EA" stroke="#80C9FF" stroke-width="2" stroke-linecap="round" stroke-linejoin="round" stroke-miterlimit="10" cx="139.968" cy="191.319" rx="4.16" ry="4.16"/>
			
				<circle fill="#D8E2EA" stroke="#80C9FF" stroke-width="2" stroke-linecap="round" stroke-linejoin="round" stroke-miterlimit="10" cx="114.896" cy="129.78" r="4.16"/>
			
				<ellipse transform="matrix(0.7071 -0.7071 0.7071 0.7071 -7.258 119.5505)" fill="#D8E2EA" stroke="#80C9FF" stroke-width="2" stroke-linecap="round" stroke-linejoin="round" stroke-miterlimit="10" cx="140.681" cy="68.536" rx="4.16" ry="4.16"/>
		</g>
		<g>
			
				<circle fill="#D8E2EA" stroke="#80C9FF" stroke-width="2" stroke-linecap="round" stroke-linejoin="round" stroke-miterlimit="10" cx="202.22" cy="43.464" r="4.16"/>
			
				<ellipse transform="matrix(0.7071 -0.7071 0.7071 0.7071 28.2001 206.5796)" fill="#D8E2EA" stroke="#80C9FF" stroke-width="2" stroke-linecap="round" stroke-linejoin="round" stroke-miterlimit="10" cx="263.464" cy="69.249" rx="4.16" ry="4.16"/>
			
				<circle fill="#D8E2EA" stroke="#80C9FF" stroke-width="2" stroke-linecap="round" stroke-linejoin="round" stroke-miterlimit="10" cx="288.536" cy="130.788" r="4.16"/>
			
				<ellipse transform="matrix(0.7071 -0.7071 0.7071 0.7071 -58.829 242.0376)" fill="#D8E2EA" stroke="#80C9FF" stroke-width="2" stroke-linecap="round" stroke-linejoin="round" stroke-miterlimit="10" cx="262.751" cy="192.032" rx="4.16" ry="4.16"/>
			
				<circle fill="#D8E2EA" stroke="#80C9FF" stroke-width="2" stroke-linecap="round" stroke-linejoin="round" stroke-miterlimit="10" cx="201.212" cy="217.104" r="4.16"/>
			
				<ellipse transform="matrix(0.7071 -0.7071 0.7071 0.7071 -94.2871 155.0085)" fill="#D8E2EA" stroke="#80C9FF" stroke-width="2" stroke-linecap="round" stroke-linejoin="round" stroke-miterlimit="10" cx="139.968" cy="191.319" rx="4.16" ry="4.16"/>
			
				<circle fill="#D8E2EA" stroke="#80C9FF" stroke-width="2" stroke-linecap="round" stroke-linejoin="round" stroke-miterlimit="10" cx="114.896" cy="129.78" r="4.16"/>
			
				<ellipse transform="matrix(0.7071 -0.7071 0.7071 0.7071 -7.258 119.5505)" fill="#D8E2EA" stroke="#80C9FF" stroke-width="2" stroke-linecap="round" stroke-linejoin="round" stroke-miterlimit="10" cx="140.681" cy="68.536" rx="4.16" ry="4.16"/>
		</g>
		<g>
			
				<ellipse transform="matrix(0.9668 -0.2556 0.2556 0.9668 -5.8341 47.5484)" fill="#D8E2EA" stroke="#80C9FF" stroke-width="2" stroke-linecap="round" stroke-linejoin="round" stroke-miterlimit="10" cx="180.011" cy="46.219" rx="4.16" ry="4.16"/>
			
				<ellipse transform="matrix(0.5029 -0.8644 0.8644 0.5029 74.2334 240.057)" fill="#D8E2EA" stroke="#80C9FF" stroke-width="2" stroke-linecap="round" stroke-linejoin="round" stroke-miterlimit="10" cx="245.811" cy="55.493" rx="4.16" ry="4.16"/>
			
				<ellipse transform="matrix(0.9668 -0.2556 0.2556 0.9668 -18.2603 76.6561)" fill="#D8E2EA" stroke="#80C9FF" stroke-width="2" stroke-linecap="round" stroke-linejoin="round" stroke-miterlimit="10" cx="285.781" cy="108.579" rx="4.16" ry="4.16"/>
			
				<ellipse transform="matrix(0.5029 -0.8644 0.8644 0.5029 -13.2673 325.6905)" fill="#D8E2EA" stroke="#80C9FF" stroke-width="2" stroke-linecap="round" stroke-linejoin="round" stroke-miterlimit="10" cx="276.507" cy="174.379" rx="4.16" ry="4.16"/>
			
				<ellipse transform="matrix(0.9668 -0.2556 0.2556 0.9668 -47.368 64.2298)" fill="#D8E2EA" stroke="#80C9FF" stroke-width="2" stroke-linecap="round" stroke-linejoin="round" stroke-miterlimit="10" cx="223.421" cy="214.349" rx="4.16" ry="4.16"/>
			
				<ellipse transform="matrix(0.5029 -0.8644 0.8644 0.5029 -98.9008 238.1898)" fill="#D8E2EA" stroke="#80C9FF" stroke-width="2" stroke-linecap="round" stroke-linejoin="round" stroke-miterlimit="10" cx="157.621" cy="205.075" rx="4.16" ry="4.16"/>
			
				<ellipse transform="matrix(0.9668 -0.2556 0.2556 0.9668 -34.9418 35.1222)" fill="#D8E2EA" stroke="#80C9FF" stroke-width="2" stroke-linecap="round" stroke-linejoin="round" stroke-miterlimit="10" cx="117.651" cy="151.989" rx="4.16" ry="4.16"/>
			
				<ellipse transform="matrix(0.5029 -0.8644 0.8644 0.5029 -11.4001 152.5563)" fill="#D8E2EA" stroke="#80C9FF" stroke-width="2" stroke-linecap="round" stroke-linejoin="round" stroke-miterlimit="10" cx="126.925" cy="86.189" rx="4.16" ry="4.16"/>
		</g>
		<g>
			
				<ellipse transform="matrix(0.8692 -0.4944 0.4944 0.8692 -6.1564 85.862)" fill="#D8E2EA" stroke="#80C9FF" stroke-width="2" stroke-linecap="round" stroke-linejoin="round" stroke-miterlimit="10" cx="159.228" cy="54.569" rx="4.16" ry="4.16"/>
			
				<ellipse transform="matrix(0.265 -0.9642 0.9642 0.265 120.4927 251.4831)" fill="#D8E2EA" stroke="#80C9FF" stroke-width="2" stroke-linecap="round" stroke-linejoin="round" stroke-miterlimit="10" cx="225.212" cy="46.702" rx="4.16" ry="4.16"/>
			
				<ellipse transform="matrix(0.8692 -0.4944 0.4944 0.8692 -7.1268 148.6493)" fill="#D8E2EA" stroke="#80C9FF" stroke-width="2" stroke-linecap="round" stroke-linejoin="round" stroke-miterlimit="10" cx="277.431" cy="87.797" rx="4.16" ry="4.16"/>
			
				<ellipse transform="matrix(0.265 -0.9642 0.9642 0.265 61.4057 388.1202)" fill="#D8E2EA" stroke="#80C9FF" stroke-width="2" stroke-linecap="round" stroke-linejoin="round" stroke-miterlimit="10" cx="285.298" cy="153.78" rx="4.16" ry="4.16"/>
			
				<ellipse transform="matrix(0.8692 -0.4944 0.4944 0.8692 -69.9141 147.6789)" fill="#D8E2EA" stroke="#80C9FF" stroke-width="2" stroke-linecap="round" stroke-linejoin="round" stroke-miterlimit="10" cx="244.203" cy="206" rx="4.16" ry="4.16"/>
			
				<ellipse transform="matrix(0.265 -0.9642 0.9642 0.265 -75.2314 329.0332)" fill="#D8E2EA" stroke="#80C9FF" stroke-width="2" stroke-linecap="round" stroke-linejoin="round" stroke-miterlimit="10" cx="178.22" cy="213.866" rx="4.16" ry="4.16"/>
			
				<ellipse transform="matrix(0.8692 -0.4944 0.4944 0.8692 -68.9437 84.8916)" fill="#D8E2EA" stroke="#80C9FF" stroke-width="2" stroke-linecap="round" stroke-linejoin="round" stroke-miterlimit="10" cx="126" cy="172.772" rx="4.16" ry="4.16"/>
			
				<ellipse transform="matrix(0.265 -0.9642 0.9642 0.265 -16.1444 192.3961)" fill="#D8E2EA" stroke="#80C9FF" stroke-width="2" stroke-linecap="round" stroke-linejoin="round" stroke-miterlimit="10" cx="118.134" cy="106.788" rx="4.16" ry="4.16"/>
		</g>
	</g>
</g>
<g id="Layer_1">
	<g>
		<path fill-rule="evenodd" clip-rule="evenodd" fill="none" stroke="#EDEDED" stroke-miterlimit="10" d="M115.934,148.603
			l-1.342-5.112c-1.419,0.033-2.836,0.152-4.243,0.365l-0.434,5.263c-1.253,0.245-2.494,0.579-3.711,0.994l-1.357-1.96l-4.2,4.2
			l0.085,0.314c-0.375,0.226-0.744,0.465-1.11,0.71l-7.8,7.8c-0.244,0.366-0.484,0.735-0.71,1.109l-0.313-0.085l-4.2,4.2l1.96,1.357
			c-0.415,1.218-0.748,2.458-0.994,3.711l-5.264,0.434c-0.212,1.407-0.332,2.823-0.364,4.242l5.111,1.342
			c0.025,1.279,0.134,2.556,0.33,3.822l-4.806,2.211c0.277,1.389,0.646,2.762,1.102,4.112l5.264-0.488
			c0.457,1.188,1,2.352,1.622,3.479l-3.756,3.721c0.732,1.199,1.546,2.364,2.443,3.484l4.784-2.259
			c0.419,0.479,0.849,0.949,1.305,1.405c0.457,0.457,0.928,0.888,1.407,1.306l-2.26,4.784c1.12,0.898,2.285,1.711,3.486,2.444
			l3.719-3.758c1.129,0.623,2.292,1.164,3.48,1.623l-0.488,5.266c1.351,0.453,2.723,0.822,4.111,1.1l2.211-4.806
			c1.267,0.198,2.544,0.307,3.823,0.332l1.341,5.11c1.419-0.033,2.836-0.15,4.242-0.363l0.434-5.265
			c1.254-0.245,2.494-0.578,3.712-0.994l3.009,4.344c1.315-0.513,2.603-1.113,3.857-1.8l-1.394-5.098
			c1.086-0.656,2.138-1.389,3.145-2.204l4.31,3.051c0.529-0.467,1.052-0.946,1.558-1.452c0.506-0.507,0.986-1.03,1.453-1.559
			l-3.051-4.311c0.815-1.006,1.548-2.059,2.204-3.144l5.098,1.394c0.686-1.255,1.287-2.542,1.8-3.857l-4.344-3.01
			c0.414-1.218,0.748-2.457,0.994-3.711l5.265-0.433c0.212-1.407,0.33-2.824,0.364-4.243l-5.111-1.342
			c-0.025-1.279-0.133-2.556-0.331-3.822l4.805-2.211c-0.277-1.388-0.646-2.76-1.101-4.111l-5.264,0.488
			c-0.459-1.188-1-2.351-1.624-3.481l3.757-3.719c-0.733-1.201-1.546-2.365-2.444-3.486l-4.783,2.259
			c-0.418-0.478-0.85-0.95-1.306-1.407c-0.456-0.457-0.927-0.886-1.406-1.306l2.259-4.783c-1.12-0.897-2.285-1.711-3.485-2.443
			l-3.72,3.756c-1.129-0.622-2.291-1.165-3.479-1.622l0.488-5.265c-1.351-0.454-2.723-0.823-4.111-1.101l-2.211,4.806
			C118.491,148.736,117.214,148.627,115.934,148.603z M117.225,171.311c-2.053-0.671-4.4-0.197-6.033,1.435
			c-2.313,2.313-2.313,6.064-0.001,8.376c2.313,2.313,6.064,2.313,8.378,0c0.082-0.082,0.155-0.17,0.233-0.257
			c5.336,3.356,15.894,8.011,15.898,8.013c-0.992,1.686-2.21,3.274-3.656,4.72c-9.203,9.203-24.124,9.203-33.327-0.001
			c-9.203-9.202-9.203-24.123,0-33.325c5.926-5.927,14.222-8.03,21.836-6.324C119.84,157.197,118.118,165.269,117.225,171.311z"/>
		
			<path fill-rule="evenodd" clip-rule="evenodd" fill="#FFFFFF" stroke="#80C9FF" stroke-width="2" stroke-linecap="round" stroke-linejoin="round" stroke-miterlimit="10" d="
			M80.219,219.827l-4.85,8.303c1.869,1.783,3.844,3.453,5.927,4.99l7.33-6.216c1.929,1.299,3.953,2.465,6.055,3.497l-0.775,4.269
			h10.808l0.293-0.514c0.773,0.19,1.556,0.357,2.343,0.514h20.069c0.787-0.156,1.569-0.323,2.343-0.514l0.293,0.514h10.807
			l-0.775-4.269c2.102-1.032,4.126-2.198,6.055-3.497l7.33,6.216c2.083-1.537,4.059-3.207,5.927-4.99l-4.85-8.303
			c1.613-1.678,3.117-3.461,4.493-5.343l9.027,3.338c1.429-2.144,2.72-4.384,3.873-6.706l-7.4-6.146
			c0.939-2.118,1.738-4.311,2.389-6.566l9.619,0.049c0.602-2.487,1.055-5.032,1.341-7.628l-9.061-3.247
			c0.077-1.155,0.13-2.314,0.13-3.489c0-1.175-0.054-2.336-0.13-3.49l9.061-3.247c-0.286-2.597-0.739-5.142-1.341-7.628
			l-9.619,0.048c-0.651-2.256-1.45-4.447-2.39-6.566l7.401-6.146c-1.153-2.322-2.444-4.563-3.873-6.706l-9.027,3.338
			c-1.376-1.884-2.879-3.667-4.493-5.344l4.85-8.303c-1.868-1.783-3.843-3.454-5.927-4.99l-7.331,6.216
			c-1.928-1.298-3.953-2.464-6.055-3.496l1.719-9.461c-2.352-1.031-4.782-1.916-7.277-2.647l-4.766,8.353
			c-2.241-0.552-4.538-0.963-6.883-1.211l-1.62-9.47c-1.282-0.081-2.571-0.136-3.874-0.136c-1.303,0-2.592,0.055-3.874,0.136
			l-1.62,9.47c-2.345,0.248-4.642,0.659-6.883,1.211l-4.765-8.353c-2.497,0.731-4.926,1.616-7.278,2.647l1.718,9.461
			c-2.102,1.033-4.125,2.199-6.054,3.496l-7.331-6.215c-2.084,1.537-4.058,3.207-5.927,4.99l4.851,8.303
			c-1.614,1.677-3.117,3.46-4.493,5.344l-9.027-3.338c-1.429,2.143-2.72,4.383-3.873,6.706l7.401,6.146
			c-0.94,2.119-1.738,4.31-2.39,6.566l-9.619-0.048c-0.602,2.487-1.055,5.031-1.341,7.628l9.061,3.247
			c-0.077,1.154-0.13,2.316-0.13,3.49c0,1.175,0.053,2.334,0.13,3.489l-9.061,3.247c0.286,2.596,0.739,5.141,1.341,7.628
			l9.619-0.049c0.651,2.255,1.45,4.448,2.389,6.566l-7.4,6.146c1.153,2.322,2.444,4.562,3.873,6.706l9.027-3.338
			C77.102,216.366,78.605,218.149,80.219,219.827z M107.774,188.951c1.777,3.505,5.408,5.914,9.608,5.914
			c5.953,0,10.777-4.825,10.777-10.776c0-5.953-4.825-10.777-10.777-10.777c-0.213,0-0.421,0.02-0.631,0.031
			c-2.547-11.184-10.143-30.756-10.146-30.765c3.444-0.892,7.054-1.367,10.777-1.367c23.681,0,42.878,19.196,42.878,42.878
			c0,23.681-19.197,42.876-42.878,42.876c-15.249,0-28.629-7.966-36.231-19.957C86.251,203.743,98.852,195.575,107.774,188.951z"/>
		
			<rect x="73.677" y="141.254" fill="#FFFFFF" stroke="#288EEA" stroke-width="2" stroke-linecap="round" stroke-miterlimit="10" width="79.39" height="52.811"/>
		
			<rect x="78.797" y="145.961" fill="#FFFFFF" stroke="#288EEA" stroke-linecap="round" stroke-miterlimit="10" width="74.27" height="47.759"/>
		<polyline fill="#FFFFFF" stroke="#288EEA" stroke-linecap="round" stroke-miterlimit="10" points="84.38,177.303 101.255,165.157 
			117.13,174.467 132.214,161.707 		"/>
		<circle fill="#FFFFFF" stroke="#288EEA" stroke-linecap="round" stroke-miterlimit="10" cx="84.88" cy="177.47" r="2"/>
		<circle fill="#FFFFFF" stroke="#288EEA" stroke-linecap="round" stroke-miterlimit="10" cx="101.344" cy="164.722" r="2"/>
		<circle fill="#FFFFFF" stroke="#288EEA" stroke-linecap="round" stroke-miterlimit="10" cx="117.281" cy="173.47" r="2"/>
	</g>
	
		<line fill="#FFFFFF" stroke="#288EEA" stroke-width="2" stroke-linecap="round" stroke-miterlimit="10" x1="36" y1="234.67" x2="396.667" y2="234.67"/>
	<g>
		<path fill="#FFFFFF" stroke="#288EEA" stroke-width="2" stroke-linecap="round" stroke-miterlimit="10" d="M361.959,227.391
			c0,2.915-2.363,5.278-5.279,5.278h-69.942c-2.915,0-5.279-2.363-5.279-5.278V103.892c0-2.916,2.363-5.279,5.279-5.279h69.942
			c2.915,0,5.279,2.363,5.279,5.279V227.391z"/>
		<g>
			<path fill="#FFFFFF" stroke="#288EEA" stroke-linecap="round" stroke-miterlimit="10" d="M357.087,127.094
				c0,1.025-0.831,1.857-1.857,1.857h-67.04c-1.026,0-1.857-0.833-1.857-1.857v-11.764c0-1.025,0.832-1.857,1.857-1.857h67.04
				c1.026,0,1.857,0.832,1.857,1.857V127.094z"/>
			<path fill="#288EEA" d="M292.876,124.462c0,0.598-0.485,1.083-1.083,1.083l0,0c-0.598,0-1.083-0.485-1.083-1.083v-6.5
				c0-0.599,0.485-1.083,1.083-1.083l0,0c0.598,0,1.083,0.485,1.083,1.083V124.462z"/>
			<path fill="#288EEA" d="M296.543,124.462c0,0.598-0.485,1.083-1.083,1.083l0,0c-0.598,0-1.083-0.485-1.083-1.083v-6.5
				c0-0.599,0.485-1.083,1.083-1.083l0,0c0.598,0,1.083,0.485,1.083,1.083V124.462z"/>
			<path fill="#288EEA" d="M300.209,124.462c0,0.598-0.485,1.083-1.083,1.083l0,0c-0.598,0-1.084-0.485-1.084-1.083v-6.5
				c0-0.599,0.485-1.083,1.084-1.083l0,0c0.598,0,1.083,0.485,1.083,1.083V124.462z"/>
			<path fill="#FFFFFF" stroke="#288EEA" stroke-linecap="round" stroke-miterlimit="10" d="M352.334,121.212
				c0,1.174-0.951,2.125-2.125,2.125l0,0c-1.174,0-2.125-0.951-2.125-2.125l0,0c0-1.174,0.951-2.125,2.125-2.125l0,0
				C351.383,119.087,352.334,120.039,352.334,121.212L352.334,121.212z"/>
		</g>
		<g>
			<path fill="#FFFFFF" stroke="#288EEA" stroke-linecap="round" stroke-miterlimit="10" d="M357.087,146.08
				c0,1.025-0.831,1.857-1.857,1.857h-67.04c-1.026,0-1.857-0.833-1.857-1.857v-11.764c0-1.025,0.832-1.857,1.857-1.857h67.04
				c1.026,0,1.857,0.832,1.857,1.857V146.08z"/>
			<path fill="#288EEA" d="M292.876,143.448c0,0.598-0.485,1.084-1.083,1.084l0,0c-0.598,0-1.083-0.485-1.083-1.084v-6.499
				c0-0.599,0.485-1.083,1.083-1.083l0,0c0.598,0,1.083,0.485,1.083,1.083V143.448z"/>
			<path fill="#288EEA" d="M296.543,143.448c0,0.598-0.485,1.084-1.083,1.084l0,0c-0.598,0-1.083-0.485-1.083-1.084v-6.499
				c0-0.599,0.485-1.083,1.083-1.083l0,0c0.598,0,1.083,0.485,1.083,1.083V143.448z"/>
			<path fill="#288EEA" d="M300.209,143.448c0,0.598-0.485,1.084-1.083,1.084l0,0c-0.598,0-1.084-0.485-1.084-1.084v-6.499
				c0-0.599,0.485-1.083,1.084-1.083l0,0c0.598,0,1.083,0.485,1.083,1.083V143.448z"/>
			<path fill="#FFFFFF" stroke="#288EEA" stroke-linecap="round" stroke-miterlimit="10" d="M352.334,140.199
				c0,1.174-0.951,2.125-2.125,2.125l0,0c-1.174,0-2.125-0.951-2.125-2.125l0,0c0-1.174,0.951-2.125,2.125-2.125l0,0
				C351.383,138.074,352.334,139.025,352.334,140.199L352.334,140.199z"/>
		</g>
		<g>
			<path fill="#FFFFFF" stroke="#288EEA" stroke-linecap="round" stroke-miterlimit="10" d="M357.087,165.066
				c0,1.025-0.831,1.857-1.857,1.857h-67.04c-1.026,0-1.857-0.833-1.857-1.857v-11.764c0-1.025,0.832-1.857,1.857-1.857h67.04
				c1.026,0,1.857,0.832,1.857,1.857V165.066z"/>
			<path fill="#288EEA" d="M292.876,162.434c0,0.598-0.485,1.084-1.083,1.084l0,0c-0.598,0-1.083-0.485-1.083-1.084v-6.499
				c0-0.599,0.485-1.083,1.083-1.083l0,0c0.598,0,1.083,0.485,1.083,1.083V162.434z"/>
			<path fill="#288EEA" d="M296.543,162.434c0,0.598-0.485,1.084-1.083,1.084l0,0c-0.598,0-1.083-0.485-1.083-1.084v-6.499
				c0-0.599,0.485-1.083,1.083-1.083l0,0c0.598,0,1.083,0.485,1.083,1.083V162.434z"/>
			<path fill="#288EEA" d="M300.209,162.434c0,0.598-0.485,1.084-1.083,1.084l0,0c-0.598,0-1.084-0.485-1.084-1.084v-6.499
				c0-0.599,0.485-1.083,1.084-1.083l0,0c0.598,0,1.083,0.485,1.083,1.083V162.434z"/>
			<path fill="#FFFFFF" stroke="#288EEA" stroke-linecap="round" stroke-miterlimit="10" d="M352.334,159.185
				c0,1.174-0.951,2.125-2.125,2.125l0,0c-1.174,0-2.125-0.951-2.125-2.125l0,0c0-1.174,0.951-2.125,2.125-2.125l0,0
				C351.383,157.06,352.334,158.011,352.334,159.185L352.334,159.185z"/>
		</g>
		<g>
			<path fill="#FFFFFF" stroke="#288EEA" stroke-linecap="round" stroke-miterlimit="10" d="M357.087,184.053
				c0,1.025-0.831,1.857-1.857,1.857h-67.04c-1.026,0-1.857-0.833-1.857-1.857v-11.764c0-1.025,0.832-1.857,1.857-1.857h67.04
				c1.026,0,1.857,0.832,1.857,1.857V184.053z"/>
			<path fill="#288EEA" d="M292.876,181.42c0,0.598-0.485,1.084-1.083,1.084l0,0c-0.598,0-1.083-0.485-1.083-1.084v-6.499
				c0-0.599,0.485-1.083,1.083-1.083l0,0c0.598,0,1.083,0.485,1.083,1.083V181.42z"/>
			<path fill="#288EEA" d="M296.543,181.42c0,0.598-0.485,1.084-1.083,1.084l0,0c-0.598,0-1.083-0.485-1.083-1.084v-6.499
				c0-0.599,0.485-1.083,1.083-1.083l0,0c0.598,0,1.083,0.485,1.083,1.083V181.42z"/>
			<path fill="#288EEA" d="M300.209,181.42c0,0.598-0.485,1.084-1.083,1.084l0,0c-0.598,0-1.084-0.485-1.084-1.084v-6.499
				c0-0.599,0.485-1.083,1.084-1.083l0,0c0.598,0,1.083,0.485,1.083,1.083V181.42z"/>
			<path fill="#FFFFFF" stroke="#288EEA" stroke-linecap="round" stroke-miterlimit="10" d="M352.334,178.171
				c0,1.174-0.951,2.125-2.125,2.125l0,0c-1.174,0-2.125-0.951-2.125-2.125l0,0c0-1.174,0.951-2.125,2.125-2.125l0,0
				C351.383,176.046,352.334,176.997,352.334,178.171L352.334,178.171z"/>
		</g>
		<g>
			<path fill="#FFFFFF" stroke="#288EEA" stroke-linecap="round" stroke-miterlimit="10" d="M357.087,203.039
				c0,1.025-0.831,1.857-1.857,1.857h-67.04c-1.026,0-1.857-0.833-1.857-1.857v-11.764c0-1.025,0.832-1.857,1.857-1.857h67.04
				c1.026,0,1.857,0.832,1.857,1.857V203.039z"/>
			<path fill="#288EEA" d="M292.876,200.406c0,0.598-0.485,1.084-1.083,1.084l0,0c-0.598,0-1.083-0.485-1.083-1.084v-6.499
				c0-0.599,0.485-1.083,1.083-1.083l0,0c0.598,0,1.083,0.485,1.083,1.083V200.406z"/>
			<path fill="#288EEA" d="M296.543,200.406c0,0.598-0.485,1.084-1.083,1.084l0,0c-0.598,0-1.083-0.485-1.083-1.084v-6.499
				c0-0.599,0.485-1.083,1.083-1.083l0,0c0.598,0,1.083,0.485,1.083,1.083V200.406z"/>
			<path fill="#288EEA" d="M300.209,200.406c0,0.598-0.485,1.084-1.083,1.084l0,0c-0.598,0-1.084-0.485-1.084-1.084v-6.499
				c0-0.599,0.485-1.083,1.084-1.083l0,0c0.598,0,1.083,0.485,1.083,1.083V200.406z"/>
			<path fill="#FFFFFF" stroke="#288EEA" stroke-linecap="round" stroke-miterlimit="10" d="M352.334,197.157
				c0,1.174-0.951,2.125-2.125,2.125l0,0c-1.174,0-2.125-0.951-2.125-2.125l0,0c0-1.174,0.951-2.125,2.125-2.125l0,0
				C351.383,195.032,352.334,195.983,352.334,197.157L352.334,197.157z"/>
		</g>
		<path fill="#FFFFFF" stroke="#288EEA" stroke-width="2" stroke-linecap="round" stroke-miterlimit="10" d="M366.542,232.67
			c0,1.105-0.895,2-2,2h-85.666c-1.105,0-2-0.895-2-2v-15.333c0-1.105,0.895-2,2-2h85.666c1.105,0,2,0.895,2,2V232.67z"/>
	</g>
	<g>
		<g>
			<g>
				<path fill="#FFFFFF" d="M282.959,227.135v-95.998c0-4.418-3.582-8-8-8h-147c-4.418,0-8,3.582-8,8v95.998H282.959z"/>
				<path fill="#288EEA" d="M283.959,228.135h-165v-96.998c0-4.962,4.038-9,9-9h147c4.963,0,9,4.038,9,9V228.135z M120.959,226.135
					h161v-94.998c0-3.86-3.141-7-7-7h-147c-3.86,0-7,3.14-7,7V226.135z"/>
			</g>
			<g>
				<rect x="128.376" y="128.467" fill="#FFFFFF" width="147.666" height="98.332"/>
				<path fill="#288EEA" d="M276.542,227.299H127.876v-99.332h148.666V227.299z M128.876,226.299h146.666v-97.332H128.876V226.299z"
					/>
			</g>
			<g>
				<path fill="#FFFFFF" d="M99.888,224.303c-0.484,0.951-0.763,2.025-0.763,3.166c0,3.867,3.134,7,7,7h190.667c3.865,0,7-3.133,7-7
					c0-1.141-0.279-2.215-0.764-3.166H99.888z"/>
				<path fill="#288EEA" d="M296.792,235.469H106.125c-4.411,0-8-3.589-8-8c0-1.267,0.293-2.484,0.872-3.62l0.278-0.546h204.367
					l0.277,0.546c0.579,1.138,0.873,2.355,0.873,3.62C304.792,231.88,301.203,235.469,296.792,235.469z M100.533,225.303
					c-0.271,0.691-0.408,1.418-0.408,2.166c0,3.309,2.691,6,6,6h190.667c3.309,0,6-2.691,6-6c0-0.747-0.138-1.474-0.409-2.166
					H100.533z"/>
			</g>
			<g>
				<rect x="187.897" y="224.303" fill="#FFFFFF" width="27.125" height="3.666"/>
				<path fill="#288EEA" d="M215.522,228.469h-28.125v-4.666h28.125V228.469z M188.397,227.469h26.125v-2.666h-26.125V227.469z"/>
			</g>
		</g>
		<path fill="#DDDDDD" d="M149.028,141.637c-6.984,0-12.667,5.682-12.667,12.666c0,6.984,5.682,12.667,12.667,12.667
			s12.666-5.683,12.666-12.667C161.694,147.319,156.013,141.637,149.028,141.637z M149.028,161.97c-4.227,0-7.667-3.439-7.667-7.667
			c0-4.227,3.439-7.666,7.667-7.666c4.227,0,7.666,3.439,7.666,7.666C156.694,158.531,153.255,161.97,149.028,161.97z"/>
		<path fill="#DDDDDD" d="M183.667,141.637c-6.984,0-12.666,5.682-12.666,12.666c0,6.984,5.682,12.667,12.666,12.667
			c6.984,0,12.666-5.683,12.666-12.667C196.333,147.319,190.652,141.637,183.667,141.637z M183.667,161.97
			c-4.228,0-7.666-3.439-7.666-7.667c0-4.227,3.438-7.666,7.666-7.666c4.227,0,7.666,3.439,7.666,7.666
			C191.333,158.531,187.894,161.97,183.667,161.97z"/>
		<path fill="#DDDDDD" d="M218.306,141.637c-6.984,0-12.666,5.682-12.666,12.666c0,6.984,5.682,12.667,12.666,12.667
			c6.984,0,12.666-5.683,12.666-12.667C230.972,147.319,225.29,141.637,218.306,141.637z M218.306,161.97
			c-4.228,0-7.666-3.439-7.666-7.667c0-4.227,3.439-7.666,7.666-7.666c4.227,0,7.666,3.439,7.666,7.666
			C225.972,158.531,222.532,161.97,218.306,161.97z"/>
		<path fill="#DDDDDD" d="M252.944,141.637c-6.984,0-12.666,5.682-12.666,12.666c0,6.984,5.682,12.667,12.666,12.667
			c6.984,0,12.666-5.683,12.666-12.667C265.61,147.319,259.929,141.637,252.944,141.637z M252.944,161.97
			c-4.227,0-7.666-3.439-7.666-7.667c0-4.227,3.439-7.666,7.666-7.666c4.227,0,7.666,3.439,7.666,7.666
			C260.61,158.531,257.171,161.97,252.944,161.97z"/>
		<path fill="#288EEA" d="M252.944,141.637c-6.984,0-12.666,5.682-12.666,12.666c0,6.984,5.682,12.667,12.666,12.667
			c6.984,0,12.666-5.683,12.666-12.667C265.61,147.319,259.929,141.637,252.944,141.637z M252.944,161.97
			c-4.227,0-7.666-3.439-7.666-7.667c0-4.227,3.439-7.666,7.666-7.666c4.227,0,7.666,3.439,7.666,7.666
			C260.61,158.531,257.171,161.97,252.944,161.97z"/>
		<path fill="#288EEA" d="M183.792,162.096c-4.227,0-7.666-3.439-7.666-7.667c0-3.933,2.977-7.179,6.795-7.613v-0.793v-4.216
			c-6.578,0.451-11.795,5.932-11.795,12.623c0,6.984,5.682,12.667,12.666,12.667c1.335,0,2.621-0.211,3.83-0.595l-1.725-4.706
			C185.228,161.987,184.523,162.096,183.792,162.096z"/>
		<path fill="#288EEA" d="M210.64,154.303c0-4.227,3.439-7.666,7.666-7.666v-0.157v-4.216v-0.627
			c-6.984,0-12.666,5.682-12.666,12.666c0,0.382,0.025,0.759,0.058,1.133l4.974-0.513
			C210.654,154.718,210.64,154.513,210.64,154.303z"/>
		<path fill="#288EEA" d="M156.687,154.451c-0.079,4.159-3.481,7.52-7.658,7.52c-4.227,0-7.667-3.439-7.667-7.667
			c0-4.227,3.44-7.666,7.667-7.666c0.069,0,0.136,0.008,0.205,0.01v-5c-0.069-0.001-0.136-0.01-0.205-0.01
			c-6.985,0-12.667,5.682-12.667,12.666c0,6.984,5.682,12.667,12.667,12.667c6.935,0,12.578-5.604,12.658-12.52H156.687z"/>
		<g>
			<path fill="#DDDDDD" d="M145.484,184.55h-5.167v-5.167h5.167V184.55z M141.444,183.423h2.913v-2.913h-2.913V183.423z"/>
		</g>
		<g>
			<path fill="#DDDDDD" d="M156.485,184.55h-5.166v-5.167h5.166V184.55z M152.446,183.423h2.912v-2.913h-2.912V183.423z"/>
		</g>
		<rect x="140.317" y="188.019" fill="#DDDDDD" width="23.917" height="1.472"/>
		<rect x="140.317" y="192.019" fill="#DDDDDD" width="23.917" height="1.472"/>
		<rect x="140.317" y="196.019" fill="#DDDDDD" width="23.917" height="1.472"/>
		<rect x="140.317" y="200.019" fill="#DDDDDD" width="23.917" height="1.472"/>
		<rect x="140.317" y="204.019" fill="#DDDDDD" width="23.917" height="1.472"/>
		<rect x="140.317" y="208.019" fill="#DDDDDD" width="23.917" height="1.472"/>
		<g>
			<path fill="#DDDDDD" d="M176.875,184.55h-5.167v-5.167h5.167V184.55z M172.835,183.423h2.913v-2.913h-2.913V183.423z"/>
		</g>
		<g>
			<path fill="#DDDDDD" d="M187.877,184.55h-5.166v-5.167h5.166V184.55z M183.838,183.423h2.912v-2.913h-2.912V183.423z"/>
		</g>
		<rect x="171.708" y="188.019" fill="#DDDDDD" width="23.917" height="1.472"/>
		<rect x="171.708" y="192.019" fill="#DDDDDD" width="23.917" height="1.472"/>
		<rect x="171.708" y="196.019" fill="#DDDDDD" width="19.025" height="1.472"/>
		<rect x="171.708" y="200.019" fill="#DDDDDD" width="15.438" height="1.472"/>
		<rect x="171.708" y="204.019" fill="#DDDDDD" width="21.775" height="1.472"/>
		<rect x="171.708" y="208.019" fill="#DDDDDD" width="23.917" height="1.472"/>
		<g>
			<path fill="#DDDDDD" d="M212.222,184.55h-5.167v-5.167h5.167V184.55z M208.182,183.423h2.913v-2.913h-2.913V183.423z"/>
		</g>
		<rect x="207.055" y="188.019" fill="#DDDDDD" width="9.346" height="1.472"/>
		<rect x="207.055" y="192.019" fill="#DDDDDD" width="23.917" height="1.472"/>
		<rect x="207.055" y="196.019" fill="#DDDDDD" width="23.917" height="1.472"/>
		<rect x="207.055" y="200.019" fill="#DDDDDD" width="23.917" height="1.472"/>
		<rect x="207.055" y="204.019" fill="#DDDDDD" width="23.917" height="1.472"/>
		<rect x="207.055" y="208.019" fill="#DDDDDD" width="20.512" height="1.472"/>
		<g>
			<path fill="#DDDDDD" d="M247.658,184.55h-5.167v-5.167h5.167V184.55z M243.618,183.423h2.913v-2.913h-2.913V183.423z"/>
		</g>
		<g>
			<path fill="#DDDDDD" d="M258.66,184.55h-5.166v-5.167h5.166V184.55z M254.621,183.423h2.912v-2.913h-2.912V183.423z"/>
		</g>
		<rect x="242.491" y="188.019" fill="#DDDDDD" width="23.917" height="1.472"/>
		<rect x="242.491" y="192.019" fill="#DDDDDD" width="23.917" height="1.472"/>
		<rect x="242.491" y="196.019" fill="#DDDDDD" width="17.575" height="1.472"/>
		<rect x="242.491" y="200.019" fill="#DDDDDD" width="23.917" height="1.472"/>
		<rect x="242.491" y="204.019" fill="#DDDDDD" width="19.409" height="1.472"/>
		<rect x="242.491" y="208.019" fill="#DDDDDD" width="10.453" height="1.472"/>
	</g>
	<g>
		<polygon opacity="0.8" fill="#DDDDDD" points="334.672,85.132 333.568,80.257 298.568,80.257 298.568,85.132 298.568,111.174 
			298.568,116.049 349.068,116.049 349.068,85.132 		"/>
		<polygon fill="#FFFFFF" stroke="#288EEA" stroke-linecap="round" stroke-miterlimit="10" points="337.795,82.132 336.691,77.257 
			301.691,77.257 301.691,82.132 301.691,108.174 301.691,113.049 352.191,113.049 352.191,82.132 		"/>
		
			<line fill="#FFFFFF" stroke="#288EEA" stroke-linecap="round" stroke-miterlimit="10" x1="352.191" y1="90.507" x2="301.691" y2="90.507"/>
		
			<rect x="314.275" y="88.632" fill="#FFFFFF" stroke="#288EEA" stroke-linecap="round" stroke-miterlimit="10" width="12.666" height="3.834"/>
	</g>
	<g>
		<rect x="133.045" y="99.585" opacity="0.8" fill="#DDDDDD" width="52.097" height="38"/>
		<rect x="135.379" y="96.501" fill="#288EEA" width="52.096" height="38"/>
		<rect x="137.062" y="101.668" fill="#FFFFFF" width="48.731" height="31.833"/>
		<g>
			<path fill="#288EEA" d="M150.85,118.084l4.247,1.586v2.096l-6.182-2.486v-2.392l6.182-2.486v2.097L150.85,118.084z"/>
			<path fill="#288EEA" d="M157.922,123.823l4.421-12.229h2.526l-4.421,12.229H157.922z"/>
			<path fill="#288EEA" d="M171.79,117.95l-4.247-1.586v-2.096l6.182,2.486v2.392l-6.182,2.486v-2.097L171.79,117.95z"/>
		</g>
	</g>
	
		<line fill="#FFFFFF" stroke="#288EEA" stroke-width="2" stroke-linecap="round" stroke-miterlimit="10" x1="30.674" y1="234.67" x2="1.924" y2="234.67"/>
	<circle fill-rule="evenodd" clip-rule="evenodd" fill="#EDEDED" cx="53.762" cy="47.097" r="1.195"/>
	<circle fill-rule="evenodd" clip-rule="evenodd" fill="#EDEDED" cx="102.661" cy="43.997" r="1.195"/>
	<circle fill-rule="evenodd" clip-rule="evenodd" fill="#288EEA" cx="108.106" cy="40.261" r="1.195"/>
	<circle fill-rule="evenodd" clip-rule="evenodd" fill="#288EEA" cx="60.624" cy="70.66" r="1.195"/>
	<circle fill-rule="evenodd" clip-rule="evenodd" fill="#EDEDED" cx="314.545" cy="45.823" r="1.195"/>
	<circle fill-rule="evenodd" clip-rule="evenodd" fill="#80C9FF" cx="327.195" cy="37.99" r="1.195"/>
	<circle fill-rule="evenodd" clip-rule="evenodd" fill="#80C9FF" cx="314.545" cy="24.827" r="1.195"/>
	<g>
		<path fill-rule="evenodd" clip-rule="evenodd" fill="#80C9FF" d="M387.641,34.325c0,0.483,0.392,0.875,0.875,0.875l0,0
			c0.483,0,0.875-0.392,0.875-0.875v-4.25c0-0.483-0.392-0.875-0.875-0.875l0,0c-0.483,0-0.875,0.392-0.875,0.875V34.325z"/>
		<path fill-rule="evenodd" clip-rule="evenodd" fill="#80C9FF" d="M387.641,42.617c0,0.483,0.392,0.875,0.875,0.875l0,0
			c0.483,0,0.875-0.392,0.875-0.875v-4.25c0-0.483-0.392-0.875-0.875-0.875l0,0c-0.483,0-0.875,0.392-0.875,0.875V42.617z"/>
		<path fill-rule="evenodd" clip-rule="evenodd" fill="#80C9FF" d="M386.496,37.075c0.483,0,0.875-0.392,0.875-0.875l0,0
			c0-0.483-0.392-0.875-0.875-0.875h-4.25c-0.483,0-0.875,0.392-0.875,0.875l0,0c0,0.483,0.392,0.875,0.875,0.875H386.496z"/>
		<path fill-rule="evenodd" clip-rule="evenodd" fill="#80C9FF" d="M394.788,37.075c0.483,0,0.875-0.392,0.875-0.875l0,0
			c0-0.483-0.392-0.875-0.875-0.875h-4.25c-0.483,0-0.875,0.392-0.875,0.875l0,0c0,0.483,0.392,0.875,0.875,0.875H394.788z"/>
	</g>
	<g>
		<path fill-rule="evenodd" clip-rule="evenodd" fill="#80C9FF" d="M302.9,59c0,0.483-0.392,0.875-0.875,0.875l0,0
			c-0.483,0-0.875-0.392-0.875-0.875v-4.25c0-0.483,0.392-0.875,0.875-0.875l0,0c0.483,0,0.875,0.392,0.875,0.875V59z"/>
		<path fill-rule="evenodd" clip-rule="evenodd" fill="#80C9FF" d="M302.9,67.292c0,0.483-0.392,0.875-0.875,0.875l0,0
			c-0.483,0-0.875-0.392-0.875-0.875v-4.25c0-0.483,0.392-0.875,0.875-0.875l0,0c0.483,0,0.875,0.392,0.875,0.875V67.292z"/>
		<path fill-rule="evenodd" clip-rule="evenodd" fill="#80C9FF" d="M304.045,61.75c-0.483,0-0.875-0.392-0.875-0.875l0,0
			c0-0.483,0.392-0.875,0.875-0.875h4.25c0.483,0,0.875,0.392,0.875,0.875l0,0c0,0.483-0.392,0.875-0.875,0.875H304.045z"/>
		<path fill-rule="evenodd" clip-rule="evenodd" fill="#80C9FF" d="M295.753,61.75c-0.483,0-0.875-0.392-0.875-0.875l0,0
			c0-0.483,0.392-0.875,0.875-0.875h4.25c0.483,0,0.875,0.392,0.875,0.875l0,0c0,0.483-0.392,0.875-0.875,0.875H295.753z"/>
	</g>
	<g>
		<path fill-rule="evenodd" clip-rule="evenodd" fill="#80C9FF" d="M256.761,37.725c0,0.378-0.306,0.684-0.684,0.684l0,0
			c-0.378,0-0.684-0.306-0.684-0.684v-3.32c0-0.378,0.306-0.684,0.684-0.684l0,0c0.378,0,0.684,0.306,0.684,0.684V37.725z"/>
		<path fill-rule="evenodd" clip-rule="evenodd" fill="#80C9FF" d="M256.761,44.203c0,0.378-0.306,0.684-0.684,0.684l0,0
			c-0.378,0-0.684-0.306-0.684-0.684v-3.32c0-0.378,0.306-0.684,0.684-0.684l0,0c0.378,0,0.684,0.306,0.684,0.684V44.203z"/>
		<path fill-rule="evenodd" clip-rule="evenodd" fill="#80C9FF" d="M257.656,39.874c-0.378,0-0.684-0.306-0.684-0.684l0,0
			c0-0.378,0.306-0.684,0.684-0.684h3.32c0.378,0,0.684,0.306,0.684,0.684l0,0c0,0.378-0.306,0.684-0.684,0.684H257.656z"/>
		<path fill-rule="evenodd" clip-rule="evenodd" fill="#80C9FF" d="M251.178,39.874c-0.378,0-0.684-0.306-0.684-0.684l0,0
			c0-0.378,0.306-0.684,0.684-0.684h3.32c0.378,0,0.684,0.306,0.684,0.684l0,0c0,0.378-0.306,0.684-0.684,0.684H251.178z"/>
	</g>
	<g>
		<path fill-rule="evenodd" clip-rule="evenodd" fill="#EDEDED" d="M78.189,66.075c0,0.359-0.291,0.65-0.65,0.65l0,0
			c-0.359,0-0.65-0.291-0.65-0.65v-3.16c0-0.359,0.291-0.65,0.65-0.65l0,0c0.359,0,0.65,0.291,0.65,0.65V66.075z"/>
		<path fill-rule="evenodd" clip-rule="evenodd" fill="#EDEDED" d="M78.189,72.24c0,0.359-0.291,0.65-0.65,0.65l0,0
			c-0.359,0-0.65-0.291-0.65-0.65v-3.16c0-0.359,0.291-0.65,0.65-0.65l0,0c0.359,0,0.65,0.291,0.65,0.65V72.24z"/>
		<path fill-rule="evenodd" clip-rule="evenodd" fill="#EDEDED" d="M79.04,68.12c-0.359,0-0.65-0.291-0.65-0.65l0,0
			c0-0.359,0.291-0.65,0.65-0.65h3.16c0.359,0,0.65,0.291,0.65,0.65l0,0c0,0.359-0.291,0.65-0.65,0.65H79.04z"/>
		<path fill-rule="evenodd" clip-rule="evenodd" fill="#EDEDED" d="M72.876,68.12c-0.359,0-0.65-0.291-0.65-0.65l0,0
			c0-0.359,0.291-0.65,0.65-0.65h3.16c0.359,0,0.65,0.291,0.65,0.65l0,0c0,0.359-0.291,0.65-0.65,0.65H72.876z"/>
	</g>
	<g>
		<path fill-rule="evenodd" clip-rule="evenodd" fill="#EDEDED" d="M45.21,75.223c0,0.359-0.291,0.65-0.65,0.65l0,0
			c-0.359,0-0.65-0.291-0.65-0.65v-3.16c0-0.359,0.291-0.65,0.65-0.65l0,0c0.359,0,0.65,0.291,0.65,0.65V75.223z"/>
		<path fill-rule="evenodd" clip-rule="evenodd" fill="#EDEDED" d="M45.21,81.388c0,0.359-0.291,0.65-0.65,0.65l0,0
			c-0.359,0-0.65-0.291-0.65-0.65v-3.16c0-0.359,0.291-0.65,0.65-0.65l0,0c0.359,0,0.65,0.291,0.65,0.65V81.388z"/>
		<path fill-rule="evenodd" clip-rule="evenodd" fill="#EDEDED" d="M46.062,77.268c-0.359,0-0.65-0.291-0.65-0.65l0,0
			c0-0.359,0.291-0.65,0.65-0.65h3.16c0.359,0,0.65,0.291,0.65,0.65l0,0c0,0.359-0.291,0.65-0.65,0.65H46.062z"/>
		<path fill-rule="evenodd" clip-rule="evenodd" fill="#EDEDED" d="M39.897,77.268c-0.359,0-0.65-0.291-0.65-0.65l0,0
			c0-0.359,0.291-0.65,0.65-0.65h3.16c0.359,0,0.65,0.291,0.65,0.65l0,0c0,0.359-0.291,0.65-0.65,0.65H39.897z"/>
	</g>
	<g>
		
			<path fill-rule="evenodd" clip-rule="evenodd" fill="none" stroke="#80C9FF" stroke-width="2" stroke-linecap="round" stroke-linejoin="round" stroke-miterlimit="10" d="
			M99.757,67.496H86.973c-0.455-1.246-1.242-2.332-2.256-3.148c0.726-1.272,1.147-2.74,1.147-4.31c0-4.811-3.9-8.711-8.71-8.711
			c-0.622,0-1.228,0.068-1.813,0.192c-1.028-9.617-9.166-17.106-19.055-17.106c-10.586,0-19.167,8.581-19.167,19.167
			c0,1.15,0.107,2.274,0.301,3.368c-4.976,0.441-8.878,4.613-8.878,9.703c0,0.286,0.019,0.566,0.043,0.846h-7.395"/>
	</g>
	<g>
		
			<path fill-rule="evenodd" clip-rule="evenodd" fill="none" stroke="#80C9FF" stroke-width="2" stroke-linecap="round" stroke-linejoin="round" stroke-miterlimit="10" d="
			M151.135,52.454h-21.22c-0.335-0.919-0.916-1.719-1.663-2.321c0.535-0.938,0.845-2.02,0.845-3.177c0-3.546-2.875-6.42-6.42-6.42
			c-0.459,0-0.905,0.05-1.336,0.142c-0.758-7.089-6.757-12.61-14.046-12.61c-7.803,0-14.129,6.326-14.129,14.128
			c0,0.848,0.079,1.676,0.222,2.482c-3.667,0.325-6.544,3.4-6.544,7.152c0,0.211,0.014,0.417,0.032,0.624h-5.451"/>
	</g>
	
		<path fill-rule="evenodd" clip-rule="evenodd" fill="none" stroke="#80C9FF" stroke-width="2" stroke-linecap="round" stroke-linejoin="round" stroke-miterlimit="10" d="
		M275.229,27.296h10.532c0.335-0.918,0.916-1.719,1.663-2.321c-0.535-0.938-0.845-2.02-0.845-3.177c0-3.546,2.874-6.42,6.42-6.42
		c0.459,0,0.904,0.05,1.336,0.142c0.758-7.089,6.757-12.61,14.046-12.61c7.804,0,14.129,6.326,14.129,14.128
		c0,0.848-0.079,1.676-0.222,2.482c0.041,0.003,0.08,0.012,0.121,0.017c2.473-4.1,6.959-6.848,12.096-6.848
		c7.804,0,14.129,6.326,14.129,14.128c0,0.848-0.079,1.676-0.222,2.482c3.667,0.325,6.543,3.4,6.543,7.152
		c0,0.211-0.014,0.417-0.031,0.624h20.605"/>
	
		<path fill-rule="evenodd" clip-rule="evenodd" fill="none" stroke="#80C9FF" stroke-width="2" stroke-linecap="round" stroke-linejoin="round" stroke-miterlimit="10" d="
		M239.842,34.029h5.522c0.176-0.481,0.48-0.901,0.872-1.217c-0.28-0.492-0.442-1.059-0.442-1.666c0-1.859,1.507-3.367,3.366-3.367
		c0.24,0,0.474,0.026,0.7,0.074c0.397-3.717,3.543-6.612,7.364-6.612c4.092,0,7.408,3.317,7.408,7.408
		c0,0.444-0.041,0.879-0.115,1.302c0.021,0.002,0.041,0.006,0.063,0.009c1.297-2.15,3.649-3.591,6.343-3.591
		c4.092,0,7.408,3.316,7.408,7.408c0,0.445-0.042,0.879-0.116,1.302c1.923,0.17,3.431,1.783,3.431,3.75
		c0,0.11-0.007,0.219-0.017,0.327h10.805"/>
	<g>
		<circle fill="#288EEA" cx="80.53" cy="131.272" r="17.824"/>
		<g>
			<path fill-rule="evenodd" clip-rule="evenodd" fill="#FFFFFF" d="M80.531,140.431c-5.038,0-9.159-4.122-9.159-9.16
				c0-5.038,4.121-9.16,9.159-9.16c5.038,0,9.159,4.122,9.159,9.16C89.69,136.309,85.569,140.431,80.531,140.431z M86.85,134.935
				h-2.655c-0.274,1.191-0.732,2.291-1.282,3.297C84.562,137.592,86.027,136.492,86.85,134.935z M80.531,138.6
				c0.732-1.1,1.374-2.382,1.74-3.665h-3.48C79.157,136.309,79.799,137.5,80.531,138.6z M73.478,129.44
				c-0.183,0.549-0.275,1.19-0.275,1.832c0,0.641,0.092,1.283,0.275,1.831h3.114c0-0.641-0.092-1.19-0.092-1.831
				c0-0.641,0-1.191,0.092-1.832H73.478z M74.212,127.608h2.655c0.274-1.191,0.732-2.199,1.282-3.297
				C76.501,124.951,75.127,126.051,74.212,127.608z M76.867,134.935h-2.655c0.823,1.557,2.289,2.657,3.938,3.297
				C77.599,137.134,77.141,136.126,76.867,134.935z M80.531,123.943c-0.732,1.1-1.374,2.382-1.74,3.665h3.48
				C81.905,126.233,81.263,125.043,80.531,123.943z M78.424,129.44c-0.091,0.641-0.183,1.19-0.183,1.832
				c0,0.641,0.092,1.19,0.183,1.831h4.215c0.091-0.641,0.274-1.19,0.274-1.831c0-0.641-0.092-1.191-0.184-1.832H78.424z
				 M82.913,124.31c0.55,1.099,1.008,2.106,1.282,3.297h2.655C86.027,126.051,84.562,124.951,82.913,124.31z M84.562,129.44
				c0,0.641,0.091,1.19,0.091,1.832c0,0.641,0,1.19-0.091,1.831h3.113c0.183-0.549,0.274-1.19,0.274-1.831
				c0-0.641-0.092-1.283-0.274-1.832H84.562z"/>
		</g>
	</g>
	<g>
		<path fill-rule="evenodd" clip-rule="evenodd" fill="#A9D2F7" d="M108.491,98.822c0,5.759-4.607,10.366-10.366,10.366
			c-5.759,0-10.366-4.607-10.366-10.366s4.607-10.366,10.366-10.366c2.419,0,4.722,0.921,6.45,2.304l1.613-1.613
			c0.576,0.461,1.152,1.037,1.728,1.613l-1.728,1.613C107.685,94.099,108.491,96.403,108.491,98.822z M98.125,90.759
			c-4.492,0-8.063,3.571-8.063,8.063c0,4.492,3.571,8.063,8.063,8.063c4.492,0,8.063-3.571,8.063-8.063
			C106.188,94.33,102.617,90.759,98.125,90.759z M96.973,93.063h2.304v6.911h-2.304V93.063z M94.67,85h6.911v2.304H94.67V85z"/>
	</g>
	<g>
		<path fill-rule="evenodd" clip-rule="evenodd" fill="#DDDDDD" d="M362.402,70.394l3.539,2.128l-0.708,1.152l-4.158-2.482v-4.521
			h1.327V70.394z M362.402,79.082c-3.892,0-7.166-2.66-8.139-6.206h1.858c0.973,2.571,3.362,4.433,6.281,4.433
			c3.627,0,6.635-3.014,6.635-6.649c0-3.635-3.008-6.649-6.635-6.649c-2.654,0-4.866,1.507-6.016,3.723l2.477,2.482h-5.75v-5.762
			l2.035,2.039c1.415-2.571,4.158-4.255,7.254-4.255c4.6,0,8.404,3.812,8.404,8.422C370.806,75.27,367.09,79.082,362.402,79.082z"/>
	</g>
	<path fill="none" stroke="#DDDDDD" stroke-width="2" stroke-miterlimit="10" d="M48.275,98.059l4.834,4.834
		c0.33,0.33,0.33,0.866,0,1.196l-4.834,4.834c-0.533,0.533-1.444,0.155-1.444-0.598v-9.667
		C46.831,97.904,47.742,97.526,48.275,98.059z"/>
	<path fill="none" stroke="#DDDDDD" stroke-width="2" stroke-miterlimit="10" d="M61.86,115.056H36.633c-2.42,0-4.4-1.98-4.4-4.4
		v-14.33c0-2.42,1.98-4.4,4.4-4.4H61.86c2.42,0,4.4,1.98,4.4,4.4v14.33C66.26,113.076,64.28,115.056,61.86,115.056z"/>
</g>
<g id="Layer_3">
	<polygon fill="#D9F2FC" stroke="#288EEA" stroke-width="2" stroke-linecap="round" stroke-miterlimit="10" points="
		273.118,106.024 278.494,105.1 297.152,139.962 290.021,152.903 	"/>
	<path fill="#D9F2FC" stroke="#288EEA" stroke-width="2" stroke-linecap="round" stroke-miterlimit="10" d="M323.099,233.979H208.41
		c-1.743,0-3.169-1.426-3.169-3.169v-8.319c0-1.743,1.426-3.169,3.169-3.169h114.689c1.743,0,3.169,1.426,3.169,3.169v8.319
		C326.268,232.553,324.842,233.979,323.099,233.979z"/>
	<path fill="#D9F2FC" stroke="#288EEA" stroke-width="2" stroke-linecap="round" stroke-miterlimit="10" d="M291.765,157.944
		l-1.814-4.704l-85.018-21.841c-1.402-0.36-2.889,0.055-3.901,1.089l0,0c-1.716,1.753-2.018,4.45-0.732,6.539l17.62,28.633
		l-2.987,10.879c-5.975,21.761,7.719,44.574,29.971,48.326c2.01,0.339,4.012,0.516,5.974,0.516h-0.099
		c19.634,0,37.758-10.704,43.571-41.447C296.124,176.554,295.2,166.851,291.765,157.944z M242.17,185.548
		c-6.792,1.506-12.71-4.412-11.204-11.204c0.759-3.422,3.521-6.184,6.943-6.943c6.792-1.505,12.709,4.412,11.204,11.204
		C248.354,182.027,245.592,184.789,242.17,185.548z"/>
	<path fill="#FFFFFF" stroke="#288EEA" stroke-width="2" stroke-linecap="round" stroke-miterlimit="10" d="M280.513,118.041
		l9.508,34.862l-15.946,11.192l-41.762-11.192h-21.715c0,0-0.998-7.828,1.965-20.902c2.979-13.073,14.864-19.507,14.864-19.507
		v-0.792h-14.626c-1.543,0-2.805-1.262-2.805-2.805v-6.957c0-0.732,0.599-1.331,1.331-1.331h7.701c1.331,0,2.535-0.539,3.407-1.41
		c1.097-1.097,1.667-2.721,1.299-4.431c-0.471-2.186-2.534-3.667-4.77-3.667l-18.476,0V79.943c0-3.464,2.808-6.273,6.273-6.273
		h14.201c0.945,0,1.711-0.766,1.711-1.711v0c0-7.807,6.328-14.135,14.135-14.135h5.008c1.569-5.182,5.419-6.259,9.381-7.131v5.625
		c0,0,40.282-7.21,40.535,35.496l0.666,26.226H280.513z"/>
	<path fill-rule="evenodd" clip-rule="evenodd" fill="#D9F2FC" d="M258.083,119.167c0,0-1.5,11.5-5.333,16.333
		c-3.833,4.833-10.375,19.094-10.375,19.094l9.892,2.604c0,0,0.736-10.42,3.828-17.122
		C259.188,133.375,259.417,121.271,258.083,119.167z"/>
	<polygon fill="#D9F2FC" points="276.375,99.906 281.25,117 289.741,117.043 	"/>
	<path fill="#D9F2FC" d="M263.333,76.048c0,0,6.917,17.406-5.25,29.842c-8.981,9.18-29.104,13.36-33.75,32.681
		c-2.31,9.609-0.951,13.429-0.951,13.429h8.484c0,0,4.322-28.331,18.54-35.804s21.128-16.409,18.886-26.076
		C267.051,80.453,263.333,76.048,263.333,76.048z"/>
	<path fill-rule="evenodd" clip-rule="evenodd" fill="#D9F2FC" d="M240.5,88.23c0,0,6.375,10.353-20.225,22.468
		C221.939,110.75,230,111,230,111S247.369,97.304,240.5,88.23z"/>
	<path fill="none" stroke="#288EEA" stroke-width="2" stroke-linecap="round" stroke-miterlimit="10" d="M264.865,76.048
		c0,0,8.914,13.47,1.585,27.137s-29.382,8.121-34.136,49.718"/>
	<path fill="none" stroke="#288EEA" stroke-width="2" stroke-linecap="round" stroke-miterlimit="10" d="M240.798,88.23
		c0.266,0.418,8.517,9.013-13.37,24.265"/>
	
		<line fill="#FFFFFF" stroke="#288EEA" stroke-width="2" stroke-linecap="round" stroke-miterlimit="10" x1="269.825" y1="109.294" x2="274.076" y2="164.095"/>
	<path fill="none" stroke="#288EEA" stroke-width="2" stroke-linecap="round" stroke-miterlimit="10" d="M258.857,118.569
		c0,0.924,2.773,9.112-3.169,22.449c-5.942,13.337-2.947,17.359-2.947,17.359"/>
	
		<line fill="#FFFFFF" stroke="#288EEA" stroke-width="2" stroke-linecap="round" stroke-miterlimit="10" x1="275.439" y1="100.362" x2="281.549" y2="121.84"/>
	<path fill="none" stroke="#288EEA" stroke-width="2" stroke-linecap="round" stroke-miterlimit="10" d="M246.443,156.69
		c0,0,3.755,4.663,1.349,14.634"/>
	<path fill="none" stroke="#288EEA" stroke-width="2" stroke-linecap="round" stroke-miterlimit="10" d="M236.007,168.081
		c0,0-9.503-5.554-18.087,0"/>
	<path fill="#FFFFFF" stroke="#288EEA" stroke-width="2" stroke-linecap="round" stroke-miterlimit="10" d="M213.356,234h-25.735
		c0.824-6,6.275-11.299,12.867-11.299C207.081,222.701,212.532,228,213.356,234z"/>
	<path fill="#FFFFFF" stroke="#288EEA" stroke-width="2" stroke-linecap="round" stroke-miterlimit="10" d="M330.62,234h-25.735
		c0.824-6,6.275-11.299,12.867-11.299S329.796,228,330.62,234z"/>
	<path fill="none" stroke="#288EEA" stroke-width="2" stroke-linecap="round" stroke-miterlimit="10" d="M306.792,227.382
		c0,0-16.177-12.941-27.929-1.651c-6.078,5.839-17.893,4.82-17.893,4.82"/>
	<path fill="#FFFFFF" stroke="#288EEA" stroke-linecap="round" stroke-miterlimit="10" d="M207.124,93.598v-1.951h4.061l-2.262,2.62
		C208.303,94.985,207.124,94.547,207.124,93.598z"/>
	<path fill="#FFFFFF" stroke="#288EEA" stroke-linecap="round" stroke-miterlimit="10" d="M218.365,98.12v1.951h-4.061l2.262-2.62
		C217.186,96.733,218.365,97.171,218.365,98.12z"/>
	<path fill="none" stroke="#288EEA" stroke-linecap="round" stroke-miterlimit="10" d="M221.985,166.081
		c0,0-5.745,41.264,26.635,46.252"/>
	<g>
		<g>
			<path fill="none" stroke="#288EEA" stroke-linecap="round" stroke-miterlimit="10" d="M289.096,165.25
				c0,0,0.825,5.314,0.358,12.474"/>
			
				<path fill="none" stroke="#288EEA" stroke-linecap="round" stroke-miterlimit="10" stroke-dasharray="6.0117,1.4313,8.5881,6.0117" d="
				M288.305,186.227c-1.243,5.862-3.583,12.025-7.839,17.151"/>
			<path fill="none" stroke="#288EEA" stroke-linecap="round" stroke-miterlimit="10" d="M278.434,205.595
				c-2.764,2.732-6.192,5.061-10.434,6.739"/>
		</g>
	</g>
	<polygon fill-rule="evenodd" clip-rule="evenodd" fill="#D9F2FC" points="268.938,111.101 266.542,160.97 272.917,162.792 	"/>
	<g>
		<path fill="none" stroke="#288EEA" stroke-linecap="round" stroke-miterlimit="10" d="M258.615,186.316
			c0-3.599,2.918-6.517,6.517-6.517s6.517,2.918,6.517,6.517"/>
		<path fill="none" stroke="#288EEA" stroke-linecap="round" stroke-miterlimit="10" d="M271.736,186.316
			c0-3.599,2.918-6.517,6.517-6.517c3.599,0,6.517,2.918,6.517,6.517"/>
		<path fill="none" stroke="#288EEA" stroke-linecap="round" stroke-miterlimit="10" d="M265.132,179.799
			c0-3.599,2.918-6.517,6.517-6.517s6.517,2.918,6.517,6.517"/>
	</g>
	<g>
		<path fill="none" stroke="#288EEA" stroke-linecap="round" stroke-miterlimit="10" d="M234.946,200.484
			c0-2.495,2.022-4.517,4.517-4.517s4.517,2.022,4.517,4.517"/>
		<path fill="none" stroke="#288EEA" stroke-linecap="round" stroke-miterlimit="10" d="M244.041,200.484
			c0-2.495,2.022-4.517,4.517-4.517s4.517,2.022,4.517,4.517"/>
		<path fill="none" stroke="#288EEA" stroke-linecap="round" stroke-miterlimit="10" d="M239.463,195.967
			c0-2.495,2.022-4.517,4.517-4.517c2.495,0,4.517,2.022,4.517,4.517"/>
	</g>
	<g>
		<path fill="none" stroke="#288EEA" stroke-linecap="round" stroke-miterlimit="10" d="M222.25,161.894
			c0-1.865,1.512-3.376,3.376-3.376s3.376,1.512,3.376,3.376"/>
		<path fill="none" stroke="#288EEA" stroke-linecap="round" stroke-miterlimit="10" d="M229.048,161.894
			c0-1.865,1.512-3.376,3.376-3.376s3.376,1.512,3.376,3.376"/>
		<path fill="none" stroke="#288EEA" stroke-linecap="round" stroke-miterlimit="10" d="M225.626,158.518
			c0-1.865,1.512-3.376,3.376-3.376s3.376,1.512,3.376,3.376"/>
	</g>
</g>
</svg>
