<?xml version="1.0" encoding="utf-8"?>
<!-- Generator: Adobe Illustrator 20.1.0, SVG Export Plug-In . SVG Version: 6.00 Build 0)  -->
<svg version="1.1" xmlns="http://www.w3.org/2000/svg" xmlns:xlink="http://www.w3.org/1999/xlink" x="0px" y="0px"
	 viewBox="0 0 520 486" enable-background="new 0 0 520 486" xml:space="preserve">
<g id="Layer_3">
	<g>
		
			<rect x="85.066" y="132.613" fill-rule="evenodd" clip-rule="evenodd" fill="#F5FDFF" stroke="#D9F2FC" stroke-width="3" stroke-linecap="round" stroke-miterlimit="10" width="35.182" height="20.556"/>
		
			<rect x="50.773" y="149.907" fill-rule="evenodd" clip-rule="evenodd" fill="#F5FDFF" stroke="#D9F2FC" stroke-width="3" stroke-linecap="round" stroke-miterlimit="10" width="84.199" height="25.2"/>
		
			<rect x="405.357" y="132.613" fill-rule="evenodd" clip-rule="evenodd" fill="#F5FDFF" stroke="#D9F2FC" stroke-width="3" stroke-linecap="round" stroke-miterlimit="10" width="35.182" height="20.556"/>
		
			<rect x="371.065" y="149.907" fill-rule="evenodd" clip-rule="evenodd" fill="#F5FDFF" stroke="#D9F2FC" stroke-width="3" stroke-linecap="round" stroke-miterlimit="10" width="84.199" height="25.2"/>
		
			<rect x="105.621" y="188.35" fill-rule="evenodd" clip-rule="evenodd" fill="#F5FDFF" stroke="#D9F2FC" stroke-width="3" stroke-linecap="round" stroke-miterlimit="10" width="47.436" height="30.043"/>
		
			<rect x="89.414" y="216.812" fill-rule="evenodd" clip-rule="evenodd" fill="#F5FDFF" stroke="#D9F2FC" stroke-width="3" stroke-linecap="round" stroke-miterlimit="10" width="80.641" height="204.765"/>
		<rect x="105.621" y="237.96" fill-rule="evenodd" clip-rule="evenodd" fill="#C9E9F4" width="42.692" height="9.487"/>
		<rect x="105.621" y="264.05" fill-rule="evenodd" clip-rule="evenodd" fill="#C9E9F4" width="42.692" height="9.487"/>
		<rect x="105.621" y="290.14" fill-rule="evenodd" clip-rule="evenodd" fill="#C9E9F4" width="42.692" height="9.487"/>
		<rect x="105.621" y="316.229" fill-rule="evenodd" clip-rule="evenodd" fill="#C9E9F4" width="42.692" height="9.487"/>
		<rect x="105.621" y="342.319" fill-rule="evenodd" clip-rule="evenodd" fill="#C9E9F4" width="42.692" height="9.487"/>
		
			<rect x="236.07" y="188.35" fill-rule="evenodd" clip-rule="evenodd" fill="#F5FDFF" stroke="#D9F2FC" stroke-width="3" stroke-linecap="round" stroke-miterlimit="10" width="47.436" height="30.043"/>
		
			<rect x="219.863" y="216.812" fill-rule="evenodd" clip-rule="evenodd" fill="#F5FDFF" stroke="#D9F2FC" stroke-width="3" stroke-linecap="round" stroke-miterlimit="10" width="80.641" height="204.765"/>
		<rect x="236.07" y="237.96" fill-rule="evenodd" clip-rule="evenodd" fill="#C9E9F4" width="42.692" height="9.487"/>
		<rect x="236.07" y="264.05" fill-rule="evenodd" clip-rule="evenodd" fill="#C9E9F4" width="42.692" height="9.487"/>
		<rect x="236.07" y="290.14" fill-rule="evenodd" clip-rule="evenodd" fill="#C9E9F4" width="42.692" height="9.487"/>
		<rect x="236.07" y="316.229" fill-rule="evenodd" clip-rule="evenodd" fill="#C9E9F4" width="42.692" height="9.487"/>
		<rect x="236.07" y="342.319" fill-rule="evenodd" clip-rule="evenodd" fill="#C9E9F4" width="42.692" height="9.487"/>
		
			<rect x="365.728" y="188.35" fill-rule="evenodd" clip-rule="evenodd" fill="#F5FDFF" stroke="#D9F2FC" stroke-width="3" stroke-linecap="round" stroke-miterlimit="10" width="47.436" height="30.043"/>
		
			<rect x="349.521" y="216.812" fill-rule="evenodd" clip-rule="evenodd" fill="#F5FDFF" stroke="#D9F2FC" stroke-width="3" stroke-linecap="round" stroke-miterlimit="10" width="80.641" height="204.765"/>
		<rect x="365.728" y="237.96" fill-rule="evenodd" clip-rule="evenodd" fill="#C9E9F4" width="42.692" height="9.487"/>
		<rect x="365.728" y="264.05" fill-rule="evenodd" clip-rule="evenodd" fill="#C9E9F4" width="42.692" height="9.487"/>
		<rect x="365.728" y="290.14" fill-rule="evenodd" clip-rule="evenodd" fill="#C9E9F4" width="42.692" height="9.487"/>
		<rect x="365.728" y="316.229" fill-rule="evenodd" clip-rule="evenodd" fill="#C9E9F4" width="42.692" height="9.487"/>
		<rect x="365.728" y="342.319" fill-rule="evenodd" clip-rule="evenodd" fill="#C9E9F4" width="42.692" height="9.487"/>
		
			<path fill-rule="evenodd" clip-rule="evenodd" fill="#F5FDFF" stroke="#D9F2FC" stroke-width="3" stroke-linecap="round" stroke-miterlimit="10" d="
			M483.132,199.418H56.362c-13.786,0-27.029-5.376-36.914-14.987L6.401,171.747h476.731V199.418z"/>
	</g>
	
		<path fill="none" stroke="#288EEA" stroke-width="2" stroke-linecap="round" stroke-linejoin="bevel" stroke-dasharray="2.9682,9.894" d="
		M84.377,237.133c-2.219-9.425-3.393-19.254-3.393-29.357c0-70.474,57.132-127.605,127.605-127.605
		c70.477,0,127.607,57.131,127.607,127.605c0,16.387-3.089,32.052-8.716,46.446"/>
</g>
<g id="Layer_1">
	
		<line fill="#FFFFFF" stroke="#288EEA" stroke-width="3" stroke-linecap="round" stroke-miterlimit="10" x1="3.25" y1="423.553" x2="512" y2="423.553"/>
	<g>
		<path fill="#FFFFFF" stroke="#288EEA" stroke-width="4" stroke-linecap="round" stroke-miterlimit="10" d="M480.65,411.091
			c0,4.991-4.046,9.036-9.037,9.036H351.874c-4.991,0-9.037-4.046-9.037-9.036V199.665c0-4.991,4.046-9.037,9.037-9.037h119.739
			c4.991,0,9.037,4.046,9.037,9.037V411.091z"/>
		<g>
			<path fill="#FFFFFF" stroke="#288EEA" stroke-linecap="round" stroke-miterlimit="10" d="M472.308,239.387
				c0,1.755-1.423,3.18-3.18,3.18h-114.77c-1.756,0-3.18-1.425-3.18-3.18v-20.139c0-1.755,1.424-3.18,3.18-3.18h114.77
				c1.756,0,3.18,1.425,3.18,3.18V239.387z"/>
			<path fill="#288EEA" d="M362.383,234.88c0,1.024-0.831,1.855-1.855,1.855l0,0c-1.024,0-1.855-0.831-1.855-1.855v-11.127
				c0-1.025,0.831-1.855,1.855-1.855l0,0c1.024,0,1.855,0.83,1.855,1.855V234.88z"/>
			<path fill="#288EEA" d="M368.66,234.88c0,1.024-0.831,1.855-1.855,1.855l0,0c-1.024,0-1.855-0.831-1.855-1.855v-11.127
				c0-1.025,0.831-1.855,1.855-1.855l0,0c1.024,0,1.855,0.83,1.855,1.855V234.88z"/>
			<path fill="#288EEA" d="M374.936,234.88c0,1.024-0.831,1.855-1.855,1.855l0,0c-1.024,0-1.855-0.831-1.855-1.855v-11.127
				c0-1.025,0.831-1.855,1.855-1.855l0,0c1.024,0,1.855,0.83,1.855,1.855V234.88z"/>
			<path fill="#FFFFFF" stroke="#288EEA" stroke-linecap="round" stroke-miterlimit="10" d="M464.172,229.317
				c0,2.009-1.628,3.638-3.638,3.638l0,0c-2.01,0-3.638-1.628-3.638-3.638l0,0c0-2.01,1.628-3.638,3.638-3.638l0,0
				C462.544,225.679,464.172,227.308,464.172,229.317L464.172,229.317z"/>
		</g>
		<g>
			<path fill="#FFFFFF" stroke="#288EEA" stroke-linecap="round" stroke-miterlimit="10" d="M472.308,271.89
				c0,1.755-1.423,3.18-3.18,3.18h-114.77c-1.756,0-3.18-1.425-3.18-3.18v-20.139c0-1.755,1.424-3.18,3.18-3.18h114.77
				c1.756,0,3.18,1.425,3.18,3.18V271.89z"/>
			<path fill="#288EEA" d="M362.383,267.384c0,1.024-0.831,1.855-1.855,1.855l0,0c-1.024,0-1.855-0.831-1.855-1.855v-11.127
				c0-1.025,0.831-1.855,1.855-1.855l0,0c1.024,0,1.855,0.83,1.855,1.855V267.384z"/>
			<path fill="#288EEA" d="M368.66,267.384c0,1.024-0.831,1.855-1.855,1.855l0,0c-1.024,0-1.855-0.831-1.855-1.855v-11.127
				c0-1.025,0.831-1.855,1.855-1.855l0,0c1.024,0,1.855,0.83,1.855,1.855V267.384z"/>
			<path fill="#288EEA" d="M374.936,267.384c0,1.024-0.831,1.855-1.855,1.855l0,0c-1.024,0-1.855-0.831-1.855-1.855v-11.127
				c0-1.025,0.831-1.855,1.855-1.855l0,0c1.024,0,1.855,0.83,1.855,1.855V267.384z"/>
			<path fill="#FFFFFF" stroke="#288EEA" stroke-linecap="round" stroke-miterlimit="10" d="M464.172,261.821
				c0,2.01-1.628,3.638-3.638,3.638l0,0c-2.01,0-3.638-1.628-3.638-3.638l0,0c0-2.009,1.628-3.638,3.638-3.638l0,0
				C462.544,258.183,464.172,259.811,464.172,261.821L464.172,261.821z"/>
		</g>
		<g>
			<path fill="#FFFFFF" stroke="#288EEA" stroke-linecap="round" stroke-miterlimit="10" d="M472.308,304.393
				c0,1.755-1.423,3.18-3.18,3.18h-114.77c-1.756,0-3.18-1.425-3.18-3.18v-20.139c0-1.755,1.424-3.18,3.18-3.18h114.77
				c1.756,0,3.18,1.425,3.18,3.18V304.393z"/>
			<path fill="#288EEA" d="M362.383,299.887c0,1.024-0.831,1.855-1.855,1.855l0,0c-1.024,0-1.855-0.831-1.855-1.855V288.76
				c0-1.025,0.831-1.855,1.855-1.855l0,0c1.024,0,1.855,0.83,1.855,1.855V299.887z"/>
			<path fill="#288EEA" d="M368.66,299.887c0,1.024-0.831,1.855-1.855,1.855l0,0c-1.024,0-1.855-0.831-1.855-1.855V288.76
				c0-1.025,0.831-1.855,1.855-1.855l0,0c1.024,0,1.855,0.83,1.855,1.855V299.887z"/>
			<path fill="#288EEA" d="M374.936,299.887c0,1.024-0.831,1.855-1.855,1.855l0,0c-1.024,0-1.855-0.831-1.855-1.855V288.76
				c0-1.025,0.831-1.855,1.855-1.855l0,0c1.024,0,1.855,0.83,1.855,1.855V299.887z"/>
			<path fill="#FFFFFF" stroke="#288EEA" stroke-linecap="round" stroke-miterlimit="10" d="M464.172,294.324
				c0,2.009-1.628,3.638-3.638,3.638l0,0c-2.01,0-3.638-1.628-3.638-3.638l0,0c0-2.01,1.628-3.638,3.638-3.638l0,0
				C462.544,290.686,464.172,292.315,464.172,294.324L464.172,294.324z"/>
		</g>
		<g>
			<path fill="#FFFFFF" stroke="#288EEA" stroke-linecap="round" stroke-miterlimit="10" d="M472.308,336.897
				c0,1.755-1.423,3.18-3.18,3.18h-114.77c-1.756,0-3.18-1.425-3.18-3.18v-20.139c0-1.755,1.424-3.18,3.18-3.18h114.77
				c1.756,0,3.18,1.424,3.18,3.18V336.897z"/>
			<path fill="#288EEA" d="M362.383,332.391c0,1.024-0.831,1.855-1.855,1.855l0,0c-1.024,0-1.855-0.831-1.855-1.855v-11.127
				c0-1.025,0.831-1.855,1.855-1.855l0,0c1.024,0,1.855,0.83,1.855,1.855V332.391z"/>
			<path fill="#288EEA" d="M368.66,332.391c0,1.024-0.831,1.855-1.855,1.855l0,0c-1.024,0-1.855-0.831-1.855-1.855v-11.127
				c0-1.025,0.831-1.855,1.855-1.855l0,0c1.024,0,1.855,0.83,1.855,1.855V332.391z"/>
			<path fill="#288EEA" d="M374.936,332.391c0,1.024-0.831,1.855-1.855,1.855l0,0c-1.024,0-1.855-0.831-1.855-1.855v-11.127
				c0-1.025,0.831-1.855,1.855-1.855l0,0c1.024,0,1.855,0.83,1.855,1.855V332.391z"/>
			<path fill="#FFFFFF" stroke="#288EEA" stroke-linecap="round" stroke-miterlimit="10" d="M464.172,326.827
				c0,2.01-1.628,3.638-3.638,3.638l0,0c-2.01,0-3.638-1.628-3.638-3.638l0,0c0-2.009,1.628-3.638,3.638-3.638l0,0
				C462.544,323.19,464.172,324.818,464.172,326.827L464.172,326.827z"/>
		</g>
		<g>
			<path fill="#FFFFFF" stroke="#288EEA" stroke-linecap="round" stroke-miterlimit="10" d="M472.308,369.4
				c0,1.755-1.423,3.18-3.18,3.18h-114.77c-1.756,0-3.18-1.425-3.18-3.18v-20.139c0-1.755,1.424-3.18,3.18-3.18h114.77
				c1.756,0,3.18,1.425,3.18,3.18V369.4z"/>
			<path fill="#288EEA" d="M362.383,364.894c0,1.024-0.831,1.855-1.855,1.855l0,0c-1.024,0-1.855-0.831-1.855-1.855v-11.127
				c0-1.025,0.831-1.855,1.855-1.855l0,0c1.024,0,1.855,0.83,1.855,1.855V364.894z"/>
			<path fill="#288EEA" d="M368.66,364.894c0,1.024-0.831,1.855-1.855,1.855l0,0c-1.024,0-1.855-0.831-1.855-1.855v-11.127
				c0-1.025,0.831-1.855,1.855-1.855l0,0c1.024,0,1.855,0.83,1.855,1.855V364.894z"/>
			<path fill="#288EEA" d="M374.936,364.894c0,1.024-0.831,1.855-1.855,1.855l0,0c-1.024,0-1.855-0.831-1.855-1.855v-11.127
				c0-1.025,0.831-1.855,1.855-1.855l0,0c1.024,0,1.855,0.83,1.855,1.855V364.894z"/>
			<path fill="#FFFFFF" stroke="#288EEA" stroke-linecap="round" stroke-miterlimit="10" d="M464.172,359.331
				c0,2.009-1.628,3.638-3.638,3.638l0,0c-2.01,0-3.638-1.628-3.638-3.638l0,0c0-2.01,1.628-3.638,3.638-3.638l0,0
				C462.544,355.693,464.172,357.321,464.172,359.331L464.172,359.331z"/>
		</g>
		<path fill="#FFFFFF" stroke="#288EEA" stroke-width="3" stroke-linecap="round" stroke-miterlimit="10" d="M488.496,420.129
			c0,1.891-1.533,3.424-3.424,3.424H338.414c-1.891,0-3.424-1.533-3.424-3.424v-26.249c0-1.891,1.533-3.424,3.424-3.424h146.658
			c1.891,0,3.424,1.533,3.424,3.424V420.129z"/>
	</g>
	<g>
		<g>
			<g>
				<path fill="#FFFFFF" d="M345.405,410.653V246.307c0-7.563-6.132-13.696-13.696-13.696H80.051
					c-7.563,0-13.696,6.132-13.696,13.696v164.346H345.405z"/>
				<path fill="#288EEA" d="M347.117,412.365H64.643V246.307c0-8.495,6.912-15.408,15.408-15.408h251.658
					c8.496,0,15.408,6.912,15.408,15.408V412.365z M68.067,408.941h275.626V246.307c0-6.608-5.377-11.984-11.984-11.984H80.051
					c-6.608,0-11.984,5.376-11.984,11.984V408.941z"/>
			</g>
			<g>
				<rect x="80.765" y="241.737" fill="#FFFFFF" width="252.798" height="168.341"/>
				<path fill="#288EEA" d="M334.419,410.934H79.909V240.881h254.51V410.934z M81.621,409.222h251.086V242.593H81.621V409.222z"/>
			</g>
			<g>
				<path fill="#FFFFFF" d="M31.994,405.805c-0.829,1.628-1.306,3.467-1.306,5.42c0,6.62,5.365,11.984,11.984,11.984h326.414
					c6.617,0,11.984-5.363,11.984-11.984c0-1.953-0.478-3.792-1.307-5.42H31.994z"/>
				<path fill="#288EEA" d="M369.086,424.92H42.672c-7.552,0-13.696-6.144-13.696-13.696c0-2.168,0.502-4.253,1.492-6.197
					l0.476-0.935h349.868l0.475,0.935c0.991,1.948,1.495,4.033,1.495,6.197C382.782,418.776,376.638,424.92,369.086,424.92z
					 M33.099,407.516c-0.464,1.184-0.699,2.428-0.699,3.708c0,5.664,4.608,10.272,10.272,10.272h326.414
					c5.664,0,10.272-4.608,10.272-10.272c0-1.279-0.236-2.523-0.701-3.708H33.099z"/>
			</g>
			<g>
				<rect x="182.661" y="405.805" fill="#FFFFFF" width="46.437" height="6.276"/>
				<path fill="#288EEA" d="M229.954,412.937h-48.149v-7.988h48.149V412.937z M183.517,411.225h44.725v-4.564h-44.725V411.225z"/>
			</g>
		</g>
		<path fill="#DDDDDD" d="M116.121,264.283c-11.957,0-21.685,9.728-21.685,21.685c0,11.957,9.728,21.685,21.685,21.685
			c11.957,0,21.684-9.728,21.684-21.685C137.804,274.01,128.078,264.283,116.121,264.283z M116.121,299.093
			c-7.237,0-13.125-5.888-13.125-13.126c0-7.237,5.887-13.125,13.125-13.125c7.236,0,13.124,5.887,13.124,13.125
			C129.244,293.205,123.356,299.093,116.121,299.093z"/>
		<path fill="#DDDDDD" d="M175.421,264.283c-11.957,0-21.684,9.728-21.684,21.685c0,11.957,9.727,21.685,21.684,21.685
			s21.684-9.728,21.684-21.685C197.104,274.01,187.378,264.283,175.421,264.283z M175.421,299.093
			c-7.237,0-13.124-5.888-13.124-13.126c0-7.237,5.886-13.125,13.124-13.125c7.236,0,13.124,5.887,13.124,13.125
			C188.545,293.205,182.656,299.093,175.421,299.093z"/>
		<path fill="#DDDDDD" d="M234.721,264.283c-11.957,0-21.684,9.728-21.684,21.685c0,11.957,9.727,21.685,21.684,21.685
			c11.957,0,21.684-9.728,21.684-21.685C256.404,274.01,246.678,264.283,234.721,264.283z M234.721,299.093
			c-7.237,0-13.124-5.888-13.124-13.126c0-7.237,5.887-13.125,13.124-13.125c7.236,0,13.124,5.887,13.124,13.125
			C247.845,293.205,241.956,299.093,234.721,299.093z"/>
		<path fill="#DDDDDD" d="M294.021,264.283c-11.957,0-21.684,9.728-21.684,21.685c0,11.957,9.727,21.685,21.684,21.685
			c11.957,0,21.684-9.728,21.684-21.685C315.704,274.01,305.978,264.283,294.021,264.283z M294.021,299.093
			c-7.237,0-13.124-5.888-13.124-13.126c0-7.237,5.887-13.125,13.124-13.125c7.236,0,13.124,5.887,13.124,13.125
			C307.145,293.205,301.257,299.093,294.021,299.093z"/>
		<path fill="#288EEA" d="M294.021,264.283c-11.957,0-21.684,9.728-21.684,21.685c0,11.957,9.727,21.685,21.684,21.685
			c11.957,0,21.684-9.728,21.684-21.685C315.704,274.01,305.978,264.283,294.021,264.283z M294.021,299.093
			c-7.236,0-13.124-5.888-13.124-13.126c0-7.237,5.888-13.125,13.124-13.125c7.236,0,13.124,5.887,13.124,13.125
			C307.145,293.205,301.257,299.093,294.021,299.093z"/>
		<path fill="#288EEA" d="M175.635,299.308c-7.236,0-13.124-5.888-13.124-13.126c0-6.732,5.097-12.29,11.633-13.034v-1.358v-7.217
			c-11.261,0.772-20.192,10.156-20.192,21.609c0,11.957,9.727,21.685,21.684,21.685c2.285,0,4.487-0.36,6.557-1.019l-2.952-8.056
			C178.092,299.121,176.885,299.308,175.635,299.308z"/>
		<path fill="#288EEA" d="M221.597,285.967c0-7.237,5.888-13.125,13.124-13.125v-0.268v-7.217v-1.074
			c-11.957,0-21.684,9.728-21.684,21.685c0,0.654,0.042,1.299,0.099,1.939l8.515-0.878
			C221.622,286.678,221.597,286.326,221.597,285.967z"/>
		<path fill="#288EEA" d="M129.231,286.22c-0.135,7.12-5.96,12.873-13.111,12.873c-7.236,0-13.125-5.888-13.125-13.126
			c0-7.237,5.889-13.125,13.125-13.125c0.119,0,0.233,0.014,0.351,0.017v-8.56c-0.118-0.002-0.232-0.017-0.351-0.017
			c-11.958,0-21.685,9.728-21.685,21.685c0,11.957,9.727,21.685,21.685,21.685c11.872,0,21.533-9.593,21.67-21.433H129.231z"/>
		<g>
			<path fill="#DDDDDD" d="M110.052,337.749h-8.846v-8.846h8.846V337.749z M103.136,335.82h4.986v-4.987h-4.986V335.82z"/>
		</g>
		<g>
			<path fill="#DDDDDD" d="M128.887,337.749h-8.844v-8.846h8.844V337.749z M121.972,335.82h4.985v-4.987h-4.985V335.82z"/>
		</g>
		<rect x="101.206" y="343.687" fill="#DDDDDD" width="40.945" height="2.519"/>
		<rect x="101.206" y="350.535" fill="#DDDDDD" width="40.945" height="2.519"/>
		<rect x="101.206" y="357.383" fill="#DDDDDD" width="40.945" height="2.519"/>
		<rect x="101.206" y="364.231" fill="#DDDDDD" width="40.945" height="2.519"/>
		<rect x="101.206" y="371.079" fill="#DDDDDD" width="40.945" height="2.519"/>
		<rect x="101.206" y="377.927" fill="#DDDDDD" width="40.945" height="2.519"/>
		<g>
			<path fill="#DDDDDD" d="M163.793,337.749h-8.846v-8.846h8.846V337.749z M156.877,335.82h4.987v-4.987h-4.987V335.82z"/>
		</g>
		<g>
			<path fill="#DDDDDD" d="M182.628,337.749h-8.844v-8.846h8.844V337.749z M175.713,335.82h4.985v-4.987h-4.985V335.82z"/>
		</g>
		<rect x="154.947" y="343.687" fill="#DDDDDD" width="40.945" height="2.519"/>
		<rect x="154.947" y="350.535" fill="#DDDDDD" width="40.945" height="2.519"/>
		<rect x="154.947" y="357.383" fill="#DDDDDD" width="32.571" height="2.519"/>
		<rect x="154.947" y="364.231" fill="#DDDDDD" width="26.428" height="2.519"/>
		<rect x="154.947" y="371.079" fill="#DDDDDD" width="37.279" height="2.519"/>
		<rect x="154.947" y="377.927" fill="#DDDDDD" width="40.945" height="2.519"/>
		<g>
			<path fill="#DDDDDD" d="M224.305,337.749h-8.846v-8.846h8.846V337.749z M217.389,335.82h4.987v-4.987h-4.987V335.82z"/>
		</g>
		<rect x="215.46" y="343.687" fill="#DDDDDD" width="15.999" height="2.519"/>
		<rect x="215.46" y="350.535" fill="#DDDDDD" width="40.945" height="2.519"/>
		<rect x="215.46" y="357.383" fill="#DDDDDD" width="40.945" height="2.519"/>
		<rect x="215.46" y="364.231" fill="#DDDDDD" width="40.945" height="2.519"/>
		<rect x="215.46" y="371.079" fill="#DDDDDD" width="40.945" height="2.519"/>
		<rect x="215.46" y="377.927" fill="#DDDDDD" width="35.115" height="2.519"/>
		<g>
			<path fill="#DDDDDD" d="M284.971,337.749h-8.846v-8.846h8.846V337.749z M278.055,335.82h4.987v-4.987h-4.987V335.82z"/>
		</g>
		<g>
			<path fill="#DDDDDD" d="M303.806,337.749h-8.844v-8.846h8.844V337.749z M296.891,335.82h4.985v-4.987h-4.985V335.82z"/>
		</g>
		<rect x="276.125" y="343.687" fill="#DDDDDD" width="40.945" height="2.519"/>
		<rect x="276.125" y="350.535" fill="#DDDDDD" width="40.945" height="2.519"/>
		<rect x="276.125" y="357.383" fill="#DDDDDD" width="30.088" height="2.519"/>
		<rect x="276.125" y="364.231" fill="#DDDDDD" width="40.945" height="2.519"/>
		<rect x="276.125" y="371.079" fill="#DDDDDD" width="33.228" height="2.519"/>
		<rect x="276.125" y="377.927" fill="#DDDDDD" width="17.895" height="2.519"/>
	</g>
	<g>
		<polygon opacity="0.8" fill="#DDDDDD" points="474.131,162.384 472.242,154.038 412.323,154.038 412.323,162.384 412.323,206.967 
			412.323,215.313 498.777,215.313 498.777,162.384 		"/>
		<polygon fill="#FFFFFF" stroke="#288EEA" stroke-width="2" stroke-linecap="round" stroke-miterlimit="10" points="
			479.477,157.248 477.588,148.902 417.67,148.902 417.67,157.248 417.67,201.831 417.67,210.177 504.124,210.177 504.124,157.248 
					"/>
		
			<line fill="#FFFFFF" stroke="#288EEA" stroke-linecap="round" stroke-miterlimit="10" x1="504.124" y1="171.586" x2="417.67" y2="171.586"/>
		
			<rect x="439.213" y="168.376" fill="#FFFFFF" stroke="#288EEA" stroke-linecap="round" stroke-miterlimit="10" width="21.684" height="6.563"/>
	</g>
	<g>
		<rect x="21.67" y="322.024" opacity="0.8" fill="#DDDDDD" width="89.188" height="65.055"/>
		<rect x="25.665" y="316.745" fill="#288EEA" width="89.187" height="65.055"/>
		<rect x="28.546" y="325.59" fill="#FFFFFF" width="83.426" height="54.498"/>
		<g>
			<path fill="#288EEA" d="M52.151,353.695l7.27,2.715v3.588l-10.583-4.256v-4.095l10.583-4.256v3.589L52.151,353.695z"/>
			<path fill="#288EEA" d="M64.257,363.518l7.568-20.935h4.325l-7.568,20.935H64.257z"/>
			<path fill="#288EEA" d="M87.998,353.465l-7.27-2.715v-3.588l10.583,4.256v4.094l-10.583,4.257v-3.589L87.998,353.465z"/>
		</g>
	</g>
	
		<line fill="#FFFFFF" stroke="#288EEA" stroke-width="2" stroke-linecap="round" stroke-miterlimit="10" x1="66.852" y1="404.936" x2="38.102" y2="404.936"/>
	<circle fill-rule="evenodd" clip-rule="evenodd" fill="#EDEDED" cx="66.865" cy="53.238" r="2.047"/>
	<circle fill-rule="evenodd" clip-rule="evenodd" fill="#EDEDED" cx="150.578" cy="47.93" r="2.047"/>
	<circle fill-rule="evenodd" clip-rule="evenodd" fill="#288EEA" cx="159.9" cy="41.535" r="2.047"/>
	<circle fill-rule="evenodd" clip-rule="evenodd" fill="#288EEA" cx="78.612" cy="93.576" r="2.047"/>
	<circle fill-rule="evenodd" clip-rule="evenodd" fill="#EDEDED" cx="399.478" cy="100.253" r="2.047"/>
	<circle fill-rule="evenodd" clip-rule="evenodd" fill="#80C9FF" cx="421.135" cy="86.843" r="2.047"/>
	<circle fill-rule="evenodd" clip-rule="evenodd" fill="#80C9FF" cx="399.478" cy="64.31" r="2.047"/>
	<g>
		<path fill-rule="evenodd" clip-rule="evenodd" fill="#80C9FF" d="M489.27,136.484c0,0.483,0.392,0.875,0.875,0.875l0,0
			c0.483,0,0.875-0.392,0.875-0.875v-4.25c0-0.483-0.392-0.875-0.875-0.875l0,0c-0.483,0-0.875,0.392-0.875,0.875V136.484z"/>
		<path fill-rule="evenodd" clip-rule="evenodd" fill="#80C9FF" d="M489.27,144.776c0,0.483,0.392,0.875,0.875,0.875l0,0
			c0.483,0,0.875-0.392,0.875-0.875v-4.25c0-0.483-0.392-0.875-0.875-0.875l0,0c-0.483,0-0.875,0.392-0.875,0.875V144.776z"/>
		<path fill-rule="evenodd" clip-rule="evenodd" fill="#80C9FF" d="M488.124,139.234c0.483,0,0.875-0.392,0.875-0.875l0,0
			c0-0.483-0.392-0.875-0.875-0.875h-4.25c-0.483,0-0.875,0.392-0.875,0.875l0,0c0,0.483,0.392,0.875,0.875,0.875H488.124z"/>
		<path fill-rule="evenodd" clip-rule="evenodd" fill="#80C9FF" d="M496.416,139.234c0.483,0,0.875-0.392,0.875-0.875l0,0
			c0-0.483-0.392-0.875-0.875-0.875h-4.25c-0.483,0-0.875,0.392-0.875,0.875l0,0c0,0.483,0.392,0.875,0.875,0.875H496.416z"/>
	</g>
	<g>
		<path fill-rule="evenodd" clip-rule="evenodd" fill="#80C9FF" d="M379.543,122.812c0,0.828-0.67,1.498-1.498,1.498l0,0
			c-0.828,0-1.498-0.67-1.498-1.498v-7.276c0-0.828,0.67-1.498,1.498-1.498l0,0c0.828,0,1.498,0.67,1.498,1.498V122.812z"/>
		<path fill-rule="evenodd" clip-rule="evenodd" fill="#80C9FF" d="M379.543,137.007c0,0.828-0.67,1.498-1.498,1.498l0,0
			c-0.828,0-1.498-0.67-1.498-1.498v-7.276c0-0.828,0.67-1.498,1.498-1.498l0,0c0.828,0,1.498,0.67,1.498,1.498V137.007z"/>
		<path fill-rule="evenodd" clip-rule="evenodd" fill="#80C9FF" d="M381.504,127.52c-0.828,0-1.498-0.67-1.498-1.498l0,0
			c0-0.828,0.67-1.498,1.498-1.498h7.276c0.828,0,1.498,0.67,1.498,1.498l0,0c0,0.828-0.67,1.498-1.498,1.498H381.504z"/>
		<path fill-rule="evenodd" clip-rule="evenodd" fill="#80C9FF" d="M367.308,127.52c-0.828,0-1.498-0.67-1.498-1.498l0,0
			c0-0.828,0.67-1.498,1.498-1.498h7.276c0.828,0,1.498,0.67,1.498,1.498l0,0c0,0.828-0.67,1.498-1.498,1.498H367.308z"/>
	</g>
	<g>
		<path fill-rule="evenodd" clip-rule="evenodd" fill="#80C9FF" d="M300.555,86.39c0,0.647-0.524,1.17-1.17,1.17l0,0
			c-0.647,0-1.17-0.524-1.17-1.17v-5.684c0-0.647,0.524-1.17,1.17-1.17l0,0c0.647,0,1.17,0.524,1.17,1.17V86.39z"/>
		<path fill-rule="evenodd" clip-rule="evenodd" fill="#80C9FF" d="M300.555,97.481c0,0.647-0.524,1.17-1.17,1.17l0,0
			c-0.647,0-1.17-0.524-1.17-1.17v-5.684c0-0.647,0.524-1.17,1.17-1.17l0,0c0.647,0,1.17,0.524,1.17,1.17V97.481z"/>
		<path fill-rule="evenodd" clip-rule="evenodd" fill="#80C9FF" d="M302.087,90.068c-0.647,0-1.17-0.524-1.17-1.17l0,0
			c0-0.647,0.524-1.17,1.17-1.17h5.684c0.647,0,1.17,0.524,1.17,1.17l0,0c0,0.647-0.524,1.17-1.17,1.17H302.087z"/>
		<path fill-rule="evenodd" clip-rule="evenodd" fill="#80C9FF" d="M290.997,90.068c-0.647,0-1.17-0.524-1.17-1.17l0,0
			c0-0.647,0.524-1.17,1.17-1.17h5.684c0.647,0,1.17,0.524,1.17,1.17l0,0c0,0.647-0.524,1.17-1.17,1.17H290.997z"/>
	</g>
	<g>
		<path fill-rule="evenodd" clip-rule="evenodd" fill="#EDEDED" d="M108.683,85.727c0,0.615-0.498,1.113-1.113,1.113l0,0
			c-0.615,0-1.113-0.498-1.113-1.113v-5.409c0-0.615,0.498-1.113,1.113-1.113l0,0c0.615,0,1.113,0.498,1.113,1.113V85.727z"/>
		<path fill-rule="evenodd" clip-rule="evenodd" fill="#EDEDED" d="M108.683,96.281c0,0.615-0.498,1.113-1.113,1.113l0,0
			c-0.615,0-1.113-0.498-1.113-1.113v-5.409c0-0.615,0.498-1.113,1.113-1.113l0,0c0.615,0,1.113,0.498,1.113,1.113V96.281z"/>
		<path fill-rule="evenodd" clip-rule="evenodd" fill="#EDEDED" d="M110.141,89.227c-0.615,0-1.113-0.498-1.113-1.113l0,0
			c0-0.615,0.498-1.113,1.113-1.113h5.409c0.615,0,1.113,0.498,1.113,1.113l0,0c0,0.615-0.498,1.113-1.113,1.113H110.141z"/>
		<path fill-rule="evenodd" clip-rule="evenodd" fill="#EDEDED" d="M99.587,89.227c-0.615,0-1.113-0.498-1.113-1.113l0,0
			c0-0.615,0.498-1.113,1.113-1.113h5.409c0.615,0,1.113,0.498,1.113,1.113l0,0c0,0.615-0.498,1.113-1.113,1.113H99.587z"/>
	</g>
	<g>
		<path fill-rule="evenodd" clip-rule="evenodd" fill="#EDEDED" d="M52.225,101.388c0,0.615-0.498,1.113-1.113,1.113l0,0
			c-0.615,0-1.113-0.498-1.113-1.113v-5.409c0-0.615,0.498-1.113,1.113-1.113l0,0c0.615,0,1.113,0.498,1.113,1.113V101.388z"/>
		<path fill-rule="evenodd" clip-rule="evenodd" fill="#EDEDED" d="M52.225,111.942c0,0.615-0.498,1.113-1.113,1.113l0,0
			c-0.615,0-1.113-0.498-1.113-1.113v-5.409c0-0.615,0.498-1.113,1.113-1.113l0,0c0.615,0,1.113,0.498,1.113,1.113V111.942z"/>
		<path fill-rule="evenodd" clip-rule="evenodd" fill="#EDEDED" d="M53.683,104.888c-0.615,0-1.113-0.498-1.113-1.113l0,0
			c0-0.615,0.498-1.113,1.113-1.113h5.409c0.615,0,1.113,0.498,1.113,1.113l0,0c0,0.615-0.498,1.113-1.113,1.113H53.683z"/>
		<path fill-rule="evenodd" clip-rule="evenodd" fill="#EDEDED" d="M43.129,104.888c-0.615,0-1.113-0.498-1.113-1.113l0,0
			c0-0.615,0.498-1.113,1.113-1.113h5.409c0.615,0,1.113,0.498,1.113,1.113l0,0c0,0.615-0.498,1.113-1.113,1.113H43.129z"/>
	</g>
	<g>
		
			<path fill-rule="evenodd" clip-rule="evenodd" fill="none" stroke="#80C9FF" stroke-width="2" stroke-linecap="round" stroke-linejoin="round" stroke-miterlimit="10" d="
			M145.607,88.16h-21.887c-0.778-2.133-2.126-3.992-3.863-5.39c1.243-2.178,1.964-4.691,1.964-7.378
			c0-8.236-6.676-14.912-14.912-14.912c-1.065,0-2.102,0.116-3.103,0.329c-1.761-16.463-15.692-29.285-32.622-29.285
			c-18.123,0-32.814,14.69-32.814,32.813c0,1.969,0.184,3.893,0.516,5.765C30.369,70.856,23.688,78,23.688,86.713
			c0,0.489,0.032,0.97,0.074,1.448h-12.66"/>
	</g>
	<g>
		
			<path fill-rule="evenodd" clip-rule="evenodd" fill="none" stroke="#80C9FF" stroke-width="2" stroke-linecap="round" stroke-linejoin="round" stroke-miterlimit="10" d="
			M233.564,62.409h-36.327c-0.574-1.572-1.567-2.943-2.847-3.973c0.916-1.605,1.447-3.458,1.447-5.439
			c0-6.07-4.921-10.991-10.991-10.991c-0.785,0-1.549,0.085-2.287,0.242c-1.298-12.136-11.568-21.587-24.046-21.587
			c-13.359,0-24.188,10.829-24.188,24.187c0,1.451,0.136,2.87,0.38,4.25c-6.279,0.556-11.203,5.821-11.203,12.244
			c0,0.361,0.023,0.715,0.054,1.067h-9.332"/>
	</g>
	
		<path fill-rule="evenodd" clip-rule="evenodd" fill="none" stroke="#80C9FF" stroke-width="2" stroke-linecap="round" stroke-linejoin="round" stroke-miterlimit="10" d="
		M332.171,68.536h18.031c0.573-1.572,1.568-2.943,2.847-3.973c-0.916-1.605-1.446-3.458-1.446-5.439
		c0-6.07,4.92-10.991,10.991-10.991c0.786,0,1.548,0.085,2.287,0.242c1.297-12.136,11.567-21.588,24.046-21.588
		c13.36,0,24.188,10.829,24.188,24.187c0,1.451-0.135,2.87-0.38,4.25c0.07,0.006,0.137,0.021,0.207,0.028
		c4.233-7.019,11.914-11.724,20.707-11.724c13.36,0,24.188,10.829,24.188,24.187c0,1.451-0.135,2.87-0.38,4.25
		c6.278,0.556,11.201,5.821,11.201,12.244c0,0.361-0.023,0.715-0.054,1.067h35.276"/>
	
		<path fill-rule="evenodd" clip-rule="evenodd" fill="none" stroke="#80C9FF" stroke-width="2" stroke-linecap="round" stroke-linejoin="round" stroke-miterlimit="10" d="
		M271.591,80.063h9.454c0.301-0.824,0.822-1.542,1.493-2.083c-0.48-0.842-0.757-1.813-0.757-2.851c0-3.183,2.58-5.764,5.763-5.764
		c0.411,0,0.811,0.045,1.199,0.127c0.68-6.363,6.065-11.319,12.607-11.319c7.005,0,12.683,5.678,12.683,12.683
		c0,0.761-0.07,1.505-0.197,2.228c0.037,0.003,0.07,0.011,0.107,0.015c2.22-3.681,6.248-6.147,10.859-6.147
		c7.005,0,12.683,5.678,12.683,12.682c0,0.761-0.072,1.505-0.199,2.229c3.292,0.292,5.873,3.052,5.873,6.42
		c0,0.189-0.012,0.374-0.028,0.559h18.497"/>
	<g>
		<path fill-rule="evenodd" clip-rule="evenodd" fill="#DDDDDD" d="M464.93,106.361l6.058,3.642l-1.212,1.973l-7.118-4.25v-7.74
			h2.272V106.361z M464.93,121.234c-6.664,0-12.267-4.553-13.933-10.624h3.18c1.666,4.401,5.755,7.588,10.753,7.588
			c6.209,0,11.359-5.16,11.359-11.383c0-6.223-5.149-11.383-11.359-11.383c-4.543,0-8.33,2.58-10.299,6.374l4.241,4.25h-9.844
			v-9.865l3.483,3.491c2.423-4.401,7.118-7.285,12.419-7.285c7.875,0,14.388,6.526,14.388,14.418S472.957,121.234,464.93,121.234z"
			/>
	</g>
	<g>
		<circle fill="#FFFFFF" cx="234.189" cy="74.836" r="20.088"/>
		<g>
			<path fill="none" stroke="#298EEA" stroke-width="2" stroke-miterlimit="10" d="M254.277,74.789
				c0,10.36-7.912,18.864-18.033,19.801c-0.61,0.062-1.477,0.088-2.105,0.088c-10.944,0-20.138-8.822-20.138-19.748v-0.141
				c0-7.028,3.891-13.198,9.389-16.734c3.094-1.998,6.905-3.156,10.874-3.156c4.526,0,8.752,1.512,12.093,4.058
				C251.13,62.581,254.277,68.327,254.277,74.789z"/>
			<path fill="none" stroke="#298EEA" stroke-width="2" stroke-miterlimit="10" d="M216.965,84.719
				c0.118-2.035,0.444-4.06,0.977-6.042c1.444-5.415,4.377-10.455,8.85-14.513c4.494-4.077,9.856-6.531,15.424-7.432"/>
			<path fill="none" stroke="#298EEA" stroke-width="2" stroke-miterlimit="10" d="M218.682,62.417
				c7.182,0.17,13.719,2.642,19.056,6.708c5.927,4.5,10.242,10.977,12.029,18.447"/>
			
				<circle fill="#D4E8FB" stroke="#298EEA" stroke-width="2" stroke-linecap="round" stroke-miterlimit="10" cx="249.995" cy="87.237" r="3.755"/>
			
				<circle fill="#D4E8FB" stroke="#298EEA" stroke-width="2" stroke-linecap="round" stroke-miterlimit="10" cx="218.778" cy="62.095" r="2.372"/>
			
				<circle fill="#D4E8FB" stroke="#298EEA" stroke-width="2" stroke-linecap="round" stroke-miterlimit="10" cx="227.405" cy="64.647" r="3.261"/>
			<path fill="none" stroke="#C9C9C9" stroke-miterlimit="10" d="M241.3,56.635c6.103-1.986,11.376-1.612,13.94,1.542
				c4.399,5.411-1.889,19.339-12.753,28.171s-19.903,9.224-24.302,3.813c-1.231-1.514-1.707-3.507-1.517-5.787"/>
			
				<circle fill="#D4E8FB" stroke="#298EEA" stroke-width="2" stroke-linecap="round" stroke-miterlimit="10" cx="216.604" cy="84.076" r="3.261"/>
			
				<circle fill="#D4E8FB" stroke="#298EEA" stroke-width="2" stroke-linecap="round" stroke-miterlimit="10" cx="242.043" cy="56.662" r="1.631"/>
		</g>
	</g>
	<g>
		<path fill="#D4E8FB" stroke="#298EEA" stroke-width="2" stroke-linecap="round" stroke-miterlimit="10" d="M141.626,134.464
			c0.391,0.39,1.024,0.39,1.414,0l3.535-3.536c0.391-0.391,0.391-1.024,0-1.414l-11.445-11.445c-0.391-0.391-1.024-0.391-1.415,0
			l-3.536,3.536c-0.39,0.39-0.39,1.023,0,1.414L141.626,134.464z"/>
		
			<rect x="125.708" y="109.89" transform="matrix(0.7072 -0.7071 0.7071 0.7072 -44.5254 124.6082)" fill="#D4E8FB" stroke="#298EEA" stroke-width="2" stroke-linecap="round" stroke-miterlimit="10" width="4.92" height="12.333"/>
		
			<ellipse transform="matrix(0.7071 -0.7071 0.7071 0.7071 -40.1008 113.9392)" fill="#FFFFFF" stroke="#298EEA" stroke-width="2" stroke-miterlimit="10" cx="117.486" cy="105.376" rx="14.42" ry="14.42"/>
		<path fill="none" stroke="#298EEA" stroke-linecap="round" stroke-miterlimit="10" d="M109.683,97.573
			c-4.309,4.309-4.309,11.296,0,15.605c0.993,0.993,2.128,1.757,3.34,2.293"/>
	</g>
</g>
<g id="Layer_4">
	<g>
		<path fill="none" stroke="#C9C9C9" stroke-miterlimit="10" d="M191.213,141.205h-23.694c-0.365,0-0.663-0.299-0.663-0.663v-14.217
			v-1.101c0-0.365,0.299-0.663,0.663-0.663h23.694c0.365,0,0.663,0.299,0.663,0.663v15.317
			C191.876,140.907,191.578,141.205,191.213,141.205z"/>
		<polyline fill="none" stroke="#C9C9C9" stroke-miterlimit="10" points="166.855,125.225 179.12,135.5 191.876,125.225 		"/>
	</g>
</g>
<g id="Layer_2">
	<g>
		<polygon fill="#D9F2FC" points="313.791,194.145 323.413,192.49 356.81,254.89 344.046,278.054 		"/>
		<path fill="#288EEA" d="M343.704,282.384l-32.322-89.641l13-2.236l34.465,64.395L343.704,282.384z M316.2,195.547l28.189,78.178
			l10.385-18.846l-32.329-60.406L316.2,195.547z"/>
	</g>
	<g>
		<path fill="#D9F2FC" d="M403.252,423.173H197.969c-3.12,0-5.673-2.553-5.673-5.673v-14.891c0-3.12,2.553-5.673,5.673-5.673
			h205.283c3.12,0,5.673,2.553,5.673,5.673V417.5C408.925,420.62,406.372,423.173,403.252,423.173z"/>
		<path fill="#288EEA" d="M403.252,424.963H197.97c-4.115,0-7.464-3.349-7.464-7.464v-14.891c0-4.115,3.349-7.462,7.464-7.462
			h205.282c4.115,0,7.464,3.347,7.464,7.462V417.5C410.715,421.614,407.366,424.963,403.252,424.963z M197.97,398.726
			c-2.141,0-3.884,1.741-3.884,3.882V417.5c0,2.141,1.743,3.884,3.884,3.884h205.282c2.141,0,3.884-1.743,3.884-3.884v-14.891
			c0-2.141-1.743-3.882-3.884-3.882H197.97z"/>
	</g>
	<g>
		<path fill="#D9F2FC" d="M347.167,287.077l-3.247-8.419l-152.175-39.094c-2.509-0.644-5.17,0.099-6.982,1.95l0,0
			c-3.071,3.138-3.612,7.965-1.31,11.704l31.538,51.251l-5.347,19.472c-10.695,38.95,13.816,79.783,53.645,86.499
			c3.599,0.607,7.182,0.924,10.693,0.924h-0.177c35.143,0,67.583-19.159,77.989-74.186
			C354.969,320.388,353.316,303.02,347.167,287.077z M258.396,336.486c-12.157,2.696-22.751-7.897-20.055-20.055
			c1.358-6.126,6.302-11.069,12.428-12.427c12.156-2.694,22.747,7.897,20.053,20.053
			C269.465,330.184,264.522,335.127,258.396,336.486z"/>
		<path fill="#288EEA" d="M273.983,413.154c-0.059,0-0.119,0-0.178,0l0,0c-3.51-0.01-7.147-0.33-10.815-0.949
			c-19.219-3.241-35.676-14.227-46.335-30.935c-10.933-17.135-14.118-38.203-8.736-57.802l5.141-18.722l-31.131-50.589
			c-2.737-4.447-2.099-10.161,1.554-13.895c2.253-2.302,5.595-3.234,8.708-2.431l153.067,39.322l3.578,9.28
			c6.312,16.361,7.943,34.024,4.718,51.077C344.342,386.221,316.086,413.079,273.983,413.154L273.983,413.154z M189.948,241.127
			c-1.451,0-2.87,0.579-3.907,1.638c-2.501,2.557-2.94,6.469-1.064,9.514l31.946,51.914l-5.553,20.222
			c-5.113,18.623-2.085,38.644,8.305,54.93c10.108,15.844,25.704,26.26,43.912,29.329c3.506,0.593,6.978,0.895,10.32,0.9
			c28.487-0.03,64.774-12.688,76.131-72.729c3.101-16.399,1.529-33.386-4.539-49.125v0.002l-2.917-7.56l-151.281-38.864
			C190.854,241.183,190.399,241.127,189.948,241.127z M254.621,338.691c-4.891,0-9.584-1.893-13.087-5.398
			c-4.492-4.492-6.34-10.94-4.94-17.251c1.521-6.854,6.932-12.265,13.788-13.786c6.317-1.4,12.757,0.451,17.249,4.94
			c4.491,4.492,6.338,10.939,4.94,17.249c-1.521,6.855-6.932,12.267-13.786,13.788C257.395,338.541,256,338.691,254.621,338.691z
			 M254.535,305.38c-1.119,0-2.25,0.122-3.377,0.372c-5.419,1.201-9.867,5.648-11.068,11.066
			c-1.134,5.109,0.351,10.322,3.975,13.943c3.618,3.622,8.832,5.113,13.943,3.975l0,0c5.419-1.201,9.866-5.649,11.066-11.068
			c1.133-5.108-0.355-10.32-3.975-13.942C262.277,306.906,258.487,305.38,254.535,305.38z"/>
	</g>
	<g>
		<path fill="#FFFFFF" d="M327.028,215.654l17.018,62.4l-28.541,20.032l-74.751-20.032h-38.868c0,0-1.787-14.012,3.517-37.412
			c5.332-23.4,26.605-34.916,26.605-34.916v-1.418h-26.18c-2.761,0-5.02-2.259-5.02-5.02v-12.452c0-1.31,1.072-2.382,2.382-2.382
			h13.785c2.382,0,4.538-0.964,6.098-2.524c1.964-1.964,2.984-4.871,2.324-7.93c-0.843-3.913-4.535-6.563-8.538-6.563l-33.07,0
			v-19.973c0-6.201,5.027-11.227,11.227-11.227h25.419c1.692,0,3.063-1.371,3.063-3.063v0c0-13.973,11.327-25.3,25.3-25.3h8.963
			c2.808-9.275,9.7-11.204,16.791-12.764v10.069c0,0,72.101-12.906,72.555,63.535l1.191,46.942H327.028z"/>
		<path fill="#288EEA" d="M315.85,300.031l-75.332-20.187H200.31l-0.199-1.563c-0.073-0.586-1.765-14.595,3.547-38.034
			c4.256-18.675,18.086-29.897,24.37-34.15H205.83c-3.756,0-6.812-3.055-6.812-6.81v-12.452c0-2.3,1.872-4.172,4.172-4.172h13.786
			c1.827,0,3.543-0.71,4.831-2c1.647-1.645,2.334-3.996,1.841-6.287c-0.643-2.986-3.498-5.151-6.787-5.151H182v-21.762
			c0-7.177,5.84-13.017,13.017-13.017h25.419c0.703,0,1.274-0.572,1.274-1.274c0-14.938,12.152-27.09,27.09-27.09h7.675
			c3.52-9.605,11.675-11.398,17.695-12.722l2.174-0.479v10.227c7.506-0.928,33.098-2.708,51.967,12.987
			c13.52,11.248,20.448,28.948,20.587,52.607l1.238,48.742h-20.764l16.731,61.353L315.85,300.031z M203.53,276.264l37.688,0.061
			l73.944,19.815l26.828-18.829l-17.305-63.447h21.781l-1.147-45.106c-0.133-22.577-6.62-39.352-19.278-49.894
			c-20.568-17.128-50.871-11.981-51.172-11.925l-2.103,0.374l-0.002-9.955c-6.231,1.54-11.094,3.781-13.288,11.031l-0.385,1.271
			H248.8c-12.963,0-23.51,10.547-23.51,23.51c0,2.676-2.178,4.854-4.854,4.854h-25.419c-5.204,0-9.437,4.234-9.437,9.437v18.182
			h31.281c4.966,0,9.292,3.354,10.287,7.976c0.752,3.487-0.299,7.067-2.809,9.574c-1.963,1.966-4.578,3.048-7.362,3.048h-13.786
			c-0.322,0-0.593,0.271-0.593,0.593v12.452c0,1.781,1.449,3.23,3.232,3.23h27.969v4.274l-0.937,0.509
			c-0.205,0.112-20.631,11.44-25.714,33.741C202.97,259.477,203.255,272.043,203.53,276.264z"/>
	</g>
	<g>
		<path fill-rule="evenodd" clip-rule="evenodd" fill="#D9F2FC" d="M286.88,217.669c0,0-2.685,20.584-9.546,29.235
			c-6.861,8.651-18.57,34.176-18.57,34.176l17.706,4.662c0,0,1.318-18.651,6.852-30.646
			C288.856,243.1,289.267,221.435,286.88,217.669z"/>
	</g>
	<g>
		<polygon fill="#D9F2FC" points="319.621,183.194 328.346,213.79 343.545,213.868 		"/>
	</g>
	<g>
		<path fill="#D9F2FC" d="M296.277,140.49c0,0,12.38,31.155-9.397,53.414c-16.076,16.432-52.094,23.695-60.409,58.278
			c-4.135,17.199-1.702,23.818-1.702,23.818h15.186c0,0,7.735-50.491,33.185-63.867c25.45-13.376,37.817-29.261,33.805-46.564
			C302.932,148.266,296.277,140.49,296.277,140.49z"/>
	</g>
	<g>
		<path fill-rule="evenodd" clip-rule="evenodd" fill="#D9F2FC" d="M255.408,162.294c0,0,11.411,18.531-36.202,40.216
			c2.98,0.093,17.408,0.54,17.408,0.54S267.703,178.536,255.408,162.294z"/>
	</g>
	<g>
		<path fill="#288EEA" d="M240.756,279.844c-0.068,0-0.136-0.003-0.205-0.012c-0.982-0.112-1.689-0.998-1.575-1.98
			c5.817-50.902,26.186-63.239,42.554-73.154c7.875-4.768,14.674-8.887,18.747-16.482c12.468-23.251-2.597-46.506-2.751-46.739
			c-0.545-0.825-0.32-1.935,0.505-2.48c0.823-0.545,1.933-0.322,2.48,0.505c0.675,1.021,16.389,25.289,2.919,50.406
			c-4.534,8.457-12.068,13.021-20.046,17.852c-16.515,10.004-35.235,21.341-40.853,70.497
			C242.429,279.171,241.655,279.844,240.756,279.844z"/>
	</g>
	<g>
		<path fill="#288EEA" d="M232.011,207.517c-0.566,0-1.122-0.267-1.47-0.767c-0.565-0.811-0.365-1.926,0.446-2.491
			c19.883-13.856,25.172-24.291,26.108-30.605c0.399-2.688,0.301-6.62-2.43-10.082c-0.121-0.152-0.198-0.26-0.234-0.318
			c-0.531-0.834-0.285-1.94,0.551-2.47c0.815-0.514,1.888-0.295,2.43,0.489c2.854,3.624,3.945,8.055,3.225,12.905
			c-1.512,10.199-10.799,21.308-27.604,33.017C232.721,207.412,232.364,207.517,232.011,207.517z"/>
	</g>
	<g>
		<line fill="#FFFFFF" x1="307.897" y1="199.998" x2="315.505" y2="298.086"/>
		<path fill="#288EEA" d="M315.504,299.876c-0.926,0-1.71-0.713-1.783-1.652l-7.609-98.089c-0.077-0.986,0.661-1.846,1.647-1.923
			c1.003-0.068,1.846,0.661,1.923,1.647l7.609,98.089c0.077,0.986-0.661,1.846-1.647,1.923
			C315.597,299.874,315.55,299.876,315.504,299.876z"/>
	</g>
	<g>
		<path fill="#288EEA" d="M277.288,289.628c-0.537,0-1.061-0.241-1.407-0.706c-0.614-0.823-5.677-8.736,5.076-32.869
			c9.07-20.358,6.565-33.55,5.742-37.885c-0.145-0.769-0.225-1.192-0.225-1.568c0-0.989,0.801-1.79,1.79-1.79
			c0.977,0,1.772,0.785,1.79,1.758c0.016,0.189,0.082,0.5,0.163,0.932c0.876,4.606,3.538,18.628-5.99,40.011
			c-9.879,22.175-5.49,29.243-5.445,29.312c0.533,0.809,0.343,1.918-0.451,2.473C278.012,289.519,277.649,289.628,277.288,289.628z
			 M290.054,217h0.017H290.054z"/>
	</g>
	<g>
		<line fill="#FFFFFF" x1="317.944" y1="184.01" x2="328.882" y2="222.454"/>
		<path fill="#288EEA" d="M328.881,224.243c-0.78,0-1.496-0.512-1.72-1.3L316.223,184.5c-0.271-0.951,0.281-1.94,1.232-2.211
			c0.942-0.276,1.94,0.28,2.211,1.232l10.939,38.443c0.271,0.951-0.281,1.94-1.232,2.211
			C329.21,224.222,329.044,224.243,328.881,224.243z"/>
	</g>
	<g>
		<path fill="#288EEA" d="M268.463,312.816c-0.14,0-0.28-0.016-0.421-0.051c-0.961-0.231-1.552-1.197-1.32-2.159
			c4.052-16.798-2.008-24.576-2.071-24.653c-0.619-0.769-0.498-1.897,0.273-2.517s1.895-0.496,2.517,0.273
			c0.295,0.369,7.221,9.245,2.76,27.737C270.003,312.265,269.271,312.816,268.463,312.816z"/>
	</g>
	<g>
		<path fill="#288EEA" d="M214.993,307.011c-0.587,0-1.162-0.288-1.505-0.818c-0.537-0.829-0.299-1.937,0.531-2.475
			c16.1-10.42,33.514-0.472,34.25-0.042c0.853,0.498,1.14,1.592,0.642,2.445c-0.496,0.853-1.591,1.145-2.447,0.647
			c-0.161-0.096-16.272-9.254-30.5-0.044C215.662,306.918,215.327,307.011,214.993,307.011z"/>
	</g>
	<g>
		<path fill="#FFFFFF" d="M206.822,424h-46.063c1.475-11,11.232-20.223,23.031-20.223S205.347,413,206.822,424z"/>
		<path fill="#288EEA" d="M208.873,425h-50.166l0.28-2.033c1.676-12.208,12.571-21.771,24.804-21.771
			c12.234,0,23.129,9.563,24.804,21.771L208.873,425z M162.921,421h41.738c-2.3-9-11.248-16.644-20.869-16.644
			C174.171,404.356,165.223,412,162.921,421z"/>
	</g>
	<g>
		<path fill="#FFFFFF" d="M416.714,424h-46.063c1.475-11,11.232-20.223,23.031-20.223C405.482,403.777,415.239,413,416.714,424z"/>
		<path fill="#288EEA" d="M418.767,425H368.6l0.28-2.033c1.675-12.208,12.57-21.771,24.804-21.771
			c12.232,0,23.127,9.563,24.804,21.771L418.767,425z M372.814,421h41.738c-2.302-9-11.25-16.644-20.869-16.644
			C384.063,404.356,375.115,412,372.814,421z"/>
	</g>
	<g>
		<path fill="#288EEA" d="M295.878,418.959c-2.279,0-3.762-0.121-3.985-0.14c-0.984-0.084-1.713-0.951-1.629-1.935
			c0.084-0.986,0.956-1.743,1.935-1.631c0.211,0.017,20.477,1.62,30.635-8.133c21.911-21.052,52.047,2.606,52.35,2.846
			c0.771,0.619,0.897,1.743,0.28,2.515c-0.615,0.773-1.739,0.902-2.515,0.281c-1.133-0.904-27.987-21.935-47.635-3.062
			C316.805,417.874,302.741,418.957,295.878,418.959z"/>
	</g>
	<g>
		<path fill="#FFFFFF" d="M195.668,171.903v-3.493h7.268l-4.048,4.69C197.778,174.386,195.668,173.601,195.668,171.903z"/>
		<path fill="#288EEA" d="M197.51,174.634c-0.32,0-0.645-0.058-0.96-0.175c-1.08-0.402-1.778-1.405-1.778-2.557v-4.387h10.117
			l-5.324,6.17C199.032,174.301,198.284,174.634,197.51,174.634z M196.562,169.305v2.597c0,0.605,0.467,0.827,0.61,0.879
			c0.149,0.054,0.647,0.191,1.037-0.266l2.772-3.211H196.562z"/>
	</g>
	<g>
		<path fill="#FFFFFF" d="M215.789,179.997v3.493h-7.268l4.048-4.69C213.678,177.514,215.789,178.298,215.789,179.997z"/>
		<path fill="#288EEA" d="M216.683,184.385h-10.117l5.324-6.17c0.753-0.87,1.937-1.178,3.015-0.774
			c1.08,0.402,1.778,1.405,1.778,2.557V184.385z M210.474,182.595h4.419v-2.597c0-0.605-0.467-0.827-0.61-0.879
			c-0.145-0.051-0.645-0.189-1.037,0.266L210.474,182.595z"/>
	</g>
	<g>
		<path fill="#288EEA" d="M269.944,385.323c-0.045,0-0.093-0.004-0.138-0.01c-58.156-8.958-48.529-83.047-48.424-83.795
			c0.07-0.491,0.537-0.816,1.01-0.762c0.489,0.068,0.83,0.519,0.762,1.01c-0.101,0.729-9.486,73.089,46.924,81.778
			c0.488,0.075,0.823,0.531,0.748,1.021C270.758,385.007,270.377,385.323,269.944,385.323z"/>
	</g>
	<g>
		<g>
			<path fill="#288EEA" d="M343.033,323c-0.019,0-0.038,0-0.058,0c-0.493,0-0.867-0.27-0.836-0.763
				c0.818-12.575-0.619-21.946-0.633-22.041c-0.075-0.488,0.259-0.899,0.748-0.974c0.484-0.072,0.946,0.284,1.021,0.772
				c0.014,0.094,1.481,9.579,0.65,22.346C343.894,322.813,343.501,323,343.033,323z"/>
		</g>
		<g>
			<path fill="#288EEA" d="M330.185,364.987c-0.175,0-0.35-0.051-0.505-0.156c-0.407-0.28-0.512-0.836-0.234-1.245
				c2.732-4.001,5.073-8.521,6.957-13.433c0.177-0.461,0.697-0.692,1.155-0.516c0.461,0.177,0.692,0.694,0.516,1.155
				c-1.933,5.043-4.338,9.687-7.149,13.804C330.752,364.851,330.47,364.987,330.185,364.987z M338.117,348.96
				c-0.098,0-0.196-0.016-0.292-0.049c-0.468-0.163-0.715-0.671-0.554-1.138c1.117-3.23,2.07-6.682,2.828-10.259
				c0.103-0.486,0.591-0.78,1.061-0.69c0.484,0.103,0.794,0.579,0.69,1.061c-0.774,3.65-1.746,7.174-2.888,10.472
				C338.836,348.728,338.488,348.96,338.117,348.96z"/>
		</g>
		<g>
			<path fill="#288EEA" d="M304.63,385.323c-0.357,0-0.694-0.215-0.832-0.566c-0.182-0.46,0.044-0.979,0.503-1.161
				c7.044-2.786,13.229-6.779,18.376-11.865c0.353-0.348,0.919-0.344,1.266,0.007c0.348,0.351,0.344,0.918-0.007,1.266
				c-5.321,5.258-11.706,9.381-18.978,12.257C304.852,385.304,304.74,385.323,304.63,385.323z"/>
		</g>
	</g>
	<g>
		<polygon fill-rule="evenodd" clip-rule="evenodd" fill="#D9F2FC" points="306.308,203.232 302.02,292.493 313.43,295.754 		"/>
	</g>
	<g>
		<g>
			<path fill="#288EEA" d="M311.162,338.756c-0.495,0-0.895-0.4-0.895-0.895c0-5.938-4.831-10.769-10.771-10.769
				c-5.938,0-10.769,4.831-10.769,10.769c0,0.495-0.4,0.895-0.895,0.895c-0.495,0-0.895-0.4-0.895-0.895
				c0-6.925,5.634-12.559,12.559-12.559s12.561,5.634,12.561,12.559C312.057,338.355,311.657,338.756,311.162,338.756z"/>
		</g>
		<g>
			<path fill="#288EEA" d="M334.646,338.756c-0.495,0-0.895-0.4-0.895-0.895c0-5.938-4.831-10.769-10.769-10.769
				c-5.938,0-10.769,4.831-10.769,10.769c0,0.495-0.4,0.895-0.895,0.895c-0.495,0-0.895-0.4-0.895-0.895
				c0-6.925,5.634-12.559,12.559-12.559c6.925,0,12.559,5.634,12.559,12.559C335.541,338.355,335.141,338.756,334.646,338.756z"/>
		</g>
		<g>
			<path fill="#288EEA" d="M322.826,327.092c-0.495,0-0.895-0.4-0.895-0.895c0-5.94-4.831-10.771-10.769-10.771
				c-5.94,0-10.771,4.831-10.771,10.771c0,0.495-0.4,0.895-0.895,0.895c-0.495,0-0.895-0.4-0.895-0.895
				c0-6.925,5.635-12.561,12.561-12.561c6.925,0,12.559,5.635,12.559,12.561C323.721,326.691,323.321,327.092,322.826,327.092z"/>
		</g>
	</g>
	<g>
		<g>
			<path fill="#288EEA" d="M261.637,364.115c-0.495,0-0.895-0.4-0.895-0.895c0-3.964-3.227-7.189-7.191-7.189
				c-3.964,0-7.189,3.225-7.189,7.189c0,0.495-0.4,0.895-0.895,0.895s-0.895-0.4-0.895-0.895c0-4.952,4.027-8.979,8.979-8.979
				c4.952,0,8.981,4.027,8.981,8.979C262.532,363.715,262.132,364.115,261.637,364.115z"/>
		</g>
		<g>
			<path fill="#288EEA" d="M277.914,364.115c-0.495,0-0.895-0.4-0.895-0.895c0-3.964-3.225-7.189-7.189-7.189
				c-3.964,0-7.189,3.225-7.189,7.189c0,0.495-0.4,0.895-0.895,0.895s-0.895-0.4-0.895-0.895c0-4.952,4.027-8.979,8.979-8.979
				s8.979,4.027,8.979,8.979C278.809,363.715,278.409,364.115,277.914,364.115z"/>
		</g>
		<g>
			<path fill="#288EEA" d="M269.722,356.031c-0.495,0-0.895-0.4-0.895-0.895c0-3.964-3.225-7.191-7.189-7.191
				c-3.964,0-7.191,3.227-7.191,7.191c0,0.495-0.4,0.895-0.895,0.895c-0.495,0-0.895-0.4-0.895-0.895
				c0-4.952,4.029-8.981,8.981-8.981s8.979,4.029,8.979,8.981C270.617,355.63,270.216,356.031,269.722,356.031z"/>
		</g>
	</g>
	<g>
		<g>
			<path fill="#288EEA" d="M234.827,295.043c-0.495,0-0.895-0.4-0.895-0.895c0-2.839-2.309-5.149-5.148-5.149
				c-2.839,0-5.148,2.311-5.148,5.149c0,0.495-0.4,0.895-0.895,0.895s-0.895-0.4-0.895-0.895c0-3.826,3.111-6.939,6.938-6.939
				c3.826,0,6.938,3.113,6.938,6.939C235.722,294.642,235.322,295.043,234.827,295.043z"/>
		</g>
		<g>
			<path fill="#288EEA" d="M246.995,295.043c-0.495,0-0.895-0.4-0.895-0.895c0-2.839-2.309-5.149-5.148-5.149
				s-5.148,2.311-5.148,5.149c0,0.495-0.4,0.895-0.895,0.895s-0.895-0.4-0.895-0.895c0-3.826,3.111-6.939,6.938-6.939
				s6.938,3.113,6.938,6.939C247.89,294.642,247.489,295.043,246.995,295.043z"/>
		</g>
		<g>
			<path fill="#288EEA" d="M240.871,288.998c-0.495,0-0.895-0.4-0.895-0.895c0-2.839-2.311-5.148-5.149-5.148
				s-5.148,2.309-5.148,5.148c0,0.495-0.4,0.895-0.895,0.895c-0.495,0-0.895-0.4-0.895-0.895c0-3.826,3.111-6.938,6.938-6.938
				c3.826,0,6.939,3.111,6.939,6.938C241.766,288.598,241.366,288.998,240.871,288.998z"/>
		</g>
	</g>
	<g>
		<path fill-rule="evenodd" clip-rule="evenodd" fill="#298EEA" d="M58.468,228.431H47.716l6.101-10.228h13.706
			c0.204,4.068,3.556,7.306,7.675,7.306c4.119,0,7.472-3.238,7.676-7.306H95.12l7.306,10.228H58.468z"/>
		
			<circle fill-rule="evenodd" clip-rule="evenodd" fill="#FFFFFF" stroke="#288EEA" stroke-width="2" stroke-linecap="round" stroke-miterlimit="10" cx="74.21" cy="197.734" r="18.131"/>
		
			<path fill-rule="evenodd" clip-rule="evenodd" fill="#FFFFFF" stroke="#288EEA" stroke-width="2" stroke-linecap="round" stroke-miterlimit="10" d="
			M56.327,197.162c0,0,9.71-0.195,18.672-2.728c8.962-2.533,12.42-7.501,12.42-7.501"/>
		
			<path fill-rule="evenodd" clip-rule="evenodd" fill="#FFFFFF" stroke="#288EEA" stroke-width="2" stroke-linecap="round" stroke-miterlimit="10" d="
			M92.341,197.734c0,0-9.808-0.226-12.771-4.977"/>
		<g>
			<polygon fill="#FFFFFF" stroke="#298EEA" stroke-width="2" stroke-miterlimit="10" points="27,148 69,148 69,171 63,171 
				63,176.876 56.844,171 27,171 			"/>
			
				<rect x="30.936" y="152.371" transform="matrix(-1 -4.488022e-11 4.488022e-11 -1 86.514 306.3843)" fill="#C9C9C9" width="24.642" height="1.643"/>
			
				<rect x="30.936" y="157.505" transform="matrix(-1 -4.488022e-11 4.488022e-11 -1 86.514 316.6519)" fill="#C9C9C9" width="24.642" height="1.643"/>
			
				<rect x="30.936" y="163.46" transform="matrix(-1 -4.488022e-11 4.488022e-11 -1 86.514 328.5623)" fill="#C9C9C9" width="24.642" height="1.643"/>
		</g>
	</g>
</g>
</svg>
