<svg width="88" height="88" viewBox="0 0 88 88" fill="none" xmlns="http://www.w3.org/2000/svg">
<path d="M36.6413 31.4745C35.6293 31.8923 35.9281 33.3988 37.023 33.3988H77.5399C78.2521 33.3988 78.736 32.6754 78.4642 32.0171L73.886 20.9295C72.9443 18.6488 70.3319 17.5633 68.0511 18.505L36.6413 31.4745Z" fill="#FB8C00"/>
<path d="M27.4704 29.7222C26.7187 30.5056 27.5785 31.7571 28.5793 31.3365L59.8606 18.192C60.5238 17.9133 60.6846 17.0465 60.1655 16.5485L52.948 9.62308C51.1675 7.91466 48.3392 7.97309 46.6308 9.75357L27.4704 29.7222Z" fill="#FB8C00"/>
<path fill-rule="evenodd" clip-rule="evenodd" d="M61.8306 28.2693C61.5167 27.509 61.8785 26.6382 62.6388 26.3243L68.145 24.0507C68.9053 23.7368 69.7761 24.0986 70.09 24.8589C70.4039 25.6191 70.0421 26.4899 69.2818 26.8038L63.7756 29.0774C63.0153 29.3913 62.1445 29.0295 61.8306 28.2693Z" fill="#E5F2FF"/>
<path fill-rule="evenodd" clip-rule="evenodd" d="M45.0897 20.6951C44.4903 20.1319 44.461 19.1894 45.0242 18.5899L49.1035 14.2486C49.6667 13.6492 50.6092 13.6198 51.2086 14.1831C51.8081 14.7463 51.8374 15.6888 51.2742 16.2882L47.1949 20.6296C46.6317 21.229 45.6892 21.2583 45.0897 20.6951Z" fill="#E5F2FF"/>
<rect x="3.78906" y="36.4314" width="80.4219" height="43.1896" rx="3" fill="#007AFF"/>
<path fill-rule="evenodd" clip-rule="evenodd" d="M43.2554 70.6852C50.2468 70.6852 55.9144 65.0175 55.9144 58.0261C55.9144 51.0348 50.2468 45.3671 43.2554 45.3671C36.264 45.3671 30.5964 51.0348 30.5964 58.0261C30.5964 65.0175 36.264 70.6852 43.2554 70.6852ZM43.2554 73.6637C51.8918 73.6637 58.893 66.6626 58.893 58.0261C58.893 49.3897 51.8918 42.3885 43.2554 42.3885C34.619 42.3885 27.6178 49.3897 27.6178 58.0261C27.6178 66.6626 34.619 73.6637 43.2554 73.6637Z" fill="#E5F2FF"/>
<path fill-rule="evenodd" clip-rule="evenodd" d="M47.9054 50.6317C48.6017 51.0695 48.8112 51.9889 48.3734 52.6852L40.6593 64.953C40.2215 65.6493 39.3021 65.8588 38.6058 65.421C37.9095 64.9831 37.7 64.0637 38.1378 63.3674L45.8519 51.0997C46.2897 50.4034 47.2091 50.1939 47.9054 50.6317Z" fill="#E5F2FF"/>
<path fill-rule="evenodd" clip-rule="evenodd" d="M9.74622 72.1745C9.74622 71.352 10.413 70.6852 11.2355 70.6852H17.1927C18.0152 70.6852 18.682 71.352 18.682 72.1745C18.682 72.997 18.0152 73.6638 17.1927 73.6638H11.2355C10.413 73.6638 9.74622 72.997 9.74622 72.1745Z" fill="#E5F2FF"/>
<path fill-rule="evenodd" clip-rule="evenodd" d="M69.318 43.8778C69.318 43.0553 69.9848 42.3885 70.8073 42.3885H76.7645C77.587 42.3885 78.2538 43.0553 78.2538 43.8778C78.2538 44.7004 77.587 45.3671 76.7645 45.3671H70.8073C69.9848 45.3671 69.318 44.7004 69.318 43.8778Z" fill="#E5F2FF"/>
<circle cx="37.6111" cy="54.282" r="2.81005" fill="#E5F2FF"/>
<circle cx="48.8403" cy="61.3503" r="2.81005" fill="#E5F2FF"/>
</svg>
