<svg width="88" height="88" viewBox="0 0 88 88" fill="none" xmlns="http://www.w3.org/2000/svg">
<path fill-rule="evenodd" clip-rule="evenodd" d="M64.6545 26.4459C65.0275 26.9876 64.8908 27.7291 64.3492 28.1021L46.7379 40.2307C46.3336 40.5091 45.7999 40.5109 45.3938 40.2353L36.7677 34.3819L14.3454 50.0289C13.8061 50.4053 13.0638 50.2731 12.6874 49.7338C12.311 49.1945 12.4431 48.4521 12.9825 48.0758L36.0768 31.9598C36.4815 31.6774 37.0185 31.6739 37.4269 31.951L46.0574 37.8074L62.9983 26.1406C63.54 25.7676 64.2815 25.9043 64.6545 26.4459Z" fill="#FB8C00"/>
<path d="M76.4341 38.6498C76.4341 37.7497 75.4669 37.1654 74.6268 37.4884C72.8437 38.174 70.9069 38.5498 68.8824 38.5498C67.2758 38.5498 65.7245 38.3132 64.2615 37.8729C63.4422 37.6263 62.5632 38.2072 62.5632 39.0628V77.0804C62.5632 77.7381 63.0964 78.2712 63.7541 78.2712H75.2432C75.9009 78.2712 76.4341 77.7381 76.4341 77.0804V38.6498Z" fill="#007AFF"/>
<path d="M30.4738 42.3213C30.1537 42.5439 29.9629 42.9091 29.9629 43.299V77.0804C29.9629 77.7381 30.496 78.2712 31.1537 78.2712H42.6429C43.3006 78.2712 43.8337 77.7381 43.8337 77.0804V43.3841C43.8337 42.9894 43.6382 42.6203 43.3115 42.3987L37.4348 38.4109C37.027 38.1342 36.4909 38.1372 36.0863 38.4186L30.4738 42.3213Z" fill="#007AFF"/>
<path d="M14.1742 53.6555C13.8541 53.8781 13.6633 54.2433 13.6633 54.6332V77.0804C13.6633 77.7381 14.1964 78.2712 14.8541 78.2712H26.3433C27.001 78.2712 27.5341 77.7381 27.5341 77.0804V46.644C27.5341 45.6823 26.453 45.1173 25.6634 45.6663L14.1742 53.6555Z" fill="#007AFF"/>
<path d="M46.7779 43.7709C46.4559 43.9932 46.2636 44.3596 46.2636 44.7509V77.0804C46.2636 77.7381 46.7968 78.2712 47.4545 78.2712H58.9436C59.6013 78.2712 60.1345 77.7381 60.1345 77.0804V36.8194C60.1345 35.8595 59.057 35.294 58.2671 35.8394L46.7779 43.7709Z" fill="#007AFF"/>
<circle cx="68.8831" cy="22.5391" r="12.8101" fill="#FB8C00"/>
<path fill-rule="evenodd" clip-rule="evenodd" d="M72.6305 22.5385C72.6305 23.2448 72.0579 23.8174 71.3516 23.8174C70.6939 23.8174 70.1608 24.3506 70.1608 25.0082C70.1608 25.6659 70.6939 26.1991 71.3516 26.1991C73.3733 26.1991 75.0122 24.5602 75.0122 22.5385C75.0122 20.5168 73.3733 18.8779 71.3516 18.8779C69.3299 18.8779 67.691 20.5168 67.691 22.5385C67.691 22.5505 67.6912 22.5625 67.6916 22.5745C67.6729 23.2645 67.1077 23.8181 66.4131 23.8181C65.7068 23.8181 65.1342 23.2455 65.1342 22.5392C65.1342 21.8329 65.7068 21.2603 66.4131 21.2603C67.0708 21.2603 67.604 20.7272 67.604 20.0695C67.604 19.4118 67.0708 18.8786 66.4131 18.8786C64.3915 18.8786 62.7526 20.5175 62.7526 22.5392C62.7526 24.5609 64.3915 26.1998 66.4131 26.1998C68.4348 26.1998 70.0737 24.5609 70.0737 22.5392C70.0737 22.5272 70.0735 22.5152 70.0732 22.5032C70.0919 21.8132 70.6571 21.2596 71.3516 21.2596C72.0579 21.2596 72.6305 21.8322 72.6305 22.5385Z" fill="#E5F2FF"/>
</svg>
