<svg width="88" height="88" viewBox="0 0 88 88" fill="none" xmlns="http://www.w3.org/2000/svg">
<path d="M12 20C9.79086 20 8 21.8316 8 24.0909V28.1818H80V24.0909C80 21.8316 78.2091 20 76 20H12Z" fill="#007AFF"/>
<path d="M80 33.6364H8V60.9091C8 63.1684 9.79086 65 12 65H76C78.2091 65 80 63.1684 80 60.9091V33.6364Z" fill="#007AFF"/>
<path fill-rule="evenodd" clip-rule="evenodd" d="M14 32C14 31.4477 14.6057 31 15.3529 31H35.6471C36.3943 31 37 31.4477 37 32C37 32.5523 36.3943 33 35.6471 33H15.3529C14.6057 33 14 32.5523 14 32Z" fill="#E5F2FF"/>
<path d="M41.4675 67C40.7537 67 40.175 67.6125 40.175 68.368V75.2082H34.2951C33.137 75.2082 32.5633 76.6962 33.3909 77.5538L43.0958 87.6095C43.5982 88.1302 44.4017 88.1302 44.9042 87.6095L54.6091 77.5538C55.4367 76.6962 54.863 75.2082 53.7049 75.2082H47.9302V68.368C47.9302 67.6125 47.3515 67 46.6377 67H41.4675Z" fill="#FB8C00"/>
</svg>
