<svg width="35" height="35" viewBox="0 0 35 35" fill="none" xmlns="http://www.w3.org/2000/svg">
<g clip-path="url(#clip0)">
<path d="M25.6029 13.9561H2.75664C1.52436 13.9561 0.525391 14.955 0.525391 16.1873V29.5223C0.525391 30.7546 1.52436 31.7536 2.75664 31.7536H25.6029C26.8352 31.7536 27.8341 30.7546 27.8341 29.5223V16.1873C27.8341 14.955 26.8352 13.9561 25.6029 13.9561Z" stroke="#007AFF" stroke-width="1.2" stroke-linecap="round" stroke-linejoin="round"/>
<path d="M3.7627 14.0001V10.9113C3.76946 10.6091 3.83616 10.3113 3.95891 10.035C4.08166 9.75881 4.25803 9.5097 4.4778 9.30214C4.69756 9.09459 4.95634 8.93273 5.23913 8.82595C5.52192 8.71917 5.8231 8.66959 6.1252 8.68009H28.7352C29.0351 8.67311 29.3335 8.7253 29.6132 8.83367C29.893 8.94205 30.1486 9.10447 30.3656 9.31168C30.5826 9.51889 30.7566 9.76681 30.8777 10.0413C30.9988 10.3158 31.0646 10.6114 31.0714 10.9113V24.2551C31.0646 24.555 30.9988 24.8507 30.8777 25.1251C30.7566 25.3996 30.5826 25.6475 30.3656 25.8547C30.1486 26.062 29.893 26.2244 29.6132 26.3328C29.3335 26.4411 29.0351 26.4933 28.7352 26.4863H27.8602" stroke="#007AFF" stroke-width="1.2" stroke-linecap="round" stroke-linejoin="round"/>
<path d="M7.1748 8.51372V5.47747C7.18162 5.17754 7.24747 4.88189 7.36858 4.60742C7.48969 4.33294 7.66369 4.08502 7.88065 3.87781C8.09761 3.67061 8.35326 3.50818 8.63301 3.39981C8.91277 3.29144 9.21113 3.23925 9.51105 3.24622H32.1561C32.7603 3.23449 33.3445 3.46274 33.7808 3.88096C34.2171 4.29918 34.4698 4.87328 34.4836 5.47747V18.8212C34.4767 19.12 34.4111 19.4145 34.2905 19.6879C34.1698 19.9613 33.9964 20.2083 33.7803 20.4147C33.5641 20.6211 33.3094 20.7829 33.0307 20.8908C32.7521 20.9987 32.4548 21.0507 32.1561 21.0437H31.0711" stroke="#007AFF" stroke-width="1.2" stroke-linecap="round" stroke-linejoin="round"/>
<path d="M14.1746 18.2261L15.7496 21.2711L19.2671 21.7611L16.7208 24.1323L17.3246 27.4836L14.1746 25.8998L11.0333 27.4836L11.6371 24.1323L9.09082 21.7611L12.6083 21.2711L14.1746 18.2261Z" stroke="#00BFA5" stroke-width="1.2" stroke-linecap="round" stroke-linejoin="round"/>
</g>
<defs>
<clipPath id="clip0">
<rect width="35" height="35" fill="white"/>
</clipPath>
</defs>
</svg>
