<svg width="35" height="35" viewBox="0 0 35 35" fill="none" xmlns="http://www.w3.org/2000/svg">
<g clip-path="url(#clip0)">
<path d="M32.3317 10.8062H2.67793C1.49397 10.8062 0.53418 11.7659 0.53418 12.9499V19.6349C0.53418 20.8189 1.49397 21.7787 2.67793 21.7787H32.3317C33.5156 21.7787 34.4754 20.8189 34.4754 19.6349V12.9499C34.4754 11.7659 33.5156 10.8062 32.3317 10.8062Z" stroke="#007AFF" stroke-width="1.22" stroke-linejoin="round"/>
<path d="M6.00293 16.2925H21.8842" stroke="#00BFA5" stroke-width="1.22" stroke-linecap="round" stroke-linejoin="round"/>
<path d="M28.1753 17.6577C28.963 17.6577 29.6015 17.0466 29.6015 16.2927C29.6015 15.5389 28.963 14.9277 28.1753 14.9277C27.3876 14.9277 26.749 15.5389 26.749 16.2927C26.749 17.0466 27.3876 17.6577 28.1753 17.6577Z" stroke="#00BFA5" stroke-width="1.22" stroke-linecap="round" stroke-linejoin="round"/>
<path d="M21.166 4.53225H24.9198C25.9964 4.52898 27.0332 4.93931 27.816 5.6785L33.8448 11.436" stroke="#007AFF" stroke-width="1.22" stroke-linecap="round" stroke-linejoin="round"/>
<path d="M1.15527 11.436L7.19277 5.67853C7.97092 4.93757 9.00579 4.52675 10.0803 4.53228H21.1665" stroke="#007AFF" stroke-width="1.22" stroke-linecap="round" stroke-linejoin="round"/>
<path d="M17.5 21.7876V25.1826" stroke="#007AFF" stroke-width="1.22" stroke-linejoin="round"/>
<path d="M26.4511 28.5688H20.9561" stroke="#007AFF" stroke-width="1.22" stroke-linecap="round" stroke-linejoin="round"/>
<path d="M13.913 28.5688H8.41797" stroke="#007AFF" stroke-width="1.22" stroke-linecap="round" stroke-linejoin="round"/>
<path d="M19.4428 27.0114H19.3115V26.4776C19.307 26.3029 19.2681 26.1309 19.197 25.9712C19.1259 25.8116 19.0241 25.6675 18.8974 25.5473C18.7706 25.427 18.6214 25.3329 18.4582 25.2703C18.2951 25.2078 18.1212 25.1779 17.9465 25.1826H17.0715C16.8969 25.1779 16.723 25.2078 16.5598 25.2703C16.3967 25.3329 16.2475 25.427 16.1207 25.5473C15.9939 25.6675 15.8921 25.8116 15.821 25.9712C15.75 26.1309 15.7111 26.3029 15.7065 26.4776V27.0114H15.5753C15.1822 27.0043 14.8024 27.1531 14.5187 27.4253C14.2351 27.6975 14.0707 28.0709 14.0615 28.4639V29.0151C14.0707 29.4081 14.2351 29.7815 14.5187 30.0537C14.8024 30.3258 15.1822 30.4746 15.5753 30.4676H19.4603C19.6571 30.4746 19.8533 30.4425 20.0376 30.373C20.2219 30.3036 20.3905 30.1983 20.5338 30.0632C20.6771 29.928 20.7921 29.7658 20.8721 29.5859C20.9522 29.406 20.9958 29.212 21.0003 29.0151V28.4639C20.9958 28.2654 20.9517 28.0699 20.8706 27.8888C20.7894 27.7077 20.6728 27.5447 20.5277 27.4093C20.3825 27.274 20.2118 27.169 20.0254 27.1007C19.8391 27.0323 19.641 27.002 19.4428 27.0114V27.0114Z" stroke="#00BFA5" stroke-width="1.22" stroke-linecap="round" stroke-linejoin="round"/>
</g>
<defs>
<clipPath id="clip0">
<rect width="35" height="35" fill="white"/>
</clipPath>
</defs>
</svg>
