<svg width="35" height="35" viewBox="0 0 35 35" fill="none" xmlns="http://www.w3.org/2000/svg">
<g clip-path="url(#clip0)">
<path d="M34.3438 15.9775V25.1738C34.3415 25.494 34.276 25.8106 34.1511 26.1054C34.0262 26.4002 33.8443 26.6675 33.6158 26.8918C33.3874 27.1162 33.1169 27.2933 32.8199 27.4129C32.5229 27.5325 32.2052 27.5923 31.885 27.5888H2.89625C2.57607 27.5923 2.25837 27.5325 1.96135 27.4129C1.66433 27.2933 1.39384 27.1162 1.16541 26.8918C0.936975 26.6675 0.755085 26.4002 0.630173 26.1054C0.505261 25.8106 0.439785 25.494 0.4375 25.1738V15.9775" stroke="#007AFF" stroke-width="1.25" stroke-linejoin="round"/>
<path d="M34.3438 13.0024V22.1987C34.3415 22.5189 34.276 22.8355 34.1511 23.1303C34.0262 23.4251 33.8443 23.6924 33.6158 23.9167C33.3874 24.1411 33.1169 24.3182 32.8199 24.4378C32.5229 24.5574 32.2052 24.6172 31.885 24.6137H2.89625C2.57607 24.6172 2.25837 24.5574 1.96135 24.4378C1.66433 24.3182 1.39384 24.1411 1.16541 23.9167C0.936975 23.6924 0.755085 23.4251 0.630173 23.1303C0.505261 22.8355 0.439785 22.5189 0.4375 22.1987V13.0024" stroke="#007AFF" stroke-width="1.25" stroke-linejoin="round"/>
<path d="M32.2525 7.41113H2.5375C1.3777 7.41113 0.4375 8.35133 0.4375 9.51113V19.3461C0.4375 20.5059 1.3777 21.4461 2.5375 21.4461H32.2525C33.4123 21.4461 34.3525 20.5059 34.3525 19.3461V9.51113C34.3525 8.35133 33.4123 7.41113 32.2525 7.41113Z" stroke="#007AFF" stroke-width="1.25" stroke-linejoin="round"/>
<path d="M12.0928 21.4375H22.689" stroke="#00BFA5" stroke-width="1.25" stroke-linecap="round" stroke-linejoin="round"/>
<path d="M12.0928 24.6138H22.689" stroke="#00BFA5" stroke-width="1.25" stroke-linecap="round" stroke-linejoin="round"/>
<path d="M22.689 7.41113H12.0928V27.5886H22.689V7.41113Z" stroke="#00BFA5" stroke-width="1.25" stroke-linecap="round" stroke-linejoin="round"/>
<path d="M17.3864 17.22C18.9956 17.22 20.3002 15.9585 20.3002 14.4025C20.3002 12.8464 18.9956 11.585 17.3864 11.585C15.7772 11.585 14.4727 12.8464 14.4727 14.4025C14.4727 15.9585 15.7772 17.22 17.3864 17.22Z" stroke="#00BFA5" stroke-width="1.25" stroke-linecap="round" stroke-linejoin="round"/>
<path d="M4.14742 12.0314C4.87713 12.0314 5.46867 11.4516 5.46867 10.7364C5.46867 10.0212 4.87713 9.44141 4.14742 9.44141C3.41772 9.44141 2.82617 10.0212 2.82617 10.7364C2.82617 11.4516 3.41772 12.0314 4.14742 12.0314Z" stroke="#00BFA5" stroke-width="1.25" stroke-linecap="round" stroke-linejoin="round"/>
<path d="M30.8086 19.4777C31.5383 19.4777 32.1298 18.8979 32.1298 18.1827C32.1298 17.4675 31.5383 16.8877 30.8086 16.8877C30.0788 16.8877 29.4873 17.4675 29.4873 18.1827C29.4873 18.8979 30.0788 19.4777 30.8086 19.4777Z" stroke="#00BFA5" stroke-width="1.25" stroke-linecap="round" stroke-linejoin="round"/>
</g>
<defs>
<clipPath id="clip0">
<rect width="35" height="35" fill="white"/>
</clipPath>
</defs>
</svg>