<svg width="35" height="35" viewBox="0 0 35 35" fill="none" xmlns="http://www.w3.org/2000/svg">
<g clip-path="url(#clip0)">
<path d="M8.12891 17.929V14.7002C8.16579 12.2463 9.1719 9.90668 10.9276 8.19194C12.6833 6.47721 15.0461 5.52663 17.5002 5.54771V5.54771C19.9542 5.52663 22.317 6.47721 24.0727 8.19194C25.8284 9.90668 26.8345 12.2463 26.8714 14.7002V17.929" stroke="#00BFA5" stroke-width="1.23" stroke-linecap="round" stroke-linejoin="round"/>
<path d="M4.2959 14.6999C4.33974 11.2389 5.75439 7.93655 8.22961 5.5171C10.7048 3.09765 14.0385 1.75861 17.4996 1.79364C20.9582 1.7701 24.2862 3.11263 26.7603 5.52938C29.2344 7.94614 30.6546 11.2418 30.7121 14.6999" stroke="#007AFF" stroke-width="1.23" stroke-linecap="round" stroke-linejoin="round"/>
<path d="M34.4136 22.6015C34.4492 22.3934 34.4668 22.1826 34.4661 21.9715V19.399C34.441 18.2554 33.9689 17.1672 33.1512 16.3674C32.3334 15.5676 31.235 15.1199 30.0911 15.1202H28.3411C28.1515 15.1179 27.9633 15.153 27.7873 15.2234C27.6112 15.2938 27.4508 15.3982 27.3151 15.5307C27.1794 15.6631 27.0711 15.821 26.9965 15.9953C26.9218 16.1696 26.8822 16.3569 26.8799 16.5465V24.824C26.8845 25.2054 27.0398 25.5694 27.312 25.8367C27.5841 26.1039 27.951 26.2526 28.3324 26.2502H30.0824C31.1197 26.2542 32.1247 25.8895 32.918 25.2212C33.7114 24.5529 34.2414 23.6244 34.4136 22.6015" stroke="#007AFF" stroke-width="1.23" stroke-linecap="round" stroke-linejoin="round"/>
<path d="M0.585719 22.6015C0.550156 22.3934 0.532591 22.1826 0.533219 21.9715V19.399C0.558384 18.2554 1.03041 17.1672 1.84817 16.3674C2.66593 15.5676 3.76438 15.1199 4.90822 15.1202H6.65822C6.84782 15.1179 7.03602 15.153 7.21207 15.2234C7.38812 15.2938 7.54857 15.3982 7.68426 15.5307C7.81995 15.6631 7.92823 15.821 8.0029 15.9953C8.07757 16.1696 8.11718 16.3569 8.11947 16.5465V24.824C8.11485 25.2054 7.95951 25.5694 7.68736 25.8367C7.41521 26.1039 7.04838 26.2526 6.66697 26.2502H4.91697C3.87965 26.2542 2.87465 25.8895 2.08131 25.2212C1.28797 24.5529 0.757908 23.6244 0.585719 22.6015" stroke="#007AFF" stroke-width="1.23" stroke-linecap="round" stroke-linejoin="round"/>
<path d="M30.4592 22.1465V28.6915L27.5629 31.544H21.9717" stroke="#00BFA5" stroke-width="1.23" stroke-linecap="round" stroke-linejoin="round"/>
<path d="M20.3172 29.8901H14.7084C13.7951 29.8901 13.0547 30.6305 13.0547 31.5439V31.5526C13.0547 32.466 13.7951 33.2064 14.7084 33.2064H20.3172C21.2305 33.2064 21.9709 32.466 21.9709 31.5526V31.5439C21.9709 30.6305 21.2305 29.8901 20.3172 29.8901Z" stroke="#00BFA5" stroke-width="1.23" stroke-linecap="round" stroke-linejoin="round"/>
</g>
<defs>
<clipPath id="clip0">
<rect width="35" height="35" fill="white"/>
</clipPath>
</defs>
</svg>
