<svg width="24" height="23" viewBox="0 0 24 23" fill="none" xmlns="http://www.w3.org/2000/svg">
<path d="M12.8844 0.515865L15.8785 6.56974C15.95 6.70919 16.0532 6.82984 16.1797 6.92196C16.3063 7.01408 16.4526 7.07509 16.607 7.10008L23.2639 8.10072C23.4247 8.14457 23.572 8.2281 23.6924 8.34368C23.8127 8.45925 23.9023 8.6032 23.9529 8.76239C24.0035 8.92158 24.0135 9.09094 23.9821 9.25502C23.9507 9.4191 23.8787 9.57268 23.7729 9.70175L18.9524 14.4148C18.8449 14.526 18.7646 14.6607 18.7179 14.8083C18.6711 14.9558 18.6592 15.1123 18.6829 15.2653L19.8207 21.9096C19.8364 22.0839 19.8061 22.2594 19.733 22.4183C19.6599 22.5773 19.5465 22.7143 19.4041 22.8156C19.2616 22.9168 19.0952 22.9789 18.9214 22.9955C18.7475 23.0121 18.5724 22.9827 18.4135 22.9102L12.4253 19.7782C12.286 19.7078 12.1322 19.6712 11.9762 19.6712C11.8202 19.6712 11.6664 19.7078 11.527 19.7782L5.53885 22.9102C5.38034 22.9803 5.20635 23.0078 5.03401 22.9901C4.86167 22.9723 4.6969 22.9099 4.55592 22.8089C4.41494 22.708 4.30261 22.572 4.22996 22.4143C4.15731 22.2566 4.12686 22.0826 4.1416 21.9096L5.27936 15.2653C5.30696 15.1114 5.29586 14.9531 5.24707 14.8046C5.19828 14.656 5.11333 14.5221 4.99991 14.4148L0.259255 9.70175C0.141354 9.5716 0.059734 9.41261 0.0226153 9.24078C-0.0145033 9.06895 -0.00581121 8.89034 0.0478171 8.72295C0.101445 8.55556 0.198116 8.40529 0.328095 8.28727C0.458074 8.16925 0.616773 8.08765 0.788212 8.05069L7.44509 7.05005C7.59948 7.02506 7.74586 6.96405 7.87241 6.87193C7.99896 6.77981 8.10215 6.65916 8.17366 6.51971L11.1678 0.465833C11.2604 0.318984 11.3895 0.198844 11.5425 0.117239C11.6955 0.0356331 11.8671 -0.00462603 12.0403 0.000422615C12.2135 0.00547126 12.3824 0.055655 12.5304 0.146033C12.6784 0.236411 12.8004 0.363869 12.8844 0.515865Z" fill="#FBE20E"/>
</svg>
