<svg width="24" height="24" viewBox="0 0 24 24" fill="none" xmlns="http://www.w3.org/2000/svg">
<g clip-path="url(#clip0)">
<path d="M9.74984 23.2499C10.9925 23.2499 11.9998 22.2426 11.9998 21C11.9998 19.7573 10.9925 18.75 9.74984 18.75C8.50722 18.75 7.49988 19.7573 7.49988 21C7.49988 22.2426 8.50722 23.2499 9.74984 23.2499Z" fill="white"/>
<path d="M18.7497 23.2499C19.9923 23.2499 20.9997 22.2426 20.9997 21C20.9997 19.7573 19.9923 18.75 18.7497 18.75C17.5071 18.75 16.4998 19.7573 16.4998 21C16.4998 22.2426 17.5071 23.2499 18.7497 23.2499Z" fill="white"/>
<path d="M23.8256 4.01995C23.6831 3.84895 23.4716 3.74995 23.2496 3.74995H5.62191L4.96942 1.30649C4.88242 0.977996 4.58543 0.75 4.24493 0.75H0.749988C0.335995 0.75 0 1.08599 0 1.49999C0 1.91398 0.335995 2.24998 0.749988 2.24998H3.66894L7.52538 16.6933C7.61238 17.0217 7.90938 17.2497 8.24987 17.2497H20.2497C20.6637 17.2497 20.9997 16.9137 20.9997 16.4998C20.9997 16.0858 20.6637 15.7498 20.2497 15.7498H8.82586L8.40437 14.1718L21.7872 13.4983C22.1337 13.4803 22.4247 13.2268 22.4876 12.8848L23.9876 4.63494C24.0281 4.41444 23.9681 4.18945 23.8256 4.01995ZM17.2497 9.74986H15.7498V11.2498C15.7498 11.6638 15.4138 11.9998 14.9998 11.9998C14.5858 11.9998 14.2498 11.6638 14.2498 11.2498V9.74986H12.7498C12.3358 9.74986 11.9998 9.41387 11.9998 8.99987C11.9998 8.58588 12.3358 8.24988 12.7498 8.24988H14.2498V6.74991C14.2498 6.33591 14.5858 5.99992 14.9998 5.99992C15.4138 5.99992 15.7498 6.33591 15.7498 6.74991V8.24988H17.2497C17.6637 8.24988 17.9997 8.58588 17.9997 8.99987C17.9997 9.41387 17.6637 9.74986 17.2497 9.74986Z" fill="white"/>
</g>
<defs>
<clipPath id="clip0">
<rect width="24" height="24" fill="white"/>
</clipPath>
</defs>
</svg>
