<svg width="24" height="24" viewBox="0 0 24 24" fill="none" xmlns="http://www.w3.org/2000/svg">
<g clip-path="url(#clip0)">
<path d="M9.74984 23.2499C10.9925 23.2499 11.9998 22.2426 11.9998 21C11.9998 19.7573 10.9925 18.75 9.74984 18.75C8.50722 18.75 7.49988 19.7573 7.49988 21C7.49988 22.2426 8.50722 23.2499 9.74984 23.2499Z" fill="white"/>
<path d="M18.7497 23.2499C19.9923 23.2499 20.9997 22.2426 20.9997 21C20.9997 19.7573 19.9923 18.75 18.7497 18.75C17.5071 18.75 16.4998 19.7573 16.4998 21C16.4998 22.2426 17.5071 23.2499 18.7497 23.2499Z" fill="white"/>
<path fill-rule="evenodd" clip-rule="evenodd" d="M23.8256 4.01995C23.6831 3.84895 23.4716 3.74995 23.2496 3.74995H5.62191L4.96942 1.30649C4.88242 0.977996 4.58543 0.75 4.24493 0.75H0.749988C0.335995 0.75 0 1.08599 0 1.49999C0 1.91398 0.335995 2.24998 0.749988 2.24998H3.66894L7.52538 16.6933C7.61238 17.0217 7.90938 17.2497 8.24987 17.2497H20.2497C20.6637 17.2497 20.9997 16.9137 20.9997 16.4998C20.9997 16.0858 20.6637 15.7498 20.2497 15.7498H8.82586L8.40437 14.1718L21.7872 13.4983C22.1337 13.4803 22.4247 13.2268 22.4876 12.8848L23.9876 4.63494C24.0281 4.41444 23.9681 4.18945 23.8256 4.01995ZM18.1536 6.14425L18.8555 6.84617C18.9517 6.94253 19.0001 7.05955 19 7.19714C19 7.3348 18.9517 7.4518 18.8555 7.54815L15.1187 11.2849L14.4168 11.9868C14.3204 12.0831 14.2034 12.1313 14.0658 12.1313C13.9282 12.1313 13.8111 12.0832 13.7148 11.9868L13.0129 11.2849L11.1445 9.41658C11.0482 9.32026 11 9.20313 11 9.06558C11 8.92792 11.0482 8.8109 11.1445 8.71456L11.8464 8.01262C11.9428 7.91627 12.0598 7.86815 12.1975 7.86815C12.335 7.86815 12.452 7.91627 12.5484 8.01262L14.0658 9.53522L17.4517 6.14425C17.5479 6.04793 17.665 5.99976 17.8027 5.99976C17.9403 5.99976 18.0573 6.04793 18.1536 6.14425Z" fill="white"/>
</g>
<defs>
<clipPath id="clip0">
<rect width="24" height="24" fill="white"/>
</clipPath>
</defs>
</svg>
