<svg width="40" height="40" viewBox="0 0 40 40" fill="none" xmlns="http://www.w3.org/2000/svg">
<path d="M13.0313 17.2065C15.1335 17.2065 16.8376 15.5024 16.8376 13.4002C16.8376 11.2981 15.1335 9.59399 13.0313 9.59399C10.9292 9.59399 9.2251 11.2981 9.2251 13.4002C9.2251 15.5024 10.9292 17.2065 13.0313 17.2065Z" stroke="#007AFF" stroke-linecap="round" stroke-linejoin="round"/>
<path d="M29.4688 31.9626C31.0566 31.9626 32.3438 30.6755 32.3438 29.0876C32.3438 27.4998 31.0566 26.2126 29.4688 26.2126C27.8809 26.2126 26.5938 27.4998 26.5938 29.0876C26.5938 30.6755 27.8809 31.9626 29.4688 31.9626Z" stroke="#00BFA5" stroke-linecap="round" stroke-linejoin="round"/>
<path d="M19.6938 8.53765V8.5689C19.5625 8.38765 19.425 8.2189 19.2875 8.05015L20.9375 3.8314L20.1688 3.4064L17.7875 2.0689L17.025 1.6439L14.3 5.2564C14.075 5.22515 13.8562 5.20015 13.6312 5.1814H13.675L11.875 1.02515L11.0125 1.25015L8.375 2.0064L7.53125 2.25015L8.15625 6.7314H8.19375C8.00625 6.87515 7.81875 7.0189 7.64375 7.1689L3.4375 5.50015L3.00625 6.25015L1.66875 8.6564L1.25 9.42515L4.8625 12.1501L4.89375 12.0939C4.85625 12.3439 4.825 12.5939 4.8125 12.8439V12.7626L0.625 14.5814L0.86875 15.4251L1.61875 18.0626L1.875 18.9064L6.3625 18.2814V18.1939C6.5125 18.4064 6.66875 18.6147 6.83125 18.8189L5.14375 22.9939L5.90625 23.4251L8.3 24.7564L9.06875 25.1876L11.7938 21.5689H11.75C11.975 21.6022 12.2 21.6272 12.425 21.6439H12.3812L14.2 25.7876L15.0437 25.5501L17.6813 24.8064L18.525 24.5626L17.9 20.0814H17.8625C18.0812 19.9189 18.3 19.7439 18.4875 19.5626L22.625 21.1814L23.05 20.4189L24.375 18.0314L24.8 17.2626L21.1875 14.5376C21.1875 14.3626 21.225 14.1814 21.2438 14.0001V14.0314L25.3938 12.2126L25.15 11.3689L24.4187 8.75015L24.1812 7.9064L19.6938 8.53765Z" stroke="#007AFF" stroke-linecap="round" stroke-linejoin="round"/>
<path d="M34.8062 25.2002L34.4812 24.7877L35.7999 21.419L35.1749 21.0815L33.2625 20.0127L32.6375 19.669L30.4625 22.5565C30.2875 22.5565 30.1124 22.5127 29.9312 22.5002H30L28.55 19.1877L27.8687 19.3752L25.7625 20.0002L25.0875 20.194L25.5874 23.7752L25.625 23.7502C25.4687 23.8627 25.3187 23.9815 25.1812 24.1002L21.8125 22.769L21.4687 23.394L20.4062 25.3065L20.0625 25.9315L22.95 28.1065V28.069C22.95 28.2627 22.8937 28.4627 22.8812 28.694V28.6315L19.575 30.0002L19.7687 30.6752L20.3625 32.7815L20.5562 33.4565L24.1375 32.9565V32.8877C24.2562 33.0502 24.3812 33.2127 24.5125 33.3627L23.2 36.7252L23.825 37.069L25.7375 38.1315L26.3625 38.4752L28.4937 35.6252H28.4562L28.9937 35.6877L30.4437 39.0002L31.1187 38.8127L33.2249 38.1877L33.9 38.0002L33.3999 34.4127C33.5749 34.2836 33.7437 34.1461 33.9062 34.0002L37.2125 35.294L37.5562 34.669L38.6187 32.7565L38.9624 32.1315L36.0124 30.0002C36.0363 29.8597 36.0509 29.7177 36.0562 29.5752V29.5752L39.3749 28.1252L39.1749 27.5002L38.5499 25.394L38.3562 24.719L34.8062 25.2002Z" stroke="#00BFA5" stroke-linecap="round" stroke-linejoin="round"/>
</svg>
