<svg width="40" height="40" viewBox="0 0 40 40" fill="none" xmlns="http://www.w3.org/2000/svg">
<path d="M9.29975 20.5125V16.6688C9.28301 13.8074 10.3986 11.0555 12.4032 9.01344C14.4077 6.97143 17.1385 5.80505 19.9997 5.7688V5.7688C22.8615 5.80342 25.5933 6.96927 27.5982 9.01165C29.6031 11.054 30.7181 13.8069 30.6997 16.6688V20.5125" stroke="#00BFA5" stroke-linecap="round" stroke-linejoin="round"/>
<path d="M4.91873 16.6688C4.8854 12.6323 6.45446 8.74738 9.28172 5.86623C12.109 2.98507 15.9636 1.34294 20 1.30005C24.037 1.34294 27.8922 2.98487 30.7204 5.86585C33.5487 8.74682 35.1191 12.6317 35.0875 16.6688" stroke="#007AFF" stroke-linecap="round" stroke-linejoin="round"/>
<path d="M39.3185 26.0751C39.3563 25.8269 39.3752 25.5762 39.3748 25.3251V22.2563C39.3831 20.919 38.862 19.6328 37.9252 18.6784C36.9884 17.724 35.712 17.1791 34.3748 17.1626H32.3685C31.9226 17.1692 31.4972 17.3514 31.1848 17.6697C30.8723 17.9879 30.6981 18.4166 30.6998 18.8626V28.7501C30.6964 29.1966 30.8702 29.6262 31.1829 29.9448C31.4957 30.2635 31.922 30.4452 32.3685 30.4501H34.3748C35.587 30.4368 36.7539 29.9872 37.6618 29.1838C38.5697 28.3803 39.1578 27.2768 39.3185 26.0751" stroke="#007AFF" stroke-linecap="round" stroke-linejoin="round"/>
<path d="M0.681105 26.0751C0.643265 25.8269 0.624461 25.5762 0.624855 25.3251V22.2563C0.616498 20.919 1.13762 19.6328 2.07444 18.6784C3.01125 17.724 4.28763 17.1791 5.62485 17.1626H7.6311C8.07705 17.1692 8.50241 17.3514 8.81484 17.6697C9.12727 17.9879 9.30155 18.4166 9.29985 18.8626V28.7501C9.30319 29.1966 9.12944 29.6262 8.81666 29.9448C8.50388 30.2635 8.07757 30.4452 7.6311 30.4501H5.62485C4.41258 30.4368 3.24568 29.9872 2.33779 29.1838C1.4299 28.3803 0.841776 27.2768 0.681105 26.0751" stroke="#007AFF" stroke-linecap="round" stroke-linejoin="round"/>
<path d="M34.7937 25.5312V33.325L31.4875 36.725H25.1062" stroke="#00BFA5" stroke-linecap="round" stroke-linejoin="round"/>
<path d="M23.1498 34.75H16.8811C15.8006 34.75 14.9248 35.6258 14.9248 36.7062V36.7375C14.9248 37.8179 15.8006 38.6937 16.8811 38.6937H23.1498C24.2302 38.6937 25.1061 37.8179 25.1061 36.7375V36.7062C25.1061 35.6258 24.2302 34.75 23.1498 34.75Z" stroke="#00BFA5" stroke-linecap="round" stroke-linejoin="round"/>
<path d="M26.7061 19.6624C27.0391 20.5127 27.2087 21.4181 27.2061 22.3312C27.2049 24.0265 26.6226 25.6702 25.5563 26.9881C24.4899 28.3061 23.0041 29.2187 21.3464 29.5739C19.6887 29.929 17.9593 29.7052 16.4467 28.9397C14.934 28.1742 13.7295 26.9134 13.0338 25.3673C12.3382 23.8213 12.1936 22.0836 12.624 20.4438C13.0544 18.8041 14.034 17.3614 15.3992 16.3564C16.7645 15.3513 18.433 14.8447 20.1266 14.9208C21.8202 14.997 23.4366 15.6514 24.7061 16.7749" stroke="#00BFA5" stroke-linecap="round" stroke-linejoin="round"/>
<path d="M24.8311 14.5437L24.8061 16.975L22.2249 17.0062" stroke="#00BFA5" stroke-linecap="round" stroke-linejoin="round"/>
<path d="M19.7937 17.6936V22.6624L21.6562 24.5249" stroke="#00BFA5" stroke-linecap="round" stroke-linejoin="round"/>
</svg>
