<svg width="64" height="64" viewBox="0 0 64 64" fill="none" xmlns="http://www.w3.org/2000/svg">
<g clip-path="url(#clip0)">
<path d="M41.1701 15.4302C41.1701 15.4302 43.3901 25.4302 39.9301 25.8502C36.4701 26.2702 34.4301 28.1302 34.1201 31.1202C33.8101 34.1102 35.8501 36.4002 34.1201 40.3602C32.3901 44.3202 30.8201 35.3602 27.5201 33.4702C24.2201 31.5802 18.8801 31.7902 19.0001 29.6502C19.1201 27.5102 13.2601 28.8102 13.4601 27.9902" stroke="#00BFA5" stroke-width="2" stroke-linecap="round" stroke-linejoin="round"/>
<path d="M50.5801 35.72C50.5801 35.72 48.7301 32.31 46.0601 33.44C43.3901 34.57 43.3901 38.5 41.0601 39.6C38.7301 40.7 35.3701 45.1 37.5701 46C39.7701 46.9 35.2301 47.8 35.3801 50.6" stroke="#00BFA5" stroke-width="2" stroke-linecap="round" stroke-linejoin="round"/>
<path d="M24.0001 49.1502C24.0001 49.1502 27.5701 48.0902 25.3701 45.1502C23.1701 42.2102 21.8601 43.0002 21.2301 40.3602C20.6001 37.7202 15.8601 41.9202 15.8601 41.9202" stroke="#00BFA5" stroke-width="2" stroke-linecap="round" stroke-linejoin="round"/>
<path d="M32.0001 50.9401C42.4603 50.9401 50.9401 42.4603 50.9401 32.0001C50.9401 21.5398 42.4603 13.0601 32.0001 13.0601C21.5398 13.0601 13.0601 21.5398 13.0601 32.0001C13.0601 42.4603 21.5398 50.9401 32.0001 50.9401Z" stroke="#007AFF" stroke-width="2" stroke-linecap="round" stroke-linejoin="round"/>
<path d="M61 20.9401C63.7695 28.1904 63.7186 36.2158 60.8574 43.4304C57.9962 50.645 52.5327 56.5239 45.5468 59.9052C38.5609 63.2866 30.5607 63.9245 23.1272 61.6929C15.6937 59.4612 9.36775 54.5224 5.39941 47.8524C1.43107 41.1824 0.109075 33.2664 1.69467 25.6688C3.28027 18.0713 7.6581 11.3449 13.963 6.81886C20.268 2.29284 28.0413 0.296509 35.7469 1.22436C43.4525 2.15221 50.5297 5.93675 55.58 11.8301" stroke="#007AFF" stroke-width="2" stroke-linecap="round" stroke-linejoin="round"/>
<path d="M55.59 0.990234V11.8802H44.71" stroke="#007AFF" stroke-width="2" stroke-linecap="round" stroke-linejoin="round"/>
</g>
<defs>
<clipPath id="clip0">
<rect width="64" height="64" fill="white"/>
</clipPath>
</defs>
</svg>
