<svg width="40" height="40" viewBox="0 0 40 40" fill="none" xmlns="http://www.w3.org/2000/svg">
<path d="M22.5686 28.2812V35.9625" stroke="#00BFA5" stroke-linecap="round" stroke-linejoin="round"/>
<path d="M17.4312 36.0562V28.2312" stroke="#00BFA5" stroke-linecap="round" stroke-linejoin="round"/>
<path d="M27.125 26.5188V39.4813L20.0187 34.1313L12.875 39.4813V26.5375" stroke="#007AFF" stroke-linejoin="round"/>
<path d="M19.9999 28.4688C27.7181 28.4688 33.9749 22.212 33.9749 14.4938C33.9749 6.77562 27.7181 0.518799 19.9999 0.518799C12.2817 0.518799 6.0249 6.77562 6.0249 14.4938C6.0249 22.212 12.2817 28.4688 19.9999 28.4688Z" stroke="#007AFF" stroke-linejoin="round"/>
<path d="M20 25.0251C25.8162 25.0251 30.5312 20.3101 30.5312 14.4939C30.5312 8.67765 25.8162 3.96265 20 3.96265C14.1838 3.96265 9.46875 8.67765 9.46875 14.4939C9.46875 20.3101 14.1838 25.0251 20 25.0251Z" stroke="#00BFA5" stroke-linecap="round" stroke-linejoin="round"/>
<path d="M20.625 8.75004L22.05 11.6375C22.1 11.7407 22.1746 11.83 22.2672 11.8976C22.3599 11.9651 22.4677 12.0089 22.5812 12.025L25.7687 12.4875C25.9116 12.4966 26.0484 12.5484 26.1613 12.6363C26.2743 12.7242 26.3581 12.8441 26.402 12.9804C26.4458 13.1166 26.4476 13.2629 26.4071 13.4002C26.3666 13.5375 26.2857 13.6594 26.175 13.75L23.8687 15.9938C23.787 16.074 23.7257 16.1726 23.6898 16.2813C23.654 16.39 23.6446 16.5057 23.6625 16.6188L24.2125 19.7938C24.233 19.9239 24.217 20.0572 24.1663 20.1788C24.1157 20.3004 24.0323 20.4056 23.9254 20.4826C23.8186 20.5597 23.6925 20.6056 23.5611 20.6153C23.4297 20.625 23.2982 20.5981 23.1812 20.5375L20.3312 19.0438C20.2295 18.9885 20.1157 18.9596 20 18.9596C19.8842 18.9596 19.7704 18.9885 19.6687 19.0438L16.8187 20.5375C16.7017 20.5981 16.5702 20.625 16.4388 20.6153C16.3074 20.6056 16.1813 20.5597 16.0745 20.4826C15.9676 20.4056 15.8842 20.3004 15.8336 20.1788C15.7829 20.0572 15.7669 19.9239 15.7875 19.7938L16.3375 16.6188C16.3553 16.5057 16.3459 16.39 16.3101 16.2813C16.2742 16.1726 16.2129 16.074 16.1312 15.9938L13.825 13.75C13.719 13.6592 13.642 13.5392 13.6036 13.405C13.5652 13.2707 13.5671 13.1282 13.6091 12.995C13.651 12.8619 13.7312 12.744 13.8396 12.656C13.9479 12.568 14.0798 12.5138 14.2187 12.5L17.4062 12.0375C17.5197 12.0214 17.6275 11.9776 17.7202 11.9101C17.8128 11.8425 17.8874 11.7532 17.9375 11.65L19.375 8.75004C19.4363 8.63791 19.5267 8.54436 19.6367 8.47919C19.7467 8.41403 19.8721 8.37964 20 8.37964C20.1278 8.37964 20.2532 8.41403 20.3632 8.47919C20.4732 8.54436 20.5636 8.63791 20.625 8.75004Z" stroke="#007AFF" stroke-linejoin="round"/>
</svg>
