<svg width="64" height="64" viewBox="0 0 64 64" fill="none" xmlns="http://www.w3.org/2000/svg">
<g clip-path="url(#clip0)">
<path d="M32.26 50.8702V40.5002L39.11 33.6502V25.9702" stroke="#00BFA5" stroke-width="2" stroke-linecap="round" stroke-linejoin="round"/>
<path d="M32.2599 51.2702V40.5002L25.4199 33.6502V25.9702" stroke="#00BFA5" stroke-width="2" stroke-linecap="round" stroke-linejoin="round"/>
<path d="M35.35 59.9102C35.374 60.3301 35.3119 60.7504 35.1677 61.1455C35.0235 61.5406 34.8001 61.9021 34.5113 62.2078C34.2225 62.5135 33.8743 62.7571 33.488 62.9235C33.1018 63.09 32.6856 63.1759 32.265 63.1759C31.8445 63.1759 31.4283 63.09 31.0421 62.9235C30.6558 62.7571 30.3076 62.5135 30.0188 62.2078C29.73 61.9021 29.5066 61.5406 29.3624 61.1455C29.2182 60.7504 29.1561 60.3301 29.18 59.9102" stroke="#00BFA5" stroke-width="2" stroke-linecap="round" stroke-linejoin="round"/>
<path d="M47.5 29.64C47.4954 27.1008 46.8564 24.6029 45.641 22.3734C44.4256 20.1439 42.6725 18.2534 40.5408 16.8737C38.4091 15.494 35.9664 14.6688 33.4347 14.4731C30.903 14.2774 28.3625 14.7173 26.0441 15.753C23.7256 16.7887 21.7027 18.3873 20.1591 20.4035C18.6156 22.4197 17.6002 24.7897 17.2054 27.298C16.8106 29.8064 17.0487 32.3736 17.8983 34.7666C18.7478 37.1595 20.1818 39.3022 22.07 41C23.0078 41.8388 23.7593 42.8649 24.276 44.012C24.7928 45.1591 25.0632 46.4019 25.07 47.66V49.66C25.0687 49.8736 25.1096 50.0854 25.1904 50.2831C25.2713 50.4808 25.3904 50.6605 25.5409 50.812C25.6915 50.9635 25.8705 51.0837 26.0677 51.1658C26.2649 51.2478 26.4764 51.29 26.69 51.29H37.87C38.3023 51.29 38.7169 51.1183 39.0226 50.8126C39.3283 50.5069 39.5 50.0923 39.5 49.66V47.66C39.5054 46.4002 39.7752 45.1555 40.2919 44.0066C40.8087 42.8576 41.561 41.8299 42.5 40.99C44.082 39.554 45.3446 37.8015 46.2059 35.8463C47.0673 33.891 47.5082 31.7766 47.5 29.64V29.64Z" stroke="#007AFF" stroke-width="2" stroke-linejoin="round"/>
<path d="M37.2399 51.3198H27.2899C26.108 51.3198 25.1499 52.2779 25.1499 53.4598V53.4698C25.1499 54.6517 26.108 55.6098 27.2899 55.6098H37.2399C38.4218 55.6098 39.3799 54.6517 39.3799 53.4698V53.4598C39.3799 52.2779 38.4218 51.3198 37.2399 51.3198Z" stroke="#007AFF" stroke-width="2" stroke-linejoin="round"/>
<path d="M37.2399 55.6201H27.2899C26.108 55.6201 25.1499 56.5782 25.1499 57.7601V57.7701C25.1499 58.952 26.108 59.9101 27.2899 59.9101H37.2399C38.4218 59.9101 39.3799 58.952 39.3799 57.7701V57.7601C39.3799 56.5782 38.4218 55.6201 37.2399 55.6201Z" stroke="#007AFF" stroke-width="2" stroke-linejoin="round"/>
<path d="M32.26 30.7202C33.7733 30.7202 35 29.489 35 27.9702C35 26.4514 33.7733 25.2202 32.26 25.2202C30.7468 25.2202 29.52 26.4514 29.52 27.9702C29.52 29.489 30.7468 30.7202 32.26 30.7202Z" stroke="#007AFF" stroke-width="2" stroke-linecap="round" stroke-linejoin="round"/>
<path d="M31.8298 7.7V1" stroke="#00BFA5" stroke-width="2" stroke-linecap="round" stroke-linejoin="round"/>
<path d="M54.1199 27.79H60.7999" stroke="#00BFA5" stroke-width="2" stroke-linecap="round" stroke-linejoin="round"/>
<path d="M3.19995 27.79H9.87995" stroke="#00BFA5" stroke-width="2" stroke-linecap="round" stroke-linejoin="round"/>
<path d="M46.8298 13.8802L51.5298 9.18018" stroke="#00BFA5" stroke-width="2" stroke-linecap="round" stroke-linejoin="round"/>
<path d="M16.8199 13.8802L12.1299 9.18018" stroke="#00BFA5" stroke-width="2" stroke-linecap="round" stroke-linejoin="round"/>
<path d="M16.8199 42.8999L12.1299 47.6099" stroke="#00BFA5" stroke-width="2" stroke-linecap="round" stroke-linejoin="round"/>
<path d="M46.8298 42.8999L51.5298 47.6099" stroke="#00BFA5" stroke-width="2" stroke-linecap="round" stroke-linejoin="round"/>
</g>
<defs>
<clipPath id="clip0">
<rect width="64" height="64" fill="white"/>
</clipPath>
</defs>
</svg>
