<svg width="64" height="64" viewBox="0 0 64 64" fill="none" xmlns="http://www.w3.org/2000/svg">
<path d="M61.2572 29.7051V45.8879C61.2572 47.0155 60.8093 48.0969 60.012 48.8942C59.2147 49.6914 58.1333 50.1394 57.0058 50.1394H6.99435C5.8668 50.1394 4.78543 49.6914 3.98813 48.8942C3.19084 48.0969 2.74292 47.0155 2.74292 45.8879V29.7051" stroke="#007AFF" stroke-width="2" stroke-linejoin="round"/>
<path d="M61.2572 24.4663V40.6583C61.2548 41.7843 60.8058 42.8633 60.0088 43.6586C59.2117 44.4539 58.1317 44.9006 57.0058 44.9006H6.99435C5.86838 44.9006 4.7884 44.4539 3.99136 43.6586C3.19433 42.8633 2.74534 41.7843 2.74292 40.6583V24.4663" stroke="#007AFF" stroke-width="2" stroke-linejoin="round"/>
<path d="M57.6001 14.6284H6.40006C4.38028 14.6284 2.74292 16.2658 2.74292 18.2856V35.657C2.74292 37.6768 4.38028 39.3141 6.40006 39.3141H57.6001C59.6198 39.3141 61.2572 37.6768 61.2572 35.657V18.2856C61.2572 16.2658 59.6198 14.6284 57.6001 14.6284Z" stroke="#007AFF" stroke-width="2" stroke-linejoin="round"/>
<path d="M22.8572 39.314H41.1429" stroke="#00BFA5" stroke-width="2" stroke-linecap="round" stroke-linejoin="round"/>
<path d="M22.8572 44.9004H41.1429" stroke="#00BFA5" stroke-width="2" stroke-linecap="round" stroke-linejoin="round"/>
<path d="M41.1429 14.6284H22.8572V50.1393H41.1429V14.6284Z" stroke="#00BFA5" stroke-width="2" stroke-linecap="round" stroke-linejoin="round"/>
<path d="M32 31.8811C34.7772 31.8811 37.0286 29.6625 37.0286 26.9256C37.0286 24.1888 34.7772 21.9702 32 21.9702C29.2228 21.9702 26.9714 24.1888 26.9714 26.9256C26.9714 29.6625 29.2228 31.8811 32 31.8811Z" stroke="#00BFA5" stroke-width="2" stroke-linecap="round" stroke-linejoin="round"/>
<path d="M9.15217 22.7746C10.4145 22.7746 11.4379 21.7512 11.4379 20.4888C11.4379 19.2265 10.4145 18.2031 9.15217 18.2031C7.8898 18.2031 6.86646 19.2265 6.86646 20.4888C6.86646 21.7512 7.8898 22.7746 9.15217 22.7746Z" stroke="#00BFA5" stroke-width="2" stroke-linecap="round" stroke-linejoin="round"/>
<path d="M55.159 35.8766C56.4214 35.8766 57.4447 34.8533 57.4447 33.5909C57.4447 32.3285 56.4214 31.3052 55.159 31.3052C53.8966 31.3052 52.8733 32.3285 52.8733 33.5909C52.8733 34.8533 53.8966 35.8766 55.159 35.8766Z" stroke="#00BFA5" stroke-width="2" stroke-linecap="round" stroke-linejoin="round"/>
</svg>
