<svg width="65" height="64" viewBox="0 0 65 64" fill="none" xmlns="http://www.w3.org/2000/svg">
<g clip-path="url(#clip0)">
<path d="M15.7188 32.81V26.81C15.724 22.279 17.5243 17.9346 20.7254 14.7278C23.9265 11.5211 28.2677 9.71323 32.7987 9.70001V9.70001C37.3246 9.7132 41.6613 11.5169 44.8616 14.7172C48.0618 17.9175 49.8656 22.2542 49.8788 26.78V32.78" stroke="#00BFA5" stroke-width="2" stroke-linecap="round" stroke-linejoin="round"/>
<path d="M8.71875 26.78C8.71875 20.3936 11.2557 14.2688 15.7716 9.75288C20.2875 5.237 26.4123 2.70001 32.7987 2.70001C39.1852 2.70001 45.31 5.237 49.8259 9.75288C54.3418 14.2688 56.8788 20.3936 56.8788 26.78" stroke="#007AFF" stroke-width="2" stroke-linecap="round" stroke-linejoin="round"/>
<path d="M9.84863 27.58H13.0486C13.7541 27.58 14.4307 27.8603 14.9295 28.3591C15.4284 28.858 15.7086 29.5345 15.7086 30.24V45.69C15.7086 46.3955 15.4284 47.0721 14.9295 47.5709C14.4307 48.0698 13.7541 48.35 13.0486 48.35H9.84863C7.7269 48.35 5.69207 47.5072 4.19178 46.0069C2.69149 44.5066 1.84863 42.4717 1.84863 40.35V35.56C1.85393 33.4418 2.69912 31.4121 4.19884 29.9161C5.69856 28.4201 7.73036 27.58 9.84863 27.58V27.58Z" stroke="#007AFF" stroke-width="2" stroke-linecap="round" stroke-linejoin="round"/>
<path d="M63.6387 41.52C63.6988 41.1329 63.7289 40.7417 63.7287 40.35V35.54C63.7287 33.4182 62.8858 31.3834 61.3855 29.8831C59.8852 28.3828 57.8504 27.54 55.7287 27.54H52.5287C51.8223 27.5426 51.1457 27.8251 50.6471 28.3255C50.1486 28.826 49.8686 29.5036 49.8687 30.21V45.67C49.8713 46.3746 50.1524 47.0497 50.6507 47.548C51.1489 48.0462 51.824 48.3273 52.5287 48.33H55.7287C57.6423 48.3273 59.4916 47.6388 60.941 46.3894C62.3905 45.1399 63.344 43.4123 63.6287 41.52" stroke="#007AFF" stroke-width="2" stroke-linecap="round" stroke-linejoin="round"/>
<path d="M56.4187 40.67V52.88L51.1387 58.21H40.9487" stroke="#00BFA5" stroke-width="2" stroke-linecap="round" stroke-linejoin="round"/>
<path d="M38.939 55.12H26.699C25.5889 55.12 24.689 56.0199 24.689 57.13V59.29C24.689 60.4001 25.5889 61.3 26.699 61.3H38.939C40.0491 61.3 40.949 60.4001 40.949 59.29V57.13C40.949 56.0199 40.0491 55.12 38.939 55.12Z" stroke="#00BFA5" stroke-width="2" stroke-linecap="round" stroke-linejoin="round"/>
</g>
<defs>
<clipPath id="clip0">
<rect width="64" height="64" fill="white" transform="translate(0.798828)"/>
</clipPath>
</defs>
</svg>
