<svg width="65" height="64" viewBox="0 0 65 64" fill="none" xmlns="http://www.w3.org/2000/svg">
<g clip-path="url(#clip0)">
<path d="M34.3989 21.28L35.2089 21.07C35.7277 20.9337 36.2627 20.8698 36.7989 20.88C38.0058 20.8706 39.1921 21.1922 40.2289 21.81C41.093 22.3047 41.8381 22.9828 42.4117 23.7966C42.9853 24.6103 43.3735 25.54 43.5489 26.52C43.6038 26.8074 43.6038 27.1026 43.5489 27.39C43.3248 28.7823 42.6587 30.0656 41.6489 31.05L41.5189 31.17L41.6389 30.76C41.7832 30.1844 41.857 29.5934 41.8589 29C41.9028 27.9752 41.729 26.9528 41.3489 26C41.2386 25.7345 41.0977 25.4828 40.9289 25.25C40.5189 24.71 40.1289 24.16 39.6689 23.66C38.5643 22.4646 37.0941 21.6698 35.4889 21.4C35.1389 21.35 34.7989 21.33 34.3989 21.28ZM40.0689 28C39.53 26.9449 38.7551 26.0282 37.8045 25.321C36.8539 24.6139 35.7531 24.1354 34.5875 23.9226C33.422 23.7098 32.2231 23.7685 31.0839 24.0941C29.9448 24.4197 28.896 25.0034 28.0189 25.8C28.1089 25.64 28.1889 25.48 28.2889 25.32C28.7649 24.4885 29.4138 23.769 30.1919 23.21C30.97 22.651 31.859 22.2657 32.7989 22.08C33.7446 21.8842 34.7205 21.8862 35.6653 22.0859C36.6101 22.2855 37.5034 22.6785 38.2889 23.24C38.4534 23.3612 38.5955 23.5101 38.7089 23.68C39.3988 24.5689 39.8404 25.6248 39.9889 26.74C39.9889 27.11 39.9889 27.49 40.0589 27.87C40.0789 27.89 40.0689 27.92 40.0689 28ZM36.5789 26.63C35.466 26.2573 34.2814 26.1495 33.1195 26.3153C31.9576 26.4811 30.8504 26.9158 29.8861 27.5849C28.9218 28.254 28.1271 29.1389 27.5651 30.1693C27.0031 31.1997 26.6894 32.347 26.6489 33.52C26.6489 33.46 26.6489 33.41 26.5989 33.36L26.5489 33.21C26.3549 32.5376 26.2639 31.8397 26.2789 31.14C26.3212 29.4117 27.0181 27.764 28.2289 26.53C29.1111 25.6045 30.2383 24.949 31.4789 24.64C31.679 24.5847 31.8829 24.5446 32.0889 24.52C32.2748 24.4949 32.4631 24.4949 32.6489 24.52C33.9443 24.6952 35.1569 25.2562 36.1289 26.13C36.2889 26.27 36.4289 26.43 36.5789 26.58V26.63ZM42.2289 22.77C43.1146 23.2123 43.8945 23.8402 44.5156 24.611C45.1367 25.3817 45.5845 26.2773 45.8284 27.2367C46.0722 28.1961 46.1065 29.1968 45.9289 30.1706C45.7512 31.1444 45.3659 32.0685 44.7989 32.88C44.6382 33.0801 44.4456 33.2524 44.2289 33.39C43.3187 34.0548 42.2496 34.4687 41.1289 34.59C40.7959 34.6082 40.462 34.6082 40.1289 34.59C41.1857 34.0702 42.1049 33.3085 42.8121 32.3668C43.5193 31.425 43.9944 30.3298 44.1989 29.17C44.4051 28.0157 44.334 26.829 43.9914 25.7076C43.6489 24.5861 43.0448 23.5622 42.2289 22.72V22.77ZM33.2289 28.03C32.1783 28.5526 31.264 29.3131 30.559 30.2512C29.854 31.1893 29.3777 32.2789 29.168 33.4335C28.9582 34.588 29.0209 35.7756 29.3509 36.9017C29.6809 38.0278 30.2692 39.0613 31.0689 39.92C30.7689 39.74 30.4689 39.57 30.1789 39.37C28.7896 38.4137 27.8142 36.9666 27.4489 35.32C27.2134 34.3606 27.1908 33.3612 27.3825 32.3921C27.5743 31.4229 27.9758 30.5075 28.5589 29.71L28.6989 29.56C29.6857 28.6932 30.914 28.1489 32.2189 28C32.5689 28 32.9289 27.95 33.2789 27.93L33.2289 28.03ZM38.7989 41.25L38.2189 41.41C37.5995 41.5725 36.9583 41.6367 36.3189 41.6C35.2075 41.558 34.1232 41.2443 33.161 40.6865C32.1987 40.1287 31.3878 39.3436 30.7989 38.4C30.2842 37.6402 29.9428 36.7765 29.7989 35.87C29.7693 35.651 29.7693 35.429 29.7989 35.21C29.9636 34.0528 30.4369 32.9613 31.1689 32.05C31.3689 31.8 31.5989 31.58 31.8189 31.34H31.8689C31.485 32.457 31.3685 33.6485 31.5288 34.8187C31.6891 35.9889 32.1217 37.1052 32.7918 38.0778C33.4619 39.0504 34.3509 39.8522 35.3873 40.4188C36.4236 40.9854 37.5785 41.3009 38.7589 41.34L38.7989 41.25ZM33.3089 34.61C33.8327 35.6609 34.5943 36.5751 35.5332 37.2801C36.4722 37.985 37.5626 38.4613 38.7179 38.671C39.8731 38.8807 41.0614 38.818 42.1882 38.488C43.315 38.158 44.3493 37.5698 45.2089 36.77L44.9489 37.24C44.4913 38.0249 43.8784 38.7082 43.1476 39.2481C42.4169 39.788 41.5837 40.1732 40.6989 40.38C39.7392 40.6272 38.7369 40.6613 37.7626 40.4799C36.7883 40.2985 35.8654 39.9061 35.0589 39.33C34.981 39.2687 34.9074 39.2018 34.8389 39.13C34.0743 38.2135 33.5701 37.1083 33.3789 35.93C33.3175 35.513 33.2907 35.0915 33.2989 34.67C33.2989 34.67 33.3389 34.64 33.3389 34.61H33.3089ZM46.7989 29C46.8789 29.36 46.9789 29.72 47.0389 30.09C47.1438 30.6775 47.164 31.2769 47.0989 31.87C47.0136 32.8208 46.7236 33.7418 46.2489 34.57C45.5048 35.921 44.3235 36.9789 42.8989 37.57C42.414 37.7814 41.9027 37.9261 41.3789 38C41.1864 38.0254 40.9914 38.0254 40.7989 38C39.7868 37.8554 38.8217 37.4789 37.9789 36.9C37.5795 36.6383 37.2076 36.3367 36.8689 36V35.94C37.9858 36.316 39.1753 36.4246 40.3418 36.2571C41.5083 36.0896 42.6192 35.6507 43.5851 34.9756C44.551 34.3006 45.345 33.4082 45.9032 32.3703C46.4614 31.3325 46.7682 30.1781 46.7989 29ZM33.9189 34.31C34.3585 34.6935 34.8379 35.0287 35.3489 35.31C35.3804 35.3314 35.4076 35.3585 35.4289 35.39C36.0473 36.342 36.8794 37.1364 37.8589 37.71C36.1484 37.1411 34.7321 35.9189 33.9189 34.31ZM39.4889 28.16C39.3526 28.035 39.209 27.9181 39.0589 27.81C38.7489 27.58 38.4289 27.37 38.1089 27.16C38.0651 27.1313 38.0276 27.0939 37.9989 27.05C37.382 26.1092 36.5575 25.3224 35.5889 24.75C35.5854 24.7335 35.5854 24.7165 35.5889 24.7C36.4352 24.9909 37.2155 25.4463 37.8848 26.0402C38.5542 26.634 39.0994 27.3545 39.4889 28.16ZM43.3289 29.93C43.0428 30.794 42.5878 31.5926 41.9904 32.2793C41.393 32.9659 40.6651 33.5271 39.8489 33.93L39.8989 33.87C40.2758 33.4647 40.6108 33.0225 40.8989 32.55C40.924 32.5066 40.9581 32.4691 40.9989 32.44C41.9347 31.8108 42.7145 30.9763 43.2789 30L43.3289 29.93ZM33.5589 28.57C33.3589 28.82 33.1489 29.08 32.9589 29.34C32.7689 29.6 32.7089 29.74 32.5789 29.93C32.5403 29.9869 32.493 30.0375 32.4389 30.08C31.5072 30.6931 30.7275 31.5105 30.1589 32.47L30.0989 32.56C30.3824 31.6988 30.8343 30.9026 31.4283 30.2176C32.0223 29.5326 32.7466 28.9726 33.5589 28.57ZM31.1289 27.57C31.9362 27.1642 32.8163 26.9234 33.7177 26.8616C34.6191 26.7998 35.5238 26.9182 36.3789 27.21C35.8617 27.2263 35.3481 27.3035 34.8489 27.44C34.6807 27.4751 34.5071 27.4751 34.3389 27.44C33.2939 27.2412 32.2176 27.2788 31.1889 27.55L31.1289 27.57ZM32.5489 31.57C32.5489 31.9 32.6189 32.24 32.6689 32.57C32.7189 32.9 32.7589 33 32.8089 33.21C32.834 33.3017 32.834 33.3984 32.8089 33.49C32.6703 34.1471 32.6298 34.8211 32.6889 35.49C32.6889 35.94 32.8189 36.39 32.8789 36.77C32.4847 35.9809 32.2535 35.1205 32.1989 34.24C32.1338 33.3158 32.2528 32.3879 32.5489 31.51V31.57ZM40.5489 25.74C41.34 27.3834 41.4584 29.2707 40.8789 31L40.7289 29.9C40.71 29.7472 40.6765 29.5965 40.6289 29.45C40.5891 29.2959 40.5891 29.1342 40.6289 28.98C40.7787 28.2189 40.7989 27.4379 40.6889 26.67C40.6289 26.33 40.5689 26 40.5089 25.68L40.5489 25.74ZM37.0689 35.34C37.6565 35.2918 38.2368 35.1777 38.7989 35C38.8811 34.9805 38.9668 34.9805 39.0489 35C40.1237 35.204 41.2304 35.1664 42.2889 34.89C41.4811 35.2983 40.6005 35.543 39.6979 35.6099C38.7952 35.6769 37.8882 35.5647 37.0289 35.28L37.0689 35.34Z" fill="#00C3A4"/>
<path d="M53.5587 25.87C52.8391 22.267 50.9716 18.9941 48.2358 16.5415C45.5 14.0889 42.0433 12.5887 38.3834 12.2655C34.7235 11.9423 31.0573 12.8135 27.9341 14.7487C24.8108 16.6839 22.3986 19.5789 21.0587 23C20.8987 23 20.7387 23 20.5687 23C17.5539 23.0024 14.6563 24.1685 12.4802 26.2552C10.3042 28.3418 9.01756 31.1879 8.88872 34.2C8.57805 34.1481 8.2637 34.1214 7.94872 34.12C7.12089 34.0866 6.29485 34.2208 5.52018 34.5146C4.7455 34.8084 4.03817 35.2556 3.44064 35.8295C2.8431 36.4034 2.36769 37.0922 2.04294 37.8544C1.71818 38.6166 1.55078 39.4365 1.55078 40.265C1.55078 41.0935 1.71818 41.9135 2.04294 42.6757C2.36769 43.4379 2.8431 44.1266 3.44064 44.7005C4.03817 45.2744 4.7455 45.7217 5.52018 46.0154C6.29485 46.3092 7.12089 46.4434 7.94872 46.41H53.5287C56.2525 46.41 58.8647 45.328 60.7907 43.402C62.7167 41.476 63.7987 38.8638 63.7987 36.14C63.7987 33.4162 62.7167 30.804 60.7907 28.878C58.8647 26.952 56.2525 25.87 53.5287 25.87H53.5587Z" stroke="#007AFF" stroke-width="2" stroke-linejoin="round"/>
<path d="M12.4788 51.68H53.1188" stroke="#00BFA5" stroke-width="2" stroke-linecap="round" stroke-linejoin="round"/>
</g>
<defs>
<clipPath id="clip0">
<rect width="64" height="64" fill="white" transform="translate(0.798828)"/>
</clipPath>
</defs>
</svg>
