<svg width="65" height="64" viewBox="0 0 65 64" fill="none" xmlns="http://www.w3.org/2000/svg">
<path d="M32.7988 1L6.5188 7.75V25.65C6.5188 53.54 32.7988 63 32.7988 63C32.7988 63 59.0788 52.76 59.0788 25.65V7.75L32.7988 1Z" stroke="#007AFF" stroke-width="2" stroke-linejoin="round"/>
<path d="M32.7988 6.92999L11.5388 12.38V26.86C11.5388 49.42 32.7988 57.08 32.7988 57.08C32.7988 57.08 54.0588 48.8 54.0588 26.86V12.38L32.7988 6.92999Z" stroke="#00BFA5" stroke-width="2" stroke-linecap="round" stroke-linejoin="round"/>
<path d="M32.7989 30.68V25.55L29.3589 22.11V27.6L32.7989 30.68Z" stroke="#00BFA5" stroke-width="2" stroke-linecap="round" stroke-linejoin="round"/>
<path d="M29.3689 39.11H36.2389" stroke="#00BFA5" stroke-width="2" stroke-linecap="round" stroke-linejoin="round"/>
<path d="M32.7988 30.68V25.55L36.2388 22.11V27.6L32.7988 30.68Z" stroke="#00BFA5" stroke-width="2" stroke-linecap="round" stroke-linejoin="round"/>
<path d="M30.6289 30.68H34.9689C35.3031 30.68 35.6236 30.8127 35.8599 31.049C36.0961 31.2853 36.2289 31.6058 36.2289 31.94V41.46C36.2289 42.3697 35.8675 43.2421 35.2243 43.8854C34.581 44.5286 33.7086 44.89 32.7989 44.89C31.8892 44.89 31.0168 44.5286 30.3735 43.8854C29.7303 43.2421 29.3689 42.3697 29.3689 41.46V31.94C29.3689 31.6058 29.5016 31.2853 29.7379 31.049C29.9742 30.8127 30.2947 30.68 30.6289 30.68V30.68Z" stroke="#007AFF" stroke-width="2" stroke-linejoin="round"/>
<path d="M21.9588 24.07V20.48L19.5488 18.06V21.91L21.9588 24.07Z" stroke="#00BFA5" stroke-width="2" stroke-linecap="round" stroke-linejoin="round"/>
<path d="M19.5588 29.98H24.3788" stroke="#00BFA5" stroke-width="2" stroke-linecap="round" stroke-linejoin="round"/>
<path d="M21.9587 24.07V20.48L24.3787 18.06V21.91L21.9587 24.07Z" stroke="#00BFA5" stroke-width="2" stroke-linecap="round" stroke-linejoin="round"/>
<path d="M20.4388 24.07H23.4388C23.6722 24.07 23.896 24.1627 24.061 24.3278C24.2261 24.4928 24.3188 24.7166 24.3188 24.95V31.62C24.3111 32.2454 24.0607 32.8433 23.6203 33.2875C23.1799 33.7316 22.5841 33.9871 21.9588 34V34C21.3196 34 20.7066 33.7461 20.2547 33.2941C19.8027 32.8422 19.5488 32.2292 19.5488 31.59V25C19.5419 24.8795 19.5599 24.7588 19.6017 24.6455C19.6435 24.5322 19.7081 24.4287 19.7916 24.3415C19.8751 24.2543 19.9756 24.1852 20.087 24.1385C20.1983 24.0917 20.3181 24.0685 20.4388 24.07V24.07Z" stroke="#007AFF" stroke-width="2" stroke-linejoin="round"/>
<path d="M43.5289 24.07V20.48L41.1189 18.06V21.91L43.5289 24.07Z" stroke="#00BFA5" stroke-width="2" stroke-linecap="round" stroke-linejoin="round"/>
<path d="M41.1289 29.98H45.9389" stroke="#00BFA5" stroke-width="2" stroke-linecap="round" stroke-linejoin="round"/>
<path d="M43.5288 24.07V20.48L45.9388 18.06V21.91L43.5288 24.07Z" stroke="#00BFA5" stroke-width="2" stroke-linecap="round" stroke-linejoin="round"/>
<path d="M42.0089 24.07H45.0089C45.1245 24.07 45.2389 24.0928 45.3457 24.137C45.4524 24.1812 45.5494 24.246 45.6311 24.3278C45.7129 24.4095 45.7777 24.5065 45.8219 24.6132C45.8661 24.72 45.8889 24.8344 45.8889 24.95V31.62C45.8812 32.2454 45.6308 32.8433 45.1904 33.2874C44.75 33.7316 44.1542 33.9871 43.5289 34V34C42.8897 34 42.2767 33.7461 41.8248 33.2941C41.3728 32.8422 41.1189 32.2292 41.1189 31.59V25C41.1189 24.8844 41.1417 24.77 41.1859 24.6632C41.2301 24.5565 41.2949 24.4595 41.3766 24.3778C41.4584 24.296 41.5554 24.2312 41.6621 24.187C41.7689 24.1428 41.8833 24.12 41.9989 24.12L42.0089 24.07Z" stroke="#007AFF" stroke-width="2" stroke-linejoin="round"/>
</svg>
