<svg width="64" height="64" viewBox="0 0 64 64" fill="none" xmlns="http://www.w3.org/2000/svg">
<path d="M13.3999 49.8L16.8999 45.4" stroke="#00BFA5" stroke-width="2" stroke-linecap="round" stroke-linejoin="round"/>
<path d="M50.6001 49.8L47.1001 45.4" stroke="#00BFA5" stroke-width="2" stroke-linecap="round" stroke-linejoin="round"/>
<path d="M14.8 43.4C15.1 43.7 15.4 44 15.7 44.2C20 48.1 25.8 50.5 32.1 50.5C35.6 50.5 38.9001 49.8 41.9001 48.4L53 62.1L53.2001 52.7L62.5 54.3L54.9001 45" stroke="#007AFF" stroke-width="2" stroke-linecap="round" stroke-linejoin="round"/>
<path d="M18.9 52.5L11 62.1L10.8 52.7L1.5 54.3L12.6 40.9C9.5 36.8 7.6 31.7 7.6 26.2C7.7 12.8 18.6 1.9 32 1.9C45.4 1.9 56.3 12.8 56.3 26.2C56.3 34.2 52.4 41.3 46.5 45.7" stroke="#007AFF" stroke-width="2" stroke-linecap="round" stroke-linejoin="round"/>
<path d="M21.6001 12.9C22.3001 12.4 23.0001 11.9 23.8001 11.4" stroke="#00BFA5" stroke-width="2" stroke-linecap="round" stroke-linejoin="round"/>
<path d="M26.8 10.2C28.4 9.7 30.2 9.4 32 9.4C41.3 9.4 48.7999 16.9 48.7999 26.2C48.7999 35.5 41.3 43 32 43C22.7 43 15.2 35.5 15.2 26.2C15.2 22.5 16.4 19 18.5 16.2C18.8 15.8 19.2 15.4 19.5 15" stroke="#00BFA5" stroke-width="2" stroke-linecap="round" stroke-linejoin="round"/>
<path d="M32.4 19.1L34.4 23.2C34.5 23.3 34.6 23.4 34.8 23.5L39.3 24.2C39.7 24.3 39.8 24.7 39.6 25L36.4 28.2C36.3 28.3 36.2 28.5 36.3 28.6L37.1 33.1C37.2 33.5 36.8 33.8 36.4 33.6L32.4 31.5C32.3 31.4 32.1 31.4 32 31.5L28 33.6C27.7 33.8 27.2 33.5 27.3 33.1L28.1 28.6C28.1 28.4 28.1 28.3 28 28.2L24.8 25C24.5 24.7 24.7 24.2 25.1 24.2L29.6 23.5C29.8 23.5 29.9 23.4 30 23.2L32 19.1C31.7 18.8 32.3 18.8 32.4 19.1Z" stroke="#007AFF" stroke-width="2" stroke-linecap="round" stroke-linejoin="round"/>
</svg>
