<svg width="64" height="64" viewBox="0 0 64 64" fill="none" xmlns="http://www.w3.org/2000/svg">
<path d="M39.5 49.1H3.29995C2.09995 49.1 1.19995 48.1 1.19995 47V6.6C1.19995 5.4 2.19995 4.5 3.29995 4.5H60.7C61.9 4.5 62.7999 5.5 62.7999 6.6V47C62.7999 48.2 61.8 49.1 60.7 49.1" stroke="#007AFF" stroke-width="2" stroke-linecap="round" stroke-linejoin="round"/>
<path d="M51.7999 50.6L54.7999 57.8C54.8999 58.2 54.8 58.5 54.4 58.6L52.5999 59.4C52.1999 59.5 51.8999 59.4 51.7999 59L48.9 52L45.7999 55.2C45.2999 55.7 44.7 55.3 44.7 54.7V39.3C44.7 38.7 45.3999 38.5 45.7999 38.8L56.0999 49.4C56.5999 49.8 56.1999 50.6 55.5999 50.6H51.7999Z" stroke="#00BFA5" stroke-width="2" stroke-linecap="round" stroke-linejoin="round"/>
<path d="M11.3999 13.7H62.6999" stroke="#007AFF" stroke-width="2" stroke-linecap="round" stroke-linejoin="round"/>
<path d="M1.19995 13.7H6.59995" stroke="#007AFF" stroke-width="2" stroke-linecap="round" stroke-linejoin="round"/>
<path d="M34.2999 33.1C29.9999 37.4 25.3999 39.9 24.0999 38.6C23.5999 38.1 23.5999 37.1 24.1999 35.7C24.9999 33.7 26.8999 30.9 29.4999 28.5C30.4999 27.5 31.3999 26.7 32.3999 26C33.0999 25.4 33.8999 24.8 34.6999 24.3C35.4999 23.8 36.1999 23.3 36.9999 23.1C38.2999 22.5 39.3999 22.5 39.8999 23C40.6999 23.8 39.9999 25.9 38.4999 28.2" stroke="#00BFA5" stroke-width="2" stroke-linecap="round" stroke-linejoin="round"/>
<path d="M29.5999 33.1C25.2999 28.8 22.7999 24.2 24.0999 22.9C25.3999 21.6 29.8999 24.1 34.2999 28.4C38.5999 32.7 41.0999 37.3 39.7999 38.6C38.9999 39.4 36.8999 38.7 34.4999 37.1" stroke="#007AFF" stroke-width="2" stroke-linecap="round" stroke-linejoin="round"/>
<path d="M48.6 10.4C49.318 10.4 49.9001 9.81796 49.9001 9.09999C49.9001 8.38202 49.318 7.79999 48.6 7.79999C47.8821 7.79999 47.3 8.38202 47.3 9.09999C47.3 9.81796 47.8821 10.4 48.6 10.4Z" fill="#00BFA5"/>
<path d="M53 10.4C53.7179 10.4 54.2999 9.81796 54.2999 9.09999C54.2999 8.38202 53.7179 7.79999 53 7.79999C52.282 7.79999 51.7 8.38202 51.7 9.09999C51.7 9.81796 52.282 10.4 53 10.4Z" fill="#00BFA5"/>
<path d="M57.4001 10.4C58.1181 10.4 58.7001 9.81796 58.7001 9.09999C58.7001 8.38202 58.1181 7.79999 57.4001 7.79999C56.6821 7.79999 56.1001 8.38202 56.1001 9.09999C56.1001 9.81796 56.6821 10.4 57.4001 10.4Z" fill="#00BFA5"/>
</svg>
