<svg width="288" height="68" viewBox="0 0 207 20" fill="none" xmlns="http://www.w3.org/2000/svg">
<path d="M19.6755 0.77386C17.1839 -0.257953 14.3846 -0.257953 11.893 0.77386C11.7321 0.841739 11.5713 0.914466 11.4105 0.989345C11.0222 1.17569 10.6461 1.38692 10.2848 1.62181C9.67638 2.01668 9.11161 2.47557 8.59996 2.99069L1.64989 9.97467C0.593957 11.0352 0 12.4755 0 13.9758C0 17.0788 2.54088 19.6323 5.62865 19.6323C5.62935 19.6323 5.63 19.6323 5.63069 19.6323C5.69877 19.6323 5.76685 19.6323 5.83493 19.6285C4.17501 19.0164 3.06521 17.4192 3.06521 15.6422C3.06521 14.481 3.53919 13.3692 4.37577 12.5681L10.1872 6.72939L10.8037 6.10721L11.0122 5.89763L11.2492 5.65898C11.3939 5.5153 11.5438 5.37814 11.6989 5.24739C14.1009 3.14078 17.1844 1.98097 20.3724 1.9849C20.8919 1.98468 21.411 2.01491 21.927 2.07541C21.2354 1.5459 20.4786 1.10846 19.6755 0.77386ZM43.2285 3.53265C42.0658 0.657387 38.7561 -0.748673 35.8941 0.416686L35.8217 0.446855C35.5267 0.571407 35.243 0.721387 34.9737 0.895072C34.6325 1.11471 34.316 1.37081 34.0297 1.65898L29.7776 5.93265L29.1638 6.54733C29.1451 6.56564 29.1263 6.58394 29.107 6.60121C28.3713 7.28176 27.2169 7.25782 26.5098 6.54733L23.2479 3.26921C20.8083 2.6812 18.2472 2.85682 15.9097 3.77238C17.5663 3.80061 19.1482 4.47745 20.3167 5.6579L25.9576 11.3263C26.9896 12.3608 28.6851 12.3608 29.7171 11.3263L36.6805 4.32834C36.748 4.26046 36.8209 4.19781 36.8976 4.14086C37.6631 3.48179 38.6382 3.11934 39.646 3.11934C41.4327 3.11934 43.035 4.25841 43.6295 5.9515C43.6343 5.85507 43.6365 5.75918 43.6365 5.66274C43.6386 4.93267 43.4998 4.20901 43.2274 3.53211L43.2285 3.53265ZM39.6487 4.06436C39.4584 4.0642 39.2686 4.08079 39.081 4.11393C39.1716 4.17707 39.2568 4.24828 39.3351 4.32672C39.6873 4.68023 39.8851 5.16028 39.8851 5.66032C39.8851 6.16036 39.6873 6.64042 39.3351 6.99394L32.4156 13.9493L32.3711 13.9935C32.2489 14.1164 32.1229 14.2333 31.9932 14.3442C29.5755 16.5125 26.4448 17.71 23.2045 17.7058C22.7209 17.7059 22.2377 17.6799 21.7571 17.6278C24.6067 19.7558 28.3648 20.2401 31.6565 18.9035C31.8323 18.8316 32.0054 18.7555 32.1754 18.675C33.2334 18.1746 34.1969 17.493 35.0225 16.6607L41.7747 9.87824L41.9891 9.66273C42.0647 9.58661 42.1381 9.50867 42.2089 9.42897C42.6758 8.84376 42.9305 8.11564 42.9305 7.36564C42.9305 5.55581 41.4482 4.06652 39.6476 4.06652C39.6466 4.06652 39.646 4.06652 39.6455 4.06652L39.6487 4.06436ZM27.7701 15.8775C26.0929 15.8625 24.487 15.1849 23.302 13.9919L17.6878 8.35042C17.1858 7.83921 16.5021 7.54848 15.7875 7.54236C15.081 7.53939 14.402 7.82127 13.9037 8.32454L12.2473 9.9903L11.5504 10.6906L9.931 12.3187L9.2593 12.9936L8.15019 14.111L7.15899 15.1076L6.96015 15.308C6.60838 15.6617 6.13069 15.8606 5.6331 15.8606C5.13553 15.8606 4.65785 15.6617 4.30608 15.308C4.21752 15.2195 4.13819 15.1222 4.06914 15.0176C4.0299 15.2229 4.01018 15.4314 4.01018 15.6404C4.01018 17.4504 5.49142 18.9402 7.29251 18.9417C7.41571 18.9417 7.5388 18.9348 7.66128 18.9212C8.35879 18.8421 9.01294 18.5398 9.52682 18.0593C9.54129 18.0458 9.55577 18.0323 9.5697 18.0178L9.61258 17.9752L9.66939 17.9181L11.4984 16.0795L14.4709 13.0922C15.2013 12.3744 16.3878 12.3811 17.1099 13.1073L20.4335 16.4474C22.8793 17.014 25.44 16.8152 27.7701 15.8775Z" fill="#007AFF"/>
<path d="M60.1113 2.48763V9.69354L52.7136 2.42676H51.3552V17.1888H55.2213V9.96293L62.5962 17.2098H63.9368V2.48763H60.1113Z" fill="#007AFF"/>
<path d="M72.0229 17.2168V2.51562H68.3164V5.79159H68.323V13.9198H68.3164V17.2168H72.0229Z" fill="#007AFF"/>
<path d="M83.0029 2.30811H81.3945L74.8108 16.6526L74.5593 17.1984H78.466L79.3236 15.3505H85.0919L85.9495 17.1984H89.8562L89.6065 16.6526L83.0029 2.30811ZM80.537 12.1371L82.1882 8.27284L83.8804 12.1371H80.537Z" fill="#007AFF"/>
<path d="M104.73 8.81744H97.8145V12.0724H100.924C100.255 13.4796 99.2938 13.8788 97.7891 13.8788C95.5741 13.8788 94.1526 12.2825 94.1526 9.84641C94.1526 7.5989 95.4275 5.75215 97.7891 5.75215C99.2727 5.75215 100.235 6.25641 100.84 7.51648H104.519C103.808 3.86232 100.736 2.32912 97.7891 2.30811C94.0694 2.30811 90.3075 4.82825 90.2839 9.85017C90.305 14.8694 94.0664 17.3686 97.7891 17.3686C100.485 17.3686 103.264 16.1925 104.31 13.1262C104.811 11.6953 104.811 10.2876 104.73 8.81744Z" fill="#007AFF"/>
<path d="M114.039 2.30811H112.43L105.846 16.6526L105.596 17.1984H109.503L110.361 15.3505H116.129L116.987 17.1984H120.894L120.641 16.6526L114.039 2.30811ZM111.573 12.1371L113.224 8.27284L114.917 12.1371H111.573Z" fill="#007AFF"/>
<path d="M130.955 2.51562V7.84897H126.441V2.51562H122.616V17.2168H126.441V11.3151H130.955V17.2168H134.78V2.51562H130.955Z" fill="#007AFF"/>
<path d="M137.575 9.87288C137.575 20.0585 152.581 20.0585 152.581 9.87288C152.581 -0.292261 137.575 -0.292261 137.575 9.87288ZM141.421 9.87288C141.421 4.57993 148.756 4.57993 148.756 9.87288C148.756 15.2073 141.421 15.2073 141.421 9.87288Z" fill="#007AFF"/>
<path d="M160.503 8.45536C159.186 8.30827 158.1 8.07827 158.183 6.96415C158.308 5.22087 162.237 5.05279 162.237 7.00621H165.79C165.873 0.663295 154.505 0.663295 154.63 7.00621C154.672 10.1981 156.762 11.2901 159.937 11.5212C161.4 11.6052 162.612 11.8363 162.612 12.868C162.612 14.5919 158.035 14.5693 158.035 12.6999H154.419C154.337 19.1689 166.248 19.0638 166.248 12.889C166.25 9.20954 163.407 8.76779 160.503 8.45536Z" fill="#007AFF"/>
<path d="M167.552 2.51562V5.87563H171.144V17.2168H174.843V5.87563H178.416V2.51562H167.552Z" fill="#007AFF"/>
<path d="M184.406 13.8778V11.2946H189.379V7.95454H184.406V5.87509H189.819V2.51562H180.686V17.2168H190.006V13.8767L184.406 13.8778Z" fill="#007AFF"/>
<path d="M202.74 12.0084C206.439 9.4883 205.394 2.53664 199.646 2.51562H193.23V17.2168H196.971V12.8903H198.915L201.424 17.2168H205.938L205.603 16.671L202.74 12.0084ZM199.646 9.55133H196.971V5.87563C197.849 5.87563 198.768 5.85462 199.646 5.87563C201.778 5.89664 201.673 9.55133 199.646 9.55133Z" fill="#007AFF"/>
</svg>
