<?xml version="1.0" standalone="no"?>
<!DOCTYPE svg PUBLIC "-//W3C//DTD SVG 20010904//EN"
 "http://www.w3.org/TR/2001/REC-SVG-20010904/DTD/svg10.dtd">
<svg version="1.0" xmlns="http://www.w3.org/2000/svg"
 width="900.000000pt" height="213.000000pt" viewBox="0 0 900.000000 213.000000"
 preserveAspectRatio="xMidYMid meet">

<g transform="translate(0.000000,213.000000) scale(0.100000,-0.100000)"
fill="#000000" stroke="none">
<path d="M1047 1645 c-9 -25 -39 -106 -68 -180 -44 -112 -50 -137 -39 -150 9
-11 16 -12 26 -4 19 15 29 6 43 -43 7 -24 21 -61 30 -83 16 -38 16 -32 21 230
3 149 4 271 4 273 -1 2 -9 -17 -17 -43z"/>
<path d="M1084 1629 c3 -14 15 -91 26 -172 24 -170 25 -174 52 -183 37 -11 41
10 15 92 -14 44 -28 93 -32 111 -8 39 -68 188 -61 152z"/>
<path d="M920 1293 c0 -6 5 -15 10 -18 6 -3 10 -10 10 -14 0 -11 -51 -1 -75
15 -23 16 -140 19 -130 4 3 -5 17 -10 31 -10 52 0 75 -56 27 -62 l-28 -4 25
-11 c51 -23 270 -88 270 -81 0 5 -26 43 -57 85 -81 108 -82 110 -83 96z"/>
<path d="M1182 1245 c-46 -59 -74 -107 -51 -88 8 6 26 11 41 10 25 -2 25 -3
11 -19 -13 -14 -13 -18 -2 -18 11 0 376 115 444 140 11 4 -75 11 -192 16
l-212 9 -39 -50z"/>
<path d="M586 1211 c-3 -5 34 -40 82 -79 48 -39 102 -83 120 -99 l32 -28 -50
-184 c-27 -101 -52 -193 -56 -205 -5 -19 -4 -19 18 4 13 14 19 19 13 11 -7
-12 -2 -11 20 3 75 47 94 63 87 71 -4 4 1 5 10 2 9 -3 22 1 30 11 9 11 9 14 1
8 -9 -5 -11 -2 -7 9 4 10 10 12 18 6 8 -7 26 0 56 20 52 35 64 47 32 30 -13
-7 -26 -10 -29 -8 -4 5 30 19 52 22 23 3 45 18 45 31 0 17 -27 19 -33 2 -3 -8
-6 -5 -6 5 -1 23 -24 47 -45 47 -9 0 -16 5 -16 11 0 8 -6 7 -17 -2 -9 -8 -4 5
12 28 15 24 32 40 38 36 5 -3 7 -1 4 4 -4 6 7 29 23 52 32 43 35 51 22 51 -4
0 -26 -28 -49 -62 -22 -35 -63 -86 -89 -114 -76 -79 -107 -55 -81 61 l14 60
109 36 109 36 -40 8 c-22 5 -43 8 -47 7 -5 -1 -8 2 -8 7 0 5 -48 25 -108 45
-112 38 -143 44 -103 22 16 -9 20 -16 12 -20 -6 -4 -9 -12 -6 -17 12 -18 -19
-9 -92 27 -40 20 -70 40 -67 45 3 5 3 9 0 9 -3 0 -7 -4 -10 -9z m325 -358
c-12 -20 -14 -14 -5 12 4 9 9 14 11 11 3 -2 0 -13 -6 -23z m-122 -189 c-6 -7
-15 -11 -20 -8 -5 3 -3 11 4 18 16 18 31 8 16 -10z"/>
<path d="M1070 953 l0 -101 53 -38 c28 -21 63 -48 76 -61 13 -13 62 -48 110
-80 47 -31 92 -61 100 -67 23 -18 -156 225 -213 289 -69 77 -100 115 -114 140
-9 16 -11 -1 -12 -82z"/>
<path d="M1245 991 c-4 -15 18 -68 80 -183 94 -180 97 -174 20 47 -43 122 -56
151 -73 153 -13 2 -23 -4 -27 -17z"/>
<path d="M960 920 c0 -5 5 -10 10 -10 6 0 10 5 10 10 0 6 -4 10 -10 10 -5 0
-10 -4 -10 -10z"/>
</g>
</svg>
