<?xml version="1.0" standalone="no"?>
<!DOCTYPE svg PUBLIC "-//W3C//DTD SVG 1.1//EN" "http://www.w3.org/Graphics/SVG/1.1/DTD/svg11.dtd">
<svg xmlns="http://www.w3.org/2000/svg">
<metadata>Generated by Fontastic.me</metadata>
<defs>
<font id="icon-font-rudi-collection" horiz-adv-x="512">
<font-face font-family="icon-font-rudi-collection" units-per-em="512" ascent="480" descent="-32"/>
<missing-glyph horiz-adv-x="512" />

<glyph glyph-name="ic-affliasi" unicode="&#97;" d="M409 320c0-10 4-19 12-27 7-7 16-11 27-11l0-74c0-10-4-19-11-26-8-8-17-11-28-11l-306 0c-11 0-20 3-28 11-7 7-11 16-11 26l0 74c11 0 20 4 27 11 8 8 12 17 12 27 0 10-4 19-12 27-7 7-16 11-27 11l0 74c0 10 4 19 11 26 8 8 17 11 28 11l306 0c11 0 20-3 28-11 7-7 11-16 11-26l0-74c-11 0-20-4-27-11-8-8-12-17-12-27z m-84-89l-22 76 64 51-82 4-29 73-30-73-81-4 63-51-21-76 69 43z m-176-82l214 0 0-106-107 42-107-42z"/>
<glyph glyph-name="ic-arrowdown" unicode="&#98;" d="M260 209l121 122c9 8 22 8 31 0 8-8 8-22 0-30l-136-136c-1-1-2-2-4-3-8-6-20-5-27 2l-136 136c-8 8-8 22 0 30 8 9 22 9 30 0z"/>
<glyph glyph-name="ic-arrowleft" unicode="&#99;" d="M222 248l122-121c8-9 8-22 0-31-9-8-22-8-31 0l-135 136c-1 1-2 2-3 4-6 8-6 20 2 27l136 136c8 8 22 8 30 0 8-8 8-22 0-30z"/>
<glyph glyph-name="ic-arrowright" unicode="&#100;" d="M298 248l-120 121c-9 8-9 22 0 30 8 8 21 8 30 0l136-136c7-7 8-19 2-27-1-2-2-3-3-4l-136-136c-8-8-22-8-30 0-8 9-8 22 0 31z"/>
<glyph glyph-name="ic-arrowup" unicode="&#101;" d="M261 286l-122-122c-8-8-22-8-30 0-8 9-8 22 0 31l136 135c1 1 2 2 3 3 9 6 20 6 28-2l136-136c8-8 8-22 0-30-9-8-22-8-31 0z"/>
<glyph glyph-name="ic-attatch" unicode="&#102;" d="M171 107l0 213c0 47 38 85 85 85 47 0 85-38 85-85l0-180c0-30-24-53-53-53-29 0-53 23-53 53l0 176c0 12 9 22 21 22 12 0 21-10 21-22l0-140c0-12 10-22 22-22 11 0 21 10 21 22l0 140c0 36-29 64-64 64-35 0-64-28-64-64l0-176c0-53 43-96 96-96 53 0 96 43 96 96l0 180c0 71-57 128-128 128-71 0-128-57-128-128l0-213c0-12 10-22 21-22 12 0 22 10 22 22z"/>
<glyph glyph-name="ic-bell" unicode="&#103;" d="M213 419l0 8c0 23 19 42 43 42 24 0 43-19 43-42l0-8c49-17 85-65 85-120l0-107 43-43 0-42-342 0 0 42 43 43 0 107c0 55 36 103 85 120z m86-334c0-23-19-42-43-42-24 0-43 19-43 42z"/>
<glyph glyph-name="ic-blog" unicode="&#104;" d="M298 469l128-128 0-256c0-11-4-21-12-30-8-8-18-12-30-12l-257 0c-11 0-21 4-29 12-8 9-13 19-13 30l0 342c0 11 5 21 13 29 8 9 18 13 30 13z m43-341l0 43-171 0 0-43z m0 85l0 43-171 0 0-43z m-64 107l117 0-117 117z"/>
<glyph glyph-name="ic-cancel" unicode="&#105;" d="M286 256l91 91c8 8 8 21 0 30-9 8-22 8-30 0l-91-91-91 91c-8 8-21 8-30 0-8-9-8-22 0-30l91-91-91-91c-8-8-8-21 0-30 9-8 22-8 30 0l91 91 91-91c8-8 21-8 30 0 8 9 8 22 0 30z"/>
<glyph glyph-name="ic-cart" unicode="&#106;" d="M363 363c0-59-48-107-107-107-59 0-107 48-107 107l43 0c0-36 29-64 64-64 35 0 64 28 64 64z m69-214l-352 0-16 192c0 24 19 43 43 43l44 0c10 49 53 85 105 85 52 0 95-36 105-85l44 0c24 0 43-19 43-43z m-4-42l-1-22c0-23-19-42-43-42l-256 0c-24 0-43 19-43 42l-1 22z m-232 277l120 0c-8 25-32 43-60 43-28 0-52-18-60-43z"/>
<glyph glyph-name="ic-charetdown" unicode="&#107;" d="M267 181l-107 107 213 0z"/>
<glyph glyph-name="ic-charetleft" unicode="&#108;" d="M149 256l107 107 0-214z"/>
<glyph glyph-name="ic-charetright" unicode="&#109;" d="M384 256l-107-107 0 214z"/>
<glyph glyph-name="ic-charetup" unicode="&#110;" d="M267 331l106-107-213 0z"/>
<glyph glyph-name="ic-chart-rol" unicode="&#111;" d="M171 128c12 0 22-4 30-13 9-8 13-18 13-30 0-11-4-21-13-30-8-8-18-12-30-12-12 0-22 4-30 12-8 9-12 19-12 30 0 12 4 22 12 30 8 9 18 13 30 13z m-128 341l70 0 20-42 315 0c6 0 11-2 15-7 5-4 7-9 7-15 0-3-1-7-3-10l-76-138c-8-15-21-22-38-22l-159 0-19-35 0-3c0-3 1-5 5-5l247 0 0-43-256 0c-12 0-22 4-31 12-8 9-12 19-12 31 0 7 2 14 6 20l28 53-76 162-43 0z m341-341c12 0 22-4 30-13 9-8 13-18 13-30 0-11-4-21-13-30-8-8-18-12-30-12-11 0-21 4-30 12-8 9-12 19-12 30 0 12 4 22 12 30 9 9 19 13 30 13z"/>
<glyph glyph-name="ic-check" unicode="&#112;" d="M210 155c10 0 19 4 26 11l156 155c14 15 14 38 0 52-15 15-38 15-52 0l-130-129-51 52c-15 14-38 14-52 0-15-15-15-38 0-52l77-78c8-7 17-11 26-11z"/>
<glyph glyph-name="ic-checkbox" unicode="&#113;" d="M1 511l6 0c0 0 1 0 1 0 0 0-1-1-1-1l-6 0c0 0 0 1 0 1 0 0 0 0 0 0z"/>
<glyph glyph-name="ic-circlecancel" unicode="&#114;" d="M256 128c71 0 128 57 128 128 0 71-57 128-128 128-71 0-128-57-128-128 0-71 57-128 128-128z m0-43c-94 0-171 77-171 171 0 94 77 171 171 171 94 0 171-77 171-171 0-94-77-171-171-171z m30 171l30 30c9 8 9 22 0 30-8 9-21 9-30 0l-30-30-30 30c-8 9-22 9-30 0-9-8-9-22 0-30l30-30-30-30c-9-9-9-22 0-30 8-9 22-9 30 0l30 30 30-30c9-9 22-9 30 0 9 8 9 21 0 30z"/>
<glyph glyph-name="ic-circlecancel-glyph" unicode="&#115;" d="M256 85c-94 0-171 77-171 171 0 94 77 171 171 171 94 0 171-77 171-171 0-94-77-171-171-171z m30 171l30 30c9 8 9 22 0 30-8 9-21 9-30 0l-30-30-30 30c-8 9-22 9-30 0-9-8-9-22 0-30l30-30-30-30c-9-9-9-22 0-30 8-9 22-9 30 0l30 30 30-30c9-9 22-9 30 0 9 8 9 21 0 30z"/>
<glyph glyph-name="ic-circledown" unicode="&#116;" d="M256 128c71 0 128 57 128 128 0 71-57 128-128 128-71 0-128-57-128-128 0-71 57-128 128-128z m0-43c-94 0-171 77-171 171 0 94 77 171 171 171 94 0 171-77 171-171 0-94-77-171-171-171z m1 162l45 45c8 9 22 9 30 0 8-8 8-22 0-30l-60-60c-4-4-10-6-15-6-6 0-11 2-15 6l-61 60c-8 8-8 22 0 30 9 9 22 9 30 0z"/>
<glyph glyph-name="ic-circleleft" unicode="&#117;" d="M128 256c0-71 57-128 128-128 71 0 128 57 128 128 0 71-57 128-128 128-71 0-128-57-128-128z m-43 0c0 94 77 171 171 171 94 0 171-77 171-171 0-94-77-171-171-171-94 0-171 77-171 171z m162-1l45-45c9-8 9-22 0-30-8-8-21-8-30 0l-60 60c-4 4-6 10-6 15 0 6 2 11 6 15l60 61c9 8 22 8 30 0 9-9 9-22 0-30z"/>
<glyph glyph-name="ic-circleminus" unicode="&#118;" d="M256 128c71 0 128 57 128 128 0 71-57 128-128 128-71 0-128-57-128-128 0-71 57-128 128-128z m0-43c-94 0-171 77-171 171 0 94 77 171 171 171 94 0 171-77 171-171 0-94-77-171-171-171z m-64 192c-12 0-21-9-21-21 0-12 9-21 21-21l128 0c12 0 21 9 21 21 0 12-9 21-21 21z"/>
<glyph glyph-name="ic-circleplus" unicode="&#119;" d="M256 128c71 0 128 57 128 128 0 71-57 128-128 128-71 0-128-57-128-128 0-71 57-128 128-128z m0-43c-94 0-171 77-171 171 0 94 77 171 171 171 94 0 171-77 171-171 0-94-77-171-171-171z m21 192l0 43c0 12-9 21-21 21-12 0-21-9-21-21l0-43-43 0c-12 0-21-9-21-21 0-12 9-21 21-21l43 0 0-43c0-12 9-21 21-21 12 0 21 9 21 21l0 43 43 0c12 0 21 9 21 21 0 12-9 21-21 21z"/>
<glyph glyph-name="ic-circleright" unicode="&#120;" d="M384 256c0 71-57 128-128 128-71 0-128-57-128-128 0-71 57-128 128-128 71 0 128 57 128 128z m43 0c0-94-77-171-171-171-94 0-171 77-171 171 0 94 77 171 171 171 94 0 171-77 171-171z m-162 1l-45 45c-9 8-9 22 0 30 8 8 22 8 30 0l60-60c4-4 6-10 6-15 0-6-2-11-6-15l-60-61c-8-8-22-8-30 0-9 9-9 22 0 30z"/>
<glyph glyph-name="ic-circlesucces" unicode="&#121;" d="M256 128c71 0 128 57 128 128 0 71-57 128-128 128-71 0-128-57-128-128 0-71 57-128 128-128z m0-43c-94 0-171 77-171 171 0 94 77 171 171 171 94 0 171-77 171-171 0-94-77-171-171-171z m-21 97c6 0 11 2 15 7l91 90c8 8 8 22 0 30-9 9-22 9-31 0l-75-75-30 30c-8 8-22 8-30 0-9-8-9-22 0-30l45-45c4-5 10-7 15-7z"/>
<glyph glyph-name="ic-circlesucces-glyph" unicode="&#122;" d="M256 85c-94 0-171 77-171 171 0 94 77 171 171 171 94 0 171-77 171-171 0-94-77-171-171-171z m-21 97c6 0 11 2 15 7l91 90c8 8 8 22 0 30-9 9-22 9-31 0l-75-75-30 30c-8 8-22 8-30 0-9-8-9-22 0-30l45-45c4-5 10-7 15-7z"/>
<glyph glyph-name="ic-circleup" unicode="&#65;" d="M256 384c-71 0-128-57-128-128 0-71 57-128 128-128 71 0 128 57 128 128 0 71-57 128-128 128z m0 43c94 0 171-77 171-171 0-94-77-171-171-171-94 0-171 77-171 171 0 94 77 171 171 171z m-1-162l-45-45c-8-9-22-9-30 0-8 8-8 21 0 30l60 60c4 4 10 6 15 6 6 0 11-2 15-6l61-60c8-9 8-22 0-30-9-9-22-9-30 0z"/>
<glyph glyph-name="ic-date" unicode="&#66;" d="M405 427l22 0c23 0 42-19 42-43l0-299c0-23-19-42-42-42l-342 0c-23 0-42 19-42 42l0 299c0 24 19 43 42 43l22 0 0 42 42 0 0-42 214 0 0 42 42 0z m-320-128l0-214 342 0 0 214z m86-22l42 0 0-42-42 0z m64 0l42 0 0-42-42 0z m-64-64l42 0 0-42-42 0z m64 0l42 0 0-42-42 0z m-64-64l42 0 0-42-42 0z m-64 0l42 0 0-42-42 0z m128 0l42 0 0-42-42 0z m64 128l42 0 0-42-42 0z m64 0l42 0 0-42-42 0z m-64-64l42 0 0-42-42 0z m0-64l42 0 0-42-42 0z"/>
<glyph glyph-name="ic-delete" unicode="&#67;" d="M203 405l10 22 86 0 10-22 96 0 0-42-298 0 0 42z m-75-64l256 0 0-234c0-24-19-43-43-43l-170 0c-24 0-43 19-43 43z"/>
<glyph glyph-name="ic-domain" unicode="&#68;" d="M256 469c59 0 109-21 151-62 42-42 62-92 62-151 0-59-20-109-62-151-42-41-92-62-151-62-59 0-109 21-151 62-42 42-62 92-62 151 0 59 20 109 62 151 42 41 92 62 151 62z m-21-382l0 41c-12 0-23 4-31 12-8 9-12 19-12 31l0 21-102 102c-3-13-4-26-4-38 0-43 14-81 42-113 28-32 64-51 107-56z m146 54c30 33 45 71 45 115 0 35-9 67-29 96-20 29-46 50-78 62l0-9c0-11-4-21-12-29-8-9-18-13-30-13l-42 0 0-43c0-6-3-11-7-15-4-4-9-6-14-6l-43 0 0-43 127 0c6 0 11-2 15-7 4-4 6-9 6-14l0-64 22 0c10 0 18-3 25-9 8-5 13-13 15-21z"/>
<glyph glyph-name="ic-download" unicode="&#69;" d="M426 266c26-14 43-42 43-74 0-47-38-85-85-85l-256 0c-47 0-85 38-85 85 0 22 8 42 21 57 0 2 0 5 0 7 0 82 67 149 149 149 42 0 80-17 107-45 7 2 14 3 21 3 47 0 86-39 86-86 0-3-1-7-1-11z m-127-53l0 86-86 0 0-86-42 0 85-64 85 64z"/>
<glyph glyph-name="ic-edit" unicode="&#70;" d="M373 297l-76 76 47 47c8 9 22 9 30 0l46-46c9-8 9-22 0-30z m-30-30l-158-158c-2-3-6-5-9-6l-63-17c-16-4-31 11-27 27l17 63c1 3 3 7 6 9l158 158z"/>
<glyph glyph-name="ic-email" unicode="&#71;" d="M85 405l342 0c23 0 42-19 42-42l0-214c0-23-19-42-42-42l-342 0c-23 0-42 19-42 42l0 214c0 23 19 42 42 42z m171-192l171 107 0 43-171-107-171 107 0-43z"/>
<glyph glyph-name="ic-eror-glyph" unicode="&#72;" d="M274 438l192-320c9-15-1-33-18-33l-384 0c-17 0-27 18-18 33l192 320c8 13 28 13 36 0z m-18-118c-12 0-21-10-21-21l0-64c0-12 9-22 21-22 12 0 21 10 21 22l0 64c0 11-9 21-21 21z m0-171c12 0 21 10 21 22 0 11-9 21-21 21-12 0-21-10-21-21 0-12 9-22 21-22z"/>
<glyph glyph-name="ic-eyesclose" unicode="&#73;" d="M341 224c0 3 0 7 0 11 0 47-38 85-85 85-4 0-7 0-11-1l-39 39c16 3 33 5 50 5 93 0 176-48 212-121 2-5 2-10 0-15-14-28-35-52-60-71z m-201 112l-54 54 31 31 124-124c5 1 10 2 15 2 35 0 64-29 64-64 0-6-1-11-2-16l109-109-31-31-45 45c-29-11-61-17-95-17-93 0-176 48-212 120-2 5-2 10 0 15 20 40 54 73 96 94z m168-169l-15 15c-10-7-23-11-37-11-35 0-64 28-64 64 0 13 4 26 12 37l-15 15c-12-14-18-33-18-52 0-47 38-86 85-86 20 0 38 7 52 18z"/>
<glyph glyph-name="ic-eyesview" unicode="&#74;" d="M44 264c36 72 119 120 212 120 93 0 176-48 212-120 2-5 2-11 0-16-36-72-119-120-212-120-93 0-176 48-212 120-2 5-2 11 0 16z m212-93c47 0 85 38 85 85 0 47-38 85-85 85-47 0-85-38-85-85 0-47 38-85 85-85z m0 21c-35 0-64 29-64 64 0 35 29 64 64 64 35 0 64-29 64-64 0-35-29-64-64-64z"/>
<glyph glyph-name="ic-facebook" unicode="&#75;" d="M350 427l-45 0c-50 0-82-33-82-84l0-39-45 0c-4 0-7-3-7-7l0-56c0-4 3-7 7-7l45 0 0-142c0-4 3-7 7-7l58 0c4 0 7 3 7 7l0 142 53 0c4 0 7 3 7 7l0 56c0 2-1 4-2 5-2 1-3 2-5 2l-53 0 0 33c0 16 4 24 25 24l30 0c4 0 7 3 7 7l0 52c0 3-3 7-7 7z"/>
<glyph glyph-name="ic-gplus" unicode="&#76;" d="M194 270l102 0c1-6 2-11 2-18 0-62-41-106-104-106-60 0-109 48-109 108 0 60 49 109 109 109 29 0 54-11 73-29l-30-28c-8 8-22 17-43 17-37 0-67-31-67-69 0-38 30-68 67-68 43 0 59 30 62 46l-62 0z m233 0l0-31-31 0 0-31-31 0 0 31-31 0 0 31 31 0 0 31 31 0 0-31z"/>
<glyph glyph-name="ic-home" unicode="&#77;" d="M405 251l0-208-106 0 0 85-86 0 0-85-106 0 0 208-29-24-28 33 206 173 206-173-28-33z"/>
<glyph glyph-name="ic-info" unicode="&#78;" d="M256 85c-94 0-171 77-171 171 0 94 77 171 171 171 94 0 171-77 171-171 0-94-77-171-171-171z m0 192c-12 0-21-11-21-25l0-77c0-14 9-26 21-26 12 0 21 12 21 26l0 77c0 14-9 25-21 25z m0 22c12 0 21 9 21 21 0 12-9 21-21 21-12 0-21-9-21-21 0-12 9-21 21-21z"/>
<glyph glyph-name="ic-instagram" unicode="&#79;" d="M418 368c4-11 7-23 8-42 1-18 1-24 1-70 0-46-1-52-1-70-1-19-4-31-8-42-5-11-10-21-20-30-9-10-19-15-30-20-11-4-23-7-42-8-18-1-24-1-70-1-46 0-52 1-70 1-18 1-31 4-42 8-11 5-21 10-30 20-10 9-15 19-20 30-4 11-7 23-8 42-1 18-1 24-1 70 0 46 1 52 1 70 1 18 4 31 8 42 5 11 10 21 20 30 9 10 19 15 30 20 11 4 23 7 42 8 18 1 24 1 70 1 46 0 52-1 70-1 19-1 31-4 42-8 11-5 21-10 30-20 10-9 15-19 20-30z m-35-175c1 16 1 21 1 63 0 42 0 47-1 63-1 15-3 23-5 29-3 7-7 12-12 18-6 5-11 9-18 12-5 2-14 4-29 5-16 1-21 1-63 1-42 0-47 0-63-1-15-1-23-3-29-5-7-3-12-7-18-12-5-6-9-11-12-18-2-5-4-14-5-29-1-16-1-21-1-63 0-42 0-47 1-63 1-15 3-23 5-29 3-7 7-12 12-18 6-5 11-9 18-12 5-2 14-4 29-5 16-1 21-1 63-1 42 0 47 0 63 1 15 1 23 3 29 5 7 3 12 7 18 12 5 6 9 11 12 18 2 5 4 14 5 29z m-42 127c-11 0-21 10-21 21 0 12 10 22 21 22 12 0 22-10 22-22 0-11-10-21-22-21z m-85 21c47 0 85-38 85-85 0-47-38-85-85-85-47 0-85 38-85 85 0 47 38 85 85 85z m0-128c24 0 43 19 43 43 0 24-19 43-43 43-24 0-43-19-43-43 0-24 19-43 43-43z"/>
<glyph glyph-name="ic-intercom" unicode="&#80;" d="M448 427l0-384-128 64-192 0c-24 0-43 19-43 42l0 278c0 23 19 42 43 42l277 0c24 0 43-19 43-42z m-316-231c32-23 82-36 135-36 53 0 102 13 134 36l-12 18c-28-20-73-33-122-33-49 0-94 13-122 33z m-4 167l0-86 21 0 0 86z m64 21l0-128 21 0 0 128z m64 21l0-170 21 0 0 170z m64-21l0-128 21 0 0 128z m64-21l0-86 21 0 0 86z"/>
<glyph glyph-name="ic-link" unicode="&#81;" d="M256 347l15-16-30-30-30 30c-9 9-9 22 0 31l60 60c42 42 109 42 151 0 42-42 42-109 0-151l-60-60c-9-9-22-9-31 0l-30 30 30 30 16-15 45 45c25 25 25 66 0 91-25 25-66 25-91 0z m-91-91l-45-45c-25-25-25-66 0-91 25-25 66-25 91 0l45 45-15 16 30 30 30-30c9-9 9-22 0-31l-60-60c-42-42-109-42-151 0-42 42-42 109 0 151l60 60c9 9 22 9 31 0l30-30-30-30z m16-45l120 120c9 9 22 9 30 0 9-8 9-21 0-30l-120-120c-9-9-22-9-30 0-9 8-9 21 0 30z"/>
<glyph glyph-name="ic-linkedin" unicode="&#82;" d="M112 306l61 0 0-199-61 0z m31 99c19 0 36-16 36-36 0-19-17-36-36-36-20 0-36 17-36 36 0 20 16 36 36 36z m69-99l60 0 0-27 0 0c9 16 29 32 59 32 63 0 74-41 74-95l0-109-61 0 0 97c0 23-1 53-33 53-32 0-37-26-37-52l0-98-62 0 0 199z"/>
<glyph glyph-name="ic-livechat" unicode="&#83;" d="M410 205l-282 0-84-95c-16-16-44-5-44 18l0 358c0 15 11 26 26 26l358 0c14 0 26-11 26-26l0-76 76 0c15 0 26-12 26-26l0-358c0-23-28-35-44-18l-95 94-219 0c-15 0-26 12-26 26l0 51 307 0 0 231-25 0z"/>
<glyph glyph-name="ic-loading" unicode="&#84;" d="M261 372c-26 0-48 22-48 49 0 27 22 48 48 48 27 0 48-21 48-48 0-27-21-49-48-49z m2-324c-15 0-28 13-28 29 0 17 13 30 28 30 16 0 29-13 29-30 0-16-13-29-29-29z m-132 270c-24 0-44 19-44 43 0 25 20 44 44 44 24 0 43-19 43-44 0-24-19-43-43-43z m256-217c-14 0-24 11-24 24 0 13 10 24 24 24 13 0 24-11 24-24 0-13-11-24-24-24z m-306 98c-21 0-38 18-38 39 0 22 17 39 38 39 21 0 39-17 39-39 0-21-18-39-39-39z m365 18c-11 0-19 9-19 20 0 10 8 19 19 19 10 0 19-9 19-19 0-11-9-20-19-20z m-329-78c13 14 34 14 47 0 13-13 13-35 0-48-13-13-34-13-47 0-14 13-14 35 0 48z m304 191c-9 0-16 7-16 16 0 9 7 17 16 17 9 0 16-8 16-17 0-9-7-16-16-16z"/>
<glyph glyph-name="ic-login" unicode="&#85;" d="M469 87c0-42 0-44-87-44l-252 0c-87 0-87 0-87 44 0 33 46 60 87 73 78 26 72 50 72 50l-1 15c0 0-29 29-31 57 0 0-17 7-17 30 0 23 8 22 8 22 0 0-3 48 0 66 3 18 15 69 98 69 84 0 88-47 90-51 3-15 7-20 4-82 0 0 10-8 7-27-2-19-14-25-14-25 0 0-7-32-34-60l0-15c0 0-6-21 70-49 32-11 87-40 87-73z"/>
<glyph glyph-name="ic-logout" unicode="&#86;" d="M215 179l55 56-206 0 0 42 206 0-55 56 30 30 107-107-107-107z m190 269c12 0 22-4 31-13 8-8 12-18 12-30l0-298c0-12-4-22-12-31-9-8-19-12-31-12l-298 0c-12 0-22 4-30 12-9 9-13 19-13 31l0 85 43 0 0-85 298 0 0 298-298 0 0-85-43 0 0 85c0 12 4 22 13 30 8 9 18 13 30 13z"/>
<glyph glyph-name="ic-magnifier" unicode="&#87;" d="M348 194l111-111c9-9 9-22 0-30-8-9-21-9-30 0l-111 111c-29-23-65-36-105-36-94 0-170 76-170 171 0 94 76 170 170 170 95 0 171-76 171-170 0-40-13-76-36-105z m-135-23c71 0 128 57 128 128 0 70-57 128-128 128-70 0-128-58-128-128 0-71 58-128 128-128z"/>
<glyph glyph-name="ic-menu-burger" unicode="&#88;" d="M64 405l384 0 0-74-384 0z m0-123l384 0 0-74-384 0z m0-123l384 0 0-74-384 0z"/>
<glyph glyph-name="ic-minus" unicode="&#89;" d="M123 235l266 0c9 0 16 9 16 21 0 12-7 21-16 21l-266 0c-9 0-16-9-16-21 0-12 7-21 16-21z"/>
<glyph glyph-name="ic-phone" unicode="&#90;" d="M296 106l41 62c6 8 16 13 26 11l128-26c12-2 21-13 21-25l0-102c0-15-11-26-26-26-45 0-86 7-125 21-154 51-291 188-341 343-13 38-20 78-20 122 0 15 11 26 26 26l102 0c12 0 23-9 25-21l26-128c2-10-3-20-11-26l-62-41c45-77 113-145 190-190z"/>
<glyph glyph-name="ic-plus" unicode="&#48;" d="M277 277l0 107c0 12-9 21-21 21-12 0-21-9-21-21l0-107-107 0c-12 0-21-9-21-21 0-12 9-21 21-21l107 0 0-107c0-12 9-21 21-21 12 0 21 9 21 21l0 107 107 0c12 0 21 9 21 21 0 12-9 21-21 21z"/>
<glyph glyph-name="ic-question" unicode="&#49;" d="M256 85c-94 0-171 77-171 171 0 94 77 171 171 171 94 0 171-77 171-171 0-94-77-171-171-171z m-17 143l0-12 22 0 2 8c1 5 3 10 6 14 3 4 8 9 15 15 5 6 10 10 13 14 4 4 7 9 9 14 2 5 4 11 4 17 0 8-3 16-8 22-4 7-11 12-19 16-9 3-18 5-29 5-12 0-23-2-34-5-12-4-21-9-28-15l13-28c7 5 15 9 23 12 8 4 16 5 23 5 6 0 11-1 14-4 4-3 5-7 5-12 0-4-1-8-3-12-2-3-5-7-10-13-6-6-10-13-13-18-4-6-5-14-5-23z m-9-69l41 0 0 41-41 0z"/>
<glyph glyph-name="ic-server" unicode="&#50;" d="M43 469l426 0 0-128-426 0z m64-85c11 0 21 10 21 21 0 12-10 22-21 22-12 0-22-10-22-22 0-11 10-21 22-21z m64 43l0-43 256 0 0 43z m-128-107l426 0 0-128-426 0z m64-85c11 0 21 9 21 21 0 12-10 21-21 21-12 0-22-9-22-21 0-12 10-21 22-21z m64 42l0-42 256 0 0 42z m-128-106l426 0 0-128-426 0z m64-86c11 0 21 10 21 22 0 11-10 21-21 21-12 0-22-10-22-21 0-12 10-22 22-22z m64 43l0-43 256 0 0 43z"/>
<glyph glyph-name="ic-services" unicode="&#51;" d="M203 420l14 36c3 8 10 13 19 13l40 0c9 0 16-5 19-13l14-36c9-2 18-6 26-10l35 15c7 4 16 2 22-4l29-29c6-6 8-15 4-22l-15-35c4-8 8-17 11-26l35-14c8-3 13-10 13-19l0-40c0-9-5-16-13-19l-35-14c-3-9-7-18-11-26l15-35c4-7 2-16-4-22l-29-29c-6-6-15-8-22-4l-35 15c-8-4-17-8-26-11l-14-35c-3-8-10-13-19-13l-40 0c-9 0-16 5-19 13l-14 35c-9 3-18 7-26 11l-35-15c-7-4-16-2-22 4l-29 29c-6 6-8 15-4 22l15 35c-4 8-8 17-10 26l-36 14c-8 3-13 10-13 19l0 40c0 9 5 16 13 19l36 14c2 9 6 18 10 26l-15 35c-4 7-2 16 4 22l29 29c6 6 15 8 22 4l35-15c8 4 17 8 26 10z m53-235c39 0 71 32 71 71 0 39-32 71-71 71-39 0-71-32-71-71 0-39 32-71 71-71z"/>
<glyph glyph-name="ic-share" unicode="&#52;" d="M139 341c23 0 42 19 42 43 0 24-19 43-42 43-24 0-43-19-43-43 0-24 19-43 43-43z m151-102c-1 6-2 11-2 17 0 7 1 15 3 22l-88 50c-15-18-39-29-64-29-47 0-86 38-86 85 0 47 39 85 86 85 47 0 85-38 85-85 0-6-1-12-2-17l90-52c15 16 37 26 61 26 47 0 86-38 86-85 0-47-39-85-86-85-26 0-49 11-65 30l-87-51c2-7 3-14 3-22 0-47-38-85-85-85-47 0-86 38-86 85 0 47 39 85 86 85 24 0 45-10 61-25z m-151-154c23 0 42 19 42 43 0 24-19 43-42 43-24 0-43-19-43-43 0-24 19-43 43-43z m234 128c24 0 43 19 43 43 0 24-19 43-43 43-23 0-42-19-42-43 0-24 19-43 42-43z"/>
<glyph glyph-name="ic-sort" unicode="&#53;" d="M256 117l-107 107 214 0z m0 278l107-107-214 0z"/>
<glyph glyph-name="ic-tag" unicode="&#54;" d="M437 264c8-8 12-17 12-27 0-11-4-20-12-27l-134-135c-8-7-17-11-28-11-10 0-19 4-26 11l-173 173c-8 8-12 17-12 27l0 135c0 10 4 19 11 27 8 7 17 11 28 11l134 0c11 0 20-4 27-11z m-306 88c8 0 15 3 21 9 6 5 8 12 8 20 0 8-2 15-8 21-6 5-13 8-21 8-8 0-15-3-20-8-6-6-8-13-8-21 0-8 2-15 8-20 5-6 12-9 20-9z"/>
<glyph glyph-name="ic-twitter" unicode="&#55;" d="M427 354c-13-5-26-9-41-10 15 8 26 20 31 35-13-7-28-13-44-15-13 12-31 20-51 20-39 0-70-29-70-65 0-5 0-10 1-14-58 2-109 28-144 67-6-9-9-20-9-32 0-23 12-43 31-54-12 0-23 3-32 8 0 0 0-1 0-1 0-31 24-57 56-63-6-2-12-2-18-2-5 0-9 0-13 1 9-26 34-45 65-45-24-18-54-28-87-28-6 0-11 0-17 1 31-18 68-29 108-29 128 0 199 98 199 184 0 3 0 5 0 8 13 9 25 21 35 34z"/>
<glyph glyph-name="ic-unlink" unicode="&#56;" d="M212 363l59 59c42 42 109 42 151 0 42-42 42-109 0-151l-59-59 60-61c9-9 9-22 0-30-8-9-21-9-30 0l-271 271c-9 8-9 22 0 30 8 9 22 9 30 0z m120-121l60 59c25 25 25 66 0 91-25 25-66 25-91 0l-59-60z m-182 59c9 9 22 9 31 0 8-8 8-22 0-30l-61-60c-25-25-25-66 0-91 25-25 66-25 91 0l60 61c8 8 22 8 30 0 9-9 9-22 0-31l-60-60c-42-42-109-42-151 0-42 42-42 109 0 151z m96-56c8-9 8-22 0-31l-44-44c-9-8-22-8-31 0-8 8-8 22 0 30l45 45c8 8 22 8 30 0z"/>
<glyph glyph-name="ic-upload" unicode="&#57;" d="M426 266c26-14 43-42 43-74 0-47-38-85-85-85l-256 0c-47 0-85 38-85 85 0 22 8 42 21 57 0 2 0 5 0 7 0 82 67 149 149 149 42 0 80-17 107-45 7 2 14 3 21 3 47 0 86-39 86-86 0-3-1-7-1-11z m-127-31l42 0-85 64-85-64 42 0 0-86 86 0z"/>
<glyph glyph-name="ic-wordpress" unicode="&#33;" d="M110 250c0 21 4 41 12 60l70-192c-49 24-82 74-82 132z m245 7c0-12-5-27-11-47l-15-49-53 157c0 0 9 1 17 2 8 1 7 13-1 12-24-2-39-2-39-2 0 0-14 0-39 2-8 1-8-11 0-12 7-1 15-2 15-2l23-62-32-96-54 158c0 0 9 1 17 2 8 1 7 13-1 12-24-2-39-2-39-2-3 0-6 0-9 0 26 40 71 66 122 66 38 0 73-14 99-38l-2 0c-14 0-25-12-25-26 0-12 7-22 15-34 6-10 12-23 12-41z m-97-20l46-123c0-1 0-2 1-2-16-6-32-9-49-9-14 0-28 3-41 7z m126 83c12-21 18-45 18-70 0-54-29-101-72-127l44 130c8 21 12 37 12 52 0 5-1 10-2 15z m-128 101c94 0 171-77 171-171 0-94-77-171-171-171-94 0-171 77-171 171 0 94 77 171 171 171z m0-334c90 0 163 73 163 163 0 90-73 163-163 163-90 0-163-73-163-163 0-90 73-163 163-163z"/>
</font>
</defs>
</svg>
