<?xml version="1.0" encoding="utf-8"?>
<!-- Generator: Adobe Illustrator 20.1.0, SVG Export Plug-In . SVG Version: 6.00 Build 0)  -->
<svg version="1.1" xmlns="http://www.w3.org/2000/svg" xmlns:xlink="http://www.w3.org/1999/xlink" x="0px" y="0px"
	 viewBox="0 0 400.285 250" enable-background="new 0 0 400.285 250" xml:space="preserve">
<g id="Layer_6">
	
		<path fill-rule="evenodd" clip-rule="evenodd" fill="none" stroke="#288EEA" stroke-width="2" stroke-linecap="round" stroke-linejoin="round" stroke-miterlimit="10" stroke-dasharray="5" d="
		M74,158V66c0-19.882,16.118-36,36-36h0c19.882,0,36,16.118,36,36v84.976c0,18.916,15.334,34.25,34.25,34.25h22.892"/>
	<circle fill="#FFFFFF" stroke="#288EEA" stroke-width="2" stroke-miterlimit="10" cx="74.18" cy="156.931" r="43.135"/>
	
		<path fill-rule="evenodd" clip-rule="evenodd" fill="none" stroke="#288EEA" stroke-width="2" stroke-linecap="round" stroke-linejoin="round" stroke-miterlimit="10" stroke-dasharray="5" d="
		M331.064,98.589v92c0,19.882-16.118,36-36,36h0c-19.882,0-36-16.118-36-36v-11.697c0-18.916-15.334-34.25-34.25-34.25h-22.892"/>
	<path fill="#FFFFFF" stroke="#288EEA" stroke-width="2" stroke-miterlimit="10" d="M91.654,112.623v9.91
		c0,9.615-7.875,17.474-17.474,17.474h-0.016c-9.599,0-17.459-7.86-17.459-17.474v-9.91H91.654z"/>
	
		<path fill="#D9EDFF" stroke="#288EEA" stroke-width="2" stroke-linecap="round" stroke-linejoin="round" stroke-miterlimit="10" d="
		M91.654,105.757v2.143H56.706v-2.143c0-2.968,0.75-7.324,2.069-9.779c2.248-4.185,7.302-6.055,11.815-4.57
		c1.127,0.371,2.33,0.571,3.575,0.571h0.016c1.256,0,2.464-0.201,3.595-0.574c4.507-1.485,9.552,0.39,11.804,4.567
		C90.902,98.428,91.654,102.784,91.654,105.757z"/>
	<line fill="none" stroke="#288EEA" stroke-width="2" stroke-miterlimit="10" x1="47.532" y1="108.035" x2="100.828" y2="108.035"/>
	
		<path fill="#D9EDFF" stroke="#288EEA" stroke-width="2" stroke-linecap="round" stroke-linejoin="round" stroke-miterlimit="10" d="
		M97.828,162.595H50.532c-1.65,0-3-1.35-3-3v-23.029c0-1.65,1.35-3,3-3h47.297c1.65,0,3,1.35,3,3v23.029
		C100.828,161.245,99.478,162.595,97.828,162.595z"/>
	<g>
		
			<line fill="none" stroke="#288EEA" stroke-width="2" stroke-linecap="round" stroke-miterlimit="10" x1="53.408" y1="124.754" x2="53.408" y2="133.566"/>
		
			<line fill="none" stroke="#288EEA" stroke-width="2" stroke-linecap="round" stroke-miterlimit="10" x1="94.952" y1="124.754" x2="94.952" y2="133.566"/>
	</g>
	<circle fill="#FFFFFF" stroke="#288EEA" stroke-miterlimit="10" cx="74.18" cy="148.188" r="3.777"/>
	<g>
		<path fill="#288EEA" d="M60.25,118.702l4.404,4.171c2.077,1.967,5.464,1.377,6.752-1.178v0L60.25,118.702z"/>
		<path fill="#288EEA" d="M88.11,118.702l-4.404,4.171c-2.077,1.967-5.464,1.377-6.752-1.178v0L88.11,118.702z"/>
	</g>
</g>
<g id="Layer_3">
	<g>
		<g>
			
				<path fill="#FFFFFF" stroke="#288EEA" stroke-width="2" stroke-linecap="round" stroke-linejoin="round" stroke-miterlimit="10" d="
				M378.932,94.537H279.32c-2.29,0-4.164-1.874-4.164-4.164V30.036c0-2.29,1.874-4.164,4.164-4.164h99.612
				c2.29,0,4.164,1.874,4.164,4.164v60.337C383.096,92.663,381.222,94.537,378.932,94.537z"/>
			
				<rect x="280.493" y="29.767" fill="#FFFFFF" stroke="#288EEA" stroke-linecap="round" stroke-linejoin="round" stroke-miterlimit="10" width="97.266" height="61.875"/>
			
				<path fill="#FFFFFF" stroke="#288EEA" stroke-width="2" stroke-linecap="round" stroke-linejoin="round" stroke-miterlimit="10" d="
				M263,91v2.515c0,2.488,2.284,4.485,4.772,4.485h123.462c2.488,0,3.766-1.998,3.766-4.485V91H263z"/>
			<rect x="317.5" y="90.771" fill="#FFFFFF" stroke="#288EEA" stroke-miterlimit="10" width="23.251" height="3.5"/>
		</g>
		<rect x="280.493" y="29.767" fill="#FFFFFF" stroke="#288EEA" stroke-miterlimit="10" width="97.266" height="6.334"/>
		<g>
			<path fill="#39B151" d="M284.796,32.478h-0.25v-0.5c0-0.254-0.207-0.461-0.461-0.461s-0.461,0.207-0.461,0.461v0.5h-0.25v-0.5
				c0-0.392,0.319-0.711,0.711-0.711s0.711,0.319,0.711,0.711V32.478z"/>
		</g>
		<path fill="#39B151" d="M284.827,34.051h-1.479c-0.107,0-0.195-0.088-0.195-0.195v-1.479c0-0.107,0.088-0.195,0.195-0.195h1.479
			c0.107,0,0.195,0.088,0.195,0.195v1.479C285.023,33.963,284.935,34.051,284.827,34.051z"/>
		<rect x="286.015" y="32.181" opacity="0.5" fill="#39B151" width="15.626" height="1.87"/>
		<circle fill="#39B151" cx="374.638" cy="32.947" r="0.648"/>
		<circle fill="#288EEA" cx="371.606" cy="32.947" r="0.648"/>
		<circle fill="#288EEA" cx="368.575" cy="32.947" r="0.648"/>
		<g>
			<rect x="283" y="64" fill="#DDDDDD" width="48" height="2"/>
			<rect x="283" y="68" fill="#DDDDDD" width="48" height="2"/>
			<rect x="283" y="72" fill="#DDDDDD" width="42" height="2"/>
			<rect x="283" y="76" fill="#DDDDDD" width="36" height="2"/>
		</g>
		<g>
			<rect x="338" y="40" fill="#DDDDDD" width="15" height="3"/>
			<rect x="338" y="45" fill="#DDDDDD" width="15" height="2"/>
			<rect x="338" y="49" fill="#DDDDDD" width="14" height="2"/>
			<rect x="338" y="55" fill="#DDDDDD" width="12" height="2"/>
			<rect x="338" y="58" fill="#DDDDDD" width="10" height="2"/>
			<rect x="358" y="40" fill="#DDDDDD" width="14" height="3"/>
			<rect x="358" y="45" fill="#DDDDDD" width="14" height="2"/>
			<rect x="358" y="49" fill="#DDDDDD" width="14" height="2"/>
			<rect x="358" y="55" fill="#DDDDDD" width="12" height="2"/>
			<rect x="358" y="58" fill="#DDDDDD" width="9" height="2"/>
		</g>
		<rect x="283.141" y="40.321" fill="#DDDDDD" width="17.553" height="17.553"/>
		<rect x="302.815" y="46.768" fill="#DDDDDD" width="12.327" height="11.106"/>
		<rect x="317.992" y="46.768" fill="#DDDDDD" width="12.327" height="11.106"/>
		<rect x="338.393" y="62.769" fill="#A9D2F7" width="9.631" height="8.376"/>
		<rect x="351.114" y="62.769" fill="#A9D2F7" width="9.631" height="8.376"/>
		<rect x="363.835" y="62.769" fill="#A9D2F7" width="9.631" height="8.376"/>
		<path fill="#288EEA" d="M370.645,84.187h-28.752c-1.65,0-3-1.35-3-3V80.77c0-1.65,1.35-3,3-3h28.752c1.65,0,3,1.35,3,3v0.417
			C373.645,82.837,372.295,84.187,370.645,84.187z"/>
	</g>
	<g>
		<g>
			
				<path fill="#FFFFFF" stroke="#288EEA" stroke-width="2" stroke-linecap="round" stroke-linejoin="round" stroke-miterlimit="10" d="
				M124.417,226.537H24.805c-2.29,0-4.164-1.874-4.164-4.164v-60.337c0-2.29,1.874-4.164,4.164-4.164h99.612
				c2.29,0,4.164,1.874,4.164,4.164v60.337C128.581,224.663,126.707,226.537,124.417,226.537z"/>
			<rect x="25.978" y="161.767" fill="#D4E8FB" width="97.266" height="61.875"/>
			
				<path fill="#FFFFFF" stroke="#288EEA" stroke-width="2" stroke-linecap="round" stroke-linejoin="round" stroke-miterlimit="10" d="
				M8,222v2.606c0,2.488,2.589,4.394,5.077,4.394h123.462c2.488,0,3.461-1.906,3.461-4.394V222H8z"/>
			<rect x="62.986" y="221.771" fill="#FFFFFF" stroke="#288EEA" stroke-miterlimit="10" width="23.251" height="3.5"/>
		</g>
		<rect x="25.978" y="161.767" fill="#288EEA" width="97.266" height="6.334"/>
		<circle fill="#39B151" cx="120.123" cy="164.947" r="0.648"/>
		<circle fill="#D4E8FB" cx="117.091" cy="164.947" r="0.648"/>
		<circle fill="#D4E8FB" cx="114.06" cy="164.947" r="0.648"/>
		<g>
			<g>
				
					<rect x="28.838" y="173.053" transform="matrix(1 -0.0051 0.0051 1 -0.8904 0.1781)" fill="#8DC4FB" width="10.978" height="1.849"/>
				
					<rect x="41.784" y="173.053" transform="matrix(1 -0.0051 0.0051 1 -0.8913 0.2446)" fill="#8DC4FB" width="10.978" height="1.849"/>
				
					<rect x="54.73" y="173.036" transform="matrix(1 -0.0051 0.0051 1 -0.891 0.3289)" fill="#8DC4FB" width="17.947" height="1.849"/>
				
					<rect x="32.884" y="176.915" transform="matrix(1 -0.0051 0.0051 1 -0.9076 0.1858)" fill="#8DC4FB" width="6.079" height="1.849"/>
				
					<rect x="42.131" y="176.915" transform="matrix(1 -0.0051 0.0051 1 -0.9075 0.233)" fill="#8DC4FB" width="6.079" height="1.849"/>
				
					<rect x="51.379" y="176.884" transform="matrix(1 -0.0051 0.0051 1 -0.9108 0.312)" fill="#8DC4FB" width="18.033" height="1.849"/>
				
					<rect x="29.185" y="180.526" transform="matrix(1 -0.0051 0.0051 1 -0.9296 0.2551)" fill="#8DC4FB" width="40.223" height="1.849"/>
			</g>
			<g>
				
					<rect x="28.838" y="198.053" transform="matrix(1 -0.0051 0.0051 1 -1.0184 0.1784)" fill="#8DC4FB" width="10.978" height="1.849"/>
				
					<rect x="41.784" y="198.053" transform="matrix(1 -0.0051 0.0051 1 -1.0195 0.245)" fill="#8DC4FB" width="10.978" height="1.849"/>
				<polygon fill="#8DC4FB" points="86.237,199.839 86.22,197.99 54.725,198.082 54.742,199.931 				"/>
				
					<rect x="32.884" y="201.915" transform="matrix(1 -0.0051 0.0051 1 -1.0353 0.1861)" fill="#8DC4FB" width="6.079" height="1.849"/>
				
					<rect x="42.131" y="201.915" transform="matrix(1 -0.0051 0.0051 1 -1.0352 0.2333)" fill="#8DC4FB" width="6.079" height="1.849"/>
				
					<rect x="71.131" y="201.915" transform="matrix(1 -0.0051 0.0051 1 -1.0348 0.3814)" fill="#F7FFF8" width="6.079" height="1.849"/>
				
					<rect x="51.379" y="201.884" transform="matrix(1 -0.0054 0.0054 1 -1.0925 0.3311)" fill="#8DC4FB" width="18.963" height="1.849"/>
				<polygon fill="#8DC4FB" points="29.18,205.629 29.184,207.479 42.821,207.273 42.818,205.423 				"/>
				<polygon fill="#8DC4FB" points="45.18,205.629 45.183,207.479 57.167,207.273 57.164,205.423 				"/>
				<polygon fill="#8DC4FB" points="59.18,205.629 59.182,207.479 65.918,207.273 65.917,205.423 				"/>
			</g>
			<g>
				
					<rect x="29.747" y="185.398" transform="matrix(1 -0.0051 0.0051 1 -0.9535 0.1822)" fill="#F7FFF8" width="10.699" height="1.802"/>
				
					<rect x="42.364" y="185.398" transform="matrix(1 -0.0051 0.0051 1 -0.9545 0.2471)" fill="#F7FFF8" width="10.699" height="1.802"/>
				<polygon fill="#F7FFF8" points="60.654,187.138 60.651,185.336 54.976,185.425 54.979,187.228 				"/>
				
					<rect x="33.691" y="189.161" transform="matrix(1 -0.0051 0.0051 1 -0.97 0.1896)" fill="#F7FFF8" width="5.925" height="1.802"/>
				
					<rect x="42.703" y="189.161" transform="matrix(1 -0.0051 0.0051 1 -0.9699 0.2357)" fill="#F7FFF8" width="5.925" height="1.802"/>
				
					<rect x="51.715" y="189.131" transform="matrix(1 -0.0051 0.0051 1 -0.9735 0.3127)" fill="#F7FFF8" width="17.574" height="1.802"/>
				<polygon fill="#8DC4FB" points="70.71,189.176 70.714,190.978 78.504,190.888 78.5,189.086 				"/>
				<polygon fill="#F7FFF8" points="30.082,192.781 30.086,194.583 48.505,194.382 48.5,192.58 				"/>
				<polygon fill="#8DC4FB" points="50.082,192.781 50.086,194.583 68.505,194.382 68.5,192.58 				"/>
				<polygon fill="#F7FFF8" points="69.082,192.781 69.084,194.583 80.75,194.382 80.747,192.58 				"/>
			</g>
		</g>
	</g>
	<g>
		<rect x="99.742" y="174.001" opacity="0.8" fill="#DDDDDD" width="52.097" height="38"/>
		<rect x="102.075" y="170.918" fill="#288EEA" width="52.096" height="38"/>
		<rect x="103.758" y="176.084" fill="#FFFFFF" width="48.731" height="31.833"/>
		<g>
			<path fill="#288EEA" d="M117.546,192.501l4.247,1.586v2.096l-6.182-2.486v-2.392l6.182-2.486v2.097L117.546,192.501z"/>
			<path fill="#288EEA" d="M124.618,198.239l4.421-12.229h2.526l-4.421,12.229H124.618z"/>
			<path fill="#288EEA" d="M138.486,192.367l-4.247-1.586v-2.096l6.182,2.486v2.392l-6.182,2.486v-2.097L138.486,192.367z"/>
		</g>
	</g>
</g>
<g id="Layer_5">
	<polygon fill="#D9EDFF" stroke="#288EEA" stroke-linecap="round" stroke-linejoin="round" stroke-miterlimit="10" points="
		202.086,199.609 218.52,205.87 209.914,215.065 193.48,208.804 	"/>
	<polygon fill="#D9EDFF" stroke="#288EEA" stroke-linecap="round" stroke-linejoin="round" stroke-miterlimit="10" points="
		202.086,196.281 218.52,202.542 209.914,211.737 193.48,205.476 	"/>
	<g>
		<path fill-rule="evenodd" clip-rule="evenodd" fill="#D4E8FB" stroke="#298EEA" stroke-width="2" stroke-miterlimit="10" d="
			M263.57,97.946h-13.629l7.733-12.965h17.373c0.258,5.156,4.508,9.26,9.729,9.26c5.221,0,9.471-4.104,9.73-9.26h15.521l9.26,12.965
			h-16.23H263.57z"/>
		
			<circle fill-rule="evenodd" clip-rule="evenodd" fill="#FFFFFF" stroke="#288EEA" stroke-width="2" stroke-linecap="round" stroke-miterlimit="10" cx="283.523" cy="59.036" r="22.982"/>
		
			<path fill-rule="evenodd" clip-rule="evenodd" fill="#FFFFFF" stroke="#288EEA" stroke-width="2" stroke-linecap="round" stroke-miterlimit="10" d="
			M260.856,58.312c0,0,12.308-0.247,23.668-3.457c11.36-3.21,15.743-9.507,15.743-9.507"/>
		
			<path fill-rule="evenodd" clip-rule="evenodd" fill="#FFFFFF" stroke="#288EEA" stroke-width="2" stroke-linecap="round" stroke-miterlimit="10" d="
			M306.505,59.036c0,0-12.431-0.286-16.188-6.309"/>
	</g>
	<g>
		<g>
			<path fill="#FFFFFF" stroke="#288EEA" stroke-width="2" stroke-miterlimit="10" d="M330,9.563l-17.63,6.259
				c0,0,0.271,11.899,3.247,19.804C319.675,46.402,330,49.971,330,49.971s10.325-3.569,14.381-14.345
				c2.978-7.905,3.249-19.804,3.249-19.804L330,9.563z"/>
		</g>
		<g>
			<path fill="#39B151" d="M330,13.226l-14.433,5.124c0,0,0.222,9.741,2.659,16.213C321.547,43.386,330,46.308,330,46.308
				s8.453-2.922,11.773-11.744c2.438-6.472,2.66-16.213,2.66-16.213L330,13.226z"/>
		</g>
		<g>
			<path fill-rule="evenodd" clip-rule="evenodd" fill="#FFFFFF" d="M325.615,28.654l1.085-1.085l2.401,2.401l6.662-6.662
				l1.085,1.085L329.1,32.14L325.615,28.654z M329.875,22.844c-3.408,0-6.197,2.789-6.197,6.197s2.789,6.197,6.197,6.197
				s6.197-2.789,6.197-6.197h1.549c0,4.261-3.486,7.747-7.747,7.747s-7.747-3.486-7.747-7.747s3.486-7.747,7.747-7.747
				c1.007,0,2.014,0.232,2.944,0.542l-1.239,1.239C331.037,22.921,330.495,22.844,329.875,22.844z"/>
		</g>
	</g>
	<polygon fill="#D9EDFF" stroke="#288EEA" stroke-linecap="round" stroke-linejoin="round" stroke-miterlimit="10" points="
		202.086,192.952 218.52,199.214 209.914,208.409 193.48,202.147 	"/>
</g>
<g id="Layer_1">
	<g>
		
			<line fill-rule="evenodd" clip-rule="evenodd" fill="none" stroke="#288EEA" stroke-width="4" stroke-linecap="round" stroke-miterlimit="10" x1="205" y1="83" x2="205" y2="91"/>
		
			<line fill-rule="evenodd" clip-rule="evenodd" fill="none" stroke="#288EEA" stroke-width="4" stroke-linecap="round" stroke-miterlimit="10" x1="216.846" y1="87.326" x2="211.553" y2="92.706"/>
		
			<line fill-rule="evenodd" clip-rule="evenodd" fill="none" stroke="#288EEA" stroke-width="4" stroke-linecap="round" stroke-miterlimit="10" x1="193.439" y1="87.326" x2="198.732" y2="92.706"/>
	</g>
	<circle fill-rule="evenodd" clip-rule="evenodd" fill="#288EEA" cx="106.467" cy="52.5" r="1.195"/>
	<path fill="none" stroke="#DDDDDD" stroke-width="2" stroke-miterlimit="10" d="M112.234,47.068l4.834,4.834
		c0.33,0.33,0.33,0.866,0,1.196l-4.834,4.834c-0.533,0.533-1.444,0.155-1.444-0.598v-9.667
		C110.79,46.913,111.701,46.535,112.234,47.068z"/>
	<g>
		<path fill="#DDDDDD" d="M268.181,140.819c-2.857,0-5.181,2.324-5.181,5.181c0,2.857,2.324,5.181,5.181,5.181
			c2.857,0,5.181-2.325,5.181-5.181C273.362,143.143,271.038,140.819,268.181,140.819z M268.181,149.136
			c-1.729,0-3.136-1.407-3.136-3.136c0-1.729,1.406-3.136,3.136-3.136c1.729,0,3.136,1.407,3.136,3.136
			C271.317,147.729,269.91,149.136,268.181,149.136z"/>
	</g>
	<g>
		<path fill="#288EEA" d="M265.045,146c0-1.729,1.407-3.136,3.136-3.136V142.8v-1.725v-0.257c-2.857,0-5.181,2.324-5.181,5.181
			c0,0.156,0.01,0.31,0.024,0.463l2.034-0.21C265.052,146.17,265.045,146.085,265.045,146z"/>
	</g>
	<g>
		<circle fill-rule="evenodd" clip-rule="evenodd" fill="#EDEDED" cx="169.535" cy="107.736" r="1.195"/>
		<circle fill-rule="evenodd" clip-rule="evenodd" fill="#288EEA" cx="174.98" cy="104" r="1.195"/>
	</g>
	<g>
		<circle fill-rule="evenodd" clip-rule="evenodd" fill="#EDEDED" cx="301.277" cy="209.785" r="1.195"/>
		<circle fill-rule="evenodd" clip-rule="evenodd" fill="#288EEA" cx="306.723" cy="206.05" r="1.195"/>
	</g>
	<circle fill-rule="evenodd" clip-rule="evenodd" fill="#80C9FF" cx="229.615" cy="203.12" r="1.195"/>
	<circle fill-rule="evenodd" clip-rule="evenodd" fill="#80C9FF" cx="283.24" cy="159.479" r="1.195"/>
	<g>
		<path fill-rule="evenodd" clip-rule="evenodd" fill="#80C9FF" d="M311.831,176.669c0,0.474-0.384,0.857-0.857,0.857l0,0
			c-0.474,0-0.857-0.384-0.857-0.857v-4.163c0-0.474,0.384-0.857,0.857-0.857l0,0c0.474,0,0.857,0.384,0.857,0.857V176.669z"/>
		<path fill-rule="evenodd" clip-rule="evenodd" fill="#80C9FF" d="M311.831,184.792c0,0.474-0.384,0.857-0.857,0.857l0,0
			c-0.474,0-0.857-0.384-0.857-0.857v-4.163c0-0.474,0.384-0.857,0.857-0.857l0,0c0.474,0,0.857,0.384,0.857,0.857V184.792z"/>
		<path fill-rule="evenodd" clip-rule="evenodd" fill="#80C9FF" d="M312.953,179.363c-0.474,0-0.857-0.384-0.857-0.857l0,0
			c0-0.474,0.384-0.857,0.857-0.857h4.163c0.474,0,0.857,0.384,0.857,0.857l0,0c0,0.474-0.384,0.857-0.857,0.857H312.953z"/>
		<path fill-rule="evenodd" clip-rule="evenodd" fill="#80C9FF" d="M304.831,179.363c-0.474,0-0.857-0.384-0.857-0.857l0,0
			c0-0.474,0.384-0.857,0.857-0.857h4.163c0.474,0,0.857,0.384,0.857,0.857l0,0c0,0.474-0.384,0.857-0.857,0.857H304.831z"/>
	</g>
	<g>
		<path fill-rule="evenodd" clip-rule="evenodd" fill="#D9EDFF" d="M43.767,86.25c-0.357,0-0.688-0.19-0.866-0.5
			c-0.178-0.31-0.178-0.69,0-1l7.289-12.625c0.179-0.31,0.509-0.5,0.866-0.5s0.688,0.19,0.866,0.5l7.289,12.625
			c0.178,0.31,0.178,0.69,0,1c-0.179,0.31-0.509,0.5-0.866,0.5H43.767z"/>
		<path fill="#288EEA" d="M51.056,72.625l7.289,12.625H43.766L51.056,72.625 M51.056,70.625c-0.715,0-1.375,0.381-1.732,1
			L42.034,84.25c-0.357,0.619-0.357,1.381,0,2c0.357,0.619,1.018,1,1.732,1h14.578c0.715,0,1.375-0.381,1.732-1
			c0.357-0.619,0.357-1.381,0-2l-7.289-12.625C52.43,71.006,51.77,70.625,51.056,70.625L51.056,70.625z"/>
	</g>
	<g>
		<path fill="#288EEA" d="M51.72,83.298c0,0.498-0.348,0.837-0.837,0.837c-0.478,0-0.826-0.339-0.826-0.837
			c0-0.488,0.348-0.827,0.826-0.827C51.372,82.471,51.72,82.81,51.72,83.298z M51.431,81.665h-1.035l-0.299-2.768v-1.772h1.633
			v1.772L51.431,81.665z"/>
	</g>
	<g>
		<g>
			<path fill="#D9EDFF" d="M103.316,183.557c-0.357,0-0.688-0.19-0.866-0.5l-3.442-5.962c-0.178-0.31-0.178-0.69,0-1l3.442-5.962
				c0.179-0.31,0.509-0.5,0.866-0.5h6.884c0.357,0,0.688,0.19,0.866,0.5l3.442,5.962c0.178,0.31,0.178,0.69,0,1l-3.442,5.962
				c-0.179,0.31-0.509,0.5-0.866,0.5H103.316z"/>
			<path fill="#288EEA" d="M110.201,170.633l3.442,5.962l-3.442,5.962h-6.885l-3.442-5.962l3.442-5.962H110.201 M110.201,168.633
				h-6.885c-0.715,0-1.375,0.381-1.732,1l-3.442,5.962c-0.357,0.619-0.357,1.381,0,2l3.442,5.962c0.357,0.619,1.018,1,1.732,1h6.885
				c0.715,0,1.375-0.381,1.732-1l3.442-5.962c0.357-0.619,0.357-1.381,0-2l-3.442-5.962
				C111.575,169.014,110.915,168.633,110.201,168.633L110.201,168.633z"/>
		</g>
		<g>
			<path fill="#288EEA" d="M107.585,179.577c0,0.498-0.348,0.837-0.837,0.837c-0.478,0-0.826-0.339-0.826-0.837
				c0-0.488,0.348-0.827,0.826-0.827C107.237,178.751,107.585,179.089,107.585,179.577z M107.296,177.944h-1.035l-0.299-2.768
				v-1.772h1.633v1.772L107.296,177.944z"/>
		</g>
	</g>
</g>
<g id="Layer_4">
	<g>
		<path fill="#FFFFFF" stroke="#39B151" stroke-width="2" stroke-miterlimit="10" d="M229.615,144.375h-6.756v-18.329
			c0-9.981-8.121-18.102-18.102-18.102c-9.981,0-18.102,8.121-18.102,18.102v18.329h-6.756v-18.329
			c0-13.707,11.151-24.858,24.858-24.858c13.707,0,24.858,11.151,24.858,24.858V144.375z"/>
	</g>
	<path fill="#A8E37B" stroke="#39B151" stroke-width="2" stroke-miterlimit="10" d="M229.624,189.491H179.89
		c-4.198,0-7.633-3.435-7.633-7.633v-39.734c0-4.198,3.435-7.633,7.633-7.633h49.734c4.198,0,7.633,3.435,7.633,7.633v39.734
		C237.257,186.056,233.822,189.491,229.624,189.491z"/>
	<path fill="#FFFFFF" stroke="#39B151" stroke-width="2" stroke-miterlimit="10" d="M212.054,158.565c0-4.07-3.254-7.37-7.324-7.37
		c-4.07,0-7.27,3.3-7.27,7.37c0,2.709,1.371,5.07,3.743,6.35v10.486h7.116v-10.486C210.691,163.635,212.054,161.274,212.054,158.565
		z"/>
	<path fill="none" stroke="#39B151" stroke-width="2" stroke-linecap="round" stroke-miterlimit="10" stroke-dasharray="5,5,50" d="
		M232,146v31.25c0,3.176-2.574,5.75-5.75,5.75H212"/>
</g>
</svg>
