<?xml version="1.0" encoding="utf-8"?>
<!-- Generator: Adobe Illustrator 20.1.0, SVG Export Plug-In . SVG Version: 6.00 Build 0)  -->
<svg version="1.1" xmlns="http://www.w3.org/2000/svg" xmlns:xlink="http://www.w3.org/1999/xlink" x="0px" y="0px"
	 viewBox="0 0 400.285 250" enable-background="new 0 0 400.285 250" xml:space="preserve">
<g id="Layer_6">
	
		<path fill-rule="evenodd" clip-rule="evenodd" fill="#D9EDFF" stroke="#288EEA" stroke-width="2" stroke-linecap="round" stroke-linejoin="round" stroke-miterlimit="10" d="
		M89.5,211.888H34c-1.65,0-3-1.35-3-3v-38.351c0-5.06,4.14-9.2,9.2-9.2h49.3c1.65,0,3,1.35,3,3v44.551
		C92.5,210.538,91.15,211.888,89.5,211.888z"/>
	
		<path fill-rule="evenodd" clip-rule="evenodd" fill="#D9EDFF" stroke="#288EEA" stroke-width="2" stroke-linecap="round" stroke-linejoin="round" stroke-miterlimit="10" d="
		M85.5,215.765H30c-1.65,0-3-1.35-3-3v-44.551c0-1.65,1.35-3,3-3h55.5c1.65,0,3,1.35,3,3v44.551
		C88.5,214.415,87.15,215.765,85.5,215.765z"/>
	
		<path fill-rule="evenodd" clip-rule="evenodd" fill="#FFFFFF" stroke="#288EEA" stroke-width="2" stroke-linecap="round" stroke-linejoin="round" stroke-miterlimit="10" d="
		M45.333,198.469h-18c-1.65,0-3-1.35-3-3v-9.958c0-1.65,1.35-3,3-3h18c1.65,0,3,1.35,3,3v9.958
		C48.333,197.119,46.983,198.469,45.333,198.469z"/>
	
		<circle fill-rule="evenodd" clip-rule="evenodd" fill="#D9EDFF" stroke="#288EEA" stroke-linecap="round" stroke-linejoin="round" stroke-miterlimit="10" cx="34.813" cy="190.425" r="3.354"/>
	<g>
		<g>
			
				<line fill="none" stroke="#288EEA" stroke-width="2" stroke-linecap="round" stroke-linejoin="round" x1="55" y1="165.214" x2="55" y2="162.714"/>
			
				<path fill="none" stroke="#288EEA" stroke-width="2" stroke-linecap="round" stroke-linejoin="round" stroke-dasharray="4.9877,4.9877" d="
				M55,157.726V83.5C55,69.417,66.417,58,80.5,58h0C94.583,58,106,69.417,106,83.5v51c0,14.083,11.417,25.5,25.5,25.5h11.506"/>
			
				<line fill="none" stroke="#288EEA" stroke-width="2" stroke-linecap="round" stroke-linejoin="round" x1="145.5" y1="160" x2="148" y2="160"/>
		</g>
	</g>
	<g opacity="0.5">
		<g>
			<circle fill="#D4E8FB" cx="54.635" cy="120.501" r="13.894"/>
			<path fill="#298EEA" d="M54.635,134.952c-7.969,0-14.452-6.483-14.452-14.452s6.483-14.452,14.452-14.452
				s14.452,6.483,14.452,14.452S62.604,134.952,54.635,134.952z M54.635,107.164c-7.354,0-13.336,5.983-13.336,13.336
				c0,7.354,5.983,13.336,13.336,13.336c7.354,0,13.337-5.983,13.337-13.336C67.972,113.147,61.989,107.164,54.635,107.164z"/>
		</g>
		<g>
			<circle fill="#FFFFFF" cx="54.635" cy="120.501" r="10.572"/>
			<path fill="#298EEA" d="M54.635,131.351c-5.983,0-10.85-4.867-10.85-10.85c0-5.983,4.867-10.85,10.85-10.85
				s10.85,4.867,10.85,10.85C65.486,126.484,60.618,131.351,54.635,131.351z M54.635,110.208c-5.675,0-10.293,4.617-10.293,10.293
				c0,5.675,4.618,10.293,10.293,10.293c5.676,0,10.293-4.617,10.293-10.293C64.928,114.825,60.311,110.208,54.635,110.208z"/>
		</g>
		<g>
			<g>
				<path fill="#298EEA" d="M51.459,122.007h-0.057h-1.547v2.257h-2.039v-8.02h3.586c2.12,0,3.334,1.008,3.334,2.795
					c0,1.226-0.516,2.108-1.455,2.578l1.684,2.647h-2.314L51.459,122.007z M51.402,120.403c0.882,0,1.398-0.447,1.398-1.295
					c0-0.836-0.516-1.26-1.398-1.26h-1.547v2.555H51.402z"/>
			</g>
			<g>
				<path fill="#298EEA" d="M62.024,121.205c0,1.879-1.123,3.128-2.853,3.128c-0.802,0-1.455-0.321-1.89-0.894v3.047h-1.982v-8.398
					h1.982v0.813c0.435-0.561,1.065-0.882,1.845-0.882C60.866,118.02,62.024,119.292,62.024,121.205z M60.03,121.148
					c0-0.939-0.561-1.604-1.386-1.604c-0.802,0-1.363,0.664-1.363,1.604c0,0.962,0.561,1.615,1.363,1.615
					C59.469,122.763,60.03,122.099,60.03,121.148z"/>
			</g>
		</g>
	</g>
	<g opacity="0.7">
		<g>
			<circle fill="#D4E8FB" cx="54.635" cy="113.306" r="13.894"/>
			<path fill="#298EEA" d="M54.635,127.757c-7.969,0-14.452-6.483-14.452-14.452s6.483-14.452,14.452-14.452
				s14.452,6.483,14.452,14.452S62.604,127.757,54.635,127.757z M54.635,99.969c-7.354,0-13.336,5.983-13.336,13.336
				c0,7.354,5.983,13.336,13.336,13.336c7.354,0,13.337-5.983,13.337-13.336C67.972,105.952,61.989,99.969,54.635,99.969z"/>
		</g>
		<g>
			<circle fill="#FFFFFF" cx="54.635" cy="113.306" r="10.572"/>
			<path fill="#298EEA" d="M54.635,124.156c-5.983,0-10.85-4.867-10.85-10.85c0-5.983,4.867-10.85,10.85-10.85
				s10.85,4.867,10.85,10.85C65.486,119.288,60.618,124.156,54.635,124.156z M54.635,103.013c-5.675,0-10.293,4.617-10.293,10.293
				s4.618,10.293,10.293,10.293c5.676,0,10.293-4.617,10.293-10.293S60.311,103.013,54.635,103.013z"/>
		</g>
		<g>
			<g>
				<path fill="#298EEA" d="M51.459,114.812h-0.057h-1.547v2.257h-2.039v-8.02h3.586c2.12,0,3.334,1.008,3.334,2.795
					c0,1.226-0.516,2.108-1.455,2.578l1.684,2.647h-2.314L51.459,114.812z M51.402,113.208c0.882,0,1.398-0.447,1.398-1.295
					c0-0.836-0.516-1.26-1.398-1.26h-1.547v2.555H51.402z"/>
			</g>
			<g>
				<path fill="#298EEA" d="M62.024,114.01c0,1.879-1.123,3.128-2.853,3.128c-0.802,0-1.455-0.321-1.89-0.894v3.047h-1.982v-8.398
					h1.982v0.813c0.435-0.561,1.065-0.882,1.845-0.882C60.866,110.825,62.024,112.097,62.024,114.01z M60.03,113.953
					c0-0.939-0.561-1.604-1.386-1.604c-0.802,0-1.363,0.664-1.363,1.604c0,0.962,0.561,1.615,1.363,1.615
					C59.469,115.568,60.03,114.903,60.03,113.953z"/>
			</g>
		</g>
	</g>
	<g>
		<g>
			<circle fill="#D4E8FB" cx="54.635" cy="105.06" r="13.894"/>
			<path fill="#298EEA" d="M54.635,119.511c-7.969,0-14.452-6.483-14.452-14.452s6.483-14.452,14.452-14.452
				s14.452,6.483,14.452,14.452S62.604,119.511,54.635,119.511z M54.635,91.723c-7.354,0-13.336,5.983-13.336,13.336
				c0,7.354,5.983,13.336,13.336,13.336c7.354,0,13.337-5.983,13.337-13.336C67.972,97.706,61.989,91.723,54.635,91.723z"/>
		</g>
		<g>
			<circle fill="#FFFFFF" cx="54.635" cy="105.06" r="10.572"/>
			<path fill="#298EEA" d="M54.635,115.91c-5.983,0-10.85-4.867-10.85-10.85c0-5.983,4.867-10.85,10.85-10.85
				s10.85,4.867,10.85,10.85C65.486,111.043,60.618,115.91,54.635,115.91z M54.635,94.767c-5.675,0-10.293,4.617-10.293,10.293
				s4.618,10.293,10.293,10.293c5.676,0,10.293-4.617,10.293-10.293S60.311,94.767,54.635,94.767z"/>
		</g>
		<g>
			<g>
				<path fill="#298EEA" d="M51.459,106.566h-0.057h-1.547v2.257h-2.039v-8.02h3.586c2.12,0,3.334,1.008,3.334,2.795
					c0,1.226-0.516,2.108-1.455,2.578l1.684,2.647h-2.314L51.459,106.566z M51.402,104.962c0.882,0,1.398-0.447,1.398-1.295
					c0-0.836-0.516-1.26-1.398-1.26h-1.547v2.555H51.402z"/>
			</g>
			<g>
				<path fill="#298EEA" d="M62.024,105.764c0,1.879-1.123,3.128-2.853,3.128c-0.802,0-1.455-0.321-1.89-0.894v3.047h-1.982v-8.398
					h1.982v0.813c0.435-0.561,1.065-0.882,1.845-0.882C60.866,102.579,62.024,103.851,62.024,105.764z M60.03,105.707
					c0-0.939-0.561-1.604-1.386-1.604c-0.802,0-1.363,0.664-1.363,1.604c0,0.962,0.561,1.615,1.363,1.615
					C59.469,107.322,60.03,106.658,60.03,105.707z"/>
			</g>
		</g>
	</g>
</g>
<g id="Layer_1">
	
		<line fill="#FFFFFF" stroke="#288EEA" stroke-width="2" stroke-linecap="round" stroke-miterlimit="10" x1="36" y1="234.292" x2="396.667" y2="234.292"/>
	
		<line fill="#FFFFFF" stroke="#288EEA" stroke-width="2" stroke-linecap="round" stroke-miterlimit="10" x1="30.674" y1="234.67" x2="1.924" y2="234.67"/>
	<circle fill-rule="evenodd" clip-rule="evenodd" fill="#EDEDED" cx="40.456" cy="27.458" r="1.195"/>
	<circle fill-rule="evenodd" clip-rule="evenodd" fill="#EDEDED" cx="91.02" cy="22.489" r="1.195"/>
	<circle fill-rule="evenodd" clip-rule="evenodd" fill="#288EEA" cx="96.466" cy="18.754" r="1.195"/>
	<circle fill-rule="evenodd" clip-rule="evenodd" fill="#288EEA" cx="127.084" cy="129" r="1.195"/>
	<circle fill-rule="evenodd" clip-rule="evenodd" fill="#288EEA" cx="23.715" cy="47.086" r="1.195"/>
	<circle fill-rule="evenodd" clip-rule="evenodd" fill="#EDEDED" cx="325.545" cy="69.751" r="1.195"/>
	<circle fill-rule="evenodd" clip-rule="evenodd" fill="#80C9FF" cx="338.195" cy="61.918" r="1.195"/>
	<circle fill-rule="evenodd" clip-rule="evenodd" fill="#80C9FF" cx="325.545" cy="48.756" r="1.195"/>
	<g>
		<path fill-rule="evenodd" clip-rule="evenodd" fill="#80C9FF" d="M378.798,48.779c0,0.28,0.227,0.508,0.508,0.508l0,0
			c0.28,0,0.508-0.227,0.508-0.508v-2.466c0-0.28-0.227-0.508-0.508-0.508l0,0c-0.28,0-0.508,0.227-0.508,0.508V48.779z"/>
		<path fill-rule="evenodd" clip-rule="evenodd" fill="#80C9FF" d="M378.798,53.59c0,0.28,0.227,0.508,0.508,0.508l0,0
			c0.28,0,0.508-0.227,0.508-0.508v-2.466c0-0.28-0.227-0.508-0.508-0.508l0,0c-0.28,0-0.508,0.227-0.508,0.508V53.59z"/>
		<path fill-rule="evenodd" clip-rule="evenodd" fill="#80C9FF" d="M378.134,50.375c0.28,0,0.508-0.227,0.508-0.508l0,0
			c0-0.28-0.227-0.508-0.508-0.508h-2.466c-0.28,0-0.508,0.227-0.508,0.508l0,0c0,0.28,0.227,0.508,0.508,0.508H378.134z"/>
		<path fill-rule="evenodd" clip-rule="evenodd" fill="#80C9FF" d="M382.944,50.375c0.28,0,0.508-0.227,0.508-0.508l0,0
			c0-0.28-0.227-0.508-0.508-0.508h-2.466c-0.28,0-0.508,0.227-0.508,0.508l0,0c0,0.28,0.227,0.508,0.508,0.508H382.944z"/>
	</g>
	<g>
		<path fill-rule="evenodd" clip-rule="evenodd" fill="#80C9FF" d="M354.154,65.905c0,0.483-0.392,0.875-0.875,0.875l0,0
			c-0.483,0-0.875-0.392-0.875-0.875v-4.25c0-0.483,0.392-0.875,0.875-0.875l0,0c0.483,0,0.875,0.392,0.875,0.875V65.905z"/>
		<path fill-rule="evenodd" clip-rule="evenodd" fill="#80C9FF" d="M354.154,74.197c0,0.483-0.392,0.875-0.875,0.875l0,0
			c-0.483,0-0.875-0.392-0.875-0.875v-4.25c0-0.483,0.392-0.875,0.875-0.875l0,0c0.483,0,0.875,0.392,0.875,0.875V74.197z"/>
		<path fill-rule="evenodd" clip-rule="evenodd" fill="#80C9FF" d="M355.299,68.655c-0.483,0-0.875-0.392-0.875-0.875l0,0
			c0-0.483,0.392-0.875,0.875-0.875h4.25c0.483,0,0.875,0.392,0.875,0.875l0,0c0,0.483-0.392,0.875-0.875,0.875H355.299z"/>
		<path fill-rule="evenodd" clip-rule="evenodd" fill="#80C9FF" d="M347.007,68.655c-0.483,0-0.875-0.392-0.875-0.875l0,0
			c0-0.483,0.392-0.875,0.875-0.875h4.25c0.483,0,0.875,0.392,0.875,0.875l0,0c0,0.483-0.392,0.875-0.875,0.875H347.007z"/>
	</g>
	<g>
		<path fill-rule="evenodd" clip-rule="evenodd" fill="#EDEDED" d="M64.883,46.435c0,0.359-0.291,0.65-0.65,0.65l0,0
			c-0.359,0-0.65-0.291-0.65-0.65v-3.16c0-0.359,0.291-0.65,0.65-0.65l0,0c0.359,0,0.65,0.291,0.65,0.65V46.435z"/>
		<path fill-rule="evenodd" clip-rule="evenodd" fill="#EDEDED" d="M64.883,52.6c0,0.359-0.291,0.65-0.65,0.65l0,0
			c-0.359,0-0.65-0.291-0.65-0.65v-3.16c0-0.359,0.291-0.65,0.65-0.65l0,0c0.359,0,0.65,0.291,0.65,0.65V52.6z"/>
		<path fill-rule="evenodd" clip-rule="evenodd" fill="#EDEDED" d="M65.734,48.48c-0.359,0-0.65-0.291-0.65-0.65l0,0
			c0-0.359,0.291-0.65,0.65-0.65h3.16c0.359,0,0.65,0.291,0.65,0.65l0,0c0,0.359-0.291,0.65-0.65,0.65H65.734z"/>
		<path fill-rule="evenodd" clip-rule="evenodd" fill="#EDEDED" d="M59.57,48.48c-0.359,0-0.65-0.291-0.65-0.65l0,0
			c0-0.359,0.291-0.65,0.65-0.65h3.16c0.359,0,0.65,0.291,0.65,0.65l0,0c0,0.359-0.291,0.65-0.65,0.65H59.57z"/>
	</g>
	<g>
		<path fill-rule="evenodd" clip-rule="evenodd" fill="#EDEDED" d="M109.516,40.792c0,0.359-0.291,0.65-0.65,0.65l0,0
			c-0.359,0-0.65-0.291-0.65-0.65v-3.16c0-0.359,0.291-0.65,0.65-0.65l0,0c0.359,0,0.65,0.291,0.65,0.65V40.792z"/>
		<path fill-rule="evenodd" clip-rule="evenodd" fill="#EDEDED" d="M109.516,46.956c0,0.359-0.291,0.65-0.65,0.65l0,0
			c-0.359,0-0.65-0.291-0.65-0.65v-3.16c0-0.359,0.291-0.65,0.65-0.65l0,0c0.359,0,0.65,0.291,0.65,0.65V46.956z"/>
		<path fill-rule="evenodd" clip-rule="evenodd" fill="#EDEDED" d="M110.368,42.836c-0.359,0-0.65-0.291-0.65-0.65l0,0
			c0-0.359,0.291-0.65,0.65-0.65h3.16c0.359,0,0.65,0.291,0.65,0.65l0,0c0,0.359-0.291,0.65-0.65,0.65H110.368z"/>
		<path fill-rule="evenodd" clip-rule="evenodd" fill="#EDEDED" d="M104.203,42.836c-0.359,0-0.65-0.291-0.65-0.65l0,0
			c0-0.359,0.291-0.65,0.65-0.65h3.16c0.359,0,0.65,0.291,0.65,0.65l0,0c0,0.359-0.291,0.65-0.65,0.65H104.203z"/>
	</g>
	<g>
		
			<path fill-rule="evenodd" clip-rule="evenodd" fill="none" stroke="#80C9FF" stroke-width="2" stroke-linecap="round" stroke-linejoin="round" stroke-miterlimit="10" d="
			M86.451,47.857H73.667c-0.455-1.246-1.242-2.332-2.256-3.148c0.726-1.272,1.147-2.74,1.147-4.31c0-4.811-3.9-8.711-8.71-8.711
			c-0.622,0-1.228,0.068-1.813,0.192c-1.028-9.617-9.166-17.106-19.055-17.106c-10.586,0-19.168,8.581-19.168,19.167
			c0,1.15,0.107,2.274,0.301,3.368c-4.976,0.441-8.878,4.613-8.878,9.703c0,0.286,0.019,0.566,0.043,0.846H7.883"/>
	</g>
	<g>
		
			<path fill-rule="evenodd" clip-rule="evenodd" fill="none" stroke="#80C9FF" stroke-width="2" stroke-linecap="round" stroke-linejoin="round" stroke-miterlimit="10" d="
			M137.829,32.815h-21.22c-0.335-0.919-0.916-1.719-1.663-2.321c0.535-0.938,0.845-2.02,0.845-3.177c0-3.546-2.875-6.42-6.42-6.42
			c-0.458,0-0.905,0.05-1.336,0.142c-0.758-7.089-6.757-12.61-14.046-12.61c-7.803,0-14.129,6.326-14.129,14.128
			c0,0.848,0.079,1.676,0.222,2.482c-3.668,0.325-6.544,3.4-6.544,7.152c0,0.211,0.014,0.417,0.032,0.624h-5.451"/>
	</g>
	
		<path fill-rule="evenodd" clip-rule="evenodd" fill="none" stroke="#80C9FF" stroke-width="2" stroke-linecap="round" stroke-linejoin="round" stroke-miterlimit="10" d="
		M286.229,51.225h10.532c0.335-0.918,0.916-1.719,1.663-2.321c-0.535-0.938-0.845-2.02-0.845-3.177c0-3.546,2.874-6.42,6.42-6.42
		c0.459,0,0.904,0.05,1.336,0.142c0.758-7.089,6.757-12.61,14.046-12.61c7.804,0,14.129,6.326,14.129,14.128
		c0,0.848-0.079,1.676-0.222,2.482c0.041,0.003,0.08,0.012,0.121,0.017c2.473-4.1,6.959-6.848,12.096-6.848
		c7.804,0,14.129,6.326,14.129,14.128c0,0.848-0.079,1.676-0.222,2.482c3.667,0.325,6.543,3.4,6.543,7.152
		c0,0.211-0.014,0.417-0.031,0.624h20.605"/>
	
		<path fill-rule="evenodd" clip-rule="evenodd" fill="none" stroke="#80C9FF" stroke-width="2" stroke-linecap="round" stroke-linejoin="round" stroke-miterlimit="10" d="
		M250.842,57.958h5.522c0.176-0.481,0.48-0.901,0.872-1.217c-0.28-0.492-0.442-1.059-0.442-1.666c0-1.859,1.507-3.367,3.366-3.367
		c0.24,0,0.474,0.026,0.7,0.074c0.397-3.717,3.543-6.612,7.364-6.612c4.092,0,7.408,3.317,7.408,7.408
		c0,0.444-0.041,0.879-0.115,1.302c0.021,0.002,0.041,0.006,0.063,0.009c1.297-2.15,3.649-3.591,6.343-3.591
		c4.092,0,7.408,3.316,7.408,7.408c0,0.445-0.042,0.879-0.116,1.302c1.923,0.17,3.431,1.783,3.431,3.75
		c0,0.11-0.007,0.219-0.017,0.327h10.805"/>
	<g>
		<path fill-rule="evenodd" clip-rule="evenodd" fill="#A9D2F7" d="M96.229,33.436c0,2.072-1.657,3.729-3.729,3.729
			s-3.729-1.657-3.729-3.729s1.657-3.729,3.729-3.729c0.87,0,1.699,0.331,2.32,0.829l0.58-0.58c0.207,0.166,0.414,0.373,0.622,0.58
			l-0.622,0.58C95.939,31.737,96.229,32.566,96.229,33.436z M92.5,30.536c-1.616,0-2.9,1.284-2.9,2.9c0,1.616,1.284,2.9,2.9,2.9
			s2.9-1.284,2.9-2.9C95.4,31.82,94.116,30.536,92.5,30.536z M92.086,31.365h0.829v2.486h-0.829V31.365z M91.257,28.464h2.486v0.829
			h-2.486V28.464z"/>
	</g>
	<path fill="none" stroke="#DDDDDD" stroke-width="2" stroke-miterlimit="10" d="M132.852,123.568l4.834,4.834
		c0.33,0.33,0.33,0.866,0,1.196l-4.834,4.834c-0.533,0.533-1.444,0.155-1.444-0.598v-9.667
		C131.408,123.413,132.319,123.035,132.852,123.568z"/>
	<g>
		<path fill="#DDDDDD" d="M41.652,34.03c-2.857,0-5.181,2.324-5.181,5.181c0,2.857,2.324,5.181,5.181,5.181
			c2.857,0,5.181-2.325,5.181-5.181C46.833,36.355,44.509,34.03,41.652,34.03z M41.652,42.348c-1.729,0-3.136-1.407-3.136-3.136
			c0-1.729,1.406-3.136,3.136-3.136c1.729,0,3.136,1.407,3.136,3.136C44.788,40.941,43.38,42.348,41.652,42.348z"/>
	</g>
	<g>
		<path fill="#288EEA" d="M38.516,39.212c0-1.729,1.407-3.136,3.136-3.136v-0.064v-1.724V34.03c-2.857,0-5.181,2.324-5.181,5.181
			c0,0.156,0.01,0.31,0.024,0.463l2.034-0.21C38.522,39.381,38.516,39.297,38.516,39.212z"/>
	</g>
	
		<line fill-rule="evenodd" clip-rule="evenodd" fill="none" stroke="#288EEA" stroke-width="2" stroke-linecap="round" stroke-miterlimit="10" x1="221" y1="45" x2="221" y2="50"/>
	
		<line fill-rule="evenodd" clip-rule="evenodd" fill="none" stroke="#288EEA" stroke-width="2" stroke-linecap="round" stroke-miterlimit="10" x1="228.753" y1="47.718" x2="225.247" y2="51.282"/>
	
		<line fill-rule="evenodd" clip-rule="evenodd" fill="none" stroke="#288EEA" stroke-width="2" stroke-linecap="round" stroke-miterlimit="10" x1="213.247" y1="47.718" x2="216.753" y2="51.282"/>
</g>
<g id="Layer_3">
	<g>
		
			<path fill="#FFFFFF" stroke="#288EEA" stroke-width="2" stroke-linecap="round" stroke-linejoin="round" stroke-miterlimit="10" d="
			M361.573,227.533H162.361c-4.58,0-8.327-3.747-8.327-8.327V98.538c0-4.58,3.747-8.327,8.327-8.327h199.212
			c4.58,0,8.327,3.747,8.327,8.327v120.667C369.9,223.785,366.153,227.533,361.573,227.533z"/>
		
			<rect x="164.706" y="98" fill="#FFFFFF" stroke="#288EEA" stroke-linecap="round" stroke-linejoin="round" stroke-miterlimit="10" width="194.521" height="123.743"/>
		
			<path fill="#FFFFFF" stroke="#288EEA" stroke-width="2" stroke-linecap="round" stroke-linejoin="round" stroke-miterlimit="10" d="
			M129,220v4.58c0,4.975,5.29,9.42,10.265,9.42h246.91c4.975,0,7.825-4.445,7.825-9.42V220H129z"/>
		<rect x="238.717" y="220" fill="#FFFFFF" stroke="#288EEA" stroke-width="2" stroke-miterlimit="10" width="46.5" height="7"/>
	</g>
	<rect x="164.706" y="98" fill="#FFFFFF" stroke="#288EEA" stroke-miterlimit="10" width="194.521" height="12.667"/>
	<path fill="none" stroke="#FFD300" stroke-width="0.5" stroke-miterlimit="10" d="M170.719,103.422v-1
		c0-0.645,0.527-1.172,1.172-1.172l0,0c0.645,0,1.172,0.527,1.172,1.172v1"/>
	<path fill="#39B151" d="M173.375,106.568h-2.958c-0.215,0-0.391-0.176-0.391-0.391v-2.958c0-0.215,0.176-0.391,0.391-0.391h2.958
		c0.215,0,0.391,0.176,0.391,0.391v2.958C173.766,106.392,173.59,106.568,173.375,106.568z"/>
	<rect x="175.75" y="102.828" opacity="0.5" fill="#39B151" width="31.25" height="3.74"/>
	<circle fill="#39B151" cx="352.984" cy="104.359" r="1.297"/>
	<circle fill="#288EEA" cx="346.922" cy="104.359" r="1.297"/>
	<circle fill="#288EEA" cx="340.859" cy="104.359" r="1.297"/>
	<g>
		<rect x="170" y="164" fill="#DDDDDD" width="95" height="4"/>
		<rect x="170" y="173" fill="#DDDDDD" width="95" height="4"/>
		<rect x="170" y="183" fill="#DDDDDD" width="83" height="4"/>
		<rect x="170" y="192" fill="#DDDDDD" width="72" height="4"/>
		<rect x="170" y="201" fill="#DDDDDD" width="62" height="4"/>
	</g>
	<g>
		<rect x="280" y="118" fill="#DDDDDD" width="31" height="4"/>
		<rect x="280" y="127" fill="#DDDDDD" width="31" height="4"/>
		<rect x="280" y="136" fill="#DDDDDD" width="27" height="4"/>
		<rect x="280" y="146" fill="#DDDDDD" width="23" height="4"/>
		<rect x="280" y="155" fill="#DDDDDD" width="20" height="4"/>
		<rect x="319" y="118" fill="#DDDDDD" width="31" height="4"/>
		<rect x="319" y="127" fill="#DDDDDD" width="31" height="4"/>
		<rect x="319" y="136" fill="#DDDDDD" width="27" height="4"/>
		<rect x="319" y="146" fill="#DDDDDD" width="23" height="4"/>
		<rect x="319" y="155" fill="#DDDDDD" width="20" height="4"/>
	</g>
	<rect x="170.003" y="119.107" fill="#DDDDDD" width="35.104" height="35.104"/>
	<rect x="209.347" y="132" fill="#DDDDDD" width="24.653" height="22.211"/>
	<rect x="239.7" y="132" fill="#DDDDDD" width="24.653" height="22.211"/>
	<rect x="280.5" y="164" fill="#A9D2F7" width="19.26" height="16.75"/>
	<rect x="305.94" y="164" fill="#A9D2F7" width="19.26" height="16.75"/>
	<rect x="331.381" y="164" fill="#A9D2F7" width="19.26" height="16.75"/>
	<path fill="#288EEA" d="M345,206.833h-57.5c-3.3,0-6-2.7-6-6V200c0-3.3,2.7-6,6-6H345c3.3,0,6,2.7,6,6v0.833
		C351,204.133,348.3,206.833,345,206.833z"/>
	<g>
		<g>
			<path fill="#FFFFFF" stroke="#288EEA" stroke-width="2" stroke-miterlimit="10" d="M266.094,74.874l-42.867,15.22
				c0,0,0.659,28.932,7.896,48.153c9.866,26.201,34.971,34.88,34.971,34.88s25.105-8.678,34.967-34.88
				c7.241-19.221,7.9-48.153,7.9-48.153L266.094,74.874z"/>
		</g>
		<g>
			<path fill="#39B151" d="M266.094,83.781L231,96.241c0,0,0.54,23.686,6.464,39.422c8.077,21.451,28.63,28.555,28.63,28.555
				s20.553-7.105,28.627-28.555c5.928-15.736,6.467-39.422,6.467-39.422L266.094,83.781z"/>
		</g>
		<g>
			<path fill-rule="evenodd" clip-rule="evenodd" fill="#FFFFFF" d="M258.11,121.537l1.955-1.955l4.329,4.329l12.009-12.009
				l1.955,1.955l-13.964,13.964L258.11,121.537z M265.791,111.064c-6.144,0-11.171,5.027-11.171,11.171
				c0,6.144,5.027,11.171,11.171,11.171c6.144,0,11.171-5.027,11.171-11.171h2.793c0,7.68-6.284,13.964-13.964,13.964
				s-13.964-6.284-13.964-13.964s6.284-13.964,13.964-13.964c1.815,0,3.631,0.419,5.306,0.977l-2.234,2.234
				C267.885,111.204,266.908,111.064,265.791,111.064z"/>
		</g>
	</g>
	<g>
		<polygon opacity="0.8" fill="#DDDDDD" points="171.957,177.72 170.734,172.317 131.941,172.317 131.941,177.72 131.941,206.584 
			131.941,211.987 187.914,211.987 187.914,177.72 		"/>
		<polygon fill="#FFFFFF" stroke="#288EEA" stroke-width="2" stroke-linecap="round" stroke-miterlimit="10" points="
			175.419,174.395 174.195,168.992 135.403,168.992 135.403,174.395 135.403,203.259 135.403,208.662 191.375,208.662 
			191.375,174.395 		"/>
		
			<line fill="#FFFFFF" stroke="#288EEA" stroke-linecap="round" stroke-miterlimit="10" x1="191.375" y1="183.678" x2="135.403" y2="183.678"/>
		
			<rect x="149.351" y="181.6" fill="#FFFFFF" stroke="#288EEA" stroke-linecap="round" stroke-miterlimit="10" width="14.038" height="4.249"/>
	</g>
</g>
<g id="Layer_4">
	<g>
		<g>
			<path fill="#D9EDFF" stroke="#288EEA" stroke-linecap="round" stroke-linejoin="round" stroke-miterlimit="10" d="
				M233.714,79.301h-3.273v-8.878c0-4.835-3.933-8.768-8.768-8.768s-8.768,3.933-8.768,8.768v8.878h-3.273v-8.878
				c0-6.639,5.402-12.041,12.041-12.041c6.639,0,12.041,5.402,12.041,12.041V79.301z"/>
		</g>
		
			<circle fill="#D9EDFF" stroke="#288EEA" stroke-width="2" stroke-linecap="round" stroke-linejoin="round" stroke-miterlimit="10" cx="221.674" cy="91.323" r="17.857"/>
		
			<circle fill="#FFFFFF" stroke="#288EEA" stroke-linecap="round" stroke-linejoin="round" stroke-miterlimit="10" cx="221.674" cy="91.323" r="10.071"/>
		<path fill="#D9EDFF" stroke="#288EEA" stroke-miterlimit="10" d="M224.945,89.195c0-1.825-1.459-3.304-3.283-3.304
			c-1.825,0-3.259,1.479-3.259,3.304c0,1.214,0.615,2.273,1.678,2.847v4.701h3.19v-4.701
			C224.334,91.468,224.945,90.41,224.945,89.195z"/>
	</g>
</g>
</svg>
