<?xml version="1.0" encoding="utf-8"?>
<!-- Generator: Adobe Illustrator 20.1.0, SVG Export Plug-In . SVG Version: 6.00 Build 0)  -->
<svg version="1.1" xmlns="http://www.w3.org/2000/svg" xmlns:xlink="http://www.w3.org/1999/xlink" x="0px" y="0px"
	 viewBox="0 0 400 270" enable-background="new 0 0 400 270" xml:space="preserve">
<g id="Layer_1">
	<g>
		<rect fill="#D64331" width="200" height="135"/>
	</g>
	<g>
		<rect y="135" fill="#4385F5" width="200" height="135"/>
	</g>
	<g>
		<rect x="200" fill="#06A35E" width="200" height="135"/>
	</g>
	<g>
		<rect x="200" y="135" fill="#FFB80B" width="200" height="135"/>
	</g>
</g>
<g id="Layer_2">
	<g opacity="0.24">
		<path fill="#FFFFFF" d="M203.166,29.687c24.989,0,47.637,8.593,67.352,25.571c1.145,0.963,2.677,2.519,2.767,4.879
			c0.06,1.787-0.707,3.442-2.34,5.051c-6.699,6.575-13.405,13.286-19.165,19.062l-5.986,6.004l-0.042,0.042l-0.041,0.043
			c-1.459,1.552-3.009,2.34-4.608,2.34c-1.442,0-2.93-0.634-4.186-1.781c-9.281-8.505-21.547-13.19-34.543-13.191
			c-13.953,0-27.326,5.296-37.653,14.909c-7.065,6.566-12.188,14.382-15.663,23.894l-0.019,0.051l-0.017,0.052
			c-3.949,11.802-3.994,23.809-0.137,36.708l0.051,0.169l0.065,0.164c3.168,7.964,6.878,14.229,11.341,19.153
			c11.738,12.965,25.537,19.267,42.186,19.267c2.311,0,4.709-0.127,7.128-0.376c8.659-0.897,16.807-3.713,24.907-8.609l0.196-0.118
			l0.181-0.14c6.519-5.036,11.149-10.525,14.175-16.824l0.074-0.161c0.037-0.081,0.073-0.161,0.111-0.235l2.999-5.848l-6.572,0.023
			c-4.782,0.017-9.552,0.021-14.316,0.021l-7.15-0.002l-7.136-0.002l-11.851-0.017c-5.776,0-7.725-1.975-7.725-7.828v-9.215
			c0.017-7.805,0.034-15.876-0.034-23.845c-0.01-1.165-0.032-3.59,1.783-5.424c1.234-1.234,2.939-1.835,5.247-1.835
			c14.132,0.04,28.857,0.06,45.017,0.06c13.443,0,28.17-0.014,45.015-0.043c5.263,0,6.802,3.123,7.167,5.757
			c4.204,29.558-0.231,54.851-13.556,77.318c-4.855,8.163-10.247,14.71-16.485,20.014l-0.086,0.074l-0.082,0.078
			c-10.878,10.368-24.134,17.579-39.401,21.435c-10.449,2.642-20.731,3.981-30.562,3.981c-23.871,0-45.967-7.887-65.676-23.441
			c-11.969-9.442-21.376-21.168-27.96-34.854l-0.039-0.082l-0.043-0.08c-5.193-9.645-8.629-20.751-10.213-33.01
			c-2.608-20.242,0.359-39.787,8.819-58.09l0.017-0.037l0.016-0.037c0.168-0.383,1.072-2.135,1.733-3.415l0.748-1.451l0.015-0.03
			l0.015-0.03c3.968-8.05,9.383-15.621,16.553-23.142c16.426-17.216,36.187-27.776,58.733-31.387
			C190.697,30.205,197.049,29.687,203.166,29.687 M203.166,25.687c-6.35,0-12.858,0.53-19.508,1.591
			c-23.434,3.753-43.951,14.71-60.997,32.576c-7.408,7.772-13.079,15.68-17.247,24.134c-1.02,1.986-2.301,4.436-2.587,5.09
			c-8.788,19.014-11.858,39.297-9.155,60.28c1.648,12.759,5.303,24.45,10.658,34.395c6.836,14.211,16.61,26.419,29.087,36.261
			c20.5,16.179,43.336,24.301,68.153,24.301c10.192,0,20.718-1.367,31.542-4.103c15.91-4.018,29.89-11.657,41.18-22.417
			c6.589-5.602,12.263-12.494,17.332-21.017c13.809-23.284,18.416-49.421,14.078-79.926c-0.299-2.152-2.02-9.193-11.128-9.193
			c-15.006,0.026-30.008,0.043-45.015,0.043c-15,0-30.004-0.017-45.005-0.06h-0.047c-3.352,0-6.055,1.021-8.04,3.006
			c-3.002,3.032-2.968,6.853-2.955,8.288c0.068,7.921,0.051,15.863,0.034,23.801v9.223c0,8.074,3.719,11.828,11.725,11.828
			l11.845,0.017c4.761,0,9.523,0.004,14.292,0.004c4.769,0,9.543-0.004,14.33-0.021c-0.085,0.167-0.167,0.35-0.252,0.534
			c-2.716,5.654-6.969,10.692-12.994,15.346c-7.588,4.586-15.21,7.221-23.25,8.053c-2.291,0.237-4.529,0.355-6.716,0.355
			c-15.424,0-28.308-5.899-39.22-17.952c-4.219-4.654-7.656-10.572-10.59-17.947c-3.621-12.11-3.553-23.383,0.098-34.292
			c3.254-8.907,8.04-16.213,14.629-22.336c9.887-9.204,22.509-13.84,34.934-13.839c11.578,0.001,22.986,4.029,31.836,12.14
			c1.87,1.708,4.302,2.832,6.888,2.832c2.488,0,5.117-1.04,7.523-3.601l5.986-6.004c6.337-6.354,12.695-12.712,19.134-19.031
			c2.451-2.417,3.634-5.12,3.536-8.04c-0.167-4.385-3.22-6.99-4.189-7.806C252.621,34.566,229.178,25.687,203.166,25.687
			L203.166,25.687z"/>
	</g>
	<path fill="#FFFFFF" d="M231,106.002V95.63c0-17.081-13.92-30.977-31-30.977c-17.081,0-31,13.896-31,30.977V106h-0.488
		c-5.253,0-9.512,4.259-9.512,9.512v49.976c0,5.253,4.259,9.512,9.512,9.512h61.976c5.253,0,9.512-4.259,9.512-9.512v-49.976
		C240,110.273,236,106.025,231,106.002z M177,95.63c0-12.438,10.062-22.557,22.5-22.557c12.438,0,22.5,10.119,22.5,22.557V106h-45
		V95.63z M204,144.068V157h-9v-12.932c-3-1.596-4.602-4.538-4.602-7.914c0-5.072,4.018-9.184,9.091-9.184s9.146,4.112,9.146,9.184
		C208.635,139.53,207,142.472,204,144.068z"/>
</g>
</svg>
