<svg id="be24e05e-e207-4b1b-ae16-aafa850dfdd7" data-name="Layer 1" xmlns="http://www.w3.org/2000/svg" width="40" height="40" viewBox="0 0 40 40">
  <defs>
    <style>
      .ec42b5c8-64bb-4364-b028-435d16b35368, .f587f1f7-b950-4a86-bcb9-baedca1a4711, .f8362aab-d657-4f18-b831-98ebc58dfe80 {
        fill: none;
      }

      .ec42b5c8-64bb-4364-b028-435d16b35368, .f587f1f7-b950-4a86-bcb9-baedca1a4711 {
        stroke: #007aff;
      }

      .eb65b79a-8728-4190-ac69-e3a24f847c19, .ec42b5c8-64bb-4364-b028-435d16b35368, .f587f1f7-b950-4a86-bcb9-baedca1a4711, .f8362aab-d657-4f18-b831-98ebc58dfe80 {
        stroke-linejoin: round;
        stroke-width: 2px;
      }

      .eb65b79a-8728-4190-ac69-e3a24f847c19, .f8362aab-d657-4f18-b831-98ebc58dfe80 {
        stroke: #00bfa5;
      }

      .eb65b79a-8728-4190-ac69-e3a24f847c19, .f587f1f7-b950-4a86-bcb9-baedca1a4711, .f8362aab-d657-4f18-b831-98ebc58dfe80 {
        stroke-linecap: round;
      }

      .eb65b79a-8728-4190-ac69-e3a24f847c19 {
        fill: #fff;
      }
    </style>
  </defs>
  <title>icons-42</title>
  <g>
    <g>
      <rect class="ec42b5c8-64bb-4364-b028-435d16b35368" x="1.01" y="25.35" width="37.98" height="13.65" rx="2.52"/>
      <line class="f8362aab-d657-4f18-b831-98ebc58dfe80" x1="7.13" y1="32.17" x2="24.9" y2="32.17"/>
      <ellipse class="eb65b79a-8728-4190-ac69-e3a24f847c19" cx="31.95" cy="32.17" rx="1.6" ry="1.69"/>
      <path class="f587f1f7-b950-4a86-bcb9-baedca1a4711" d="M24.9,17.55h3.41A4.44,4.44,0,0,1,31.54,19l6.75,7.16"/>
      <path class="f587f1f7-b950-4a86-bcb9-baedca1a4711" d="M1.71,26.13,8.46,19a4.45,4.45,0,0,1,3.24-1.42h3.07"/>
    </g>
    <g>
      <circle class="f8362aab-d657-4f18-b831-98ebc58dfe80" cx="20.01" cy="8.22" r="2.12"/>
      <path class="f8362aab-d657-4f18-b831-98ebc58dfe80" d="M24.8,5.81l1.3-1.67-.36-.37L24.61,2.61l-.36-.37L22.55,3.5a5.44,5.44,0,0,0-.86-.37L21.43,1h-.51L19.3,1h-.52l-.31,2.09a5.41,5.41,0,0,0-.87.34l-1.67-1.3-.37.36L14.41,3.62,14,4l1.25,1.7a5.7,5.7,0,0,0-.38.88l-2.09.26v.51L12.8,9v.52l2.09.31a5.3,5.3,0,0,0,.34.86l-1.3,1.67.36.37,1.13,1.16.36.37L17.48,13a5.7,5.7,0,0,0,.88.38l.26,2.08h.52l1.61,0h.52l.32-2.1a4.57,4.57,0,0,0,.84-.33l1.67,1.3.37-.36,1.15-1.13.37-.36-1.25-1.71a5.17,5.17,0,0,0,.39-.94l2.05-.25V9l0-1.61V6.91l-2.1-.32A4.69,4.69,0,0,0,24.8,5.81Z"/>
    </g>
  </g>
</svg>
