<svg id="b7afd45a-1bc2-4986-8fd7-81b3b7e31f40" data-name="Layer 1" xmlns="http://www.w3.org/2000/svg" width="40" height="40" viewBox="0 0 40 40">
  <defs>
    <style>
      .a9b25fde-cf37-4c28-825f-2331146f817f, .b58c9135-d579-4db6-b693-b06f21f1faf0, .fef2a514-8f2e-4b5e-b3b1-968cfbd100d2 {
        fill: none;
        stroke-linejoin: round;
        stroke-width: 2px;
      }

      .a9b25fde-cf37-4c28-825f-2331146f817f, .fef2a514-8f2e-4b5e-b3b1-968cfbd100d2 {
        stroke: #007aff;
      }

      .b58c9135-d579-4db6-b693-b06f21f1faf0 {
        stroke: #00bfa5;
      }

      .b58c9135-d579-4db6-b693-b06f21f1faf0, .fef2a514-8f2e-4b5e-b3b1-968cfbd100d2 {
        stroke-linecap: round;
      }
    </style>
  </defs>
  <title>icons-42</title>
  <g>
    <g>
      <line class="a9b25fde-cf37-4c28-825f-2331146f817f" x1="20" y1="32.68" x2="20" y2="37.5"/>
      <line class="b58c9135-d579-4db6-b693-b06f21f1faf0" x1="1" y1="28.93" x2="39" y2="28.93"/>
      <path class="fef2a514-8f2e-4b5e-b3b1-968cfbd100d2" d="M29.06,7.25H37a2,2,0,0,1,2,2V30.65a2,2,0,0,1-2,2H3a2,2,0,0,1-2-2V9.27a2,2,0,0,1,2-2h7.79"/>
      <line class="b58c9135-d579-4db6-b693-b06f21f1faf0" x1="12.48" y1="37.5" x2="27.53" y2="37.5"/>
    </g>
    <path class="fef2a514-8f2e-4b5e-b3b1-968cfbd100d2" d="M25,7.5a5,5,0,0,0-9.85-1.23,5.07,5.07,0,0,0,.2,3.08h0l0,.06,0,.1,3.46,7.91a1.22,1.22,0,0,0,2.24,0l3.46-7.91a.69.69,0,0,0,0-.1l0-.06h0A5.12,5.12,0,0,0,25,7.5Z"/>
    <circle class="b58c9135-d579-4db6-b693-b06f21f1faf0" cx="20" cy="7.36" r="2.08"/>
    <line class="b58c9135-d579-4db6-b693-b06f21f1faf0" x1="12.68" y1="22.2" x2="27.32" y2="22.2"/>
  </g>
</svg>
