<svg width="546" height="308" viewBox="0 0 546 308" fill="none" xmlns="http://www.w3.org/2000/svg">
<g opacity="0.4" filter="url(#filter0_f)">
<path d="M6.00017 244.46L96.4166 269.422H201.495V200.053H6.00017V244.46Z" fill="url(#paint0_linear)"/>
</g>
<g filter="url(#filter1_d)">
<path d="M89.243 44.5513H449.961V259.91C449.961 265.483 445.444 270 439.871 270H99.3331C93.7605 270 89.243 265.483 89.243 259.91V44.5513Z" fill="white"/>
<rect x="102.171" y="56.5852" width="63.6932" height="199.908" rx="4.72969" fill="#ECEDF0" stroke="#007AFF" stroke-width="0.630626" stroke-dasharray="2.52 2.52"/>
<rect x="373.341" y="56.5852" width="63.6932" height="199.908" rx="4.72969" fill="#ECEDF0" stroke="#007AFF" stroke-width="0.630626" stroke-dasharray="2.52 2.52"/>
<rect opacity="0.16" x="188.881" y="92.8462" width="161.44" height="7.56751" rx="1.26125" fill="#3A4166"/>
<rect opacity="0.16" x="188.881" y="105.459" width="161.44" height="7.56751" rx="1.26125" fill="#3A4166"/>
<rect opacity="0.16" x="188.881" y="118.071" width="113.513" height="7.56751" rx="1.26125" fill="#3A4166"/>
<path d="M205.968 66.6501H208.14L203.743 79.0986H201.889L198.764 70.1463L195.621 79.0986H193.767L189.388 66.6501H191.683L194.773 75.9203L198.022 66.6501H199.629L202.79 75.9733L205.968 66.6501ZM216.275 75.1787H210.396C210.466 75.9791 210.707 76.5736 211.12 76.9621C211.532 77.3505 212.12 77.5448 212.885 77.5448C213.839 77.5448 214.71 77.2387 215.499 76.6266L216.134 78.1451C215.734 78.4747 215.228 78.7396 214.616 78.9397C214.015 79.1398 213.409 79.2399 212.797 79.2399C211.384 79.2399 210.266 78.8397 209.442 78.0392C208.63 77.2387 208.224 76.1439 208.224 74.7549C208.224 73.872 208.4 73.0892 208.753 72.4064C209.107 71.7237 209.601 71.1939 210.237 70.8173C210.884 70.4406 211.614 70.2522 212.426 70.2522C213.615 70.2522 214.551 70.6348 215.234 71.4C215.928 72.1651 216.275 73.2187 216.275 74.5606V75.1787ZM212.479 71.8061C211.891 71.8061 211.414 71.9944 211.049 72.3711C210.696 72.7478 210.478 73.2893 210.396 73.9956H214.386C214.363 73.2775 214.186 72.736 213.856 72.3711C213.527 71.9944 213.068 71.8061 212.479 71.8061ZM223.043 70.2522C223.796 70.2522 224.461 70.4347 225.038 70.7996C225.615 71.1645 226.062 71.6825 226.38 72.3535C226.71 73.0244 226.874 73.8073 226.874 74.7019C226.874 75.5966 226.71 76.3911 226.38 77.0857C226.062 77.7684 225.609 78.2982 225.02 78.6749C224.444 79.0515 223.784 79.2399 223.043 79.2399C222.419 79.2399 221.86 79.1045 221.365 78.8338C220.883 78.563 220.512 78.1863 220.253 77.7037V79.0986H218.081V66.6501H220.288V71.7178C220.547 71.2469 220.918 70.8879 221.401 70.6407C221.883 70.3817 222.431 70.2522 223.043 70.2522ZM222.46 77.5271C223.155 77.5271 223.696 77.2799 224.085 76.7855C224.473 76.2911 224.667 75.5966 224.667 74.7019C224.667 73.819 224.473 73.1422 224.085 72.6713C223.708 72.2004 223.166 71.965 222.46 71.965C221.754 71.965 221.206 72.2063 220.818 72.689C220.441 73.1598 220.253 73.8426 220.253 74.7372C220.253 75.6319 220.441 76.3205 220.818 76.8032C221.206 77.2858 221.754 77.5271 222.46 77.5271ZM231.864 79.2399C231.099 79.2399 230.393 79.1457 229.745 78.9574C229.11 78.769 228.568 78.4983 228.121 78.1451L228.739 76.6089C229.657 77.2799 230.711 77.6154 231.9 77.6154C232.406 77.6154 232.788 77.533 233.047 77.3682C233.318 77.2034 233.453 76.968 233.453 76.6619C233.453 76.4029 233.359 76.2028 233.171 76.0615C232.994 75.9203 232.671 75.7908 232.2 75.6731L230.787 75.3552C229.987 75.1787 229.392 74.8903 229.004 74.49C228.615 74.0898 228.421 73.5718 228.421 72.9362C228.421 72.4064 228.568 71.9414 228.862 71.5412C229.168 71.1292 229.586 70.8114 230.116 70.5877C230.658 70.364 231.282 70.2522 231.988 70.2522C232.6 70.2522 233.189 70.3464 233.754 70.5347C234.33 70.7231 234.837 70.9879 235.272 71.3293L234.654 72.8302C233.759 72.1828 232.865 71.859 231.97 71.859C231.488 71.859 231.111 71.9473 230.84 72.1239C230.569 72.3005 230.434 72.5477 230.434 72.8655C230.434 73.101 230.516 73.2952 230.681 73.4482C230.858 73.6013 231.134 73.719 231.511 73.8014L232.977 74.1369C233.836 74.3252 234.466 74.6254 234.866 75.0374C235.266 75.4376 235.466 75.9674 235.466 76.6266C235.466 77.4271 235.143 78.0627 234.495 78.5336C233.848 79.0045 232.971 79.2399 231.864 79.2399ZM237.256 79.0986V70.4641H239.463V79.0986H237.256ZM237.132 66.4558H239.569V68.6277H237.132V66.4558ZM246.154 77.5801C246.413 77.5801 246.683 77.5624 246.966 77.5271L246.86 79.1693C246.507 79.2046 246.183 79.2222 245.889 79.2222C244.676 79.2222 243.782 78.9456 243.205 78.3923C242.628 77.8273 242.34 76.9915 242.34 75.885V72.1239H240.68V70.4641H242.34V67.8861H244.547V70.4641H246.825V72.1239H244.547V75.8496C244.547 77.0033 245.082 77.5801 246.154 77.5801ZM255.832 75.1787H249.953C250.023 75.9791 250.264 76.5736 250.676 76.9621C251.089 77.3505 251.677 77.5448 252.442 77.5448C253.396 77.5448 254.267 77.2387 255.056 76.6266L255.691 78.1451C255.291 78.4747 254.785 78.7396 254.173 78.9397C253.572 79.1398 252.966 79.2399 252.354 79.2399C250.941 79.2399 249.823 78.8397 248.999 78.0392C248.187 77.2387 247.781 76.1439 247.781 74.7549C247.781 73.872 247.957 73.0892 248.31 72.4064C248.664 71.7237 249.158 71.1939 249.794 70.8173C250.441 70.4406 251.171 70.2522 251.983 70.2522C253.172 70.2522 254.108 70.6348 254.791 71.4C255.485 72.1651 255.832 73.2187 255.832 74.5606V75.1787ZM252.036 71.8061C251.448 71.8061 250.971 71.9944 250.606 72.3711C250.253 72.7478 250.035 73.2893 249.953 73.9956H253.943C253.92 73.2775 253.743 72.736 253.413 72.3711C253.084 71.9944 252.625 71.8061 252.036 71.8061ZM267.897 70.2522C268.874 70.2522 269.604 70.5465 270.087 71.1351C270.569 71.7119 270.81 72.6007 270.81 73.8014V79.0986H268.603V73.8897C268.603 73.2304 268.491 72.7537 268.268 72.4594C268.044 72.1533 267.685 72.0003 267.191 72.0003C266.602 72.0003 266.143 72.2004 265.813 72.6007C265.484 73.0009 265.319 73.5601 265.319 74.2781V79.0986H263.112V73.8897C263.112 73.2304 263 72.7537 262.776 72.4594C262.564 72.1533 262.205 72.0003 261.699 72.0003C261.122 72.0003 260.669 72.2004 260.34 72.6007C260.01 73.0009 259.845 73.5601 259.845 74.2781V79.0986H257.638V70.4641H259.792V71.6825C260.051 71.2116 260.41 70.8585 260.869 70.623C261.328 70.3758 261.852 70.2522 262.441 70.2522C263.747 70.2522 264.613 70.7937 265.036 71.8767C265.307 71.3705 265.696 70.9762 266.202 70.6937C266.708 70.3994 267.273 70.2522 267.897 70.2522ZM280.982 70.4641V79.0986H278.828V77.7743C278.557 78.2452 278.192 78.6101 277.733 78.8691C277.274 79.1163 276.756 79.2399 276.179 79.2399C274.06 79.2399 273.001 78.051 273.001 75.6731V70.4641H275.208V75.6907C275.208 76.3029 275.332 76.7561 275.579 77.0504C275.826 77.3447 276.215 77.4918 276.744 77.4918C277.356 77.4918 277.845 77.2917 278.21 76.8914C278.587 76.4794 278.775 75.9379 278.775 75.2669V70.4641H280.982Z" fill="#373C6D"/>
<path opacity="0.7" d="M199.31 153.513H196.933L191.984 148.548V153.513H190.032V142.842H191.984V147.61L196.737 142.842H199.067L193.906 147.973L199.31 153.513ZM203.158 153.634C202.401 153.634 201.735 153.477 201.16 153.164C200.595 152.852 200.156 152.403 199.843 151.817C199.531 151.232 199.374 150.551 199.374 149.774C199.374 148.997 199.531 148.321 199.843 147.746C200.156 147.161 200.595 146.712 201.16 146.399C201.735 146.086 202.401 145.93 203.158 145.93C203.915 145.93 204.576 146.086 205.141 146.399C205.716 146.712 206.155 147.161 206.457 147.746C206.77 148.321 206.927 148.997 206.927 149.774C206.927 150.551 206.77 151.232 206.457 151.817C206.155 152.403 205.716 152.852 205.141 153.164C204.576 153.477 203.915 153.634 203.158 153.634ZM203.143 152.166C203.758 152.166 204.227 151.964 204.55 151.56C204.873 151.157 205.035 150.561 205.035 149.774C205.035 148.997 204.873 148.407 204.55 148.003C204.227 147.59 203.763 147.383 203.158 147.383C202.553 147.383 202.083 147.59 201.75 148.003C201.427 148.407 201.266 148.997 201.266 149.774C201.266 150.561 201.427 151.157 201.75 151.56C202.073 151.964 202.537 152.166 203.143 152.166ZM215.632 142.842V153.513H213.755V152.317C213.533 152.731 213.211 153.053 212.787 153.286C212.373 153.518 211.899 153.634 211.364 153.634C210.728 153.634 210.158 153.472 209.654 153.149C209.159 152.826 208.771 152.372 208.488 151.787C208.216 151.192 208.08 150.511 208.08 149.744C208.08 148.977 208.216 148.306 208.488 147.731C208.771 147.156 209.159 146.712 209.654 146.399C210.148 146.086 210.718 145.93 211.364 145.93C211.899 145.93 212.373 146.041 212.787 146.263C213.2 146.485 213.518 146.798 213.74 147.201V142.842H215.632ZM211.864 152.166C212.469 152.166 212.933 151.959 213.256 151.545C213.589 151.131 213.755 150.541 213.755 149.774C213.755 149.007 213.589 148.422 213.256 148.019C212.933 147.605 212.474 147.398 211.879 147.398C211.273 147.398 210.804 147.6 210.471 148.003C210.138 148.407 209.972 148.987 209.972 149.744C209.972 150.511 210.138 151.106 210.471 151.53C210.804 151.954 211.268 152.166 211.864 152.166ZM224.071 150.153H219.031C219.092 150.839 219.299 151.348 219.652 151.681C220.005 152.014 220.509 152.181 221.165 152.181C221.983 152.181 222.729 151.918 223.405 151.394L223.95 152.695C223.607 152.978 223.173 153.205 222.649 153.376C222.134 153.548 221.614 153.634 221.09 153.634C219.879 153.634 218.92 153.291 218.214 152.604C217.518 151.918 217.17 150.98 217.17 149.789C217.17 149.033 217.321 148.362 217.624 147.776C217.926 147.191 218.35 146.737 218.895 146.414C219.45 146.091 220.076 145.93 220.772 145.93C221.791 145.93 222.593 146.258 223.178 146.914C223.774 147.57 224.071 148.473 224.071 149.623V150.153ZM220.817 147.262C220.313 147.262 219.904 147.423 219.591 147.746C219.289 148.069 219.102 148.533 219.031 149.139H222.452C222.432 148.523 222.28 148.059 221.998 147.746C221.715 147.423 221.322 147.262 220.817 147.262ZM239.172 153.513H236.796L231.847 148.548V153.513H229.894V142.842H231.847V147.61L236.599 142.842H238.93L233.769 147.973L239.172 153.513ZM246.367 146.112V153.513H244.521V152.377C244.288 152.781 243.976 153.094 243.582 153.316C243.189 153.528 242.745 153.634 242.25 153.634C240.434 153.634 239.526 152.615 239.526 150.576V146.112H241.418V150.592C241.418 151.116 241.524 151.505 241.736 151.757C241.948 152.009 242.281 152.135 242.735 152.135C243.259 152.135 243.678 151.964 243.991 151.621C244.314 151.268 244.475 150.803 244.475 150.228V146.112H246.367ZM252.589 145.93C253.225 145.93 253.79 146.091 254.284 146.414C254.789 146.737 255.177 147.196 255.45 147.792C255.732 148.377 255.873 149.053 255.873 149.82C255.873 150.586 255.732 151.257 255.45 151.833C255.177 152.408 254.794 152.852 254.299 153.164C253.805 153.477 253.235 153.634 252.589 153.634C252.064 153.634 251.595 153.523 251.181 153.301C250.768 153.079 250.45 152.771 250.228 152.377V156.237H248.336V146.112H250.198V147.232C250.42 146.818 250.738 146.5 251.151 146.278C251.575 146.046 252.054 145.93 252.589 145.93ZM252.09 152.166C252.685 152.166 253.149 151.964 253.482 151.56C253.815 151.146 253.981 150.566 253.981 149.82C253.981 149.053 253.815 148.457 253.482 148.034C253.149 147.61 252.685 147.398 252.09 147.398C251.484 147.398 251.015 147.605 250.682 148.019C250.359 148.432 250.198 149.023 250.198 149.789C250.198 150.546 250.359 151.131 250.682 151.545C251.015 151.959 251.484 152.166 252.09 152.166ZM260.801 153.634C260.044 153.634 259.378 153.477 258.803 153.164C258.238 152.852 257.799 152.403 257.487 151.817C257.174 151.232 257.017 150.551 257.017 149.774C257.017 148.997 257.174 148.321 257.487 147.746C257.799 147.161 258.238 146.712 258.803 146.399C259.378 146.086 260.044 145.93 260.801 145.93C261.558 145.93 262.219 146.086 262.784 146.399C263.359 146.712 263.798 147.161 264.101 147.746C264.413 148.321 264.57 148.997 264.57 149.774C264.57 150.551 264.413 151.232 264.101 151.817C263.798 152.403 263.359 152.852 262.784 153.164C262.219 153.477 261.558 153.634 260.801 153.634ZM260.786 152.166C261.401 152.166 261.871 151.964 262.194 151.56C262.516 151.157 262.678 150.561 262.678 149.774C262.678 148.997 262.516 148.407 262.194 148.003C261.871 147.59 261.406 147.383 260.801 147.383C260.196 147.383 259.726 147.59 259.394 148.003C259.071 148.407 258.909 148.997 258.909 149.774C258.909 150.561 259.071 151.157 259.394 151.56C259.716 151.964 260.181 152.166 260.786 152.166ZM270.43 145.93C271.318 145.93 271.979 146.182 272.413 146.687C272.846 147.191 273.063 147.953 273.063 148.972V153.513H271.172V149.078C271.172 148.503 271.061 148.084 270.839 147.822C270.627 147.559 270.289 147.428 269.825 147.428C269.28 147.428 268.841 147.6 268.508 147.943C268.185 148.286 268.023 148.745 268.023 149.32V153.513H266.132V146.112H267.978V147.216C268.23 146.803 268.568 146.485 268.992 146.263C269.416 146.041 269.895 145.93 270.43 145.93ZM274.818 146.112H276.937V148.2H274.818V146.112ZM274.818 151.424H276.937V153.513H274.818V151.424ZM290.279 146.535H289.008L288.372 149.699H289.962V150.924H288.13L287.616 153.513H286.314L286.829 150.924H284.906L284.392 153.513H283.075L283.59 150.924H282.53V149.699H283.832L284.468 146.535H282.848V145.309H284.71L285.194 142.842H286.496L286.011 145.309H287.933L288.418 142.842H289.735L289.25 145.309H290.279V146.535ZM287.071 149.699L287.691 146.535H285.769L285.149 149.699H287.071ZM296.933 151.939H299.249V153.513H292.665V151.939H294.98V145.067L293.149 146.172L292.377 144.749L295.54 142.842H296.933V151.939ZM308.293 151.939V153.513H301.119V152.075L304.752 148.17C305.176 147.706 305.483 147.282 305.675 146.899C305.877 146.505 305.978 146.117 305.978 145.733C305.978 145.249 305.836 144.886 305.554 144.643C305.281 144.391 304.878 144.265 304.343 144.265C303.385 144.265 302.421 144.633 301.452 145.37L300.802 143.947C301.225 143.574 301.765 143.276 302.421 143.054C303.087 142.822 303.753 142.706 304.419 142.706C305.488 142.706 306.336 142.969 306.961 143.493C307.587 144.018 307.9 144.724 307.9 145.612C307.9 146.228 307.769 146.808 307.506 147.353C307.244 147.887 306.8 148.488 306.174 149.154L303.556 151.939H308.293ZM315.295 148.034C315.92 148.195 316.399 148.503 316.732 148.957C317.076 149.401 317.247 149.956 317.247 150.622C317.247 151.55 316.904 152.287 316.218 152.831C315.542 153.366 314.619 153.634 313.448 153.634C312.732 153.634 312.041 153.523 311.375 153.301C310.719 153.079 310.174 152.776 309.74 152.393L310.391 150.97C311.319 151.706 312.313 152.075 313.372 152.075C314.049 152.075 314.553 151.944 314.886 151.681C315.219 151.409 315.385 151 315.385 150.455C315.385 149.921 315.214 149.527 314.871 149.275C314.538 149.012 314.018 148.881 313.312 148.881H311.904V147.337H313.055C314.437 147.337 315.128 146.818 315.128 145.779C315.128 145.294 314.977 144.921 314.674 144.659C314.381 144.396 313.963 144.265 313.418 144.265C312.944 144.265 312.459 144.361 311.965 144.553C311.481 144.734 311.006 145.007 310.542 145.37L309.891 143.947C310.315 143.564 310.855 143.261 311.511 143.039C312.177 142.817 312.853 142.706 313.539 142.706C314.588 142.706 315.426 142.963 316.051 143.478C316.677 143.983 316.99 144.669 316.99 145.536C316.98 146.132 316.823 146.651 316.521 147.095C316.228 147.529 315.819 147.842 315.295 148.034ZM326.458 151.939V153.513H319.284V152.075L322.917 148.17C323.341 147.706 323.648 147.282 323.84 146.899C324.042 146.505 324.143 146.117 324.143 145.733C324.143 145.249 324.001 144.886 323.719 144.643C323.446 144.391 323.043 144.265 322.508 144.265C321.55 144.265 320.586 144.633 319.617 145.37L318.967 143.947C319.39 143.574 319.93 143.276 320.586 143.054C321.252 142.822 321.918 142.706 322.584 142.706C323.653 142.706 324.501 142.969 325.126 143.493C325.752 144.018 326.065 144.724 326.065 145.612C326.065 146.228 325.934 146.808 325.671 147.353C325.409 147.887 324.965 148.488 324.339 149.154L321.721 151.939H326.458Z" fill="#373C6D"/>
<path d="M113.087 144.684V135.618H109.606V134.014H118.52V135.618H115.039V144.684H113.087ZM125.001 141.324H119.961C120.021 142.01 120.228 142.52 120.581 142.852C120.934 143.185 121.439 143.352 122.095 143.352C122.912 143.352 123.659 143.09 124.335 142.565L124.879 143.867C124.536 144.149 124.103 144.376 123.578 144.548C123.063 144.719 122.544 144.805 122.019 144.805C120.808 144.805 119.85 144.462 119.143 143.776C118.447 143.09 118.099 142.151 118.099 140.961C118.099 140.204 118.25 139.533 118.553 138.948C118.856 138.362 119.28 137.908 119.824 137.586C120.379 137.263 121.005 137.101 121.701 137.101C122.72 137.101 123.522 137.429 124.108 138.085C124.703 138.741 125.001 139.644 125.001 140.794V141.324ZM121.747 138.433C121.242 138.433 120.833 138.595 120.521 138.917C120.218 139.24 120.031 139.704 119.961 140.31H123.381C123.361 139.694 123.21 139.23 122.927 138.917C122.645 138.595 122.251 138.433 121.747 138.433ZM135.342 137.101C136.179 137.101 136.805 137.353 137.218 137.858C137.632 138.352 137.839 139.114 137.839 140.143V144.684H135.947V140.219C135.947 139.654 135.851 139.245 135.659 138.993C135.468 138.731 135.16 138.6 134.736 138.6C134.232 138.6 133.838 138.771 133.556 139.114C133.273 139.457 133.132 139.936 133.132 140.552V144.684H131.24V140.219C131.24 139.654 131.144 139.245 130.952 138.993C130.771 138.731 130.463 138.6 130.029 138.6C129.535 138.6 129.146 138.771 128.864 139.114C128.581 139.457 128.44 139.936 128.44 140.552V144.684H126.548V137.283H128.395V138.327C128.617 137.924 128.924 137.621 129.318 137.419C129.711 137.207 130.16 137.101 130.665 137.101C131.785 137.101 132.526 137.565 132.89 138.494C133.122 138.06 133.455 137.722 133.889 137.48C134.322 137.227 134.807 137.101 135.342 137.101ZM144.015 137.101C144.65 137.101 145.215 137.263 145.71 137.586C146.214 137.908 146.603 138.367 146.875 138.963C147.158 139.548 147.299 140.224 147.299 140.991C147.299 141.758 147.158 142.429 146.875 143.004C146.603 143.579 146.219 144.023 145.725 144.336C145.23 144.649 144.66 144.805 144.015 144.805C143.49 144.805 143.021 144.694 142.607 144.472C142.193 144.25 141.876 143.942 141.654 143.549V147.408H139.762V137.283H141.623V138.403C141.845 137.989 142.163 137.671 142.577 137.449C143.001 137.217 143.48 137.101 144.015 137.101ZM143.515 143.337C144.11 143.337 144.575 143.135 144.908 142.731C145.241 142.318 145.407 141.738 145.407 140.991C145.407 140.224 145.241 139.629 144.908 139.205C144.575 138.781 144.11 138.569 143.515 138.569C142.91 138.569 142.441 138.776 142.108 139.19C141.785 139.604 141.623 140.194 141.623 140.961C141.623 141.717 141.785 142.303 142.108 142.716C142.441 143.13 142.91 143.337 143.515 143.337ZM155.345 141.324H150.305C150.365 142.01 150.572 142.52 150.925 142.852C151.278 143.185 151.783 143.352 152.439 143.352C153.256 143.352 154.003 143.09 154.679 142.565L155.223 143.867C154.88 144.149 154.446 144.376 153.922 144.548C153.407 144.719 152.888 144.805 152.363 144.805C151.152 144.805 150.194 144.462 149.487 143.776C148.791 143.09 148.443 142.151 148.443 140.961C148.443 140.204 148.594 139.533 148.897 138.948C149.2 138.362 149.623 137.908 150.168 137.586C150.723 137.263 151.349 137.101 152.045 137.101C153.064 137.101 153.866 137.429 154.452 138.085C155.047 138.741 155.345 139.644 155.345 140.794V141.324ZM152.09 138.433C151.586 138.433 151.177 138.595 150.865 138.917C150.562 139.24 150.375 139.704 150.305 140.31H153.725C153.705 139.694 153.554 139.23 153.271 138.917C152.988 138.595 152.595 138.433 152.09 138.433ZM156.892 144.684V134.014H158.784V144.684H156.892ZM110.575 161.684V151.014H112.527V161.684H110.575ZM122.081 161.684H119.735L116.557 158.309V161.684H114.665V151.014H116.557V157.522L119.538 154.298H121.839L118.509 157.84L122.081 161.684ZM122.779 161.684V151.014H124.671V161.684H122.779ZM129.8 154.101C130.84 154.101 131.612 154.353 132.116 154.858C132.621 155.362 132.873 156.139 132.873 157.189V161.684H131.072V160.549C130.9 160.942 130.628 161.25 130.254 161.472C129.891 161.694 129.467 161.805 128.983 161.805C128.489 161.805 128.04 161.704 127.636 161.502C127.232 161.3 126.915 161.023 126.683 160.67C126.45 160.317 126.334 159.923 126.334 159.489C126.334 158.944 126.471 158.516 126.743 158.203C127.026 157.89 127.48 157.663 128.105 157.522C128.731 157.38 129.594 157.31 130.693 157.31H131.072V156.962C131.072 156.457 130.961 156.094 130.739 155.872C130.527 155.65 130.169 155.539 129.664 155.539C129.271 155.539 128.857 155.61 128.423 155.751C127.999 155.882 127.581 156.069 127.167 156.311L126.637 155.009C127.051 154.747 127.55 154.53 128.136 154.358C128.721 154.187 129.276 154.101 129.8 154.101ZM129.361 160.443C129.866 160.443 130.275 160.276 130.587 159.943C130.91 159.6 131.072 159.161 131.072 158.627V158.309H130.799C130.123 158.309 129.599 158.339 129.225 158.4C128.852 158.46 128.585 158.566 128.423 158.717C128.262 158.869 128.181 159.076 128.181 159.338C128.181 159.661 128.292 159.928 128.514 160.14C128.736 160.342 129.018 160.443 129.361 160.443ZM139.094 154.101C139.982 154.101 140.643 154.353 141.077 154.858C141.51 155.362 141.727 156.124 141.727 157.143V161.684H139.835V157.249C139.835 156.674 139.724 156.255 139.503 155.993C139.291 155.731 138.953 155.6 138.488 155.6C137.944 155.6 137.505 155.771 137.172 156.114C136.849 156.457 136.687 156.916 136.687 157.491V161.684H134.796V154.283H136.642V155.388C136.894 154.974 137.232 154.656 137.656 154.434C138.08 154.212 138.559 154.101 139.094 154.101Z" fill="#9DA1C0"/>
<path d="M392.669 144.843C391.445 144.843 390.373 144.584 389.455 144.066C388.549 143.536 387.848 142.789 387.354 141.823C386.871 140.858 386.63 139.734 386.63 138.451C386.63 137.168 386.871 136.049 387.354 135.096C387.848 134.131 388.549 133.389 389.455 132.871C390.373 132.341 391.445 132.076 392.669 132.076C393.505 132.076 394.293 132.206 395.035 132.465C395.777 132.724 396.4 133.089 396.907 133.56L396.147 135.219C395.582 134.772 395.023 134.448 394.47 134.248C393.917 134.036 393.328 133.93 392.704 133.93C391.503 133.93 390.573 134.319 389.914 135.096C389.267 135.873 388.943 136.991 388.943 138.451C388.943 139.922 389.267 141.046 389.914 141.823C390.573 142.6 391.503 142.989 392.704 142.989C393.328 142.989 393.917 142.889 394.47 142.689C395.023 142.477 395.582 142.147 396.147 141.7L396.907 143.36C396.4 143.83 395.777 144.195 395.035 144.454C394.293 144.713 393.505 144.843 392.669 144.843ZM398.791 144.684V132.235H400.998V144.684H398.791ZM403.275 144.684V136.049H405.482V144.684H403.275ZM403.151 132.041H405.588V134.213H403.151V132.041ZM411.696 144.825C410.789 144.825 410 144.643 409.329 144.278C408.67 143.913 408.164 143.395 407.811 142.724C407.458 142.053 407.281 141.27 407.281 140.375C407.281 139.481 407.464 138.692 407.829 138.009C408.205 137.315 408.735 136.779 409.418 136.402C410.101 136.026 410.889 135.837 411.784 135.837C412.396 135.837 412.99 135.937 413.567 136.138C414.156 136.326 414.627 136.585 414.98 136.915L414.344 138.468C413.979 138.174 413.591 137.95 413.179 137.797C412.779 137.644 412.378 137.568 411.978 137.568C411.213 137.568 410.618 137.809 410.195 138.292C409.771 138.763 409.559 139.445 409.559 140.34C409.559 141.223 409.771 141.906 410.195 142.388C410.618 142.859 411.213 143.095 411.978 143.095C412.378 143.095 412.779 143.018 413.179 142.865C413.591 142.712 413.979 142.488 414.344 142.194L414.98 143.73C414.603 144.072 414.121 144.342 413.532 144.543C412.943 144.731 412.331 144.825 411.696 144.825ZM425.032 144.684H422.295L418.587 140.746V144.684H416.38V132.235H418.587V139.828L422.066 136.067H424.749L420.865 140.199L425.032 144.684ZM392.355 162.684V152.107H388.294V150.235H398.694V152.107H394.633V162.684H392.355ZM405.073 153.837C406.109 153.837 406.88 154.132 407.387 154.72C407.893 155.309 408.146 156.198 408.146 157.387V162.684H405.939V157.51C405.939 156.839 405.809 156.351 405.55 156.045C405.303 155.739 404.909 155.586 404.367 155.586C403.731 155.586 403.219 155.786 402.831 156.186C402.454 156.586 402.266 157.122 402.266 157.793V162.684H400.059V150.235H402.266V155.25C402.56 154.791 402.949 154.444 403.431 154.208C403.926 153.961 404.473 153.837 405.073 153.837ZM410.388 162.684V154.049H412.595V162.684H410.388ZM410.264 150.041H412.701V152.213H410.264V150.041ZM418.049 162.825C417.284 162.825 416.578 162.731 415.93 162.543C415.295 162.354 414.753 162.083 414.306 161.73L414.924 160.194C415.842 160.865 416.896 161.201 418.085 161.201C418.591 161.201 418.973 161.118 419.232 160.953C419.503 160.789 419.639 160.553 419.639 160.247C419.639 159.988 419.544 159.788 419.356 159.647C419.179 159.505 418.856 159.376 418.385 159.258L416.972 158.94C416.172 158.764 415.577 158.475 415.189 158.075C414.8 157.675 414.606 157.157 414.606 156.521C414.606 155.992 414.753 155.527 415.048 155.126C415.354 154.714 415.772 154.397 416.301 154.173C416.843 153.949 417.467 153.837 418.173 153.837C418.785 153.837 419.374 153.932 419.939 154.12C420.516 154.308 421.022 154.573 421.457 154.915L420.839 156.415C419.945 155.768 419.05 155.444 418.155 155.444C417.673 155.444 417.296 155.533 417.025 155.709C416.754 155.886 416.619 156.133 416.619 156.451C416.619 156.686 416.701 156.88 416.866 157.033C417.043 157.186 417.319 157.304 417.696 157.387L419.162 157.722C420.021 157.91 420.651 158.211 421.051 158.623C421.451 159.023 421.651 159.553 421.651 160.212C421.651 161.012 421.328 161.648 420.68 162.119C420.033 162.59 419.156 162.825 418.049 162.825ZM404.192 179.684L402.938 176.77H396.882L395.628 179.684H393.333L398.965 167.235H400.819L406.452 179.684H404.192ZM397.623 175.005H402.179L399.901 169.707L397.623 175.005ZM415.92 167.235V179.684H413.73V178.289C413.471 178.772 413.095 179.148 412.6 179.419C412.118 179.69 411.564 179.825 410.94 179.825C410.199 179.825 409.534 179.637 408.945 179.26C408.368 178.883 407.915 178.354 407.586 177.671C407.268 176.976 407.109 176.182 407.109 175.287C407.109 174.392 407.268 173.61 407.586 172.939C407.915 172.268 408.368 171.75 408.945 171.385C409.522 171.02 410.187 170.837 410.94 170.837C411.564 170.837 412.118 170.967 412.6 171.226C413.083 171.485 413.454 171.85 413.713 172.321V167.235H415.92ZM411.523 178.112C412.229 178.112 412.771 177.871 413.148 177.388C413.536 176.906 413.73 176.217 413.73 175.322C413.73 174.428 413.536 173.745 413.148 173.274C412.771 172.792 412.235 172.55 411.541 172.55C410.835 172.55 410.287 172.786 409.899 173.256C409.51 173.727 409.316 174.404 409.316 175.287C409.316 176.182 409.51 176.876 409.899 177.371C410.287 177.865 410.829 178.112 411.523 178.112Z" fill="#9DA1C0"/>
<g clip-path="url(#clip0)">
<path d="M312.484 169.783C312.484 176.052 307.402 181.134 301.133 181.134C294.864 181.134 289.782 176.052 289.782 169.783H193.926C191.14 169.783 188.881 172.041 188.881 174.828V251.764C188.881 254.55 191.14 256.809 193.926 256.809H289.782C289.782 250.54 294.864 245.458 301.133 245.458C307.402 245.458 312.484 250.54 312.484 256.809H345.277C348.063 256.809 350.322 254.55 350.322 251.764V174.828C350.322 172.041 348.063 169.783 345.277 169.783H312.484Z" fill="url(#paint1_linear)"/>
<path d="M213.661 210.269H210.889L205.115 204.477V210.269H202.837V197.82H205.115V203.382L210.659 197.82H213.379L207.357 203.806L213.661 210.269ZM222.055 201.634V210.269H219.901V208.945C219.63 209.415 219.266 209.78 218.806 210.039C218.347 210.287 217.829 210.41 217.253 210.41C215.134 210.41 214.074 209.221 214.074 206.843V201.634H216.281V206.861C216.281 207.473 216.405 207.926 216.652 208.221C216.899 208.515 217.288 208.662 217.818 208.662C218.43 208.662 218.918 208.462 219.283 208.062C219.66 207.65 219.848 207.108 219.848 206.437V201.634H222.055ZM229.314 201.422C230.056 201.422 230.715 201.611 231.292 201.988C231.881 202.364 232.334 202.9 232.652 203.594C232.981 204.277 233.146 205.066 233.146 205.96C233.146 206.855 232.981 207.638 232.652 208.309C232.334 208.98 231.887 209.498 231.31 209.863C230.733 210.228 230.068 210.41 229.314 210.41C228.702 210.41 228.155 210.281 227.672 210.022C227.19 209.763 226.819 209.404 226.56 208.945V213.447H224.353V201.634H226.525V202.941C226.784 202.458 227.154 202.088 227.637 201.829C228.131 201.558 228.691 201.422 229.314 201.422ZM228.732 208.697C229.426 208.697 229.968 208.462 230.356 207.991C230.745 207.508 230.939 206.832 230.939 205.96C230.939 205.066 230.745 204.371 230.356 203.877C229.968 203.382 229.426 203.135 228.732 203.135C228.025 203.135 227.478 203.377 227.09 203.859C226.713 204.342 226.525 205.031 226.525 205.925C226.525 206.808 226.713 207.491 227.09 207.973C227.478 208.456 228.025 208.697 228.732 208.697ZM238.895 210.41C238.012 210.41 237.235 210.228 236.564 209.863C235.905 209.498 235.393 208.974 235.028 208.291C234.663 207.609 234.481 206.814 234.481 205.908C234.481 205.001 234.663 204.212 235.028 203.541C235.393 202.859 235.905 202.335 236.564 201.97C237.235 201.605 238.012 201.422 238.895 201.422C239.778 201.422 240.549 201.605 241.208 201.97C241.879 202.335 242.391 202.859 242.745 203.541C243.109 204.212 243.292 205.001 243.292 205.908C243.292 206.814 243.109 207.609 242.745 208.291C242.391 208.974 241.879 209.498 241.208 209.863C240.549 210.228 239.778 210.41 238.895 210.41ZM238.878 208.697C239.596 208.697 240.143 208.462 240.52 207.991C240.896 207.52 241.085 206.826 241.085 205.908C241.085 205.001 240.896 204.312 240.52 203.842C240.143 203.359 239.601 203.118 238.895 203.118C238.189 203.118 237.642 203.359 237.253 203.842C236.876 204.312 236.688 205.001 236.688 205.908C236.688 206.826 236.876 207.52 237.253 207.991C237.63 208.462 238.171 208.697 238.878 208.697ZM250.129 201.422C251.165 201.422 251.936 201.717 252.442 202.305C252.948 202.894 253.201 203.783 253.201 204.972V210.269H250.994V205.095C250.994 204.424 250.865 203.936 250.606 203.63C250.358 203.324 249.964 203.171 249.423 203.171C248.787 203.171 248.275 203.371 247.886 203.771C247.51 204.171 247.321 204.707 247.321 205.378V210.269H245.114V201.634H247.268V202.923C247.563 202.441 247.957 202.07 248.451 201.811C248.946 201.552 249.505 201.422 250.129 201.422ZM212.355 228.269L211.101 225.355H205.044L203.791 228.269H201.495L207.128 215.82H208.982L214.615 228.269H212.355ZM205.786 223.59H210.342L208.064 218.292L205.786 223.59ZM220.763 219.422C221.799 219.422 222.57 219.717 223.076 220.305C223.582 220.894 223.835 221.783 223.835 222.972V228.269H221.628V223.095C221.628 222.424 221.499 221.936 221.24 221.63C220.992 221.324 220.598 221.171 220.057 221.171C219.421 221.171 218.909 221.371 218.52 221.771C218.144 222.171 217.955 222.707 217.955 223.378V228.269H215.748V219.634H217.902V220.923C218.197 220.441 218.591 220.07 219.085 219.811C219.58 219.552 220.139 219.422 220.763 219.422ZM234.411 215.82V228.269H232.222V226.874C231.963 227.357 231.586 227.733 231.092 228.004C230.609 228.275 230.056 228.41 229.432 228.41C228.69 228.41 228.025 228.222 227.437 227.845C226.86 227.468 226.407 226.939 226.077 226.256C225.759 225.561 225.6 224.767 225.6 223.872C225.6 222.978 225.759 222.195 226.077 221.524C226.407 220.853 226.86 220.335 227.437 219.97C228.014 219.605 228.679 219.422 229.432 219.422C230.056 219.422 230.609 219.552 231.092 219.811C231.574 220.07 231.945 220.435 232.204 220.906V215.82H234.411ZM230.015 226.697C230.721 226.697 231.263 226.456 231.639 225.973C232.028 225.491 232.222 224.802 232.222 223.908C232.222 223.013 232.028 222.33 231.639 221.859C231.263 221.377 230.727 221.135 230.032 221.135C229.326 221.135 228.779 221.371 228.39 221.842C228.002 222.312 227.808 222.989 227.808 223.872C227.808 224.767 228.002 225.461 228.39 225.956C228.779 226.45 229.32 226.697 230.015 226.697ZM240.39 219.422C241.603 219.422 242.503 219.717 243.092 220.305C243.68 220.894 243.974 221.8 243.974 223.025V228.269H241.873V226.945C241.673 227.404 241.355 227.763 240.92 228.022C240.496 228.281 240.002 228.41 239.437 228.41C238.86 228.41 238.336 228.292 237.865 228.057C237.394 227.822 237.023 227.498 236.753 227.086C236.482 226.674 236.346 226.215 236.346 225.709C236.346 225.073 236.505 224.573 236.823 224.208C237.153 223.843 237.683 223.578 238.412 223.413C239.142 223.248 240.149 223.166 241.432 223.166H241.873V222.76C241.873 222.171 241.744 221.747 241.485 221.488C241.238 221.229 240.82 221.1 240.231 221.1C239.772 221.1 239.289 221.182 238.783 221.347C238.289 221.5 237.8 221.718 237.318 222L236.7 220.482C237.182 220.176 237.765 219.923 238.448 219.723C239.13 219.523 239.778 219.422 240.39 219.422ZM239.878 226.821C240.467 226.821 240.943 226.627 241.308 226.238C241.685 225.838 241.873 225.326 241.873 224.702V224.331H241.555C240.767 224.331 240.155 224.367 239.719 224.437C239.283 224.508 238.972 224.631 238.783 224.808C238.595 224.985 238.501 225.226 238.501 225.532C238.501 225.909 238.63 226.221 238.889 226.468C239.148 226.703 239.478 226.821 239.878 226.821Z" fill="white"/>
<path d="M333.479 230.595V232.078L337.169 232.82V230.966H338.6V233.103L341.619 233.703V235.221L338.6 234.621V236.864L341.619 237.464V239L338.6 238.4V239.636H337.169V238.117L333.479 237.376V239.265H332.049V237.093L329.17 236.528V235.01L332.049 235.575V233.332L329.17 232.767V231.231L332.049 231.796V230.595H333.479ZM337.169 234.339L333.479 233.615V235.857L337.169 236.581V234.339ZM339.783 222.833V220.131H341.619V227.812H339.783V225.111H331.766L333.055 227.247L331.395 228.148L329.17 224.457V222.833H339.783ZM339.783 209.579H341.619V217.948H339.941L335.386 213.711C334.844 213.216 334.35 212.857 333.903 212.634C333.444 212.398 332.99 212.28 332.543 212.28C331.978 212.28 331.554 212.445 331.272 212.775C330.977 213.093 330.83 213.564 330.83 214.187C330.83 215.306 331.26 216.43 332.119 217.56L330.459 218.319C330.024 217.825 329.677 217.195 329.418 216.43C329.147 215.653 329.011 214.876 329.011 214.099C329.011 212.851 329.318 211.863 329.93 211.133C330.542 210.403 331.366 210.038 332.402 210.038C333.12 210.038 333.797 210.191 334.432 210.497C335.056 210.803 335.757 211.321 336.534 212.051L339.783 215.106V209.579ZM335.227 201.411C335.415 200.681 335.774 200.122 336.304 199.733C336.822 199.333 337.469 199.133 338.246 199.133C339.329 199.133 340.189 199.533 340.824 200.334C341.448 201.122 341.76 202.199 341.76 203.565C341.76 204.401 341.631 205.207 341.372 205.984C341.113 206.749 340.76 207.385 340.312 207.891L338.652 207.132C339.512 206.049 339.941 204.889 339.941 203.653C339.941 202.864 339.788 202.276 339.482 201.887C339.165 201.499 338.688 201.305 338.052 201.305C337.428 201.305 336.969 201.505 336.675 201.905C336.369 202.294 336.216 202.9 336.216 203.724V205.366H334.415V204.024C334.415 202.411 333.808 201.605 332.596 201.605C332.031 201.605 331.595 201.782 331.289 202.135C330.983 202.476 330.83 202.965 330.83 203.6C330.83 204.153 330.942 204.719 331.166 205.295C331.378 205.86 331.695 206.414 332.119 206.955L330.459 207.714C330.012 207.22 329.659 206.59 329.4 205.825C329.141 205.048 329.011 204.259 329.011 203.459C329.011 202.235 329.312 201.258 329.912 200.528C330.501 199.798 331.301 199.433 332.313 199.433C333.008 199.445 333.614 199.627 334.132 199.98C334.638 200.322 335.003 200.799 335.227 201.411ZM339.783 188.386H341.619V196.756H339.941L335.386 192.518C334.844 192.024 334.35 191.665 333.903 191.441C333.444 191.206 332.99 191.088 332.543 191.088C331.978 191.088 331.554 191.253 331.272 191.582C330.977 191.9 330.83 192.371 330.83 192.995C330.83 194.113 331.26 195.237 332.119 196.368L330.459 197.127C330.024 196.632 329.677 196.003 329.418 195.237C329.147 194.461 329.011 193.684 329.011 192.907C329.011 191.659 329.318 190.67 329.93 189.94C330.542 189.21 331.366 188.845 332.402 188.845C333.12 188.845 333.797 188.998 334.432 189.305C335.056 189.611 335.757 190.129 336.534 190.858L339.783 193.913V188.386Z" fill="white"/>
</g>
<path d="M301.765 188.071V238.521" stroke="white" stroke-width="1.26125" stroke-dasharray="5.05 5.05"/>
<path d="M89.2426 36.09C89.2426 30.5175 93.7601 26 99.3326 26H439.871C445.443 26 449.961 30.5175 449.961 36.09V44.5512H89.2426V36.09Z" fill="#007AFF"/>
<circle cx="105.732" cy="35.2757" r="4.12249" fill="white"/>
<circle cx="122.223" cy="35.2757" r="4.12249" fill="white"/>
<circle cx="138.712" cy="35.2757" r="4.12249" fill="white"/>
<g clip-path="url(#clip1)" filter="url(#filter2_d)">
<rect x="386.833" y="18.9966" width="81.7259" height="258.69" fill="url(#paint2_linear)" stroke="#007AFF" stroke-width="1.63728"/>
<path d="M408.897 51.265H405.682L398.987 44.5492V51.265H396.345V36.83H398.987V43.2797L405.416 36.83H408.569L401.587 43.7711L408.897 51.265ZM409.637 51.265V36.83H412.196V51.265H409.637ZM414.836 51.265V41.2527H417.395V51.265H414.836ZM414.692 36.6048H417.518V39.1232H414.692V36.6048ZM430.067 51.265H426.894L422.594 46.6991V51.265H420.034V36.83H422.594V45.6343L426.627 41.2731H429.74L425.235 46.0643L430.067 51.265ZM396.345 71.265V56.83H398.987V71.265H396.345ZM411.912 71.265H408.738L404.438 66.6991V71.265H401.879V56.83H404.438V65.6343L408.472 61.2731H411.584L407.079 66.0643L411.912 71.265ZM412.856 71.265V56.83H415.416V71.265H412.856ZM422.355 61.007C423.761 61.007 424.805 61.3482 425.487 62.0307C426.17 62.7132 426.511 63.7643 426.511 65.1839V71.265H424.075V69.7294C423.843 70.2617 423.474 70.6781 422.969 70.9784C422.478 71.2787 421.904 71.4288 421.249 71.4288C420.58 71.4288 419.973 71.2923 419.427 71.0193C418.881 70.7463 418.451 70.3709 418.137 69.8932C417.823 69.4154 417.666 68.8831 417.666 68.2961C417.666 67.559 417.85 66.9789 418.219 66.5557C418.601 66.1326 419.215 65.8254 420.062 65.6343C420.908 65.4432 422.075 65.3477 423.563 65.3477H424.075V64.8768C424.075 64.1943 423.924 63.7029 423.624 63.4026C423.338 63.1023 422.853 62.9521 422.17 62.9521C421.638 62.9521 421.078 63.0477 420.491 63.2388C419.918 63.4162 419.352 63.6687 418.792 63.9963L418.075 62.2355C418.635 61.8806 419.311 61.5871 420.102 61.355C420.894 61.123 421.645 61.007 422.355 61.007ZM421.761 69.5861C422.443 69.5861 422.996 69.3608 423.419 68.9104C423.856 68.4463 424.075 67.8525 424.075 67.129V66.6991H423.706C422.792 66.6991 422.082 66.74 421.577 66.8219C421.072 66.9038 420.71 67.0471 420.491 67.2519C420.273 67.4566 420.164 67.7365 420.164 68.0914C420.164 68.5282 420.314 68.8899 420.614 69.1765C420.915 69.4496 421.297 69.5861 421.761 69.5861ZM434.927 61.007C436.128 61.007 437.023 61.3482 437.61 62.0307C438.196 62.7132 438.49 63.7438 438.49 65.1225V71.265H435.931V65.2658C435.931 64.4877 435.78 63.9213 435.48 63.5664C435.193 63.2115 434.736 63.034 434.108 63.034C433.371 63.034 432.777 63.2661 432.327 63.7302C431.89 64.1943 431.672 64.8153 431.672 65.5934V71.265H429.112V61.2527H431.61V62.7473C431.952 62.1877 432.409 61.7577 432.982 61.4574C433.555 61.1571 434.204 61.007 434.927 61.007ZM396.345 90.265V75.83H398.987V90.265H396.345ZM407.694 80.007C408.895 80.007 409.789 80.3482 410.376 81.0307C410.963 81.7132 411.256 82.7438 411.256 84.1225V90.265H408.697V84.2658C408.697 83.4877 408.547 82.9213 408.247 82.5664C407.96 82.2115 407.503 82.034 406.875 82.034C406.138 82.034 405.544 82.2661 405.093 82.7302C404.657 83.1943 404.438 83.8153 404.438 84.5934V90.265H401.879V80.2527H404.377V81.7473C404.718 81.1877 405.175 80.7577 405.749 80.4574C406.322 80.1571 406.97 80.007 407.694 80.007ZM413.856 90.265V80.2527H416.415V90.265H413.856ZM413.713 75.6048H416.538V78.1232H413.713V75.6048Z" fill="white"/>
</g>
<rect x="385.194" y="17.3593" width="4.91183" height="4.91183" fill="white" stroke="#007AFF" stroke-width="1.63728"/>
<rect x="385.194" y="274.412" width="4.91183" height="4.91183" fill="white" stroke="#007AFF" stroke-width="1.63728"/>
<rect x="385.194" y="143.43" width="4.91183" height="4.91183" fill="white" stroke="#007AFF" stroke-width="1.63728"/>
<rect x="465.421" y="17.3593" width="4.91183" height="4.91183" fill="white" stroke="#007AFF" stroke-width="1.63728"/>
<rect x="465.421" y="274.412" width="4.91183" height="4.91183" fill="white" stroke="#007AFF" stroke-width="1.63728"/>
<rect x="465.421" y="143.43" width="4.91183" height="4.91183" fill="white" stroke="#007AFF" stroke-width="1.63728"/>
</g>
<defs>
<filter id="filter0_f" x="0.955175" y="195.008" width="205.585" height="79.4589" filterUnits="userSpaceOnUse" color-interpolation-filters="sRGB">
<feFlood flood-opacity="0" result="BackgroundImageFix"/>
<feBlend mode="normal" in="SourceGraphic" in2="BackgroundImageFix" result="shape"/>
<feGaussianBlur stdDeviation="2.5225" result="effect1_foregroundBlur"/>
</filter>
<filter id="filter1_d" x="73.644" y="4.84169" width="413.106" height="294.799" filterUnits="userSpaceOnUse" color-interpolation-filters="sRGB">
<feFlood flood-opacity="0" result="BackgroundImageFix"/>
<feColorMatrix in="SourceAlpha" type="matrix" values="0 0 0 0 0 0 0 0 0 0 0 0 0 0 0 0 0 0 127 0"/>
<feOffset dy="3.89965"/>
<feGaussianBlur stdDeviation="7.79931"/>
<feColorMatrix type="matrix" values="0 0 0 0 0.0666667 0 0 0 0 0.101961 0 0 0 0 0.407843 0 0 0 0.1 0"/>
<feBlend mode="normal" in2="BackgroundImageFix" result="effect1_dropShadow"/>
<feBlend mode="normal" in="SourceGraphic" in2="effect1_dropShadow" result="shape"/>
</filter>
<filter id="filter2_d" x="362.614" y="0.627844" width="130.164" height="307.127" filterUnits="userSpaceOnUse" color-interpolation-filters="sRGB">
<feFlood flood-opacity="0" result="BackgroundImageFix"/>
<feColorMatrix in="SourceAlpha" type="matrix" values="0 0 0 0 0 0 0 0 0 0 0 0 0 0 0 0 0 0 127 0"/>
<feOffset dy="5.85004"/>
<feGaussianBlur stdDeviation="11.7001"/>
<feColorMatrix type="matrix" values="0 0 0 0 0.0666667 0 0 0 0 0.101961 0 0 0 0 0.407843 0 0 0 0.24 0"/>
<feBlend mode="normal" in2="BackgroundImageFix" result="effect1_dropShadow"/>
<feBlend mode="normal" in="SourceGraphic" in2="effect1_dropShadow" result="shape"/>
</filter>
<linearGradient id="paint0_linear" x1="79.9217" y1="348.88" x2="71.3689" y2="235.475" gradientUnits="userSpaceOnUse">
<stop stop-color="#373C6D"/>
<stop offset="1" stop-color="#373C6D" stop-opacity="0"/>
</linearGradient>
<linearGradient id="paint1_linear" x1="245.007" y1="315.457" x2="230.76" y2="96.8061" gradientUnits="userSpaceOnUse">
<stop stop-color="#F6772E"/>
<stop offset="1" stop-color="#FBCC41"/>
</linearGradient>
<linearGradient id="paint2_linear" x1="526.416" y1="278.505" x2="173.95" y2="-56.4102" gradientUnits="userSpaceOnUse">
<stop stop-color="#008EFF"/>
<stop offset="0.445067" stop-color="#88CCFF"/>
<stop offset="1" stop-color="#BEE0FF"/>
</linearGradient>
<clipPath id="clip0">
<rect width="161.44" height="87.0264" fill="white" transform="translate(188.881 169.783)"/>
</clipPath>
<clipPath id="clip1">
<rect width="83.3631" height="260.327" fill="white" transform="translate(386.014 18.178)"/>
</clipPath>
</defs>
</svg>
