<svg id="Layer_1" data-name="Layer 1" xmlns="http://www.w3.org/2000/svg" xmlns:xlink="http://www.w3.org/1999/xlink" viewBox="0 0 64 64"><defs><linearGradient id="linear-gradient" x1="16" y1="37" x2="48" y2="37" gradientUnits="userSpaceOnUse"><stop offset="0" stop-color="#007aff"/><stop offset="0.63" stop-color="#008bff"/><stop offset="1" stop-color="#0095ff"/></linearGradient><linearGradient id="linear-gradient-2" x1="3" y1="58" x2="60" y2="58" xlink:href="#linear-gradient"/><linearGradient id="linear-gradient-3" x1="37" y1="8.5" x2="46" y2="8.5" xlink:href="#linear-gradient"/><linearGradient id="linear-gradient-4" x1="27" y1="8" x2="37" y2="8" xlink:href="#linear-gradient"/></defs><title>ic_</title><polygon points="17 61 10 61 10 24 17 18 17 61" fill="#cfdefe"/><rect x="22.33" y="15" width="7" height="46" fill="#cfdefe"/><rect x="34.67" y="15" width="7" height="46" fill="#cfdefe"/><polygon points="54 61 47 61 47 18 54 24 54 61" fill="#cfdefe"/><circle cx="32" cy="37" r="16" fill="url(#linear-gradient)"/><path d="M32,36c3.62,0,4.07-3.63,4.07-5.88a4.07,4.07,0,1,0-8.14,0C27.93,32.32,28.83,36,32,36Z" fill="#fff"/><path d="M41.5,40c-.68-2-4.07-2.71-5.09-3.05a1.62,1.62,0,0,1-.35-.17L32.17,40.3,28,36.74a2,2,0,0,1-.36.17c-1,.34-4.41,1-5.09,3.05a17.18,17.18,0,0,0-.68,4.42S23,50,32,50s10.18-5.62,10.18-5.62A17.18,17.18,0,0,0,41.5,40Z" fill="#fff"/><rect x="3" y="55" width="57" height="6" fill="url(#linear-gradient-2)"/><path d="M61,62H3a1,1,0,0,1-1-1V43a1,1,0,0,1,2,0V60H60V43a1,1,0,0,1,2,0V61A1,1,0,0,1,61,62Z" fill="#001b44"/><path d="M61,44a1,1,0,0,1-1-1A28,28,0,0,0,4,43a1,1,0,0,1-2,0,30,30,0,0,1,60,0A1,1,0,0,1,61,44Z" fill="#001b44"/><path d="M9.86,62a1,1,0,0,1-1-1V25a1,1,0,0,1,2,0V61A1,1,0,0,1,9.86,62Z" fill="#001b44"/><path d="M54.14,62a1,1,0,0,1-1-1V25a1,1,0,0,1,2,0V61A1,1,0,0,1,54.14,62Z" fill="#001b44"/><rect x="37" y="7" width="9" height="3" fill="url(#linear-gradient-3)"/><rect x="43" y="7" width="2" height="3" fill="#0366d6"/><rect x="44" y="6" width="2" height="5" fill="#cfdefe"/><circle cx="32" cy="8" r="5" fill="url(#linear-gradient-4)"/><path d="M32,14a6,6,0,1,1,6-6A6,6,0,0,1,32,14ZM32,4a4,4,0,1,0,4,4A4,4,0,0,0,32,4Z" fill="#001b44"/><circle cx="19.33" cy="9.67" r="6.67" fill="#6ccb93"/><circle cx="19.33" cy="9.67" r="2.67" fill="#fff"/><path d="M19.33,17.33A7.67,7.67,0,1,1,27,9.67,7.67,7.67,0,0,1,19.33,17.33ZM19.33,4A5.67,5.67,0,1,0,25,9.67,5.67,5.67,0,0,0,19.33,4Z" fill="#001b44"/></svg>