<svg id="Layer_1" data-name="Layer 1" xmlns="http://www.w3.org/2000/svg" xmlns:xlink="http://www.w3.org/1999/xlink" viewBox="0 0 64 64"><defs><linearGradient id="New_Gradient_Swatch_4" x1="32" y1="39.32" x2="41.68" y2="39.32" gradientTransform="translate(32.22 -13.16) rotate(45)" gradientUnits="userSpaceOnUse"><stop offset="0" stop-color="#007aff"/><stop offset="1" stop-color="#0095ff"/></linearGradient></defs><title>ic_</title><circle cx="32" cy="31" r="22.61" fill="#cfdefe"/><path d="M12.23,21a.94.94,0,0,1-.48-.13,1,1,0,0,1-.39-1.36A23.65,23.65,0,0,1,32,7.38a1,1,0,0,1,0,2A21.66,21.66,0,0,0,13.11,20.49,1,1,0,0,1,12.23,21Z" fill="#001b44"/><path d="M32,54.61a1,1,0,0,1,0-2,21.51,21.51,0,0,0,19.39-12,1,1,0,1,1,1.79.88A23.49,23.49,0,0,1,32,54.61Z" fill="#001b44"/><path d="M57.39,6.92,31.31,33,21.16,43.15a1.88,1.88,0,0,1-.31-.27A9.33,9.33,0,0,1,21,29.64L43.89,6.73a9.32,9.32,0,0,1,13.23-.11A2,2,0,0,1,57.39,6.92Z" fill="#0366d6"/><polygon points="33 17.62 33 33 31 33 31 19.62 33 17.62" fill="#007aff"/><polygon points="37.5 13.12 37.5 28.5 35.5 28.5 35.5 15.12 37.5 13.12" fill="#007aff"/><polygon points="42 8.62 42 24 40 24 40 10.62 42 8.62" fill="#007aff"/><path d="M51.52,26.48a9.32,9.32,0,0,0,.12-13.23l-.3-.28-22.5,22.5-5.21,5.2L2.73,61.58,8,61,29.21,40.23l9.3-.74Z" fill="url(#New_Gradient_Swatch_4)"/><rect x="46.31" y="19.82" width="3.76" height="3.76" rx="1.88" ry="1.88" transform="translate(29.46 -27.72) rotate(45)" fill="#fff"/><circle cx="14" cy="17" r="6" fill="#6ccb93"/><circle cx="52" cy="41" r="3" fill="#6ccb93"/><path d="M8,62a1,1,0,0,1-.71-.3,1,1,0,0,1,0-1.41L28.51,39.52A1,1,0,1,1,29.91,41L8.7,61.71A1,1,0,0,1,8,62Z" fill="#001b44"/><path d="M33,25a1,1,0,0,1-1-1V17a1,1,0,0,1,2,0v7A1,1,0,0,1,33,25Z" fill="#001b44"/><path d="M37.5,20.5a1,1,0,0,1-1-1v-7a1,1,0,0,1,2,0v7A1,1,0,0,1,37.5,20.5Z" fill="#001b44"/><path d="M42,16a1,1,0,0,1-1-1V8a1,1,0,0,1,2,0v7A1,1,0,0,1,42,16Z" fill="#001b44"/></svg>