<svg id="Layer_1" data-name="Layer 1" xmlns="http://www.w3.org/2000/svg" xmlns:xlink="http://www.w3.org/1999/xlink" viewBox="0 0 64 64"><defs><linearGradient id="New_Gradient_Swatch_4" x1="63.14" y1="62.45" x2="12.98" y2="21.45" gradientUnits="userSpaceOnUse"><stop offset="0" stop-color="#007aff"/><stop offset="1" stop-color="#0095ff"/></linearGradient></defs><title>ic_</title><path d="M61,13H59V10a1,1,0,0,0-1-1H6a1,1,0,0,0-1,1v3H3V10A3,3,0,0,1,6,7H58a3,3,0,0,1,3,3Z" fill="#001b44"/><path d="M59.07,8h-2V5a.94.94,0,0,0-.86-1H7.79a.94.94,0,0,0-.86,1V8h-2V5A2.94,2.94,0,0,1,7.79,2H56.21a2.94,2.94,0,0,1,2.86,3Z" fill="#001b44"/><rect x="2" y="12" width="60" height="50" rx="2" ry="2" fill="url(#New_Gradient_Swatch_4)"/><path d="M35.27,36.38l-1.09,3.78-.08.28a1.91,1.91,0,0,1-1.69,1.25H29.17a3,3,0,0,0,0,6h2a.9.9,0,0,1,.72.87,1.46,1.46,0,0,1,0,.22L30.78,53H29.16a8.29,8.29,0,0,1,0-16.58Z" fill="#fff"/><path d="M53,39.31a8.23,8.23,0,0,1-8.17,8.28H39.69l1.09-3.78.08-.27a1.9,1.9,0,0,1,1.69-1.25h2.28a3,3,0,0,0,0-6H41.67l-4,15.17-.06.24A1.81,1.81,0,0,1,36.24,53a1.66,1.66,0,0,1-.32,0H32l5.15-20.36.08-.29A1.92,1.92,0,0,1,39,31h5.84A8.23,8.23,0,0,1,53,39.31Z" fill="#fff"/><rect x="14" y="12" width="2" height="50" fill="#fff" opacity="0.31"/><rect x="38" y="-2" width="2" height="46" transform="translate(60 -18) rotate(90)" fill="#fff" opacity="0.31"/><rect x="5" y="21" width="7" height="2" fill="#6ccb93"/><rect x="6" y="10" width="52" height="1" fill="#007aff"/><rect x="8" y="5" width="48" height="1" fill="#007aff"/><rect x="5" y="26" width="7" height="2" fill="#007aff"/><rect x="5" y="31" width="7" height="2" fill="#007aff"/><rect x="5" y="36" width="7" height="2" fill="#cfdefe"/><rect x="5" y="41" width="7" height="2" fill="#cfdefe"/><rect x="5" y="46" width="7" height="2" fill="#cfdefe"/><rect x="5" y="51" width="7" height="2" fill="#cfdefe"/></svg>