<svg id="Layer_1" data-name="Layer 1" xmlns="http://www.w3.org/2000/svg" xmlns:xlink="http://www.w3.org/1999/xlink" viewBox="0 0 64 64"><defs><linearGradient id="New_Gradient_Swatch_4" x1="25.79" y1="16.83" x2="51.83" y2="16.83" gradientUnits="userSpaceOnUse"><stop offset="0" stop-color="#007aff"/><stop offset="1" stop-color="#0095ff"/></linearGradient><linearGradient id="New_Gradient_Swatch_4-2" x1="7.02" y1="13.7" x2="41.73" y2="13.7" xlink:href="#New_Gradient_Swatch_4"/><linearGradient id="New_Gradient_Swatch_4-3" x1="32.46" y1="38.74" x2="62" y2="38.74" xlink:href="#New_Gradient_Swatch_4"/><linearGradient id="New_Gradient_Swatch_4-4" x1="12.26" y1="47.13" x2="37.84" y2="47.13" xlink:href="#New_Gradient_Swatch_4"/><linearGradient id="New_Gradient_Swatch_4-5" x1="4.9" y1="39.75" x2="22.08" y2="39.75" xlink:href="#New_Gradient_Swatch_4"/><linearGradient id="New_Gradient_Swatch_4-6" x1="37.09" y1="47.74" x2="47.97" y2="57.06" xlink:href="#New_Gradient_Swatch_4"/><linearGradient id="New_Gradient_Swatch_4-7" x1="41.87" y1="24.71" x2="58.97" y2="24.71" xlink:href="#New_Gradient_Swatch_4"/><linearGradient id="New_Gradient_Swatch_4-8" x1="2" y1="25.3" x2="31.57" y2="25.3" xlink:href="#New_Gradient_Swatch_4"/></defs><title>ic_</title><path d="M45.9,31.66c.27-1.45.65-2.86.79-4.29.54-5.3-.28-10.23-3.83-14.49A31,31,0,0,0,37.7,7.49,21.44,21.44,0,0,0,26.2,3.25c-.13,0-.26,0-.39-.06l0-.15c1.14-.27,2.26-.63,3.42-.8a19.23,19.23,0,0,1,15,3.83,19.51,19.51,0,0,1,7.53,12.22,9.73,9.73,0,0,1-.46,4.24,19,19,0,0,1-5.15,8.94Z" fill="url(#New_Gradient_Swatch_4)"/><path d="M41.73,22.3C38.18,16,33,12,25.92,10.65S12.57,11.24,7,16.07a18.35,18.35,0,0,1,3-4.44A19.37,19.37,0,0,1,24.76,5.09,19.85,19.85,0,0,1,36.35,8.65a4.89,4.89,0,0,1,1,.95A18.59,18.59,0,0,1,41.6,20.21C41.65,20.91,41.69,21.6,41.73,22.3Z" fill="url(#New_Gradient_Swatch_4-2)"/><path d="M32.46,45.58c6.79,2,13.24,1.31,19.11-2.75s8.86-9.8,9.49-16.91c.12.39.25.77.35,1.16s.19.8.27,1.2A20,20,0,0,1,47,51.29a10.87,10.87,0,0,1-5.72-.3A18.42,18.42,0,0,1,32.46,45.58Z" fill="url(#New_Gradient_Swatch_4-3)"/><path d="M18.2,32.26c-2,7-1.29,13.43,2.77,19.32s9.77,8.88,16.87,9.49c-.85.21-1.69.47-2.55.62A19.9,19.9,0,0,1,12.61,47.35,11.58,11.58,0,0,1,13,40.6a18.66,18.66,0,0,1,4.69-7.83Z" fill="url(#New_Gradient_Swatch_4-4)"/><path d="M22.08,22.56a21.93,21.93,0,0,0-6.25,34.38,6.66,6.66,0,0,1-.67-.34,19.44,19.44,0,0,1-10-14.48A19.47,19.47,0,0,1,8.41,27.83,4.27,4.27,0,0,1,9.19,27a18.44,18.44,0,0,1,10.22-4.31c.31,0,.61-.09.91-.1Z" fill="url(#New_Gradient_Swatch_4-5)"/><path d="M56.37,48.24A19.65,19.65,0,0,1,38.79,59.08a19.33,19.33,0,0,1-11.07-3.4,6.07,6.07,0,0,1-1.21-1.11,19.36,19.36,0,0,1-4.25-12.79c3.47,6.37,8.52,10.45,15.52,11.75S51,52.89,56.37,48.24Z" fill="url(#New_Gradient_Swatch_4-6)"/><path d="M48.23,7.56A19.27,19.27,0,0,1,58,19a19.78,19.78,0,0,1-2.21,17.11,9.55,9.55,0,0,1-3.34,2.92,19,19,0,0,1-9.82,2.8,5,5,0,0,1-.55,0s-.07,0-.16-.07c6.24-3.42,10.29-8.51,11.57-15.56S52.8,13,48.23,7.56Z" fill="url(#New_Gradient_Swatch_4-7)"/><path d="M31.57,18.45c-6.92-2-13.36-1.3-19.21,2.78s-8.83,9.84-9.43,17c-.22-.87-.49-1.73-.64-2.61A20,20,0,0,1,12,14.75a18.57,18.57,0,0,1,6.18-2.27,9.81,9.81,0,0,1,4.16.46,18.72,18.72,0,0,1,8.77,5C31.26,18.09,31.36,18.22,31.57,18.45Z" fill="url(#New_Gradient_Swatch_4-8)"/><path d="M44.07,30.93c-.29-1.54-.59-3-.83-4.56A5,5,0,0,1,43.36,25a23,23,0,0,0-.31-8.71A20,20,0,0,1,44.07,30.93Z" fill="#0366d6"/><path d="M39.9,22.8c-1.37-.93-2.68-1.82-4-2.72a1.43,1.43,0,0,1-.28-.32,21.22,21.22,0,0,0-6.48-6.35.36.36,0,0,1-.15-.17A19.8,19.8,0,0,1,39.9,22.8Z" fill="#0366d6"/><path d="M41.31,39.63,44,35.72a1.26,1.26,0,0,1,.35-.34,21.23,21.23,0,0,0,6.28-6.45c0-.06.06-.11.15-.11A19.54,19.54,0,0,1,41.31,39.63Z" fill="#0366d6"/><path d="M22.68,24.39,20,28.28a1.22,1.22,0,0,1-.34.34,21.37,21.37,0,0,0-6.33,6.51.2.2,0,0,1-.16.09A19.71,19.71,0,0,1,22.68,24.39Z" fill="#0366d6"/><path d="M24.14,41.24,28,43.91a1.07,1.07,0,0,1,.29.31,21.1,21.1,0,0,0,6.47,6.36.26.26,0,0,1,.07.1C31.83,50.4,26.17,45.41,24.14,41.24Z" fill="#0366d6"/><path d="M30.64,20.2c-1.49.28-3.05.66-4.63.85a11.6,11.6,0,0,1-2.23-.27,20.7,20.7,0,0,0-7.58.46C19.19,19.16,27.3,18.6,30.64,20.2Z" fill="#0366d6"/><path d="M21,47.69A19.7,19.7,0,0,1,20,33c.13,1,.24,1.83.36,2.71a2.78,2.78,0,0,0,.13.65c.59,1.4.11,2.79,0,4.17a21.3,21.3,0,0,0,.48,6.94A1.15,1.15,0,0,1,21,47.69Z" fill="#0366d6"/><path d="M47.85,42.83a19.65,19.65,0,0,1-14.57.91l2.56-.34a2.35,2.35,0,0,0,.65-.13c1.39-.6,2.77-.05,4.15,0a34.85,34.85,0,0,0,3.54.06C45.35,43.27,46.51,43,47.85,42.83Z" fill="#0366d6"/></svg>