<svg id="Layer_1" data-name="Layer 1" xmlns="http://www.w3.org/2000/svg" xmlns:xlink="http://www.w3.org/1999/xlink" viewBox="0 0 64 64"><defs><linearGradient id="New_Gradient_Swatch_4" x1="2" y1="30.62" x2="59.25" y2="30.62" gradientUnits="userSpaceOnUse"><stop offset="0" stop-color="#007aff"/><stop offset="1" stop-color="#0095ff"/></linearGradient><linearGradient id="New_Gradient_Swatch_4-2" x1="28.23" y1="44.05" x2="33.23" y2="44.05" gradientTransform="translate(-1.44 0.41)" xlink:href="#New_Gradient_Swatch_4"/><linearGradient id="New_Gradient_Swatch_4-3" x1="34.79" y1="44.05" x2="39.79" y2="44.05" gradientTransform="translate(-3.36 -4.23)" xlink:href="#New_Gradient_Swatch_4"/><linearGradient id="New_Gradient_Swatch_4-4" x1="41.35" y1="44.05" x2="46.35" y2="44.05" gradientTransform="translate(-5.29 -8.87)" xlink:href="#New_Gradient_Swatch_4"/><linearGradient id="New_Gradient_Swatch_4-5" x1="28.23" y1="26.02" x2="33.23" y2="26.02" gradientTransform="translate(-14.19 5.69)" xlink:href="#New_Gradient_Swatch_4"/><linearGradient id="New_Gradient_Swatch_4-6" x1="34.79" y1="26.02" x2="39.79" y2="26.02" gradientTransform="translate(-16.11 1.05)" xlink:href="#New_Gradient_Swatch_4"/><linearGradient id="New_Gradient_Swatch_4-7" x1="41.35" y1="26.02" x2="46.35" y2="26.02" gradientTransform="translate(-18.04 -3.59)" xlink:href="#New_Gradient_Swatch_4"/></defs><title>ic_</title><path d="M58.43,22.28,54,26.68,51,23.61,19.21,55.36l5.53,5.52a3.11,3.11,0,0,0,4.39,0L60.88,29.13a3.11,3.11,0,0,0,0-4.39Z" fill="#0366d6"/><rect x="35.54" y="12.72" width="23" height="6" transform="translate(69.18 60.09) rotate(-135)" fill="#0366d6"/><rect x="40.17" y="6.35" width="1" height="6" transform="translate(18.53 -26.02) rotate(45)" fill="#6ccb93"/><rect x="41.59" y="7.77" width="1" height="6" transform="translate(19.94 -26.61) rotate(45)" fill="#6ccb93"/><rect x="43" y="9.18" width="1" height="6" transform="translate(21.35 -27.19) rotate(45)" fill="#6ccb93"/><rect x="44.41" y="10.6" width="1" height="6" transform="translate(22.77 -27.78) rotate(45)" fill="#6ccb93"/><rect x="45.83" y="12.01" width="1" height="6" transform="translate(24.18 -28.36) rotate(45)" fill="#6ccb93"/><rect x="47.24" y="13.42" width="1" height="6" transform="translate(25.6 -28.95) rotate(45)" fill="#6ccb93"/><rect x="48.66" y="14.84" width="1" height="6" transform="translate(27.01 -29.53) rotate(45)" fill="#6ccb93"/><rect x="50.07" y="16.25" width="1" height="6" transform="translate(28.43 -30.12) rotate(45)" fill="#6ccb93"/><rect x="51.49" y="17.67" width="1" height="6" transform="translate(29.84 -30.71) rotate(45)" fill="#6ccb93"/><path d="M37.1,9.76,51.49,24.14l4.4-4.4,2.45,2.46a3.11,3.11,0,0,1,0,4.39L26.59,58.34a3.11,3.11,0,0,1-4.39,0L2.91,39.05a3.12,3.12,0,0,1,0-4.4L34.65,2.91a3.12,3.12,0,0,1,4.4,0L41.5,5.36Z" fill="url(#New_Gradient_Swatch_4)"/><path d="M49,31.7,27.81,52.86a4.74,4.74,0,0,0-6.69,0L8.38,40.13a4.74,4.74,0,0,0,0-6.69L29.55,12.28a4.74,4.74,0,0,0,6.69,0L49,25A4.74,4.74,0,0,0,49,31.7Z" fill="#0366d6"/><circle cx="6.18" cy="36.94" r="1.39" fill="#d4e8fb"/><circle cx="24.21" cy="54.96" r="1.39" fill="#d4e8fb"/><circle cx="33.07" cy="10.06" r="1.39" fill="#d4e8fb"/><circle cx="51.09" cy="28.08" r="1.39" fill="#d4e8fb"/><path d="M23.35,33.32l.52,1.5a5.16,5.16,0,0,0-2.15,1.1c-.34.33-.44.68-.19.93.88.88,3.06-2.32,4.9-.48,1,1,.66,2.46-.48,3.59a5.36,5.36,0,0,1-3.14,1.51L22.32,40a4.52,4.52,0,0,0,2.6-1.08c.41-.4.51-.81.22-1.1-.9-.9-3.05,2.32-4.85.52-.94-.94-.73-2.34.49-3.56A5.42,5.42,0,0,1,23.35,33.32Z" fill="#298eea"/><path d="M28,28.64l.53,1.5a5.33,5.33,0,0,0-2.16,1.09c-.34.34-.44.69-.19.94.88.87,3.07-2.32,4.9-.48,1,1,.66,2.46-.48,3.59a5.36,5.36,0,0,1-3.13,1.51L27,35.3a4.52,4.52,0,0,0,2.6-1.08c.41-.41.51-.81.22-1.1-.9-.9-3.05,2.32-4.85.52-.94-.94-.73-2.34.49-3.56A5.42,5.42,0,0,1,28,28.64Z" fill="#298eea"/><path d="M30.43,25.22a3.54,3.54,0,0,1,5.25-.16,3.59,3.59,0,0,1-.21,5.3L33.33,32.5l-5.08-5.09Zm3.16,5,.93-.92a2,2,0,0,0-.15-2.86,2,2,0,0,0-2.93-.11l-.87.87Z" fill="#298eea"/><rect x="11.59" y="40.62" width="3.68" height="1" transform="translate(-25.14 21.54) rotate(-45)" fill="#d4e8fb"/><rect x="12.93" y="41.96" width="3.68" height="1" transform="translate(-25.7 22.88) rotate(-45)" fill="#d4e8fb"/><rect x="14.26" y="43.29" width="3.68" height="1" transform="translate(-26.25 24.21) rotate(-45)" fill="#d4e8fb"/><rect x="15.6" y="44.63" width="3.68" height="1" transform="translate(-26.8 25.55) rotate(-45)" fill="#d4e8fb"/><rect x="16.94" y="45.97" width="3.68" height="1" transform="translate(-27.36 26.89) rotate(-45)" fill="#d4e8fb"/><rect x="18.28" y="47.31" width="3.68" height="1" transform="translate(-27.91 28.23) rotate(-45)" fill="#d4e8fb"/><rect x="19.62" y="48.64" width="3.68" height="1" transform="translate(-28.47 29.56) rotate(-45)" fill="#d4e8fb"/><rect x="34.6" y="16.28" width="3.68" height="1" transform="translate(-1.2 30.68) rotate(-45)" fill="#d4e8fb"/><rect x="35.94" y="17.62" width="3.68" height="1" transform="translate(-1.75 32.02) rotate(-45)" fill="#d4e8fb"/><rect x="37.27" y="18.96" width="3.68" height="1" transform="translate(-2.3 33.36) rotate(-45)" fill="#d4e8fb"/><rect x="38.61" y="20.3" width="3.68" height="1" transform="translate(-2.86 34.69) rotate(-45)" fill="#d4e8fb"/><rect x="39.95" y="21.64" width="3.68" height="1" transform="translate(-3.41 36.03) rotate(-45)" fill="#d4e8fb"/><rect x="41.29" y="22.97" width="3.68" height="1" transform="translate(-3.97 37.37) rotate(-45)" fill="#d4e8fb"/><rect x="42.62" y="24.31" width="3.68" height="1" transform="translate(-4.52 38.71) rotate(-45)" fill="#d4e8fb"/><rect x="26.78" y="41.46" width="5" height="6" transform="translate(-22.86 33.73) rotate(-45)" fill="url(#New_Gradient_Swatch_4-2)"/><rect x="31.42" y="36.82" width="5" height="6" transform="translate(-18.22 35.65) rotate(-45)" fill="url(#New_Gradient_Swatch_4-3)"/><rect x="36.06" y="32.19" width="5" height="6" transform="translate(-13.59 37.57) rotate(-45)" fill="url(#New_Gradient_Swatch_4-4)"/><rect x="14.03" y="28.71" width="5" height="6" transform="translate(-17.58 20.98) rotate(-45)" fill="url(#New_Gradient_Swatch_4-5)"/><rect x="18.67" y="24.07" width="5" height="6" transform="translate(-12.94 22.9) rotate(-45)" fill="url(#New_Gradient_Swatch_4-6)"/><rect x="23.31" y="19.44" width="5" height="6" transform="translate(-8.3 24.82) rotate(-45)" fill="url(#New_Gradient_Swatch_4-7)"/><path d="M11,21a1,1,0,0,1-1-1V12.58A2.59,2.59,0,0,1,12.58,10H22a1,1,0,0,1,0,2H12.58a.59.59,0,0,0-.58.58V20A1,1,0,0,1,11,21Z" fill="#001b44"/><path d="M51.42,54H43a1,1,0,0,1,0-2h8.42a.59.59,0,0,0,.58-.58V43a1,1,0,0,1,2,0v8.42A2.59,2.59,0,0,1,51.42,54Z" fill="#001b44"/><circle cx="15" cy="15" r="2" fill="#6ccb93"/><circle cx="49" cy="49" r="2" fill="#6ccb93"/></svg>