<svg id="Layer_1" data-name="Layer 1" xmlns="http://www.w3.org/2000/svg" xmlns:xlink="http://www.w3.org/1999/xlink" viewBox="0 0 64 64"><defs><linearGradient id="New_Gradient_Swatch_4" x1="32" y1="48.25" x2="32" y2="29.74" gradientUnits="userSpaceOnUse"><stop offset="0" stop-color="#007aff"/><stop offset="1" stop-color="#0095ff"/></linearGradient><linearGradient id="New_Gradient_Swatch_4-2" y1="61.25" x2="32" y2="42.74" xlink:href="#New_Gradient_Swatch_4"/><linearGradient id="New_Gradient_Swatch_4-3" y1="35.25" x2="32" y2="16.74" xlink:href="#New_Gradient_Swatch_4"/><linearGradient id="New_Gradient_Swatch_4-4" y1="22.25" x2="32" y2="3.74" xlink:href="#New_Gradient_Swatch_4"/></defs><title>ic_</title><path d="M57,12a1,1,0,0,1-1-1V4H8v7a1,1,0,0,1-2,0V3A1,1,0,0,1,7,2H57a1,1,0,0,1,1,1v8A1,1,0,0,1,57,12Z" fill="#001b44"/><rect x="4" y="46" width="10" height="3" fill="#0366d6"/><rect x="50" y="46" width="10" height="3" fill="#0366d6"/><rect x="2" y="36" width="60" height="12" rx="2" ry="2" fill="url(#New_Gradient_Swatch_4)"/><rect x="5.5" y="38" width="3.5" height="8" rx="1.75" ry="1.75" fill="#cfdefe"/><circle cx="7.25" cy="40" r="1" fill="#6ccb93"/><circle cx="7.25" cy="44" r="1" fill="#6ccb93"/><rect x="55.5" y="38" width="3.5" height="8" rx="1.75" ry="1.75" fill="#cfdefe"/><circle cx="57.25" cy="40" r="1" fill="#6ccb93"/><circle cx="57.25" cy="44" r="1" fill="#6ccb93"/><circle cx="13.5" cy="43.5" r="0.5" fill="#cfdefe"/><circle cx="13.5" cy="41.5" r="0.5" fill="#cfdefe"/><circle cx="15.5" cy="43.5" r="0.5" fill="#cfdefe"/><circle cx="15.5" cy="41.5" r="0.5" fill="#cfdefe"/><circle cx="14.5" cy="42.5" r="0.5" fill="#cfdefe"/><circle cx="17.5" cy="43.5" r="0.5" fill="#cfdefe"/><circle cx="17.5" cy="41.5" r="0.5" fill="#cfdefe"/><circle cx="16.5" cy="42.5" r="0.5" fill="#cfdefe"/><circle cx="19.5" cy="43.5" r="0.5" fill="#cfdefe"/><circle cx="19.5" cy="41.5" r="0.5" fill="#cfdefe"/><circle cx="18.5" cy="42.5" r="0.5" fill="#cfdefe"/><circle cx="21.5" cy="43.5" r="0.5" fill="#cfdefe"/><circle cx="21.5" cy="41.5" r="0.5" fill="#cfdefe"/><circle cx="20.5" cy="42.5" r="0.5" fill="#cfdefe"/><circle cx="23.5" cy="43.5" r="0.5" fill="#cfdefe"/><circle cx="23.5" cy="41.5" r="0.5" fill="#cfdefe"/><circle cx="22.5" cy="42.5" r="0.5" fill="#cfdefe"/><circle cx="25.5" cy="43.5" r="0.5" fill="#cfdefe"/><circle cx="25.5" cy="41.5" r="0.5" fill="#cfdefe"/><circle cx="24.5" cy="42.5" r="0.5" fill="#cfdefe"/><circle cx="27.5" cy="43.5" r="0.5" fill="#cfdefe"/><circle cx="27.5" cy="41.5" r="0.5" fill="#cfdefe"/><circle cx="26.5" cy="42.5" r="0.5" fill="#cfdefe"/><circle cx="29.5" cy="43.5" r="0.5" fill="#cfdefe"/><circle cx="29.5" cy="41.5" r="0.5" fill="#cfdefe"/><circle cx="28.5" cy="42.5" r="0.5" fill="#cfdefe"/><circle cx="31.5" cy="43.5" r="0.5" fill="#cfdefe"/><circle cx="31.5" cy="41.5" r="0.5" fill="#cfdefe"/><circle cx="30.5" cy="42.5" r="0.5" fill="#cfdefe"/><circle cx="33.5" cy="43.5" r="0.5" fill="#cfdefe"/><circle cx="33.5" cy="41.5" r="0.5" fill="#cfdefe"/><circle cx="32.5" cy="42.5" r="0.5" fill="#cfdefe"/><circle cx="35.5" cy="43.5" r="0.5" fill="#cfdefe"/><circle cx="35.5" cy="41.5" r="0.5" fill="#cfdefe"/><circle cx="34.5" cy="42.5" r="0.5" fill="#cfdefe"/><circle cx="37.5" cy="43.5" r="0.5" fill="#cfdefe"/><circle cx="37.5" cy="41.5" r="0.5" fill="#cfdefe"/><circle cx="36.5" cy="42.5" r="0.5" fill="#cfdefe"/><circle cx="39.5" cy="43.5" r="0.5" fill="#cfdefe"/><circle cx="39.5" cy="41.5" r="0.5" fill="#cfdefe"/><circle cx="38.5" cy="42.5" r="0.5" fill="#cfdefe"/><circle cx="41.5" cy="43.5" r="0.5" fill="#cfdefe"/><circle cx="41.5" cy="41.5" r="0.5" fill="#cfdefe"/><circle cx="40.5" cy="42.5" r="0.5" fill="#cfdefe"/><circle cx="43.5" cy="43.5" r="0.5" fill="#cfdefe"/><circle cx="43.5" cy="41.5" r="0.5" fill="#cfdefe"/><circle cx="42.5" cy="42.5" r="0.5" fill="#cfdefe"/><circle cx="45.5" cy="43.5" r="0.5" fill="#cfdefe"/><circle cx="45.5" cy="41.5" r="0.5" fill="#cfdefe"/><circle cx="44.5" cy="42.5" r="0.5" fill="#cfdefe"/><circle cx="47.5" cy="43.5" r="0.5" fill="#cfdefe"/><circle cx="47.5" cy="41.5" r="0.5" fill="#cfdefe"/><circle cx="46.5" cy="42.5" r="0.5" fill="#cfdefe"/><circle cx="49.5" cy="43.5" r="0.5" fill="#cfdefe"/><circle cx="49.5" cy="41.5" r="0.5" fill="#cfdefe"/><circle cx="48.5" cy="42.5" r="0.5" fill="#cfdefe"/><circle cx="51.5" cy="43.5" r="0.5" fill="#cfdefe"/><circle cx="51.5" cy="41.5" r="0.5" fill="#cfdefe"/><circle cx="50.5" cy="42.5" r="0.5" fill="#cfdefe"/><polygon points="48 48 16 48 17 46 47 46 48 48" fill="#0366d6"/><rect x="17" y="38.5" width="7" height="1" transform="translate(41 78) rotate(-180)" fill="#6ccb93"/><rect x="13" y="38.5" width="3" height="1" transform="translate(29 78) rotate(-180)" fill="#6ccb93"/><rect x="41" y="38.5" width="7" height="1" fill="#0366d6"/><rect x="49" y="38.5" width="3" height="1" fill="#0366d6"/><rect x="4" y="59" width="10" height="3" fill="#0366d6"/><rect x="50" y="59" width="10" height="3" fill="#0366d6"/><rect x="2" y="49" width="60" height="12" rx="2" ry="2" fill="url(#New_Gradient_Swatch_4-2)"/><rect x="5.5" y="51" width="3.5" height="8" rx="1.75" ry="1.75" fill="#cfdefe"/><circle cx="7.25" cy="53" r="1" fill="#6ccb93"/><circle cx="7.25" cy="57" r="1" fill="#6ccb93"/><rect x="55.5" y="51" width="3.5" height="8" rx="1.75" ry="1.75" fill="#cfdefe"/><circle cx="57.25" cy="53" r="1" fill="#6ccb93"/><circle cx="57.25" cy="57" r="1" fill="#6ccb93"/><circle cx="13.5" cy="56.5" r="0.5" fill="#cfdefe"/><circle cx="13.5" cy="54.5" r="0.5" fill="#cfdefe"/><circle cx="15.5" cy="56.5" r="0.5" fill="#cfdefe"/><circle cx="15.5" cy="54.5" r="0.5" fill="#cfdefe"/><circle cx="14.5" cy="55.5" r="0.5" fill="#cfdefe"/><circle cx="17.5" cy="56.5" r="0.5" fill="#cfdefe"/><circle cx="17.5" cy="54.5" r="0.5" fill="#cfdefe"/><circle cx="16.5" cy="55.5" r="0.5" fill="#cfdefe"/><circle cx="19.5" cy="56.5" r="0.5" fill="#cfdefe"/><circle cx="19.5" cy="54.5" r="0.5" fill="#cfdefe"/><circle cx="18.5" cy="55.5" r="0.5" fill="#cfdefe"/><circle cx="21.5" cy="56.5" r="0.5" fill="#cfdefe"/><circle cx="21.5" cy="54.5" r="0.5" fill="#cfdefe"/><circle cx="20.5" cy="55.5" r="0.5" fill="#cfdefe"/><circle cx="23.5" cy="56.5" r="0.5" fill="#cfdefe"/><circle cx="23.5" cy="54.5" r="0.5" fill="#cfdefe"/><circle cx="22.5" cy="55.5" r="0.5" fill="#cfdefe"/><circle cx="25.5" cy="56.5" r="0.5" fill="#cfdefe"/><circle cx="25.5" cy="54.5" r="0.5" fill="#cfdefe"/><circle cx="24.5" cy="55.5" r="0.5" fill="#cfdefe"/><circle cx="27.5" cy="56.5" r="0.5" fill="#cfdefe"/><circle cx="27.5" cy="54.5" r="0.5" fill="#cfdefe"/><circle cx="26.5" cy="55.5" r="0.5" fill="#cfdefe"/><circle cx="29.5" cy="56.5" r="0.5" fill="#cfdefe"/><circle cx="29.5" cy="54.5" r="0.5" fill="#cfdefe"/><circle cx="28.5" cy="55.5" r="0.5" fill="#cfdefe"/><circle cx="31.5" cy="56.5" r="0.5" fill="#cfdefe"/><circle cx="31.5" cy="54.5" r="0.5" fill="#cfdefe"/><circle cx="30.5" cy="55.5" r="0.5" fill="#cfdefe"/><circle cx="33.5" cy="56.5" r="0.5" fill="#cfdefe"/><circle cx="33.5" cy="54.5" r="0.5" fill="#cfdefe"/><circle cx="32.5" cy="55.5" r="0.5" fill="#cfdefe"/><circle cx="35.5" cy="56.5" r="0.5" fill="#cfdefe"/><circle cx="35.5" cy="54.5" r="0.5" fill="#cfdefe"/><circle cx="34.5" cy="55.5" r="0.5" fill="#cfdefe"/><circle cx="37.5" cy="56.5" r="0.5" fill="#cfdefe"/><circle cx="37.5" cy="54.5" r="0.5" fill="#cfdefe"/><circle cx="36.5" cy="55.5" r="0.5" fill="#cfdefe"/><circle cx="39.5" cy="56.5" r="0.5" fill="#cfdefe"/><circle cx="39.5" cy="54.5" r="0.5" fill="#cfdefe"/><circle cx="38.5" cy="55.5" r="0.5" fill="#cfdefe"/><circle cx="41.5" cy="56.5" r="0.5" fill="#cfdefe"/><circle cx="41.5" cy="54.5" r="0.5" fill="#cfdefe"/><circle cx="40.5" cy="55.5" r="0.5" fill="#cfdefe"/><circle cx="43.5" cy="56.5" r="0.5" fill="#cfdefe"/><circle cx="43.5" cy="54.5" r="0.5" fill="#cfdefe"/><circle cx="42.5" cy="55.5" r="0.5" fill="#cfdefe"/><circle cx="45.5" cy="56.5" r="0.5" fill="#cfdefe"/><circle cx="45.5" cy="54.5" r="0.5" fill="#cfdefe"/><circle cx="44.5" cy="55.5" r="0.5" fill="#cfdefe"/><circle cx="47.5" cy="56.5" r="0.5" fill="#cfdefe"/><circle cx="47.5" cy="54.5" r="0.5" fill="#cfdefe"/><circle cx="46.5" cy="55.5" r="0.5" fill="#cfdefe"/><circle cx="49.5" cy="56.5" r="0.5" fill="#cfdefe"/><circle cx="49.5" cy="54.5" r="0.5" fill="#cfdefe"/><circle cx="48.5" cy="55.5" r="0.5" fill="#cfdefe"/><circle cx="51.5" cy="56.5" r="0.5" fill="#cfdefe"/><circle cx="51.5" cy="54.5" r="0.5" fill="#cfdefe"/><circle cx="50.5" cy="55.5" r="0.5" fill="#cfdefe"/><polygon points="48 61 16 61 17 59 47 59 48 61" fill="#0366d6"/><rect x="17" y="51.5" width="7" height="1" transform="translate(41 104) rotate(-180)" fill="#6ccb93"/><rect x="13" y="51.5" width="3" height="1" transform="translate(29 104) rotate(-180)" fill="#6ccb93"/><rect x="41" y="51.5" width="7" height="1" fill="#0366d6"/><rect x="49" y="51.5" width="3" height="1" fill="#0366d6"/><rect x="4" y="33" width="10" height="3" fill="#0366d6"/><rect x="50" y="33" width="10" height="3" fill="#0366d6"/><rect x="2" y="23" width="60" height="12" rx="2" ry="2" fill="url(#New_Gradient_Swatch_4-3)"/><rect x="5.5" y="25" width="3.5" height="8" rx="1.75" ry="1.75" fill="#cfdefe"/><circle cx="7.25" cy="27" r="1" fill="#6ccb93"/><circle cx="7.25" cy="31" r="1" fill="#6ccb93"/><rect x="55.5" y="25" width="3.5" height="8" rx="1.75" ry="1.75" fill="#cfdefe"/><circle cx="57.25" cy="27" r="1" fill="#6ccb93"/><circle cx="57.25" cy="31" r="1" fill="#6ccb93"/><circle cx="13.5" cy="30.5" r="0.5" fill="#cfdefe"/><circle cx="13.5" cy="28.5" r="0.5" fill="#cfdefe"/><circle cx="15.5" cy="30.5" r="0.5" fill="#cfdefe"/><circle cx="15.5" cy="28.5" r="0.5" fill="#cfdefe"/><circle cx="14.5" cy="29.5" r="0.5" fill="#cfdefe"/><circle cx="17.5" cy="30.5" r="0.5" fill="#cfdefe"/><circle cx="17.5" cy="28.5" r="0.5" fill="#cfdefe"/><circle cx="16.5" cy="29.5" r="0.5" fill="#cfdefe"/><circle cx="19.5" cy="30.5" r="0.5" fill="#cfdefe"/><circle cx="19.5" cy="28.5" r="0.5" fill="#cfdefe"/><circle cx="18.5" cy="29.5" r="0.5" fill="#cfdefe"/><circle cx="21.5" cy="30.5" r="0.5" fill="#cfdefe"/><circle cx="21.5" cy="28.5" r="0.5" fill="#cfdefe"/><circle cx="20.5" cy="29.5" r="0.5" fill="#cfdefe"/><circle cx="23.5" cy="30.5" r="0.5" fill="#cfdefe"/><circle cx="23.5" cy="28.5" r="0.5" fill="#cfdefe"/><circle cx="22.5" cy="29.5" r="0.5" fill="#cfdefe"/><circle cx="25.5" cy="30.5" r="0.5" fill="#cfdefe"/><circle cx="25.5" cy="28.5" r="0.5" fill="#cfdefe"/><circle cx="24.5" cy="29.5" r="0.5" fill="#cfdefe"/><circle cx="27.5" cy="30.5" r="0.5" fill="#cfdefe"/><circle cx="27.5" cy="28.5" r="0.5" fill="#cfdefe"/><circle cx="26.5" cy="29.5" r="0.5" fill="#cfdefe"/><circle cx="29.5" cy="30.5" r="0.5" fill="#cfdefe"/><circle cx="29.5" cy="28.5" r="0.5" fill="#cfdefe"/><circle cx="28.5" cy="29.5" r="0.5" fill="#cfdefe"/><circle cx="31.5" cy="30.5" r="0.5" fill="#cfdefe"/><circle cx="31.5" cy="28.5" r="0.5" fill="#cfdefe"/><circle cx="30.5" cy="29.5" r="0.5" fill="#cfdefe"/><circle cx="33.5" cy="30.5" r="0.5" fill="#cfdefe"/><circle cx="33.5" cy="28.5" r="0.5" fill="#cfdefe"/><circle cx="32.5" cy="29.5" r="0.5" fill="#cfdefe"/><circle cx="35.5" cy="30.5" r="0.5" fill="#cfdefe"/><circle cx="35.5" cy="28.5" r="0.5" fill="#cfdefe"/><circle cx="34.5" cy="29.5" r="0.5" fill="#cfdefe"/><circle cx="37.5" cy="30.5" r="0.5" fill="#cfdefe"/><circle cx="37.5" cy="28.5" r="0.5" fill="#cfdefe"/><circle cx="36.5" cy="29.5" r="0.5" fill="#cfdefe"/><circle cx="39.5" cy="30.5" r="0.5" fill="#cfdefe"/><circle cx="39.5" cy="28.5" r="0.5" fill="#cfdefe"/><circle cx="38.5" cy="29.5" r="0.5" fill="#cfdefe"/><circle cx="41.5" cy="30.5" r="0.5" fill="#cfdefe"/><circle cx="41.5" cy="28.5" r="0.5" fill="#cfdefe"/><circle cx="40.5" cy="29.5" r="0.5" fill="#cfdefe"/><circle cx="43.5" cy="30.5" r="0.5" fill="#cfdefe"/><circle cx="43.5" cy="28.5" r="0.5" fill="#cfdefe"/><circle cx="42.5" cy="29.5" r="0.5" fill="#cfdefe"/><circle cx="45.5" cy="30.5" r="0.5" fill="#cfdefe"/><circle cx="45.5" cy="28.5" r="0.5" fill="#cfdefe"/><circle cx="44.5" cy="29.5" r="0.5" fill="#cfdefe"/><circle cx="47.5" cy="30.5" r="0.5" fill="#cfdefe"/><circle cx="47.5" cy="28.5" r="0.5" fill="#cfdefe"/><circle cx="46.5" cy="29.5" r="0.5" fill="#cfdefe"/><circle cx="49.5" cy="30.5" r="0.5" fill="#cfdefe"/><circle cx="49.5" cy="28.5" r="0.5" fill="#cfdefe"/><circle cx="48.5" cy="29.5" r="0.5" fill="#cfdefe"/><circle cx="51.5" cy="30.5" r="0.5" fill="#cfdefe"/><circle cx="51.5" cy="28.5" r="0.5" fill="#cfdefe"/><circle cx="50.5" cy="29.5" r="0.5" fill="#cfdefe"/><polygon points="48 35 16 35 17 33 47 33 48 35" fill="#0366d6"/><rect x="17" y="25.5" width="7" height="1" transform="translate(41 52) rotate(-180)" fill="#6ccb93"/><rect x="13" y="25.5" width="3" height="1" transform="translate(29 52) rotate(-180)" fill="#6ccb93"/><rect x="41" y="25.5" width="7" height="1" fill="#0366d6"/><rect x="49" y="25.5" width="3" height="1" fill="#0366d6"/><rect x="4" y="20" width="10" height="3" fill="#0366d6"/><rect x="50" y="20" width="10" height="3" fill="#0366d6"/><rect x="2" y="10" width="60" height="12" rx="2" ry="2" fill="url(#New_Gradient_Swatch_4-4)"/><rect x="5.5" y="12" width="3.5" height="8" rx="1.75" ry="1.75" fill="#cfdefe"/><circle cx="7.25" cy="14" r="1" fill="#6ccb93"/><circle cx="7.25" cy="18" r="1" fill="#6ccb93"/><rect x="55.5" y="12" width="3.5" height="8" rx="1.75" ry="1.75" fill="#cfdefe"/><circle cx="57.25" cy="14" r="1" fill="#6ccb93"/><circle cx="57.25" cy="18" r="1" fill="#6ccb93"/><circle cx="13.5" cy="17.5" r="0.5" fill="#cfdefe"/><circle cx="13.5" cy="15.5" r="0.5" fill="#cfdefe"/><circle cx="15.5" cy="17.5" r="0.5" fill="#cfdefe"/><circle cx="15.5" cy="15.5" r="0.5" fill="#cfdefe"/><circle cx="14.5" cy="16.5" r="0.5" fill="#cfdefe"/><circle cx="17.5" cy="17.5" r="0.5" fill="#cfdefe"/><circle cx="17.5" cy="15.5" r="0.5" fill="#cfdefe"/><circle cx="16.5" cy="16.5" r="0.5" fill="#cfdefe"/><circle cx="19.5" cy="17.5" r="0.5" fill="#cfdefe"/><circle cx="19.5" cy="15.5" r="0.5" fill="#cfdefe"/><circle cx="18.5" cy="16.5" r="0.5" fill="#cfdefe"/><circle cx="21.5" cy="17.5" r="0.5" fill="#cfdefe"/><circle cx="21.5" cy="15.5" r="0.5" fill="#cfdefe"/><circle cx="20.5" cy="16.5" r="0.5" fill="#cfdefe"/><circle cx="23.5" cy="17.5" r="0.5" fill="#cfdefe"/><circle cx="23.5" cy="15.5" r="0.5" fill="#cfdefe"/><circle cx="22.5" cy="16.5" r="0.5" fill="#cfdefe"/><circle cx="25.5" cy="17.5" r="0.5" fill="#cfdefe"/><circle cx="25.5" cy="15.5" r="0.5" fill="#cfdefe"/><circle cx="24.5" cy="16.5" r="0.5" fill="#cfdefe"/><circle cx="27.5" cy="17.5" r="0.5" fill="#cfdefe"/><circle cx="27.5" cy="15.5" r="0.5" fill="#cfdefe"/><circle cx="26.5" cy="16.5" r="0.5" fill="#cfdefe"/><circle cx="29.5" cy="17.5" r="0.5" fill="#cfdefe"/><circle cx="29.5" cy="15.5" r="0.5" fill="#cfdefe"/><circle cx="28.5" cy="16.5" r="0.5" fill="#cfdefe"/><circle cx="31.5" cy="17.5" r="0.5" fill="#cfdefe"/><circle cx="31.5" cy="15.5" r="0.5" fill="#cfdefe"/><circle cx="30.5" cy="16.5" r="0.5" fill="#cfdefe"/><circle cx="33.5" cy="17.5" r="0.5" fill="#cfdefe"/><circle cx="33.5" cy="15.5" r="0.5" fill="#cfdefe"/><circle cx="32.5" cy="16.5" r="0.5" fill="#cfdefe"/><circle cx="35.5" cy="17.5" r="0.5" fill="#cfdefe"/><circle cx="35.5" cy="15.5" r="0.5" fill="#cfdefe"/><circle cx="34.5" cy="16.5" r="0.5" fill="#cfdefe"/><circle cx="37.5" cy="17.5" r="0.5" fill="#cfdefe"/><circle cx="37.5" cy="15.5" r="0.5" fill="#cfdefe"/><circle cx="36.5" cy="16.5" r="0.5" fill="#cfdefe"/><circle cx="39.5" cy="17.5" r="0.5" fill="#cfdefe"/><circle cx="39.5" cy="15.5" r="0.5" fill="#cfdefe"/><circle cx="38.5" cy="16.5" r="0.5" fill="#cfdefe"/><circle cx="41.5" cy="17.5" r="0.5" fill="#cfdefe"/><circle cx="41.5" cy="15.5" r="0.5" fill="#cfdefe"/><circle cx="40.5" cy="16.5" r="0.5" fill="#cfdefe"/><circle cx="43.5" cy="17.5" r="0.5" fill="#cfdefe"/><circle cx="43.5" cy="15.5" r="0.5" fill="#cfdefe"/><circle cx="42.5" cy="16.5" r="0.5" fill="#cfdefe"/><circle cx="45.5" cy="17.5" r="0.5" fill="#cfdefe"/><circle cx="45.5" cy="15.5" r="0.5" fill="#cfdefe"/><circle cx="44.5" cy="16.5" r="0.5" fill="#cfdefe"/><circle cx="47.5" cy="17.5" r="0.5" fill="#cfdefe"/><circle cx="47.5" cy="15.5" r="0.5" fill="#cfdefe"/><circle cx="46.5" cy="16.5" r="0.5" fill="#cfdefe"/><circle cx="49.5" cy="17.5" r="0.5" fill="#cfdefe"/><circle cx="49.5" cy="15.5" r="0.5" fill="#cfdefe"/><circle cx="48.5" cy="16.5" r="0.5" fill="#cfdefe"/><circle cx="51.5" cy="17.5" r="0.5" fill="#cfdefe"/><circle cx="51.5" cy="15.5" r="0.5" fill="#cfdefe"/><circle cx="50.5" cy="16.5" r="0.5" fill="#cfdefe"/><polygon points="48 22 16 22 17 20 47 20 48 22" fill="#0366d6"/><rect x="17" y="12.5" width="7" height="1" transform="translate(41 26) rotate(-180)" fill="#6ccb93"/><rect x="13" y="12.5" width="3" height="1" transform="translate(29 26) rotate(-180)" fill="#6ccb93"/><rect x="41" y="12.5" width="7" height="1" fill="#0366d6"/><rect x="49" y="12.5" width="3" height="1" fill="#0366d6"/><rect x="10" y="6" width="44" height="2" fill="#007aff"/><rect x="38" y="5" width="16" height="4" fill="#007aff"/><circle cx="51" cy="7" r="1" fill="#6ccb93"/><circle cx="46" cy="7" r="1" fill="#0366d6"/><circle cx="41" cy="7" r="1" fill="#cfdefe"/></svg>