<svg id="Layer_1" data-name="Layer 1" xmlns="http://www.w3.org/2000/svg" xmlns:xlink="http://www.w3.org/1999/xlink" viewBox="0 0 64 64"><defs><linearGradient id="New_Gradient_Swatch_4" x1="63.14" y1="62.45" x2="12.98" y2="21.45" gradientUnits="userSpaceOnUse"><stop offset="0" stop-color="#007aff"/><stop offset="1" stop-color="#0095ff"/></linearGradient></defs><title>ic_</title><path d="M61,13H59V10a1,1,0,0,0-1-1H6a1,1,0,0,0-1,1v3H3V10A3,3,0,0,1,6,7H58a3,3,0,0,1,3,3Z" fill="#001b44"/><path d="M59.07,8h-2V5a.94.94,0,0,0-.86-1H7.79a.94.94,0,0,0-.86,1V8h-2V5A2.94,2.94,0,0,1,7.79,2H56.21a2.94,2.94,0,0,1,2.86,3Z" fill="#001b44"/><rect x="2" y="12" width="60" height="50" rx="2" ry="2" fill="url(#New_Gradient_Swatch_4)"/><rect x="31" y="-9" width="2" height="60" transform="translate(53 -11) rotate(90)" fill="#fff" opacity="0.31"/><circle cx="6.5" cy="16.5" r="1" fill="#6ccb93"/><circle cx="10" cy="16.5" r="1" fill="#0366d6"/><circle cx="13.5" cy="16.5" r="1" fill="#cfdefe"/><path d="M21.38,36.54H15.6L12.51,52h3l.82-4.1h2.59a10.64,10.64,0,0,0,2.54-.3,4.87,4.87,0,0,0,2.31-1.42,6.59,6.59,0,0,0,1.38-2A7.39,7.39,0,0,0,25.82,42a4.93,4.93,0,0,0-.75-4A4.49,4.49,0,0,0,21.38,36.54Zm1.31,5.39c-.31,1.8-.93,2.85-1.85,3.15a11.4,11.4,0,0,1-3.45.41h-.3l-.26,0L18.12,39h.43l.5,0a9.5,9.5,0,0,1,2.87.32C22.69,39.55,23,40.42,22.69,41.93Z" fill="#cfdefe"/><path d="M37.32,37.44a5.41,5.41,0,0,0-3.28-.9H31.37l.84-4.12h-3L26.13,47.9h3L30.87,39l2.4,0a1.85,1.85,0,0,1,1.49.45A2,2,0,0,1,34.89,41L33.51,47.9h3L38,40.72C38.27,39.11,38.06,38,37.32,37.44Z" fill="#cfdefe"/><path d="M50.63,38a4.46,4.46,0,0,0-3.69-1.46H41.16L38.08,52h3l.82-4.1h2.59A10.7,10.7,0,0,0,47,47.6a4.87,4.87,0,0,0,2.31-1.42,6.59,6.59,0,0,0,1.38-2A7.68,7.68,0,0,0,51.39,42,4.93,4.93,0,0,0,50.63,38Zm-2.37,3.93c-.32,1.8-.93,2.85-1.85,3.15a11.47,11.47,0,0,1-3.46.41h-.3l-.26,0L43.68,39h.44l.5,0a9.43,9.43,0,0,1,2.86.32Q48.65,39.66,48.26,41.93Z" fill="#cfdefe"/></svg>