<svg id="Layer_1" data-name="Layer 1" xmlns="http://www.w3.org/2000/svg" xmlns:xlink="http://www.w3.org/1999/xlink" viewBox="0 0 64 64"><defs><linearGradient id="New_Gradient_Swatch_4" x1="32.5" y1="61.25" x2="32.5" y2="42.74" gradientUnits="userSpaceOnUse"><stop offset="0" stop-color="#007aff"/><stop offset="1" stop-color="#0095ff"/></linearGradient><linearGradient id="New_Gradient_Swatch_4-2" y1="27.25" x2="32.5" y2="8.74" gradientTransform="translate(0 -12)" xlink:href="#New_Gradient_Swatch_4"/><linearGradient id="New_Gradient_Swatch_4-3" x1="31.5" y1="48.63" x2="31.5" y2="39.99" xlink:href="#New_Gradient_Swatch_4"/><linearGradient id="New_Gradient_Swatch_4-4" x1="31.5" y1="27.63" x2="31.5" y2="18.99" gradientTransform="matrix(1, 0, 0, -1, 0, 43)" xlink:href="#New_Gradient_Swatch_4"/></defs><title>ic_</title><rect x="4.5" y="59" width="10" height="3" fill="#0366d6"/><rect x="50.5" y="59" width="10" height="3" fill="#0366d6"/><rect x="2.5" y="49" width="60" height="12" rx="2" ry="2" fill="url(#New_Gradient_Swatch_4)"/><rect x="6" y="51" width="3.5" height="8" rx="1.75" ry="1.75" fill="#cfdefe"/><circle cx="7.75" cy="53" r="1" fill="#6ccb93"/><circle cx="7.75" cy="57" r="1" fill="#6ccb93"/><rect x="56" y="51" width="3.5" height="8" rx="1.75" ry="1.75" fill="#cfdefe"/><circle cx="57.75" cy="53" r="1" fill="#6ccb93"/><circle cx="57.75" cy="57" r="1" fill="#6ccb93"/><circle cx="14" cy="56.5" r="0.5" fill="#cfdefe"/><circle cx="14" cy="54.5" r="0.5" fill="#cfdefe"/><circle cx="16" cy="56.5" r="0.5" fill="#cfdefe"/><circle cx="16" cy="54.5" r="0.5" fill="#cfdefe"/><circle cx="15" cy="55.5" r="0.5" fill="#cfdefe"/><circle cx="18" cy="56.5" r="0.5" fill="#cfdefe"/><circle cx="18" cy="54.5" r="0.5" fill="#cfdefe"/><circle cx="17" cy="55.5" r="0.5" fill="#cfdefe"/><circle cx="20" cy="56.5" r="0.5" fill="#cfdefe"/><circle cx="20" cy="54.5" r="0.5" fill="#cfdefe"/><circle cx="19" cy="55.5" r="0.5" fill="#cfdefe"/><circle cx="22" cy="56.5" r="0.5" fill="#cfdefe"/><circle cx="22" cy="54.5" r="0.5" fill="#cfdefe"/><circle cx="21" cy="55.5" r="0.5" fill="#cfdefe"/><circle cx="24" cy="56.5" r="0.5" fill="#cfdefe"/><circle cx="24" cy="54.5" r="0.5" fill="#cfdefe"/><circle cx="23" cy="55.5" r="0.5" fill="#cfdefe"/><circle cx="26" cy="56.5" r="0.5" fill="#cfdefe"/><circle cx="26" cy="54.5" r="0.5" fill="#cfdefe"/><circle cx="25" cy="55.5" r="0.5" fill="#cfdefe"/><circle cx="28" cy="56.5" r="0.5" fill="#cfdefe"/><circle cx="28" cy="54.5" r="0.5" fill="#cfdefe"/><circle cx="27" cy="55.5" r="0.5" fill="#cfdefe"/><circle cx="30" cy="56.5" r="0.5" fill="#cfdefe"/><circle cx="30" cy="54.5" r="0.5" fill="#cfdefe"/><circle cx="29" cy="55.5" r="0.5" fill="#cfdefe"/><circle cx="32" cy="56.5" r="0.5" fill="#cfdefe"/><circle cx="32" cy="54.5" r="0.5" fill="#cfdefe"/><circle cx="31" cy="55.5" r="0.5" fill="#cfdefe"/><circle cx="34" cy="56.5" r="0.5" fill="#cfdefe"/><circle cx="34" cy="54.5" r="0.5" fill="#cfdefe"/><circle cx="33" cy="55.5" r="0.5" fill="#cfdefe"/><circle cx="36" cy="56.5" r="0.5" fill="#cfdefe"/><circle cx="36" cy="54.5" r="0.5" fill="#cfdefe"/><circle cx="35" cy="55.5" r="0.5" fill="#cfdefe"/><circle cx="38" cy="56.5" r="0.5" fill="#cfdefe"/><circle cx="38" cy="54.5" r="0.5" fill="#cfdefe"/><circle cx="37" cy="55.5" r="0.5" fill="#cfdefe"/><circle cx="40" cy="56.5" r="0.5" fill="#cfdefe"/><circle cx="40" cy="54.5" r="0.5" fill="#cfdefe"/><circle cx="39" cy="55.5" r="0.5" fill="#cfdefe"/><circle cx="42" cy="56.5" r="0.5" fill="#cfdefe"/><circle cx="42" cy="54.5" r="0.5" fill="#cfdefe"/><circle cx="41" cy="55.5" r="0.5" fill="#cfdefe"/><circle cx="44" cy="56.5" r="0.5" fill="#cfdefe"/><circle cx="44" cy="54.5" r="0.5" fill="#cfdefe"/><circle cx="43" cy="55.5" r="0.5" fill="#cfdefe"/><circle cx="46" cy="56.5" r="0.5" fill="#cfdefe"/><circle cx="46" cy="54.5" r="0.5" fill="#cfdefe"/><circle cx="45" cy="55.5" r="0.5" fill="#cfdefe"/><circle cx="48" cy="56.5" r="0.5" fill="#cfdefe"/><circle cx="48" cy="54.5" r="0.5" fill="#cfdefe"/><circle cx="47" cy="55.5" r="0.5" fill="#cfdefe"/><circle cx="50" cy="56.5" r="0.5" fill="#cfdefe"/><circle cx="50" cy="54.5" r="0.5" fill="#cfdefe"/><circle cx="49" cy="55.5" r="0.5" fill="#cfdefe"/><circle cx="52" cy="56.5" r="0.5" fill="#cfdefe"/><circle cx="52" cy="54.5" r="0.5" fill="#cfdefe"/><circle cx="51" cy="55.5" r="0.5" fill="#cfdefe"/><polygon points="48.5 61 16.5 61 17.5 59 47.5 59 48.5 61" fill="#0366d6"/><rect x="17.5" y="51.5" width="7" height="1" transform="translate(42 104) rotate(-180)" fill="#6ccb93"/><rect x="13.5" y="51.5" width="3" height="1" transform="translate(30 104) rotate(-180)" fill="#6ccb93"/><rect x="41.5" y="51.5" width="7" height="1" fill="#0366d6"/><rect x="49.5" y="51.5" width="3" height="1" fill="#0366d6"/><rect x="50.5" y="2" width="10" height="3" transform="translate(111 7) rotate(180)" fill="#0366d6"/><rect x="4.5" y="2" width="10" height="3" transform="translate(19 7) rotate(180)" fill="#0366d6"/><rect x="2.5" y="3" width="60" height="12" rx="2" ry="2" transform="translate(65 18) rotate(180)" fill="url(#New_Gradient_Swatch_4-2)"/><rect x="55.5" y="5" width="3.5" height="8" rx="1.75" ry="1.75" transform="translate(114.5 18) rotate(180)" fill="#cfdefe"/><circle cx="57.25" cy="11" r="1" fill="#6ccb93"/><circle cx="57.25" cy="7" r="1" fill="#6ccb93"/><rect x="5.5" y="5" width="3.5" height="8" rx="1.75" ry="1.75" transform="translate(14.5 18) rotate(180)" fill="#cfdefe"/><circle cx="7.25" cy="11" r="1" fill="#6ccb93"/><circle cx="7.25" cy="7" r="1" fill="#6ccb93"/><circle cx="51" cy="7.5" r="0.5" fill="#cfdefe"/><circle cx="51" cy="9.5" r="0.5" fill="#cfdefe"/><circle cx="49" cy="7.5" r="0.5" fill="#cfdefe"/><circle cx="49" cy="9.5" r="0.5" fill="#cfdefe"/><circle cx="50" cy="8.5" r="0.5" fill="#cfdefe"/><circle cx="47" cy="7.5" r="0.5" fill="#cfdefe"/><circle cx="47" cy="9.5" r="0.5" fill="#cfdefe"/><circle cx="48" cy="8.5" r="0.5" fill="#cfdefe"/><circle cx="45" cy="7.5" r="0.5" fill="#cfdefe"/><circle cx="45" cy="9.5" r="0.5" fill="#cfdefe"/><circle cx="46" cy="8.5" r="0.5" fill="#cfdefe"/><circle cx="43" cy="7.5" r="0.5" fill="#cfdefe"/><circle cx="43" cy="9.5" r="0.5" fill="#cfdefe"/><circle cx="44" cy="8.5" r="0.5" fill="#cfdefe"/><circle cx="41" cy="7.5" r="0.5" fill="#cfdefe"/><circle cx="41" cy="9.5" r="0.5" fill="#cfdefe"/><circle cx="42" cy="8.5" r="0.5" fill="#cfdefe"/><circle cx="39" cy="7.5" r="0.5" fill="#cfdefe"/><circle cx="39" cy="9.5" r="0.5" fill="#cfdefe"/><circle cx="40" cy="8.5" r="0.5" fill="#cfdefe"/><circle cx="37" cy="7.5" r="0.5" fill="#cfdefe"/><circle cx="37" cy="9.5" r="0.5" fill="#cfdefe"/><circle cx="38" cy="8.5" r="0.5" fill="#cfdefe"/><circle cx="35" cy="7.5" r="0.5" fill="#cfdefe"/><circle cx="35" cy="9.5" r="0.5" fill="#cfdefe"/><circle cx="36" cy="8.5" r="0.5" fill="#cfdefe"/><circle cx="33" cy="7.5" r="0.5" fill="#cfdefe"/><circle cx="33" cy="9.5" r="0.5" fill="#cfdefe"/><circle cx="34" cy="8.5" r="0.5" fill="#cfdefe"/><circle cx="31" cy="7.5" r="0.5" fill="#cfdefe"/><circle cx="31" cy="9.5" r="0.5" fill="#cfdefe"/><circle cx="32" cy="8.5" r="0.5" fill="#cfdefe"/><circle cx="29" cy="7.5" r="0.5" fill="#cfdefe"/><circle cx="29" cy="9.5" r="0.5" fill="#cfdefe"/><circle cx="30" cy="8.5" r="0.5" fill="#cfdefe"/><circle cx="27" cy="7.5" r="0.5" fill="#cfdefe"/><circle cx="27" cy="9.5" r="0.5" fill="#cfdefe"/><circle cx="28" cy="8.5" r="0.5" fill="#cfdefe"/><circle cx="25" cy="7.5" r="0.5" fill="#cfdefe"/><circle cx="25" cy="9.5" r="0.5" fill="#cfdefe"/><circle cx="26" cy="8.5" r="0.5" fill="#cfdefe"/><circle cx="23" cy="7.5" r="0.5" fill="#cfdefe"/><circle cx="23" cy="9.5" r="0.5" fill="#cfdefe"/><circle cx="24" cy="8.5" r="0.5" fill="#cfdefe"/><circle cx="21" cy="7.5" r="0.5" fill="#cfdefe"/><circle cx="21" cy="9.5" r="0.5" fill="#cfdefe"/><circle cx="22" cy="8.5" r="0.5" fill="#cfdefe"/><circle cx="19" cy="7.5" r="0.5" fill="#cfdefe"/><circle cx="19" cy="9.5" r="0.5" fill="#cfdefe"/><circle cx="20" cy="8.5" r="0.5" fill="#cfdefe"/><circle cx="17" cy="7.5" r="0.5" fill="#cfdefe"/><circle cx="17" cy="9.5" r="0.5" fill="#cfdefe"/><circle cx="18" cy="8.5" r="0.5" fill="#cfdefe"/><circle cx="15" cy="7.5" r="0.5" fill="#cfdefe"/><circle cx="15" cy="9.5" r="0.5" fill="#cfdefe"/><circle cx="16" cy="8.5" r="0.5" fill="#cfdefe"/><circle cx="13" cy="7.5" r="0.5" fill="#cfdefe"/><circle cx="13" cy="9.5" r="0.5" fill="#cfdefe"/><circle cx="14" cy="8.5" r="0.5" fill="#cfdefe"/><polygon points="16.5 3 48.5 3 47.5 5 17.5 5 16.5 3" fill="#0366d6"/><rect x="40.5" y="11.5" width="7" height="1" fill="#6ccb93"/><rect x="48.5" y="11.5" width="3" height="1" fill="#6ccb93"/><rect x="16.5" y="11.5" width="7" height="1" transform="translate(40 24) rotate(180)" fill="#0366d6"/><rect x="12.5" y="11.5" width="3" height="1" transform="translate(28 24) rotate(180)" fill="#0366d6"/><path d="M16,28A10,10,0,0,1,6,18V17a1,1,0,0,1,2,0v1a8,8,0,0,0,8,8,1,1,0,0,1,0,2Z" fill="#001b44"/><path d="M7,48a1,1,0,0,1-1-1V46A10,10,0,0,1,16,36a1,1,0,0,1,0,2,8,8,0,0,0-8,8v1A1,1,0,0,1,7,48Z" fill="#001b44"/><path d="M57,48a1,1,0,0,1-1-1V46a8,8,0,0,0-8-8,1,1,0,0,1,0-2A10,10,0,0,1,58,46v1A1,1,0,0,1,57,48Z" fill="#001b44"/><path d="M48,28a1,1,0,0,1,0-2,8,8,0,0,0,8-8V17a1,1,0,0,1,2,0v1A10,10,0,0,1,48,28Z" fill="#001b44"/><polygon points="15.5 29 15.5 35 18.5 32 15.5 29" fill="#6ccb93"/><polygon points="48.5 29 48.5 35 45.5 32 48.5 29" fill="#6ccb93"/><rect x="15" y="43" width="33" height="5" fill="url(#New_Gradient_Swatch_4-3)"/><rect x="19" y="37" width="26" height="5" fill="#cfdefe"/><rect x="15" y="16" width="33" height="5" fill="url(#New_Gradient_Swatch_4-4)"/><rect x="19" y="22" width="26" height="5" fill="#cfdefe"/><rect x="21" y="29.5" width="22" height="5" fill="#007aff"/></svg>