<svg id="Layer_1" data-name="Layer 1" xmlns="http://www.w3.org/2000/svg" xmlns:xlink="http://www.w3.org/1999/xlink" viewBox="0 0 64 64"><defs><linearGradient id="New_Gradient_Swatch_4" x1="32" y1="50.25" x2="32" y2="19.49" gradientTransform="translate(-0.28 0.28) rotate(-0.5)" gradientUnits="userSpaceOnUse"><stop offset="0" stop-color="#007aff"/><stop offset="1" stop-color="#0095ff"/></linearGradient></defs><title>ic_</title><path d="M4,21.5H9a0,0,0,0,1,0,0v4a0,0,0,0,1,0,0H4a2,2,0,0,1-2-2v0A2,2,0,0,1,4,21.5Z" fill="#6ccb93"/><path d="M4,30H9a0,0,0,0,1,0,0v4a0,0,0,0,1,0,0H4a2,2,0,0,1-2-2v0A2,2,0,0,1,4,30Z" fill="#6ccb93"/><path d="M4,38.5H9a0,0,0,0,1,0,0v4a0,0,0,0,1,0,0H4a2,2,0,0,1-2-2v0A2,2,0,0,1,4,38.5Z" fill="#6ccb93"/><path d="M55,21.5h5a2,2,0,0,1,2,2v0a2,2,0,0,1-2,2H55a0,0,0,0,1,0,0v-4A0,0,0,0,1,55,21.5Z" fill="#6ccb93"/><path d="M55,30h5a2,2,0,0,1,2,2v0a2,2,0,0,1-2,2H55a0,0,0,0,1,0,0V30A0,0,0,0,1,55,30Z" fill="#6ccb93"/><path d="M55,38.5h5a2,2,0,0,1,2,2v0a2,2,0,0,1-2,2H55a0,0,0,0,1,0,0v-4A0,0,0,0,1,55,38.5Z" fill="#6ccb93"/><path d="M37,56.5h5a2,2,0,0,1,2,2v0a2,2,0,0,1-2,2H37a0,0,0,0,1,0,0v-4A0,0,0,0,1,37,56.5Z" transform="translate(99 18) rotate(90)" fill="#6ccb93"/><path d="M28.5,56.5h5a2,2,0,0,1,2,2v0a2,2,0,0,1-2,2h-5a0,0,0,0,1,0,0v-4A0,0,0,0,1,28.5,56.5Z" transform="translate(90.5 26.5) rotate(90)" fill="#6ccb93"/><path d="M20,56.5h5a2,2,0,0,1,2,2v0a2,2,0,0,1-2,2H20a0,0,0,0,1,0,0v-4a0,0,0,0,1,0,0Z" transform="translate(82 35) rotate(90)" fill="#6ccb93"/><path d="M39,3.5h5a0,0,0,0,1,0,0v4a0,0,0,0,1,0,0H39a2,2,0,0,1-2-2v0A2,2,0,0,1,39,3.5Z" transform="translate(46 -35) rotate(90)" fill="#6ccb93"/><path d="M30.5,3.5h5a0,0,0,0,1,0,0v4a0,0,0,0,1,0,0h-5a2,2,0,0,1-2-2v0A2,2,0,0,1,30.5,3.5Z" transform="translate(37.5 -26.5) rotate(90)" fill="#6ccb93"/><path d="M22,3.5h5a0,0,0,0,1,0,0v4a0,0,0,0,1,0,0H22a2,2,0,0,1-2-2v0A2,2,0,0,1,22,3.5Z" transform="translate(29 -18) rotate(90)" fill="#6ccb93"/><rect x="8" y="8" width="48" height="48" rx="4" ry="4" transform="translate(0.28 -0.28) rotate(0.5)" fill="url(#New_Gradient_Swatch_4)"/><rect x="13" y="13" width="38" height="38" rx="2" ry="2" transform="translate(0.28 -0.28) rotate(0.5)" fill="#0366d6"/><path d="M48.69,50h0L15,49.69a1,1,0,0,1-.7-.3,1,1,0,0,1-.29-.71L14.31,15a1,1,0,0,1,1-1L49,14.31a1,1,0,0,1,1,1L49.69,49A1,1,0,0,1,48.69,50ZM16,47.7,47.7,48,48,16.3,16.3,16Z" fill="#001b44"/><g id="g4421"><path id="path4423" d="M27.08,30.8v3.87H25.85V29.81h2.54a1.35,1.35,0,0,1,1.45,1.45v3.41H28.61v-3.4c0-.29-.15-.47-.51-.47Zm8.38-.06a1,1,0,0,0-.89.51,1.33,1.33,0,0,0-.12.53h1.9c0-.53-.26-1-.89-1m-1,1.88a1,1,0,0,0,1.1,1.09,1.37,1.37,0,0,0,1.12-.46l.77.73a2.44,2.44,0,0,1-1.9.77,2.2,2.2,0,0,1-2.31-2.52,2.26,2.26,0,0,1,2.28-2.51c1.31,0,2.07,1.07,2.07,2.46v.44H34.45m-2.26,2.05a1.32,1.32,0,0,1-1.43-1.39v-4.8H32v1.33h.93v1H32v2.4a.38.38,0,0,0,.43.44h.5v1h-.73m-7.44-5.54H23.51V28h1.24Zm0,5.59a1.21,1.21,0,0,1-1.24-1.3V29.81h1.24v4.91Zm14.79-.1a1.21,1.21,0,0,1-1.24-1.3V27.79h1.24Zm4.34-6c-1.13-5.49-11.78-5.84-18.64-1.66v.46c6.86-3.52,16.58-3.5,17.47,1.55a4.43,4.43,0,0,1-2.33,4.42v1.31a5.48,5.48,0,0,0,3.5-6.08M31.4,38.19c-4.74.43-9.67-.25-10.36-4a6.09,6.09,0,0,1,1.59-5v-.64c-2,1.74-3.06,3.95-2.44,6.55.79,3.34,5,5.23,11.5,4.6a23.43,23.43,0,0,0,8.23-2.35V35.62a22.58,22.58,0,0,1-8.52,2.57" fill="#fff"/></g><rect x="44" y="44" width="2" height="2" fill="#fff"/><rect x="18" y="18" width="2" height="2" fill="#fff"/><rect x="22" y="18" width="24" height="2" fill="#6ccb93"/><rect x="18" y="44" width="24" height="2" fill="#6ccb93"/></svg>