<svg id="Layer_1" data-name="Layer 1" xmlns="http://www.w3.org/2000/svg" xmlns:xlink="http://www.w3.org/1999/xlink" viewBox="0 0 64 64"><defs><linearGradient id="New_Gradient_Swatch_4" x1="4.9" y1="33.78" x2="59.93" y2="33.78" gradientTransform="translate(33.67 -13.15) rotate(45)" gradientUnits="userSpaceOnUse"><stop offset="0" stop-color="#007aff"/><stop offset="1" stop-color="#0095ff"/></linearGradient></defs><title>ic_</title><path d="M7.61,48.57a1,1,0,0,1-.86-.49L4.63,44.54a1,1,0,0,1,.15-1.22L43,5.14A1,1,0,0,1,44.18,5l3.54,2.12a1,1,0,1,1-1,1.71L43.82,7.1,6.74,44.18l1.72,2.87a1,1,0,0,1-.34,1.37A1,1,0,0,1,7.61,48.57Z" fill="#001b44"/><path d="M7,43a1,1,0,0,1-1-.69l-1-3.08a1,1,0,0,1,.24-1L38.22,5.29a1,1,0,0,1,1-.24l3.08,1A1,1,0,1,1,41.69,8L39.2,7.14,7.14,39.2,8,41.69A1,1,0,0,1,7.31,43,1.12,1.12,0,0,1,7,43Z" fill="#001b44"/><path d="M6.88,38.62a1,1,0,0,1-1-.68l-.88-2.62a1,1,0,0,1,.24-1L33.9,5a1,1,0,0,1,1-.24l2.62.87a1,1,0,0,1-.63,1.9l-2-.68L7.14,35.26l.69,2a1,1,0,0,1-.64,1.27A1.12,1.12,0,0,1,6.88,38.62Z" fill="#001b44"/><path d="M4.71,23.57h56a2,2,0,0,1,2,2v17a0,0,0,0,1,0,0h-60a0,0,0,0,1,0,0v-17a2,2,0,0,1,2-2Z" transform="translate(-13.8 32.81) rotate(-45)" fill="url(#New_Gradient_Swatch_4)"/><rect x="10.11" y="36.23" width="56.5" height="5" transform="translate(-16.15 38.47) rotate(-45)" fill="#0366d6"/><rect x="20.54" y="54.76" width="1" height="4" transform="translate(-33.97 31.5) rotate(-45)" fill="#6ccb93"/><rect x="19.13" y="56.17" width="1" height="4" transform="translate(-35.39 30.92) rotate(-45)" fill="#6ccb93"/><rect x="21.95" y="53.34" width="1" height="4" transform="translate(-32.56 32.09) rotate(-45)" fill="#6ccb93"/><rect x="23.37" y="51.93" width="1" height="4" transform="translate(-31.14 32.67) rotate(-45)" fill="#6ccb93"/><rect x="24.78" y="50.51" width="1" height="4" transform="translate(-29.73 33.26) rotate(-45)" fill="#6ccb93"/><rect x="26.2" y="49.1" width="1" height="4" transform="translate(-28.31 33.84) rotate(-45)" fill="#6ccb93"/><rect x="27.61" y="47.69" width="1" height="4" transform="translate(-26.9 34.43) rotate(-45)" fill="#6ccb93"/><rect x="29.03" y="46.27" width="1" height="4" transform="translate(-25.49 35.02) rotate(-45)" fill="#6ccb93"/><rect x="30.44" y="44.86" width="1" height="4" transform="translate(-24.07 35.6) rotate(-45)" fill="#6ccb93"/><rect x="31.85" y="43.44" width="1" height="4" transform="translate(-22.66 36.19) rotate(-45)" fill="#6ccb93"/><rect x="33.27" y="42.03" width="1" height="4" transform="translate(-21.24 36.77) rotate(-45)" fill="#6ccb93"/><rect x="34.68" y="40.62" width="1" height="4" transform="translate(-19.83 37.36) rotate(-45)" fill="#6ccb93"/><rect x="36.1" y="39.2" width="1" height="4" transform="translate(-18.41 37.94) rotate(-45)" fill="#6ccb93"/><rect x="37.51" y="37.79" width="1" height="4" transform="translate(-17 38.53) rotate(-45)" fill="#6ccb93"/><rect x="38.92" y="36.37" width="1" height="4" transform="translate(-15.59 39.12) rotate(-45)" fill="#6ccb93"/><rect x="40.34" y="34.96" width="1" height="4" transform="translate(-14.17 39.7) rotate(-45)" fill="#6ccb93"/><rect x="41.75" y="33.54" width="1" height="4" transform="translate(-12.76 40.29) rotate(-45)" fill="#6ccb93"/><rect x="43.17" y="32.13" width="1" height="4" transform="translate(-11.34 40.87) rotate(-45)" fill="#6ccb93"/><rect x="44.58" y="30.72" width="1" height="4" transform="translate(-9.93 41.46) rotate(-45)" fill="#6ccb93"/><rect x="46" y="29.3" width="1" height="4" transform="translate(-8.52 42.05) rotate(-45)" fill="#6ccb93"/><rect x="47.41" y="27.89" width="1" height="4" transform="translate(-7.1 42.63) rotate(-45)" fill="#6ccb93"/><rect x="48.82" y="26.47" width="1" height="4" transform="translate(-5.69 43.22) rotate(-45)" fill="#6ccb93"/><rect x="50.24" y="25.06" width="1" height="4" transform="translate(-4.27 43.8) rotate(-45)" fill="#6ccb93"/><rect x="51.65" y="23.64" width="1" height="4" transform="translate(-2.86 44.39) rotate(-45)" fill="#6ccb93"/><rect x="53.07" y="22.23" width="1" height="4" transform="translate(-1.44 44.97) rotate(-45)" fill="#6ccb93"/><rect x="54.48" y="20.82" width="1" height="4" transform="translate(-0.03 45.56) rotate(-45)" fill="#6ccb93"/><rect x="55.9" y="19.4" width="1" height="4" transform="translate(1.38 46.15) rotate(-45)" fill="#6ccb93"/><rect x="57.31" y="17.99" width="1" height="4" transform="translate(2.8 46.73) rotate(-45)" fill="#6ccb93"/><rect x="11.68" y="44.98" width="6" height="8" transform="translate(-30.34 24.72) rotate(-45)" fill="#0366d6"/><rect x="17.33" y="39.32" width="6" height="8" transform="translate(-24.68 27.07) rotate(-45)" fill="#0366d6"/><rect x="22.99" y="33.67" width="6" height="8" transform="translate(-19.02 29.41) rotate(-45)" fill="#0366d6"/><rect x="28.65" y="28.01" width="6" height="8" transform="translate(-13.36 31.75) rotate(-45)" fill="#0366d6"/><rect x="34.3" y="22.35" width="6" height="8" transform="translate(-7.71 34.1) rotate(-45)" fill="#0366d6"/><rect x="34.3" y="22.35" width="6" height="8" transform="translate(-7.71 34.1) rotate(-45)" fill="#0366d6"/><rect x="39.96" y="16.69" width="6" height="8" transform="translate(-2.05 36.44) rotate(-45)" fill="#0366d6"/><rect x="45.62" y="11.04" width="6" height="8" transform="translate(3.61 38.78) rotate(-45)" fill="#0366d6"/><rect x="0.76" y="27.62" width="54" height="1" transform="translate(-11.75 27.86) rotate(-45)" fill="#6ccb93"/></svg>