<svg id="Layer_1" data-name="Layer 1" xmlns="http://www.w3.org/2000/svg" xmlns:xlink="http://www.w3.org/1999/xlink" viewBox="0 0 64 64"><defs><linearGradient id="New_Gradient_Swatch_4" x1="27.79" y1="44.81" x2="36.71" y2="17.67" gradientUnits="userSpaceOnUse"><stop offset="0" stop-color="#007aff"/><stop offset="1" stop-color="#0095ff"/></linearGradient><linearGradient id="New_Gradient_Swatch_4-2" x1="37.22" y1="32.43" x2="19.14" y2="31.63" xlink:href="#New_Gradient_Swatch_4"/></defs><title>ic_</title><path d="M8,47a1,1,0,0,1-.5-1.86l24-14a1,1,0,0,1,1,0L56.37,44.91a1,1,0,0,1-1,1.74L32,33.16,8.5,46.86A.9.9,0,0,1,8,47Z" fill="#001b44"/><path d="M31.87,33a1,1,0,0,1-.5-.13L7.5,19.09a1,1,0,0,1,1-1.74L31.87,30.84l23.49-13.7a1,1,0,0,1,1.37.36,1,1,0,0,1-.36,1.36l-24,14A1,1,0,0,1,31.87,33Z" fill="#001b44"/><path d="M32,60.56a1,1,0,0,1-1-1V4.44a1,1,0,1,1,2,0V59.56A1,1,0,0,1,32,60.56Z" fill="#001b44"/><path d="M49,32A17,17,0,0,1,32,49a16.83,16.83,0,0,1-3.5-.36q-.49-.11-1-.24a17,17,0,0,1,0-32.8l1-.24A16.83,16.83,0,0,1,32,15,17,17,0,0,1,49,32Z" fill="url(#New_Gradient_Swatch_4)"/><path d="M40,32A17,17,0,0,1,27.51,48.4a17,17,0,0,1,0-32.8A17,17,0,0,1,40,32Z" fill="url(#New_Gradient_Swatch_4-2)"/><path d="M40,32a8,8,0,0,1-8,8,8.17,8.17,0,0,1-1.65-.17,8,8,0,0,1,0-15.66A8.17,8.17,0,0,1,32,24,8,8,0,0,1,40,32Z" fill="#0366d6"/><path d="M32,60.56a1,1,0,0,1-.5-.13L7.63,46.65a1,1,0,0,1-.5-.87V18.22a1,1,0,0,1,.5-.87L31.5,3.57a1,1,0,0,1,1,0L56.37,17.35a1,1,0,0,1,.5.87V45.78a1,1,0,0,1-.5.87L32.5,60.43A1,1,0,0,1,32,60.56ZM9.13,45.2,32,58.41,54.87,45.2V18.8L32,5.59,9.13,18.8Z" fill="#001b44"/><circle cx="8" cy="46" r="3" fill="#6ccb93"/><circle cx="8.13" cy="18.22" r="3" fill="#6ccb93"/><circle cx="32" cy="5" r="3" fill="#6ccb93"/><circle cx="55" cy="18" r="3" fill="#6ccb93"/><circle cx="55" cy="45.56" r="3" fill="#6ccb93"/><circle cx="32" cy="59" r="3" fill="#6ccb93"/><path d="M36,33a1,1,0,0,1-.71-.29L32,29.41l-3.29,3.3a1,1,0,0,1-1.42-1.42l4-4a1,1,0,0,1,1.42,0l4,4a1,1,0,0,1,0,1.42A1,1,0,0,1,36,33Z" fill="#6ccb93"/><path d="M33.78,34.78a1,1,0,0,1-.71-.3L32,33.41l-1.07,1.07a1,1,0,0,1-1.41-1.41l1.77-1.78a1,1,0,0,1,1.42,0l1.77,1.78a1,1,0,0,1-.7,1.71Z" fill="#6ccb93"/><circle cx="32" cy="36" r="1" fill="#6ccb93"/></svg>