<svg width="64" height="64" viewBox="0 0 64 64" fill="none" xmlns="http://www.w3.org/2000/svg">
<path d="M14.8801 32.82V26.67C14.8533 22.0917 16.6383 17.6886 19.8455 14.4214C23.0528 11.1542 27.4221 9.28799 32.0001 9.22998V9.22998C36.5789 9.28538 40.9497 11.1507 44.1575 14.4185C47.3653 17.6863 49.1495 22.0909 49.1201 26.67V32.82" stroke="#00BFA5" stroke-width="2" stroke-linecap="round" stroke-linejoin="round"/>
<path d="M7.8701 26.6701C7.81677 20.2117 10.3273 13.9958 14.8509 9.38596C19.3745 4.77612 25.5418 2.14871 32.0001 2.08008C38.4593 2.14871 44.6276 4.7758 49.1528 9.38535C53.678 13.9949 56.1908 20.2108 56.1401 26.6701" stroke="#007AFF" stroke-width="2" stroke-linecap="round" stroke-linejoin="round"/>
<path d="M62.9101 41.72C62.9706 41.3228 63.0007 40.9217 63.0001 40.52V35.61C63.0134 33.4703 62.1796 31.4122 60.6807 29.8852C59.1818 28.3582 57.1396 27.4863 55.0001 27.46H51.7901C51.0766 27.4705 50.396 27.762 49.8961 28.2713C49.3962 28.7805 49.1174 29.4664 49.1201 30.18V46C49.1147 46.7143 49.3927 47.4017 49.8932 47.9115C50.3936 48.4213 51.0757 48.712 51.7901 48.72H55.0001C56.9397 48.6986 58.8068 47.9793 60.2594 46.6938C61.712 45.4083 62.653 43.6426 62.9101 41.72" stroke="#007AFF" stroke-width="2" stroke-linecap="round" stroke-linejoin="round"/>
<path d="M1.09004 41.72C1.02949 41.3228 0.999405 40.9217 1.00004 40.52V35.61C0.986666 33.4703 1.82047 31.4122 3.31937 29.8852C4.81826 28.3582 6.86047 27.4863 9.00004 27.46H12.21C12.9236 27.4705 13.6041 27.762 14.104 28.2713C14.6039 28.7805 14.8827 29.4664 14.88 30.18V46C14.8854 46.7143 14.6074 47.4017 14.1069 47.9115C13.6065 48.4213 12.9244 48.712 12.21 48.72H9.00004C7.0604 48.6986 5.19335 47.9793 3.74073 46.6938C2.2881 45.4083 1.34711 43.6426 1.09004 41.72" stroke="#007AFF" stroke-width="2" stroke-linecap="round" stroke-linejoin="round"/>
<path d="M55.67 40.8501V53.3201L50.38 58.7601H40.17" stroke="#00BFA5" stroke-width="2" stroke-linecap="round" stroke-linejoin="round"/>
<path d="M37.04 55.6001H27.01C25.2814 55.6001 23.88 57.0014 23.88 58.7301V58.7801C23.88 60.5087 25.2814 61.9101 27.01 61.9101H37.04C38.7687 61.9101 40.17 60.5087 40.17 58.7801V58.7301C40.17 57.0014 38.7687 55.6001 37.04 55.6001Z" stroke="#00BFA5" stroke-width="2" stroke-linecap="round" stroke-linejoin="round"/>
<path d="M32.76 23.8202L35.76 29.8702C35.8316 30.0096 35.935 30.1302 36.0618 30.2222C36.1886 30.3143 36.3353 30.3753 36.49 30.4002L43.16 31.4002C43.3211 31.444 43.4687 31.5275 43.5893 31.643C43.7098 31.7585 43.7996 31.9024 43.8503 32.0615C43.901 32.2206 43.9111 32.3898 43.8796 32.5538C43.8481 32.7178 43.776 32.8712 43.67 33.0002L38.84 37.7102C38.7323 37.8213 38.6518 37.956 38.605 38.1035C38.5581 38.251 38.5461 38.4073 38.57 38.5602L39.71 45.2002C39.7257 45.3745 39.6954 45.5498 39.6221 45.7087C39.5489 45.8676 39.4352 46.0044 39.2925 46.1056C39.1498 46.2069 38.983 46.2689 38.8089 46.2854C38.6347 46.302 38.4592 46.2727 38.3 46.2002L32.3 43.0702C32.1604 42.9999 32.0063 42.9632 31.85 42.9632C31.6937 42.9632 31.5396 42.9999 31.4 43.0702L25.4 46.2002C25.2412 46.2703 25.0668 46.2978 24.8942 46.2801C24.7215 46.2623 24.5564 46.1999 24.4151 46.099C24.2739 45.9981 24.1613 45.8622 24.0885 45.7046C24.0157 45.547 23.9852 45.3732 24 45.2002L25.14 38.5602C25.1676 38.4064 25.1565 38.2482 25.1076 38.0998C25.0587 37.9514 24.9736 37.8175 24.86 37.7102L20.11 33.0002C19.9919 32.8702 19.9101 32.7113 19.8729 32.5395C19.8357 32.3678 19.8444 32.1893 19.8981 32.022C19.9519 31.8548 20.0487 31.7046 20.179 31.5866C20.3092 31.4687 20.4682 31.3872 20.64 31.3502L27.31 30.3502C27.4647 30.3253 27.6113 30.2643 27.7381 30.1722C27.8649 30.0802 27.9683 29.9596 28.04 29.8202L31.04 23.7702C31.1328 23.6235 31.2622 23.5034 31.4155 23.4219C31.5688 23.3403 31.7407 23.3001 31.9142 23.3051C32.0878 23.3102 32.2571 23.3603 32.4053 23.4506C32.5536 23.5409 32.6759 23.6683 32.76 23.8202Z" stroke="#007AFF" stroke-width="2" stroke-linecap="round" stroke-linejoin="round"/>
</svg>
