<svg width="64" height="64" viewBox="0 0 64 64" fill="none" xmlns="http://www.w3.org/2000/svg">
<path d="M14.6699 28.44V18.33C14.6831 13.7379 16.5132 9.33756 19.7603 6.09041C23.0075 2.84326 27.4078 1.01319 31.9999 1V1C36.5921 1.01319 40.9924 2.84326 44.2395 6.09041C47.4867 9.33756 49.3167 13.7379 49.3299 18.33V28.43" stroke="#00BFA5" stroke-width="2" stroke-linecap="round" stroke-linejoin="round"/>
<path d="M44.3299 28.43V18.33C44.3299 15.0599 43.0309 11.9237 40.7185 9.61137C38.4062 7.29905 35.27 6 31.9999 6C28.7298 6 25.5936 7.29905 23.2813 9.61137C20.969 11.9237 19.6699 15.0599 19.6699 18.33V28.44" stroke="#00BFA5" stroke-width="2" stroke-linecap="round" stroke-linejoin="round"/>
<path d="M52.7199 28.4302H11.2699C10.1212 28.4302 9.18994 29.3614 9.18994 30.5102V60.9202C9.18994 62.0689 10.1212 63.0002 11.2699 63.0002H52.7199C53.8687 63.0002 54.7999 62.0689 54.7999 60.9202V30.5102C54.7999 29.3614 53.8687 28.4302 52.7199 28.4302Z" stroke="#007AFF" stroke-width="2" stroke-linejoin="round"/>
<path d="M48.6699 41.54H54.8099" stroke="#007AFF" stroke-width="2" stroke-linejoin="round"/>
<path d="M48.6699 45.71H54.8099" stroke="#007AFF" stroke-width="2" stroke-linejoin="round"/>
<path d="M48.6699 49.8901H54.8099" stroke="#007AFF" stroke-width="2" stroke-linejoin="round"/>
<path d="M9.06995 41.54H15.2099" stroke="#007AFF" stroke-width="2" stroke-linejoin="round"/>
<path d="M9.06995 45.71H15.2099" stroke="#007AFF" stroke-width="2" stroke-linejoin="round"/>
<path d="M9.06995 49.8901H15.2099" stroke="#007AFF" stroke-width="2" stroke-linejoin="round"/>
<path d="M47.5499 36.9302H16.4499C15.743 36.9302 15.1699 37.5033 15.1699 38.2102V53.2102C15.1699 53.9171 15.743 54.4902 16.4499 54.4902H47.5499C48.2568 54.4902 48.8299 53.9171 48.8299 53.2102V38.2102C48.8299 37.5033 48.2568 36.9302 47.5499 36.9302Z" stroke="#00BFA5" stroke-width="2" stroke-miterlimit="10"/>
<path d="M23.19 49.7398C22.6576 49.5883 22.1588 49.3372 21.72 48.9998L22.32 47.6598C23.1203 48.2272 24.079 48.5281 25.06 48.5198C25.4825 48.5432 25.9037 48.4534 26.28 48.2598C26.412 48.1923 26.5224 48.0889 26.5984 47.9616C26.6744 47.8343 26.7131 47.6881 26.71 47.5398C26.7104 47.4088 26.6741 47.2804 26.6052 47.169C26.5362 47.0576 26.4374 46.9678 26.32 46.9098C25.879 46.6979 25.4115 46.5465 24.93 46.4598C24.3158 46.3523 23.7177 46.1675 23.15 45.9098C22.7462 45.7456 22.3988 45.4677 22.15 45.1098C21.9505 44.775 21.8532 44.3892 21.87 43.9998C21.862 43.5118 22.0129 43.0345 22.3 42.6398C22.5959 42.2023 23.008 41.856 23.49 41.6398C24.0539 41.4064 24.6597 41.2907 25.27 41.2998C25.8573 41.2975 26.4413 41.3887 27 41.5698C27.4882 41.7056 27.9417 41.9442 28.33 42.2698L27.73 43.6098C27.0287 43.064 26.1685 42.762 25.28 42.7498C24.8761 42.728 24.4752 42.8291 24.13 43.0398C23.998 43.1195 23.8896 43.2327 23.8158 43.368C23.742 43.5033 23.7055 43.6558 23.71 43.8098C23.7011 43.9812 23.7584 44.1494 23.87 44.2798C24.0187 44.4343 24.2046 44.548 24.41 44.6098C24.7583 44.7375 25.1161 44.8378 25.48 44.9098C26.321 45.0473 27.1226 45.3646 27.83 45.8398C28.0654 46.0233 28.2529 46.261 28.3765 46.5326C28.5002 46.8043 28.5562 47.1018 28.54 47.3998C28.5547 47.7663 28.4784 48.1308 28.3178 48.4606C28.1573 48.7904 27.9175 49.0753 27.62 49.2898C26.8477 49.8065 25.9274 50.0559 25 49.9998C24.3876 49.9967 23.7785 49.9092 23.19 49.7398Z" fill="#0079FF"/>
<path d="M31 49.7397C30.4677 49.5881 29.9689 49.337 29.53 48.9997L30.13 47.6597C30.9331 48.2291 31.8956 48.5301 32.88 48.5197C33.2993 48.5422 33.717 48.4525 34.09 48.2597C34.2221 48.1922 34.3324 48.0888 34.4085 47.9615C34.4845 47.8341 34.5232 47.688 34.52 47.5397C34.5205 47.4087 34.4842 47.2802 34.4152 47.1689C34.3463 47.0575 34.2475 46.9677 34.13 46.9097C33.6891 46.6978 33.2215 46.5464 32.74 46.4597C32.1412 46.3571 31.557 46.1825 31 45.9397C30.5962 45.7755 30.2488 45.4976 30 45.1397C29.7873 44.7978 29.6763 44.4024 29.68 43.9997C29.677 43.5125 29.8274 43.0366 30.11 42.6397C30.406 42.2022 30.8181 41.8559 31.3 41.6397C31.8643 41.4074 32.4698 41.2917 33.08 41.2997C33.6674 41.2974 34.2513 41.3886 34.81 41.5697C35.2982 41.7054 35.7517 41.9441 36.14 42.2697L35.54 43.6097C34.8388 43.0639 33.9786 42.7619 33.09 42.7497C32.6862 42.7279 32.2852 42.829 31.94 43.0397C31.8081 43.1194 31.6997 43.2326 31.6259 43.3679C31.5521 43.5032 31.5156 43.6557 31.52 43.8097C31.5112 43.9811 31.5685 44.1493 31.68 44.2797C31.8287 44.4342 32.0147 44.5478 32.22 44.6097C32.5714 44.7384 32.9326 44.8387 33.3 44.9097C34.138 45.0471 34.9363 45.3644 35.64 45.8397C35.8766 46.0227 36.0656 46.26 36.1909 46.5316C36.3163 46.8032 36.3743 47.1009 36.36 47.3997C36.3727 47.767 36.2945 48.1317 36.1322 48.4614C35.97 48.7912 35.7288 49.0757 35.43 49.2897C34.6677 49.7936 33.7621 50.0358 32.85 49.9797C32.2252 49.9861 31.6025 49.9053 31 49.7397Z" fill="#0079FF"/>
<path d="M37.7 49.8897V41.4297H39.57V48.3697H43.3499V49.8897H37.7Z" fill="#0079FF"/>
</svg>
