<svg width="64" height="64" viewBox="0 0 64 64" fill="none" xmlns="http://www.w3.org/2000/svg">
<path d="M57.71 32.2L44 18.46L38.14 25.89L44.46 32.2C44.7385 32.4825 44.8946 32.8633 44.8946 33.26C44.8946 33.6567 44.7385 34.0374 44.46 34.32L42.63 36.15C42.63 36.15 43.86 37.99 43.92 38.15C44.1086 38.5662 44.1665 39.0299 44.0862 39.4798C44.0058 39.9297 43.791 40.3447 43.47 40.67L29 51.64C29 55.34 29 62.94 29 62.94L57.71 34.32C57.8503 34.1814 57.9617 34.0163 58.0377 33.8344C58.1137 33.6524 58.1529 33.4572 58.1529 33.26C58.1529 33.0628 58.1137 32.8675 58.0377 32.6856C57.9617 32.5036 57.8503 32.3386 57.71 32.2V32.2Z" stroke="#007AFF" stroke-width="2" stroke-linejoin="round"/>
<path d="M19.26 31.69C18.9821 31.4092 18.8263 31.0301 18.8263 30.635C18.8263 30.2399 18.9821 29.8608 19.26 29.58L21.09 27.75L19.84 26C19.5593 25.5834 19.4456 25.0765 19.5216 24.5799C19.5975 24.0834 19.8576 23.6336 20.25 23.32L34.63 12.32V1L5.99999 29.58C5.8597 29.7186 5.74832 29.8836 5.6723 30.0656C5.59627 30.2476 5.55713 30.4428 5.55713 30.64C5.55713 30.8372 5.59627 31.0324 5.6723 31.2144C5.74832 31.3964 5.8597 31.5614 5.99999 31.7L19.72 45.44L25.58 38L19.26 31.69Z" stroke="#007AFF" stroke-width="2" stroke-linejoin="round"/>
<path d="M44.79 10.0001C44.98 9.76014 45.03 9.64014 44.96 9.64014C44.8368 9.67704 44.7238 9.74208 44.63 9.83014L24.37 25.3701C24.1746 25.5276 24.0456 25.7529 24.0085 26.0011C23.9715 26.2493 24.0291 26.5024 24.17 26.7101V26.7101L31.17 36.8101C31.3209 37.0311 31.4017 37.2925 31.4017 37.5601C31.4017 37.8277 31.3209 38.0891 31.17 38.3101L18.58 54.3101C18.39 54.5501 18.34 54.6801 18.41 54.6701C18.48 54.6601 18.57 54.6101 18.74 54.4801L39 38.9101C39.41 38.6001 39.26 37.6701 39.1 37.4201L32.17 27.4801C32.0291 27.2578 31.9568 26.9988 31.9621 26.7356C31.9674 26.4724 32.0502 26.2166 32.2 26.0001L44.79 10.0001Z" stroke="#00BFA5" stroke-width="2" stroke-linecap="round" stroke-linejoin="round"/>
</svg>
