<svg width="64" height="64" viewBox="0 0 64 64" fill="none" xmlns="http://www.w3.org/2000/svg">
<path d="M63 25.6898V12.5698C62.9125 11.9089 62.5714 11.3078 62.049 10.8936C61.5266 10.4794 60.8636 10.2844 60.2001 10.3498H22.05" stroke="#00BFA5" stroke-width="2" stroke-linecap="round" stroke-linejoin="round"/>
<path d="M60.15 16.8201H35.66C34.3074 16.8103 33.0053 16.3051 32 15.4001L28 11.7701C26.9921 10.8564 25.6804 10.3503 24.32 10.3501H3.39C3.07745 10.3488 2.76771 10.4091 2.47845 10.5275C2.18919 10.6458 1.92608 10.8201 1.70415 11.0401C1.48222 11.2602 1.30581 11.5218 1.18499 11.8101C1.06417 12.0983 1.00131 12.4076 1 12.7201V50.8501C1.00264 51.5919 1.29848 52.3026 1.82301 52.8271C2.34754 53.3516 3.0582 53.6475 3.8 53.6501H60.15C60.8918 53.6475 61.6025 53.3516 62.127 52.8271C62.6515 52.3026 62.9474 51.5919 62.95 50.8501V19.6201C62.9474 18.8783 62.6515 18.1677 62.127 17.6431C61.6025 17.1186 60.8918 16.8228 60.15 16.8201Z" stroke="#007AFF" stroke-width="2" stroke-linejoin="round"/>
<path d="M26.88 34.7701C26.6362 34.1888 26.3417 33.6299 26 33.1001C25.6442 32.5821 25.239 32.0999 24.79 31.6601C24.3523 31.212 23.8698 30.8099 23.35 30.4601C22.8244 30.1057 22.265 29.8043 21.68 29.5601C20.4741 29.0519 19.1787 28.79 17.87 28.79C16.5614 28.79 15.2659 29.0519 14.06 29.5601C13.4782 29.8043 12.9221 30.1058 12.4 30.4601C11.8759 30.8122 11.3869 31.2141 10.94 31.6601C10.4933 32.102 10.0883 32.584 9.73002 33.1001C9.37778 33.627 9.07643 34.1862 8.83002 34.7701C8.32177 35.9761 8.05994 37.2715 8.05994 38.5801C8.05994 39.8888 8.32177 41.1842 8.83002 42.3901C9.31565 43.554 10.0258 44.6108 10.92 45.5001C11.3669 45.9462 11.8559 46.348 12.38 46.7001C12.9019 47.0576 13.4579 47.3625 14.04 47.6101C15.5411 48.2475 17.178 48.4981 18.801 48.3391C20.424 48.1801 21.9812 47.6166 23.33 46.7001C24.3699 45.9859 25.2741 45.0919 26 44.0601C26.3507 43.5323 26.6519 42.9732 26.9 42.3901C27.4083 41.1842 27.6701 39.8888 27.6701 38.5801C27.6701 37.2715 27.4083 35.9761 26.9 34.7701H26.88ZM9.17002 38.5801C9.16563 37.3473 9.42118 36.1275 9.92002 35.0001L14.06 46.3501C12.5994 45.6425 11.3667 44.5391 10.5022 43.1655C9.63769 41.7919 9.17613 40.2031 9.17002 38.5801ZM17.85 47.2701C17.0203 47.2691 16.195 47.1478 15.4 46.9101L18 39.3401L20.66 46.6501C20.6751 46.6944 20.6989 46.7352 20.73 46.7701C19.8051 47.0982 18.8314 47.2673 17.85 47.2701ZM19.05 34.5101C19.57 34.5101 20.05 34.4301 20.05 34.4301C20.1455 34.4208 20.2334 34.374 20.2943 34.2999C20.3553 34.2259 20.3843 34.1306 20.375 34.0351C20.3657 33.9396 20.3189 33.8518 20.2448 33.7908C20.1708 33.7299 20.0755 33.7008 19.98 33.7101C19.98 33.7101 18.58 33.8201 17.67 33.8201C16.76 33.8201 15.38 33.7101 15.38 33.7101C15.2845 33.7035 15.1903 33.7351 15.1181 33.7979C15.0459 33.8607 15.0017 33.9496 14.995 34.0451C14.9884 34.1406 15.02 34.2348 15.0828 34.307C15.1456 34.3792 15.2345 34.4235 15.33 34.4301C15.33 34.4301 15.78 34.4901 16.24 34.5101L17.59 38.2201L15.7 43.9101L12.53 34.5101C13.05 34.5101 13.53 34.4301 13.53 34.4301C13.6255 34.4301 13.7171 34.3922 13.7846 34.3247C13.8521 34.2572 13.89 34.1656 13.89 34.0701C13.89 33.9746 13.8521 33.8831 13.7846 33.8156C13.7171 33.7481 13.6255 33.7101 13.53 33.7101C13.53 33.7101 12.13 33.8201 11.22 33.8201H10.6C11.2896 32.7697 12.1993 31.8816 13.2661 31.2176C14.3328 30.5535 15.5312 30.1293 16.7782 29.9742C18.0252 29.8192 19.2909 29.937 20.4879 30.3197C21.6848 30.7023 22.7842 31.3405 23.71 32.1901H23.6C23.403 32.1953 23.209 32.2393 23.029 32.3195C22.8489 32.3997 22.6865 32.5146 22.5509 32.6576C22.4153 32.8006 22.3093 32.9689 22.2388 33.153C22.1682 33.337 22.1347 33.5331 22.14 33.7301C22.2369 34.4615 22.5307 35.1528 22.99 35.7301C23.4516 36.4425 23.7013 37.2713 23.71 38.1201C23.6454 39.1063 23.433 40.0771 23.08 41.0001L22.18 43.8401L19.05 34.5101ZM22.22 46.0901L24.87 38.4201C25.2928 37.4371 25.5171 36.3802 25.53 35.3101C25.5313 35.0091 25.5113 34.7083 25.47 34.4101C26.5517 36.3978 26.8173 38.7283 26.2107 40.9084C25.6041 43.0885 24.1729 44.9469 22.22 46.0901Z" fill="#00C3A4"/>
</svg>
