<svg width="70" height="70" viewBox="0 0 70 70" fill="none" xmlns="http://www.w3.org/2000/svg">
<path d="M35.96 27.87L46.59 31.41L44.13 27.09L45.89 23L35.96 27.87Z" fill="#007D3F"/>
<path d="M42.4201 23.7002L37.6501 22.3102L36.0601 18.1602L32.3301 28.5602L42.4201 23.7002Z" fill="#007D3F"/>
<path d="M33.62 21.8101L29.29 24.2501L25.21 22.4901L30.05 32.4201L33.62 21.8101Z" fill="#007D3F"/>
<path d="M25.81 25.7002L24.4 30.4602L20.25 32.0402L30.64 35.8002L25.81 25.7002Z" fill="#007D3F"/>
<path d="M34.34 38.16L23.77 34.46L26.16 38.82L24.35 42.88L34.34 38.16Z" fill="#007D3F"/>
<path d="M27.97 42.3101L32.76 43.6401L34.41 47.7701L38 37.3101L27.97 42.3101Z" fill="#007D3F"/>
<path d="M36.4099 44.1203L40.7799 41.7403L44.8399 43.5603L40.1399 33.5503L36.4099 44.1203Z" fill="#007D3F"/>
<path d="M39.3 29.9102L44.3 39.9302L45.62 35.1402L49.75 33.4902L39.3 29.9102Z" fill="#007D3F"/>
<path d="M35 4L8.71997 10.75V28.65C8.71997 56.54 35 66 35 66C35 66 61.28 55.76 61.28 28.65V10.75L35 4Z" stroke="#007AFF" stroke-width="2" stroke-linejoin="round"/>
<path d="M35 9.93018L13.74 15.3802V29.8602C13.74 52.4302 35 60.0802 35 60.0802C35 60.0802 56.26 51.8002 56.26 29.8602V15.3802L35 9.93018Z" stroke="#00BFA5" stroke-width="2" stroke-linecap="round" stroke-linejoin="round"/>
</svg>
