<svg width="170" height="80" viewBox="0 0 170 80" fill="none" xmlns="http://www.w3.org/2000/svg">
<g clip-path="url(#clip0)">
<path d="M97.2604 32.9236C97.4071 32.0818 97.4071 31.2199 97.2604 30.3781C96.8095 27.7818 94.8699 25.669 91.2131 25.6054L86.1911 25.4972L77.4876 25.3636L73.4231 33.4899L75.2392 33.3436L70.3346 55.6163H84.3689C84.9789 55.6155 85.5873 55.5515 86.1849 55.4254C92.782 54.0763 99.2556 45.8799 92.7635 39.3509C93.9397 38.7045 94.9566 37.7891 95.7361 36.675C96.5156 35.5608 97.0371 34.2776 97.2604 32.9236ZM86.1911 48.069C85.8658 48.3196 85.4729 48.4597 85.0669 48.4699H80.0202L81.6819 41.7754H85.4622C85.7025 41.7726 85.9425 41.7939 86.1787 41.839C89.1932 42.4309 88.1307 46.739 86.1911 48.069ZM87.4265 37.2509H82.6702L84.0785 31.2945H88.2666C90.4965 31.3199 90.2124 37.2763 87.4327 37.2763L87.4265 37.2509Z" fill="#9DA1C0"/>
<path d="M147.159 55.9091L144.627 25.7836H131.185L127.263 33.35H128.671L121.79 48.7054L118.702 55.5909H127.967L129.925 50.0545H137.239V55.9091H147.159ZM134.682 44.0982H132.149L134.682 38.8609L137.214 33.6236V44.0982H134.682Z" fill="#9DA1C0"/>
<path d="M105.773 41.1837C106.286 36.43 115.267 32.3319 121.358 36.831L121.766 35.8191L124.854 28.2528L121.766 26.4773L118.56 24.6191L118.01 26.35C114.273 26.6428 104.42 23.1682 98.3607 38.7273C97.8119 40.1584 97.4404 41.6551 97.255 43.1819C97.1322 44.2919 97.1322 45.4127 97.255 46.5228C97.9715 52.4155 102.746 57.4682 115.063 56.0682L118.269 47.1973C108.942 50.1819 105.285 46.1473 105.773 41.1837Z" fill="#9DA1C0"/>
<path d="M59.1734 22.8182L59.1364 22.7673H59.0808C53.9756 20.3711 48.4445 19.0885 42.8351 19C37.2833 19.0659 31.8087 20.3479 26.7748 22.7609L26.7068 22.8182L26.6698 22.8945C26.6389 22.9391 23.0006 29.78 23.0006 39.93C22.9475 45.8693 24.202 51.7438 26.6698 57.1118L26.7068 57.1818L26.7809 57.22C31.8871 59.6214 37.4204 60.9083 43.0328 61C48.5846 60.9343 54.0593 59.6523 59.0931 57.2391H59.1302L59.1611 57.2073C59.334 57.0227 63.3306 52.6064 63.3306 39.2809C63.3182 28.3991 59.3464 23.06 59.1734 22.8182ZM58.7904 56.7427C53.8482 59.0982 48.478 60.3496 43.0328 60.4145C37.5394 60.3373 32.1196 59.1006 27.1083 56.7809C24.716 51.5078 23.4982 45.7504 23.5442 39.93C23.4862 34.1526 24.7072 28.4375 27.1145 23.2191C32.0471 20.8754 37.4036 19.6286 42.8351 19.56C48.3396 19.6446 53.7684 20.8944 58.7843 23.2318C59.5968 24.4489 60.2588 25.7658 60.7547 27.1518C62.1491 31.0186 62.8361 35.1181 62.7808 39.2427C62.7746 51.7409 59.1487 56.3418 58.7904 56.7618V56.7427Z" fill="#9DA1C0"/>
<path d="M43.1612 22.7798C43.1612 22.7798 36.632 22.6525 36.632 28.9016C36.632 35.1507 42.6485 34.7116 42.6485 42.2653V50.818H43.6677V42.2907C43.6677 34.7116 49.6841 35.1443 49.6841 28.9271C49.6841 22.7098 43.1612 22.7798 43.1612 22.7798Z" fill="#9DA1C0"/>
<path d="M34.0266 43.3093C37.2695 44.1875 41.439 46.1793 41.439 50.812H41.9208V43.2266C41.9208 39.8284 38.9435 33.1593 34.6813 33.1593C30.4192 33.1593 29.3135 37.0538 29.3135 38.6893C29.3444 40.8975 30.6848 42.3993 34.0266 43.3093Z" fill="#9DA1C0"/>
<path d="M35.8973 48.6101C38.7078 47.9737 40.0174 49.4819 40.2583 50.8119H40.703C40.9439 48.1646 38.5287 44.9255 34.2665 44.2192C30.0044 43.5128 29.7943 42.0364 29.7943 42.0364C27.7127 45.9564 29.4422 50.0801 35.8973 48.6101Z" fill="#9DA1C0"/>
<path d="M52.0754 43.3093C55.4172 42.4057 56.7576 40.8975 56.7576 38.6893C56.7576 37.0538 55.6519 33.1593 51.3897 33.1593C47.1275 33.1593 44.1502 39.8284 44.1502 43.2266V50.8184H44.6197C44.6197 46.1729 48.8262 44.1875 52.0754 43.3093Z" fill="#9DA1C0"/>
<path d="M51.8336 44.2192C47.5715 44.9255 45.1562 48.1646 45.3971 50.8119H45.8542C46.0951 49.4819 47.4047 47.9737 50.2152 48.6101C56.6579 50.0801 58.3875 45.9564 56.3552 42.0364C56.3552 42.0364 56.0958 43.5128 51.8336 44.2192Z" fill="#9DA1C0"/>
<path d="M33.7296 55.3873L34.3164 55.6036L34.1064 56.24C34.0322 56.2722 33.9521 56.2874 33.8716 56.2845C33.7487 56.2768 33.6277 56.2489 33.5134 56.2018C33.4235 56.1712 33.3417 56.1196 33.2742 56.0512C33.2067 55.9828 33.1554 55.8993 33.1242 55.8073C33.0531 55.6015 33.0531 55.3767 33.1242 55.1709L33.3528 54.5345C33.4157 54.3259 33.5466 54.1461 33.7234 54.0254C33.801 53.9728 33.8898 53.9401 33.9822 53.9301C34.0747 53.9202 34.1681 53.9332 34.2546 53.9682C34.405 54.0134 34.533 54.1157 34.6129 54.2545C34.6423 54.3237 34.6575 54.3985 34.6575 54.4741C34.6575 54.5496 34.6423 54.6244 34.6129 54.6936L35.1873 54.9036C35.2603 54.7649 35.2986 54.6096 35.2986 54.4518C35.2986 54.294 35.2603 54.1387 35.1873 54C35.0131 53.7147 34.7424 53.5061 34.4276 53.4145C34.2674 53.3486 34.0956 53.3179 33.9233 53.3245C33.751 53.3311 33.5819 53.3747 33.4269 53.4527C33.2702 53.5339 33.131 53.6468 33.0174 53.7845C32.9039 53.9223 32.8184 54.0821 32.7659 54.2545L32.5374 54.8909C32.467 55.0575 32.4307 55.2373 32.4307 55.4191C32.4307 55.6008 32.467 55.7806 32.5374 55.9473C32.6146 56.1112 32.7235 56.2573 32.8573 56.3766C32.9911 56.4958 33.1471 56.5857 33.3157 56.6409C33.5626 56.7429 33.8286 56.7864 34.094 56.7682C34.2841 56.7523 34.468 56.6913 34.6314 56.59L35.0514 55.3809L33.8531 54.9418L33.7296 55.3873Z" fill="#9DA1C0"/>
<path d="M36.885 54.1211L35.7855 53.9111L35.1678 57.182L35.7855 57.3029L36.0202 55.992L36.5267 56.0875C36.5949 56.0952 36.6607 56.1173 36.7202 56.1523C36.7797 56.1873 36.8316 56.2346 36.8727 56.2911C36.9089 56.3513 36.9331 56.4183 36.9437 56.4883C36.9543 56.5583 36.9512 56.6297 36.9344 56.6984L36.8912 56.9275C36.8729 57.0347 36.8625 57.1432 36.8603 57.252C36.8501 57.3447 36.8744 57.4379 36.9282 57.5129L37.583 57.6402V57.5957C37.5278 57.5254 37.4974 57.4379 37.4965 57.3475C37.485 57.2503 37.485 57.152 37.4965 57.0548L37.5398 56.8129C37.5753 56.641 37.5625 56.4622 37.5027 56.2975C37.4326 56.1361 37.3073 56.007 37.1506 55.9348C37.3114 55.9015 37.4607 55.8246 37.583 55.712C37.6938 55.6031 37.7675 55.4603 37.793 55.3048C37.8238 55.1709 37.8236 55.0315 37.7925 54.8978C37.7614 54.764 37.7002 54.6397 37.6139 54.5348C37.4197 54.3207 37.1644 54.1759 36.885 54.1211ZM37.2062 55.2157C37.199 55.28 37.1781 55.3418 37.145 55.3968C37.1119 55.4519 37.0674 55.4986 37.0147 55.5339C36.8834 55.5969 36.7347 55.6105 36.5947 55.572L36.1438 55.4829L36.3167 54.5284L36.78 54.6175C36.9228 54.6331 37.0538 54.7063 37.1444 54.8211C37.1814 54.8786 37.2061 54.9435 37.2167 55.0115C37.2274 55.0796 37.2238 55.1492 37.2062 55.2157Z" fill="#9DA1C0"/>
<path d="M40.0856 56.7172C40.0846 56.8108 40.0649 56.9032 40.0277 56.9886C39.9905 57.074 39.9366 57.1506 39.8694 57.2136C39.8008 57.2684 39.7223 57.3084 39.6385 57.3313C39.5547 57.3543 39.4672 57.3597 39.3814 57.3472C39.2958 57.3453 39.2115 57.3251 39.1338 57.2879C39.0562 57.2506 38.9869 57.1972 38.9304 57.1309C38.8758 57.0574 38.8362 56.9733 38.8139 56.8836C38.7916 56.7939 38.7871 56.7005 38.8007 56.6091L38.9737 54.439L38.356 54.3818L38.1521 56.5454C38.1309 56.7098 38.1459 56.8771 38.1962 57.0346C38.2465 57.1922 38.3306 57.3361 38.4425 57.4554C38.686 57.6964 39.0069 57.8368 39.3443 57.85C39.6786 57.8923 40.0164 57.8086 40.2956 57.6145C40.4251 57.5163 40.5314 57.3892 40.6063 57.2426C40.6812 57.0959 40.7228 56.9337 40.728 56.7681L40.9133 54.5981L40.2956 54.5409L40.0856 56.7172Z" fill="#9DA1C0"/>
<path d="M42.4516 54.6365H41.2162V57.9647H41.8339V56.7556H42.4516C42.7675 56.7773 43.0801 56.6776 43.3287 56.4756C43.43 56.3763 43.5107 56.2569 43.5658 56.1245C43.6209 55.9921 43.6493 55.8496 43.6493 55.7056C43.6493 55.5615 43.6209 55.419 43.5658 55.2866C43.5107 55.1543 43.43 55.0348 43.3287 54.9356C43.0831 54.7262 42.77 54.6194 42.4516 54.6365ZM42.8531 56.0937C42.7979 56.1467 42.7326 56.1871 42.6613 56.2123C42.59 56.2375 42.5143 56.247 42.4392 56.2401H41.8215V55.1201H42.4392C42.5143 55.1154 42.5894 55.1272 42.6597 55.1546C42.7299 55.182 42.7938 55.2245 42.8469 55.2792C42.941 55.3896 42.9897 55.5334 42.9828 55.6801C42.9891 55.8229 42.9402 55.9625 42.8469 56.0683L42.8531 56.0937Z" fill="#9DA1C0"/>
<path d="M48.1953 56.1321C48.0677 55.9942 47.8922 55.9141 47.7073 55.9094C47.8369 55.8451 47.9437 55.7405 48.0124 55.6103C48.0811 55.4801 48.1084 55.3309 48.0903 55.1839C48.083 55.0525 48.0436 54.9252 47.9755 54.8139C47.9074 54.7026 47.813 54.6109 47.7011 54.5475C47.4187 54.4089 47.1019 54.3623 46.7931 54.4139L45.743 54.5284L46.0827 57.8375L47.3181 57.7039C47.6269 57.6913 47.9226 57.5725 48.1582 57.3666C48.2516 57.2693 48.3211 57.1503 48.3609 57.0197C48.4006 56.8891 48.4095 56.7506 48.3868 56.6157C48.3767 56.4371 48.3093 56.267 48.1953 56.1321ZM46.4719 54.9675L46.8796 54.923C47.0266 54.8955 47.1783 54.9179 47.312 54.9866C47.364 55.0224 47.4069 55.0706 47.437 55.1271C47.4671 55.1836 47.4835 55.2467 47.4849 55.3112C47.4946 55.371 47.4902 55.4323 47.4719 55.4899C47.4536 55.5475 47.422 55.5998 47.3799 55.6421C47.27 55.7357 47.1332 55.7893 46.9907 55.7948L46.5584 55.8394L46.4719 54.9675ZM47.7073 57.0357C47.6027 57.1311 47.4699 57.1872 47.3305 57.1948L46.7128 57.2584L46.6139 56.3039L47.2317 56.2403C47.3756 56.2133 47.5241 56.2453 47.6455 56.3294C47.697 56.373 47.7389 56.4272 47.7687 56.4886C47.7985 56.55 47.8155 56.6172 47.8185 56.6857C47.8209 56.7531 47.8076 56.82 47.7796 56.8809C47.7517 56.9418 47.7099 56.9949 47.6579 57.0357H47.7073Z" fill="#9DA1C0"/>
<path d="M51.154 55.9091L50.5363 56.0363C50.583 56.2043 50.5653 56.3842 50.4869 56.5391C50.4409 56.6055 50.3821 56.6614 50.314 56.703C50.2459 56.7447 50.1701 56.7712 50.0915 56.7809C50.0015 56.8034 49.9075 56.8024 49.8179 56.7779C49.7284 56.7535 49.6462 56.7064 49.5788 56.6409C49.4264 56.4841 49.3268 56.2812 49.2947 56.0618L49.1711 55.4254C49.1224 55.2137 49.1374 54.9917 49.2144 54.7891C49.2485 54.7039 49.3034 54.6293 49.3737 54.5724C49.4441 54.5156 49.5275 54.4784 49.6159 54.4645C49.6962 54.441 49.7803 54.4346 49.8631 54.4455C49.9459 54.4564 50.0257 54.4846 50.0977 54.5282C50.1636 54.5812 50.2185 54.6474 50.2588 54.7229C50.2991 54.7984 50.3242 54.8815 50.3324 54.9673L50.9501 54.84C50.9322 54.6847 50.88 54.5358 50.7976 54.4045C50.7151 54.2733 50.6046 54.1632 50.4745 54.0827C50.177 53.9264 49.8341 53.8879 49.5109 53.9745C49.3425 54.0025 49.1819 54.0676 49.0401 54.1653C48.8983 54.2631 48.7787 54.3912 48.6893 54.5409C48.5083 54.8549 48.4529 55.2292 48.5349 55.5845L48.6584 56.2209C48.6859 56.4006 48.7474 56.5729 48.8397 56.7279C48.9319 56.883 49.0529 57.0178 49.1959 57.1245C49.3392 57.2268 49.5019 57.2968 49.6733 57.3297C49.8447 57.3626 50.0209 57.3577 50.1904 57.3154C50.513 57.2694 50.8067 57.0988 51.0119 56.8382C51.1 56.7119 51.1596 56.5669 51.1863 56.4139C51.213 56.2609 51.2062 56.1036 51.1663 55.9536L51.154 55.9091Z" fill="#9DA1C0"/>
<path d="M51.6492 53.4402L51.6863 56.9529L52.304 56.7238V55.9729L53.2923 55.6166L53.7309 56.2211L54.3486 55.992L52.2793 53.2111L51.6492 53.4402ZM52.2669 55.4257L52.2299 54.1975L52.9402 55.1838L52.2669 55.4257Z" fill="#9DA1C0"/>
</g>
<defs>
<clipPath id="clip0">
<rect width="124.6" height="42" fill="white" transform="translate(23 19)"/>
</clipPath>
</defs>
</svg>
