<svg width="170" height="80" viewBox="0 0 170 80" fill="none" xmlns="http://www.w3.org/2000/svg">
<path fill-rule="evenodd" clip-rule="evenodd" d="M33 34.8979L41.7049 45.807L33 52.9888V34.8979Z" fill="#9DA1C0"/>
<path fill-rule="evenodd" clip-rule="evenodd" d="M36.5092 52.9888L43.0264 47.5343L47.5384 52.9888H36.5092Z" fill="#9DA1C0"/>
<path fill-rule="evenodd" clip-rule="evenodd" d="M33 29.0343L35.2788 31.8979L44.5761 43.4888L47.5841 41.0797C47.5841 41.0797 45.0774 38.1252 43.3912 34.8525C40.1097 28.4434 42.4341 24.4434 42.4341 24.4434H33V29.0343Z" fill="#9DA1C0"/>
<path fill-rule="evenodd" clip-rule="evenodd" d="M45.8979 45.307L48.9515 42.7615C48.9515 42.7615 51.8683 46.6252 55.2864 47.5343C59.7528 48.7161 61.7126 45.807 61.7126 45.807V52.9888H51.9595L54.1471 51.0797C54.1471 51.0797 53.0077 51.8524 50.182 49.8979C48.5413 48.7615 45.8979 45.307 45.8979 45.307Z" fill="#9DA1C0"/>
<path fill-rule="evenodd" clip-rule="evenodd" d="M46.2171 24.4434C46.2171 24.4434 45.2144 25.7615 45.9436 29.0343C46.6728 32.5343 49.6808 36.2161 49.6352 36.1252C49.6352 36.1252 49.8175 32.4434 51.9595 30.307C56.5626 25.7161 61.7582 28.4434 61.7582 28.4434V24.4434H46.2171Z" fill="#9DA1C0"/>
<path fill-rule="evenodd" clip-rule="evenodd" d="M61.7579 33.307C61.7579 33.307 58.8411 30.807 56.3344 30.807C53.0986 30.807 51.3212 33.5797 51.3212 35.6252C51.3212 38.5797 52.734 40.2161 54.1468 41.6252C56.1977 43.6706 58.6588 45.8525 61.7579 44.0797C61.7579 40.7161 61.7579 33.307 61.7579 33.307Z" fill="#9DA1C0"/>
<path fill-rule="evenodd" clip-rule="evenodd" d="M94.8457 24.7615H101.682C101.682 24.7615 107.743 33.9434 110.751 37.7161C113.714 41.4888 116.95 45.807 116.95 45.807C116.95 45.807 116.95 33.307 116.95 26.807C116.95 25.9888 114.808 24.7615 114.808 24.7615H122.692C122.692 24.7615 120.094 25.807 120.094 26.807C120.094 34.8979 120.094 54.4434 120.094 54.4434C120.094 54.4434 117.588 53.0797 114.762 49.807C111.572 46.1252 100.315 31.307 100.315 31.307C100.315 31.307 100.315 45.307 100.315 50.5343C100.315 51.5343 102.457 52.9888 102.457 52.9888H94.8002C94.8002 52.9888 96.8966 51.4888 96.8966 50.5343C96.8966 43.5343 96.8966 33.307 96.8966 26.807C96.9422 25.9434 94.8457 24.7615 94.8457 24.7615Z" fill="#9DA1C0"/>
<path fill-rule="evenodd" clip-rule="evenodd" d="M127.159 24.7615H135.955C135.955 24.7615 133.585 25.8979 133.585 26.807C133.585 33.307 133.585 44.0797 133.585 50.5343C133.585 51.5797 135.955 52.9888 135.955 52.9888H127.159C127.159 52.9888 129.346 51.4888 129.346 50.5343C129.346 42.807 129.346 33.307 129.346 26.807C129.346 25.8979 127.159 24.7615 127.159 24.7615Z" fill="#9DA1C0"/>
<path fill-rule="evenodd" clip-rule="evenodd" d="M68.9586 24.7615C68.9586 24.7615 71.2374 25.8979 71.2374 26.807C71.2374 33.307 71.2374 42.7615 71.2374 50.5343C71.2374 51.5343 68.9586 52.9888 68.9586 52.9888C68.9586 52.9888 80.3524 52.9888 81.9931 52.9888C82.8135 52.9888 91.9285 51.4888 91.9285 44.4888C91.9285 37.4888 84.8188 36.807 84.8188 36.807C84.8188 36.807 89.1484 35.6252 89.1484 30.807C89.1484 25.6252 82.8135 24.7615 81.9931 24.7615C80.3069 24.7615 68.9586 24.7615 68.9586 24.7615ZM75.8861 36.3525V27.5343C75.8861 27.5343 79.6688 27.5343 81.1728 27.5343C81.9931 27.5343 84.8188 28.4888 84.8188 31.9888C84.8188 34.8979 81.9476 36.3525 81.1728 36.3525C79.3498 36.3525 75.8861 36.3525 75.8861 36.3525ZM75.8861 38.6706C75.8861 38.6706 81.1728 38.6706 81.9931 38.6706C82.8135 38.6706 87.5989 39.8979 87.5989 44.0797C87.5989 48.307 82.8135 49.807 81.9931 49.807C81.1728 49.807 75.8861 49.807 75.8861 49.807V38.6706Z" fill="#9DA1C0"/>
</svg>
