<svg width="170" height="80" viewBox="0 0 170 80" fill="none" xmlns="http://www.w3.org/2000/svg">
<g clip-path="url(#clip0)">
<path fill-rule="evenodd" clip-rule="evenodd" d="M44.5716 31.8787L47.634 29.4749C47.1226 28.8538 46.6447 28.211 46.1834 27.5574C42.6263 22.5717 40.5254 17.4941 42.0483 13H33V17.8615L44.5716 31.8787Z" fill="#9DA1C0"/>
<path fill-rule="evenodd" clip-rule="evenodd" d="M49.4125 24.6297C49.4989 23.3112 49.8708 22.0253 50.5039 20.8561C51.137 19.687 52.017 18.661 53.0863 17.8453C54.3025 16.9222 55.7521 16.3348 57.2828 16.1447C58.8134 15.9546 60.3685 16.1688 61.7844 16.7649V13H45.8221C44.7494 17.5536 47.5228 22.5555 49.4125 24.6297Z" fill="#9DA1C0"/>
<path fill-rule="evenodd" clip-rule="evenodd" d="M53.2863 20.0707C50.2684 22.442 51.002 26.1691 53.7921 29.5289C55.9541 32.1163 58.8442 33.9258 61.7844 32.5484V21.5291C59.161 18.9039 55.9764 17.9425 53.2863 20.0707Z" fill="#9DA1C0"/>
<path fill-rule="evenodd" clip-rule="evenodd" d="M33 23.5817V40.9695L41.7148 34.1257L33 23.5817Z" fill="#9DA1C0"/>
<path fill-rule="evenodd" clip-rule="evenodd" d="M48.8346 30.8524C47.9842 31.5384 46.9338 32.381 45.7444 33.3101L46.856 34.6821C48.5233 36.6699 50.8799 40.0837 53.8423 39.1763L53.959 39.3167L51.847 40.9804H61.7845V34.3526C56.6879 37.048 52.3083 34.5957 48.8346 30.8524Z" fill="#9DA1C0"/>
<path fill-rule="evenodd" clip-rule="evenodd" d="M44.0492 36.967L42.8876 35.5464C40.4866 37.4207 37.9522 39.3815 35.9013 40.948H47.0171C46.2668 39.4842 44.9607 38.0581 44.0492 36.967Z" fill="#9DA1C0"/>
<path fill-rule="evenodd" clip-rule="evenodd" d="M85.7558 24.6675C88.4014 24.2192 90.1354 21.9667 90.1354 19.1471C90.1354 15.3659 86.7673 12.9838 80.9927 12.9838H69.5712V13.1135C71.911 14.3504 71.8555 16.3544 71.8555 18.272V35.6328C71.8555 37.5882 71.911 39.6138 69.5712 40.8346V40.9588H75.0735C80.4424 40.9588 84.5553 41.0561 87.6344 39.6462C90.908 38.1554 92.8866 35.4816 92.8866 32.2082C92.8866 28.0435 89.6964 25.494 85.7558 24.6837V24.6675ZM76.3351 15.5766L79.9367 15.6414C82.6211 15.6414 85.3612 16.9108 85.3612 19.8439C85.3612 23.3279 82.9379 24.2624 79.4809 24.2624H76.3351V15.5766ZM79.8199 38.0906H76.3351V26.9146H80.0756C84.433 26.893 88.0623 28.4487 88.0623 32.5863C88.0623 36.724 84.2496 38.0906 79.8199 38.0906Z" fill="#9DA1C0"/>
<path fill-rule="evenodd" clip-rule="evenodd" d="M101.635 35.6382C101.635 38.0203 101.59 39.7164 103.908 41.0398V41.164H96.1711V41.0398C98.4888 39.7164 98.4499 38.0203 98.4499 35.6382V18.6393C98.4499 16.2626 98.4888 14.4044 96.1711 13.1296V13H102.596V13.0378C102.743 13.4345 102.966 13.8009 103.252 14.1181L103.869 14.9446L118.631 34.2554V18.4772C118.631 16.1005 118.67 14.4044 116.352 13.1296V13H124.055V13.1296C121.776 14.4044 121.776 16.1005 121.776 18.4772V42.5523C120.37 42.0121 116.458 38.8359 113.662 35.1953C108.66 28.6539 101.662 19.5738 101.662 19.5738L101.635 35.6382Z" fill="#9DA1C0"/>
<path fill-rule="evenodd" clip-rule="evenodd" d="M131.197 18.0667C131.197 16.1113 131.164 14.372 128.93 13.1296V13H137.984V13.1296C135.76 14.3396 135.721 16.1653 135.721 18.0667V35.9461C135.721 37.8529 135.671 39.7866 137.984 41.0344V41.164H128.93V41.0344C131.258 39.765 131.197 37.8691 131.197 35.9569V18.0667Z" fill="#9DA1C0"/>
<path fill-rule="evenodd" clip-rule="evenodd" d="M81.9483 49.7472L80.9868 51.1354C80.6402 50.9121 80.267 50.7307 79.8752 50.5953C79.5103 50.4554 79.1225 50.3804 78.7303 50.3738C78.2548 50.3461 77.7856 50.4904 77.4131 50.7789C77.2599 50.9024 77.1374 51.0578 77.0547 51.2336C76.9719 51.4094 76.9311 51.6011 76.9351 51.7944C76.9421 52.0889 77.0431 52.3739 77.2241 52.6101C77.462 52.9192 77.7383 53.1986 78.0467 53.4419C78.4024 53.7336 78.897 54.1171 79.5195 54.5925C80.3313 55.1805 81.0535 55.877 81.6649 56.6613C82.1255 57.2918 82.367 58.0488 82.354 58.8219C82.3446 59.4332 82.1514 60.0284 81.7982 60.5343C81.3828 61.1358 80.8063 61.6158 80.1309 61.9225C79.335 62.2977 78.4585 62.4829 77.5742 62.4626C77.0777 62.462 76.5824 62.4131 76.0958 62.3168C75.6075 62.2197 75.1321 62.0693 74.6786 61.8685C74.2517 61.6816 73.8593 61.428 73.517 61.1176L74.5229 59.5836C74.9452 59.8965 75.4019 60.1628 75.8846 60.3776C76.3434 60.5726 76.8402 60.6685 77.3408 60.6585C77.8897 60.6761 78.4279 60.5081 78.8637 60.1831C79.0729 60.0172 79.2386 59.8053 79.3468 59.5648C79.4551 59.3244 79.5028 59.0623 79.4862 58.8003C79.486 58.3476 79.325 57.9087 79.0304 57.558C78.69 57.1494 78.2957 56.7862 77.8577 56.4776L76.5294 55.527C75.9347 55.057 75.4789 54.6789 75.1621 54.3818C74.8376 54.0692 74.5724 53.7035 74.3784 53.3015C74.164 52.8459 74.0576 52.3493 74.0672 51.8484C74.0611 51.2548 74.2565 50.6758 74.623 50.201C75.0344 49.6848 75.5763 49.281 76.1959 49.0288C76.897 48.7325 77.6546 48.5834 78.419 48.5913C79.1145 48.584 79.8056 48.6993 80.4588 48.9316C81.0107 49.0942 81.5192 49.3727 81.9483 49.7472Z" fill="#9DA1C0"/>
<path fill-rule="evenodd" clip-rule="evenodd" d="M83.3325 52.9018L85.9503 52.4426C87.0952 55.3811 87.9456 57.7416 88.5013 59.5242H88.5403C88.9108 58.4438 89.3221 57.3023 89.7741 56.0995C90.2262 54.8968 90.7134 53.6778 91.2358 52.4426L93.459 52.8423L88.6181 63.4943C88.2233 64.39 87.6745 65.2138 86.9952 65.9305C86.6523 66.2885 86.234 66.5704 85.7688 66.7568C85.3036 66.9433 84.8024 67.0299 84.2996 67.0108H83.188V65.3093H83.8716C84.1621 65.3098 84.4509 65.2661 84.7275 65.1797C85.0272 65.0689 85.297 64.8934 85.5167 64.6665C85.8319 64.3386 86.0925 63.965 86.2893 63.5592C86.5994 62.9387 86.8596 62.2958 87.0674 61.6362L83.3325 52.9018Z" fill="#9DA1C0"/>
<path fill-rule="evenodd" clip-rule="evenodd" d="M100.195 56.6505L98.7332 57.1042C98.1766 57.2448 97.6719 57.535 97.2771 57.9414C96.9481 58.3256 96.776 58.8139 96.7935 59.3135C96.7784 59.6798 96.9054 60.0384 97.1492 60.3182C97.247 60.4432 97.3731 60.5447 97.5176 60.615C97.6621 60.6852 97.8213 60.7222 97.9829 60.7233C98.3638 60.7105 98.7286 60.5713 99.0167 60.329C99.4058 60.0128 99.7028 59.6031 99.8782 59.1406C100.117 58.5136 100.23 57.8481 100.212 57.1798C100.212 56.9584 100.212 56.7801 100.212 56.6397L100.195 56.6505ZM100.156 60.7989L99.5558 61.285C99.1416 61.6026 98.701 61.8862 98.2386 62.1331C97.8709 62.3309 97.4583 62.4367 97.0381 62.441C96.6652 62.4469 96.295 62.378 95.9507 62.2386C95.6065 62.0992 95.2955 61.8922 95.0372 61.6307C94.7625 61.3507 94.5481 61.02 94.4069 60.6582C94.2656 60.2964 94.2003 59.9108 94.2147 59.5241C94.2025 59.1201 94.2796 58.7182 94.4406 58.3455C94.6017 57.9728 94.843 57.6379 95.1484 57.3635C95.9336 56.7192 96.8651 56.2655 97.8662 56.0401L100.195 55.3703C100.153 55.096 100.038 54.8371 99.8615 54.6194C99.684 54.4032 99.4577 54.2294 99.2001 54.1117C98.9485 53.9947 98.6731 53.9338 98.3942 53.9334C97.4326 53.9357 96.506 54.284 95.7931 54.9111L94.9483 53.7066C95.4807 53.2597 96.0955 52.9151 96.7602 52.6911C97.3973 52.4903 98.0635 52.39 98.7332 52.394C99.7477 52.3627 100.748 52.6321 101.601 53.1664C102.387 53.685 102.778 54.6158 102.774 55.959V59.8698C102.742 60.6688 102.882 61.4654 103.185 62.2087H100.406C100.207 61.7653 100.121 61.2816 100.156 60.7989Z" fill="#9DA1C0"/>
<path fill-rule="evenodd" clip-rule="evenodd" d="M107.765 52.6317V54.3116H107.804L108.332 53.5662C108.567 53.2618 108.829 52.978 109.116 52.7181C109.366 52.5012 109.692 52.3853 110.027 52.394C110.369 52.4114 110.704 52.4982 111.009 52.6489C111.314 52.7997 111.584 53.0109 111.8 53.2691L110.816 55.0246C110.64 54.9265 110.453 54.8451 110.261 54.7815C110.046 54.7216 109.823 54.6924 109.599 54.6951C109.347 54.6972 109.099 54.7587 108.876 54.8744C108.653 54.9901 108.463 55.1566 108.321 55.3595C107.927 55.996 107.748 56.7365 107.81 57.4769V62.2088H105.17V52.6317H107.765Z" fill="#9DA1C0"/>
<path fill-rule="evenodd" clip-rule="evenodd" d="M112.895 52.6317H115.529V62.2087H112.895V52.6317ZM114.196 51.3677C113.911 51.3708 113.633 51.2918 113.395 51.1408C113.158 50.9953 112.966 50.7899 112.839 50.5466C112.708 50.3035 112.641 50.0325 112.645 49.758C112.643 49.5094 112.71 49.2649 112.839 49.0504C112.978 48.8299 113.168 48.6447 113.395 48.5102C113.625 48.3691 113.891 48.2942 114.162 48.2942C114.449 48.2909 114.732 48.3637 114.979 48.5048C115.22 48.6334 115.422 48.8193 115.568 49.045C115.709 49.2579 115.784 49.5052 115.785 49.758C115.791 50.1737 115.636 50.5765 115.352 50.8869C115.207 51.0471 115.026 51.1735 114.824 51.2567C114.622 51.3399 114.404 51.3778 114.184 51.3677H114.196Z" fill="#9DA1C0"/>
<path fill-rule="evenodd" clip-rule="evenodd" d="M123.533 56.6504L122.071 57.1042C121.516 57.2449 121.013 57.5352 120.62 57.9414C120.292 58.3256 120.119 58.8139 120.137 59.3134C120.123 59.6787 120.248 60.0363 120.487 60.3181C120.585 60.4432 120.711 60.5447 120.855 60.6149C121 60.6852 121.159 60.7222 121.321 60.7233C121.704 60.7117 122.071 60.5725 122.36 60.329C122.748 60.0125 123.043 59.6027 123.216 59.1406C123.459 58.5147 123.575 57.8486 123.555 57.1798C123.566 56.9999 123.566 56.8195 123.555 56.6396L123.533 56.6504ZM123.499 60.7989L122.899 61.285C122.484 61.6014 122.044 61.885 121.582 62.1331C121.212 62.3309 120.798 62.4367 120.376 62.441C120.004 62.4468 119.635 62.3778 119.291 62.2384C118.948 62.099 118.638 61.8921 118.381 61.6307C118.105 61.3514 117.89 61.0208 117.749 60.6589C117.607 60.2969 117.542 59.911 117.558 59.5241C117.546 59.12 117.623 58.7181 117.784 58.3455C117.945 57.9728 118.186 57.6379 118.492 57.3635C119.276 56.7202 120.205 56.2667 121.204 56.0401L123.533 55.3703C123.491 55.0969 123.378 54.8384 123.205 54.6194C123.028 54.4053 122.804 54.2325 122.549 54.1138C122.294 53.9951 122.015 53.9334 121.732 53.9334C120.772 53.9371 119.848 54.2853 119.137 54.9111L118.286 53.7066C118.82 53.261 119.434 52.9166 120.098 52.6911C120.735 52.4907 121.401 52.3904 122.071 52.394C123.087 52.3616 124.09 52.631 124.945 53.1664C125.723 53.7066 126.117 54.614 126.117 55.959V59.8698C126.083 60.6689 126.223 61.4661 126.529 62.2087H123.75C123.547 61.7662 123.461 61.2817 123.499 60.7989Z" fill="#9DA1C0"/>
<path fill-rule="evenodd" clip-rule="evenodd" d="M131.108 48.1321V53.7714C131.536 53.3203 132.062 52.9678 132.648 52.7397C133.229 52.5112 133.85 52.3938 134.476 52.394C134.998 52.3852 135.517 52.4637 136.01 52.6263C136.431 52.7647 136.812 52.9979 137.122 53.3069C137.431 53.6325 137.659 54.0223 137.789 54.4466C137.952 54.9719 138.028 55.5187 138.017 56.0671V62.2088H135.399V56.3318C135.432 55.7523 135.257 55.1797 134.904 54.7113C134.722 54.5082 134.493 54.3493 134.237 54.2471C133.98 54.1449 133.702 54.1022 133.426 54.1225C133.019 54.1161 132.617 54.2109 132.259 54.398C131.911 54.5847 131.627 54.8664 131.442 55.2083C131.23 55.6126 131.127 56.0621 131.142 56.5155V62.2088H128.507V48.1321H131.108Z" fill="#9DA1C0"/>
</g>
<defs>
<clipPath id="clip0">
<rect width="105" height="54" fill="white" transform="translate(33 13)"/>
</clipPath>
</defs>
</svg>
