<svg width="170" height="80" viewBox="0 0 170 80" fill="none" xmlns="http://www.w3.org/2000/svg">
<path fill-rule="evenodd" clip-rule="evenodd" d="M31.0127 26.4711C29.2411 26.5671 27.6348 27.6287 26.9761 29.1996C26.5321 30.2566 26.4622 30.7557 26.4622 32.062V42.2551C26.4622 44.4883 26.3992 46.8154 26.4642 49.0381C26.5235 51.0224 27.9148 52.4185 29.2036 53.0848C30.1591 53.5783 30.8866 53.5739 32.0846 53.5739H49.0601C51.0223 53.5783 52.4275 52.1107 53.0731 50.8447C53.5713 49.8707 53.5769 49.1802 53.5769 47.9556L53.5781 30.9805C53.5769 29.9481 53.1539 29.0839 52.6916 28.473C52.2299 27.8625 51.6453 27.3525 50.8141 26.9367C49.829 26.4456 49.1458 26.4633 47.9367 26.4633H34.3734C33.2896 26.4633 32.0742 26.4138 31.0127 26.4711ZM46.4793 29.12C49.2848 29.0733 51.0479 28.8543 51.0017 32.7692L50.9275 36.5545C50.8911 40.4989 50.9451 44.5546 50.9275 48.5255L42.4967 39.9673C42.5815 39.7198 43.3084 38.986 43.4918 38.8087L44.6482 37.7607C44.872 37.5416 45.0072 37.457 45.2133 37.2428C45.8391 36.5919 46.0415 36.5644 46.8403 35.5419C47.7088 34.4287 47.853 33.8823 47.857 32.145C47.8616 30.2656 46.7287 29.7921 46.4793 29.12ZM39.2544 29.1228C39.7563 29.0922 41.6112 29.0645 42.0261 29.1502C43.364 29.4256 44.8413 30.5316 44.8565 32.0196C44.868 33.1861 44.7185 33.4752 44.1614 34.1958C43.4471 35.1199 41.6015 36.9392 40.6182 37.7665C40.214 38.1068 38.4944 39.7307 38.5239 40.0087L45.103 46.7522C45.8505 47.5333 48.8777 50.4227 49.0352 50.8328L39.4478 50.8364C39.5326 50.6335 39.7398 50.3632 39.8717 50.1665C40.3765 49.405 40.634 48.6771 40.6447 47.7073C40.6685 45.6156 39.7927 44.6343 38.5319 43.3387L35.3862 40.0087C35.9501 39.3233 35.5876 39.6844 36.3702 38.8848C37.0597 38.1817 38.0464 37.4235 38.5948 36.8249C38.9193 36.4697 39.284 36.0864 39.5708 35.6367C40.197 34.6605 40.5751 33.7118 40.4467 32.226C40.2585 30.0645 39.3946 29.7528 39.2544 29.1228ZM31.4056 40.0502C31.6107 40.406 33.1989 42.0508 33.4919 42.3458L35.678 44.5705C36.4413 45.5436 36.9581 45.9746 36.9375 47.7073C36.9223 48.9318 35.9148 49.9806 35.2451 50.4069C34.5757 50.8328 34.3751 50.8364 33.4582 50.8364C32.7228 50.8364 31.9872 50.8389 31.2525 50.8364C30.5555 50.8347 30.0546 50.4974 29.7309 50.1423C29.2262 49.5867 29.1987 49.4108 29.1987 48.4547C29.1987 47.9969 29.1514 31.3681 29.2103 30.8581C29.2805 30.2644 29.7548 29.7953 30.1264 29.5632C30.6896 29.2125 31.0772 29.1177 31.8766 29.1177C33.4514 29.116 34.5165 28.9382 35.6741 29.7211C36.6593 30.3866 37.1994 31.3499 37.1977 32.6026C37.1954 34.0016 36.4316 34.8733 35.8143 35.6247C34.8736 36.7696 31.6519 39.3471 31.4056 40.0502Z" fill="#9DA1C0"/>
<path fill-rule="evenodd" clip-rule="evenodd" d="M83.3779 46.8054L86.7021 46.8129L86.6761 37.755C86.834 37.8953 88.9144 42.0966 89.0013 42.2722L91.3165 46.8168L95.7797 46.8129L95.7952 33.2666C95.4306 33.2349 92.772 33.2211 92.5331 33.2802L92.4645 42.1705C92.3522 42.0563 90.0248 37.2956 89.7073 36.618L88.035 33.2586L83.3927 33.2547L83.3779 46.8054Z" fill="#9DA1C0"/>
<path fill-rule="evenodd" clip-rule="evenodd" d="M113.936 46.8225C114.434 46.8755 118.207 46.83 119.041 46.83C121.818 46.8339 125.355 46.1853 124.915 42.5584C124.791 41.5213 124.263 40.6849 123.421 40.2178C123.019 39.9938 122.797 40.064 122.411 39.9425C122.391 39.6642 122.536 39.8449 123.149 39.4743C125.212 38.2267 124.995 35.0762 123.038 33.9046C121.755 33.1355 120.461 33.2757 118.79 33.2757C118.149 33.2757 114.219 33.2313 113.941 33.2985L113.936 46.8225ZM117.562 38.6299L117.552 35.8453C118.169 35.8108 119.311 35.805 119.846 35.9311C120.502 36.0861 120.991 36.4587 120.977 37.2379C120.953 38.6732 118.536 38.7543 117.562 38.6299ZM117.557 44.2555L117.552 41.0341C118.132 40.9471 119.534 41.055 120.066 41.2034C120.78 41.4027 121.364 41.7617 121.322 42.6443C121.283 43.4973 120.794 43.9016 120.08 44.1049C119.552 44.2545 118.134 44.3275 117.557 44.2555Z" fill="#9DA1C0"/>
<path fill-rule="evenodd" clip-rule="evenodd" d="M57.616 46.8239C60.6492 46.7081 66.9963 47.5498 68.2813 44.6624C68.5723 44.0119 68.6065 43.1392 68.5427 42.3435C68.445 41.1228 67.3347 40.1034 66.1397 39.9652C65.8967 39.9364 65.9692 39.9877 65.9127 39.8485C65.9876 39.7282 65.887 39.803 66.1149 39.744C66.2006 39.7224 66.2409 39.7166 66.3386 39.6841C66.5054 39.6259 66.6207 39.5645 66.7587 39.4808C67.4183 39.0787 68.1836 38.2167 68.1935 37.3124C68.2104 35.862 68.2212 34.8004 66.7203 33.9314C65.3982 33.1671 64.204 33.2658 62.5089 33.2658C60.8919 33.2658 59.2311 33.3032 57.6189 33.2618L57.616 46.8239ZM61.2497 35.8443C61.6945 35.7672 63.074 35.8363 63.5108 35.9359C64.2503 36.1026 64.5885 36.3856 64.5814 37.2279C64.5756 38.0087 64.0798 38.2808 63.4189 38.4739C62.9812 38.6005 61.6972 38.7147 61.2407 38.6141L61.2497 35.8443ZM61.24 41.116C61.6411 41.036 63.3038 41.0979 63.7071 41.1847C64.4405 41.3433 64.9273 41.7282 64.9285 42.5535C64.9295 43.3532 64.8103 43.6804 63.9792 43.9831C63.2664 44.2426 62.0622 44.3097 61.2407 44.2375V41.4716L61.24 41.116Z" fill="#9DA1C0"/>
<path fill-rule="evenodd" clip-rule="evenodd" d="M125.751 46.8054L129.369 46.809L129.372 41.4686C130.067 41.3423 130.94 41.4871 131.36 41.8228C132.165 42.4703 132.486 43.9367 132.871 45.0085C132.973 45.2987 133.068 45.5862 133.156 45.8893C133.228 46.1263 133.344 46.6432 133.435 46.8129H137.103C137.142 46.3436 135.571 42.2722 135.217 41.3777C134.797 40.3071 134.352 40.4995 134.076 40.0348C135.192 39.9043 136.385 38.6741 136.491 37.5115C136.663 35.6743 136.268 34.6212 135.065 33.9545C133.772 33.2399 132.417 33.2586 130.761 33.2586C129.108 33.2586 127.398 33.2142 125.755 33.2604L125.751 46.8054ZM129.376 35.8282C130.81 35.8105 133.383 35.6873 132.845 37.8081C132.549 38.9717 130.663 38.9087 129.378 38.883L129.374 36.1392L129.376 35.8282Z" fill="#9DA1C0"/>
<path fill-rule="evenodd" clip-rule="evenodd" d="M97.0582 46.7946L100.679 46.812V40.6954C101.148 40.9194 104.308 46.174 104.909 46.7136C105.085 46.8713 105.431 46.8159 105.743 46.8159C106.353 46.8159 109.104 46.8473 109.461 46.8084C109.439 46.4138 107.352 43.7772 107.045 43.3707C106.187 42.2337 105.288 41.1755 104.453 40.0111C104.114 39.5358 104.15 39.5864 104.51 39.1099L107.808 34.9615C108.051 34.6678 108.983 33.5236 109.108 33.2713L104.836 33.2929C104.639 33.3235 103.813 34.5276 103.665 34.7287C103.179 35.3892 102.678 36.0481 102.181 36.6979C101.984 36.9552 100.805 38.5794 100.679 38.6396V33.2645L97.0582 33.2616V46.7946Z" fill="#9DA1C0"/>
<path fill-rule="evenodd" clip-rule="evenodd" d="M68.1868 46.8084C69.0677 46.8473 70.4244 46.8159 71.3621 46.8159C71.8023 46.8159 71.7902 46.7017 71.9687 46.3586C72.38 45.5666 72.5979 44.8082 72.8602 43.9285C73.3688 43.8658 76.6605 43.9051 77.4364 43.9062C77.7893 43.9068 77.8832 43.8658 78.0428 44.1476C78.2401 44.4968 78.5189 45.6111 78.6711 46.0547C78.9687 46.9261 79.0909 46.8062 79.6008 46.804L82.9257 46.7946L77.7823 33.2635L73.3938 33.2616C72.7553 34.2999 72.4754 35.4643 72.0158 36.5904C71.1679 38.668 70.2836 41.2663 69.4345 43.4081C69.1819 44.0443 68.2128 46.2349 68.1868 46.8084ZM75.5225 36.0974C75.6615 36.1941 76.5793 39.5625 76.7049 39.9942C76.8072 40.3456 77.0445 41.0181 77.0743 41.3453L73.7455 41.3465L74.6041 38.7145C74.755 38.2705 74.8796 37.8528 75.0341 37.4008C75.1122 37.1703 75.1844 36.9424 75.2511 36.7432C75.323 36.5264 75.3754 36.1871 75.5225 36.0974Z" fill="#9DA1C0"/>
<path fill-rule="evenodd" clip-rule="evenodd" d="M141.805 46.8159V33.2616H138.19L138.188 46.8138L141.805 46.8159Z" fill="#9DA1C0"/>
</svg>
