<svg width="170" height="80" viewBox="0 0 170 80" fill="none" xmlns="http://www.w3.org/2000/svg">
<g clip-path="url(#clip0)">
<path fill-rule="evenodd" clip-rule="evenodd" d="M33.5456 40.0701C33.6601 40.2181 33.7845 40.3575 33.9179 40.4873L37.0403 43.9993C38.2413 45.5498 40.7813 47.1688 38.3974 49.9585C38.1374 50.2475 37.8497 50.5083 37.5387 50.7368C37.2034 51.0037 36.8224 51.2023 36.4158 51.3222H32.9871C32.5749 51.2375 32.2084 50.9952 31.9603 50.6434C31.6691 50.2847 31.5115 49.8296 31.516 49.3607V30.9227C31.516 29.9326 32.4347 29.6151 33.4075 29.6151H37.6108C38.8537 29.6151 39.7725 30.8605 39.9346 32.0685C40.1207 33.4446 39.19 34.3974 38.3614 35.2567C37.5327 36.116 36.8181 36.9255 36.0135 37.6914L35.413 38.2767C34.8345 38.9131 34.2189 39.512 33.5696 40.0701H33.5456ZM48.5574 29.6151C49.4522 29.5741 50.3486 29.5908 51.2415 29.6649C52.1362 29.8143 52.4784 30.2315 52.4784 31.2839V48.6321L48.4373 44.4041L47.9449 43.8997L47.3444 43.2272L47.2123 43.0715L44.4381 40.0701L47.6446 36.7823C47.8008 36.6079 47.8248 36.527 47.9929 36.3464C49.38 34.8582 50.9112 33.0088 49.6382 30.9041L48.8756 29.9513C48.7587 29.8549 48.6555 29.7417 48.5694 29.6151H48.5574ZM41.6279 29.6151C41.784 29.8579 41.9702 29.9762 42.1623 30.2378C43.4173 31.9128 43.5314 33.3512 42.2764 35.0948C41.8621 35.6739 37.947 39.8397 37.4727 40.1511C37.8089 40.6679 39.9046 42.7788 40.475 43.4451L40.6371 43.6444L40.6672 43.6817L41.2196 44.3044C42.6727 45.7989 43.4053 48.2461 41.9822 50.0706C41.5483 50.6172 41.0236 51.0791 40.433 51.4343C41.784 51.316 43.039 51.3658 44.4201 51.3658C46.0354 51.3658 48.9357 51.2973 50.4248 51.3658C50.7731 51.3658 51.0854 51.5028 50.7971 51.1291L48.7915 49.0556C47.9809 48.1029 47.2063 47.4179 46.5878 46.6956L46.0894 46.1227C45.9994 46.0168 45.9513 45.967 45.8492 45.8612L40.481 40.1137C40.7873 40.0265 43.0691 37.5606 43.4834 37.0936L43.6875 36.8695L45.6091 34.8644C47.5065 32.9216 47.1703 31.5641 45.2668 30.107C44.5882 29.5839 44.7083 29.6587 43.5975 29.6587L41.6279 29.6151ZM29.018 30.2378V50.7057C29.0939 51.581 29.4814 52.3957 30.1049 52.991C30.7398 53.6104 31.5751 53.9613 32.4467 53.9749H51.4697C52.3711 53.9635 53.2347 53.5967 53.8849 52.9491C54.5351 52.3014 54.9232 51.4214 54.9704 50.4878V30.4868C54.9387 29.8347 54.7408 29.203 54.3969 28.6561C54.053 28.1091 53.5755 27.6665 53.0129 27.3734C52.5946 27.1663 52.1422 27.0438 51.6798 27.0122H32.3566C30.5913 26.9998 29 28.6873 29 30.3L29.018 30.2378Z" fill="#9DA1C0"/>
<path fill-rule="evenodd" clip-rule="evenodd" d="M62.3862 43.9124C62.4878 43.0698 62.5119 42.2191 62.4582 41.3718C63.5751 41.3718 64.8601 41.1788 65.4185 41.7143C65.621 41.9574 65.7323 42.2679 65.7323 42.5892C65.7323 42.9104 65.621 43.2209 65.4185 43.4641C65.2078 43.6965 64.9207 43.8387 64.6139 43.8626C63.8639 43.9431 63.1088 43.9597 62.3561 43.9124H62.3862ZM63.7853 38.8312H62.4582V36.4401C63.3709 36.4401 65.2564 36.1723 65.2564 37.3118C65.2564 37.7975 65.3345 38.3704 64.794 38.6444C64.4713 38.7688 64.1296 38.8321 63.7853 38.8312ZM58.8854 46.7456C60.4406 46.7456 64.2176 46.8266 65.5386 46.6709C67.0098 46.5028 68.1327 46.3035 68.8292 44.8589C69.1452 44.2365 69.2915 43.5365 69.2524 42.8342C69.2132 42.132 68.9901 41.4541 68.607 40.8736C68.2032 40.3535 67.6393 39.993 67.0098 39.8524C67.1059 39.759 67.0098 39.8524 67.1719 39.7341C67.3901 39.615 67.592 39.4663 67.7724 39.292L67.9165 39.155C68.1944 38.8227 68.4061 38.4367 68.5397 38.0193C68.6732 37.6018 68.7259 37.1611 68.6946 36.7225C68.6634 36.2839 68.5489 35.856 68.3576 35.4634C68.1664 35.0708 67.9022 34.7213 67.5802 34.435C66.9834 33.972 66.2537 33.7308 65.5086 33.75H58.8854V46.7456Z" fill="#9DA1C0"/>
<path fill-rule="evenodd" clip-rule="evenodd" d="M75.1584 38.9806H73.9575V36.3653C74.594 36.6829 76.0651 36.1474 76.7016 36.714C77.0319 37.0129 77.7525 38.9806 75.1464 38.9806H75.1584ZM70.4687 46.7456H73.9575V41.4465C74.2517 41.5959 74.4859 41.4465 74.8342 41.6208C75.4346 41.9135 75.7529 43.0032 76.1132 43.7131C76.3714 44.2299 76.5996 44.7156 76.8217 45.2262C77.0439 45.7368 77.2721 46.2537 77.5243 46.7456H81.4454L80.4366 44.3794C80.3585 44.2299 80.3165 44.1427 80.2504 43.9933C79.9142 43.1962 79.0495 41.1725 78.0167 41.0853V40.9421C78.6879 40.8033 79.2947 40.4349 79.74 39.896C79.955 39.6213 80.1328 39.3176 80.2684 38.9931C80.5688 38.2474 80.6498 37.4262 80.5013 36.6329C80.3528 35.8396 79.9814 35.1095 79.4338 34.5346C78.6112 33.9423 77.6156 33.6649 76.6176 33.75H70.4387L70.4687 46.7456Z" fill="#9DA1C0"/>
<path fill-rule="evenodd" clip-rule="evenodd" d="M133.158 46.7456H135.398V41.2285C135.398 39.6531 137.373 38.8498 138.286 39.9022C138.549 40.2653 138.71 40.6959 138.754 41.1476V46.7518H140.994V40.7989C141.024 40.2335 140.904 39.6704 140.648 39.1702C140.392 38.6701 140.009 38.2517 139.541 37.9603C139.073 37.6689 138.537 37.5154 137.991 37.5163C137.445 37.5173 136.91 37.6726 136.442 37.9656C136.042 38.2125 135.687 38.5333 135.398 38.9121V33.613H133.158V46.7456Z" fill="#9DA1C0"/>
<path fill-rule="evenodd" clip-rule="evenodd" d="M97.808 46.3845C97.808 46.7643 97.808 46.59 97.6339 46.9325C97.5591 47.0689 97.4727 47.1981 97.3757 47.3185L96.9914 47.7918C96.4923 48.3044 95.8705 48.6698 95.19 48.8504C95.2032 49.0088 95.2396 49.1642 95.2981 49.3112L95.6764 50.8119C97.2016 50.7745 98.5766 49.1991 99.2792 48.0658C100.017 46.5962 100.655 45.0753 101.189 43.5139L102.87 38.7254C103.004 38.4105 103.108 38.0831 103.182 37.7477H100.78L99.4293 42.6546C99.3452 42.9472 99.2672 43.159 99.2011 43.4392L99.045 44.0619C98.8889 44.504 99.1711 43.7505 99.003 44.1677L98.9609 44.2673C98.5482 42.6016 98.0511 40.9596 97.4718 39.3481L96.9313 37.7353H94.4814L97.3697 45.2637C97.5568 45.6186 97.7038 45.9947 97.808 46.3845Z" fill="#9DA1C0"/>
<path d="M85.4925 33.75H81.9917V46.7456H85.4925V33.75Z" fill="#9DA1C0"/>
<path fill-rule="evenodd" clip-rule="evenodd" d="M125.736 44.0618C125.74 43.8061 125.809 43.5561 125.937 43.3373C126.065 43.1185 126.246 42.9387 126.463 42.8164C127.155 42.4845 127.919 42.3491 128.678 42.4241C128.678 43.6695 128.846 44.0991 128.204 44.7654C127.267 45.7368 125.736 45.3321 125.736 44.0929V44.0618ZM124.199 38.3953C124.199 38.4824 124.571 39.7403 124.619 39.8461C125.343 39.3968 126.179 39.1801 127.021 39.2235C128.108 39.2235 128.702 39.7776 128.702 40.8923C127.399 40.787 126.093 41.0677 124.937 41.7018C122.68 43.1091 123.31 46.9884 126.318 46.9884C127.922 46.9884 128.516 46.0295 128.912 45.7431C128.912 46.9884 128.828 46.758 131.008 46.758C131.008 46.2474 130.942 45.8365 130.942 45.2324C130.942 43.464 131.128 40.5498 130.498 39.2297C129.423 36.9818 125.982 37.3616 124.493 38.1773C124.355 38.2209 124.199 38.277 124.199 38.3953Z" fill="#9DA1C0"/>
<path fill-rule="evenodd" clip-rule="evenodd" d="M105.926 44.0618C105.926 42.7728 107.127 42.393 108.376 42.393H108.869V43.4827C108.869 45.5625 105.926 45.9361 105.926 44.0618ZM104.317 38.3268C104.484 38.827 104.625 39.3363 104.738 39.8524C105.969 39.1737 108.797 38.4202 108.797 40.8674C107.988 40.819 107.178 40.9031 106.395 41.1165C105.927 41.241 105.482 41.4406 105.074 41.708C104.678 41.9389 104.35 42.2768 104.125 42.6857C102.294 45.9797 106.593 48.6324 109.025 45.7306C109.048 46.0719 109.094 46.411 109.163 46.7456H111.187C111.187 46.2911 111.049 45.8116 111.049 45.2948C111.049 44.1926 111.115 41.1725 111 40.4813C110.394 36.7763 106.473 37.1499 104.317 38.3268Z" fill="#9DA1C0"/>
<path fill-rule="evenodd" clip-rule="evenodd" d="M87.7983 40.3568C87.7983 42.6234 90.6866 42.9721 91.3171 43.5325C92.2598 44.3669 91.197 46.0233 88.5789 44.8526C88.4047 44.7424 88.2106 44.6703 88.0085 44.6409C87.9128 44.8969 87.8404 45.1617 87.7923 45.4317C87.6892 45.7144 87.6206 46.0094 87.5882 46.3097C88.3027 46.4841 88.5609 46.8888 90.2483 46.8888C91.1071 46.9462 91.9623 46.7289 92.6982 46.2661C94.1513 45.2698 94.3795 42.9409 92.3079 41.7329C92.1141 41.6182 91.9135 41.5163 91.7074 41.4278C91.4432 41.3157 91.233 41.2721 90.9868 41.16C90.5785 40.9732 89.9841 40.7304 89.9841 40.1637C89.9681 40.0204 89.9925 39.8753 90.0543 39.746C90.1161 39.6167 90.2126 39.5088 90.3323 39.4352C90.9328 39.0615 92.0557 39.267 92.6201 39.5348C92.7587 39.6207 92.9083 39.6857 93.0645 39.7278C93.1713 39.1631 93.3117 38.6058 93.4848 38.059C92.7042 37.8722 92.5721 37.5546 91.173 37.5546C89.3596 37.5297 87.7983 38.5821 87.7983 40.3568Z" fill="#9DA1C0"/>
<path fill-rule="evenodd" clip-rule="evenodd" d="M115.24 39.4166L115.168 37.7477H113.276V46.7457H115.516V42.1751C115.516 40.8674 116.153 39.6843 117.546 39.6843C117.9 39.6843 117.858 39.7528 118.146 39.759V37.7726C118.146 37.2371 116.183 37.5236 115.42 39.0741L115.24 39.4166Z" fill="#9DA1C0"/>
<path fill-rule="evenodd" clip-rule="evenodd" d="M119.737 46.5526H121.749C121.749 45.4691 121.839 38.2707 121.701 37.8971C121.068 37.7832 120.424 37.7581 119.785 37.8224C119.659 38.3953 119.737 45.3694 119.737 46.5526Z" fill="#9DA1C0"/>
<path fill-rule="evenodd" clip-rule="evenodd" d="M119.509 35.0577V35.4936C119.509 36.739 121.959 37.069 121.959 35.2071C121.95 34.8928 121.827 34.5936 121.614 34.3695C121.402 34.1455 121.115 34.0131 120.812 33.9991C120.505 33.9686 120.199 34.0614 119.957 34.2584C119.714 34.4555 119.554 34.7416 119.509 35.0577Z" fill="#9DA1C0"/>
<path fill-rule="evenodd" clip-rule="evenodd" d="M119.737 46.5526C119.737 45.3694 119.659 38.3704 119.785 37.8349C120.424 37.7705 121.068 37.7956 121.701 37.9096C121.839 38.2832 121.749 45.4815 121.749 46.565L119.737 46.5526ZM119.575 46.7456H121.815V37.7726H119.593L119.575 46.7456Z" fill="#9DA1C0"/>
</g>
<defs>
<clipPath id="clip0">
<rect width="112" height="27" fill="white" transform="translate(29 27)"/>
</clipPath>
</defs>
</svg>
