<svg width="170" height="80" viewBox="0 0 170 80" fill="none" xmlns="http://www.w3.org/2000/svg">
<g clip-path="url(#clip0)">
<path fill-rule="evenodd" clip-rule="evenodd" d="M106.72 48.2074C106.72 49.8743 106.871 51.3179 108.379 51.3179H109.362V52.6856H99.7768V51.3179H100.68C102.192 51.3179 102.343 49.8933 102.343 48.2074V39.0327C102.343 37.3658 102.192 35.9222 100.68 35.9222H99.7768V34.4975H106.72V37.608C107.123 36.7298 107.715 35.9528 108.454 35.3333C110.265 34.7255 111.763 35.1054 112.68 36.5443C110.789 35.4045 108.681 36.4683 107.552 38.4438C106.951 39.6162 106.664 40.9254 106.72 42.2429V48.2312V48.2074ZM87.0205 58.4507C87.0205 60.1175 87.1717 61.6324 88.6842 61.6324H89.5869V62.9953H80.0019V61.6324H80.985C82.4927 61.6324 82.6439 60.1175 82.6439 58.4507V39.0327C82.6439 37.3658 82.4927 35.9222 80.985 35.9222H80.0019V34.4975H87.0205V36.5158C88.3178 35.2485 90.0421 34.5179 91.8508 34.469C95.854 34.393 98.9403 37.0476 99.0206 43.1879C99.0962 47.6661 97.6642 50.012 96.1517 51.4556C94.0391 53.5024 91.019 53.5024 88.8307 52.8185V51.3939C91.3262 52.4576 94.266 51.2467 94.266 43.886C94.266 41.4593 94.0391 39.4885 93.5097 38.1874C92.6826 36.0599 90.6456 35.3048 88.9063 36.8957C87.7767 37.8834 87.0158 39.6263 87.0158 41.749V58.4364L87.0205 58.4507ZM78.7967 34.4833H75.3985V29.478H73.5079L73.2764 30.9027C73.0542 32.7215 71.0928 34.4643 69.2779 34.4643H68.3043V35.8889H70.7194V47.1912C70.7194 50.8288 72.9833 53.7113 79.8507 52.8898V51.2372C75.6253 52.904 75.3985 49.2617 75.3985 47.2149V35.9127H78.7967V34.488V34.4833ZM56.7531 36.3828V34.8679C58.7949 33.7282 62.4247 33.8849 64.7548 35.699C66.565 37.1236 67.8505 39.498 67.7749 43.8907C67.7826 45.0846 67.5529 46.268 67.0993 47.3715C66.6457 48.4749 65.9773 49.4763 65.1334 50.3167C64.2894 51.1572 63.2869 51.8198 62.1847 52.2657C61.0824 52.7116 59.9027 52.9319 58.7146 52.9135C52.6791 52.7616 50.5664 48.8913 50.5664 45.2489V31.3775C50.5664 29.7059 50.4152 28.2623 48.9075 28.2623H48V26.8376H54.943V45.2631C54.943 48.4544 55.6236 50.5723 57.2069 51.4081C58.8705 52.2439 60.9076 51.1802 61.8859 49.5086C62.6421 48.084 63.0959 46.0942 63.1715 43.6675C63.1715 36.3781 59.8536 34.4073 56.7531 36.3781V36.3828Z" fill="#9DA1C0"/>
<path fill-rule="evenodd" clip-rule="evenodd" d="M113.649 41.2313C113.649 39.1086 113.351 37.5937 112.666 36.53C111.763 35.1053 110.25 34.7112 108.44 35.319C109.882 34.4169 111.58 34.0165 113.271 34.1793C116.064 34.4072 118.252 36.302 118.252 41.2313V48.2074C118.252 49.8742 118.403 51.3179 119.911 51.3179H120.894V52.6855H111.101V51.3179H112.004C113.512 51.3179 113.663 49.8932 113.663 48.2074V41.2313H113.649ZM121.272 32.4365C122.326 30.6177 122.18 28.6374 121.045 27.9631C119.84 27.2792 118.025 28.1103 117.047 29.9338C115.988 31.6767 116.139 33.6474 117.274 34.4072C118.493 35.0911 120.303 34.1793 121.286 32.4365H121.272Z" fill="#9DA1C0"/>
<path fill-rule="evenodd" clip-rule="evenodd" d="M80.0916 17.9952H81.0368V22.8058C81.2343 22.4325 81.512 22.1081 81.8497 21.856C82.2985 21.5195 82.8503 21.3514 83.4094 21.3811C83.856 21.3487 84.3036 21.4291 84.7114 21.6148C85.1192 21.8006 85.4742 22.086 85.7442 22.4448C86.2918 23.302 86.5579 24.3102 86.5052 25.3274C86.5519 26.3389 86.2717 27.3384 85.7064 28.1767C85.4418 28.5353 85.0922 28.8217 84.6894 29.0099C84.2866 29.1982 83.8434 29.2823 83.4 29.2547C82.9148 29.2852 82.4314 29.1706 82.0109 28.9256C81.5904 28.6805 81.2514 28.3158 81.0368 27.8775V29.079H80.0916V17.9952ZM83.2393 22.1599C82.8979 22.1409 82.5583 22.2202 82.2602 22.3884C81.9622 22.5567 81.7181 22.8069 81.5567 23.1097C81.1947 23.7824 81.0154 24.5391 81.0368 25.3036C81.0152 26.0678 81.198 26.8238 81.5662 27.4929C81.7424 27.7818 81.9886 28.0213 82.2817 28.189C82.5749 28.3566 82.9055 28.4471 83.2428 28.4518C83.5801 28.4565 83.9131 28.3755 84.2108 28.2161C84.5085 28.0567 84.7612 27.8243 84.9455 27.5403C85.2798 26.8459 85.4535 26.0845 85.4535 25.3131C85.4535 24.5417 85.2798 23.7803 84.9455 23.0859C84.7785 22.7846 84.529 22.5377 84.2266 22.3744C83.9242 22.2111 83.5816 22.1383 83.2393 22.1647V22.1599Z" fill="#9DA1C0"/>
<path fill-rule="evenodd" clip-rule="evenodd" d="M92.6919 27.8776C92.4716 28.3119 92.1211 28.6657 91.6899 28.8891C91.2554 29.1288 90.7677 29.2545 90.272 29.2547C89.3268 29.2547 88.6793 29.0268 88.3295 28.5709C87.9925 28.1722 87.8023 27.6692 87.7907 27.1463C87.7907 26.0319 88.2224 25.3116 89.0857 24.9855C90.1615 24.6311 91.2911 24.4703 92.4225 24.5107H92.5974V24.126C92.6383 23.6099 92.4978 23.0957 92.2004 22.6729C92.03 22.5023 91.8244 22.3715 91.5982 22.2894C91.372 22.2074 91.1307 22.1761 90.8912 22.198C90.1102 22.1865 89.3424 22.4008 88.6793 22.8153V21.8703C89.0211 21.7101 89.3793 21.5874 89.7474 21.5046C90.1219 21.4122 90.5056 21.3629 90.8912 21.3574C91.2542 21.3232 91.6204 21.3645 91.9669 21.4789C92.3133 21.5933 92.6325 21.7783 92.9046 22.0223C93.3205 22.4687 93.5237 23.1857 93.5237 24.1687V27.4929C93.5237 27.7684 93.5237 28.0248 93.5237 28.2622C93.532 28.5339 93.5541 28.8049 93.5899 29.0743H92.6872V27.8776H92.6919ZM92.5927 25.28H92.328C90.9621 25.28 90.0404 25.4367 89.5442 25.7549C89.3146 25.8924 89.1256 26.0891 88.9969 26.3245C88.8681 26.5599 88.8041 26.8255 88.8116 27.094C88.7966 27.2866 88.8274 27.48 88.9014 27.6584C88.9753 27.8367 89.0903 27.9948 89.237 28.1198C89.5682 28.3529 89.9674 28.4683 90.3713 28.4474C90.6774 28.4691 90.9844 28.4224 91.2704 28.3107C91.5564 28.1991 91.8143 28.0252 92.0255 27.8016C92.4533 27.2046 92.6545 26.4736 92.5927 25.7406V25.28Z" fill="#9DA1C0"/>
<path fill-rule="evenodd" clip-rule="evenodd" d="M95.6887 23.3046L95.6414 21.5285H96.5205V22.8772C96.7321 22.4552 97.0339 22.0855 97.4043 21.7944C97.873 21.4778 98.434 21.329 98.9971 21.3718C99.3585 21.3423 99.7217 21.3977 100.058 21.5337C100.394 21.6697 100.695 21.8825 100.935 22.1554C101.379 22.7687 101.601 23.516 101.563 24.2733V29.0792H100.618V24.5013C100.656 23.8925 100.509 23.2866 100.198 22.7632C100.038 22.5576 99.8301 22.3952 99.5925 22.2907C99.3548 22.1862 99.0949 22.143 98.8364 22.1649C98.5075 22.1436 98.1787 22.209 97.8827 22.3548C97.5868 22.5006 97.3338 22.7216 97.1491 22.9959C96.7877 23.5622 96.6003 24.2228 96.6103 24.8954V29.0602H95.6651L95.6887 23.3046Z" fill="#9DA1C0"/>
<path fill-rule="evenodd" clip-rule="evenodd" d="M103.884 18H104.81V24.6246L108.152 21.5426H109.352L105.689 24.8811L109.792 29.0838H108.525L104.81 25.2087V29.0838H103.884V18Z" fill="#9DA1C0"/>
</g>
<defs>
<clipPath id="clip0">
<rect width="74" height="45" fill="white" transform="translate(48 18)"/>
</clipPath>
</defs>
</svg>
