<svg width="170" height="80" viewBox="0 0 170 80" fill="none" xmlns="http://www.w3.org/2000/svg">
<path d="M60.6325 46.1849C59.7799 46.5822 58.8572 46.7775 57.9275 46.7576C57.0481 46.7672 56.1749 46.6007 55.3528 46.2667C54.587 45.9601 53.8887 45.4874 53.3019 44.8783C52.715 44.2692 52.2522 43.5369 51.9425 42.7273C51.6063 41.8498 51.4387 40.9089 51.4496 39.9606C51.4369 39.0005 51.6075 38.0477 51.951 37.1606C52.2663 36.3509 52.7384 35.6217 53.3361 35.0212C53.9365 34.4257 54.6425 33.9651 55.4122 33.6667C57.0519 33.0302 58.8484 33.0302 60.488 33.6667C61.2549 33.9487 61.9427 34.4334 62.4877 35.0758L60.505 37.197C60.2333 36.7977 59.8624 36.488 59.4343 36.303C59.0033 36.107 58.5403 36.004 58.0719 36C57.5851 35.9928 57.1025 36.0961 56.6557 36.303C56.2415 36.4975 55.8685 36.7799 55.5595 37.1333C55.248 37.4947 55.0055 37.9178 54.8458 38.3788C54.6708 38.8818 54.5835 39.4148 54.588 39.9515C54.5831 40.4981 54.6704 41.0411 54.8458 41.5546C55.002 42.0153 55.2417 42.4385 55.551 42.8C55.8539 43.1475 56.2216 43.4231 56.6302 43.6091C57.0646 43.8107 57.5333 43.9138 58.0068 43.9121C58.5321 43.9256 59.0525 43.8007 59.5221 43.5485C59.9323 43.3248 60.2874 43.0009 60.5588 42.603L62.584 44.6424C62.0437 45.2995 61.3783 45.8254 60.6325 46.1849Z" fill="#9DA1C0"/>
<path d="M63.6718 46.4121V33.5303H66.5977V46.4121H63.6718Z" fill="#9DA1C0"/>
<path d="M79.7999 46.4121L79.8678 37.2969H79.8169L76.7011 46.4121H74.6589L71.6027 37.2969H71.5517L71.6197 46.4121H68.8807V33.5303H73.019L75.7608 41.7909H75.8288L78.4516 33.5303H82.6493V46.4121H79.7999Z" fill="#9DA1C0"/>
<path d="M94.3245 42.6636C94.3436 43.2821 94.2087 43.895 93.9336 44.4394C93.6809 44.9086 93.325 45.3049 92.897 45.5939C92.4445 45.8944 91.9458 46.1068 91.4241 46.2212C90.8656 46.3498 90.2958 46.4138 89.7246 46.4121H84.9377V33.5303H89.7303C90.2059 33.5327 90.6802 33.5845 91.1465 33.6848C91.6138 33.7798 92.0628 33.958 92.4749 34.2121C92.8699 34.4589 93.2025 34.8053 93.4436 35.2212C93.7093 35.7128 93.8389 36.275 93.8175 36.8424C93.8406 37.4839 93.6477 38.113 93.2737 38.6151C92.9012 39.0891 92.4098 39.4393 91.8574 39.6242V39.6606C92.1929 39.7199 92.5177 39.8344 92.8205 40C93.4141 40.3184 93.8792 40.8569 94.1291 41.5151C94.2641 41.8805 94.3305 42.2708 94.3245 42.6636ZM91.0247 37.2727C91.0363 37.0826 90.9989 36.8927 90.9164 36.7239C90.834 36.555 90.7098 36.4136 90.5573 36.3151C90.1284 36.0862 89.6508 35.9817 89.1723 36.0121H87.7475V38.6697H89.3139C89.7614 38.6958 90.2049 38.5684 90.58 38.306C90.7275 38.1859 90.8452 38.0288 90.9227 37.8486C91.0002 37.6685 91.0353 37.4707 91.0247 37.2727ZM91.4297 42.3727C91.4486 42.1486 91.4048 41.9236 91.3039 41.7261C91.2031 41.5287 91.0497 41.3677 90.8632 41.2636C90.3938 41.0386 89.8815 40.9348 89.3677 40.9606H87.7475V43.906H89.3819C89.6182 43.9052 89.854 43.8839 90.0872 43.8424C90.3179 43.8044 90.5416 43.7277 90.75 43.6151C90.9658 43.5037 91.1457 43.326 91.2668 43.1047C91.3878 42.8834 91.4446 42.6286 91.4297 42.3727Z" fill="#9DA1C0"/>
<path d="M100.494 33.5303H104.082C104.545 33.5313 105.006 33.5831 105.459 33.6848C105.902 33.7786 106.326 33.9572 106.711 34.2121C107.083 34.4652 107.392 34.8116 107.611 35.2212C107.859 35.7128 107.979 36.2662 107.96 36.8242C107.971 37.4705 107.765 38.0996 107.379 38.5969C106.98 39.1072 106.431 39.4567 105.821 39.5878V39.6242C106.553 39.7015 107.237 40.0486 107.756 40.606C108.02 40.9048 108.225 41.258 108.357 41.644C108.489 42.03 108.547 42.4409 108.526 42.8515C108.534 43.3566 108.429 43.8563 108.219 44.309C108.01 44.7618 107.702 45.1545 107.323 45.4545C106.896 45.7849 106.416 46.0283 105.906 46.1727C105.298 46.3501 104.67 46.4358 104.04 46.4272H100.494V33.5303ZM101.717 39.1697H104.176C104.476 39.169 104.775 39.1324 105.068 39.0606C105.362 38.9909 105.641 38.8646 105.892 38.6878C106.144 38.5102 106.352 38.27 106.498 37.9878C106.66 37.6575 106.739 37.2879 106.728 36.9151C106.739 36.5501 106.659 36.1886 106.498 35.8666C106.346 35.5834 106.132 35.3434 105.875 35.1666C105.595 34.9762 105.283 34.8437 104.957 34.7757C104.585 34.6942 104.205 34.6546 103.824 34.6575H101.697L101.717 39.1697ZM101.717 45.2848H103.997C104.419 45.2868 104.839 45.2421 105.252 45.1515C105.625 45.0725 105.983 44.9248 106.309 44.7151C106.603 44.5215 106.851 44.2556 107.031 43.9394C107.223 43.5899 107.321 43.1903 107.314 42.7848C107.338 42.4213 107.276 42.0573 107.135 41.7255C106.994 41.3938 106.778 41.1049 106.507 40.8848C105.966 40.4636 105.204 40.2575 104.218 40.2575H101.717V45.2848Z" fill="#9DA1C0"/>
<path d="M111.027 46.4121H109.682L114.888 33.5303H116.072L121.244 46.4121H119.882L118.562 43.0303H112.33L111.027 46.4121ZM112.795 41.8182H118.103L115.449 34.9848L112.795 41.8182Z" fill="#9DA1C0"/>
<path d="M131.367 44.503H131.401V33.5303H132.628V46.4121H131.084L124.088 35.3303H124.054V46.4121H122.83V33.5303H124.36L131.367 44.503Z" fill="#9DA1C0"/>
<path d="M136.862 39.3151H136.879L142.61 33.5303H144.363L138.29 39.3697L144.703 46.4121H142.898L136.879 39.5515H136.862V46.4121H135.639V33.5303H136.862V39.3151Z" fill="#9DA1C0"/>
<path fill-rule="evenodd" clip-rule="evenodd" d="M46.0936 30H26.0625V49.9424H46.0936V30ZM43.9094 39.9698H33.4464L33.4464 39.9698L33.4464 39.9697H43.9094L43.9095 39.9698L43.9094 39.9698ZM43.9094 39.9698L38.7063 46.3788H28.2432L33.4464 39.9698L28.2432 33.5637H38.7063L43.9094 39.9697H43.9095L43.9095 39.9698L43.9095 39.9698H43.9094Z" fill="#9DA1C0"/>
</svg>
