<svg width="170" height="80" viewBox="0 0 170 80" fill="none" xmlns="http://www.w3.org/2000/svg">
<path fill-rule="evenodd" clip-rule="evenodd" d="M32.6044 22H14V40.685H32.6044V22ZM26.4041 25.5261H16.5205L20.8947 31.3425H20.8899L16.5205 37.1554H26.4089L30.787 31.3426H30.7879L30.7874 31.3419L30.7879 31.3413L30.7871 31.3415L26.4089 25.5261H26.4041ZM30.7871 31.3415L30.7831 31.3425H20.8947L20.8947 31.3426H30.787L30.7874 31.3419L30.7871 31.3415Z" fill="#9DA1C0"/>
<path d="M79.5145 31.2135C79.9492 30.9616 80.3097 30.5986 80.5595 30.1614C80.8092 29.7242 80.9393 29.2283 80.9366 28.7242C80.9366 26.6014 79.4965 25.2789 77.172 25.2789H72.3022V37.4543H77.3796C77.8634 37.5082 78.3531 37.4559 78.8148 37.3009C79.2765 37.1459 79.6991 36.892 80.0535 36.5568C80.4079 36.2216 80.6855 35.813 80.8672 35.3594C81.0489 34.9057 81.1303 34.4179 81.1058 33.9295C81.133 33.3706 80.9969 32.8158 80.7141 32.3337C80.4314 31.8515 80.0144 31.463 79.5145 31.2159V31.2135ZM74.7515 27.491H76.9896C77.9292 27.491 78.4873 27.9889 78.4873 28.8279C78.4873 29.6669 77.9292 30.1684 76.9896 30.1684H74.7527L74.7515 27.491ZM77.1444 35.2519H74.7527V32.3877H77.1456C77.3398 32.3764 77.5342 32.405 77.717 32.4719C77.8998 32.5387 78.067 32.6424 78.2085 32.7765C78.3499 32.9106 78.4626 33.0723 78.5397 33.2517C78.6167 33.4311 78.6564 33.6244 78.6564 33.8198C78.6564 34.0152 78.6167 34.2085 78.5397 34.3879C78.4626 34.5673 78.3499 34.729 78.2085 34.8631C78.067 34.9972 77.8998 35.1009 77.717 35.1677C77.5342 35.2346 77.3398 35.2632 77.1456 35.2519H77.1444ZM62.7774 33.0616C62.6934 32.9048 58.5076 25.2609 58.5076 25.2609H56.1135V37.4362H58.5628V30.1636C58.7428 30.4842 62.7774 37.5327 62.7774 37.5327C62.7774 37.5327 66.8048 30.4842 66.9884 30.166V37.4375H69.4353V25.2621H67.0412C67.0412 25.2621 62.8722 32.9024 62.7774 33.0591V33.0616ZM50.6689 25.2826V37.458H53.1194V25.2826H50.6689ZM46.6139 34.525C46.0235 34.9955 45.313 35.2893 44.564 35.3727C43.8149 35.456 43.0577 35.3256 42.3791 34.9963C41.7005 34.6669 41.1281 34.1521 40.7275 33.5109C40.327 32.8696 40.1145 32.1279 40.1145 31.3709C40.1145 30.6138 40.327 29.8721 40.7275 29.2309C41.1281 28.5896 41.7005 28.0748 42.3791 27.7455C43.0577 27.4161 43.8149 27.2857 44.564 27.369C45.313 27.4524 46.0235 27.7462 46.6139 28.2167L46.6511 28.2444L48.3552 26.5338L48.318 26.5001C47.3885 25.6932 46.2479 25.1715 45.0317 24.997C43.8156 24.8226 42.5751 25.0028 41.458 25.5162C40.3409 26.0295 39.3941 26.8545 38.7302 27.8928C38.0664 28.9312 37.7135 30.1392 37.7135 31.3733C37.7135 32.6073 38.0664 33.8154 38.7302 34.8537C39.3941 35.8921 40.3409 36.717 41.458 37.2304C42.5751 37.7437 43.8156 37.9239 45.0317 37.7495C46.2479 37.5751 47.3885 37.0533 48.318 36.2464L48.3552 36.2091L46.6511 34.4973L46.6139 34.525Z" fill="#9DA1C0"/>
<path d="M105.666 32.7469H109.707L107.722 26.8654H107.688L105.666 32.7469ZM106.854 25.3477H108.61L112.825 37.4133H111.36L110.215 34.1585H105.175L104.072 37.4857H102.439L106.86 25.3428" fill="#9DA1C0"/>
<path d="M130.094 32.7469H134.135L132.144 26.8654H132.111L130.094 32.7469ZM131.277 25.3477H133.032L137.243 37.4133H135.779L134.638 34.1585H129.588L128.488 37.4857H126.852L131.277 25.3428" fill="#9DA1C0"/>
<path d="M124.525 26.9196C124.525 26.9196 119.971 23.2887 115.884 27.1547C115.264 27.8139 114.789 28.5976 114.491 29.4542C114.194 30.3108 114.08 31.221 114.157 32.1249C114.201 32.9077 114.399 33.674 114.739 34.3798C115.078 35.0857 115.554 35.7171 116.137 36.2378C116.721 36.7585 117.401 37.1582 118.139 37.4139C118.876 37.6697 119.657 37.7764 120.436 37.728C121.94 37.6245 123.408 37.2221 124.756 36.5442V30.7844H120.758V31.8862H123.583V35.675C123.583 35.675 119.426 37.6496 117.064 35.2821C117.064 35.2821 115.182 34.2574 115.576 30.7012C115.792 29.5138 116.432 28.4466 117.378 27.7011C118.323 26.9556 119.507 26.5833 120.706 26.6544C120.706 26.6544 123.063 26.9413 123.691 27.9696L124.525 26.9196Z" fill="#9DA1C0"/>
<path d="M100.413 25.2621H99.1604V37.4122H100.413V25.2621Z" fill="#9DA1C0"/>
<path d="M94.6782 25.2621V35.2061L87.4599 25.2621H86.2023V37.4121H87.4599V27.4319L94.6782 37.4121H95.9299V25.2621H94.6782Z" fill="#9DA1C0"/>
<path d="M120.004 42.7247H120.017C120.385 42.7303 120.741 42.6018 121.022 42.363C121.143 42.2825 121.235 42.1648 121.284 42.0276C121.333 41.8904 121.337 41.7408 121.295 41.6012C121.199 41.3287 120.935 41.1913 120.484 41.1913C120.3 41.1809 120.116 41.2075 119.942 41.2696C119.769 41.3317 119.609 41.428 119.474 41.553C119.363 41.6465 119.283 41.7712 119.244 41.911C119.205 42.0507 119.209 42.199 119.255 42.3365C119.343 42.5957 119.594 42.7247 120.004 42.7247ZM116.536 44.7149C116.603 44.7674 116.682 44.8007 116.766 44.8114C116.965 44.8114 117.024 44.7041 117.043 44.6378C117.095 44.5117 117.167 44.3952 117.257 44.293C117.365 44.1418 117.489 44.0021 117.625 43.8759L117.688 43.8181L117.661 43.7373C117.623 43.6489 117.556 43.5765 117.471 43.5324C117.386 43.4848 117.297 43.4444 117.205 43.4118L117.145 43.3973L117.065 43.3829L117.012 43.3672H116.994C116.914 43.3515 116.83 43.3359 116.743 43.3262C116.618 43.3106 116.492 43.303 116.365 43.3033C114.931 43.4544 113.559 43.976 112.385 44.8174C112.403 44.7909 112.422 44.7644 112.438 44.7366L112.478 44.6727C112.565 44.5485 112.64 44.4175 112.705 44.281C112.771 44.1763 112.794 44.0503 112.77 43.929C112.719 43.8161 112.641 43.7176 112.544 43.6419C112.446 43.5663 112.331 43.5158 112.21 43.495C112.046 43.4343 111.875 43.3939 111.702 43.3744C111.582 43.3744 111.479 43.495 111.359 43.6879C111.252 43.9277 111.122 44.1566 110.971 44.3714C110.768 44.6824 110.53 45.0489 110.286 45.4467C110.253 45.4805 110.219 45.5127 110.183 45.5431C107.031 48.1216 105.143 48.6629 104.119 48.6629C103.94 48.6653 103.762 48.6462 103.588 48.6062C103.179 48.4459 103.244 47.8359 103.261 47.7262C103.325 47.4505 103.411 47.1804 103.519 46.9186C103.95 45.9538 104.444 45.0187 104.999 44.1194L106.511 44.1038C106.556 44.0905 106.778 44.017 106.824 43.8374C106.835 43.7804 106.831 43.7213 106.811 43.6667C106.792 43.612 106.757 43.5639 106.712 43.5275C106.329 43.384 105.921 43.3177 105.512 43.3322V43.3226C105.58 43.2199 105.664 43.1288 105.761 43.0526L105.967 42.8922L105.716 42.8235L105.632 42.8006L105.602 42.791L105.572 42.797L104.485 43.0116C104.372 43.0489 104.266 43.1061 104.173 43.1803C104.107 43.2367 104.049 43.3021 104.001 43.3744C102.516 43.4866 101.072 43.9249 99.7735 44.6583C99.3293 44.9024 98.9069 45.1848 98.5111 45.5021C97.9261 45.9534 97.44 46.5209 97.083 47.1693C96.9421 47.387 96.8471 47.6315 96.8039 47.8876C96.7608 48.1436 96.7704 48.4059 96.8322 48.6581C96.9726 49.0354 97.3434 49.2246 97.9351 49.2246H97.9867C98.4166 49.2075 98.8398 49.1106 99.2347 48.9389C99.6735 48.7618 100.095 48.5447 100.495 48.2904C100.898 48.0381 101.28 47.753 101.637 47.4381C101.718 47.3694 101.798 47.2983 101.877 47.2296C101.818 47.3636 101.77 47.5023 101.733 47.6443C101.629 47.956 101.621 48.2921 101.709 48.6086C101.818 48.8921 102.027 49.125 102.297 49.262C102.672 49.4389 103.084 49.5189 103.497 49.4947H103.586C104.256 49.4758 104.918 49.3488 105.547 49.1186C106.229 48.8763 106.885 48.567 107.507 48.1952C108.14 47.811 108.748 47.387 109.328 46.9258C109.351 46.9101 109.372 46.892 109.396 46.8764C109.092 47.3586 108.796 47.8408 108.512 48.3061C108.354 48.5472 108.302 48.7352 108.354 48.869C108.376 48.9558 108.451 49.0294 108.79 49.1776C108.937 49.2557 109.098 49.3072 109.264 49.3295C109.454 49.3295 109.572 49.2789 109.615 49.18C109.883 48.8051 110.126 48.4314 110.335 48.0686C110.526 47.7431 110.755 47.3947 111.032 47.0042C111.286 46.6518 111.561 46.3163 111.858 46C112.187 45.6525 112.562 45.3516 112.972 45.1055C113.284 44.8987 113.619 44.7285 113.97 44.598C114.329 44.4496 114.712 44.3679 115.101 44.3569H115.168C115.388 44.3509 115.609 44.3687 115.825 44.4099C115.979 44.4493 116.129 44.5009 116.274 44.5643C116.364 44.607 116.451 44.6574 116.532 44.7149H116.536ZM102.495 45.8469C99.9067 47.9613 99.0223 48.2771 98.7247 48.2771C98.6047 48.2771 98.5891 48.2325 98.5831 48.2036C98.6033 47.9179 98.6744 47.6382 98.7931 47.3779C99.0384 46.8232 99.3729 46.3129 99.7831 45.8674C100.121 45.4991 100.499 45.1707 100.911 44.8885C101.663 44.3906 102.541 44.1183 103.441 44.1038C103.488 44.1038 103.536 44.1038 103.583 44.1038C103.508 44.2243 103.43 44.3581 103.351 44.4955L103.111 44.897C102.892 45.2598 102.661 45.5925 102.483 45.8469H102.495ZM77.4274 49.5646L77.4994 49.5851C77.5762 49.6068 77.659 49.6297 77.7634 49.6622C78.24 49.7725 78.7242 49.8463 79.2119 49.8828C79.6379 49.919 80.0747 49.9359 80.5475 49.9359H80.7311C81.7932 49.9342 82.8498 49.7837 83.8705 49.4886C84.2374 49.3782 84.5927 49.2321 84.9313 49.0523C85.2586 48.8807 85.5668 48.6746 85.8505 48.4375C86.1042 48.2332 86.3093 47.9745 86.4506 47.6804C86.5145 47.543 86.5505 47.3943 86.5564 47.2427C86.5624 47.0912 86.5383 46.94 86.4854 46.798C86.432 46.647 86.3559 46.5051 86.2598 46.3773C86.1494 46.2433 86.0246 46.1221 85.8877 46.0156L85.8469 45.9867C85.7953 45.9493 85.7353 45.9072 85.6621 45.8565C85.5577 45.7842 85.4341 45.7071 85.3021 45.6299C85.2505 45.5925 85.1821 45.554 85.1185 45.5093L85.0561 45.4696C84.1938 44.9949 83.399 44.4058 82.6932 43.718C82.5719 43.5662 82.4928 43.3848 82.4641 43.1923C82.4355 42.9997 82.4582 42.803 82.53 42.6222C82.74 42.2377 83.4492 41.7784 85.6057 41.7784C85.8692 41.8122 86.1274 41.8799 86.3738 41.9797C86.7878 42.1593 87.0314 42.3413 87.101 42.5342C87.1145 42.5617 87.1224 42.5918 87.124 42.6224C87.1257 42.6531 87.1211 42.6838 87.1106 42.7126L87.0518 42.8187L87.1538 42.8874C87.2272 42.9398 87.3146 42.9688 87.4046 42.9706C87.4413 42.9708 87.4777 42.9652 87.5126 42.9537L87.5942 42.9284L87.6038 42.844C87.6224 42.6757 87.6546 42.5093 87.6998 42.3462C87.7466 42.1412 87.7862 41.9845 87.827 41.864L87.8414 41.8206L87.8258 41.776C87.7572 41.6314 87.6434 41.5132 87.5018 41.4396C87.1768 41.2776 86.8286 41.1678 86.4698 41.1142C86.1622 41.0684 85.8518 41.0455 85.5409 41.0454H85.4209C84.5942 41.051 83.7745 41.1977 82.9968 41.4794C82.7449 41.5745 82.5036 41.6957 82.2768 41.8411C82.1261 41.9428 81.9822 42.0543 81.846 42.175C81.563 42.4351 81.3416 42.7556 81.198 43.1128C81.0555 43.4588 81.047 43.8458 81.1739 44.1978C81.3108 44.5645 81.5505 44.8835 81.864 45.1164C82.2835 45.4348 82.7246 45.7237 83.184 45.9807C83.6393 46.2242 84.0729 46.5065 84.4801 46.8245C84.5832 46.9149 84.6791 47.0132 84.7669 47.1187C84.8358 47.2214 84.8782 47.3398 84.8904 47.4631C84.9025 47.5863 84.884 47.7108 84.8365 47.8251C84.6613 48.2096 84.0253 48.7111 81.9852 48.9197C81.4925 48.973 80.9974 49.0008 80.5019 49.0028C77.9266 49.0028 77.7418 48.0987 77.7418 48.0252L77.7526 47.9842L77.7382 47.9444C77.7193 47.8891 77.6827 47.8415 77.634 47.8093C77.5854 47.777 77.5275 47.7618 77.4694 47.766C77.4354 47.7651 77.4017 47.7722 77.3708 47.7866C77.34 47.801 77.313 47.8225 77.2918 47.8492L77.2738 47.8902V47.9203C77.2486 48.0987 77.227 48.3217 77.1982 48.6038C77.1694 48.8859 77.1634 49.127 77.1562 49.338V49.3886L77.1862 49.426C77.2511 49.4909 77.3311 49.5385 77.419 49.5646H77.4274ZM97.1886 43.6083C97.1114 43.4137 96.9878 43.2411 96.8286 43.1056C96.6713 42.9591 96.4811 42.8528 96.2742 42.7958C96.1145 42.8156 95.9607 42.8694 95.8233 42.9535C95.6859 43.0377 95.568 43.1504 95.4774 43.284C95.2036 43.624 94.9595 43.987 94.7477 44.369C94.3877 44.9789 94.0385 45.5877 93.6941 46.2218L93.4385 46.6341C93.2993 46.8607 93.1745 47.062 93.0785 47.2163C92.5417 47.7258 91.9154 48.1309 91.2316 48.4109C90.9095 48.5304 90.5712 48.5999 90.2283 48.6171C90.1383 48.6312 90.0462 48.6206 89.9617 48.5865C89.8772 48.5523 89.8035 48.4958 89.7483 48.423C89.5815 48.1289 89.8251 47.5117 90.0843 47.0693C90.1239 47.0005 90.1707 46.9342 90.2187 46.8619C90.8044 46.0108 91.4452 45.0151 92.1232 43.9061L92.1568 43.853L92.1364 43.7952C92.0788 43.6216 91.8592 43.6216 91.7872 43.6216C91.7152 43.6216 91.5712 43.6372 91.2784 43.6722C91.0144 43.7059 90.7984 43.7361 90.6159 43.771C90.5278 43.812 90.4434 43.8608 90.3639 43.9169C90.3063 43.9627 90.2283 44.0374 90.1359 44.1182L90.1035 44.1471L90.0963 44.158C89.2731 45.2839 88.6563 46.129 88.1607 46.8559C87.6038 47.6623 87.4046 48.2591 87.5606 48.6834C87.6187 48.822 87.7067 48.9458 87.8184 49.0459C87.9301 49.146 88.0626 49.2198 88.2062 49.262C88.5488 49.3726 88.9074 49.4243 89.2671 49.4151H89.3775C90.0022 49.4113 90.6214 49.2966 91.2064 49.0764C91.5256 48.9558 91.8004 48.8353 92.038 48.7268C87.2378 54.4432 83.0532 55.6643 80.3567 55.6643C79.2224 55.6681 78.0982 55.4499 77.047 55.0218C76.6208 54.853 76.214 54.6383 75.8337 54.3817C75.7008 54.2391 75.5911 54.0764 75.5085 53.8995C75.4935 53.8565 75.4693 53.8174 75.4376 53.7849C75.4059 53.7524 75.3674 53.7273 75.3249 53.7115C75.2952 53.6994 75.2634 53.6933 75.2313 53.6934C75.189 53.6936 75.1476 53.7058 75.112 53.7287C75.0763 53.7515 75.0478 53.784 75.0297 53.8224C74.9845 53.9435 74.9673 54.0733 74.9793 54.2021C75.001 54.4498 75.0571 54.6933 75.1461 54.9254C75.2981 55.3713 75.5845 55.7585 75.9657 56.0332C76.3661 56.3171 76.8129 56.5285 77.2858 56.6577C77.782 56.7958 78.2891 56.891 78.8014 56.9421C79.2311 56.9819 79.6127 57 79.9691 57C80.0627 57 80.1563 57 80.2475 57C82.007 56.9554 83.7323 56.5015 85.2877 55.674C86.8536 54.8244 88.2983 53.7665 89.5827 52.5289C90.5132 51.635 91.3945 50.6909 92.2228 49.7008L95.409 46.1025C95.649 45.8409 95.8686 45.5805 96.0786 45.3382L96.1494 45.2574C96.4494 44.9042 96.7098 44.5703 96.9258 44.2689C97.1934 43.8627 97.2222 43.712 97.1802 43.6095L97.1886 43.6083ZM154.972 35.7799C154.909 35.5264 154.811 35.283 154.681 35.0566C154.454 34.6179 154.109 34.252 153.685 34.0006C153.258 33.7456 152.79 33.5674 152.302 33.4738C151.803 33.3715 151.296 33.3146 150.787 33.3038H150.547C148.472 33.2966 146.447 33.9373 144.751 35.1374C143.396 36.1382 142.198 37.3387 141.199 38.6984C140.135 40.1407 139.198 41.6734 138.398 43.2792L138.359 43.36C138.304 43.4733 138.25 43.583 138.199 43.6818L138.102 43.8289C138.012 43.9639 137.923 44.0977 137.838 44.2376C137.664 44.51 137.49 44.7957 137.316 45.0814L137.102 45.4298C134.372 47.5599 132.415 48.6376 131.282 48.6376C131.144 48.6484 131.005 48.6278 130.876 48.5773C130.746 48.5268 130.63 48.4477 130.536 48.3458C130.317 47.985 130.242 47.5544 130.326 47.1404C130.344 47.0934 130.36 47.0463 130.378 46.9969C130.396 46.9475 130.423 46.8691 130.452 46.798C130.861 45.8719 131.333 44.9752 131.865 44.1146L133.431 44.0977C133.476 44.0845 133.704 44.0097 133.751 43.8301C133.762 43.773 133.757 43.714 133.737 43.6593C133.718 43.6047 133.683 43.5566 133.638 43.5203C133.23 43.3706 132.797 43.303 132.363 43.3214C132.381 43.2937 132.401 43.2672 132.416 43.2394L132.444 43.1996C132.507 43.0969 132.588 43.0066 132.684 42.9332L132.903 42.7705L132.638 42.7006L132.551 42.6777L132.521 42.6704H132.491L131.41 42.8874C131.297 42.9279 131.19 42.9843 131.092 43.055C130.994 43.1423 130.913 43.2474 130.852 43.3648C129.804 43.3794 128.767 43.5912 127.796 43.9892C126.994 44.3211 126.238 44.7572 125.548 45.2863H125.489C125.391 45.2969 125.298 45.3392 125.225 45.4069C123.579 47.1008 121.402 48.1735 119.061 48.4447C118.439 48.4447 118.012 48.2675 117.981 47.9818C118.269 46.6443 118.839 45.3843 119.652 44.287L119.717 44.1906L119.775 44.0953C119.85 44.0385 119.903 43.9564 119.924 43.8639C119.949 43.7858 119.951 43.702 119.93 43.6228C119.862 43.4769 119.662 43.4769 119.562 43.4769C119.321 43.5004 119.083 43.5539 118.854 43.636C118.582 43.6899 118.334 43.8307 118.148 44.0375C117.913 44.3147 117.695 44.6066 117.497 44.9114C117.238 45.2936 116.976 45.6986 116.723 46.1169C116.491 46.5091 116.287 46.9181 116.115 47.3405C115.951 47.6513 115.908 48.0123 115.995 48.3531C116.069 48.5636 116.213 48.7425 116.401 48.8606C116.592 48.9789 116.798 49.0717 117.012 49.1367C117.244 49.2052 117.483 49.2457 117.724 49.2572C117.922 49.2668 118.097 49.2741 118.253 49.2741H118.358C118.905 49.2576 119.45 49.1857 119.984 49.0595C120.548 48.9329 121.099 48.7479 121.625 48.5074C122.359 48.1606 123.065 47.7576 123.737 47.3019L123.964 47.1416C123.837 47.3488 123.754 47.5795 123.718 47.82C123.682 48.0605 123.695 48.3057 123.755 48.5411C123.89 48.9185 124.263 49.1101 124.863 49.1101H124.912C125.338 49.0927 125.758 48.9966 126.149 48.8268C126.592 48.6521 127.016 48.4341 127.416 48.1759C127.817 47.9239 128.199 47.6418 128.558 47.332C128.638 47.2609 128.718 47.1922 128.798 47.1223C128.74 47.2558 128.693 47.3936 128.656 47.5346C128.551 47.846 128.542 48.1821 128.63 48.4989C128.741 48.7825 128.951 49.0154 129.222 49.1535C129.585 49.3263 129.986 49.4058 130.388 49.385H130.501C131.174 49.3669 131.84 49.2395 132.473 49.0077C133.152 48.7655 133.806 48.4558 134.425 48.083C135.059 47.7006 135.669 47.2778 136.249 46.8173C136.257 46.8134 136.264 46.809 136.271 46.804C135.955 47.3381 135.639 47.889 135.319 48.4519C135.252 48.5801 135.239 48.7297 135.282 48.8678C135.35 49.0474 135.546 49.1632 135.869 49.209C136.068 49.2354 136.268 49.2503 136.469 49.2536H136.538C136.812 49.2536 137.039 49.0643 137.21 48.7063C137.402 48.3326 137.638 47.9022 137.978 47.3067C138.154 46.9933 138.33 46.6883 138.502 46.3869L138.832 45.8071C139.434 45.0632 140.156 44.426 140.968 43.9217C141.375 43.6579 141.831 43.4799 142.308 43.3985C142.33 43.3985 142.353 43.3985 142.373 43.4516C142.401 43.5275 142.408 43.7276 142.155 44.2279C141.945 44.6426 141.709 45.0999 141.447 45.5998C141.194 46.0792 140.97 46.5736 140.776 47.0801C140.586 47.4753 140.544 47.9255 140.656 48.3495C140.726 48.535 140.836 48.7031 140.977 48.8423C141.119 48.9815 141.288 49.0884 141.474 49.1559C141.87 49.3185 142.295 49.3977 142.723 49.3886C142.788 49.3886 142.853 49.3886 142.918 49.3886C143.689 49.354 144.45 49.1911 145.168 48.9064C145.943 48.6136 146.687 48.2407 147.386 47.7937C148.093 47.3455 148.768 46.8488 149.408 46.3074C149.843 45.9409 150.251 45.5437 150.629 45.1188C150.932 44.8367 151.109 44.6523 151.109 44.6523L151.196 44.5643L151.113 44.4726C151.072 44.4193 151.02 44.3755 150.961 44.3441C150.902 44.3127 150.837 44.2944 150.77 44.2906C150.708 44.292 150.647 44.3086 150.592 44.3388C150.538 44.369 150.492 44.4121 150.458 44.4642C147.057 47.6334 145.119 48.2976 144.097 48.2976C143.742 48.3336 143.386 48.2383 143.095 48.0295C142.805 47.8207 142.6 47.5127 142.519 47.1633C142.536 47.0071 142.567 46.8529 142.613 46.7028C142.754 46.239 142.937 45.7891 143.159 45.3587C143.391 44.9 143.653 44.457 143.943 44.0326C144.213 43.6324 144.429 43.3166 144.595 43.0984C144.726 42.9673 144.823 42.807 144.88 42.6307V42.5812C144.898 42.4992 144.897 42.4143 144.879 42.3325C144.86 42.2506 144.824 42.1738 144.773 42.1075C144.703 42.0384 144.618 41.9855 144.525 41.9524C144.432 41.9193 144.334 41.9068 144.235 41.9158C143.11 41.9158 140.593 43.2611 139.614 43.8096C140.214 42.0942 142.407 36.719 146.954 35.2097C147.369 35.0891 147.794 34.9831 148.216 34.9011C148.636 34.8354 149.061 34.8024 149.487 34.8022C151.218 34.8467 152.916 35.2844 154.454 36.0825L154.492 36.1464C154.533 36.2227 154.602 36.2799 154.684 36.3055C154.713 36.317 154.743 36.3231 154.773 36.3236C154.82 36.3243 154.866 36.3082 154.902 36.2782C154.938 36.2481 154.963 36.2061 154.971 36.1596C154.998 36.0342 154.996 35.9042 154.964 35.7799H154.972ZM129.23 46.0012C129.208 46.0313 129.183 46.0566 129.16 46.0832L129.12 46.1265C127.07 47.8636 126.181 48.2289 125.795 48.2289C125.683 48.2289 125.533 48.2024 125.527 47.9818C125.56 47.7349 125.63 47.4944 125.734 47.2681C125.976 46.7098 126.311 46.197 126.724 45.7517C127.181 45.2338 127.742 44.8191 128.37 44.5348C128.998 44.2506 129.679 44.1032 130.368 44.1025C130.396 44.1025 130.424 44.1025 130.452 44.1025C130.332 44.3147 130.191 44.5413 130.057 44.7812C129.8 45.203 129.521 45.6107 129.22 46.0024L129.23 46.0012Z" fill="#9DA1C0"/>
</svg>
