<svg width="170" height="80" viewBox="0 0 170 80" fill="none" xmlns="http://www.w3.org/2000/svg">
<path d="M33.6711 45.0395C33.6711 43.5622 33.6711 42.3122 33.5576 41.1759H36.3936L36.507 43.1077H36.5637C37.1876 42.085 38.3787 40.8918 40.5341 40.8918C42.2356 40.8918 43.5402 41.8577 44.1074 43.2782H44.1641C44.6745 42.5963 45.185 42.0282 45.8089 41.6872C46.5463 41.1759 47.3403 40.8918 48.418 40.8918C50.5733 40.8918 52.7286 42.3691 52.7286 46.5168V54.1304H49.5524V47.0281C49.5524 44.8691 48.815 43.6191 47.2269 43.6191C46.0925 43.6191 45.2985 44.4145 44.9581 45.3236C44.9014 45.6645 44.788 46.0622 44.788 46.4031V54.1872H41.6117V46.6872C41.6117 44.8691 40.8744 43.6191 39.3997 43.6191C38.2086 43.6191 37.3578 44.585 37.0742 45.4941C36.904 45.7782 36.8473 46.1191 36.8473 46.5168V54.1872H33.6711V45.0395Z" fill="#9DA1C0"/>
<path d="M65.1696 51.0383C65.1696 52.2315 65.2263 53.3679 65.3397 54.1633H62.3903L62.1634 52.7429H62.1067C61.3127 53.7656 59.9514 54.4474 58.3065 54.4474C55.6975 54.4474 54.2228 52.5724 54.2228 50.5838C54.2228 47.2883 57.1154 45.6406 61.8798 45.6974V45.4701C61.8798 44.6179 61.5395 43.1974 59.2708 43.1974C58.023 43.1974 56.6617 43.5951 55.8109 44.1633L55.187 42.061C56.1512 41.4929 57.7961 40.9247 59.838 40.9247C63.9784 40.9247 65.1696 43.5383 65.1696 46.3792V51.0383ZM61.9366 47.7997C59.6111 47.7429 57.399 48.2542 57.399 50.2429C57.399 51.4929 58.2498 52.1179 59.2708 52.1179C60.5753 52.1179 61.5395 51.2656 61.8231 50.3565C61.8798 50.1292 61.9366 49.8451 61.9366 49.6179V47.7997Z" fill="#9DA1C0"/>
<path d="M67.423 45.0395C67.423 43.5622 67.4229 42.3122 67.3094 41.1759H70.1455L70.3157 43.1077H70.3723C70.9395 42.085 72.3574 40.8918 74.5128 40.8918C76.7815 40.8918 79.107 42.3691 79.107 46.46V54.1304H75.8173V46.8009C75.8173 44.9259 75.1368 43.5054 73.3218 43.5054C72.0172 43.5054 71.1096 44.4145 70.7693 45.4372C70.7126 45.7781 70.7127 46.1759 70.7127 46.5736V54.1872H67.423V45.0395Z" fill="#9DA1C0"/>
<path d="M93.2329 35.991V50.4797C93.2329 51.7865 93.2897 53.2638 93.3464 54.116H90.4537L90.3403 52.0706H90.2836C89.4895 53.491 87.9581 54.4001 86.0863 54.4001C83.0235 54.4001 80.5846 51.7865 80.5846 47.8092C80.5846 43.491 83.2504 40.8774 86.3699 40.8774C88.1282 40.8774 89.4328 41.616 90 42.582H90.0567V35.991H93.2329ZM90 46.616C90 46.332 90 46.0479 89.9432 45.7638C89.6596 44.5138 88.6387 43.4342 87.1073 43.4342C85.0087 43.4342 83.8176 45.3092 83.8176 47.6956C83.8176 50.082 85.0087 51.7865 87.0506 51.7865C88.3551 51.7865 89.5462 50.8774 89.8865 49.457C89.9432 49.1729 90 48.832 90 48.491C90 48.5479 90 46.616 90 46.616Z" fill="#9DA1C0"/>
<path d="M95.5607 41.2168H98.8731V54.1713H95.5607V41.2168Z" fill="#9DA1C0"/>
<path d="M101.164 45.3516C101.164 43.5902 101.164 42.3402 101.05 41.2038H103.886L104 43.647H104.113C104.737 41.8288 106.268 41.2038 107.63 41.2038C107.97 41.2038 108.14 41.147 108.424 41.2038V44.1016C108.14 44.0447 107.856 43.9879 107.459 43.9879C105.871 43.9879 104.85 45.0106 104.567 46.4311C104.51 46.7152 104.453 47.0561 104.453 47.4538V54.1584H101.164V45.3516Z" fill="#9DA1C0"/>
<path d="M109.944 41.2168H113.211V54.1713H109.944V41.2168Z" fill="#9DA1C0"/>
<path d="M109.23 25.5234C107.245 26.6598 100.779 30.353 100.779 30.353C98.3402 31.3757 96.5252 30.1257 95.9012 29.2166C95.9012 29.1598 95.8445 29.1598 95.8445 29.103L95.7878 28.9894L95.3908 28.3076C95.2206 28.0235 94.9937 27.7394 94.8236 27.4553C94.5967 27.228 94.4265 26.9439 94.1429 26.7167C92.6115 25.1258 90.1159 24.0462 85.9754 26.0348C83.4798 27.4553 77.6377 30.8075 77.6377 30.8075C75.2555 32.1712 73.3838 33.2507 73.3838 33.2507L75.5958 35.978C76.5033 36.8871 78.2616 38.3076 80.9841 37.1144L88.471 32.7962C94.8236 29.2734 97.9998 32.6257 99.4178 34.8985C99.4745 34.9553 99.5313 35.069 99.5313 35.1258L99.588 35.1826L99.7581 35.4667C100.439 36.4894 101.516 37.1712 102.764 37.1144C103.445 37.1144 103.955 36.8871 104.636 36.4894L111.839 32.2848C118.305 28.7621 121.481 32.2848 122.843 34.5576C122.956 34.728 123.07 34.9553 123.183 35.1258C123.864 36.0349 124.771 36.6598 125.962 36.603C126.756 36.603 127.607 36.0917 127.777 36.0348L136.455 31.0348C136.455 31.0348 135.548 29.6712 133.733 27.6257C132.088 25.7507 130.386 26.603 128.968 27.2848C128.401 27.5689 124.204 29.9553 124.204 29.9553C121.935 30.9212 120.12 29.8417 119.44 28.9894C119.383 28.8758 119.326 28.8189 119.269 28.7053L119.099 28.4212C118.872 28.0235 118.532 27.5121 118.192 27.0575C118.022 26.7735 117.795 26.5462 117.511 26.3189C116.547 25.353 115.242 24.5575 113.371 24.5575C112.236 24.4439 110.875 24.728 109.23 25.5234Z" fill="#9DA1C0"/>
</svg>
