<svg width="170" height="80" viewBox="0 0 170 80" fill="none" xmlns="http://www.w3.org/2000/svg">
<g clip-path="url(#clip0)">
<path fill-rule="evenodd" clip-rule="evenodd" d="M37.0732 34.9536C37.0732 33.5322 37.0732 32.3379 36.9689 31.2718H39.6772L39.8014 33.0979H39.8809C40.2714 32.4388 40.833 31.8959 41.507 31.526C42.181 31.1562 42.9426 30.9729 43.7123 30.9954C44.454 30.9747 45.1839 31.1828 45.8016 31.5912C46.4192 31.9995 46.8942 32.588 47.1611 33.2756H47.2108C47.5917 32.6467 48.1181 32.1171 48.7463 31.7308C49.4736 31.2271 50.3448 30.9693 51.231 30.9954C53.3032 30.9954 55.3953 32.3872 55.3953 36.3454V43.625H52.3441V36.7994C52.3441 34.7463 51.6285 33.5322 50.1228 33.5322C49.6307 33.55 49.1559 33.7177 48.763 34.0126C48.37 34.3074 48.078 34.7152 47.9264 35.1806C47.8323 35.5185 47.7806 35.8666 47.7723 36.217V43.6201H44.7112V36.4638C44.7112 34.7414 44.0204 33.5026 42.5594 33.5026C42.0444 33.5264 41.5501 33.7109 41.1468 34.0299C40.7435 34.3489 40.4518 34.7861 40.3133 35.2793C40.1909 35.6025 40.1319 35.9459 40.1393 36.2911V43.5954H37.0732V34.9536Z" fill="#9DA1C0"/>
<path fill-rule="evenodd" clip-rule="evenodd" d="M64.0423 37.589C61.821 37.5397 59.7041 38.0184 59.7041 39.8988C59.682 40.1372 59.7129 40.3774 59.7947 40.6026C59.8765 40.8278 60.0071 41.0324 60.1773 41.2019C60.3475 41.3714 60.5531 41.5017 60.7796 41.5835C61.0061 41.6653 61.248 41.6968 61.4881 41.6755C62.0256 41.6844 62.5523 41.5246 62.9931 41.2189C63.4338 40.9131 63.7662 40.4771 63.9429 39.9728C64.011 39.7505 64.0445 39.5192 64.0423 39.2868V37.589ZM67.1084 40.6588C67.0926 41.649 67.1524 42.6389 67.2873 43.62H64.4399L64.2461 42.2776H64.1715C63.7237 42.8103 63.1602 43.2354 62.5233 43.5209C61.8864 43.8064 61.1927 43.9449 60.4942 43.926C59.9904 43.9557 59.4858 43.8825 59.0116 43.7109C58.5375 43.5394 58.1037 43.2731 57.7372 42.9285C57.3707 42.5839 57.0792 42.1684 56.8808 41.7076C56.6823 41.2467 56.581 40.7504 56.5833 40.2492C56.5833 37.1251 59.3711 35.5557 63.9628 35.5803V35.3681C63.9628 34.5538 63.6348 33.2114 61.4384 33.2114C60.2613 33.2124 59.1062 33.5278 58.094 34.1244L57.4827 32.0812C58.8526 31.3379 60.3945 30.9636 61.9552 30.9954C65.9307 30.9954 67.0886 33.5026 67.0886 36.1923L67.1084 40.6588Z" fill="#9DA1C0"/>
<path fill-rule="evenodd" clip-rule="evenodd" d="M69.1509 34.9537C69.1509 33.5324 69.1509 32.338 69.0515 31.272H71.8095L71.9586 33.1227H72.0381C72.4512 32.4498 73.0371 31.8981 73.7357 31.5243C74.4343 31.1504 75.2205 30.968 76.0136 30.9956C78.1902 30.9956 80.4364 32.3874 80.4364 36.2961V43.6251H77.2709V36.6515C77.2709 34.8748 76.6099 33.5324 74.8955 33.5324C74.3464 33.545 73.8151 33.7279 73.3758 34.0553C72.9365 34.3827 72.6113 34.8384 72.4456 35.3584C72.3514 35.6788 72.3078 36.0118 72.3164 36.3455V43.6005H69.1509V34.9537Z" fill="#9DA1C0"/>
<path fill-rule="evenodd" clip-rule="evenodd" d="M90.807 36.4196C90.8094 36.148 90.7844 35.8768 90.7325 35.6102C90.61 34.987 90.2725 34.4257 89.7781 34.023C89.2838 33.6204 88.6635 33.4015 88.0242 33.4041C86.0066 33.4041 84.8835 35.1808 84.8835 37.4856C84.8835 39.7904 86.0066 41.3944 87.9993 41.3944C88.6374 41.3923 89.2553 41.1717 89.7486 40.7698C90.242 40.3679 90.5807 39.8094 90.7077 39.1883C90.7826 38.8899 90.8161 38.5827 90.807 38.2753V36.4196ZM93.9527 25.6161V40.1507C93.9527 41.4191 94.0024 42.7911 94.052 43.6054H91.2444L91.1201 41.6313H91.0655C90.6589 42.3363 90.0654 42.9171 89.3495 43.3105C88.6337 43.7038 87.8229 43.8946 87.0055 43.8621C84.0238 43.8621 81.6882 41.35 81.6882 37.5448C81.6882 33.409 84.2723 30.9512 87.2589 30.9512C88.9684 30.9512 90.1958 31.657 90.7375 32.57H90.7872V25.6161H93.9527Z" fill="#9DA1C0"/>
<path d="M99.3796 31.2472H96.1942V43.625H99.3796V31.2472Z" fill="#9DA1C0"/>
<path fill-rule="evenodd" clip-rule="evenodd" d="M101.586 35.2546C101.586 33.5815 101.561 32.3872 101.482 31.2718H104.195L104.299 33.6309H104.399C104.618 32.8948 105.064 32.2452 105.673 31.7727C106.283 31.3003 107.025 31.0285 107.798 30.9954C108.047 30.9928 108.295 31.0177 108.538 31.0695V34.0307C108.236 33.9663 107.928 33.9332 107.619 33.932C106.941 33.9155 106.281 34.1466 105.763 34.5814C105.246 35.0163 104.907 35.6246 104.811 36.2911C104.744 36.6158 104.709 36.9465 104.707 37.2781V43.6941H101.566L101.586 35.2546Z" fill="#9DA1C0"/>
<path d="M112.737 31.2472H109.552V43.625H112.737V31.2472Z" fill="#9DA1C0"/>
<path fill-rule="evenodd" clip-rule="evenodd" d="M36.4078 59.2454C37.1837 59.7362 38.0775 60.0123 38.9969 60.045C40.8206 60.045 41.6803 59.0875 41.6803 57.9178C41.6803 56.7481 40.915 56.0226 39.2602 55.3712C37.3719 54.6654 36.3382 53.6636 36.3382 52.3063C36.3382 50.6727 37.6551 49.2711 39.8864 49.2711C40.7836 49.2529 41.6665 49.4966 42.4257 49.9719L41.9934 50.8849C41.3207 50.4138 40.5157 50.1651 39.6926 50.1743C38.2316 50.1743 37.4663 51.0824 37.4663 52.1089C37.4663 53.2786 38.2813 53.7672 39.8367 54.4039C41.7052 55.1244 42.8183 56.0375 42.8183 57.7401C42.8183 59.6551 41.2828 60.9432 38.9372 60.9432C37.9097 60.9519 36.8987 60.6859 36.0103 60.1733L36.4078 59.2454Z" fill="#9DA1C0"/>
<path fill-rule="evenodd" clip-rule="evenodd" d="M45.109 64.0821C46.1276 63.209 46.9302 62.1147 47.4545 60.884C47.5312 60.7291 47.5799 60.5621 47.5986 60.3905C47.5775 60.2194 47.5289 60.0527 47.4545 59.8969L43.1908 49.4982H44.4133L47.4297 56.837C47.7427 57.6267 48.0508 58.5447 48.2695 59.2405H48.3142C48.5577 58.5644 48.846 57.676 49.2037 56.7729L52.0164 49.5031H53.2389L49.7901 57.8932C48.3987 61.3479 47.1812 63.9193 45.5562 65.0248L45.109 64.0821Z" fill="#9DA1C0"/>
<path fill-rule="evenodd" clip-rule="evenodd" d="M60.4642 54.7148C57.9496 54.6408 54.64 55.0208 54.64 57.7056C54.6138 58.0147 54.6548 58.3259 54.7604 58.6179C54.866 58.9098 55.0336 59.1758 55.2519 59.3978C55.4702 59.6197 55.734 59.7924 56.0254 59.904C56.3168 60.0157 56.6291 60.0638 56.9409 60.045C57.6749 60.0818 58.4014 59.8841 59.014 59.4808C59.6266 59.0776 60.0931 58.49 60.3449 57.8043C60.4261 57.5864 60.4666 57.3556 60.4642 57.1232V54.7148ZM61.6121 58.0708C61.5958 58.9623 61.6523 59.8535 61.781 60.7359H60.7275L60.5586 59.1221H60.5138C60.0988 59.7091 59.5452 60.1861 58.9015 60.5113C58.2579 60.8365 57.5437 61.0001 56.8216 60.9876C54.4959 60.9876 53.4474 59.4034 53.4474 57.908C53.4474 55.312 55.7681 53.7475 60.4642 53.7919V53.4908C60.4642 52.3902 60.2505 50.1743 57.5173 50.199C56.4866 50.1796 55.4744 50.4723 54.6152 51.038L54.2574 50.2187C55.2731 49.5956 56.4427 49.2642 57.6366 49.2612C60.9661 49.2612 61.6121 51.6894 61.6121 53.6784V58.0708Z" fill="#9DA1C0"/>
<path fill-rule="evenodd" clip-rule="evenodd" d="M64.3456 52.8688C64.3456 51.7485 64.3456 50.6035 64.2512 49.5029H65.3047L65.3544 51.7682H65.4339C65.642 51.0613 66.0689 50.4373 66.654 49.9846C67.239 49.532 67.9527 49.2737 68.6938 49.2463C68.8606 49.2481 69.0269 49.2646 69.1908 49.2956V50.3469C69.0072 50.3334 68.8228 50.3334 68.6392 50.3469C67.0589 50.3469 65.9358 51.6794 65.6228 53.4759C65.5505 53.8299 65.5172 54.1906 65.5234 54.5518V60.7456H64.3456V52.8688Z" fill="#9DA1C0"/>
<path d="M71.7945 49.5029H70.6466V60.721H71.7945V49.5029Z" fill="#9DA1C0"/>
<path fill-rule="evenodd" clip-rule="evenodd" d="M80.7096 54.7146C78.1951 54.6406 74.8855 55.0206 74.8855 57.7055C74.8601 58.0144 74.9017 58.3252 75.0076 58.6168C75.1135 58.9084 75.2811 59.174 75.4992 59.3958C75.7173 59.6175 75.9808 59.7902 76.2718 59.9022C76.5629 60.0141 76.8747 60.0628 77.1863 60.0448C77.9203 60.0816 78.6469 59.8839 79.2595 59.4807C79.8721 59.0774 80.3385 58.4899 80.5903 57.8042C80.6716 57.5863 80.712 57.3554 80.7096 57.1231V54.7146ZM81.8575 58.0559C81.8412 58.9473 81.8977 59.8386 82.0265 60.7209H80.973L80.809 59.1071H80.7593C80.344 59.6938 79.7903 60.1705 79.1467 60.4957C78.5031 60.8209 77.7891 60.9847 77.067 60.9727C74.7463 60.9727 73.6879 59.3884 73.6879 57.893C73.6879 55.297 76.0135 53.7325 80.7096 53.7769V53.4759C80.7096 52.3753 80.4909 50.1593 77.7628 50.184C76.732 50.164 75.7196 50.4567 74.8606 51.023L74.5028 50.2037C75.5185 49.5806 76.6882 49.2492 77.882 49.2463C81.2115 49.2463 81.8575 51.6745 81.8575 53.6634V58.0559Z" fill="#9DA1C0"/>
<path fill-rule="evenodd" clip-rule="evenodd" d="M84.7644 46.2555H85.7582V51.5116H85.8079C86.1721 50.8468 86.7093 50.2911 87.3634 49.9027C88.0642 49.4783 88.8682 49.2514 89.689 49.2463C90.7674 49.2463 93.6894 49.7843 93.6894 53.9645V60.721H92.5415V54.083C92.5415 52.0743 91.7265 50.2285 89.376 50.2285C88.6072 50.2494 87.8629 50.5018 87.2418 50.9522C86.6206 51.4025 86.1518 52.0296 85.8974 52.7504C85.7833 53.1142 85.7345 53.4951 85.7533 53.8757V60.721H84.7594L84.7644 46.2555Z" fill="#9DA1C0"/>
<path fill-rule="evenodd" clip-rule="evenodd" d="M74.7163 23.4L74.727 23.4158L74.7163 23.4Z" fill="#9DA1C0"/>
<path fill-rule="evenodd" clip-rule="evenodd" d="M74.8853 23.3014L76.3661 25.3989L74.7262 23.4149L74.7163 23.4001L74.8853 23.3014Z" fill="#9DA1C0"/>
<path fill-rule="evenodd" clip-rule="evenodd" d="M75.0641 23.2076L77.4593 26.6031C77.3478 26.5209 77.2416 26.4319 77.1413 26.3366L76.3661 25.3989L74.8752 23.3014L75.0641 23.2076Z" fill="#9DA1C0"/>
<path fill-rule="evenodd" clip-rule="evenodd" d="M75.233 23.1086L77.9165 26.9089C77.7576 26.8168 77.6049 26.7146 77.4593 26.6029L75.0641 23.2073L75.233 23.1086Z" fill="#9DA1C0"/>
<path fill-rule="evenodd" clip-rule="evenodd" d="M75.4071 23.0298L78.3042 27.136C78.1651 27.0718 78.0359 26.9978 77.9166 26.9287L75.2332 23.1285L75.4071 23.0298Z" fill="#9DA1C0"/>
<path fill-rule="evenodd" clip-rule="evenodd" d="M75.5812 22.9115L78.6473 27.2645C78.5304 27.2211 78.416 27.1717 78.3044 27.1164L75.4072 23.0299L75.5812 22.9115Z" fill="#9DA1C0"/>
<path fill-rule="evenodd" clip-rule="evenodd" d="M75.7547 22.8126L78.965 27.3728L78.6469 27.2642L75.5808 22.9113L75.7547 22.8126Z" fill="#9DA1C0"/>
<path fill-rule="evenodd" clip-rule="evenodd" d="M75.924 22.7141L79.2634 27.4717C79.159 27.4717 79.0596 27.4224 78.9652 27.3977L75.755 22.8374L75.924 22.7141Z" fill="#9DA1C0"/>
<path fill-rule="evenodd" clip-rule="evenodd" d="M76.098 22.6202L79.5368 27.4963L79.2635 27.4469L75.9241 22.714L76.098 22.6202Z" fill="#9DA1C0"/>
<path fill-rule="evenodd" clip-rule="evenodd" d="M76.2716 22.5363L79.7998 27.5407C79.7116 27.5357 79.6236 27.5258 79.5365 27.5111L76.0977 22.635L76.2716 22.5363Z" fill="#9DA1C0"/>
<path fill-rule="evenodd" clip-rule="evenodd" d="M76.4459 22.4227L80.0487 27.5407H79.8002L76.272 22.5362L76.4459 22.4227Z" fill="#9DA1C0"/>
<path fill-rule="evenodd" clip-rule="evenodd" d="M76.615 22.3242L80.2874 27.5359H80.0488L76.446 22.4229L76.615 22.3242Z" fill="#9DA1C0"/>
<path fill-rule="evenodd" clip-rule="evenodd" d="M76.7884 22.2253L80.5204 27.516H80.2869L76.6145 22.324L76.7884 22.2253Z" fill="#9DA1C0"/>
<path fill-rule="evenodd" clip-rule="evenodd" d="M76.9625 22.1266L80.7392 27.4716L80.5206 27.5012L76.7886 22.2254L76.9625 22.1266Z" fill="#9DA1C0"/>
<path fill-rule="evenodd" clip-rule="evenodd" d="M77.1319 22.0427L80.9533 27.4716L80.7396 27.5111L76.9629 22.1266L77.1319 22.0427Z" fill="#9DA1C0"/>
<path fill-rule="evenodd" clip-rule="evenodd" d="M77.3059 21.9343L81.1572 27.3977L80.9534 27.447L77.132 22.0428L77.3059 21.9343Z" fill="#9DA1C0"/>
<path fill-rule="evenodd" clip-rule="evenodd" d="M77.4793 21.8354L81.3604 27.3383L81.1567 27.3975L77.3054 21.9341L77.4793 21.8354Z" fill="#9DA1C0"/>
<path fill-rule="evenodd" clip-rule="evenodd" d="M77.6534 21.7368L81.5494 27.2693L81.3606 27.3384L77.4795 21.8355L77.6534 21.7368Z" fill="#9DA1C0"/>
<path fill-rule="evenodd" clip-rule="evenodd" d="M77.822 21.6379L81.7379 27.1951L81.5491 27.2692L77.6531 21.7366L77.822 21.6379Z" fill="#9DA1C0"/>
<path fill-rule="evenodd" clip-rule="evenodd" d="M77.9962 21.5492L81.922 27.1163L81.7381 27.2002L77.8223 21.638L77.9962 21.5492Z" fill="#9DA1C0"/>
<path fill-rule="evenodd" clip-rule="evenodd" d="M78.1703 21.4456L82.0961 27.0176L82.0166 27.0669L81.9222 27.1113L77.9963 21.5492L78.1703 21.4456Z" fill="#9DA1C0"/>
<path fill-rule="evenodd" clip-rule="evenodd" d="M78.3393 21.347L82.2701 26.9141L82.0962 27.0177L78.1654 21.4457L78.3393 21.347Z" fill="#9DA1C0"/>
<path fill-rule="evenodd" clip-rule="evenodd" d="M78.5129 21.248L82.4387 26.8151L82.2698 26.9138L78.339 21.3468L78.5129 21.248Z" fill="#9DA1C0"/>
<path fill-rule="evenodd" clip-rule="evenodd" d="M78.6871 21.1495L82.6129 26.7165L82.439 26.8153L78.5132 21.2482L78.6871 21.1495Z" fill="#9DA1C0"/>
<path fill-rule="evenodd" clip-rule="evenodd" d="M78.8557 21.0509L82.7815 26.618L82.6126 26.7167L78.6868 21.1496L78.8557 21.0509Z" fill="#9DA1C0"/>
<path fill-rule="evenodd" clip-rule="evenodd" d="M79.0298 20.952L82.9506 26.5191L82.7816 26.6178L78.8558 21.0507L79.0298 20.952Z" fill="#9DA1C0"/>
<path fill-rule="evenodd" clip-rule="evenodd" d="M79.2038 20.8582L83.1247 26.4203L82.9508 26.519L79.0299 20.9519L79.2038 20.8582Z" fill="#9DA1C0"/>
<path fill-rule="evenodd" clip-rule="evenodd" d="M79.3723 20.7596L83.2932 26.3168L83.1242 26.4205L79.2034 20.8584L79.3723 20.7596Z" fill="#9DA1C0"/>
<path fill-rule="evenodd" clip-rule="evenodd" d="M79.5466 20.6606L83.4674 26.2178L83.2935 26.3166L79.3727 20.7594L79.5466 20.6606Z" fill="#9DA1C0"/>
<path fill-rule="evenodd" clip-rule="evenodd" d="M79.7207 20.5621L83.6366 26.1193L83.4676 26.218L79.5468 20.6608L79.7207 20.5621Z" fill="#9DA1C0"/>
<path fill-rule="evenodd" clip-rule="evenodd" d="M79.8941 20.4636L83.81 26.0208L83.6361 26.1195L79.7202 20.5623L79.8941 20.4636Z" fill="#9DA1C0"/>
<path fill-rule="evenodd" clip-rule="evenodd" d="M80.0635 20.3698L83.9794 25.922L83.8104 26.0207L79.8945 20.4635L80.0635 20.3698Z" fill="#9DA1C0"/>
<path fill-rule="evenodd" clip-rule="evenodd" d="M80.2375 20.2708L84.1534 25.8231L83.9795 25.9218L80.0636 20.3695L80.2375 20.2708Z" fill="#9DA1C0"/>
<path fill-rule="evenodd" clip-rule="evenodd" d="M80.4116 20.1722L84.3225 25.7196L84.1535 25.8232L80.2377 20.2709L80.4116 20.1722Z" fill="#9DA1C0"/>
<path fill-rule="evenodd" clip-rule="evenodd" d="M80.5852 20.0737L84.4961 25.621L84.3222 25.7197L80.4113 20.1724L80.5852 20.0737Z" fill="#9DA1C0"/>
<path fill-rule="evenodd" clip-rule="evenodd" d="M80.7544 19.9747L84.6653 25.5221L84.4963 25.6208L80.5854 20.0734L80.7544 19.9747Z" fill="#9DA1C0"/>
<path fill-rule="evenodd" clip-rule="evenodd" d="M80.9284 19.8762L84.8393 25.4236L84.6654 25.5223L80.7545 19.9749L80.9284 19.8762Z" fill="#9DA1C0"/>
<path fill-rule="evenodd" clip-rule="evenodd" d="M81.102 19.7823L85.008 25.3247L84.839 25.4235L80.9281 19.8761L81.102 19.7823Z" fill="#9DA1C0"/>
<path fill-rule="evenodd" clip-rule="evenodd" d="M81.2762 19.6835L85.1822 25.2259L85.0082 25.3246L81.1023 19.7822L81.2762 19.6835Z" fill="#9DA1C0"/>
<path fill-rule="evenodd" clip-rule="evenodd" d="M81.4446 19.5849L85.3505 25.1224L85.1816 25.226L81.2756 19.6836L81.4446 19.5849Z" fill="#9DA1C0"/>
<path fill-rule="evenodd" clip-rule="evenodd" d="M81.6189 19.4863L85.5248 25.0238L85.3509 25.1225L81.4449 19.585L81.6189 19.4863Z" fill="#9DA1C0"/>
<path fill-rule="evenodd" clip-rule="evenodd" d="M81.7929 19.3875L85.6939 24.9249L85.525 25.0236L81.619 19.4862L81.7929 19.3875Z" fill="#9DA1C0"/>
<path fill-rule="evenodd" clip-rule="evenodd" d="M81.9664 19.2888L85.8674 24.8263L85.6935 24.925L81.7925 19.3875L81.9664 19.2888Z" fill="#9DA1C0"/>
<path fill-rule="evenodd" clip-rule="evenodd" d="M82.1358 19.1951L86.0367 24.7276L85.8678 24.8263L81.9668 19.2888L82.1358 19.1951Z" fill="#9DA1C0"/>
<path fill-rule="evenodd" clip-rule="evenodd" d="M82.3098 19.0964L86.2108 24.624L86.0368 24.7277L82.1359 19.1951L82.3098 19.0964Z" fill="#9DA1C0"/>
<path fill-rule="evenodd" clip-rule="evenodd" d="M82.4834 18.9976L86.3794 24.5251L86.2104 24.6239L82.3094 19.0963L82.4834 18.9976Z" fill="#9DA1C0"/>
<path fill-rule="evenodd" clip-rule="evenodd" d="M82.6574 18.899L86.5534 24.4266L86.3795 24.5253L82.4835 18.9977L82.6574 18.899Z" fill="#9DA1C0"/>
<path fill-rule="evenodd" clip-rule="evenodd" d="M82.8267 18.8001L86.7227 24.3277L86.5537 24.4264L82.6577 18.8988L82.8267 18.8001Z" fill="#9DA1C0"/>
<path fill-rule="evenodd" clip-rule="evenodd" d="M83 18.7015L86.896 24.2291L86.722 24.3278L82.826 18.8002L83 18.7015Z" fill="#9DA1C0"/>
<path fill-rule="evenodd" clip-rule="evenodd" d="M83.1743 18.6077L87.0653 24.1304L86.8964 24.2291L83.0004 18.7015L83.1743 18.6077Z" fill="#9DA1C0"/>
<path fill-rule="evenodd" clip-rule="evenodd" d="M83.3436 18.5092L87.2396 24.0318L87.0657 24.1305L83.1747 18.6079L83.3436 18.5092Z" fill="#9DA1C0"/>
<path fill-rule="evenodd" clip-rule="evenodd" d="M83.5176 18.4102L87.4086 23.9279L87.2396 24.0316L83.3436 18.5089L83.5176 18.4102Z" fill="#9DA1C0"/>
<path fill-rule="evenodd" clip-rule="evenodd" d="M83.6911 18.3116L87.5822 23.8294L87.4082 23.9281L83.5172 18.4104L83.6911 18.3116Z" fill="#9DA1C0"/>
<path fill-rule="evenodd" clip-rule="evenodd" d="M83.8652 18.2131L87.7513 23.7308L87.5823 23.8295L83.6913 18.3118L83.8652 18.2131Z" fill="#9DA1C0"/>
<path fill-rule="evenodd" clip-rule="evenodd" d="M84.0338 18.1142L87.9249 23.6319L87.7509 23.7306L83.8649 18.2129L84.0338 18.1142Z" fill="#9DA1C0"/>
<path fill-rule="evenodd" clip-rule="evenodd" d="M84.2077 18.0203L88.0938 23.5331L87.9248 23.6318L84.0338 18.1141L84.2077 18.0203Z" fill="#9DA1C0"/>
<path fill-rule="evenodd" clip-rule="evenodd" d="M84.3821 17.9218L88.2681 23.4297L88.0942 23.5333L84.2081 18.0205L84.3821 17.9218Z" fill="#9DA1C0"/>
<path fill-rule="evenodd" clip-rule="evenodd" d="M84.5507 17.8229L88.4367 23.3307L88.2678 23.4294L84.3817 17.9216L84.5507 17.8229Z" fill="#9DA1C0"/>
<path fill-rule="evenodd" clip-rule="evenodd" d="M84.7246 17.7243L88.6106 23.2322L88.4367 23.3309L84.5507 17.823L84.7246 17.7243Z" fill="#9DA1C0"/>
<path fill-rule="evenodd" clip-rule="evenodd" d="M84.8989 17.6257L88.78 23.1336L88.611 23.2323L84.725 17.7244L84.8989 17.6257Z" fill="#9DA1C0"/>
<path fill-rule="evenodd" clip-rule="evenodd" d="M85.0725 17.5319L88.9536 23.0348L88.7797 23.1335L84.8986 17.6257L85.0725 17.5319Z" fill="#9DA1C0"/>
<path fill-rule="evenodd" clip-rule="evenodd" d="M85.2416 17.433L89.1227 22.931L88.9537 23.0346L85.0726 17.5317L85.2416 17.433Z" fill="#9DA1C0"/>
<path fill-rule="evenodd" clip-rule="evenodd" d="M85.4204 17.3344L89.2866 22.8324L89.2071 22.8817L89.1177 22.936L85.2366 17.4331L85.4204 17.3344Z" fill="#9DA1C0"/>
<path fill-rule="evenodd" clip-rule="evenodd" d="M85.5894 17.2359L89.4705 22.7388L89.2965 22.8326L85.4204 17.3346L85.5894 17.2359Z" fill="#9DA1C0"/>
<path fill-rule="evenodd" clip-rule="evenodd" d="M85.7634 17.1369L89.6495 22.6497L89.4706 22.7385L85.5895 17.2356L85.7634 17.1369Z" fill="#9DA1C0"/>
<path fill-rule="evenodd" clip-rule="evenodd" d="M85.9375 17.0384L89.8285 22.561L89.6496 22.6499L85.7635 17.1371L85.9375 17.0384Z" fill="#9DA1C0"/>
<path fill-rule="evenodd" clip-rule="evenodd" d="M86.1111 16.9446L90.007 22.4722L89.8281 22.561L85.9371 17.0384L86.1111 16.9446Z" fill="#9DA1C0"/>
<path fill-rule="evenodd" clip-rule="evenodd" d="M86.3052 16.8456L90.2161 22.388L90.0322 22.4719L86.1362 16.9443L86.3052 16.8456Z" fill="#9DA1C0"/>
<path fill-rule="evenodd" clip-rule="evenodd" d="M86.4538 16.7471L90.3746 22.3092L90.1907 22.3882L86.3047 16.8458L86.4538 16.7471Z" fill="#9DA1C0"/>
<path fill-rule="evenodd" clip-rule="evenodd" d="M86.6229 16.6485L90.5636 22.2304L90.3748 22.3093L86.454 16.7472L86.5534 16.6929L86.6229 16.6485Z" fill="#9DA1C0"/>
<path fill-rule="evenodd" clip-rule="evenodd" d="M86.8021 16.5449L90.7776 22.1564L90.5888 22.2304L86.6481 16.6485L86.8021 16.5449Z" fill="#9DA1C0"/>
<path fill-rule="evenodd" clip-rule="evenodd" d="M86.9706 16.451L90.9461 22.0872L90.7573 22.1563L86.7817 16.5448L86.9706 16.451Z" fill="#9DA1C0"/>
<path fill-rule="evenodd" clip-rule="evenodd" d="M87.1447 16.3572L91.1202 22.0181L90.9264 22.0872L86.9509 16.451L87.1447 16.3572Z" fill="#9DA1C0"/>
<path fill-rule="evenodd" clip-rule="evenodd" d="M87.3286 16.2733L91.3339 21.9538L91.1352 22.018L87.1597 16.3572L87.3286 16.2733Z" fill="#9DA1C0"/>
<path fill-rule="evenodd" clip-rule="evenodd" d="M87.5076 16.1846L91.5279 21.8898L91.3341 21.954L87.3287 16.2734L87.5076 16.1846Z" fill="#9DA1C0"/>
<path fill-rule="evenodd" clip-rule="evenodd" d="M87.6912 16.1203L91.7313 21.8453L91.5276 21.9045L87.5073 16.1993L87.6912 16.1203Z" fill="#9DA1C0"/>
<path fill-rule="evenodd" clip-rule="evenodd" d="M87.8807 16.0316L91.9308 21.7763L91.732 21.8306L87.6919 16.1204L87.8807 16.0316Z" fill="#9DA1C0"/>
<path fill-rule="evenodd" clip-rule="evenodd" d="M88.0738 15.9575L92.1388 21.7219L91.9301 21.7762L87.88 16.0315L88.0738 15.9575Z" fill="#9DA1C0"/>
<path fill-rule="evenodd" clip-rule="evenodd" d="M88.2928 15.8885L92.3727 21.6777L92.164 21.7221L88.099 15.9576L88.2928 15.8885Z" fill="#9DA1C0"/>
<path fill-rule="evenodd" clip-rule="evenodd" d="M88.4613 15.829L92.5561 21.6329L92.3474 21.6774L88.2924 15.8882L88.4613 15.829Z" fill="#9DA1C0"/>
<path fill-rule="evenodd" clip-rule="evenodd" d="M88.6659 15.7699L92.7656 21.5936L92.5519 21.6331L88.4572 15.8291C88.5253 15.8046 88.595 15.7848 88.6659 15.7699Z" fill="#9DA1C0"/>
<path fill-rule="evenodd" clip-rule="evenodd" d="M88.8689 15.7155L92.9885 21.5491L92.7699 21.5836L88.6652 15.7599L88.8689 15.7155Z" fill="#9DA1C0"/>
<path fill-rule="evenodd" clip-rule="evenodd" d="M89.0732 15.6662L93.2127 21.5491H92.9891L88.8695 15.7057L89.0732 15.6662Z" fill="#9DA1C0"/>
<path fill-rule="evenodd" clip-rule="evenodd" d="M89.2869 15.6268L93.4364 21.5146H93.2127L89.0732 15.6465L89.2869 15.6268Z" fill="#9DA1C0"/>
<path fill-rule="evenodd" clip-rule="evenodd" d="M89.5001 15.5873L93.6644 21.5098H93.4358L89.2864 15.6268L89.5001 15.5873Z" fill="#9DA1C0"/>
<path fill-rule="evenodd" clip-rule="evenodd" d="M89.7239 15.5578L93.9031 21.4802H93.6646L89.5002 15.5578H89.7239Z" fill="#9DA1C0"/>
<path fill-rule="evenodd" clip-rule="evenodd" d="M89.9474 15.533L94.1415 21.485H93.903L89.7238 15.5626L89.9474 15.533Z" fill="#9DA1C0"/>
<path fill-rule="evenodd" clip-rule="evenodd" d="M90.1766 15.5183L94.3906 21.495H94.1421L89.948 15.543L90.1766 15.5183Z" fill="#9DA1C0"/>
<path fill-rule="evenodd" clip-rule="evenodd" d="M90.415 15.5085L94.649 21.5148H94.3906L90.1765 15.5381L90.415 15.5085Z" fill="#9DA1C0"/>
<path fill-rule="evenodd" clip-rule="evenodd" d="M90.6532 15.5085L94.912 21.5493L94.6486 21.5148L90.4147 15.5085H90.6532Z" fill="#9DA1C0"/>
<path fill-rule="evenodd" clip-rule="evenodd" d="M90.9064 15.5233L95.185 21.5938C95.0956 21.5938 95.0061 21.5592 94.9117 21.5493L90.653 15.5085L90.9064 15.5233Z" fill="#9DA1C0"/>
<path fill-rule="evenodd" clip-rule="evenodd" d="M91.165 15.5429L95.4735 21.6627L95.1853 21.5936L90.9066 15.5231L91.165 15.5429Z" fill="#9DA1C0"/>
<path fill-rule="evenodd" clip-rule="evenodd" d="M91.4287 15.5823L95.7818 21.7515C95.6775 21.717 95.5781 21.6874 95.4737 21.6627L91.1653 15.5428L91.4287 15.5823Z" fill="#9DA1C0"/>
<path fill-rule="evenodd" clip-rule="evenodd" d="M91.7068 15.6269L96.1096 21.8651C96.0003 21.8191 95.891 21.7796 95.7816 21.7467L91.4285 15.5775L91.7068 15.6269Z" fill="#9DA1C0"/>
<path fill-rule="evenodd" clip-rule="evenodd" d="M92.0002 15.7057L96.4727 22.0378C96.3534 21.9786 96.2341 21.9193 96.1149 21.87L91.707 15.6268L92.0002 15.7057Z" fill="#9DA1C0"/>
<path fill-rule="evenodd" clip-rule="evenodd" d="M92.3132 15.8043L96.875 22.2746L96.7906 22.2203C96.6812 22.1561 96.5769 22.092 96.4675 22.0377L91.9951 15.7056C92.1044 15.7352 92.2088 15.7649 92.3132 15.8043Z" fill="#9DA1C0"/>
<path fill-rule="evenodd" clip-rule="evenodd" d="M92.6461 15.9329L97.3819 22.6548C97.2244 22.518 97.0585 22.3911 96.885 22.2748L92.3231 15.8046C92.4225 15.844 92.5368 15.8835 92.6461 15.9329Z" fill="#9DA1C0"/>
<path fill-rule="evenodd" clip-rule="evenodd" d="M93.0136 16.1202L98.0327 23.2469C97.7792 23.0001 97.5606 22.8126 97.3817 22.6645L92.6459 15.9426C92.7651 15.987 92.8943 16.0462 93.0136 16.1202Z" fill="#9DA1C0"/>
<path fill-rule="evenodd" clip-rule="evenodd" d="M93.4357 16.3671L98.902 24.1452C98.5741 23.78 98.2759 23.4789 98.0175 23.2371L93.0133 16.1203C93.1574 16.1894 93.2966 16.2733 93.4357 16.3671Z" fill="#9DA1C0"/>
<path fill-rule="evenodd" clip-rule="evenodd" d="M93.9828 16.8014L100.716 26.3365C100.041 25.4284 99.4442 24.7127 98.9274 24.1452L93.4611 16.3671C93.6532 16.499 93.8359 16.6441 94.0077 16.8014H93.9828ZM100.716 26.3562L100.741 26.3908C100.735 26.3779 100.727 26.3662 100.716 26.3562Z" fill="#9DA1C0"/>
<path fill-rule="evenodd" clip-rule="evenodd" d="M95.2502 18.2376L101.313 26.8548C101.09 26.7437 100.895 26.5853 100.741 26.3908L100.717 26.3563L93.983 16.8015C94.1275 16.9327 94.2636 17.0728 94.3905 17.221C94.3905 17.221 94.5744 17.4085 95.2502 18.2376Z" fill="#9DA1C0"/>
<path fill-rule="evenodd" clip-rule="evenodd" d="M96.9392 20.3104L101.645 26.978C101.531 26.9431 101.419 26.8985 101.312 26.8448L95.2496 18.2375C95.5826 18.6472 96.0249 19.2246 96.6262 19.9896C96.7205 20.1057 96.8253 20.2131 96.9392 20.3104Z" fill="#9DA1C0"/>
<path fill-rule="evenodd" clip-rule="evenodd" d="M97.4166 20.6413L101.934 27.0572C101.836 27.04 101.74 27.0169 101.646 26.9881L96.9396 20.3106C97.088 20.4352 97.2477 20.5459 97.4166 20.6413Z" fill="#9DA1C0"/>
<path fill-rule="evenodd" clip-rule="evenodd" d="M97.789 20.8286L102.207 27.0817H101.943L97.4263 20.6658C97.5428 20.7292 97.6641 20.7836 97.789 20.8286Z" fill="#9DA1C0"/>
<path fill-rule="evenodd" clip-rule="evenodd" d="M98.1121 20.9423L102.44 27.0868H102.207L97.7991 20.8337C97.8885 20.8683 97.9978 20.9078 98.1121 20.9423Z" fill="#9DA1C0"/>
<path fill-rule="evenodd" clip-rule="evenodd" d="M98.4054 21.0213L102.669 27.072H102.441L98.1122 20.9275L98.4054 21.0213Z" fill="#9DA1C0"/>
<path fill-rule="evenodd" clip-rule="evenodd" d="M98.6787 21.0555L102.893 27.0322L102.669 27.0618L98.4054 21.0111L98.6787 21.0555Z" fill="#9DA1C0"/>
<path fill-rule="evenodd" clip-rule="evenodd" d="M98.9372 21.0853L103.102 27.0077L102.893 27.0521L98.6788 21.0557L98.9372 21.0853Z" fill="#9DA1C0"/>
<path fill-rule="evenodd" clip-rule="evenodd" d="M99.1805 21.0902L103.31 26.9484L103.101 26.9978L98.937 21.0754L99.1805 21.0902Z" fill="#9DA1C0"/>
<path fill-rule="evenodd" clip-rule="evenodd" d="M99.4145 21.0557L103.509 26.8646L103.31 26.9287L99.1809 21.0705L99.4145 21.0557Z" fill="#9DA1C0"/>
<path fill-rule="evenodd" clip-rule="evenodd" d="M99.6376 21.0557L103.698 26.8201L103.504 26.8843L99.4139 21.0557H99.6376Z" fill="#9DA1C0"/>
<path fill-rule="evenodd" clip-rule="evenodd" d="M99.8519 21.0162L103.892 26.7462L103.703 26.8202L99.6382 21.0557L99.8519 21.0162Z" fill="#9DA1C0"/>
<path fill-rule="evenodd" clip-rule="evenodd" d="M100.06 20.9717L104.08 26.6671L103.892 26.746L99.8514 21.0161L100.06 20.9717Z" fill="#9DA1C0"/>
<path fill-rule="evenodd" clip-rule="evenodd" d="M100.264 20.9125L104.239 26.5832L104.061 26.6672L100.04 20.9718L100.264 20.9125Z" fill="#9DA1C0"/>
<path fill-rule="evenodd" clip-rule="evenodd" d="M100.463 20.8534L104.438 26.4945L104.259 26.5833L100.284 20.9126L100.463 20.8534Z" fill="#9DA1C0"/>
<path fill-rule="evenodd" clip-rule="evenodd" d="M100.657 20.7841L104.632 26.3955L104.488 26.4844H104.458L100.483 20.8433L100.657 20.7841Z" fill="#9DA1C0"/>
<path fill-rule="evenodd" clip-rule="evenodd" d="M100.84 20.7053L104.786 26.297L104.612 26.3957L100.637 20.7842L100.84 20.7053Z" fill="#9DA1C0"/>
<path fill-rule="evenodd" clip-rule="evenodd" d="M101.024 20.6263L104.955 26.1983L104.786 26.2971L100.84 20.7053L101.024 20.6263Z" fill="#9DA1C0"/>
<path fill-rule="evenodd" clip-rule="evenodd" d="M101.213 20.5621L105.129 26.1243L104.96 26.223L101.029 20.651L101.213 20.5621Z" fill="#9DA1C0"/>
<path fill-rule="evenodd" clip-rule="evenodd" d="M101.382 20.4438L105.298 25.9912L105.124 26.0948L101.213 20.5623L101.382 20.4438Z" fill="#9DA1C0"/>
<path fill-rule="evenodd" clip-rule="evenodd" d="M101.556 20.3449L105.467 25.8972L105.298 25.9959L101.382 20.4436L101.556 20.3449Z" fill="#9DA1C0"/>
<path fill-rule="evenodd" clip-rule="evenodd" d="M101.71 20.2463L105.626 25.7986L105.452 25.8973L101.542 20.345L101.656 20.2809L101.71 20.2463Z" fill="#9DA1C0"/>
<path fill-rule="evenodd" clip-rule="evenodd" d="M101.894 20.1427L105.809 25.6999L105.641 25.7986L101.71 20.2463L101.894 20.1427Z" fill="#9DA1C0"/>
<path fill-rule="evenodd" clip-rule="evenodd" d="M102.068 20.0686L105.984 25.6258L105.81 25.7245L101.894 20.1673L102.068 20.0686Z" fill="#9DA1C0"/>
<path fill-rule="evenodd" clip-rule="evenodd" d="M102.237 19.9404L106.153 25.4976L105.984 25.6013L102.068 20.0687L102.237 19.9404Z" fill="#9DA1C0"/>
<path fill-rule="evenodd" clip-rule="evenodd" d="M102.406 19.8416L106.327 25.3988L106.153 25.4975L102.237 19.9403L102.406 19.8416Z" fill="#9DA1C0"/>
<path fill-rule="evenodd" clip-rule="evenodd" d="M102.575 19.7379L106.496 25.3L106.327 25.3987L102.406 19.8415L102.575 19.7379Z" fill="#9DA1C0"/>
<path fill-rule="evenodd" clip-rule="evenodd" d="M102.748 19.6393L106.679 25.2014L106.505 25.3001L102.584 19.738L102.748 19.6393Z" fill="#9DA1C0"/>
<path fill-rule="evenodd" clip-rule="evenodd" d="M102.917 19.5356L106.838 25.0977L106.669 25.2014L102.749 19.6392L102.917 19.5356Z" fill="#9DA1C0"/>
<path fill-rule="evenodd" clip-rule="evenodd" d="M103.086 19.4367L107.012 25.0038L106.838 25.1025L102.917 19.5403L103.086 19.4367Z" fill="#9DA1C0"/>
<path fill-rule="evenodd" clip-rule="evenodd" d="M103.256 19.3381L107.181 24.9003L107.007 24.999L103.087 19.4368L103.256 19.3381Z" fill="#9DA1C0"/>
<path fill-rule="evenodd" clip-rule="evenodd" d="M103.43 19.2396L107.356 24.8017L107.182 24.9004L103.261 19.3383L103.43 19.2396Z" fill="#9DA1C0"/>
<path fill-rule="evenodd" clip-rule="evenodd" d="M103.603 19.1359L107.524 24.703L107.355 24.8017L103.429 19.2396L103.603 19.1359Z" fill="#9DA1C0"/>
<path fill-rule="evenodd" clip-rule="evenodd" d="M103.772 19.037L107.693 24.5991L107.524 24.7028L103.598 19.1357L103.772 19.037Z" fill="#9DA1C0"/>
<path fill-rule="evenodd" clip-rule="evenodd" d="M103.946 18.9384L107.867 24.5104L107.693 24.6091L103.772 19.047L103.946 18.9384Z" fill="#9DA1C0"/>
<path fill-rule="evenodd" clip-rule="evenodd" d="M104.115 18.8398L108.036 24.402L107.867 24.5007L103.942 18.9386L104.115 18.8398Z" fill="#9DA1C0"/>
<path fill-rule="evenodd" clip-rule="evenodd" d="M104.284 18.7409L108.205 24.303L108.036 24.4017L104.115 18.8396L104.284 18.7409Z" fill="#9DA1C0"/>
<path fill-rule="evenodd" clip-rule="evenodd" d="M104.458 18.6424L108.379 24.2045L108.21 24.3032L104.289 18.7411L104.458 18.6424Z" fill="#9DA1C0"/>
<path fill-rule="evenodd" clip-rule="evenodd" d="M104.627 18.5435L108.548 24.1007L108.379 24.1994L104.458 18.6422L104.627 18.5435Z" fill="#9DA1C0"/>
<path fill-rule="evenodd" clip-rule="evenodd" d="M104.801 18.4449L108.722 24.0021L108.548 24.1008L104.627 18.5436L104.801 18.4449Z" fill="#9DA1C0"/>
<path fill-rule="evenodd" clip-rule="evenodd" d="M104.975 18.3463L108.891 23.9035L108.722 24.0022L104.801 18.445L104.975 18.3463Z" fill="#9DA1C0"/>
<path fill-rule="evenodd" clip-rule="evenodd" d="M105.144 18.2474L109.065 23.8046L108.891 23.9033L104.975 18.3461L105.144 18.2474Z" fill="#9DA1C0"/>
<path fill-rule="evenodd" clip-rule="evenodd" d="M105.318 18.1488L109.234 23.706L109.065 23.8047L105.144 18.2475L105.318 18.1488Z" fill="#9DA1C0"/>
<path fill-rule="evenodd" clip-rule="evenodd" d="M105.492 18.0499L109.408 23.6022L109.234 23.7058L105.318 18.1486L105.492 18.0499Z" fill="#9DA1C0"/>
<path fill-rule="evenodd" clip-rule="evenodd" d="M105.661 17.9514L109.577 23.5036L109.408 23.6023L105.492 18.0501L105.661 17.9514Z" fill="#9DA1C0"/>
<path fill-rule="evenodd" clip-rule="evenodd" d="M105.835 17.8528L109.751 23.405L109.577 23.5038L105.661 17.9515L105.835 17.8528Z" fill="#9DA1C0"/>
<path fill-rule="evenodd" clip-rule="evenodd" d="M106.008 17.7538L109.919 23.3061L109.75 23.4048L105.834 17.8526L106.008 17.7538Z" fill="#9DA1C0"/>
<path fill-rule="evenodd" clip-rule="evenodd" d="M106.183 17.66L110.089 23.2024L109.92 23.3061L106.009 17.7538L106.183 17.66Z" fill="#9DA1C0"/>
<path fill-rule="evenodd" clip-rule="evenodd" d="M106.351 17.5615L110.262 23.1039L110.088 23.2026L106.182 17.6602L106.351 17.5615Z" fill="#9DA1C0"/>
<path fill-rule="evenodd" clip-rule="evenodd" d="M106.525 17.4626L110.431 23.005L110.262 23.1037L106.351 17.5613L106.525 17.4626Z" fill="#9DA1C0"/>
<path fill-rule="evenodd" clip-rule="evenodd" d="M106.699 17.364L110.605 22.9064L110.431 23.0051L106.525 17.4627L106.699 17.364Z" fill="#9DA1C0"/>
<path fill-rule="evenodd" clip-rule="evenodd" d="M106.874 17.2702L110.775 22.8077L110.606 22.9064L106.7 17.364L106.874 17.2702Z" fill="#9DA1C0"/>
<path fill-rule="evenodd" clip-rule="evenodd" d="M107.047 17.1716L110.948 22.7042L110.774 22.8078L106.873 17.2703L107.047 17.1716Z" fill="#9DA1C0"/>
<path fill-rule="evenodd" clip-rule="evenodd" d="M107.216 17.0727L111.117 22.6052L110.948 22.7039L107.047 17.1714L107.216 17.0727Z" fill="#9DA1C0"/>
<path fill-rule="evenodd" clip-rule="evenodd" d="M107.395 16.9792L111.291 22.5068H111.251L111.122 22.5809L107.221 17.0483L107.395 16.9792Z" fill="#9DA1C0"/>
<path fill-rule="evenodd" clip-rule="evenodd" d="M107.569 16.8804L111.46 22.3981L111.291 22.5067L107.395 16.9791L107.569 16.8804Z" fill="#9DA1C0"/>
<path fill-rule="evenodd" clip-rule="evenodd" d="M107.738 16.7817L111.649 22.2995L111.48 22.3982L107.589 16.8804L107.738 16.7817Z" fill="#9DA1C0"/>
<path fill-rule="evenodd" clip-rule="evenodd" d="M107.912 16.688L111.803 22.2008L111.629 22.2995L107.738 16.7818L107.912 16.688Z" fill="#9DA1C0"/>
<path fill-rule="evenodd" clip-rule="evenodd" d="M108.086 16.6138L111.977 22.1315L111.803 22.2253L107.912 16.7125L108.086 16.6138Z" fill="#9DA1C0"/>
<path fill-rule="evenodd" clip-rule="evenodd" d="M108.26 16.4956L112.146 22.0429L111.967 22.1318L108.086 16.6141L108.26 16.4956Z" fill="#9DA1C0"/>
<path fill-rule="evenodd" clip-rule="evenodd" d="M108.434 16.3966L112.335 21.9291L112.146 22.0426L108.25 16.52L108.434 16.3966Z" fill="#9DA1C0"/>
<path fill-rule="evenodd" clip-rule="evenodd" d="M108.608 16.3029L112.519 21.8452L112.335 21.9291L108.434 16.3966L108.608 16.3029Z" fill="#9DA1C0"/>
<path fill-rule="evenodd" clip-rule="evenodd" d="M108.781 16.2042L112.702 21.7664L112.518 21.8453L108.607 16.3029L108.781 16.2042Z" fill="#9DA1C0"/>
<path fill-rule="evenodd" clip-rule="evenodd" d="M108.955 16.1203L112.886 21.6972L112.702 21.7762L108.781 16.2141L108.955 16.1203Z" fill="#9DA1C0"/>
<path fill-rule="evenodd" clip-rule="evenodd" d="M109.13 16.0119L113.075 21.6135L112.887 21.6876L108.956 16.1205L109.125 16.0267L109.13 16.0119Z" fill="#9DA1C0"/>
<path fill-rule="evenodd" clip-rule="evenodd" d="M109.308 15.9229L113.284 21.5393L113.09 21.6133L109.144 16.0117L109.308 15.9229Z" fill="#9DA1C0"/>
<path fill-rule="evenodd" clip-rule="evenodd" d="M109.482 15.829L113.457 21.4701L113.264 21.5392L109.288 15.9227L109.482 15.829Z" fill="#9DA1C0"/>
<path fill-rule="evenodd" clip-rule="evenodd" d="M109.661 15.7454L113.637 21.4063L113.443 21.4704L109.467 15.8293L109.661 15.7454Z" fill="#9DA1C0"/>
<path fill-rule="evenodd" clip-rule="evenodd" d="M109.85 15.6614L113.856 21.347L113.657 21.4062L109.681 15.7453L109.85 15.6614Z" fill="#9DA1C0"/>
<path fill-rule="evenodd" clip-rule="evenodd" d="M110.033 15.5822L114.059 21.2875L113.855 21.3467L109.85 15.6612L110.033 15.5822Z" fill="#9DA1C0"/>
<path fill-rule="evenodd" clip-rule="evenodd" d="M110.222 15.5034L114.262 21.2334L114.059 21.2876L110.033 15.5824L110.222 15.5034Z" fill="#9DA1C0"/>
<path fill-rule="evenodd" clip-rule="evenodd" d="M110.411 15.4344L114.471 21.189L114.263 21.2334L110.222 15.5035L110.411 15.4344Z" fill="#9DA1C0"/>
<path fill-rule="evenodd" clip-rule="evenodd" d="M110.605 15.3651L114.68 21.1443L114.471 21.1888L110.411 15.4341L110.605 15.3651Z" fill="#9DA1C0"/>
<path fill-rule="evenodd" clip-rule="evenodd" d="M110.804 15.3011L114.894 21.1051L114.68 21.1446L110.605 15.3653L110.804 15.3011Z" fill="#9DA1C0"/>
<path fill-rule="evenodd" clip-rule="evenodd" d="M111.003 15.2468L115.127 21.0557L114.909 21.0902L110.804 15.3011L111.003 15.2468Z" fill="#9DA1C0"/>
<path fill-rule="evenodd" clip-rule="evenodd" d="M111.207 15.1924L115.331 21.0556H115.127L111.018 15.2319L111.207 15.1924Z" fill="#9DA1C0"/>
<path fill-rule="evenodd" clip-rule="evenodd" d="M111.415 15.1332L115.56 21.0112H115.331L111.207 15.1629L111.415 15.1332Z" fill="#9DA1C0"/>
<path fill-rule="evenodd" clip-rule="evenodd" d="M111.649 15.1037L115.808 21.0261C115.732 21.0212 115.656 21.0212 115.58 21.0261L111.416 15.1333L111.649 15.1037Z" fill="#9DA1C0"/>
<path fill-rule="evenodd" clip-rule="evenodd" d="M111.847 15.069L116.027 20.9914H115.788L111.629 15.069H111.847Z" fill="#9DA1C0"/>
<path fill-rule="evenodd" clip-rule="evenodd" d="M112.066 15.0394L116.271 20.9964H116.027L111.848 15.074C111.92 15.0576 111.993 15.0461 112.066 15.0394Z" fill="#9DA1C0"/>
<path fill-rule="evenodd" clip-rule="evenodd" d="M112.295 15.015L116.519 21.0065H116.27L112.066 15.0495L112.295 15.015Z" fill="#9DA1C0"/>
<path fill-rule="evenodd" clip-rule="evenodd" d="M112.523 15.0051L116.772 21.0263H116.519L112.295 15.0347L112.523 15.0051Z" fill="#9DA1C0"/>
<path fill-rule="evenodd" clip-rule="evenodd" d="M112.767 15L117.036 21.0557L116.772 21.0261L112.523 15.0049H112.767V15Z" fill="#9DA1C0"/>
<path fill-rule="evenodd" clip-rule="evenodd" d="M113.01 15.0049L117.309 21.105L117.035 21.0557L112.767 15L113.01 15.0049Z" fill="#9DA1C0"/>
<path fill-rule="evenodd" clip-rule="evenodd" d="M113.264 15.0249L117.612 21.1644C117.519 21.14 117.424 21.1202 117.329 21.1052L113.031 15.0051L113.264 15.0249Z" fill="#9DA1C0"/>
<path fill-rule="evenodd" clip-rule="evenodd" d="M113.527 15.0544L117.89 21.2433L117.592 21.1644L113.264 15.0248L113.527 15.0544Z" fill="#9DA1C0"/>
<path fill-rule="evenodd" clip-rule="evenodd" d="M113.801 15.0988L118.204 21.3469C118.101 21.3075 117.997 21.2729 117.891 21.2433L113.528 15.0544L113.801 15.0988Z" fill="#9DA1C0"/>
<path fill-rule="evenodd" clip-rule="evenodd" d="M114.084 15.1627L118.556 21.48C118.442 21.4306 118.333 21.3862 118.218 21.3467L113.816 15.0986L114.084 15.1627Z" fill="#9DA1C0"/>
<path fill-rule="evenodd" clip-rule="evenodd" d="M114.387 15.2467L118.904 21.6627C118.787 21.5991 118.665 21.5414 118.542 21.4899L114.069 15.1727C114.177 15.1916 114.283 15.2164 114.387 15.2467Z" fill="#9DA1C0"/>
<path fill-rule="evenodd" clip-rule="evenodd" d="M114.705 15.3553L119.311 21.8848C119.177 21.8009 119.038 21.7219 118.904 21.6528L114.387 15.2369C114.496 15.2764 114.6 15.3158 114.705 15.3553Z" fill="#9DA1C0"/>
<path fill-rule="evenodd" clip-rule="evenodd" d="M115.048 15.4983L119.779 22.2104C119.625 22.0919 119.466 21.9833 119.312 21.8846L114.705 15.3552C114.824 15.3996 114.939 15.4489 115.048 15.4983Z" fill="#9DA1C0"/>
<path fill-rule="evenodd" clip-rule="evenodd" d="M115.426 15.6862L120.395 22.7536C120.199 22.5592 119.99 22.3778 119.769 22.2107L115.038 15.4987C115.182 15.5579 115.307 15.627 115.426 15.6862Z" fill="#9DA1C0"/>
<path fill-rule="evenodd" clip-rule="evenodd" d="M115.853 15.9574L122.452 25.3345C122.123 25.0019 121.832 24.6326 121.588 24.2339C121.25 23.6969 120.852 23.2001 120.4 22.7533L115.431 15.6859C115.585 15.7797 115.729 15.8685 115.853 15.9574Z" fill="#9DA1C0"/>
<path fill-rule="evenodd" clip-rule="evenodd" d="M116.434 16.4363L123.058 25.8135C122.843 25.6562 122.641 25.483 122.452 25.2953L115.853 15.9181C116.064 16.0705 116.259 16.2441 116.434 16.4363Z" fill="#9DA1C0"/>
<path fill-rule="evenodd" clip-rule="evenodd" d="M118.392 18.8692L123.496 26.1093C123.344 26.0259 123.198 25.9336 123.058 25.833L116.434 16.4558C117.14 17.2109 117.711 18.0943 118.392 18.8692Z" fill="#9DA1C0"/>
<path fill-rule="evenodd" clip-rule="evenodd" d="M119.272 19.7726L123.854 26.2773C123.732 26.2274 123.612 26.1714 123.496 26.1095L118.392 18.8694C118.606 19.1211 118.835 19.3629 119.078 19.6048L119.272 19.7726Z" fill="#9DA1C0"/>
<path fill-rule="evenodd" clip-rule="evenodd" d="M119.734 20.0687L124.171 26.3859C124.067 26.3563 123.958 26.3169 123.853 26.2774L119.272 19.7726C119.416 19.8848 119.571 19.9839 119.734 20.0687Z" fill="#9DA1C0"/>
<path fill-rule="evenodd" clip-rule="evenodd" d="M120.097 20.2611L124.46 26.45L124.172 26.3858L119.734 20.0686C119.85 20.1409 119.972 20.2052 120.097 20.2611Z" fill="#9DA1C0"/>
<path fill-rule="evenodd" clip-rule="evenodd" d="M120.419 20.3745L124.723 26.4845C124.635 26.4795 124.547 26.4696 124.46 26.4548L120.096 20.261C120.206 20.3054 120.31 20.34 120.419 20.3745Z" fill="#9DA1C0"/>
<path fill-rule="evenodd" clip-rule="evenodd" d="M120.708 20.4437L124.972 26.4846H124.723L120.42 20.3796L120.708 20.4437Z" fill="#9DA1C0"/>
<path fill-rule="evenodd" clip-rule="evenodd" d="M120.981 20.4881L125.2 26.4845H124.972L120.708 20.4387L120.981 20.4881Z" fill="#9DA1C0"/>
<path fill-rule="evenodd" clip-rule="evenodd" d="M121.245 20.5129L125.424 26.4353L125.201 26.4699L120.982 20.4833C121.069 20.498 121.157 20.5079 121.245 20.5129Z" fill="#9DA1C0"/>
<path fill-rule="evenodd" clip-rule="evenodd" d="M121.488 20.5225L125.633 26.3956L125.424 26.44L121.245 20.5176L121.488 20.5225Z" fill="#9DA1C0"/>
<path fill-rule="evenodd" clip-rule="evenodd" d="M121.727 20.5176L125.831 26.3363L125.633 26.3956L121.488 20.5225L121.727 20.5176Z" fill="#9DA1C0"/>
<path fill-rule="evenodd" clip-rule="evenodd" d="M121.96 20.503L126.02 26.2625L125.832 26.3366L121.727 20.5178L121.96 20.503Z" fill="#9DA1C0"/>
<path fill-rule="evenodd" clip-rule="evenodd" d="M122.184 20.4781L126.199 26.1735L126.099 26.2328L126.02 26.2624L121.96 20.5028L122.184 20.4781Z" fill="#9DA1C0"/>
<path fill-rule="evenodd" clip-rule="evenodd" d="M122.403 20.4438L126.378 26.08L126.204 26.1738L122.184 20.4784L122.403 20.4438Z" fill="#9DA1C0"/>
<path fill-rule="evenodd" clip-rule="evenodd" d="M122.611 20.4041L126.557 25.9909L126.383 26.0896L122.408 20.4534L122.611 20.4041Z" fill="#9DA1C0"/>
<path fill-rule="evenodd" clip-rule="evenodd" d="M122.82 20.3548L126.716 25.8824L126.557 25.991L122.622 20.414L122.82 20.3548Z" fill="#9DA1C0"/>
<path fill-rule="evenodd" clip-rule="evenodd" d="M123.024 20.2956L126.89 25.7837L126.716 25.8824L122.82 20.3548L123.024 20.2956Z" fill="#9DA1C0"/>
<path fill-rule="evenodd" clip-rule="evenodd" d="M123.217 20.2314L127.064 25.6603L126.89 25.759L123.024 20.2709C123.103 20.2709 123.173 20.2511 123.217 20.2314Z" fill="#9DA1C0"/>
<path fill-rule="evenodd" clip-rule="evenodd" d="M123.397 20.1475L127.238 25.5763L127.064 25.6701L123.218 20.2412L123.292 20.2116L123.397 20.1475Z" fill="#9DA1C0"/>
<path fill-rule="evenodd" clip-rule="evenodd" d="M123.57 20.0488L127.407 25.4925L127.233 25.5863L123.396 20.1475L123.57 20.0488Z" fill="#9DA1C0"/>
<path fill-rule="evenodd" clip-rule="evenodd" d="M123.745 19.9503L127.581 25.394L127.407 25.4927L123.571 20.049L123.745 19.9503Z" fill="#9DA1C0"/>
<path fill-rule="evenodd" clip-rule="evenodd" d="M123.918 19.8564L127.75 25.2952L127.581 25.3939L123.744 19.9502L123.918 19.8564Z" fill="#9DA1C0"/>
<path fill-rule="evenodd" clip-rule="evenodd" d="M124.092 19.7576L127.924 25.1963L127.75 25.295L123.918 19.8563L124.092 19.7576Z" fill="#9DA1C0"/>
<path fill-rule="evenodd" clip-rule="evenodd" d="M124.266 19.6638L128.098 25.0976L127.924 25.1963L124.093 19.7575L124.266 19.6638Z" fill="#9DA1C0"/>
<path fill-rule="evenodd" clip-rule="evenodd" d="M124.435 19.5652L128.271 25.0039L128.097 25.0977L124.266 19.6639L124.435 19.5652Z" fill="#9DA1C0"/>
<path fill-rule="evenodd" clip-rule="evenodd" d="M124.609 19.4666L128.445 24.9054L128.271 25.0041L124.435 19.5653L124.609 19.4666Z" fill="#9DA1C0"/>
<path fill-rule="evenodd" clip-rule="evenodd" d="M124.783 19.3728L128.615 24.8066L128.446 24.9053L124.609 19.4666L124.783 19.3728Z" fill="#9DA1C0"/>
<path fill-rule="evenodd" clip-rule="evenodd" d="M124.957 19.2739L128.788 24.7077L128.614 24.8064L124.783 19.3726L124.957 19.2739Z" fill="#9DA1C0"/>
<path fill-rule="evenodd" clip-rule="evenodd" d="M125.131 19.1801L128.962 24.6089L128.788 24.7076L124.957 19.2738L125.131 19.1801Z" fill="#9DA1C0"/>
<path fill-rule="evenodd" clip-rule="evenodd" d="M125.304 19.0815L129.131 24.5154L128.962 24.6091L125.131 19.1802L125.304 19.0815Z" fill="#9DA1C0"/>
<path fill-rule="evenodd" clip-rule="evenodd" d="M125.479 18.983L129.305 24.4168L129.131 24.5155L125.305 19.0817L125.479 18.983Z" fill="#9DA1C0"/>
<path fill-rule="evenodd" clip-rule="evenodd" d="M125.653 18.8892L129.479 24.318L129.305 24.4167L125.479 18.9829L125.653 18.8892Z" fill="#9DA1C0"/>
<path fill-rule="evenodd" clip-rule="evenodd" d="M125.821 18.7902L129.653 24.2191L129.479 24.3178L125.652 18.8889L125.821 18.7902Z" fill="#9DA1C0"/>
<path fill-rule="evenodd" clip-rule="evenodd" d="M125.995 18.6964L129.827 24.1204L129.653 24.2191L125.822 18.7902L125.995 18.6964Z" fill="#9DA1C0"/>
<path fill-rule="evenodd" clip-rule="evenodd" d="M126.17 18.5978L129.996 24.0267L129.827 24.1205L125.996 18.6965L126.17 18.5978Z" fill="#9DA1C0"/>
<path fill-rule="evenodd" clip-rule="evenodd" d="M126.343 18.4993L130.17 23.9281L129.996 24.0269L126.169 18.598L126.343 18.4993Z" fill="#9DA1C0"/>
<path fill-rule="evenodd" clip-rule="evenodd" d="M126.517 18.4055L130.344 23.8294L130.17 23.9281L126.343 18.4992L126.517 18.4055Z" fill="#9DA1C0"/>
<path fill-rule="evenodd" clip-rule="evenodd" d="M126.691 18.3066L130.512 23.7305L130.343 23.8292L126.517 18.4053L126.691 18.3066Z" fill="#9DA1C0"/>
<path fill-rule="evenodd" clip-rule="evenodd" d="M126.865 18.2131L130.687 23.6321L130.513 23.7308L126.691 18.3068L126.865 18.2131Z" fill="#9DA1C0"/>
<path fill-rule="evenodd" clip-rule="evenodd" d="M127.039 18.1142L130.861 23.5381L130.687 23.6319L126.865 18.2129L127.039 18.1142Z" fill="#9DA1C0"/>
<path fill-rule="evenodd" clip-rule="evenodd" d="M127.213 18.0156L131.034 23.4396L130.86 23.5383L127.039 18.1143L127.213 18.0156Z" fill="#9DA1C0"/>
<path fill-rule="evenodd" clip-rule="evenodd" d="M127.387 17.9218L131.204 23.3408L131.035 23.4395L127.213 18.0156L127.387 17.9218Z" fill="#9DA1C0"/>
<path fill-rule="evenodd" clip-rule="evenodd" d="M127.556 17.8229L131.377 23.2419L131.203 23.3406L127.387 17.9216L127.556 17.8229Z" fill="#9DA1C0"/>
<path fill-rule="evenodd" clip-rule="evenodd" d="M127.73 17.7294L131.551 23.1435L131.377 23.2422L127.556 17.8232L127.73 17.7294Z" fill="#9DA1C0"/>
<path fill-rule="evenodd" clip-rule="evenodd" d="M127.904 17.6305L131.725 23.0446L131.551 23.1433L127.73 17.7292L127.904 17.6305Z" fill="#9DA1C0"/>
<path fill-rule="evenodd" clip-rule="evenodd" d="M128.078 17.5319L131.899 22.9608L131.725 23.0595L127.909 17.6306L128.078 17.5319Z" fill="#9DA1C0"/>
<path fill-rule="evenodd" clip-rule="evenodd" d="M128.256 17.4381L132.073 22.867L131.899 22.9657L128.078 17.5368L128.256 17.4381Z" fill="#9DA1C0"/>
<path fill-rule="evenodd" clip-rule="evenodd" d="M128.43 17.3494L132.242 22.7782L132.073 22.877L128.256 17.4481L128.43 17.3494Z" fill="#9DA1C0"/>
<path fill-rule="evenodd" clip-rule="evenodd" d="M128.614 17.2654L132.416 22.6548L132.242 22.7535L128.43 17.3247L128.614 17.2654Z" fill="#9DA1C0"/>
<path fill-rule="evenodd" clip-rule="evenodd" d="M128.803 17.1862L132.59 22.5361L132.416 22.6348L128.614 17.2454L128.803 17.1862Z" fill="#9DA1C0"/>
<path fill-rule="evenodd" clip-rule="evenodd" d="M128.992 17.1074L132.764 22.4573L132.59 22.5511L128.803 17.1815L128.992 17.1074Z" fill="#9DA1C0"/>
<path fill-rule="evenodd" clip-rule="evenodd" d="M129.191 17.0482L132.933 22.3636L132.764 22.4623L128.992 17.1074L129.191 17.0482Z" fill="#9DA1C0"/>
<path fill-rule="evenodd" clip-rule="evenodd" d="M129.389 16.9938L133.107 22.2648L132.933 22.3635L129.191 17.0481L129.389 16.9938Z" fill="#9DA1C0"/>
<path fill-rule="evenodd" clip-rule="evenodd" d="M129.599 16.9493L133.281 22.166L133.107 22.2647L129.39 16.9938C129.458 16.9747 129.528 16.9599 129.599 16.9493Z" fill="#9DA1C0"/>
<path fill-rule="evenodd" clip-rule="evenodd" d="M129.817 16.9099L133.455 22.0674L133.281 22.1661L129.599 16.9494L129.817 16.9099Z" fill="#9DA1C0"/>
<path fill-rule="evenodd" clip-rule="evenodd" d="M130.035 16.8901L133.618 21.9735L133.449 22.0673L129.817 16.9099L130.035 16.8901Z" fill="#9DA1C0"/>
<path fill-rule="evenodd" clip-rule="evenodd" d="M130.279 16.8804L133.797 21.8749L133.623 21.9736L130.035 16.8902L130.279 16.8804Z" fill="#9DA1C0"/>
<path fill-rule="evenodd" clip-rule="evenodd" d="M130.532 16.8951L133.976 21.7762L133.802 21.8749L130.284 16.8803C130.367 16.8802 130.45 16.8851 130.532 16.8951Z" fill="#9DA1C0"/>
<path fill-rule="evenodd" clip-rule="evenodd" d="M130.795 16.9347L134.145 21.6776L133.971 21.7763L130.532 16.8953C130.621 16.9031 130.709 16.9162 130.795 16.9347Z" fill="#9DA1C0"/>
<path fill-rule="evenodd" clip-rule="evenodd" d="M131.094 17.0088L134.314 21.5789L134.145 21.6776L130.796 16.9348C130.897 16.9536 130.996 16.9783 131.094 17.0088Z" fill="#9DA1C0"/>
<path fill-rule="evenodd" clip-rule="evenodd" d="M131.432 17.147L134.508 21.4852L134.334 21.579L131.114 17.0089C131.223 17.048 131.329 17.0941 131.432 17.147Z" fill="#9DA1C0"/>
<path fill-rule="evenodd" clip-rule="evenodd" d="M131.869 17.4281L134.662 21.3764L134.488 21.4751L131.432 17.1369C131.589 17.217 131.735 17.3147 131.869 17.4281Z" fill="#9DA1C0"/>
<path fill-rule="evenodd" clip-rule="evenodd" d="M132.759 18.3411L134.836 21.3023L134.662 21.401L131.869 17.4527C131.953 17.5172 132.029 17.59 132.098 17.6699C132.098 17.6699 132.346 17.8919 132.759 18.3411Z" fill="#9DA1C0"/>
<path fill-rule="evenodd" clip-rule="evenodd" d="M134.836 21.2874L132.759 18.3262C133.567 19.2325 134.318 20.1886 135.005 21.1887L134.836 21.2874Z" fill="#9DA1C0"/>
</g>
<defs>
<clipPath id="clip0">
<rect width="99" height="50" fill="white" transform="translate(36 15)"/>
</clipPath>
</defs>
</svg>
