<svg width="170" height="80" viewBox="0 0 170 80" fill="none" xmlns="http://www.w3.org/2000/svg">
<g clip-path="url(#clip0)">
<path fill-rule="evenodd" clip-rule="evenodd" d="M40.4345 35.0303L42.2499 33.1822L44.055 35.0303L42.2395 36.8731L40.4345 35.0303ZM48.8128 28.2893C46.6686 30.2591 45.2653 30.937 44.9262 33.4364C44.5871 35.9358 45.9174 41.0511 45.9174 41.0511H42.8603C42.8603 41.0511 44.9158 43.5029 45.6148 43.6353C46.3139 43.7677 46.9086 43.6882 46.9086 43.6882C47.7694 45.6316 48.072 48.2634 47.5711 49.0683C47.3155 49.8415 45.0879 52.1661 42.2239 51.1335C39.3598 50.1009 36.3653 48.417 35.8541 44.562C35.3428 40.7069 37.1948 38.88 38.8485 36.9419C35.155 39.3354 33.4334 41.7819 33.0526 44.885C32.6718 47.9881 34.4559 51.0276 36.4279 52.7063C38.3999 54.3849 41.457 55.6134 43.1785 55.0309C44.9001 54.4485 48.0198 50.8952 48.9171 48.8936C48.9849 46.8231 49.0319 43.6882 49.0319 43.6882C49.0319 43.6882 53.821 43.72 55.5843 43.3546C57.3476 42.9892 59.7578 41.766 59.9091 39.1607C60.0603 36.5554 58.0049 34.5272 55.2139 33.447C55.7646 34.0737 56.1298 34.8456 56.2673 35.6738C56.4048 36.502 56.3091 37.3527 55.9912 38.1281C55.4382 39.4784 54.8956 40.1297 53.0489 40.6222C51.2021 41.1147 48.7554 41.1517 48.2702 40.5534C48.0198 40.1033 46.6791 32.6421 48.7919 28.3104L48.8128 28.2893ZM50.4143 27.389L53.8523 24C61.3698 29.3642 62.9401 34.0612 63.9156 37.5085C64.8912 40.9558 65.0268 49.1954 59.8412 53.0028C54.6557 56.8102 48.2598 55.9788 45.6983 55.7935L49.0371 52.505C52.2246 52.378 55.8973 51.8908 59.1526 48.5176C62.4079 45.1445 64.093 39.7485 62.0271 35.5651C59.9612 31.3818 54.1444 28.3846 50.4143 27.389ZM53.9983 46.749L55.8138 44.9062L57.6293 46.749L55.8138 48.5918L53.9983 46.749ZM49.8248 46.749L51.6403 44.9062L53.461 46.749L51.6403 48.5918L49.8248 46.749Z" fill="#9DA1C0"/>
<path fill-rule="evenodd" clip-rule="evenodd" d="M68.0834 26.4836V27.4209H69.1268V36.5395H72.7786C73.7516 36.6009 74.718 36.3408 75.5331 35.7982C75.8378 35.5424 76.0788 35.2173 76.2366 34.8493C76.3943 34.4812 76.4643 34.0806 76.4409 33.68C76.4405 33.4141 76.4 33.1498 76.3209 32.8963C76.2465 32.6499 76.1299 32.4186 75.9766 32.2132C75.8127 32.0063 75.6172 31.8275 75.3975 31.6836C75.1488 31.5202 74.8758 31.3986 74.5889 31.3236L74.1872 31.2229L74.5576 31.0429C74.9713 30.8537 75.3305 30.5602 75.601 30.1903C75.8336 29.8289 75.9519 29.404 75.94 28.9724C75.9462 28.6199 75.8682 28.2711 75.7129 27.9558C75.5576 27.6405 75.3295 27.3679 75.048 27.1614C74.7348 26.9219 74.3812 26.7425 74.0046 26.6318C73.5449 26.51 73.0711 26.4512 72.596 26.4571L68.0834 26.4836ZM70.1702 30.8205V27.4156H72.4604C72.8348 27.4074 73.209 27.4393 73.5768 27.5109C73.8486 27.5628 74.1075 27.669 74.3385 27.8233C74.533 27.9533 74.6869 28.137 74.7819 28.3528C74.876 28.5844 74.9222 28.8332 74.9175 29.0836C74.9386 29.3398 74.895 29.5972 74.791 29.8316C74.6869 30.066 74.5258 30.2696 74.3228 30.4233C73.7919 30.7127 73.1923 30.8465 72.5908 30.8099L70.1702 30.8205ZM70.1702 35.5863V31.7366H72.596C73.0248 31.7335 73.4528 31.7725 73.8742 31.8531C74.1796 31.9101 74.4706 32.0289 74.7297 32.2026C74.9502 32.3547 75.1181 32.5733 75.2097 32.8274C75.304 33.1013 75.3499 33.3899 75.3453 33.68C75.3453 35.2157 74.0881 35.6128 72.7838 35.6128L70.1702 35.5863ZM100.871 36.5183L97.8666 31.9484L100.501 29.3007H99.2803L97.011 31.8319H96.0876V31.6836C96.0876 29.682 96.0876 27.6856 96.0876 25.6893H94.2043V26.6266H95.0755V36.4919H96.0824V32.7057H97.2458L99.6664 36.5183H100.871ZM87.3859 29.3484H85.44V30.2645H86.379V36.5183H87.3859V31.2229L87.4224 31.1806C87.6704 30.8306 87.9889 30.5382 88.3568 30.3227C88.7246 30.1072 89.1335 29.9737 89.5561 29.9309C89.7716 29.9145 89.988 29.9473 90.1893 30.0271C90.3907 30.1068 90.5718 30.2314 90.7194 30.3916C90.9834 30.8141 91.106 31.3118 91.069 31.8107V36.5024H92.1124V31.7366C92.1124 30.0897 91.4394 29.1207 89.7491 29.1207C89.3708 29.1204 88.9976 29.2093 88.6588 29.3802C88.27 29.6039 87.9293 29.9046 87.6571 30.2645L87.3963 30.5663V29.3484H87.3859ZM82.6907 36.5395H84.4175V35.6022H83.7341V31.8531C83.7469 31.3964 83.6798 30.941 83.5358 30.5081C83.4204 30.1943 83.2283 29.9155 82.9776 29.6979C82.7176 29.4922 82.4139 29.3508 82.0907 29.2848C81.691 29.201 81.2834 29.1619 80.8752 29.1683C80.2231 29.1683 79.1484 29.2848 78.6528 29.7773C78.4807 29.9468 78.3137 30.1109 78.465 30.3439C78.6163 30.5769 78.8041 30.524 78.9867 30.3969C79.5316 30.0667 80.1573 29.8996 80.7917 29.915C81.1449 29.904 81.4975 29.9523 81.8351 30.058C82.0784 30.1371 82.2892 30.2952 82.4351 30.5081C82.5658 30.7185 82.6429 30.9588 82.6594 31.2071C82.6594 31.4983 82.6855 31.7895 82.6855 32.0755V32.2291H81.8925C80.2231 32.2291 77.5834 32.4674 77.5834 34.7126C77.5792 34.9964 77.6399 35.2774 77.7607 35.5334C77.8785 35.7762 78.0457 35.991 78.2511 36.1635C78.4757 36.345 78.73 36.4848 79.0024 36.5766C79.3068 36.6789 79.6259 36.729 79.9466 36.7248C80.8602 36.7566 81.7516 36.4348 82.4403 35.8246L82.6855 35.5969V36.5448L82.6907 36.5395ZM82.6646 34.8079C82.3973 35.169 82.0484 35.4596 81.6473 35.6552C81.4424 35.7563 81.2272 35.8344 81.0056 35.8882C80.7833 35.941 80.5558 35.9676 80.3274 35.9676C79.8998 35.985 79.4773 35.8685 79.1171 35.634C78.9585 35.5218 78.8304 35.3707 78.7447 35.1948C78.6589 35.019 78.6184 34.8239 78.6267 34.6279C78.6267 33.0816 80.4892 32.9016 81.6317 32.9016H82.675V34.7709L82.6646 34.8079Z" fill="#9DA1C0"/>
<path fill-rule="evenodd" clip-rule="evenodd" d="M77.9068 44.4826L75.0531 52.5633H73.5507L70.7179 44.4826V52.5633H69.059V41.9143H71.4744L74.3019 50.2387L77.1555 41.9143H79.5605V52.5686H77.8911V44.4826H77.9068ZM131.943 51.0224H132.653V52.5633H130.336V51.9755C129.627 52.5003 128.767 52.7722 127.89 52.7487C127.535 52.7507 127.183 52.6953 126.846 52.5845C126.539 52.4815 126.253 52.3237 126.001 52.1185C125.761 51.9199 125.567 51.6705 125.432 51.3878C125.293 51.0881 125.222 50.7606 125.224 50.4293C125.224 47.9775 127.968 47.6492 129.83 47.6492H130.326C130.326 47.4162 130.326 47.1832 130.326 46.9502C130.314 46.7534 130.255 46.5624 130.154 46.3942C130.04 46.238 129.882 46.1214 129.7 46.0606C128.823 45.8238 127.891 45.9336 127.091 46.3677C127.023 46.427 126.942 46.4708 126.856 46.4962C126.769 46.5216 126.678 46.528 126.589 46.515C126.499 46.502 126.414 46.4698 126.338 46.4207C126.262 46.3716 126.197 46.3066 126.147 46.2301C125.907 45.8541 126.1 45.5628 126.377 45.2822C126.94 44.7209 128.062 44.5885 128.808 44.5885C129.239 44.5842 129.669 44.625 130.091 44.7103C130.459 44.7876 130.803 44.9508 131.098 45.1869C131.388 45.4367 131.611 45.7574 131.745 46.1189C131.903 46.587 131.978 47.0803 131.964 47.5751V51.0224H131.943ZM119.423 51.0224H120.137V52.5633H117.816V51.9755C117.107 52.5003 116.246 52.7722 115.369 52.7487C115.015 52.7507 114.663 52.6953 114.326 52.5845C114.021 52.4815 113.736 52.3236 113.486 52.1185C113.245 51.9201 113.049 51.6707 112.912 51.3878C112.774 51.0877 112.705 50.7602 112.709 50.4293C112.709 47.9775 115.447 47.6492 117.31 47.6492H117.832C117.832 47.4162 117.832 47.1832 117.805 46.9502C117.794 46.7525 117.733 46.561 117.628 46.3942C117.515 46.2369 117.357 46.1201 117.174 46.0606C116.861 45.9672 116.535 45.926 116.209 45.9388C115.632 45.9221 115.063 46.0708 114.566 46.3677C114.497 46.427 114.417 46.4708 114.33 46.4962C114.243 46.5216 114.152 46.528 114.063 46.515C113.974 46.502 113.888 46.4698 113.812 46.4207C113.736 46.3716 113.671 46.3066 113.621 46.2301C113.382 45.8541 113.575 45.5628 113.856 45.2822C114.414 44.7209 115.536 44.5885 116.282 44.5885C116.713 44.5839 117.143 44.6247 117.565 44.7103C117.935 44.7875 118.281 44.9507 118.578 45.1869C118.866 45.437 119.087 45.7578 119.219 46.1189C119.378 46.587 119.452 47.0803 119.438 47.5751V51.0224H119.423ZM101.257 45.0915C101.518 44.7888 101.839 44.5448 102.198 44.3752C102.558 44.2056 102.948 44.1141 103.344 44.1066C103.846 44.0581 104.35 44.1765 104.78 44.4439C105.21 44.7113 105.543 45.1133 105.728 45.5893L105.89 45.3881C106.164 45.017 106.514 44.7104 106.915 44.4892C107.317 44.268 107.761 44.1375 108.217 44.1066C110.173 44.1066 110.867 45.4357 110.867 47.2838V52.7699H109.245V47.3368C109.25 47.0575 109.224 46.7786 109.166 46.5054C109.135 46.314 109.06 46.1327 108.947 45.9759C108.858 45.8504 108.735 45.7545 108.592 45.7005C108.408 45.6346 108.214 45.6023 108.019 45.6052C107.635 45.6399 107.265 45.7676 106.94 45.9777C106.615 46.1878 106.344 46.4741 106.151 46.8125V52.7434H104.372V47.3368C104.376 47.0578 104.352 46.7792 104.299 46.5054C104.263 46.3155 104.188 46.1352 104.08 45.9759C103.988 45.8513 103.863 45.7558 103.72 45.7005C103.538 45.6342 103.345 45.6019 103.151 45.6052C102.767 45.6403 102.396 45.7682 102.071 45.9783C101.745 46.1883 101.473 46.4743 101.278 46.8125V52.7434H99.6716V45.9653H98.5395V44.3131H99.6716H101.278V45.0915H101.257ZM96.7136 51.033H97.4231V52.5739H95.1016V51.9755C94.3928 52.501 93.5323 52.773 92.6549 52.7487C92.3007 52.7504 91.9485 52.695 91.6115 52.5845C91.3068 52.4802 91.0226 52.3225 90.7716 52.1185C90.531 51.9208 90.3367 51.6711 90.2029 51.3878C90.0613 51.0889 89.9899 50.7609 89.9943 50.4293C89.9943 47.9775 92.7331 47.6492 94.5956 47.6492H95.1172C95.1172 47.4162 95.1172 47.1832 95.1172 46.9502C95.1061 46.7525 95.045 46.561 94.9399 46.3942C94.8283 46.2359 94.669 46.1187 94.486 46.0606C94.173 45.9668 93.847 45.9257 93.5209 45.9388C92.9444 45.923 92.375 46.0716 91.8776 46.3677C91.8096 46.4278 91.7298 46.4722 91.6434 46.4981C91.557 46.5239 91.4661 46.5305 91.3769 46.5174C91.2878 46.5044 91.2025 46.4719 91.1268 46.4223C91.0512 46.3727 90.9869 46.3072 90.9385 46.2301C90.6933 45.8541 90.8864 45.5628 91.1681 45.2822C91.7315 44.7209 92.8531 44.5885 93.5939 44.5885C94.0247 44.5836 94.4548 44.6244 94.8773 44.7103C95.2464 44.7875 95.5928 44.9507 95.8893 45.1869C96.1795 45.4355 96.4007 45.7568 96.531 46.1189C96.6937 46.586 96.7698 47.0798 96.7553 47.5751V51.0224L96.7136 51.033ZM134.87 45.7376H133.602V44.4084H134.859V42.1791H136.466V44.4084H137.99V45.7376H136.477V50.2757C136.472 50.4763 136.487 50.6769 136.524 50.8741C136.543 50.9794 136.582 51.0801 136.638 51.1706C136.675 51.2238 136.728 51.2629 136.79 51.2819C136.873 51.3071 136.959 51.3196 137.045 51.3189C137.155 51.3189 137.264 51.3189 137.369 51.3189L137.676 51.2819H137.849V52.5792L137.734 52.6057C137.414 52.6781 137.086 52.7136 136.758 52.7116C136.423 52.7236 136.088 52.6696 135.772 52.5527C135.53 52.4549 135.324 52.2827 135.183 52.0603C135.039 51.8222 134.95 51.5543 134.922 51.2766C134.886 50.9371 134.869 50.5959 134.87 50.2545V45.7799V45.7376ZM121.588 42.7775H120.544V41.2365H123.153V51.0224H124.431V52.5633H121.551V42.7828L121.588 42.7775ZM86.4259 51.8326C86.156 52.1186 85.8322 52.3466 85.4737 52.5031C85.1152 52.6596 84.7294 52.7413 84.3392 52.7434C82.482 52.7434 81.689 51.6366 81.689 49.8203V44.7632H83.3115V49.7515C83.3071 50.0077 83.3316 50.2635 83.3845 50.514C83.4228 50.6871 83.4975 50.8497 83.6036 50.9906C83.696 51.1063 83.8191 51.1927 83.9583 51.2395C84.1457 51.299 84.3412 51.3277 84.5374 51.3242C84.9114 51.2995 85.2746 51.1872 85.5987 50.9961C85.9227 50.805 86.1987 50.5403 86.4051 50.2228V44.7685H88.0171V51.0065H89.1439V52.5474H88.0171H86.4051V51.822L86.4259 51.8326ZM130.336 50.3869V48.9201H129.569C128.63 48.9201 126.862 49.0207 126.862 50.3446C126.854 50.4919 126.883 50.639 126.947 50.7715C127.011 50.9041 127.108 51.0178 127.227 51.1018C127.538 51.3034 127.902 51.4016 128.27 51.3825C128.476 51.382 128.681 51.3571 128.881 51.3083C129.28 51.2209 129.654 51.0395 129.971 50.7788C130.109 50.6647 130.233 50.535 130.342 50.3922L130.336 50.3869ZM117.816 50.3869V48.9201H117.054C116.11 48.9201 114.341 49.0207 114.341 50.3446C114.334 50.4918 114.364 50.6385 114.428 50.7709C114.492 50.9033 114.588 51.0171 114.707 51.1018C115.017 51.3025 115.382 51.4005 115.75 51.3825C115.954 51.3818 116.157 51.357 116.355 51.3083C116.557 51.2611 116.753 51.1918 116.939 51.1018C117.125 51.0129 117.3 50.9028 117.461 50.7735C117.6 50.6608 117.724 50.5309 117.832 50.3869H117.816ZM95.112 50.3869V48.9201H94.3504C93.4061 48.9201 91.6376 49.0207 91.6376 50.3446C91.6306 50.4918 91.6604 50.6385 91.7242 50.7709C91.7881 50.9033 91.8839 51.0171 92.0028 51.1018C92.3139 51.3018 92.6782 51.3998 93.0461 51.3825C93.2517 51.3813 93.4565 51.3564 93.6565 51.3083C93.8564 51.261 94.0505 51.1918 94.2356 51.1018C94.4213 51.0129 94.5963 50.9028 94.7573 50.7735C94.8882 50.6605 95.0039 50.5305 95.1016 50.3869H95.112Z" fill="#9DA1C0"/>
</g>
<defs>
<clipPath id="clip0">
<rect width="105" height="32" fill="white" transform="translate(33 24)"/>
</clipPath>
</defs>
</svg>
