<svg width="64" height="64" viewBox="0 0 64 64" fill="none" xmlns="http://www.w3.org/2000/svg">
<path d="M63 29.4199V46.3499C62.9894 47.5346 62.51 48.6669 61.6667 49.499C60.8233 50.3311 59.6847 50.7953 58.5 50.7899H5.5C4.31527 50.7953 3.17666 50.3311 2.33331 49.499C1.48997 48.6669 1.01057 47.5346 1 46.3499V29.4199" stroke="#007AFF" stroke-width="2" stroke-linejoin="round"/>
<path d="M63 23.9399V40.8699C62.9921 42.0564 62.5138 43.1912 61.6702 44.0255C60.8266 44.8597 59.6865 45.3253 58.5 45.3199H5.5C4.31355 45.3253 3.17344 44.8597 2.32981 44.0255C1.48618 43.1912 1.00793 42.0564 1 40.8699V23.9399" stroke="#007AFF" stroke-width="2" stroke-linejoin="round"/>
<path d="M59.15 13.6602H4.85C2.7237 13.6602 1 15.3839 1 17.5102V35.6302C1 37.7565 2.7237 39.4802 4.85 39.4802H59.15C61.2763 39.4802 63 37.7565 63 35.6302V17.5102C63 15.3839 61.2763 13.6602 59.15 13.6602Z" stroke="#007AFF" stroke-width="2" stroke-linejoin="round"/>
<path d="M22.3101 39.4702H41.6901" stroke="#00BFA5" stroke-width="2" stroke-linecap="round" stroke-linejoin="round"/>
<path d="M22.3101 45.3203H41.6901" stroke="#00BFA5" stroke-width="2" stroke-linecap="round" stroke-linejoin="round"/>
<path d="M41.6901 13.6602H22.3101V50.8002H41.6901V13.6602Z" stroke="#00BFA5" stroke-width="2" stroke-linecap="round" stroke-linejoin="round"/>
<path d="M31.9999 31.7003C34.9436 31.7003 37.3299 29.3812 37.3299 26.5203C37.3299 23.6595 34.9436 21.3403 31.9999 21.3403C29.0562 21.3403 26.6699 23.6595 26.6699 26.5203C26.6699 29.3812 29.0562 31.7003 31.9999 31.7003Z" stroke="#00BFA5" stroke-width="2" stroke-linecap="round" stroke-linejoin="round"/>
<path d="M7.79012 22.1701C9.12665 22.1701 10.2101 21.1001 10.2101 19.7801C10.2101 18.4602 9.12665 17.3901 7.79012 17.3901C6.45359 17.3901 5.37012 18.4602 5.37012 19.7801C5.37012 21.1001 6.45359 22.1701 7.79012 22.1701Z" stroke="#00BFA5" stroke-width="2" stroke-linecap="round" stroke-linejoin="round"/>
<path d="M56.5299 35.8703C57.8664 35.8703 58.9499 34.8003 58.9499 33.4803C58.9499 32.1604 57.8664 31.0903 56.5299 31.0903C55.1933 31.0903 54.1099 32.1604 54.1099 33.4803C54.1099 34.8003 55.1933 35.8703 56.5299 35.8703Z" stroke="#00BFA5" stroke-width="2" stroke-linecap="round" stroke-linejoin="round"/>
</svg>
