<svg width="351" height="240" viewBox="0 0 351 240" fill="none" xmlns="http://www.w3.org/2000/svg">
<g clip-path="url(#clip0)">
<g filter="url(#filter0_d)">
<path d="M29.5 37H319.5V212C319.5 216.418 315.918 220 311.5 220H37.5C33.0817 220 29.5 216.418 29.5 212V37Z" fill="white"/>
</g>
<path d="M29.5 37H319.5V27C319.5 22.5817 315.918 19 311.5 19H37.5C33.0817 19 29.5 22.5817 29.5 27V37Z" fill="#007AFF"/>
<rect opacity="0.16" x="226.5" y="68" width="65" height="8" rx="4" fill="#3A4166"/>
<rect opacity="0.16" x="57.5" y="106" width="63" height="8" rx="1" fill="#3A4166"/>
<rect opacity="0.16" x="57.5" y="88" width="37" height="8" rx="1" fill="#3A4166"/>
<rect opacity="0.16" x="57.5" y="124" width="47" height="8" rx="1" fill="#3A4166"/>
<rect opacity="0.16" x="130.5" y="106" width="51" height="8" rx="1" fill="#3A4166"/>
<rect opacity="0.16" x="130.5" y="88" width="38" height="8" rx="1" fill="#3A4166"/>
<rect opacity="0.16" x="130.5" y="124" width="64" height="8" rx="1" fill="#3A4166"/>
<rect opacity="0.16" x="204.5" y="106" width="29" height="8" rx="1" fill="#3A4166"/>
<rect opacity="0.16" x="204.5" y="88" width="29" height="8" rx="1" fill="#3A4166"/>
<rect opacity="0.16" x="204.5" y="124" width="29" height="8" rx="1" fill="#3A4166"/>
<rect opacity="0.6" x="243.5" y="106" width="48" height="8" rx="1" fill="#FB8C00"/>
<rect opacity="0.6" x="243.5" y="88" width="48" height="8" rx="1" fill="#FB8C00"/>
<rect opacity="0.6" x="243.5" y="124" width="48" height="8" rx="1" fill="#FB8C00"/>
<rect x="69.5" y="164" width="210" height="40" rx="20" fill="#007AFF"/>
<path d="M118.519 190L111.979 183.44V190H109.399V175.9H111.979V182.2L118.259 175.9H121.339L114.519 182.68L121.659 190H118.519ZM130.864 185.56H124.204C124.284 186.467 124.558 187.14 125.024 187.58C125.491 188.02 126.158 188.24 127.024 188.24C128.104 188.24 129.091 187.893 129.984 187.2L130.704 188.92C130.251 189.293 129.678 189.593 128.984 189.82C128.304 190.047 127.618 190.16 126.924 190.16C125.324 190.16 124.058 189.707 123.124 188.8C122.204 187.893 121.744 186.653 121.744 185.08C121.744 184.08 121.944 183.193 122.344 182.42C122.744 181.647 123.304 181.047 124.024 180.62C124.758 180.193 125.584 179.98 126.504 179.98C127.851 179.98 128.911 180.413 129.684 181.28C130.471 182.147 130.864 183.34 130.864 184.86V185.56ZM126.564 181.74C125.898 181.74 125.358 181.953 124.944 182.38C124.544 182.807 124.298 183.42 124.204 184.22H128.724C128.698 183.407 128.498 182.793 128.124 182.38C127.751 181.953 127.231 181.74 126.564 181.74ZM132.909 175.9H135.409V190H132.909V175.9ZM142.448 190.16C141.448 190.16 140.568 189.953 139.808 189.54C139.061 189.127 138.481 188.533 138.068 187.76C137.654 186.987 137.448 186.087 137.448 185.06C137.448 184.033 137.654 183.14 138.068 182.38C138.481 181.607 139.061 181.013 139.808 180.6C140.568 180.187 141.448 179.98 142.448 179.98C143.448 179.98 144.321 180.187 145.068 180.6C145.828 181.013 146.408 181.607 146.808 182.38C147.221 183.14 147.428 184.033 147.428 185.06C147.428 186.087 147.221 186.987 146.808 187.76C146.408 188.533 145.828 189.127 145.068 189.54C144.321 189.953 143.448 190.16 142.448 190.16ZM142.428 188.22C143.241 188.22 143.861 187.953 144.288 187.42C144.714 186.887 144.928 186.1 144.928 185.06C144.928 184.033 144.714 183.253 144.288 182.72C143.861 182.173 143.248 181.9 142.448 181.9C141.648 181.9 141.028 182.173 140.588 182.72C140.161 183.253 139.948 184.033 139.948 185.06C139.948 186.1 140.161 186.887 140.588 187.42C141.014 187.953 141.628 188.22 142.428 188.22ZM149.491 175.9H151.991V190H149.491V175.9ZM158.77 179.98C160.143 179.98 161.163 180.313 161.83 180.98C162.496 181.647 162.83 182.673 162.83 184.06V190H160.45V188.5C160.223 189.02 159.863 189.427 159.37 189.72C158.89 190.013 158.33 190.16 157.69 190.16C157.036 190.16 156.443 190.027 155.91 189.76C155.376 189.493 154.956 189.127 154.65 188.66C154.343 188.193 154.19 187.673 154.19 187.1C154.19 186.38 154.37 185.813 154.73 185.4C155.103 184.987 155.703 184.687 156.53 184.5C157.356 184.313 158.496 184.22 159.95 184.22H160.45V183.76C160.45 183.093 160.303 182.613 160.01 182.32C159.73 182.027 159.256 181.88 158.59 181.88C158.07 181.88 157.523 181.973 156.95 182.16C156.39 182.333 155.836 182.58 155.29 182.9L154.59 181.18C155.136 180.833 155.796 180.547 156.57 180.32C157.343 180.093 158.076 179.98 158.77 179.98ZM158.19 188.36C158.856 188.36 159.396 188.14 159.81 187.7C160.236 187.247 160.45 186.667 160.45 185.96V185.54H160.09C159.196 185.54 158.503 185.58 158.01 185.66C157.516 185.74 157.163 185.88 156.95 186.08C156.736 186.28 156.63 186.553 156.63 186.9C156.63 187.327 156.776 187.68 157.07 187.96C157.363 188.227 157.736 188.36 158.19 188.36ZM171.02 175.9H176.22C178.527 175.9 180.313 176.52 181.58 177.76C182.86 178.987 183.5 180.713 183.5 182.94C183.5 185.167 182.86 186.9 181.58 188.14C180.313 189.38 178.527 190 176.22 190H171.02V175.9ZM176.06 187.9C179.3 187.9 180.92 186.247 180.92 182.94C180.92 179.647 179.3 178 176.06 178H173.6V187.9H176.06ZM190.338 190.16C189.338 190.16 188.458 189.953 187.698 189.54C186.951 189.127 186.371 188.533 185.958 187.76C185.545 186.987 185.338 186.087 185.338 185.06C185.338 184.033 185.545 183.14 185.958 182.38C186.371 181.607 186.951 181.013 187.698 180.6C188.458 180.187 189.338 179.98 190.338 179.98C191.338 179.98 192.211 180.187 192.958 180.6C193.718 181.013 194.298 181.607 194.698 182.38C195.111 183.14 195.318 184.033 195.318 185.06C195.318 186.087 195.111 186.987 194.698 187.76C194.298 188.533 193.718 189.127 192.958 189.54C192.211 189.953 191.338 190.16 190.338 190.16ZM190.318 188.22C191.131 188.22 191.751 187.953 192.178 187.42C192.605 186.887 192.818 186.1 192.818 185.06C192.818 184.033 192.605 183.253 192.178 182.72C191.751 182.173 191.138 181.9 190.338 181.9C189.538 181.9 188.918 182.173 188.478 182.72C188.051 183.253 187.838 184.033 187.838 185.06C187.838 186.1 188.051 186.887 188.478 187.42C188.905 187.953 189.518 188.22 190.318 188.22ZM209.002 179.98C210.109 179.98 210.935 180.313 211.482 180.98C212.029 181.633 212.302 182.64 212.302 184V190H209.802V184.1C209.802 183.353 209.675 182.813 209.422 182.48C209.169 182.133 208.762 181.96 208.202 181.96C207.535 181.96 207.015 182.187 206.642 182.64C206.269 183.093 206.082 183.727 206.082 184.54V190H203.582V184.1C203.582 183.353 203.455 182.813 203.202 182.48C202.962 182.133 202.555 181.96 201.982 181.96C201.329 181.96 200.815 182.187 200.442 182.64C200.069 183.093 199.882 183.727 199.882 184.54V190H197.382V180.22H199.822V181.6C200.115 181.067 200.522 180.667 201.042 180.4C201.562 180.12 202.155 179.98 202.822 179.98C204.302 179.98 205.282 180.593 205.762 181.82C206.069 181.247 206.509 180.8 207.082 180.48C207.655 180.147 208.295 179.98 209.002 179.98ZM219.043 179.98C220.416 179.98 221.436 180.313 222.103 180.98C222.77 181.647 223.103 182.673 223.103 184.06V190H220.723V188.5C220.496 189.02 220.136 189.427 219.643 189.72C219.163 190.013 218.603 190.16 217.963 190.16C217.31 190.16 216.716 190.027 216.183 189.76C215.65 189.493 215.23 189.127 214.923 188.66C214.616 188.193 214.463 187.673 214.463 187.1C214.463 186.38 214.643 185.813 215.003 185.4C215.376 184.987 215.976 184.687 216.803 184.5C217.63 184.313 218.77 184.22 220.223 184.22H220.723V183.76C220.723 183.093 220.576 182.613 220.283 182.32C220.003 182.027 219.53 181.88 218.863 181.88C218.343 181.88 217.796 181.973 217.223 182.16C216.663 182.333 216.11 182.58 215.563 182.9L214.863 181.18C215.41 180.833 216.07 180.547 216.843 180.32C217.616 180.093 218.35 179.98 219.043 179.98ZM218.463 188.36C219.13 188.36 219.67 188.14 220.083 187.7C220.51 187.247 220.723 186.667 220.723 185.96V185.54H220.363C219.47 185.54 218.776 185.58 218.283 185.66C217.79 185.74 217.436 185.88 217.223 186.08C217.01 186.28 216.903 186.553 216.903 186.9C216.903 187.327 217.05 187.68 217.343 187.96C217.636 188.227 218.01 188.36 218.463 188.36ZM225.644 180.22H228.144V190H225.644V180.22ZM228.264 175.68V178.14H225.504V175.68H228.264ZM236.402 179.98C237.575 179.98 238.449 180.313 239.022 180.98C239.595 181.647 239.882 182.653 239.882 184V190H237.382V184.14C237.382 183.38 237.235 182.827 236.942 182.48C236.662 182.133 236.215 181.96 235.602 181.96C234.882 181.96 234.302 182.187 233.862 182.64C233.435 183.093 233.222 183.7 233.222 184.46V190H230.722V180.22H233.162V181.68C233.495 181.133 233.942 180.713 234.502 180.42C235.062 180.127 235.695 179.98 236.402 179.98Z" fill="white"/>
<g clip-path="url(#clip1)">
<path d="M285.258 70C286.202 70 286.968 70.7655 286.968 71.7099C286.968 72.0454 286.871 72.3584 286.704 72.6225C286.705 72.623 286.706 72.6235 286.708 72.6241L287.452 73.368L286.82 74L286.049 73.229C286.049 73.228 286.049 73.2269 286.05 73.2258C285.813 73.3497 285.543 73.4199 285.258 73.4199C284.313 73.4199 283.548 72.6542 283.548 71.7099C283.548 70.7655 284.313 70 285.258 70ZM285.258 70.7596C284.733 70.7596 284.307 71.1851 284.307 71.7099C284.307 72.2347 284.733 72.6601 285.258 72.6601C285.782 72.6601 286.208 72.2347 286.208 71.7099C286.208 71.1851 285.782 70.7596 285.258 70.7596Z" fill="white"/>
</g>
<g filter="url(#filter1_d)">
<rect x="5.5" y="56" width="48" height="48" rx="8" fill="white"/>
</g>
<path d="M22.8546 84.24V87H20.0546V84.24H22.8546ZM25.2355 77.22H27.7355V87H25.2355V77.22ZM27.8555 72.68V75.14H25.0955V72.68H27.8555ZM39.7537 72.9V87H37.2737V85.42C36.9803 85.9667 36.5537 86.3933 35.9937 86.7C35.447 87.0067 34.8203 87.16 34.1137 87.16C33.2737 87.16 32.5203 86.9467 31.8537 86.52C31.2003 86.0933 30.687 85.4933 30.3137 84.72C29.9537 83.9333 29.7737 83.0333 29.7737 82.02C29.7737 81.0067 29.9537 80.12 30.3137 79.36C30.687 78.6 31.2003 78.0133 31.8537 77.6C32.507 77.1867 33.2603 76.98 34.1137 76.98C34.8203 76.98 35.447 77.1267 35.9937 77.42C36.5403 77.7133 36.9603 78.1267 37.2537 78.66V72.9H39.7537ZM34.7737 85.22C35.5737 85.22 36.187 84.9467 36.6137 84.4C37.0537 83.8533 37.2737 83.0733 37.2737 82.06C37.2737 81.0467 37.0537 80.2733 36.6137 79.74C36.187 79.1933 35.5803 78.92 34.7937 78.92C33.9937 78.92 33.3737 79.1867 32.9337 79.72C32.4937 80.2533 32.2737 81.02 32.2737 82.02C32.2737 83.0333 32.4937 83.82 32.9337 84.38C33.3737 84.94 33.987 85.22 34.7737 85.22Z" fill="#3A4166"/>
<g filter="url(#filter2_d)">
<rect x="267" y="100" width="78" height="49.2632" rx="8" fill="white"/>
</g>
<path d="M292.237 121.22L288.397 131H286.217L283.817 124.7L281.477 131H279.317L275.457 121.22H278.017L280.517 128.02L283.017 121.22H284.817L287.317 128.06L289.797 121.22H292.237ZM302.15 126.56H295.49C295.57 127.467 295.843 128.14 296.31 128.58C296.776 129.02 297.443 129.24 298.31 129.24C299.39 129.24 300.376 128.893 301.27 128.2L301.99 129.92C301.536 130.293 300.963 130.593 300.27 130.82C299.59 131.047 298.903 131.16 298.21 131.16C296.61 131.16 295.343 130.707 294.41 129.8C293.49 128.893 293.03 127.653 293.03 126.08C293.03 125.08 293.23 124.193 293.63 123.42C294.03 122.647 294.59 122.047 295.31 121.62C296.043 121.193 296.87 120.98 297.79 120.98C299.136 120.98 300.196 121.413 300.97 122.28C301.756 123.147 302.15 124.34 302.15 125.86V126.56ZM297.85 122.74C297.183 122.74 296.643 122.953 296.23 123.38C295.83 123.807 295.583 124.42 295.49 125.22H300.01C299.983 124.407 299.783 123.793 299.41 123.38C299.036 122.953 298.516 122.74 297.85 122.74ZM309.815 120.98C310.668 120.98 311.421 121.187 312.075 121.6C312.728 122.013 313.235 122.6 313.595 123.36C313.968 124.12 314.155 125.007 314.155 126.02C314.155 127.033 313.968 127.933 313.595 128.72C313.235 129.493 312.721 130.093 312.055 130.52C311.401 130.947 310.655 131.16 309.815 131.16C309.108 131.16 308.475 131.007 307.915 130.7C307.368 130.393 306.948 129.967 306.655 129.42V131H304.195V116.9H306.695V122.64C306.988 122.107 307.408 121.7 307.955 121.42C308.501 121.127 309.121 120.98 309.815 120.98ZM309.155 129.22C309.941 129.22 310.555 128.94 310.995 128.38C311.435 127.82 311.655 127.033 311.655 126.02C311.655 125.02 311.435 124.253 310.995 123.72C310.568 123.187 309.955 122.92 309.155 122.92C308.355 122.92 307.735 123.193 307.295 123.74C306.868 124.273 306.655 125.047 306.655 126.06C306.655 127.073 306.868 127.853 307.295 128.4C307.735 128.947 308.355 129.22 309.155 129.22ZM318.532 128.24V131H315.732V128.24H318.532ZM320.913 121.22H323.413V131H320.913V121.22ZM323.533 116.68V119.14H320.773V116.68H323.533ZM335.431 116.9V131H332.951V129.42C332.658 129.967 332.231 130.393 331.671 130.7C331.125 131.007 330.498 131.16 329.791 131.16C328.951 131.16 328.198 130.947 327.531 130.52C326.878 130.093 326.365 129.493 325.991 128.72C325.631 127.933 325.451 127.033 325.451 126.02C325.451 125.007 325.631 124.12 325.991 123.36C326.365 122.6 326.878 122.013 327.531 121.6C328.185 121.187 328.938 120.98 329.791 120.98C330.498 120.98 331.125 121.127 331.671 121.42C332.218 121.713 332.638 122.127 332.931 122.66V116.9H335.431ZM330.451 129.22C331.251 129.22 331.865 128.947 332.291 128.4C332.731 127.853 332.951 127.073 332.951 126.06C332.951 125.047 332.731 124.273 332.291 123.74C331.865 123.193 331.258 122.92 330.471 122.92C329.671 122.92 329.051 123.187 328.611 123.72C328.171 124.253 327.951 125.02 327.951 126.02C327.951 127.033 328.171 127.82 328.611 128.38C329.051 128.94 329.665 129.22 330.451 129.22Z" fill="#3A4166"/>
<circle cx="45.5" cy="28" r="4" fill="white"/>
<circle cx="61.5" cy="28" r="4" fill="white"/>
<circle cx="77.5" cy="28" r="4" fill="white"/>
</g>
<defs>
<filter id="filter0_d" x="9.5" y="23" width="330" height="223" filterUnits="userSpaceOnUse" color-interpolation-filters="sRGB">
<feFlood flood-opacity="0" result="BackgroundImageFix"/>
<feColorMatrix in="SourceAlpha" type="matrix" values="0 0 0 0 0 0 0 0 0 0 0 0 0 0 0 0 0 0 127 0"/>
<feOffset dy="6"/>
<feGaussianBlur stdDeviation="10"/>
<feColorMatrix type="matrix" values="0 0 0 0 0.0666667 0 0 0 0 0.101961 0 0 0 0 0.407843 0 0 0 0.15 0"/>
<feBlend mode="normal" in2="BackgroundImageFix" result="effect1_dropShadow"/>
<feBlend mode="normal" in="SourceGraphic" in2="effect1_dropShadow" result="shape"/>
</filter>
<filter id="filter1_d" x="-14.5" y="42" width="88" height="88" filterUnits="userSpaceOnUse" color-interpolation-filters="sRGB">
<feFlood flood-opacity="0" result="BackgroundImageFix"/>
<feColorMatrix in="SourceAlpha" type="matrix" values="0 0 0 0 0 0 0 0 0 0 0 0 0 0 0 0 0 0 127 0"/>
<feOffset dy="6"/>
<feGaussianBlur stdDeviation="10"/>
<feColorMatrix type="matrix" values="0 0 0 0 0.0666667 0 0 0 0 0.101961 0 0 0 0 0.407843 0 0 0 0.15 0"/>
<feBlend mode="normal" in2="BackgroundImageFix" result="effect1_dropShadow"/>
<feBlend mode="normal" in="SourceGraphic" in2="effect1_dropShadow" result="shape"/>
</filter>
<filter id="filter2_d" x="247" y="86" width="118" height="89.2632" filterUnits="userSpaceOnUse" color-interpolation-filters="sRGB">
<feFlood flood-opacity="0" result="BackgroundImageFix"/>
<feColorMatrix in="SourceAlpha" type="matrix" values="0 0 0 0 0 0 0 0 0 0 0 0 0 0 0 0 0 0 127 0"/>
<feOffset dy="6"/>
<feGaussianBlur stdDeviation="10"/>
<feColorMatrix type="matrix" values="0 0 0 0 0.0666667 0 0 0 0 0.101961 0 0 0 0 0.407843 0 0 0 0.15 0"/>
<feBlend mode="normal" in2="BackgroundImageFix" result="effect1_dropShadow"/>
<feBlend mode="normal" in="SourceGraphic" in2="effect1_dropShadow" result="shape"/>
</filter>
<clipPath id="clip0">
<rect width="350" height="240" fill="white" transform="translate(0.5)"/>
</clipPath>
<clipPath id="clip1">
<rect width="4" height="4" fill="white" transform="matrix(-1 0 0 1 287.5 70)"/>
</clipPath>
</defs>
</svg>
