<svg width="351" height="240" viewBox="0 0 351 240" fill="none" xmlns="http://www.w3.org/2000/svg">
<g clip-path="url(#clip0)">
<g filter="url(#filter0_d)">
<path d="M30.5 37H320.5V212C320.5 216.418 316.918 220 312.5 220H38.5C34.0817 220 30.5 216.418 30.5 212V37Z" fill="white"/>
</g>
<path d="M30.5 37H320.5V27C320.5 22.5817 316.918 19 312.5 19H38.5C34.0817 19 30.5 22.5817 30.5 27V37Z" fill="#007AFF"/>
<rect opacity="0.16" x="110.5" y="53" width="106" height="16" rx="1" fill="#3A4166"/>
<rect x="264.5" y="53" width="40" height="16" rx="8" fill="#FB8C00"/>
<rect opacity="0.16" x="110.5" y="79" width="65" height="8" rx="1" fill="#3A4166"/>
<rect opacity="0.16" x="110.5" y="117" width="52" height="8" rx="1" fill="#3A4166"/>
<rect opacity="0.16" x="110.5" y="93" width="130" height="16" rx="1" fill="#3A4166"/>
<rect opacity="0.16" x="110.5" y="131" width="130" height="16" rx="1" fill="#3A4166"/>
<rect x="111.5" y="164" width="128" height="40" rx="20" fill="#007AFF"/>
<path d="M151.307 175.9H153.887V187.88H160.467V190H151.307V175.9ZM166.582 190.16C165.582 190.16 164.702 189.953 163.942 189.54C163.196 189.127 162.616 188.533 162.202 187.76C161.789 186.987 161.582 186.087 161.582 185.06C161.582 184.033 161.789 183.14 162.202 182.38C162.616 181.607 163.196 181.013 163.942 180.6C164.702 180.187 165.582 179.98 166.582 179.98C167.582 179.98 168.456 180.187 169.202 180.6C169.962 181.013 170.542 181.607 170.942 182.38C171.356 183.14 171.562 184.033 171.562 185.06C171.562 186.087 171.356 186.987 170.942 187.76C170.542 188.533 169.962 189.127 169.202 189.54C168.456 189.953 167.582 190.16 166.582 190.16ZM166.562 188.22C167.376 188.22 167.996 187.953 168.422 187.42C168.849 186.887 169.062 186.1 169.062 185.06C169.062 184.033 168.849 183.253 168.422 182.72C167.996 182.173 167.382 181.9 166.582 181.9C165.782 181.9 165.162 182.173 164.722 182.72C164.296 183.253 164.082 184.033 164.082 185.06C164.082 186.1 164.296 186.887 164.722 187.42C165.149 187.953 165.762 188.22 166.562 188.22ZM183.146 180.22V189.1C183.146 190.633 182.72 191.793 181.866 192.58C181.026 193.367 179.78 193.76 178.126 193.76C177.273 193.76 176.453 193.647 175.666 193.42C174.88 193.207 174.193 192.9 173.606 192.5L174.306 190.74C175.52 191.473 176.773 191.84 178.066 191.84C179.8 191.84 180.666 190.987 180.666 189.28V188C180.373 188.547 179.946 188.973 179.386 189.28C178.826 189.573 178.186 189.72 177.466 189.72C176.613 189.72 175.853 189.52 175.186 189.12C174.533 188.707 174.02 188.133 173.646 187.4C173.273 186.667 173.086 185.82 173.086 184.86C173.086 183.9 173.266 183.053 173.626 182.32C174 181.573 174.52 181 175.186 180.6C175.853 180.187 176.613 179.98 177.466 179.98C178.186 179.98 178.826 180.133 179.386 180.44C179.946 180.733 180.373 181.153 180.666 181.7V180.22H183.146ZM178.126 187.78C178.926 187.78 179.546 187.52 179.986 187C180.44 186.48 180.666 185.767 180.666 184.86C180.666 183.94 180.44 183.22 179.986 182.7C179.546 182.18 178.926 181.92 178.126 181.92C177.34 181.92 176.72 182.18 176.266 182.7C175.813 183.22 175.586 183.94 175.586 184.86C175.586 185.753 175.813 186.467 176.266 187C176.72 187.52 177.34 187.78 178.126 187.78ZM185.736 180.22H188.236V190H185.736V180.22ZM188.356 175.68V178.14H185.596V175.68H188.356ZM196.494 179.98C197.667 179.98 198.54 180.313 199.114 180.98C199.687 181.647 199.974 182.653 199.974 184V190H197.474V184.14C197.474 183.38 197.327 182.827 197.034 182.48C196.754 182.133 196.307 181.96 195.694 181.96C194.974 181.96 194.394 182.187 193.954 182.64C193.527 183.093 193.314 183.7 193.314 184.46V190H190.814V180.22H193.254V181.68C193.587 181.133 194.034 180.713 194.594 180.42C195.154 180.127 195.787 179.98 196.494 179.98Z" fill="white"/>
<g filter="url(#filter1_d)">
<rect x="6.5" y="53" width="48" height="48" rx="8" fill="white"/>
</g>
<g filter="url(#filter2_d)">
<rect x="6.5" y="117" width="48" height="48" rx="8" fill="white"/>
</g>
<g clip-path="url(#clip1)">
<path d="M35.8868 78.8128L36.4702 75.0125H32.8234V72.5463C32.8234 71.5068 33.3327 70.4929 34.9661 70.4929H36.6238V67.2576C36.6238 67.2576 35.1196 67.001 33.6811 67.001C30.6781 67.001 28.7153 68.8214 28.7153 72.1164V75.0131H25.377V78.8135H28.7153V88.001H32.8234V78.8135L35.8868 78.8128Z" fill="#4267B2"/>
</g>
<path d="M38.907 139.084L38.8143 138.691H30.265V142.309H35.373C34.8427 144.828 32.3818 146.153 30.3716 146.153C28.909 146.153 27.3672 145.538 26.3467 144.549C25.8083 144.019 25.3798 143.388 25.0856 142.692C24.7914 141.996 24.6374 141.249 24.6323 140.493C24.6323 138.969 25.3172 137.445 26.3139 136.442C27.3106 135.439 28.8159 134.878 30.3125 134.878C32.0266 134.878 33.255 135.788 33.7144 136.203L36.2856 133.645C35.5314 132.983 33.4593 131.312 30.2297 131.312C27.738 131.312 25.3488 132.267 23.6024 134.008C21.8789 135.722 20.9868 138.2 20.9868 140.5C20.9868 142.8 21.8309 145.154 23.5011 146.882C25.2857 148.724 27.813 149.688 30.4155 149.688C32.7833 149.688 35.0277 148.76 36.6273 147.076C38.1998 145.419 39.0132 143.127 39.0132 140.723C39.0132 139.711 38.9115 139.11 38.907 139.084V139.084Z" fill="#DB4437"/>
<circle cx="46.5" cy="28" r="4" fill="white"/>
<circle cx="62.5" cy="28" r="4" fill="white"/>
<circle cx="78.5" cy="28" r="4" fill="white"/>
</g>
<defs>
<filter id="filter0_d" x="10.5" y="23" width="330" height="223" filterUnits="userSpaceOnUse" color-interpolation-filters="sRGB">
<feFlood flood-opacity="0" result="BackgroundImageFix"/>
<feColorMatrix in="SourceAlpha" type="matrix" values="0 0 0 0 0 0 0 0 0 0 0 0 0 0 0 0 0 0 127 0"/>
<feOffset dy="6"/>
<feGaussianBlur stdDeviation="10"/>
<feColorMatrix type="matrix" values="0 0 0 0 0.0666667 0 0 0 0 0.101961 0 0 0 0 0.407843 0 0 0 0.15 0"/>
<feBlend mode="normal" in2="BackgroundImageFix" result="effect1_dropShadow"/>
<feBlend mode="normal" in="SourceGraphic" in2="effect1_dropShadow" result="shape"/>
</filter>
<filter id="filter1_d" x="-13.5" y="39" width="88" height="88" filterUnits="userSpaceOnUse" color-interpolation-filters="sRGB">
<feFlood flood-opacity="0" result="BackgroundImageFix"/>
<feColorMatrix in="SourceAlpha" type="matrix" values="0 0 0 0 0 0 0 0 0 0 0 0 0 0 0 0 0 0 127 0"/>
<feOffset dy="6"/>
<feGaussianBlur stdDeviation="10"/>
<feColorMatrix type="matrix" values="0 0 0 0 0.0666667 0 0 0 0 0.101961 0 0 0 0 0.407843 0 0 0 0.15 0"/>
<feBlend mode="normal" in2="BackgroundImageFix" result="effect1_dropShadow"/>
<feBlend mode="normal" in="SourceGraphic" in2="effect1_dropShadow" result="shape"/>
</filter>
<filter id="filter2_d" x="-13.5" y="103" width="88" height="88" filterUnits="userSpaceOnUse" color-interpolation-filters="sRGB">
<feFlood flood-opacity="0" result="BackgroundImageFix"/>
<feColorMatrix in="SourceAlpha" type="matrix" values="0 0 0 0 0 0 0 0 0 0 0 0 0 0 0 0 0 0 127 0"/>
<feOffset dy="6"/>
<feGaussianBlur stdDeviation="10"/>
<feColorMatrix type="matrix" values="0 0 0 0 0.0666667 0 0 0 0 0.101961 0 0 0 0 0.407843 0 0 0 0.15 0"/>
<feBlend mode="normal" in2="BackgroundImageFix" result="effect1_dropShadow"/>
<feBlend mode="normal" in="SourceGraphic" in2="effect1_dropShadow" result="shape"/>
</filter>
<clipPath id="clip0">
<rect width="350" height="240" fill="white" transform="translate(0.5)"/>
</clipPath>
<clipPath id="clip1">
<rect width="21" height="21" fill="white" transform="translate(20.5 67)"/>
</clipPath>
</defs>
</svg>
