<svg width="351" height="240" viewBox="0 0 351 240" fill="none" xmlns="http://www.w3.org/2000/svg">
<g clip-path="url(#clip0)">
<g filter="url(#filter0_d)">
<path d="M30 37H320V212C320 216.418 316.418 220 312 220H38C33.5817 220 30 216.418 30 212V37Z" fill="white"/>
</g>
<path d="M30 37H320V27C320 22.5817 316.418 19 312 19H38C33.5817 19 30 22.5817 30 27V37Z" fill="#007AFF"/>
<rect opacity="0.16" x="69" y="100" width="62" height="8" rx="1" fill="#3A4166"/>
<rect opacity="0.16" x="69" y="82" width="62" height="8" rx="1" fill="#3A4166"/>
<rect opacity="0.16" x="69" y="64" width="62" height="8" rx="1" fill="#3A4166"/>
<rect opacity="0.16" x="175" y="100" width="56" height="8" rx="1" fill="#3A4166"/>
<rect opacity="0.16" x="175" y="82" width="56" height="8" rx="1" fill="#3A4166"/>
<rect opacity="0.16" x="175" y="64" width="56" height="8" rx="1" fill="#3A4166"/>
<rect opacity="0.16" x="241" y="100" width="40" height="8" rx="1" fill="#3A4166"/>
<rect opacity="0.16" x="241" y="82" width="40" height="8" rx="1" fill="#3A4166"/>
<rect opacity="0.16" x="241" y="64" width="40" height="8" rx="1" fill="#3A4166"/>
<rect x="103" y="164" width="143" height="40" rx="20" fill="#007AFF"/>
<path d="M148.803 190.18C146.87 190.18 145.403 189.68 144.403 188.68C143.403 187.68 142.903 186.22 142.903 184.3V175.9H145.423V184.44C145.423 185.653 145.71 186.573 146.283 187.2C146.856 187.813 147.696 188.12 148.803 188.12C149.896 188.12 150.73 187.807 151.303 187.18C151.876 186.553 152.163 185.64 152.163 184.44V175.9H154.683V184.3C154.683 186.207 154.183 187.667 153.183 188.68C152.183 189.68 150.723 190.18 148.803 190.18ZM163.051 179.98C163.891 179.98 164.638 180.193 165.291 180.62C165.958 181.047 166.471 181.653 166.831 182.44C167.204 183.213 167.391 184.107 167.391 185.12C167.391 186.133 167.204 187.02 166.831 187.78C166.471 188.54 165.964 189.127 165.311 189.54C164.658 189.953 163.904 190.16 163.051 190.16C162.358 190.16 161.738 190.013 161.191 189.72C160.644 189.427 160.224 189.02 159.931 188.5V193.6H157.431V180.22H159.891V181.7C160.184 181.153 160.604 180.733 161.151 180.44C161.711 180.133 162.344 179.98 163.051 179.98ZM162.391 188.22C163.178 188.22 163.791 187.953 164.231 187.42C164.671 186.873 164.891 186.107 164.891 185.12C164.891 184.107 164.671 183.32 164.231 182.76C163.791 182.2 163.178 181.92 162.391 181.92C161.591 181.92 160.971 182.193 160.531 182.74C160.104 183.287 159.891 184.067 159.891 185.08C159.891 186.08 160.104 186.853 160.531 187.4C160.971 187.947 161.591 188.22 162.391 188.22ZM169.443 175.9H171.943V190H169.443V175.9ZM178.981 190.16C177.981 190.16 177.101 189.953 176.341 189.54C175.594 189.127 175.014 188.533 174.601 187.76C174.187 186.987 173.981 186.087 173.981 185.06C173.981 184.033 174.187 183.14 174.601 182.38C175.014 181.607 175.594 181.013 176.341 180.6C177.101 180.187 177.981 179.98 178.981 179.98C179.981 179.98 180.854 180.187 181.601 180.6C182.361 181.013 182.941 181.607 183.341 182.38C183.754 183.14 183.961 184.033 183.961 185.06C183.961 186.087 183.754 186.987 183.341 187.76C182.941 188.533 182.361 189.127 181.601 189.54C180.854 189.953 179.981 190.16 178.981 190.16ZM178.961 188.22C179.774 188.22 180.394 187.953 180.821 187.42C181.247 186.887 181.461 186.1 181.461 185.06C181.461 184.033 181.247 183.253 180.821 182.72C180.394 182.173 179.781 181.9 178.981 181.9C178.181 181.9 177.561 182.173 177.121 182.72C176.694 183.253 176.481 184.033 176.481 185.06C176.481 186.1 176.694 186.887 177.121 187.42C177.547 187.953 178.161 188.22 178.961 188.22ZM190.225 179.98C191.598 179.98 192.618 180.313 193.285 180.98C193.951 181.647 194.285 182.673 194.285 184.06V190H191.905V188.5C191.678 189.02 191.318 189.427 190.825 189.72C190.345 190.013 189.785 190.16 189.145 190.16C188.491 190.16 187.898 190.027 187.365 189.76C186.831 189.493 186.411 189.127 186.105 188.66C185.798 188.193 185.645 187.673 185.645 187.1C185.645 186.38 185.825 185.813 186.185 185.4C186.558 184.987 187.158 184.687 187.985 184.5C188.811 184.313 189.951 184.22 191.405 184.22H191.905V183.76C191.905 183.093 191.758 182.613 191.465 182.32C191.185 182.027 190.711 181.88 190.045 181.88C189.525 181.88 188.978 181.973 188.405 182.16C187.845 182.333 187.291 182.58 186.745 182.9L186.045 181.18C186.591 180.833 187.251 180.547 188.025 180.32C188.798 180.093 189.531 179.98 190.225 179.98ZM189.645 188.36C190.311 188.36 190.851 188.14 191.265 187.7C191.691 187.247 191.905 186.667 191.905 185.96V185.54H191.545C190.651 185.54 189.958 185.58 189.465 185.66C188.971 185.74 188.618 185.88 188.405 186.08C188.191 186.28 188.085 186.553 188.085 186.9C188.085 187.327 188.231 187.68 188.525 187.96C188.818 188.227 189.191 188.36 189.645 188.36ZM206.265 175.9V190H203.785V188.42C203.492 188.967 203.065 189.393 202.505 189.7C201.959 190.007 201.332 190.16 200.625 190.16C199.785 190.16 199.032 189.947 198.365 189.52C197.712 189.093 197.199 188.493 196.825 187.72C196.465 186.933 196.285 186.033 196.285 185.02C196.285 184.007 196.465 183.12 196.825 182.36C197.199 181.6 197.712 181.013 198.365 180.6C199.019 180.187 199.772 179.98 200.625 179.98C201.332 179.98 201.959 180.127 202.505 180.42C203.052 180.713 203.472 181.127 203.765 181.66V175.9H206.265ZM201.285 188.22C202.085 188.22 202.699 187.947 203.125 187.4C203.565 186.853 203.785 186.073 203.785 185.06C203.785 184.047 203.565 183.273 203.125 182.74C202.699 182.193 202.092 181.92 201.305 181.92C200.505 181.92 199.885 182.187 199.445 182.72C199.005 183.253 198.785 184.02 198.785 185.02C198.785 186.033 199.005 186.82 199.445 187.38C199.885 187.94 200.499 188.22 201.285 188.22Z" fill="white"/>
<g filter="url(#filter1_d)">
<rect x="270.5" y="124" width="73" height="47" rx="8" fill="white"/>
</g>
<path d="M292.315 145.98C293.195 145.98 293.968 146.173 294.635 146.56C295.315 146.933 295.835 147.46 296.195 148.14C296.568 148.82 296.755 149.6 296.755 150.48C296.755 151.413 296.541 152.233 296.115 152.94C295.688 153.647 295.081 154.193 294.295 154.58C293.521 154.967 292.608 155.16 291.555 155.16C290.675 155.16 289.801 155.013 288.935 154.72C288.081 154.413 287.375 154.013 286.815 153.52L287.675 151.64C288.955 152.613 290.261 153.1 291.595 153.1C292.475 153.1 293.148 152.88 293.615 152.44C294.081 152 294.315 151.373 294.315 150.56C294.315 149.773 294.075 149.153 293.595 148.7C293.128 148.233 292.488 148 291.675 148C291.128 148 290.608 148.107 290.115 148.32C289.635 148.52 289.201 148.813 288.815 149.2H287.275V140.9H296.115V142.9H289.795V146.7C290.475 146.22 291.315 145.98 292.315 145.98ZM304.427 145.96C305.254 145.96 305.994 146.153 306.647 146.54C307.3 146.913 307.807 147.447 308.167 148.14C308.54 148.82 308.727 149.6 308.727 150.48C308.727 151.387 308.527 152.2 308.127 152.92C307.727 153.627 307.167 154.18 306.447 154.58C305.727 154.98 304.914 155.18 304.007 155.18C302.22 155.18 300.84 154.58 299.867 153.38C298.907 152.167 298.427 150.44 298.427 148.2C298.427 146.653 298.654 145.32 299.107 144.2C299.574 143.067 300.24 142.207 301.107 141.62C301.974 141.02 303 140.72 304.187 140.72C305.027 140.72 305.847 140.867 306.647 141.16C307.447 141.44 308.14 141.84 308.727 142.36L307.867 144.24C306.627 143.267 305.434 142.78 304.287 142.78C303.26 142.78 302.46 143.22 301.887 144.1C301.314 144.967 301.014 146.227 300.987 147.88C301.294 147.28 301.754 146.813 302.367 146.48C302.98 146.133 303.667 145.96 304.427 145.96ZM303.887 153.14C304.62 153.14 305.2 152.907 305.627 152.44C306.067 151.973 306.287 151.347 306.287 150.56C306.287 149.787 306.067 149.167 305.627 148.7C305.187 148.233 304.6 148 303.867 148C303.134 148 302.534 148.24 302.067 148.72C301.614 149.187 301.387 149.8 301.387 150.56C301.387 151.333 301.614 151.96 302.067 152.44C302.534 152.907 303.14 153.14 303.887 153.14ZM314.039 154.6L322.299 140.34L323.959 141.3L315.699 155.56L314.039 154.6ZM313.959 149.32C312.839 149.32 311.966 148.953 311.339 148.22C310.712 147.487 310.399 146.413 310.399 145C310.399 143.6 310.712 142.533 311.339 141.8C311.966 141.067 312.839 140.7 313.959 140.7C315.079 140.7 315.952 141.067 316.579 141.8C317.219 142.533 317.539 143.6 317.539 145C317.539 146.413 317.219 147.487 316.579 148.22C315.952 148.953 315.079 149.32 313.959 149.32ZM313.959 147.7C314.466 147.7 314.832 147.493 315.059 147.08C315.299 146.653 315.419 145.96 315.419 145C315.419 144.067 315.299 143.387 315.059 142.96C314.819 142.533 314.452 142.32 313.959 142.32C313.466 142.32 313.099 142.533 312.859 142.96C312.632 143.373 312.519 144.053 312.519 145C312.519 145.96 312.632 146.653 312.859 147.08C313.099 147.493 313.466 147.7 313.959 147.7ZM324.019 155.14C322.899 155.14 322.026 154.773 321.399 154.04C320.772 153.307 320.459 152.227 320.459 150.8C320.459 149.4 320.772 148.34 321.399 147.62C322.039 146.887 322.912 146.52 324.019 146.52C325.139 146.52 326.012 146.887 326.639 147.62C327.266 148.353 327.579 149.42 327.579 150.82C327.579 152.233 327.266 153.307 326.639 154.04C326.012 154.773 325.139 155.14 324.019 155.14ZM324.019 153.52C324.512 153.52 324.879 153.313 325.119 152.9C325.359 152.473 325.479 151.78 325.479 150.82C325.479 149.887 325.359 149.207 325.119 148.78C324.879 148.353 324.512 148.14 324.019 148.14C323.526 148.14 323.159 148.353 322.919 148.78C322.679 149.207 322.559 149.887 322.559 150.82C322.559 151.78 322.679 152.473 322.919 152.9C323.159 153.313 323.526 153.52 324.019 153.52Z" fill="#3A4166"/>
<rect opacity="0.1" x="69" y="128" width="212.48" height="16" rx="8" fill="#3A4166"/>
<rect opacity="0.8" x="69" y="128" width="161" height="16" rx="8" fill="#FB8C00"/>
<circle cx="46" cy="28" r="4" fill="white"/>
<circle cx="62" cy="28" r="4" fill="white"/>
<circle cx="78" cy="28" r="4" fill="white"/>
<g filter="url(#filter2_d)">
<rect x="296" y="68" width="48" height="48" rx="8" fill="white"/>
</g>
<path fill-rule="evenodd" clip-rule="evenodd" d="M314.2 86.1996C314.2 85.6427 314.421 85.1085 314.815 84.7147C315.209 84.3209 315.743 84.0996 316.3 84.0996H321.115C321.672 84.0997 322.206 84.3211 322.6 84.7149L326.185 88.2996C326.579 88.6933 326.8 89.2274 326.8 89.7843V98.7996C326.8 99.3566 326.579 99.8907 326.185 100.285C325.791 100.678 325.257 100.9 324.7 100.9H316.3C315.743 100.9 315.209 100.678 314.815 100.285C314.421 99.8907 314.2 99.3566 314.2 98.7996V86.1996Z" fill="#3A4166"/>
</g>
<defs>
<filter id="filter0_d" x="10" y="23" width="330" height="223" filterUnits="userSpaceOnUse" color-interpolation-filters="sRGB">
<feFlood flood-opacity="0" result="BackgroundImageFix"/>
<feColorMatrix in="SourceAlpha" type="matrix" values="0 0 0 0 0 0 0 0 0 0 0 0 0 0 0 0 0 0 127 0"/>
<feOffset dy="6"/>
<feGaussianBlur stdDeviation="10"/>
<feColorMatrix type="matrix" values="0 0 0 0 0.0666667 0 0 0 0 0.101961 0 0 0 0 0.407843 0 0 0 0.15 0"/>
<feBlend mode="normal" in2="BackgroundImageFix" result="effect1_dropShadow"/>
<feBlend mode="normal" in="SourceGraphic" in2="effect1_dropShadow" result="shape"/>
</filter>
<filter id="filter1_d" x="250.5" y="110" width="113" height="87" filterUnits="userSpaceOnUse" color-interpolation-filters="sRGB">
<feFlood flood-opacity="0" result="BackgroundImageFix"/>
<feColorMatrix in="SourceAlpha" type="matrix" values="0 0 0 0 0 0 0 0 0 0 0 0 0 0 0 0 0 0 127 0"/>
<feOffset dy="6"/>
<feGaussianBlur stdDeviation="10"/>
<feColorMatrix type="matrix" values="0 0 0 0 0.0666667 0 0 0 0 0.101961 0 0 0 0 0.407843 0 0 0 0.15 0"/>
<feBlend mode="normal" in2="BackgroundImageFix" result="effect1_dropShadow"/>
<feBlend mode="normal" in="SourceGraphic" in2="effect1_dropShadow" result="shape"/>
</filter>
<filter id="filter2_d" x="276" y="54" width="88" height="88" filterUnits="userSpaceOnUse" color-interpolation-filters="sRGB">
<feFlood flood-opacity="0" result="BackgroundImageFix"/>
<feColorMatrix in="SourceAlpha" type="matrix" values="0 0 0 0 0 0 0 0 0 0 0 0 0 0 0 0 0 0 127 0"/>
<feOffset dy="6"/>
<feGaussianBlur stdDeviation="10"/>
<feColorMatrix type="matrix" values="0 0 0 0 0.0666667 0 0 0 0 0.101961 0 0 0 0 0.407843 0 0 0 0.15 0"/>
<feBlend mode="normal" in2="BackgroundImageFix" result="effect1_dropShadow"/>
<feBlend mode="normal" in="SourceGraphic" in2="effect1_dropShadow" result="shape"/>
</filter>
<clipPath id="clip0">
<rect width="350" height="240" fill="white" transform="translate(0.5)"/>
</clipPath>
</defs>
</svg>
